<svg width="150" height="170" viewBox="0 0 150 170" fill="none" xmlns="http://www.w3.org/2000/svg">
<path d="M75 169.685C72.6709 169.685 70.4971 169.061 68.4785 167.97L47.826 155.655C44.7205 153.94 46.2732 153.317 47.2049 153.005C51.3973 151.602 52.1736 151.29 56.5213 148.795C56.9877 148.484 57.6088 148.64 58.074 148.951L73.9131 158.461C74.5342 158.773 75.3105 158.773 75.7764 158.461L137.733 122.451C138.354 122.139 138.665 121.515 138.665 120.736V48.8708C138.665 48.0914 138.354 47.4678 137.733 47.1561L75.7764 11.3014C75.1553 10.9896 74.3789 10.9896 73.9131 11.3014L11.9561 47.1567C11.335 47.4684 11.0244 48.2478 11.0244 48.8714V120.736C11.0244 121.36 11.335 122.139 11.9561 122.451L28.882 132.271C38.0438 136.948 43.7883 131.492 43.7883 126.036V55.1061C43.7883 54.1708 44.5652 53.2355 45.6521 53.2355H53.5717C54.5033 53.2355 55.435 54.0149 55.435 55.1061V126.035C55.435 138.351 48.7576 145.521 37.1115 145.521C33.5402 145.521 30.7453 145.521 22.8264 141.624L6.52148 132.271C2.48438 129.933 0 125.568 0 120.891V49.0273C0 44.3508 2.48438 39.9861 6.52148 37.6473L68.4785 1.63725C72.3604 -0.5451 77.6396 -0.5451 81.5215 1.63725L143.479 37.6473C147.516 39.9855 150 44.3502 150 49.0273V120.892C150 125.568 147.516 129.933 143.479 132.271L81.5215 168.283C79.5029 169.218 77.1738 169.686 75 169.686V169.685ZM94.0992 120.268C66.9252 120.268 61.3354 107.797 61.3354 97.1967C61.3354 96.2614 62.1117 95.3261 63.1986 95.3261H71.2729C72.2045 95.3261 72.9814 95.9496 72.9814 96.8849C74.2236 105.147 77.7949 109.2 94.2545 109.2C107.298 109.2 112.888 106.238 112.888 99.2237C112.888 95.1702 111.336 92.2084 90.9938 90.1814C74.0684 88.4667 63.5092 84.7255 63.5092 71.1637C63.5092 58.5361 74.0678 51.0537 91.7701 51.0537C111.646 51.0537 121.429 57.9125 122.671 72.8778C122.671 73.3455 122.515 73.8131 122.205 74.2808C121.894 74.5925 121.429 74.9043 120.963 74.9043H112.888C112.112 74.9043 111.336 74.2808 111.18 73.5014C109.317 64.9278 104.503 62.122 91.7701 62.122C77.485 62.122 75.7764 67.1102 75.7764 70.8514C75.7764 75.3726 77.7949 76.7749 97.0494 79.269C116.149 81.7631 125.155 85.349 125.155 98.7555C125 112.474 113.82 120.268 94.0992 120.268Z" fill="#539E43"/>
</svg>
