<svg width="150" height="150" viewBox="0 0 150 150" fill="none" xmlns="http://www.w3.org/2000/svg">
<path d="M74.3648 0.0422363C36.3773 0.0422363 38.7492 16.5805 38.7492 16.5805L38.7914 33.7146H75.0422V38.8587H24.3932C24.3932 38.8587 0.0849609 36.0911 0.0849609 74.5705C0.0849609 113.051 21.3018 111.686 21.3018 111.686H33.9639V93.8299C33.9639 93.8299 33.2812 72.5299 54.842 72.5299H90.7963C90.7963 72.5299 110.996 72.8575 110.996 52.9305V19.9822C110.996 19.9822 114.064 0.0422363 74.3648 0.0422363ZM54.3762 11.5646C55.2328 11.5638 56.0812 11.7326 56.8727 12.0614C57.6643 12.3901 58.3835 12.8723 58.9893 13.4805C59.595 14.0886 60.0753 14.8106 60.4028 15.6053C60.7303 16.4 60.8984 17.2517 60.8977 18.1116C60.8984 18.9716 60.7303 19.8233 60.4028 20.618C60.0753 21.4127 59.595 22.1347 58.9893 22.7428C58.3835 23.3509 57.6643 23.8332 56.8727 24.1619C56.0812 24.4907 55.2328 24.6595 54.3762 24.6587C53.5195 24.6595 52.6712 24.4907 51.8796 24.1619C51.088 23.8332 50.3688 23.3509 49.7631 22.7428C49.1573 22.1347 48.677 21.4127 48.3495 20.618C48.0221 19.8233 47.8539 18.9716 47.8547 18.1116C47.8539 17.2517 48.0221 16.4 48.3495 15.6053C48.677 14.8106 49.1573 14.0886 49.7631 13.4805C50.3688 12.8723 51.088 12.3901 51.8796 12.0614C52.6712 11.7326 53.5195 11.5638 54.3762 11.5646Z" fill="url(#paint0_linear)"/>
<path d="M75.4435 149.486C113.431 149.486 111.059 132.948 111.059 132.948L111.017 115.814H74.7656V110.67H125.415C125.415 110.67 149.723 113.438 149.723 74.957C149.723 36.477 128.506 37.8417 128.506 37.8417H115.844V55.6976C115.844 55.6976 116.527 76.9976 94.9658 76.9976H59.0115C59.0115 76.9976 38.8113 76.6699 38.8113 96.5976V129.546C38.8113 129.546 35.7439 149.486 75.4429 149.486H75.4435ZM95.4322 137.965C94.5756 137.965 93.7272 137.797 92.9356 137.468C92.1441 137.139 91.4248 136.657 90.8191 136.049C90.2134 135.441 89.733 134.719 89.4056 133.924C89.0781 133.129 88.9099 132.278 88.9107 131.418C88.9099 130.558 89.078 129.706 89.4054 128.911C89.7328 128.116 90.2132 127.394 90.8189 126.786C91.4246 126.178 92.1439 125.696 92.9355 125.367C93.7271 125.038 94.5755 124.869 95.4322 124.87C96.2888 124.869 97.1372 125.038 97.9288 125.367C98.7203 125.695 99.4396 126.178 100.045 126.786C100.651 127.394 101.131 128.116 101.459 128.911C101.786 129.705 101.954 130.557 101.954 131.417C101.954 132.277 101.786 133.129 101.459 133.923C101.131 134.718 100.651 135.44 100.045 136.048C99.4396 136.656 98.7203 137.139 97.9288 137.467C97.1372 137.796 96.2888 137.965 95.4322 137.964V137.965Z" fill="url(#paint1_linear)"/>
<defs>
<linearGradient id="paint0_linear" x1="14.4651" y1="13.4838" x2="88.9084" y2="86.8965" gradientUnits="userSpaceOnUse">
<stop stop-color="#387EB8"/>
<stop offset="1" stop-color="#366994"/>
</linearGradient>
<linearGradient id="paint1_linear" x1="59.982" y1="60.8122" x2="139.911" y2="136.077" gradientUnits="userSpaceOnUse">
<stop stop-color="#FFE052"/>
<stop offset="1" stop-color="#FFC331"/>
</linearGradient>
</defs>
</svg>
