<svg width="150" height="112" viewBox="0 0 150 112" fill="none" xmlns="http://www.w3.org/2000/svg">
<path d="M18.75 65.3333C13.7772 65.3333 9.00805 67.3 5.49175 70.8007C1.97544 74.3014 0 79.0493 0 84L0 93.3333C0 98.284 1.97544 103.032 5.49175 106.533C9.00805 110.033 13.7772 112 18.75 112H131.25C136.223 112 140.992 110.033 144.508 106.533C148.025 103.032 150 98.284 150 93.3333V84C150 79.0493 148.025 74.3014 144.508 70.8007C140.992 67.3 136.223 65.3333 131.25 65.3333H18.75ZM23.4375 93.3333C22.1943 93.3333 21.002 92.8417 20.1229 91.9665C19.2439 91.0913 18.75 89.9043 18.75 88.6667C18.75 87.429 19.2439 86.242 20.1229 85.3668C21.002 84.4917 22.1943 84 23.4375 84C24.6807 84 25.873 84.4917 26.7521 85.3668C27.6311 86.242 28.125 87.429 28.125 88.6667C28.125 89.9043 27.6311 91.0913 26.7521 91.9665C25.873 92.8417 24.6807 93.3333 23.4375 93.3333ZM42.1875 93.3333C40.9443 93.3333 39.752 92.8417 38.8729 91.9665C37.9939 91.0913 37.5 89.9043 37.5 88.6667C37.5 87.429 37.9939 86.242 38.8729 85.3668C39.752 84.4917 40.9443 84 42.1875 84C43.4307 84 44.623 84.4917 45.5021 85.3668C46.3811 86.242 46.875 87.429 46.875 88.6667C46.875 89.9043 46.3811 91.0913 45.5021 91.9665C44.623 92.8417 43.4307 93.3333 42.1875 93.3333ZM18.75 0C13.7772 0 9.00805 1.96666 5.49175 5.46734C1.97544 8.96802 0 13.716 0 18.6667L0 28C0 32.9507 1.97544 37.6986 5.49175 41.1993C9.00805 44.7 13.7772 46.6667 18.75 46.6667H131.25C136.223 46.6667 140.992 44.7 144.508 41.1993C148.025 37.6986 150 32.9507 150 28V18.6667C150 13.716 148.025 8.96802 144.508 5.46734C140.992 1.96666 136.223 0 131.25 0H18.75ZM23.4375 28C22.1943 28 21.002 27.5083 20.1229 26.6332C19.2439 25.758 18.75 24.571 18.75 23.3333C18.75 22.0957 19.2439 20.9087 20.1229 20.0335C21.002 19.1583 22.1943 18.6667 23.4375 18.6667C24.6807 18.6667 25.873 19.1583 26.7521 20.0335C27.6311 20.9087 28.125 22.0957 28.125 23.3333C28.125 24.571 27.6311 25.758 26.7521 26.6332C25.873 27.5083 24.6807 28 23.4375 28ZM42.1875 28C40.9443 28 39.752 27.5083 38.8729 26.6332C37.9939 25.758 37.5 24.571 37.5 23.3333C37.5 22.0957 37.9939 20.9087 38.8729 20.0335C39.752 19.1583 40.9443 18.6667 42.1875 18.6667C43.4307 18.6667 44.623 19.1583 45.5021 20.0335C46.3811 20.9087 46.875 22.0957 46.875 23.3333C46.875 24.571 46.3811 25.758 45.5021 26.6332C44.623 27.5083 43.4307 28 42.1875 28Z" fill="url(#paint0_angular)"/>
<defs>
<radialGradient id="paint0_angular" cx="0" cy="0" r="1" gradientUnits="userSpaceOnUse" gradientTransform="translate(75 56) rotate(90) scale(56 75)">
<stop offset="0.246669" stop-color="#009999"/>
<stop offset="0.249963" stop-color="#1F8823"/>
<stop offset="0.497048" stop-color="#1F8823"/>
<stop offset="0.500761" stop-color="#009999"/>
<stop offset="0.500801" stop-color="#881F1F"/>
<stop offset="0.740576" stop-color="#881F1F"/>
<stop offset="0.757417" stop-color="#995C00"/>
<stop offset="0.998936" stop-color="#995C00"/>
<stop offset="0.999634" stop-color="#009999"/>
</radialGradient>
</defs>
</svg>
