<svg width="150" height="150" viewBox="0 0 150 150" fill="none" xmlns="http://www.w3.org/2000/svg">
<path d="M75 62.5C99.85 62.5 125 53.9125 125 37.5C125 21.0875 99.85 12.5 75 12.5C50.15 12.5 25 21.0875 25 37.5C25 53.9125 50.15 62.5 75 62.5Z" fill="#7A2424"/>
<path d="M25 62.5C25 78.9125 50.15 87.5 75 87.5C99.85 87.5 125 78.9125 125 62.5V50C125 66.4125 99.85 75 75 75C50.15 75 25 66.4125 25 50V62.5Z" fill="#1E7487"/>
<path d="M25 87.5C25 103.913 50.15 112.5 75 112.5C99.85 112.5 125 103.913 125 87.5V75C125 91.4125 99.85 100 75 100C50.15 100 25 91.4125 25 75V87.5Z" fill="#18992D"/>
<path d="M25 112.5C25 128.913 50.15 137.5 75 137.5C99.85 137.5 125 128.913 125 112.5V100C125 116.413 99.85 125 75 125C50.15 125 25 116.413 25 100V112.5Z" fill="#AE630B"/>
</svg>
