<svg width="150" height="114" viewBox="0 0 150 114" fill="none" xmlns="http://www.w3.org/2000/svg">
<path d="M31.25 0.75H43.75V13.25H31.25V44.5C31.25 47.8152 29.933 50.9946 27.5888 53.3388C25.2446 55.683 22.0652 57 18.75 57C22.0652 57 25.2446 58.317 27.5888 60.6612C29.933 63.0054 31.25 66.1848 31.25 69.5V100.75H43.75V113.25H31.25C24.5625 111.562 18.75 107.625 18.75 100.75V75.75C18.75 72.4348 17.433 69.2554 15.0888 66.9112C12.7446 64.567 9.56521 63.25 6.25 63.25H0V50.75H6.25C9.56521 50.75 12.7446 49.433 15.0888 47.0888C17.433 44.7446 18.75 41.5652 18.75 38.25V13.25C18.75 9.93479 20.067 6.75537 22.4112 4.41116C24.7554 2.06696 27.9348 0.75 31.25 0.75ZM118.75 0.75C122.065 0.75 125.245 2.06696 127.589 4.41116C129.933 6.75537 131.25 9.93479 131.25 13.25V38.25C131.25 41.5652 132.567 44.7446 134.911 47.0888C137.255 49.433 140.435 50.75 143.75 50.75H150V63.25H143.75C140.435 63.25 137.255 64.567 134.911 66.9112C132.567 69.2554 131.25 72.4348 131.25 75.75V100.75C131.25 104.065 129.933 107.245 127.589 109.589C125.245 111.933 122.065 113.25 118.75 113.25H106.25V100.75H118.75V69.5C118.75 66.1848 120.067 63.0054 122.411 60.6612C124.755 58.317 127.935 57 131.25 57C127.935 57 124.755 55.683 122.411 53.3388C120.067 50.9946 118.75 47.8152 118.75 44.5V13.25H106.25V0.75H118.75ZM75 75.75C76.6576 75.75 78.2473 76.4085 79.4194 77.5806C80.5915 78.7527 81.25 80.3424 81.25 82C81.25 83.6576 80.5915 85.2473 79.4194 86.4194C78.2473 87.5915 76.6576 88.25 75 88.25C73.3424 88.25 71.7527 87.5915 70.5806 86.4194C69.4085 85.2473 68.75 83.6576 68.75 82C68.75 80.3424 69.4085 78.7527 70.5806 77.5806C71.7527 76.4085 73.3424 75.75 75 75.75ZM50 75.75C51.6576 75.75 53.2473 76.4085 54.4194 77.5806C55.5915 78.7527 56.25 80.3424 56.25 82C56.25 83.6576 55.5915 85.2473 54.4194 86.4194C53.2473 87.5915 51.6576 88.25 50 88.25C48.3424 88.25 46.7527 87.5915 45.5806 86.4194C44.4085 85.2473 43.75 83.6576 43.75 82C43.75 80.3424 44.4085 78.7527 45.5806 77.5806C46.7527 76.4085 48.3424 75.75 50 75.75ZM100 75.75C101.658 75.75 103.247 76.4085 104.419 77.5806C105.592 78.7527 106.25 80.3424 106.25 82C106.25 83.6576 105.592 85.2473 104.419 86.4194C103.247 87.5915 101.658 88.25 100 88.25C98.3424 88.25 96.7527 87.5915 95.5806 86.4194C94.4085 85.2473 93.75 83.6576 93.75 82C93.75 80.3424 94.4085 78.7527 95.5806 77.5806C96.7527 76.4085 98.3424 75.75 100 75.75Z" fill="#B89B03"/>
</svg>
