<svg width="206" height="103" viewBox="0 0 206 103" fill="none" xmlns="http://www.w3.org/2000/svg">
<path d="M103 102.695C159.885 102.695 206 79.7058 206 51.3474C206 22.989 159.885 0 103 0C46.1147 0 0 22.989 0 51.3474C0 79.7058 46.1147 102.695 103 102.695Z" fill="url(#paint0_radial)"/>
<path d="M103 98.8801C157.663 98.8801 201.977 77.5991 201.977 51.3475C201.977 25.096 157.663 3.81494 103 3.81494C48.3368 3.81494 4.02344 25.096 4.02344 51.3475C4.02344 77.5991 48.3368 98.8801 103 98.8801Z" fill="#6181B6"/>
<path d="M123.037 66.7593L127.945 42.8023C129.072 37.3853 128.106 33.3416 125.209 30.8238C122.393 28.3823 117.565 27.1616 110.484 27.1616H101.954L104.368 15.2593C104.448 14.8016 104.368 14.3438 104.046 13.9623C103.724 13.5808 103.322 13.4282 102.839 13.4282H91.0906C90.2859 13.4282 89.6422 13.9623 89.4812 14.649L84.2508 40.0556C83.7679 37.1564 82.6414 34.7149 80.7101 32.7312C77.25 28.9927 71.8586 27.0853 64.5359 27.0853H41.9242C41.1195 27.0853 40.4758 27.6193 40.3148 28.306L29.7734 79.8823C29.6929 80.3401 29.7734 80.7979 30.0953 81.1793C30.4172 81.5608 30.8195 81.7134 31.3023 81.7134H43.1312C43.9359 81.7134 44.5797 81.1793 44.7406 80.4927L47.3156 68.0564H56.0867C60.6734 68.0564 64.6164 67.5986 67.5937 66.683C70.732 65.6912 73.5484 64.089 76.0429 61.8764C78.0547 60.1216 79.7445 58.1379 81.032 56.0016L78.9398 66.3016C78.8594 66.7593 78.9398 67.2171 79.2617 67.5986C79.5836 67.9801 79.9859 68.1327 80.4687 68.1327H92.2172C93.0219 68.1327 93.6656 67.5986 93.8265 66.9119L99.6203 38.6823H107.667C111.127 38.6823 112.093 39.2927 112.415 39.5979C112.656 39.8267 113.139 40.7423 112.576 43.5653L107.909 66.3779C107.828 66.8356 107.909 67.2934 108.23 67.6749C108.552 68.0564 108.955 68.209 109.437 68.209H121.508C122.232 67.9801 122.876 67.446 123.037 66.7593ZM68.6398 46.9223C67.9156 50.5082 66.5476 53.1023 64.5359 54.5519C62.5242 56.0016 59.225 56.7645 54.8797 56.7645H49.6492L53.4312 38.3008H60.1906C65.1797 38.3008 67.1914 39.2927 67.9961 40.1319C69.0422 41.3527 69.2836 43.7179 68.6398 46.9223Z" fill="white"/>
<path d="M173.249 32.7314C169.789 28.9929 164.398 27.0854 157.075 27.0854H134.302C133.498 27.0854 132.854 27.6195 132.693 28.3062L122.151 79.8062C122.071 80.264 122.151 80.7217 122.473 81.1032C122.795 81.4847 123.198 81.6373 123.68 81.6373H135.509C136.314 81.6373 136.958 81.1032 137.119 80.4166L139.694 67.9803H148.465C153.051 67.9803 156.994 67.5225 159.972 66.6069C163.11 65.6151 165.926 64.0129 168.421 61.8003C170.513 59.9692 172.283 57.9092 173.571 55.6966C174.858 53.484 175.824 51.0425 176.387 48.3721C177.755 41.7343 176.709 36.5462 173.249 32.7314ZM160.937 46.9225C160.213 50.5084 158.845 53.1025 156.833 54.5521C154.822 56.0017 151.523 56.7647 147.177 56.7647H141.947L145.729 38.301H152.488C157.477 38.301 159.489 39.2929 160.294 40.1321C161.42 41.3529 161.662 43.718 160.937 46.9225Z" fill="white"/>
<path d="M60.1906 36.7745C64.6969 36.7745 67.6742 37.5375 69.2031 39.1397C70.732 40.742 71.0539 43.4123 70.2492 47.2271C69.4445 51.1945 67.8352 54.0938 65.5016 55.7723C63.168 57.4508 59.6273 58.2901 54.8797 58.2901H47.718L52.1438 36.7745H60.1906ZM31.3828 80.1108H43.2117L46.0281 66.4538H56.1672C60.6734 66.4538 64.2945 65.996 67.1914 65.0805C70.0883 64.1649 72.6633 62.7153 75.0774 60.579C77.0891 58.8242 78.6984 56.9168 79.9055 54.8568C81.1125 52.7968 81.9977 50.5079 82.4805 47.9901C83.768 41.8864 82.8023 37.156 79.6641 33.7227C76.5258 30.2894 71.5367 28.6108 64.6969 28.6108H41.9242L31.3828 80.1108Z" fill="#000004"/>
<path d="M91.1711 14.9536H102.919L100.103 28.6107H110.564C117.162 28.6107 121.669 29.6788 124.163 31.8914C126.658 34.104 127.382 37.6136 126.416 42.4966L121.508 66.4536H109.598L114.266 43.641C114.829 41.0469 114.587 39.2921 113.702 38.3766C112.817 37.461 110.805 36.927 107.828 36.927H98.4132L92.3781 66.4536H80.6296L91.1711 14.9536Z" fill="#000004"/>
<path d="M152.488 36.7745C156.994 36.7745 159.972 37.5375 161.501 39.1397C163.03 40.742 163.352 43.4123 162.547 47.2271C161.742 51.1945 160.133 54.0938 157.799 55.7723C155.466 57.4508 151.925 58.2901 147.177 58.2901H140.016L144.441 36.7745H152.488ZM123.68 80.1108H135.509L138.326 66.4538H148.465C152.971 66.4538 156.592 65.996 159.489 65.0805C162.386 64.1649 164.961 62.7153 167.375 60.579C169.387 58.8242 170.996 56.9168 172.203 54.8568C173.41 52.7968 174.295 50.5079 174.778 47.9901C176.066 41.8864 175.1 37.156 171.962 33.7227C168.823 30.2894 163.834 28.6108 156.995 28.6108H134.222L123.68 80.1108Z" fill="#000004"/>
<defs>
<radialGradient id="paint0_radial" cx="0" cy="0" r="1" gradientUnits="userSpaceOnUse" gradientTransform="translate(61.8415 18.0574) scale(135.264 128.251)">
<stop stop-color="white"/>
<stop offset="0.5" stop-color="#4C6B97"/>
<stop offset="1" stop-color="#231F20"/>
</radialGradient>
</defs>
</svg>
