<svg width="134" height="207" viewBox="0 0 134 207" fill="none" xmlns="http://www.w3.org/2000/svg">
<path opacity="0.05" d="M133.859 207H0.96875C2.375 192.656 6.59375 179.625 13.625 167.906C21.5 154.875 35.7969 138.281 56.5156 118.125C74.8906 100.219 86.4219 87.4688 91.1094 79.875C94.2969 74.7188 95.8906 68.1562 95.8906 60.1875C95.8906 51.5625 93.6406 44.8594 89.1406 40.0781C84.7344 35.2031 78.4062 32.7656 70.1562 32.7656C61.8125 32.7656 55.3906 35.1094 50.8906 39.7969C45.7344 45.1406 43.1562 53.5313 43.1562 64.9688L5.32812 61.0312C7.39062 40.3125 14.4219 24.75 26.4219 14.3438C37.4844 4.78125 52.3906 0 71.1406 0C90.1719 0 105.453 5.4375 116.984 16.3125C128.234 26.9062 133.859 40.5938 133.859 57.375C133.859 58.7812 133.859 60.1406 133.859 61.4531C133.859 62.7656 133.906 64.0781 134 65.3906C134 75.1406 131.844 83.9062 127.531 91.6875C121.344 102.938 108.547 117.891 89.1406 136.547C77.8906 147.234 70.4375 154.641 66.7812 158.766C63.5 162.422 60.7812 166.266 58.625 170.297H133.859V207Z" fill="#00F0FF"/>
</svg>
