<svg width="132" height="211" viewBox="0 0 132 211" fill="none" xmlns="http://www.w3.org/2000/svg">
<path opacity="0.05" d="M131.562 145.125C131.562 163.219 125.234 178.641 112.578 191.391C99.9219 204.141 84.125 210.516 65.1875 210.516C47.4688 210.516 32.7031 205.219 20.8906 194.625C9.07812 184.031 2.14062 169.922 0.078125 152.297L36.7812 147.656C37.9062 157.125 40.9531 164.531 45.9219 169.875C50.9844 175.125 57.3125 177.75 64.9062 177.75C72.9688 177.75 79.625 174.656 84.875 168.469C90.125 162.281 92.75 153.938 92.75 143.438C92.75 133.781 90.2188 126 85.1562 120.094C80.1875 114.094 73.9062 111.094 66.3125 111.094C61.4375 111.094 55.625 112.078 48.875 114.047L52.9531 81.8438C63.1719 81.8438 71 79.5 76.4375 74.8125C81.875 70.125 84.5938 63.6094 84.5938 55.2656C84.5938 48.4219 82.625 42.9375 78.6875 38.8125C74.8438 34.5938 69.5938 32.4844 62.9375 32.4844C56.1875 32.4844 50.5625 34.8281 46.0625 39.5156C41.6562 44.1094 38.9375 50.9531 37.9062 60.0469L2.89062 53.8594C6.45312 35.6719 13.2969 22.1719 23.4219 13.3594C33.5469 4.45313 47.0469 0 63.9219 0C80.5156 0 94.4375 5.20312 105.688 15.6094C117.031 26.0156 122.703 38.4375 122.703 52.875C122.703 70.875 113.188 85.3125 94.1562 96.1875C105.594 98.7188 114.688 104.344 121.438 113.062C128.188 121.781 131.562 132.469 131.562 145.125Z" fill="#00FF29"/>
</svg>
