<svg width="28" height="28" viewBox="0 0 28 28" fill="none" xmlns="http://www.w3.org/2000/svg">
<path d="M23.368 7.89414C23.532 8.0582 23.625 8.27969 23.625 8.51211V25.375C23.625 25.859 23.234 26.25 22.75 26.25H5.25C4.76602 26.25 4.375 25.859 4.375 25.375V2.625C4.375 2.14102 4.76602 1.75 5.25 1.75H16.8629C17.0953 1.75 17.3195 1.84297 17.4836 2.00703L23.368 7.89414ZM21.607 8.91406L16.4609 3.76797V8.91406H21.607ZM14 15.4793L15.444 20.866C15.4627 20.9359 15.5039 20.9976 15.5613 21.0416C15.6186 21.0856 15.6889 21.1094 15.7612 21.1094H16.6299C16.7021 21.1095 16.7724 21.0857 16.8297 21.0418C16.8871 20.9979 16.9283 20.9363 16.9471 20.8666L18.9807 13.3197C18.988 13.2919 18.9917 13.2632 18.9916 13.2344C18.9916 13.1474 18.957 13.0639 18.8955 13.0024C18.834 12.9408 18.7505 12.9062 18.6635 12.9062H17.6909C17.6166 12.9062 17.5445 12.9314 17.4864 12.9776C17.4283 13.0239 17.3876 13.0884 17.3709 13.1608L16.1191 18.605L14.7585 13.1548C14.7408 13.0838 14.6998 13.0208 14.6421 12.9758C14.5845 12.9307 14.5134 12.9063 14.4402 12.9062H13.5598C13.4866 12.9063 13.4155 12.9308 13.3578 12.9759C13.3001 13.021 13.2592 13.084 13.2415 13.1551L11.8836 18.594L10.623 13.1605C10.6063 13.0884 10.5656 13.024 10.5077 12.9778C10.4497 12.9317 10.3778 12.9066 10.3037 12.9065H9.33598C9.30726 12.9065 9.27867 12.9103 9.25094 12.9177C9.16694 12.9403 9.09535 12.9954 9.05192 13.0708C9.00849 13.1461 8.99677 13.2357 9.01934 13.3197L11.0474 20.8666C11.0662 20.9362 11.1074 20.9977 11.1646 21.0416C11.2218 21.0855 11.2919 21.1093 11.3641 21.1094H12.2388C12.311 21.1094 12.3813 21.0855 12.4386 21.0415C12.4959 20.9975 12.537 20.9358 12.5557 20.866L13.9997 15.4793H14Z" fill="white"/>
</svg>
