<svg width="293" height="286" viewBox="0 0 293 286" fill="none" xmlns="http://www.w3.org/2000/svg">
<g opacity="0.7" filter="url(#filter0_d)">
<path d="M245.767 181.352C256.326 146.952 240.791 107.729 212.735 85.2063C184.679 62.6815 146.397 55.5346 110.741 60.3003C80.0728 64.3994 49.5321 77.6029 30.2366 101.8C21.3717 112.919 16.0864 131.239 27.3854 139.872C40.9637 150.244 61.328 134.221 77.2102 140.521C91.2186 146.077 93.3644 165.128 90.4708 179.924C87.5772 194.72 82.08 210.66 88.7014 224.203C94.9334 236.945 110.472 242.91 124.627 242.066C140.349 241.129 154.966 233.087 170.587 230.647C178.412 229.425 186.129 229.943 193.967 228.561C202.604 227.037 210.804 223.965 218.03 218.942C231.012 209.915 241.115 196.505 245.767 181.352Z" fill="url(#paint0_linear)"/>
</g>
<g filter="url(#filter1_d)">
<path d="M236.132 67.7575C226.238 63.9451 215.547 61.9665 204.971 62.788C200.083 63.1679 195.069 64.2148 191.105 67.1C187.14 69.9851 184.473 75.0618 185.595 79.8295C186.477 83.5746 189.457 86.486 192.701 88.5568C195.945 90.6283 199.559 92.0783 202.765 94.2083C205.971 96.3375 208.858 99.377 209.536 103.164C210.16 106.651 208.833 110.229 209.203 113.753C209.784 119.281 214.869 123.8 220.408 124.323C225.947 124.847 231.51 121.72 234.503 117.031C237.328 112.603 238.231 106.811 242.308 103.498C244.53 101.693 247.402 100.906 250.224 100.424C253.046 99.9434 255.93 99.7171 258.652 98.8291C264.236 97.0074 268.953 90.0675 264.665 84.6648C262.767 82.2719 259.653 80.6913 257.164 79.0043C254.072 76.9092 250.906 74.9266 247.63 73.1287C243.919 71.0929 240.084 69.2795 236.132 67.7575Z" fill="url(#paint1_linear)"/>
</g>
<path d="M216.788 100.002L200.956 109.215L200.636 109.401L155.013 135.95L154.694 136.136L109.069 162.686L108.75 162.871L99.0683 168.505C99.2517 168.606 99.4386 168.697 99.6207 168.799L109.018 163.33L109.336 163.145L154.961 136.595L155.28 136.41L200.904 109.86L201.223 109.674L217.228 100.361C217.082 100.242 216.936 100.121 216.788 100.002Z" fill="url(#paint2_linear)"/>
<path d="M195.609 100.026L195.289 100.213L149.666 126.762L149.347 126.947L103.722 153.497L103.404 153.683L87.137 163.148C87.354 163.224 87.5676 163.309 87.784 163.387L103.669 154.143L103.988 153.957L149.613 127.407L149.932 127.222L195.555 100.672L195.875 100.486L207.871 93.5057C207.705 93.3969 207.536 93.2916 207.37 93.1828L195.609 100.026Z" fill="url(#paint3_linear)"/>
<path d="M190.263 90.8376L189.943 91.0237L144.319 117.573L144 117.758L98.3753 144.308L98.0568 144.494L64.5069 164.017C64.632 164.15 64.7559 164.283 64.8823 164.415L98.3248 144.954L98.6432 144.769L144.268 118.219L144.587 118.033L190.211 91.4841L190.53 91.298L197.422 87.2879C197.238 87.1874 197.054 87.0911 196.869 86.9934L190.263 90.8376Z" fill="url(#paint4_linear)"/>
<path d="M184.916 81.6492L184.596 81.8352L138.972 108.385L138.653 108.57L93.0283 135.12L92.7099 135.305L57.5842 155.746C57.6914 155.889 57.7999 156.031 57.9071 156.174L92.9778 135.766L93.2963 135.58L138.921 109.03L139.24 108.845L184.864 82.2957L185.184 82.1096L186.043 81.6095C185.846 81.5185 185.65 81.4275 185.453 81.3366L184.916 81.6492Z" fill="url(#paint5_linear)"/>
<path d="M198.284 104.622L197.964 104.808L152.34 131.357L152.022 131.543L106.396 158.093L106.078 158.278L93.4016 165.655C93.5968 165.743 93.7868 165.843 93.9808 165.932L106.345 158.737L106.664 158.552L152.289 132.002L152.607 131.817L198.231 105.267L198.551 105.081L212.693 96.8516C212.537 96.7369 212.383 96.6213 212.226 96.5086L198.284 104.622Z" fill="url(#paint6_linear)"/>
<path d="M192.936 95.4324L192.616 95.6185L146.992 122.168L146.674 122.353L101.049 148.903L100.73 149.089L80.0856 161.102C80.3326 161.159 80.5758 161.229 80.8222 161.288L100.997 149.548L101.316 149.362L146.941 122.812L147.26 122.627L192.883 96.0776L193.203 95.8916L202.77 90.3243C202.595 90.2207 202.423 90.1156 202.247 90.014L192.936 95.4324Z" fill="url(#paint7_linear)"/>
<path d="M187.589 86.2441L187.269 86.4302L141.645 112.98L141.327 113.165L95.7017 139.715L95.3832 139.9L60.9099 159.961C61.026 160.099 61.1396 160.238 61.2558 160.376L95.6512 140.361L95.9697 140.175L141.595 113.625L141.913 113.44L187.537 86.8906L187.857 86.7045L191.831 84.392C191.64 84.2974 191.451 84.2019 191.261 84.1072L187.589 86.2441Z" fill="url(#paint8_linear)"/>
<path d="M248.732 142.915L227.692 155.159L227.372 155.345L181.748 181.894L181.43 182.079L142.733 204.598C142.867 204.725 143.001 204.853 143.133 204.979L181.697 182.539L182.015 182.353L227.639 155.804L227.959 155.618L248.937 143.41C248.869 143.246 248.8 143.081 248.732 142.915Z" fill="url(#paint9_linear)"/>
<path d="M222.345 145.97L222.025 146.156L176.401 172.706L176.083 172.891L134.777 196.928C134.91 197.056 135.042 197.184 135.175 197.312L176.351 173.352L176.669 173.166L222.293 146.617L222.613 146.431L244.417 133.742C244.335 133.585 244.252 133.428 244.169 133.271L222.345 145.97Z" fill="url(#paint10_linear)"/>
<path d="M216.998 136.782L216.678 136.968L171.054 163.517L170.736 163.702L126.74 189.304C126.877 189.43 127.012 189.557 127.149 189.683L171.004 164.163L171.322 163.977L216.946 137.428L217.266 137.242L239.006 124.591C238.909 124.442 238.814 124.292 238.715 124.144L216.998 136.782Z" fill="url(#paint11_linear)"/>
<path d="M211.651 127.593L211.331 127.779L165.707 154.328L165.389 154.514L119.764 181.064L119.445 181.249L118.326 181.9C118.47 182.022 118.615 182.143 118.759 182.265L119.713 181.71L120.032 181.524L165.657 154.974L165.975 154.789L211.599 128.239L211.919 128.053L232.706 115.957C232.593 115.817 232.483 115.676 232.369 115.537L211.651 127.593Z" fill="url(#paint12_linear)"/>
<path d="M206.304 118.405L205.984 118.591L160.36 145.141L160.042 145.326L114.417 171.876L114.098 172.061L109.238 174.89C109.396 175.002 109.551 175.118 109.709 175.23L114.366 172.521L114.684 172.335L160.309 145.785L160.628 145.6L206.251 119.05L206.571 118.864L225.475 107.864C225.346 107.733 225.213 107.605 225.084 107.477L206.304 118.405Z" fill="url(#paint13_linear)"/>
<path d="M225.018 150.564L224.698 150.75L179.075 177.3L178.756 177.485L138.747 200.767C138.88 200.895 139.013 201.023 139.145 201.152L179.024 177.946L179.342 177.76L224.966 151.211L225.286 151.025L246.79 138.511C246.715 138.35 246.638 138.189 246.563 138.027L225.018 150.564Z" fill="url(#paint14_linear)"/>
<path d="M219.671 141.376L219.352 141.562L173.728 168.111L173.409 168.297L130.787 193.099C130.921 193.227 131.056 193.352 131.191 193.481L173.677 168.757L173.996 168.572L219.62 142.022L219.939 141.836L241.823 129.102C241.733 128.949 241.644 128.795 241.553 128.643L219.671 141.376Z" fill="url(#paint15_linear)"/>
<path d="M214.324 132.188L214.005 132.374L168.381 158.923L168.062 159.108L122.6 185.564C122.74 185.688 122.882 185.809 123.024 185.934L168.33 159.569L168.649 159.384L214.273 132.834L214.592 132.648L235.969 120.209C235.864 120.064 235.762 119.918 235.655 119.775L214.324 132.188Z" fill="url(#paint16_linear)"/>
<path d="M208.977 122.999L208.658 123.185L163.034 149.735L162.715 149.92L117.09 176.47L116.772 176.655L113.884 178.336C114.034 178.454 114.189 178.567 114.341 178.686L117.04 177.116L117.358 176.93L162.983 150.38L163.302 150.195L208.926 123.646L209.245 123.46L229.212 111.841C229.091 111.706 228.969 111.571 228.847 111.437L208.977 122.999Z" fill="url(#paint17_linear)"/>
<path d="M203.63 113.81L203.311 113.996L157.687 140.546L157.368 140.731L111.743 167.281L111.425 167.467L104.315 171.604C104.485 171.711 104.652 171.817 104.821 171.924L111.692 167.926L112.01 167.74L157.636 141.19L157.954 141.005L203.578 114.456L203.898 114.27L221.485 104.035C221.348 103.91 221.209 103.786 221.07 103.662L203.63 113.81Z" fill="url(#paint18_linear)"/>
<path d="M249.08 191.914L248.76 192.1L203.137 218.649L202.818 218.834L179.803 232.227C180.001 232.317 180.198 232.408 180.396 232.497L203.084 219.294L203.403 219.109L249.026 192.56L249.346 192.374L256.486 188.219C256.503 188.005 256.514 187.791 256.531 187.578L249.08 191.914Z" fill="url(#paint19_linear)"/>
<path d="M243.733 182.725L243.414 182.911L197.79 209.46L197.471 209.646L168.97 226.231C169.136 226.338 169.299 226.453 169.466 226.557L197.738 210.105L198.057 209.92L243.681 183.37L244.001 183.184L256.567 175.872C256.554 175.676 256.537 175.478 256.522 175.283L243.733 182.725Z" fill="url(#paint20_linear)"/>
<path d="M238.386 173.537L238.067 173.723L192.443 200.272L192.124 200.458L159.509 219.437C159.659 219.556 159.807 219.675 159.957 219.791L192.39 200.918L192.709 200.732L238.333 174.183L238.652 173.997L255.121 164.414C255.087 164.228 255.057 164.042 255.023 163.856L238.386 173.537Z" fill="url(#paint21_linear)"/>
<path d="M233.039 164.347L232.719 164.533L187.095 191.082L186.777 191.268L150.88 212.157C151.019 212.281 151.158 212.406 151.297 212.529L187.044 191.727L187.362 191.541L232.986 164.992L233.306 164.806L252.533 153.617C252.481 153.442 252.426 153.271 252.374 153.096L233.039 164.347Z" fill="url(#paint22_linear)"/>
<path d="M251.754 196.508L251.434 196.694L205.81 223.244L205.491 223.429L186.016 234.762C186.236 234.841 186.459 234.914 186.678 234.991L205.759 223.888L206.077 223.703L251.701 197.153L252.021 196.967L255.624 194.871C255.664 194.643 255.703 194.415 255.742 194.188L251.754 196.508Z" fill="url(#paint23_linear)"/>
<path d="M246.407 187.32L246.087 187.506L200.463 214.055L200.145 214.241L174.151 229.367C174.333 229.467 174.516 229.564 174.697 229.664L200.411 214.701L200.729 214.515L246.353 187.966L246.673 187.78L256.75 181.916C256.752 181.709 256.756 181.503 256.755 181.298L246.407 187.32Z" fill="url(#paint24_linear)"/>
<path d="M241.06 178.131L240.74 178.317L195.116 204.866L194.798 205.052L164.108 222.911C164.266 223.024 164.426 223.134 164.585 223.248L195.065 205.511L195.383 205.325L241.007 178.776L241.327 178.59L256 170.052C255.974 169.861 255.952 169.67 255.927 169.479L241.06 178.131Z" fill="url(#paint25_linear)"/>
<path d="M235.713 168.943L235.393 169.129L189.769 195.678L189.451 195.864L155.107 215.849C155.251 215.971 155.398 216.089 155.543 216.21L189.718 196.323L190.036 196.137L235.66 169.588L235.98 169.402L253.963 158.937C253.92 158.757 253.875 158.58 253.83 158.4L235.713 168.943Z" fill="url(#paint26_linear)"/>
<path d="M230.366 159.754L230.046 159.94L184.422 186.49L184.104 186.675L146.763 208.404C146.9 208.53 147.035 208.657 147.172 208.783L184.373 187.135L184.692 186.949L230.315 160.4L230.635 160.214L250.856 148.447C250.797 148.276 250.734 148.107 250.673 147.937L230.366 159.754Z" fill="url(#paint27_linear)"/>
<path d="M254.173 201.25L254.107 201.288L208.484 227.838L208.165 228.023L192.968 236.867C193.218 236.928 193.47 236.985 193.722 237.044L208.433 228.484L208.751 228.298L253.96 201.991C254.032 201.744 254.103 201.498 254.173 201.25Z" fill="url(#paint28_linear)"/>
<path d="M213.512 237.211L211.063 238.637C211.469 238.611 211.874 238.581 212.28 238.545L213.78 237.672L214.098 237.487L245.688 219.104C245.936 218.758 246.185 218.411 246.425 218.059L213.831 237.026L213.512 237.211Z" fill="url(#paint29_linear)"/>
<path d="M210.839 232.619L201.012 238.337C201.306 238.371 201.599 238.41 201.892 238.44L211.106 233.078L211.425 232.892L251.056 209.83C251.18 209.558 251.295 209.28 251.415 209.007L211.158 232.433L210.839 232.619Z" fill="url(#paint30_linear)"/>
<path d="M80.3823 50.2283L62.4696 60.652C61.7882 61.2317 61.117 61.826 60.4614 62.4352L82.8174 49.4259C81.9996 49.6741 81.1876 49.9411 80.3823 50.2283Z" fill="url(#paint31_linear)"/>
<path d="M55.5464 71.4453L55.8649 71.26L97.0582 47.2888C96.7034 47.2881 96.3479 47.2862 95.9942 47.2933L55.599 70.8001L55.2805 70.9854L51.249 73.3314C51.0319 73.6615 50.8133 73.989 50.603 74.322L55.5464 71.4453Z" fill="url(#paint32_linear)"/>
<path d="M82.2818 117.389L82.6003 117.203L128.225 90.6532L128.544 90.4678L161.71 71.1678C161.504 71.082 161.3 70.9956 161.096 70.9091L128.277 90.0066L127.959 90.192L82.3336 116.742L82.0151 116.927L47.1069 137.241C47.1744 137.407 47.2446 137.572 47.3134 137.737L82.2818 117.389Z" fill="url(#paint33_linear)"/>
<path d="M76.9349 108.2L77.2533 108.015L122.878 81.4649L123.197 81.2796L149.547 65.9459C149.348 65.8564 149.149 65.7669 148.949 65.6774L122.93 80.8184L122.612 81.0037L76.9867 107.554L76.6682 107.739L43.7207 126.912C43.7665 127.091 43.8175 127.267 43.8633 127.445L76.9349 108.2Z" fill="url(#paint34_linear)"/>
<path d="M71.5879 99.0115L71.9064 98.8262L117.532 72.2761L117.85 72.0907L137.878 60.436C137.687 60.3421 137.496 60.2474 137.305 60.1547L117.584 71.6308L117.266 71.8162L71.6404 98.3662L71.322 98.5516L41.7395 115.766C41.7598 115.96 41.7755 116.154 41.797 116.347L71.5879 99.0115Z" fill="url(#paint35_linear)"/>
<path d="M66.2411 89.8234L66.5596 89.6381L112.185 63.088L112.503 62.9027L126.285 54.883C126.087 54.7928 125.889 54.7026 125.691 54.6136L112.236 62.4435L111.918 62.6288L66.2924 89.1789L65.9739 89.3642L41.4795 103.618C41.4657 103.83 41.4527 104.043 41.441 104.255L66.2411 89.8234Z" fill="url(#paint36_linear)"/>
<path d="M60.8932 80.6336L61.2117 80.4482L106.837 53.8981L107.155 53.7128L113.581 49.9735C113.348 49.9021 113.113 49.8368 112.878 49.7682L106.888 53.2536L106.57 53.439L60.9445 79.9891L60.626 80.1744L43.7494 89.9952C43.6812 90.2369 43.619 90.4803 43.5536 90.7238L60.8932 80.6336Z" fill="url(#paint37_linear)"/>
<path d="M79.6083 112.795L79.9268 112.609L125.552 86.0591L125.87 85.8738L155.585 68.5826C155.381 68.4953 155.177 68.4088 154.975 68.3208L125.604 85.4126L125.285 85.5979L79.6601 112.148L79.3416 112.333L45.2558 132.169C45.3118 132.341 45.3659 132.514 45.4239 132.687L79.6083 112.795Z" fill="url(#paint38_linear)"/>
<path d="M74.2616 103.606L74.58 103.42L120.205 76.8703L120.524 76.685L143.642 63.232C143.448 63.1396 143.255 63.0464 143.062 62.9532L120.257 76.2238L119.939 76.4091L74.3134 102.959L73.9949 103.145L42.5438 121.446C42.5782 121.632 42.6117 121.816 42.6468 122.003L74.2616 103.606Z" fill="url(#paint39_linear)"/>
<path d="M68.9144 94.4174L69.2329 94.232L114.858 67.6819L115.177 67.4966L132.136 57.6274C131.943 57.5342 131.75 57.441 131.558 57.3491L114.911 67.0367L114.592 67.222L68.967 93.7721L68.6485 93.9575L41.3594 109.837C41.3643 110.04 41.3672 110.242 41.3733 110.444L68.9144 94.4174Z" fill="url(#paint40_linear)"/>
<path d="M63.5676 85.2291L63.8861 85.0438L109.511 58.4937L109.83 58.3083L120.174 52.2886C119.964 52.2058 119.755 52.1202 119.545 52.04L109.563 57.8492L109.244 58.0345L63.6189 84.5846L63.3004 84.7699L42.2158 97.0394C42.1798 97.2659 42.1371 97.4927 42.1019 97.7204L63.5676 85.2291Z" fill="url(#paint41_linear)"/>
<path d="M58.2205 76.0407L58.539 75.8553L104.164 49.3052L104.483 49.1199L106.156 48.1464C105.884 48.0973 105.612 48.0503 105.341 48.0058L104.215 48.6607L103.897 48.8461L58.2718 75.3962L57.9533 75.5815L46.446 82.2778C46.3312 82.5484 46.2164 82.8189 46.1056 83.0905L58.2205 76.0407Z" fill="url(#paint42_linear)"/>
<path d="M89.8755 174.471L89.5533 174.044L81.5671 178.691C81.728 178.803 81.8908 178.912 82.053 179.023L89.8755 174.471Z" fill="url(#paint43_linear)"/>
<path d="M83.4144 165.931L83.0909 165.505L72.4993 171.668C72.6411 171.791 72.7816 171.915 72.9238 172.036L83.4144 165.931Z" fill="url(#paint44_linear)"/>
<path d="M87.6288 126.577L87.9472 126.391L133.572 99.8413L133.891 99.6559L174.014 76.3077C173.809 76.2212 173.606 76.134 173.402 76.0475L133.624 99.1947L133.306 99.3801L87.6806 125.93L87.3621 126.115L51.7555 146.836C51.8435 146.99 51.9341 147.143 52.0235 147.296L87.6288 126.577Z" fill="url(#paint45_linear)"/>
<path d="M86.6456 170.201L86.3221 169.774L76.8983 175.258C77.0503 175.375 77.2015 175.491 77.3535 175.608L86.6456 170.201Z" fill="url(#paint46_linear)"/>
<path d="M68.7694 168.304L80.1821 161.662L79.8599 161.235L68.3641 167.925C68.4974 168.051 68.6353 168.176 68.7694 168.304Z" fill="url(#paint47_linear)"/>
<path d="M90.303 131.173L90.6215 130.987L136.247 104.437L136.565 104.252L180.089 78.9247C179.888 78.836 179.686 78.748 179.485 78.66L136.298 103.791L135.98 103.976L90.3549 130.526L90.0364 130.711L54.5321 151.372C54.6291 151.521 54.7235 151.672 54.8218 151.82L90.303 131.173Z" fill="url(#paint48_linear)"/>
<path d="M49.5117 142.61L84.9572 121.984L85.2756 121.798L130.901 95.2481L131.219 95.0628L167.873 73.7331C167.668 73.6473 167.462 73.5616 167.256 73.4758L130.951 94.6023L130.633 94.7877L85.0077 121.338L84.6892 121.523L49.2796 142.129C49.3574 142.289 49.4326 142.45 49.5117 142.61Z" fill="url(#paint49_linear)"/>
<path d="M96.3378 183.011L96.0143 182.584L91.7667 185.056C91.9468 185.157 92.1256 185.258 92.3063 185.357L96.3378 183.011Z" fill="url(#paint50_linear)"/>
<path d="M99.5677 187.281L99.2435 186.854L97.3173 187.975C97.5076 188.069 97.6967 188.165 97.887 188.259L99.5677 187.281Z" fill="url(#paint51_linear)"/>
<path d="M86.521 181.959C86.6909 182.066 86.8613 182.17 87.0325 182.276L93.1066 178.741L92.7831 178.315L86.521 181.959Z" fill="url(#paint52_linear)"/>
<g filter="url(#filter2_d)">
<path d="M50.2879 146.641C54.8466 147.48 58.8883 150.767 60.6474 155.061C64.3885 164.197 57.827 174.547 59.5557 184.26C60.1079 187.366 61.4925 190.611 60.327 193.536C58.9577 196.967 54.453 198.232 50.9152 197.146C47.3771 196.062 44.6476 193.267 42.2399 190.451C37.6297 185.062 33.4917 179.014 31.861 172.117C29.1178 160.528 35.9906 144.005 50.2879 146.641Z" fill="url(#paint53_linear)"/>
</g>
<g filter="url(#filter3_d)">
<path d="M59.8086 75.2177C57.5336 72.0378 57.6911 67.2752 60.3289 64.3572C62.9674 61.4402 67.887 60.8408 71.0065 63.2042C72.7773 64.5455 73.9139 66.8719 73.3701 69.0305C72.9121 70.8492 71.478 72.065 70.1634 73.2927C69.0101 74.3691 68.3761 75.5698 67.4199 76.774C65.2481 79.5092 61.4826 77.5572 59.8086 75.2177Z" fill="url(#paint54_linear)"/>
</g>
<g filter="url(#filter4_d)">
<path d="M51.9879 204.581C52.7564 203.858 53.92 203.549 54.9027 203.904C56.103 204.339 56.8341 205.749 56.5729 207.011C56.3101 208.273 55.1336 209.269 53.8585 209.382C50.8386 209.65 49.9247 206.526 51.9879 204.581Z" fill="url(#paint55_linear)"/>
</g>
<g filter="url(#filter5_d)">
<path d="M81.57 221.367C85.562 217.611 91.6065 216.006 96.7109 217.853C102.946 220.109 106.743 227.434 105.387 233.989C104.022 240.548 97.9099 245.72 91.2869 246.306C75.6002 247.701 70.8533 231.47 81.57 221.367Z" fill="url(#paint56_linear)"/>
</g>
<g filter="url(#filter6_d)">
<path d="M26.6386 117.457C29.0064 115.229 32.5917 114.277 35.6192 115.373C39.3172 116.711 41.5698 121.056 40.7651 124.944C39.9555 128.834 36.3304 131.902 32.4021 132.249C23.0978 133.076 20.2822 123.449 26.6386 117.457Z" fill="url(#paint57_linear)"/>
</g>
<g filter="url(#filter7_d)">
<path d="M68.3322 82.5311C68.0471 83.0451 65.4034 84.9282 64.8217 84.9063C64.1112 84.8795 63.5851 83.3112 63.5096 82.5973C63.4348 81.8829 63.89 81.1549 64.5474 80.8788C66.104 80.2239 69.0968 81.1492 68.3322 82.5311Z" fill="url(#paint58_linear)"/>
</g>
<g filter="url(#filter8_d)">
<path d="M241.123 155.641C241.892 154.918 243.055 154.609 244.038 154.965C245.238 155.399 245.969 156.809 245.708 158.071C245.445 159.334 244.269 160.33 242.994 160.442C239.974 160.711 239.06 157.586 241.123 155.641Z" fill="url(#paint59_linear)"/>
</g>
<g filter="url(#filter9_d)">
<path d="M241.476 163.841C238.696 164.255 236.316 166.166 233.524 166.496C230.425 166.862 226.958 165.285 224.315 166.912C222.362 168.116 221.704 170.792 222.364 172.994C223.023 175.197 224.746 176.953 226.663 178.248C230.653 180.941 235.848 181.947 240.424 180.534C244.745 179.198 248.637 175.349 249.711 170.903C250.742 166.64 245.363 163.261 241.476 163.841Z" fill="url(#paint60_linear)"/>
</g>
<g filter="url(#filter10_d)">
<path d="M63.7558 148.755C65.0891 147.872 67.1323 148.416 67.8801 149.829C68.6289 151.243 67.9567 153.21 66.5159 153.902C65.074 154.593 63.1422 153.918 62.414 152.493C61.6858 151.068 62.2467 149.136 63.6051 148.292" fill="url(#paint61_linear)"/>
</g>
<path d="M42.035 229.766C41.9513 229.766 41.8655 229.762 41.7818 229.752C40.5721 229.614 39.7035 228.521 39.8438 227.314L53.6797 107.14C53.8178 105.935 54.9144 105.07 56.1199 105.206C57.3296 105.344 58.196 106.436 58.0579 107.644L44.222 227.817C44.0923 228.939 43.14 229.766 42.035 229.766Z" fill="url(#paint62_linear)"/>
<path d="M118.092 229.769C117.083 229.769 116.172 229.073 115.942 228.049L88.9464 107.876C88.6806 106.691 89.4278 105.513 90.6144 105.248C91.799 104.985 92.9815 105.728 93.2473 106.913L120.243 227.086C120.509 228.271 119.762 229.449 118.575 229.714C118.414 229.75 118.251 229.769 118.092 229.769Z" fill="url(#paint63_linear)"/>
<path d="M72.5029 229.767C71.2848 229.767 70.2991 228.781 70.2991 227.567V168.259C70.2991 167.043 71.2869 166.06 72.5029 166.06C73.7188 166.06 74.7066 167.046 74.7066 168.259V227.567C74.7066 228.783 73.7188 229.767 72.5029 229.767Z" fill="url(#paint64_linear)"/>
<path d="M28.3917 93.9488L36.1416 191.372C36.3048 193.432 38.0544 195.007 40.1243 194.957L121.061 192.987C123.42 192.931 125.188 190.811 124.818 188.483L109.322 91.3397C109.015 89.4159 107.332 88.0142 105.38 88.0602L32.1861 89.7522C29.9488 89.8023 28.2138 91.722 28.3917 93.9488Z" fill="url(#paint65_linear)"/>
<path opacity="0.86" d="M35.1663 92.4322L103.04 90.8634C104.99 90.8174 106.675 92.2191 106.983 94.143L121.603 185.81C121.974 188.137 120.205 190.257 117.847 190.313L42.665 192.143C40.5952 192.193 38.8455 190.62 38.6823 188.559L31.3678 96.6308C31.1899 94.402 32.9269 92.4823 35.1663 92.4322Z" fill="white"/>
<path d="M263.803 182.154C264.389 183.019 266.716 202.602 267.08 209.834C267.105 210.323 266.712 210.73 266.222 210.73C265.799 210.73 265.439 210.423 265.374 210.005L261.117 182.775L263.803 182.154Z" fill="url(#paint66_linear)"/>
<path d="M245.09 182.154C244.504 183.019 242.177 202.602 241.813 209.834C241.788 210.323 242.181 210.73 242.671 210.73C243.094 210.73 243.454 210.423 243.519 210.005L247.776 182.775L245.09 182.154Z" fill="url(#paint67_linear)"/>
<path d="M267.323 180.625L267.325 180.838C267.339 182.373 266.013 183.635 264.353 183.662L244.676 183.996C243.039 184.024 241.675 182.843 241.595 181.331L241.585 181.135C241.501 179.558 242.845 178.229 244.55 178.198L264.236 177.845C265.923 177.818 267.31 179.067 267.323 180.625Z" fill="url(#paint68_linear)"/>
<path d="M229.042 209.124C232.539 209.124 234.088 208.825 234.781 208.551C234.647 209.124 234.134 209.577 233.488 209.577H221.112C220.696 209.577 220.432 209.178 220.533 208.819C221.943 208.931 224.938 209.124 229.042 209.124Z" fill="url(#paint69_linear)"/>
<path d="M220.534 208.819C220.555 208.745 220.584 208.674 220.634 208.608C221.576 207.406 223.47 205.52 226.047 205.556C229.82 205.608 231.136 206.017 234.068 205.579L234.761 207.868C234.832 208.102 234.832 208.334 234.782 208.551C234.089 208.825 232.543 209.124 229.043 209.124C224.939 209.124 221.945 208.931 220.534 208.819Z" fill="url(#paint70_linear)"/>
<path d="M233.218 203.111L234.067 205.994C234.067 205.994 232.186 206.848 230.532 206.163L230.208 203.665L233.218 203.111Z" fill="url(#paint71_linear)"/>
<path d="M207.57 207.309C210.297 209.496 211.69 210.231 212.4 210.45C211.937 210.812 211.255 210.843 210.751 210.438L201.105 202.7C200.78 202.439 200.824 201.967 201.126 201.75C202.155 202.721 204.372 204.743 207.57 207.309Z" fill="url(#paint72_linear)"/>
<path d="M201.126 201.75C201.186 201.706 201.255 201.668 201.335 201.65C202.821 201.307 205.475 201.027 207.461 202.665C210.37 205.065 211.14 206.205 213.7 207.697L212.81 209.905C212.72 210.13 212.576 210.312 212.4 210.448C211.69 210.226 210.297 209.491 207.57 207.306C204.372 204.743 202.155 202.721 201.126 201.75Z" fill="url(#paint73_linear)"/>
<path d="M251.384 170.271C251.384 170.271 230.44 171.977 226.144 173.995C221.847 176.013 229.649 204.305 229.649 204.305C229.649 204.305 230.819 204.867 233.42 204.058C233.42 204.058 230.752 183.18 232.738 178.653L255.414 174.952L251.384 170.271Z" fill="url(#paint74_linear)"/>
<path d="M215.782 203.726C215.587 203.904 213.702 207.701 213.702 207.701C213.702 207.701 211.602 207.248 211.173 205.922L213.063 202.494L215.782 203.726Z" fill="url(#paint75_linear)"/>
<path d="M263.997 170.097C263.997 170.097 264.679 171.737 264.652 173.914C264.615 176.926 262.187 179.37 259.173 179.52L234.415 180.646C233.891 180.669 233.45 181.03 233.318 181.536C232.736 183.781 229.892 190.679 215.991 204.443C215.621 204.808 215.045 204.871 214.606 204.593L212.628 203.346C212.421 203.214 212.354 202.943 212.477 202.732L226.893 178.162C227.65 176.915 228.866 176.015 230.283 175.654L251.383 170.271L263.997 170.097Z" fill="url(#paint76_linear)"/>
<path d="M239.599 131.718C239.599 131.718 242.25 136.399 244.954 138.665L239.364 141.778C239.364 141.778 238.104 136.823 235.227 135.371L239.599 131.718Z" fill="url(#paint77_linear)"/>
<path d="M264.447 170.271C264.447 170.271 257.763 171.896 251.383 170.271C251.383 170.271 242.457 158.293 239.002 155.032C239.002 155.032 233.494 163.709 221.232 164.938L220.547 163.413C220.547 163.413 230.308 158.922 233.314 152.02C236.319 145.118 237.527 142.175 240.26 140.374C241.964 139.253 242.983 138.486 243.508 138.068C243.797 137.838 244.195 137.813 244.508 138.006C247.413 139.773 261.065 149.106 264.447 170.271Z" fill="url(#paint78_linear)"/>
<path d="M239.364 155.301C239.18 155.301 238.996 155.243 238.837 155.124C238.458 154.834 238.385 154.29 238.676 153.91C240.691 151.287 241.846 148.312 241.857 148.283C242.029 147.838 242.529 147.614 242.977 147.786C243.422 147.957 243.646 148.456 243.475 148.903C243.424 149.035 242.217 152.143 240.051 154.965C239.883 155.185 239.626 155.301 239.364 155.301Z" fill="#F2BD4A"/>
<path d="M221.97 162.618L220.591 162.251L216.401 161.282C215.897 161.165 215.367 161.254 214.928 161.53L211.324 163.792L221.273 163.776L221.97 162.618Z" fill="url(#paint79_linear)"/>
<path d="M235.388 124.699C235.388 124.699 232.809 128.975 232.364 131.34C231.916 133.704 231.198 135.181 233.893 136.023C236.589 136.865 239.094 135.8 240.666 133.594C240.666 133.594 243.121 130.199 242.876 128.643C242.629 127.087 235.388 124.699 235.388 124.699Z" fill="url(#paint80_linear)"/>
<path d="M239.946 131.764L239.597 131.718C239.597 131.718 241.422 128.965 240.227 128.282C239.032 127.598 234.166 125.923 233.32 124.01C232.506 122.165 233.724 120.083 235.193 119.648C235.285 119.621 235.384 119.675 235.417 119.767L235.503 119.999C235.562 120.158 235.785 120.164 235.852 120.01C235.917 119.861 236.129 119.855 236.196 120.003C236.455 120.576 237.236 121.555 239.578 122.311C242.899 123.385 244.967 125.056 244.712 127.413C244.695 127.561 244.843 127.665 244.982 127.605C245.254 127.486 245.664 127.467 246.143 127.987C246.974 128.894 246.323 130.878 244.054 132.282C243.946 132.349 243.927 132.501 244.023 132.583C244.362 132.873 244.841 133.52 243.305 134.097C241.733 134.686 240.877 134.488 240.559 134.36C240.474 134.327 240.425 134.239 240.442 134.147L240.846 132.083C240.867 131.977 240.794 131.874 240.685 131.86L239.946 131.764Z" fill="url(#paint81_linear)"/>
<path d="M239.804 132.186C239.804 132.186 240.94 129.387 242.135 130.371C243.33 131.355 241.03 133.529 239.971 133.5L239.804 132.186Z" fill="url(#paint82_linear)"/>
<path d="M225.813 165.742C225.796 165.742 225.779 165.744 225.765 165.744L204.508 165.723C203.982 165.723 203.557 165.297 203.557 164.775C203.557 164.251 203.987 163.818 204.51 163.829L225.767 163.85C226.292 163.85 226.717 164.276 226.717 164.798C226.717 165.304 226.317 165.717 225.813 165.742Z" fill="url(#paint83_linear)"/>
<path d="M196.277 144.964C196.285 144.978 196.291 144.993 196.297 145.008L205.242 164.255C205.464 164.731 205.257 165.295 204.782 165.514C204.307 165.734 203.733 165.529 203.52 165.05L194.575 145.803C194.353 145.327 194.56 144.763 195.035 144.544C195.496 144.331 196.042 144.519 196.277 144.964Z" fill="url(#paint84_linear)"/>
<path d="M216.349 166.805C216.441 167.189 225.311 200.39 227.56 208.808C227.82 209.777 227.096 210.73 226.102 210.73C225.409 210.73 224.804 210.254 224.635 209.573L214.79 169.729L216.349 166.805Z" fill="url(#paint85_linear)"/>
<path d="M211.491 166.805C211.399 167.189 202.53 200.39 200.28 208.808C200.021 209.777 200.745 210.73 201.739 210.73C202.432 210.73 203.036 210.254 203.206 209.573L213.053 169.731L211.491 166.805Z" fill="url(#paint86_linear)"/>
<path d="M211.123 165.721H216.646V170.149C216.646 170.786 216.136 171.302 215.506 171.302H214.748V181.247C214.748 181.73 214.361 182.121 213.884 182.121C213.406 182.121 213.019 181.73 213.019 181.247V171.302H212.634C211.799 171.302 211.121 170.617 211.121 169.773V165.721H211.123Z" fill="url(#paint87_linear)"/>
<path d="M230.229 164.655H199.384C198.953 164.655 198.576 164.95 198.47 165.372L198.039 167.058C197.884 167.663 198.34 168.254 198.959 168.25L230.61 168.066C231.223 168.062 231.671 167.479 231.52 166.878L231.146 165.376C231.039 164.954 230.662 164.655 230.229 164.655Z" fill="url(#paint88_linear)"/>
<path d="M127.549 133.253C127.907 132.904 127.89 132.326 127.514 132L82.9065 92.2755C82.7809 92.1648 82.6009 92.1376 82.4502 92.2108C82.1844 92.3382 82.1321 92.6912 82.3477 92.8896L126.377 133.27C126.71 133.577 127.225 133.569 127.549 133.253Z" fill="url(#paint89_linear)"/>
<path d="M153.632 231.053C153.632 230.99 153.637 230.925 153.651 230.863C154.606 227.084 159.346 224.732 159.346 224.732L161.223 224.878C162.303 228.208 162.165 230.251 161.991 231.159C161.987 231.184 161.979 231.21 161.973 231.235C160.422 231.372 157.234 231.462 153.632 231.053Z" fill="url(#paint90_linear)"/>
<path d="M161.97 231.235C161.887 231.538 161.663 231.776 161.374 231.836C159.17 232.298 155.669 231.926 154.198 231.734C153.873 231.692 153.637 231.391 153.63 231.055C157.234 231.463 160.422 231.373 161.97 231.235Z" fill="url(#paint91_linear)"/>
<path d="M169.408 164.171C170.568 165.408 172.276 166.475 173.477 167.139C171.683 169.353 169.254 171.57 166.039 173.74L165.118 175.802L162.169 172.276C162.171 172.276 167.46 169.648 169.408 164.171Z" fill="url(#paint92_linear)"/>
<path d="M161.979 222.087L161.184 225.908C161.125 226.188 160.909 226.397 160.648 226.422C160.328 226.451 159.873 226.47 159.415 226.403C159.005 226.342 158.718 225.927 158.791 225.48L159.344 222.087H161.979Z" fill="url(#paint93_linear)"/>
<path d="M145.5 231.197C147.574 231.138 148.647 230.896 149.202 230.668C149.204 230.875 149.202 231.084 149.196 231.301C149.189 231.533 149.016 231.719 148.804 231.717L137.417 231.644C137.053 231.642 136.841 231.22 136.998 230.888C138.491 231.011 142.293 231.287 145.5 231.197Z" fill="url(#paint94_linear)"/>
<path d="M136.996 230.888C137.011 230.859 137.021 230.829 137.042 230.802C138.049 229.401 140.609 226.608 145.671 225.396L148.099 225.319C148.099 225.319 149.181 227.195 149.2 230.668C148.645 230.894 147.572 231.139 145.498 231.197C142.293 231.287 138.491 231.011 136.996 230.888Z" fill="url(#paint95_linear)"/>
<path d="M148.549 221.647C148.522 221.826 148.189 224.573 148.061 225.636C148.03 225.889 147.848 226.085 147.616 226.113C147.201 226.163 146.533 226.207 145.947 226.088C145.631 226.023 145.403 225.72 145.403 225.369V221.06L148.549 221.647Z" fill="url(#paint96_linear)"/>
<path d="M150.497 171.541C150.497 171.541 144.642 193.754 144.746 221.707C144.748 222.217 145.106 222.658 145.606 222.762C146.343 222.917 147.425 223.101 148.321 223.076C148.8 223.063 149.2 222.708 149.279 222.238C150.1 217.431 154.813 190.355 157.498 185.96C157.498 185.96 159.264 210.076 158.699 222.587C158.685 222.898 158.913 223.167 159.223 223.203C159.693 223.257 160.445 223.299 161.401 223.197C161.765 223.159 162.058 222.883 162.109 222.524C162.692 218.457 166.06 194.243 165.918 176.802C165.909 175.819 163.312 171.543 163.312 171.543H150.497V171.541Z" fill="url(#paint97_linear)"/>
<path d="M141.517 141.623C142.542 139.008 144.273 137.216 146.012 135.146C152.532 136.326 163.218 137.379 167.673 137.938C169.065 138.114 170.338 138.797 171.254 139.856C174.89 144.055 182.868 155.554 173.477 167.139C172.276 166.473 170.568 165.405 169.408 164.171C170.446 161.248 170.532 157.511 168.356 152.93C168.28 153.294 168.19 153.653 168.077 154.006C165.076 163.496 164.917 171.392 164.923 173.211C164.923 173.458 164.775 173.681 164.547 173.773C160.598 175.352 152.994 174.412 150.443 174.032C149.974 173.963 149.66 173.529 149.725 173.061C150.979 164.003 144.55 149.103 142.852 145.373C142.603 144.828 142.166 144.389 141.62 144.14C141.345 144.017 141.075 143.89 140.81 143.762C141.006 143.042 141.241 142.327 141.517 141.623Z" fill="url(#paint98_linear)"/>
<path d="M160.846 129.224L161.311 137.32C161.326 137.558 161.169 137.774 160.936 137.832C159.907 138.091 157.061 138.607 154.585 137.201C154.264 137.019 154.116 136.635 154.216 136.28L156.288 129.004L160.846 129.224Z" fill="url(#paint99_linear)"/>
<path d="M155.769 120.377C155.665 120.475 151.326 128.979 151.326 128.979L156.244 131.348L161.556 123.897C161.556 123.899 157.534 118.721 155.769 120.377Z" fill="url(#paint100_linear)"/>
<path d="M159.379 124.106C159.467 124.331 159.446 124.584 159.321 124.793L156.868 128.875C156.83 128.937 156.786 128.992 156.734 129.042C156.443 129.313 155.443 130.103 154.671 129.027C154.013 128.112 153.394 127.279 152.733 126.936C152.345 126.736 151.87 126.896 151.674 127.283C151.27 128.083 150.487 129.712 149.995 131.256C149.872 131.642 150.073 132.058 150.449 132.211C151.445 132.614 153.413 133.341 155.16 133.583C155.447 133.623 155.732 133.502 155.901 133.268C156.652 132.24 158.77 129.37 159.492 128.651C160.164 127.983 161.403 128.235 161.962 128.396C162.173 128.457 162.399 128.428 162.588 128.315C163.155 127.974 164.143 127.126 163.239 125.689C163.015 125.332 163.128 124.856 163.481 124.624C164.114 124.208 164.8 123.429 164.147 122.167C163.486 120.889 162.303 120.774 161.497 120.872C161.142 120.916 160.78 120.73 160.644 120.398C160.583 120.25 160.464 120.124 160.24 120.08C159.817 119.995 159.541 119.61 159.624 119.188C159.767 118.466 159.66 117.526 158.503 116.891C156.38 115.727 154.522 117.624 154.049 119.226C153.576 120.828 155.949 121.96 157.441 122.148C158.536 122.288 159.137 123.481 159.379 124.106Z" fill="url(#paint101_linear)"/>
<path d="M158.572 130.151C158.572 130.151 159.515 127.396 160.723 127.496C161.931 127.596 162.881 128.797 161.384 130.149C159.524 131.828 158.572 130.151 158.572 130.151Z" fill="url(#paint102_linear)"/>
<path d="M168.753 152.222C170.346 147.873 169.768 142.624 169.762 142.572L169.323 142.622C169.329 142.674 169.894 147.823 168.339 152.072L168.753 152.222Z" fill="url(#paint103_linear)"/>
<path d="M157.714 185.394C157.812 185.394 157.902 185.33 157.927 185.229C158.413 183.36 162.05 181.304 162.086 181.285C162.192 181.227 162.23 181.091 162.169 180.985C162.109 180.878 161.975 180.84 161.868 180.901C161.711 180.989 158.03 183.069 157.498 185.119C157.467 185.236 157.538 185.357 157.657 185.388C157.676 185.392 157.695 185.394 157.714 185.394Z" fill="url(#paint104_linear)"/>
<path d="M126.603 137.658C132.802 139.921 146.012 135.146 146.012 135.146L146.921 145.918C136.343 149.256 129.458 148.285 124.983 145.483C124.703 142.298 125.664 139.526 126.603 137.658Z" fill="url(#paint105_linear)"/>
<path d="M116.733 126.539L119.328 126.025C119.328 126.025 120.036 134.264 125.814 137.31C126.061 137.441 126.327 137.554 126.603 137.656C125.664 139.526 124.705 142.296 124.983 145.481C115.886 139.789 116.733 126.539 116.733 126.539Z" fill="url(#paint106_linear)"/>
<path d="M119.195 126.746L119.326 126.028C119.326 126.028 119.868 124.273 118.437 122.547C116.367 120.051 114.854 120.968 114.854 120.968C114.854 120.968 114.961 121.503 114.954 121.975C114.948 122.357 114.49 122.55 114.207 122.293L110.831 119.195C110.831 119.195 109.886 124.114 117.127 127.494L119.195 126.746Z" fill="url(#paint107_linear)"/>
<path d="M39.3457 105.613C40.3128 104.836 41.0772 103.499 42.1594 102.909C42.8352 102.542 43.2565 102.926 43.8337 103.316C44.9975 104.1 46.4252 104.495 47.8218 104.557C48.9752 104.608 50.161 104.618 51.2866 104.337C52.4285 104.052 53.5335 103.367 54.6701 103.153C57.1907 102.678 60.1723 103.506 62.6578 103.815C64.2943 104.017 65.9372 104.115 67.576 104.29C68.9293 104.435 70.3536 104.807 71.7152 104.522C72.7589 104.305 73.342 103.316 74.4243 103.316C76.7547 103.316 79.1729 102.381 81.4819 102.074C82.247 101.972 83.1703 102.441 83.8771 102.666C84.9279 102.999 86.0814 103.094 87.1791 103.107C88.3474 103.12 89.4585 102.898 90.6207 102.898" stroke="black" stroke-linecap="round" stroke-linejoin="round"/>
<path d="M39.9736 116.685C41.0385 114.293 44.1232 112.507 46.7521 112.507C48.5416 112.507 50.2792 113.407 52.0424 113.807C57.7683 115.104 63.2892 113.513 69.041 113.551C70.821 113.563 72.4033 114.387 74.122 114.387C75.1747 114.387 76.2118 114.426 77.238 114.143C78.4063 113.821 79.5068 112.988 80.7378 112.925C83.594 112.778 86.2252 113.377 89.0162 113.749C90.9591 114.007 93.0466 113.76 95.0157 113.76" stroke="black" stroke-linecap="round" stroke-linejoin="round"/>
<path d="M42.2757 125.04C44.7076 123.762 46.7408 123.16 49.4612 123.16C52.1217 123.16 54.7675 123.313 57.4257 123.357C61.3381 123.422 65.3159 123.534 69.227 123.357C70.6227 123.294 71.7782 122.503 73.2035 122.533C75.611 122.584 78.1023 123.297 80.5052 123.531C83.7489 123.847 87.5715 124.3 90.7137 123.16C92.066 122.669 93.7406 123.378 95.0157 122.742" stroke="black" stroke-linecap="round" stroke-linejoin="round"/>
<ellipse rx="11.301" ry="12.116" transform="matrix(0.989647 -0.143522 0.144057 0.989569 59.0186 142.795)" fill="#6A6A6A"/>
<defs>
<filter id="filter0_d" x="14.9539" y="52.897" width="256.14" height="211.248" filterUnits="userSpaceOnUse" color-interpolation-filters="sRGB">
<feFlood flood-opacity="0" result="BackgroundImageFix"/>
<feColorMatrix in="SourceAlpha" type="matrix" values="0 0 0 0 0 0 0 0 0 0 0 0 0 0 0 0 0 0 127 0" result="hardAlpha"/>
<feOffset dx="8" dy="8"/>
<feGaussianBlur stdDeviation="7"/>
<feColorMatrix type="matrix" values="0 0 0 0 0 0 0 0 0 0 0 0 0 0 0 0 0 0 0.25 0"/>
<feBlend mode="normal" in2="BackgroundImageFix" result="effect1_dropShadow"/>
<feBlend mode="normal" in="SourceGraphic" in2="effect1_dropShadow" result="shape"/>
</filter>
<filter id="filter1_d" x="179.337" y="56.604" width="108.992" height="89.7763" filterUnits="userSpaceOnUse" color-interpolation-filters="sRGB">
<feFlood flood-opacity="0" result="BackgroundImageFix"/>
<feColorMatrix in="SourceAlpha" type="matrix" values="0 0 0 0 0 0 0 0 0 0 0 0 0 0 0 0 0 0 127 0" result="hardAlpha"/>
<feOffset dx="8" dy="8"/>
<feGaussianBlur stdDeviation="7"/>
<feColorMatrix type="matrix" values="0 0 0 0 0 0 0 0 0 0 0 0 0 0 0 0 0 0 0.25 0"/>
<feBlend mode="normal" in2="BackgroundImageFix" result="effect1_dropShadow"/>
<feBlend mode="normal" in="SourceGraphic" in2="effect1_dropShadow" result="shape"/>
</filter>
<filter id="filter2_d" x="25.2675" y="140.36" width="58.5525" height="79.1645" filterUnits="userSpaceOnUse" color-interpolation-filters="sRGB">
<feFlood flood-opacity="0" result="BackgroundImageFix"/>
<feColorMatrix in="SourceAlpha" type="matrix" values="0 0 0 0 0 0 0 0 0 0 0 0 0 0 0 0 0 0 127 0" result="hardAlpha"/>
<feOffset dx="8" dy="8"/>
<feGaussianBlur stdDeviation="7"/>
<feColorMatrix type="matrix" values="0 0 0 0 0 0 0 0 0 0 0 0 0 0 0 0 0 0 0.25 0"/>
<feBlend mode="normal" in2="BackgroundImageFix" result="effect1_dropShadow"/>
<feBlend mode="normal" in="SourceGraphic" in2="effect1_dropShadow" result="shape"/>
</filter>
<filter id="filter3_d" x="52.2177" y="55.7466" width="43.2892" height="44.3614" filterUnits="userSpaceOnUse" color-interpolation-filters="sRGB">
<feFlood flood-opacity="0" result="BackgroundImageFix"/>
<feColorMatrix in="SourceAlpha" type="matrix" values="0 0 0 0 0 0 0 0 0 0 0 0 0 0 0 0 0 0 127 0" result="hardAlpha"/>
<feOffset dx="8" dy="8"/>
<feGaussianBlur stdDeviation="7"/>
<feColorMatrix type="matrix" values="0 0 0 0 0 0 0 0 0 0 0 0 0 0 0 0 0 0 0.25 0"/>
<feBlend mode="normal" in2="BackgroundImageFix" result="effect1_dropShadow"/>
<feBlend mode="normal" in="SourceGraphic" in2="effect1_dropShadow" result="shape"/>
</filter>
<filter id="filter4_d" x="44.8762" y="197.756" width="33.7496" height="33.6417" filterUnits="userSpaceOnUse" color-interpolation-filters="sRGB">
<feFlood flood-opacity="0" result="BackgroundImageFix"/>
<feColorMatrix in="SourceAlpha" type="matrix" values="0 0 0 0 0 0 0 0 0 0 0 0 0 0 0 0 0 0 127 0" result="hardAlpha"/>
<feOffset dx="8" dy="8"/>
<feGaussianBlur stdDeviation="7"/>
<feColorMatrix type="matrix" values="0 0 0 0 0 0 0 0 0 0 0 0 0 0 0 0 0 0 0.25 0"/>
<feBlend mode="normal" in2="BackgroundImageFix" result="effect1_dropShadow"/>
<feBlend mode="normal" in="SourceGraphic" in2="effect1_dropShadow" result="shape"/>
</filter>
<filter id="filter5_d" x="69.7956" y="211.085" width="57.8654" height="57.3051" filterUnits="userSpaceOnUse" color-interpolation-filters="sRGB">
<feFlood flood-opacity="0" result="BackgroundImageFix"/>
<feColorMatrix in="SourceAlpha" type="matrix" values="0 0 0 0 0 0 0 0 0 0 0 0 0 0 0 0 0 0 127 0" result="hardAlpha"/>
<feOffset dx="8" dy="8"/>
<feGaussianBlur stdDeviation="7"/>
<feColorMatrix type="matrix" values="0 0 0 0 0 0 0 0 0 0 0 0 0 0 0 0 0 0 0.25 0"/>
<feBlend mode="normal" in2="BackgroundImageFix" result="effect1_dropShadow"/>
<feBlend mode="normal" in="SourceGraphic" in2="effect1_dropShadow" result="shape"/>
</filter>
<filter id="filter6_d" x="17.2137" y="108.917" width="45.7142" height="45.3818" filterUnits="userSpaceOnUse" color-interpolation-filters="sRGB">
<feFlood flood-opacity="0" result="BackgroundImageFix"/>
<feColorMatrix in="SourceAlpha" type="matrix" values="0 0 0 0 0 0 0 0 0 0 0 0 0 0 0 0 0 0 127 0" result="hardAlpha"/>
<feOffset dx="8" dy="8"/>
<feGaussianBlur stdDeviation="7"/>
<feColorMatrix type="matrix" values="0 0 0 0 0 0 0 0 0 0 0 0 0 0 0 0 0 0 0.25 0"/>
<feBlend mode="normal" in2="BackgroundImageFix" result="effect1_dropShadow"/>
<feBlend mode="normal" in="SourceGraphic" in2="effect1_dropShadow" result="shape"/>
</filter>
<filter id="filter7_d" x="57.5015" y="74.6641" width="32.9535" height="32.2425" filterUnits="userSpaceOnUse" color-interpolation-filters="sRGB">
<feFlood flood-opacity="0" result="BackgroundImageFix"/>
<feColorMatrix in="SourceAlpha" type="matrix" values="0 0 0 0 0 0 0 0 0 0 0 0 0 0 0 0 0 0 127 0" result="hardAlpha"/>
<feOffset dx="8" dy="8"/>
<feGaussianBlur stdDeviation="7"/>
<feColorMatrix type="matrix" values="0 0 0 0 0 0 0 0 0 0 0 0 0 0 0 0 0 0 0.25 0"/>
<feBlend mode="normal" in2="BackgroundImageFix" result="effect1_dropShadow"/>
<feBlend mode="normal" in="SourceGraphic" in2="effect1_dropShadow" result="shape"/>
</filter>
<filter id="filter8_d" x="234.011" y="148.817" width="33.7496" height="33.6417" filterUnits="userSpaceOnUse" color-interpolation-filters="sRGB">
<feFlood flood-opacity="0" result="BackgroundImageFix"/>
<feColorMatrix in="SourceAlpha" type="matrix" values="0 0 0 0 0 0 0 0 0 0 0 0 0 0 0 0 0 0 127 0" result="hardAlpha"/>
<feOffset dx="8" dy="8"/>
<feGaussianBlur stdDeviation="7"/>
<feColorMatrix type="matrix" values="0 0 0 0 0 0 0 0 0 0 0 0 0 0 0 0 0 0 0.25 0"/>
<feBlend mode="normal" in2="BackgroundImageFix" result="effect1_dropShadow"/>
<feBlend mode="normal" in="SourceGraphic" in2="effect1_dropShadow" result="shape"/>
</filter>
<filter id="filter9_d" x="216.116" y="157.776" width="55.7245" height="45.3969" filterUnits="userSpaceOnUse" color-interpolation-filters="sRGB">
<feFlood flood-opacity="0" result="BackgroundImageFix"/>
<feColorMatrix in="SourceAlpha" type="matrix" values="0 0 0 0 0 0 0 0 0 0 0 0 0 0 0 0 0 0 127 0" result="hardAlpha"/>
<feOffset dx="8" dy="8"/>
<feGaussianBlur stdDeviation="7"/>
<feColorMatrix type="matrix" values="0 0 0 0 0 0 0 0 0 0 0 0 0 0 0 0 0 0 0.25 0"/>
<feBlend mode="normal" in2="BackgroundImageFix" result="effect1_dropShadow"/>
<feBlend mode="normal" in="SourceGraphic" in2="effect1_dropShadow" result="shape"/>
</filter>
<filter id="filter10_d" x="56.0934" y="142.292" width="34.0958" height="33.8835" filterUnits="userSpaceOnUse" color-interpolation-filters="sRGB">
<feFlood flood-opacity="0" result="BackgroundImageFix"/>
<feColorMatrix in="SourceAlpha" type="matrix" values="0 0 0 0 0 0 0 0 0 0 0 0 0 0 0 0 0 0 127 0" result="hardAlpha"/>
<feOffset dx="8" dy="8"/>
<feGaussianBlur stdDeviation="7"/>
<feColorMatrix type="matrix" values="0 0 0 0 0 0 0 0 0 0 0 0 0 0 0 0 0 0 0.25 0"/>
<feBlend mode="normal" in2="BackgroundImageFix" result="effect1_dropShadow"/>
<feBlend mode="normal" in="SourceGraphic" in2="effect1_dropShadow" result="shape"/>
</filter>
<linearGradient id="paint0_linear" x1="27.9023" y1="22.2473" x2="274.041" y2="37.6844" gradientUnits="userSpaceOnUse">
<stop offset="0.0756841" stop-color="#B565D8"/>
<stop offset="0.945898" stop-color="#EE609C"/>
</linearGradient>
<linearGradient id="paint1_linear" x1="179.152" y1="56.8308" x2="254.096" y2="33.0843" gradientUnits="userSpaceOnUse">
<stop offset="0.0756841" stop-color="#B565D8"/>
<stop offset="0.945898" stop-color="#EE609C"/>
</linearGradient>
<linearGradient id="paint2_linear" x1="102.605" y1="166.324" x2="109.075" y2="175.697" gradientUnits="userSpaceOnUse">
<stop offset="0.0756841" stop-color="#B565D8"/>
<stop offset="0.945898" stop-color="#EE609C"/>
</linearGradient>
<linearGradient id="paint3_linear" x1="90.7526" y1="160.922" x2="97.2076" y2="170.306" gradientUnits="userSpaceOnUse">
<stop offset="0.0756841" stop-color="#B565D8"/>
<stop offset="0.945898" stop-color="#EE609C"/>
</linearGradient>
<linearGradient id="paint4_linear" x1="68.4933" y1="161.574" x2="74.9061" y2="171.032" gradientUnits="userSpaceOnUse">
<stop offset="0.0756841" stop-color="#B565D8"/>
<stop offset="0.945898" stop-color="#EE609C"/>
</linearGradient>
<linearGradient id="paint5_linear" x1="61.4349" y1="153.382" x2="67.8692" y2="162.823" gradientUnits="userSpaceOnUse">
<stop offset="0.0756841" stop-color="#B565D8"/>
<stop offset="0.945898" stop-color="#EE609C"/>
</linearGradient>
<linearGradient id="paint6_linear" x1="96.9732" y1="163.453" x2="103.436" y2="172.831" gradientUnits="userSpaceOnUse">
<stop offset="0.0756841" stop-color="#B565D8"/>
<stop offset="0.945898" stop-color="#EE609C"/>
</linearGradient>
<linearGradient id="paint7_linear" x1="83.7606" y1="158.841" x2="90.2051" y2="168.233" gradientUnits="userSpaceOnUse">
<stop offset="0.0756841" stop-color="#B565D8"/>
<stop offset="0.945898" stop-color="#EE609C"/>
</linearGradient>
<linearGradient id="paint8_linear" x1="64.8355" y1="157.553" x2="71.2577" y2="167.004" gradientUnits="userSpaceOnUse">
<stop offset="0.0756841" stop-color="#B565D8"/>
<stop offset="0.945898" stop-color="#EE609C"/>
</linearGradient>
<linearGradient id="paint9_linear" x1="145.908" y1="202.627" x2="152.453" y2="211.937" gradientUnits="userSpaceOnUse">
<stop offset="0.0756841" stop-color="#B565D8"/>
<stop offset="0.945898" stop-color="#EE609C"/>
</linearGradient>
<linearGradient id="paint10_linear" x1="138.055" y1="194.897" x2="144.598" y2="204.25" gradientUnits="userSpaceOnUse">
<stop offset="0.0756841" stop-color="#B565D8"/>
<stop offset="0.945898" stop-color="#EE609C"/>
</linearGradient>
<linearGradient id="paint11_linear" x1="130.098" y1="187.227" x2="136.623" y2="196.595" gradientUnits="userSpaceOnUse">
<stop offset="0.0756841" stop-color="#B565D8"/>
<stop offset="0.945898" stop-color="#EE609C"/>
</linearGradient>
<linearGradient id="paint12_linear" x1="121.748" y1="179.786" x2="128.26" y2="189.164" gradientUnits="userSpaceOnUse">
<stop offset="0.0756841" stop-color="#B565D8"/>
<stop offset="0.945898" stop-color="#EE609C"/>
</linearGradient>
<linearGradient id="paint13_linear" x1="112.717" y1="172.742" x2="119.198" y2="182.106" gradientUnits="userSpaceOnUse">
<stop offset="0.0756841" stop-color="#B565D8"/>
<stop offset="0.945898" stop-color="#EE609C"/>
</linearGradient>
<linearGradient id="paint14_linear" x1="141.977" y1="198.764" x2="148.53" y2="208.109" gradientUnits="userSpaceOnUse">
<stop offset="0.0756841" stop-color="#B565D8"/>
<stop offset="0.945898" stop-color="#EE609C"/>
</linearGradient>
<linearGradient id="paint15_linear" x1="134.107" y1="191.044" x2="140.641" y2="200.405" gradientUnits="userSpaceOnUse">
<stop offset="0.0756841" stop-color="#B565D8"/>
<stop offset="0.945898" stop-color="#EE609C"/>
</linearGradient>
<linearGradient id="paint16_linear" x1="125.991" y1="183.467" x2="132.509" y2="192.841" gradientUnits="userSpaceOnUse">
<stop offset="0.0756841" stop-color="#B565D8"/>
<stop offset="0.945898" stop-color="#EE609C"/>
</linearGradient>
<linearGradient id="paint17_linear" x1="117.334" y1="176.205" x2="123.841" y2="185.588" gradientUnits="userSpaceOnUse">
<stop offset="0.0756841" stop-color="#B565D8"/>
<stop offset="0.945898" stop-color="#EE609C"/>
</linearGradient>
<linearGradient id="paint18_linear" x1="107.822" y1="169.44" x2="114.297" y2="178.808" gradientUnits="userSpaceOnUse">
<stop offset="0.0756841" stop-color="#B565D8"/>
<stop offset="0.945898" stop-color="#EE609C"/>
</linearGradient>
<linearGradient id="paint19_linear" x1="182.087" y1="230.775" x2="188.908" y2="239.838" gradientUnits="userSpaceOnUse">
<stop offset="0.0756841" stop-color="#B565D8"/>
<stop offset="0.945898" stop-color="#EE609C"/>
</linearGradient>
<linearGradient id="paint20_linear" x1="171.583" y1="224.588" x2="178.283" y2="233.763" gradientUnits="userSpaceOnUse">
<stop offset="0.0756841" stop-color="#B565D8"/>
<stop offset="0.945898" stop-color="#EE609C"/>
</linearGradient>
<linearGradient id="paint21_linear" x1="162.365" y1="217.652" x2="168.992" y2="226.893" gradientUnits="userSpaceOnUse">
<stop offset="0.0756841" stop-color="#B565D8"/>
<stop offset="0.945898" stop-color="#EE609C"/>
</linearGradient>
<linearGradient id="paint22_linear" x1="153.918" y1="210.266" x2="160.496" y2="219.548" gradientUnits="userSpaceOnUse">
<stop offset="0.0756841" stop-color="#B565D8"/>
<stop offset="0.945898" stop-color="#EE609C"/>
</linearGradient>
<linearGradient id="paint23_linear" x1="188.086" y1="233.435" x2="195.003" y2="242.403" gradientUnits="userSpaceOnUse">
<stop offset="0.0756841" stop-color="#B565D8"/>
<stop offset="0.945898" stop-color="#EE609C"/>
</linearGradient>
<linearGradient id="paint24_linear" x1="176.614" y1="227.811" x2="183.366" y2="236.939" gradientUnits="userSpaceOnUse">
<stop offset="0.0756841" stop-color="#B565D8"/>
<stop offset="0.945898" stop-color="#EE609C"/>
</linearGradient>
<linearGradient id="paint25_linear" x1="166.851" y1="221.191" x2="173.51" y2="230.403" gradientUnits="userSpaceOnUse">
<stop offset="0.0756841" stop-color="#B565D8"/>
<stop offset="0.945898" stop-color="#EE609C"/>
</linearGradient>
<linearGradient id="paint26_linear" x1="158.06" y1="214.008" x2="164.66" y2="223.271" gradientUnits="userSpaceOnUse">
<stop offset="0.0756841" stop-color="#B565D8"/>
<stop offset="0.945898" stop-color="#EE609C"/>
</linearGradient>
<linearGradient id="paint27_linear" x1="149.874" y1="206.471" x2="156.455" y2="215.792" gradientUnits="userSpaceOnUse">
<stop offset="0.0756841" stop-color="#B565D8"/>
<stop offset="0.945898" stop-color="#EE609C"/>
</linearGradient>
<linearGradient id="paint28_linear" x1="194.778" y1="235.69" x2="201.86" y2="244.532" gradientUnits="userSpaceOnUse">
<stop offset="0.0756841" stop-color="#B565D8"/>
<stop offset="0.945898" stop-color="#EE609C"/>
</linearGradient>
<linearGradient id="paint29_linear" x1="212.086" y1="237.918" x2="219.885" y2="245.802" gradientUnits="userSpaceOnUse">
<stop offset="0.0756841" stop-color="#B565D8"/>
<stop offset="0.945898" stop-color="#EE609C"/>
</linearGradient>
<linearGradient id="paint30_linear" x1="202.494" y1="237.352" x2="209.786" y2="245.906" gradientUnits="userSpaceOnUse">
<stop offset="0.0756841" stop-color="#B565D8"/>
<stop offset="0.945898" stop-color="#EE609C"/>
</linearGradient>
<linearGradient id="paint31_linear" x1="60.8217" y1="61.488" x2="69.1993" y2="67.945" gradientUnits="userSpaceOnUse">
<stop offset="0.0756841" stop-color="#B565D8"/>
<stop offset="0.945898" stop-color="#EE609C"/>
</linearGradient>
<linearGradient id="paint32_linear" x1="51.6973" y1="72.9476" x2="59.0946" y2="81.3688" gradientUnits="userSpaceOnUse">
<stop offset="0.0756841" stop-color="#B565D8"/>
<stop offset="0.945898" stop-color="#EE609C"/>
</linearGradient>
<linearGradient id="paint33_linear" x1="50.476" y1="135.157" x2="56.9866" y2="144.537" gradientUnits="userSpaceOnUse">
<stop offset="0.0756841" stop-color="#B565D8"/>
<stop offset="0.945898" stop-color="#EE609C"/>
</linearGradient>
<linearGradient id="paint34_linear" x1="46.7606" y1="125.02" x2="53.3287" y2="134.352" gradientUnits="userSpaceOnUse">
<stop offset="0.0756841" stop-color="#B565D8"/>
<stop offset="0.945898" stop-color="#EE609C"/>
</linearGradient>
<linearGradient id="paint35_linear" x1="44.4027" y1="114.093" x2="51.0248" y2="123.338" gradientUnits="userSpaceOnUse">
<stop offset="0.0756841" stop-color="#B565D8"/>
<stop offset="0.945898" stop-color="#EE609C"/>
</linearGradient>
<linearGradient id="paint36_linear" x1="43.7044" y1="102.2" x2="50.4324" y2="111.35" gradientUnits="userSpaceOnUse">
<stop offset="0.0756841" stop-color="#B565D8"/>
<stop offset="0.945898" stop-color="#EE609C"/>
</linearGradient>
<linearGradient id="paint37_linear" x1="45.3658" y1="88.9317" x2="52.2787" y2="97.9045" gradientUnits="userSpaceOnUse">
<stop offset="0.0756841" stop-color="#B565D8"/>
<stop offset="0.945898" stop-color="#EE609C"/>
</linearGradient>
<linearGradient id="paint38_linear" x1="48.4576" y1="130.182" x2="54.9951" y2="139.54" gradientUnits="userSpaceOnUse">
<stop offset="0.0756841" stop-color="#B565D8"/>
<stop offset="0.945898" stop-color="#EE609C"/>
</linearGradient>
<linearGradient id="paint39_linear" x1="45.4013" y1="119.66" x2="52.0042" y2="128.963" gradientUnits="userSpaceOnUse">
<stop offset="0.0756841" stop-color="#B565D8"/>
<stop offset="0.945898" stop-color="#EE609C"/>
</linearGradient>
<linearGradient id="paint40_linear" x1="43.8171" y1="108.284" x2="50.4863" y2="117.487" gradientUnits="userSpaceOnUse">
<stop offset="0.0756841" stop-color="#B565D8"/>
<stop offset="0.945898" stop-color="#EE609C"/>
</linearGradient>
<linearGradient id="paint41_linear" x1="44.1591" y1="95.7857" x2="50.964" y2="104.864" gradientUnits="userSpaceOnUse">
<stop offset="0.0756841" stop-color="#B565D8"/>
<stop offset="0.945898" stop-color="#EE609C"/>
</linearGradient>
<linearGradient id="paint42_linear" x1="47.6139" y1="81.4752" x2="54.6944" y2="90.2731" gradientUnits="userSpaceOnUse">
<stop offset="0.0756841" stop-color="#B565D8"/>
<stop offset="0.945898" stop-color="#EE609C"/>
</linearGradient>
<linearGradient id="paint43_linear" x1="81.7585" y1="178.457" x2="89.1708" y2="179.928" gradientUnits="userSpaceOnUse">
<stop offset="0.0756841" stop-color="#B565D8"/>
<stop offset="0.945898" stop-color="#EE609C"/>
</linearGradient>
<linearGradient id="paint44_linear" x1="72.7702" y1="171.388" x2="80.963" y2="174.247" gradientUnits="userSpaceOnUse">
<stop offset="0.0756841" stop-color="#B565D8"/>
<stop offset="0.945898" stop-color="#EE609C"/>
</linearGradient>
<linearGradient id="paint45_linear" x1="55.4168" y1="144.582" x2="61.8833" y2="153.997" gradientUnits="userSpaceOnUse">
<stop offset="0.0756841" stop-color="#B565D8"/>
<stop offset="0.945898" stop-color="#EE609C"/>
</linearGradient>
<linearGradient id="paint46_linear" x1="77.1336" y1="174.998" x2="85.0514" y2="177.258" gradientUnits="userSpaceOnUse">
<stop offset="0.0756841" stop-color="#B565D8"/>
<stop offset="0.945898" stop-color="#EE609C"/>
</linearGradient>
<linearGradient id="paint47_linear" x1="68.6624" y1="167.628" x2="77.004" y2="170.919" gradientUnits="userSpaceOnUse">
<stop offset="0.0756841" stop-color="#B565D8"/>
<stop offset="0.945898" stop-color="#EE609C"/>
</linearGradient>
<linearGradient id="paint48_linear" x1="58.2944" y1="149.059" x2="64.7435" y2="158.489" gradientUnits="userSpaceOnUse">
<stop offset="0.0756841" stop-color="#B565D8"/>
<stop offset="0.945898" stop-color="#EE609C"/>
</linearGradient>
<linearGradient id="paint49_linear" x1="52.7951" y1="139.96" x2="59.282" y2="149.359" gradientUnits="userSpaceOnUse">
<stop offset="0.0756841" stop-color="#B565D8"/>
<stop offset="0.945898" stop-color="#EE609C"/>
</linearGradient>
<linearGradient id="paint50_linear" x1="91.8443" y1="184.888" x2="96.7035" y2="184.47" gradientUnits="userSpaceOnUse">
<stop offset="0.0756841" stop-color="#B565D8"/>
<stop offset="0.945898" stop-color="#EE609C"/>
</linearGradient>
<linearGradient id="paint51_linear" x1="97.3241" y1="187.847" x2="99.6337" y2="187.099" gradientUnits="userSpaceOnUse">
<stop offset="0.0756841" stop-color="#B565D8"/>
<stop offset="0.945898" stop-color="#EE609C"/>
</linearGradient>
<linearGradient id="paint52_linear" x1="86.66" y1="181.755" x2="93.1471" y2="182.27" gradientUnits="userSpaceOnUse">
<stop offset="0.0756841" stop-color="#B565D8"/>
<stop offset="0.945898" stop-color="#EE609C"/>
</linearGradient>
<linearGradient id="paint53_linear" x1="15.8526" y1="154.668" x2="48.2574" y2="131.513" gradientUnits="userSpaceOnUse">
<stop offset="0.0756841" stop-color="#B565D8"/>
<stop offset="0.945898" stop-color="#EE609C"/>
</linearGradient>
<linearGradient id="paint54_linear" x1="54.2316" y1="63.5994" x2="70.1808" y2="56.3702" gradientUnits="userSpaceOnUse">
<stop offset="0.0756841" stop-color="#B565D8"/>
<stop offset="0.945898" stop-color="#EE609C"/>
</linearGradient>
<linearGradient id="paint55_linear" x1="49.1061" y1="207.438" x2="52.1692" y2="201.856" gradientUnits="userSpaceOnUse">
<stop offset="0.0756841" stop-color="#B565D8"/>
<stop offset="0.945898" stop-color="#EE609C"/>
</linearGradient>
<linearGradient id="paint56_linear" x1="66.6011" y1="236.209" x2="82.5121" y2="207.211" gradientUnits="userSpaceOnUse">
<stop offset="0.0756841" stop-color="#B565D8"/>
<stop offset="0.945898" stop-color="#EE609C"/>
</linearGradient>
<linearGradient id="paint57_linear" x1="17.7601" y1="126.26" x2="27.1974" y2="109.06" gradientUnits="userSpaceOnUse">
<stop offset="0.0756841" stop-color="#B565D8"/>
<stop offset="0.945898" stop-color="#EE609C"/>
</linearGradient>
<linearGradient id="paint58_linear" x1="69.5604" y1="81.2859" x2="68.6951" y2="85.9414" gradientUnits="userSpaceOnUse">
<stop offset="0.0756841" stop-color="#B565D8"/>
<stop offset="0.945898" stop-color="#EE609C"/>
</linearGradient>
<linearGradient id="paint59_linear" x1="238.241" y1="158.499" x2="241.304" y2="152.916" gradientUnits="userSpaceOnUse">
<stop offset="0.0756841" stop-color="#B565D8"/>
<stop offset="0.945898" stop-color="#EE609C"/>
</linearGradient>
<linearGradient id="paint60_linear" x1="230.981" y1="152.991" x2="255.227" y2="166.332" gradientUnits="userSpaceOnUse">
<stop offset="0.0756841" stop-color="#B565D8"/>
<stop offset="0.945898" stop-color="#EE609C"/>
</linearGradient>
<linearGradient id="paint61_linear" x1="64.247" y1="146.224" x2="70.0996" y2="149.372" gradientUnits="userSpaceOnUse">
<stop offset="0.0756841" stop-color="#B565D8"/>
<stop offset="0.945898" stop-color="#EE609C"/>
</linearGradient>
<linearGradient id="paint62_linear" x1="39.8285" y1="167.481" x2="58.0727" y2="167.481" gradientUnits="userSpaceOnUse">
<stop stop-color="#2B3582"/>
<stop offset="1" stop-color="#150E42"/>
</linearGradient>
<linearGradient id="paint63_linear" x1="88.893" y1="167.481" x2="120.298" y2="167.481" gradientUnits="userSpaceOnUse">
<stop stop-color="#2B3582"/>
<stop offset="1" stop-color="#150E42"/>
</linearGradient>
<linearGradient id="paint64_linear" x1="70.2977" y1="197.914" x2="74.706" y2="197.914" gradientUnits="userSpaceOnUse">
<stop stop-color="#2B3582"/>
<stop offset="1" stop-color="#150E42"/>
</linearGradient>
<linearGradient id="paint65_linear" x1="131.161" y1="66.5456" x2="-11.2033" y2="262.6" gradientUnits="userSpaceOnUse">
<stop stop-color="#CB236D"/>
<stop offset="1" stop-color="#4C246D"/>
</linearGradient>
<linearGradient id="paint66_linear" x1="256.764" y1="178.437" x2="276.902" y2="224.099" gradientUnits="userSpaceOnUse">
<stop stop-color="#FDF53F"/>
<stop offset="0.6645" stop-color="#E57A58"/>
<stop offset="1" stop-color="#D93C65"/>
</linearGradient>
<linearGradient id="paint67_linear" x1="240.089" y1="185.791" x2="260.227" y2="231.453" gradientUnits="userSpaceOnUse">
<stop stop-color="#FDF53F"/>
<stop offset="0.6645" stop-color="#E57A58"/>
<stop offset="1" stop-color="#D93C65"/>
</linearGradient>
<linearGradient id="paint68_linear" x1="259.527" y1="205.21" x2="255.996" y2="188.228" gradientUnits="userSpaceOnUse">
<stop stop-color="#FDF53F"/>
<stop offset="0.6645" stop-color="#E57A58"/>
<stop offset="1" stop-color="#D93C65"/>
</linearGradient>
<linearGradient id="paint69_linear" x1="234.78" y1="209.063" x2="220.511" y2="209.063" gradientUnits="userSpaceOnUse">
<stop stop-color="#CB236D"/>
<stop offset="1" stop-color="#4C246D"/>
</linearGradient>
<linearGradient id="paint70_linear" x1="223.788" y1="181.678" x2="227.672" y2="208.565" gradientUnits="userSpaceOnUse">
<stop stop-color="#CB236D"/>
<stop offset="1" stop-color="#4C246D"/>
</linearGradient>
<linearGradient id="paint71_linear" x1="234.067" y1="204.771" x2="230.206" y2="204.771" gradientUnits="userSpaceOnUse">
<stop stop-color="#F9B776"/>
<stop offset="1" stop-color="#F47960"/>
</linearGradient>
<linearGradient id="paint72_linear" x1="212.4" y1="206.241" x2="200.88" y2="206.241" gradientUnits="userSpaceOnUse">
<stop stop-color="#CB236D"/>
<stop offset="1" stop-color="#4C246D"/>
</linearGradient>
<linearGradient id="paint73_linear" x1="204.476" y1="184.468" x2="208.36" y2="211.355" gradientUnits="userSpaceOnUse">
<stop stop-color="#CB236D"/>
<stop offset="1" stop-color="#4C246D"/>
</linearGradient>
<linearGradient id="paint74_linear" x1="255.415" y1="187.384" x2="224.853" y2="187.384" gradientUnits="userSpaceOnUse">
<stop stop-color="#2B3582"/>
<stop offset="1" stop-color="#150E42"/>
</linearGradient>
<linearGradient id="paint75_linear" x1="215.781" y1="205.096" x2="211.172" y2="205.096" gradientUnits="userSpaceOnUse">
<stop stop-color="#F9B776"/>
<stop offset="1" stop-color="#F47960"/>
</linearGradient>
<linearGradient id="paint76_linear" x1="227.654" y1="174.675" x2="261.134" y2="212.707" gradientUnits="userSpaceOnUse">
<stop stop-color="#2B3582"/>
<stop offset="1" stop-color="#150E42"/>
</linearGradient>
<linearGradient id="paint77_linear" x1="241.383" y1="140.269" x2="239.118" y2="134.547" gradientUnits="userSpaceOnUse">
<stop stop-color="#F9B776"/>
<stop offset="1" stop-color="#F47960"/>
</linearGradient>
<linearGradient id="paint78_linear" x1="250.782" y1="153.268" x2="225.824" y2="194.319" gradientUnits="userSpaceOnUse">
<stop stop-color="#FDF53F"/>
<stop offset="0.6645" stop-color="#E57A58"/>
<stop offset="1" stop-color="#D93C65"/>
</linearGradient>
<linearGradient id="paint79_linear" x1="221.969" y1="162.512" x2="211.323" y2="162.512" gradientUnits="userSpaceOnUse">
<stop stop-color="#F9B776"/>
<stop offset="1" stop-color="#F47960"/>
</linearGradient>
<linearGradient id="paint80_linear" x1="234.445" y1="128.638" x2="244.597" y2="138.782" gradientUnits="userSpaceOnUse">
<stop stop-color="#F9B776"/>
<stop offset="1" stop-color="#F47960"/>
</linearGradient>
<linearGradient id="paint81_linear" x1="243.292" y1="122.863" x2="231.335" y2="134.701" gradientUnits="userSpaceOnUse">
<stop stop-color="#2B3582"/>
<stop offset="1" stop-color="#150E42"/>
</linearGradient>
<linearGradient id="paint82_linear" x1="236.09" y1="126.992" x2="246.242" y2="137.137" gradientUnits="userSpaceOnUse">
<stop stop-color="#F9B776"/>
<stop offset="1" stop-color="#F47960"/>
</linearGradient>
<linearGradient id="paint83_linear" x1="2503.49" y1="-2268.38" x2="2466.01" y2="-2228.22" gradientUnits="userSpaceOnUse">
<stop stop-color="#9CFFFB"/>
<stop offset="1" stop-color="#9BFFFA"/>
</linearGradient>
<linearGradient id="paint84_linear" x1="-2974.64" y1="-889.86" x2="-2922.41" y2="-872.71" gradientUnits="userSpaceOnUse">
<stop stop-color="#9CFFFB"/>
<stop offset="1" stop-color="#9BFFFA"/>
</linearGradient>
<linearGradient id="paint85_linear" x1="220.183" y1="213.439" x2="218.065" y2="263.494" gradientUnits="userSpaceOnUse">
<stop stop-color="#53D8FF"/>
<stop offset="1" stop-color="#3840F7"/>
</linearGradient>
<linearGradient id="paint86_linear" x1="205.647" y1="212.823" x2="203.528" y2="262.879" gradientUnits="userSpaceOnUse">
<stop stop-color="#53D8FF"/>
<stop offset="1" stop-color="#3840F7"/>
</linearGradient>
<linearGradient id="paint87_linear" x1="211.966" y1="213.091" x2="209.848" y2="263.147" gradientUnits="userSpaceOnUse">
<stop stop-color="#53D8FF"/>
<stop offset="1" stop-color="#3840F7"/>
</linearGradient>
<linearGradient id="paint88_linear" x1="214.406" y1="164.459" x2="218.311" y2="193.386" gradientUnits="userSpaceOnUse">
<stop stop-color="#2B3582"/>
<stop offset="1" stop-color="#150E42"/>
</linearGradient>
<linearGradient id="paint89_linear" x1="99.7745" y1="101.537" x2="154.652" y2="217.539" gradientUnits="userSpaceOnUse">
<stop stop-color="#2B3582"/>
<stop offset="1" stop-color="#150E42"/>
</linearGradient>
<linearGradient id="paint90_linear" x1="162.109" y1="228.041" x2="153.632" y2="228.041" gradientUnits="userSpaceOnUse">
<stop stop-color="#2B3582"/>
<stop offset="1" stop-color="#150E42"/>
</linearGradient>
<linearGradient id="paint91_linear" x1="140.886" y1="218.06" x2="171.682" y2="242.287" gradientUnits="userSpaceOnUse">
<stop stop-color="#53D8FF"/>
<stop offset="1" stop-color="#3840F7"/>
</linearGradient>
<linearGradient id="paint92_linear" x1="173.477" y1="169.987" x2="162.171" y2="169.987" gradientUnits="userSpaceOnUse">
<stop stop-color="#F9B776"/>
<stop offset="1" stop-color="#F47960"/>
</linearGradient>
<linearGradient id="paint93_linear" x1="159.752" y1="218.408" x2="161.365" y2="232.515" gradientUnits="userSpaceOnUse">
<stop stop-color="#F9B776"/>
<stop offset="1" stop-color="#F47960"/>
</linearGradient>
<linearGradient id="paint94_linear" x1="135.408" y1="225.023" x2="166.205" y2="249.25" gradientUnits="userSpaceOnUse">
<stop stop-color="#53D8FF"/>
<stop offset="1" stop-color="#3840F7"/>
</linearGradient>
<linearGradient id="paint95_linear" x1="149.2" y1="228.266" x2="136.997" y2="228.266" gradientUnits="userSpaceOnUse">
<stop stop-color="#2B3582"/>
<stop offset="1" stop-color="#150E42"/>
</linearGradient>
<linearGradient id="paint96_linear" x1="146.561" y1="219.917" x2="148.174" y2="234.023" gradientUnits="userSpaceOnUse">
<stop stop-color="#F9B776"/>
<stop offset="1" stop-color="#F47960"/>
</linearGradient>
<linearGradient id="paint97_linear" x1="127.321" y1="155.415" x2="178.974" y2="235.719" gradientUnits="userSpaceOnUse">
<stop stop-color="#7C27DD"/>
<stop offset="1" stop-color="#2B41D9"/>
</linearGradient>
<linearGradient id="paint98_linear" x1="134.161" y1="129.143" x2="243.896" y2="244.42" gradientUnits="userSpaceOnUse">
<stop stop-color="#A737D5"/>
<stop offset="1" stop-color="#EF497A"/>
</linearGradient>
<linearGradient id="paint99_linear" x1="156.148" y1="127.014" x2="162.767" y2="155.672" gradientUnits="userSpaceOnUse">
<stop stop-color="#F9B776"/>
<stop offset="1" stop-color="#F47960"/>
</linearGradient>
<linearGradient id="paint100_linear" x1="157.199" y1="121.985" x2="154.163" y2="139.886" gradientUnits="userSpaceOnUse">
<stop stop-color="#F9B776"/>
<stop offset="1" stop-color="#F47960"/>
</linearGradient>
<linearGradient id="paint101_linear" x1="160.404" y1="130.457" x2="151.441" y2="120.918" gradientUnits="userSpaceOnUse">
<stop stop-color="#2B3582"/>
<stop offset="1" stop-color="#150E42"/>
</linearGradient>
<linearGradient id="paint102_linear" x1="159.843" y1="141.522" x2="160.383" y2="128.952" gradientUnits="userSpaceOnUse">
<stop stop-color="#F9B776"/>
<stop offset="1" stop-color="#F47960"/>
</linearGradient>
<linearGradient id="paint103_linear" x1="161.382" y1="133.26" x2="174.144" y2="156.75" gradientUnits="userSpaceOnUse">
<stop stop-color="#A737D5"/>
<stop offset="1" stop-color="#EF497A"/>
</linearGradient>
<linearGradient id="paint104_linear" x1="156.367" y1="176.953" x2="160.697" y2="184.675" gradientUnits="userSpaceOnUse">
<stop stop-color="#2B3582"/>
<stop offset="1" stop-color="#150E42"/>
</linearGradient>
<linearGradient id="paint105_linear" x1="128.948" y1="133.46" x2="239.621" y2="249.722" gradientUnits="userSpaceOnUse">
<stop stop-color="#A737D5"/>
<stop offset="1" stop-color="#EF497A"/>
</linearGradient>
<linearGradient id="paint106_linear" x1="116.17" y1="116.784" x2="122.837" y2="138.612" gradientUnits="userSpaceOnUse">
<stop stop-color="#F9B776"/>
<stop offset="1" stop-color="#F47960"/>
</linearGradient>
<linearGradient id="paint107_linear" x1="113.565" y1="117.58" x2="120.232" y2="139.408" gradientUnits="userSpaceOnUse">
<stop stop-color="#F9B776"/>
<stop offset="1" stop-color="#F47960"/>
</linearGradient>
</defs>
</svg>
