<svg width="275" height="286" viewBox="0 0 275 286" fill="none" xmlns="http://www.w3.org/2000/svg">
<g opacity="0.7" filter="url(#filter0_d)">
<path d="M231.766 181.352C242.326 146.952 226.791 107.729 198.735 85.2063C170.679 62.6815 132.397 55.5346 96.7405 60.3003C66.0727 64.3994 35.532 77.6029 16.2365 101.8C7.37167 112.919 2.08631 131.239 13.3853 139.872C26.9637 150.244 47.3279 134.221 63.2101 140.521C77.2186 146.077 79.3643 165.128 76.4707 179.924C73.5772 194.72 68.08 210.66 74.7013 224.203C80.9333 236.945 96.4717 242.91 110.627 242.066C126.349 241.129 140.965 233.087 156.587 230.647C164.412 229.425 172.129 229.943 179.967 228.561C188.604 227.037 196.804 223.965 204.03 218.942C217.012 209.915 227.115 196.505 231.766 181.352Z" fill="url(#paint0_linear)"/>
</g>
<g filter="url(#filter1_d)">
<path d="M222.132 67.7575C212.238 63.9451 201.547 61.9665 190.971 62.788C186.083 63.1679 181.069 64.2148 177.105 67.1C173.14 69.9851 170.473 75.0618 171.595 79.8295C172.477 83.5746 175.457 86.486 178.701 88.5568C181.945 90.6283 185.559 92.0783 188.765 94.2083C191.971 96.3375 194.858 99.377 195.536 103.164C196.16 106.651 194.833 110.229 195.203 113.753C195.784 119.281 200.869 123.8 206.408 124.323C211.947 124.847 217.51 121.72 220.503 117.031C223.328 112.603 224.231 106.811 228.308 103.498C230.53 101.693 233.402 100.906 236.224 100.424C239.046 99.9434 241.93 99.7171 244.652 98.8291C250.236 97.0074 254.953 90.0675 250.665 84.6648C248.767 82.2719 245.653 80.6913 243.164 79.0043C240.072 76.9092 236.906 74.9266 233.63 73.1287C229.919 71.0929 226.084 69.2795 222.132 67.7575Z" fill="url(#paint1_linear)"/>
</g>
<path d="M202.788 100.002L186.956 109.215L186.637 109.401L141.013 135.95L140.694 136.136L95.069 162.686L94.7505 162.871L85.0684 168.505C85.2518 168.606 85.4386 168.697 85.6208 168.799L95.0177 163.33L95.3362 163.145L140.961 136.595L141.28 136.41L186.904 109.86L187.223 109.674L203.228 100.361C203.082 100.242 202.936 100.121 202.788 100.002Z" fill="url(#paint2_linear)"/>
<path d="M181.609 100.026L181.289 100.213L135.666 126.762L135.347 126.947L89.722 153.497L89.4035 153.683L73.137 163.148C73.354 163.224 73.5676 163.309 73.784 163.387L89.6694 154.143L89.9879 153.957L135.613 127.407L135.932 127.222L181.555 100.672L181.875 100.486L193.871 93.5057C193.705 93.3969 193.536 93.2916 193.37 93.1828L181.609 100.026Z" fill="url(#paint3_linear)"/>
<path d="M176.262 90.8376L175.943 91.0237L130.319 117.573L130 117.758L84.3752 144.308L84.0568 144.494L50.5068 164.017C50.632 164.15 50.7558 164.283 50.8822 164.415L84.3247 144.954L84.6432 144.769L130.268 118.219L130.587 118.033L176.211 91.4841L176.53 91.298L183.422 87.2879C183.238 87.1874 183.054 87.0911 182.869 86.9934L176.262 90.8376Z" fill="url(#paint4_linear)"/>
<path d="M170.916 81.6492L170.596 81.8352L124.972 108.385L124.653 108.57L79.0283 135.12L78.7098 135.305L43.5841 155.746C43.6913 155.889 43.7998 156.031 43.907 156.174L78.9777 135.766L79.2962 135.58L124.921 109.03L125.24 108.845L170.864 82.2957L171.183 82.1096L172.043 81.6095C171.846 81.5185 171.649 81.4275 171.453 81.3366L170.916 81.6492Z" fill="url(#paint5_linear)"/>
<path d="M184.284 104.622L183.964 104.808L138.34 131.357L138.022 131.543L92.3964 158.093L92.078 158.278L79.4016 165.655C79.5969 165.743 79.7869 165.843 79.9809 165.932L92.3452 158.737L92.6636 158.552L138.289 132.002L138.607 131.817L184.231 105.267L184.551 105.081L198.693 96.8516C198.537 96.7369 198.383 96.6213 198.226 96.5086L184.284 104.622Z" fill="url(#paint6_linear)"/>
<path d="M178.936 95.4324L178.616 95.6185L132.992 122.168L132.674 122.353L87.0488 148.903L86.7303 149.089L66.0857 161.102C66.3327 161.159 66.5759 161.229 66.8223 161.288L86.9975 149.548L87.316 149.362L132.941 122.812L133.26 122.627L178.883 96.0776L179.203 95.8916L188.77 90.3243C188.595 90.2207 188.423 90.1156 188.247 90.014L178.936 95.4324Z" fill="url(#paint7_linear)"/>
<path d="M173.589 86.2441L173.269 86.4302L127.645 112.98L127.327 113.165L81.7016 139.715L81.3832 139.9L46.9098 159.961C47.026 160.099 47.1396 160.238 47.2557 160.376L81.6511 140.361L81.9696 140.175L127.595 113.625L127.913 113.44L173.537 86.8906L173.857 86.7045L177.831 84.392C177.64 84.2974 177.451 84.2019 177.261 84.1072L173.589 86.2441Z" fill="url(#paint8_linear)"/>
<path d="M234.732 142.915L213.692 155.159L213.372 155.345L167.748 181.894L167.43 182.079L128.733 204.598C128.867 204.725 129.001 204.853 129.133 204.979L167.697 182.539L168.015 182.353L213.639 155.804L213.959 155.618L234.937 143.41C234.869 143.246 234.8 143.081 234.732 142.915Z" fill="url(#paint9_linear)"/>
<path d="M208.345 145.97L208.025 146.156L162.401 172.706L162.083 172.891L120.777 196.928C120.91 197.056 121.042 197.184 121.175 197.312L162.351 173.352L162.669 173.166L208.293 146.617L208.613 146.431L230.417 133.742C230.335 133.585 230.252 133.428 230.169 133.271L208.345 145.97Z" fill="url(#paint10_linear)"/>
<path d="M202.998 136.782L202.678 136.968L157.054 163.517L156.736 163.702L112.74 189.304C112.877 189.43 113.012 189.557 113.149 189.683L157.004 164.163L157.322 163.977L202.946 137.428L203.266 137.242L225.006 124.591C224.909 124.442 224.814 124.292 224.715 124.144L202.998 136.782Z" fill="url(#paint11_linear)"/>
<path d="M197.651 127.593L197.331 127.779L151.707 154.328L151.389 154.514L105.764 181.064L105.445 181.249L104.326 181.9C104.47 182.022 104.615 182.143 104.759 182.265L105.713 181.71L106.032 181.524L151.657 154.974L151.975 154.789L197.599 128.239L197.919 128.053L218.706 115.957C218.593 115.817 218.483 115.676 218.369 115.537L197.651 127.593Z" fill="url(#paint12_linear)"/>
<path d="M192.304 118.405L191.984 118.591L146.36 145.141L146.042 145.326L100.417 171.876L100.098 172.061L95.238 174.89C95.3957 175.002 95.551 175.118 95.7086 175.23L100.366 172.521L100.684 172.335L146.309 145.785L146.628 145.6L192.251 119.05L192.571 118.864L211.475 107.864C211.346 107.733 211.213 107.605 211.084 107.477L192.304 118.405Z" fill="url(#paint13_linear)"/>
<path d="M211.018 150.564L210.698 150.75L165.075 177.3L164.756 177.485L124.747 200.767C124.88 200.895 125.013 201.023 125.145 201.152L165.024 177.946L165.342 177.76L210.966 151.211L211.286 151.025L232.79 138.511C232.715 138.35 232.638 138.189 232.563 138.027L211.018 150.564Z" fill="url(#paint14_linear)"/>
<path d="M205.671 141.376L205.352 141.562L159.728 168.111L159.409 168.297L116.787 193.099C116.921 193.227 117.056 193.352 117.191 193.481L159.677 168.757L159.996 168.572L205.62 142.022L205.939 141.836L227.823 129.102C227.733 128.949 227.644 128.795 227.553 128.643L205.671 141.376Z" fill="url(#paint15_linear)"/>
<path d="M200.324 132.188L200.005 132.374L154.381 158.923L154.062 159.108L108.6 185.564C108.74 185.688 108.882 185.809 109.024 185.934L154.33 159.569L154.649 159.384L200.273 132.834L200.592 132.648L221.969 120.209C221.864 120.064 221.762 119.918 221.655 119.775L200.324 132.188Z" fill="url(#paint16_linear)"/>
<path d="M194.977 122.999L194.658 123.185L149.034 149.735L148.715 149.92L103.09 176.47L102.772 176.655L99.8835 178.336C100.034 178.454 100.189 178.567 100.341 178.686L103.04 177.116L103.358 176.93L148.983 150.38L149.302 150.195L194.925 123.646L195.245 123.46L215.212 111.841C215.091 111.706 214.969 111.571 214.847 111.437L194.977 122.999Z" fill="url(#paint17_linear)"/>
<path d="M189.63 113.81L189.311 113.996L143.687 140.546L143.368 140.731L97.7432 167.281L97.4248 167.467L90.3147 171.604C90.4846 171.711 90.6525 171.817 90.8211 171.924L97.692 167.926L98.0104 167.74L143.636 141.19L143.954 141.005L189.578 114.456L189.898 114.27L207.485 104.035C207.348 103.91 207.209 103.786 207.07 103.662L189.63 113.81Z" fill="url(#paint18_linear)"/>
<path d="M235.08 191.914L234.76 192.1L189.137 218.649L188.818 218.834L165.803 232.227C166.001 232.317 166.198 232.408 166.396 232.497L189.084 219.294L189.403 219.109L235.026 192.56L235.346 192.374L242.486 188.219C242.503 188.005 242.514 187.791 242.531 187.578L235.08 191.914Z" fill="url(#paint19_linear)"/>
<path d="M229.733 182.725L229.414 182.911L183.79 209.46L183.471 209.646L154.97 226.231C155.136 226.338 155.299 226.453 155.466 226.557L183.738 210.105L184.057 209.92L229.681 183.37L230.001 183.184L242.567 175.872C242.554 175.676 242.537 175.478 242.522 175.283L229.733 182.725Z" fill="url(#paint20_linear)"/>
<path d="M224.386 173.537L224.067 173.723L178.443 200.272L178.124 200.458L145.509 219.437C145.659 219.556 145.807 219.675 145.957 219.791L178.39 200.918L178.709 200.732L224.333 174.183L224.652 173.997L241.121 164.414C241.087 164.228 241.057 164.042 241.023 163.856L224.386 173.537Z" fill="url(#paint21_linear)"/>
<path d="M219.039 164.347L218.719 164.533L173.095 191.082L172.777 191.268L136.88 212.157C137.019 212.281 137.158 212.406 137.297 212.529L173.044 191.727L173.362 191.541L218.986 164.992L219.306 164.806L238.533 153.617C238.481 153.442 238.426 153.271 238.374 153.096L219.039 164.347Z" fill="url(#paint22_linear)"/>
<path d="M237.754 196.508L237.434 196.694L191.81 223.244L191.491 223.429L172.016 234.762C172.236 234.841 172.459 234.914 172.678 234.991L191.759 223.888L192.077 223.703L237.701 197.153L238.021 196.967L241.624 194.871C241.664 194.643 241.703 194.415 241.742 194.188L237.754 196.508Z" fill="url(#paint23_linear)"/>
<path d="M232.407 187.32L232.087 187.506L186.463 214.055L186.145 214.241L160.151 229.367C160.333 229.467 160.516 229.564 160.697 229.664L186.411 214.701L186.729 214.515L232.353 187.966L232.673 187.78L242.75 181.916C242.752 181.709 242.756 181.503 242.755 181.298L232.407 187.32Z" fill="url(#paint24_linear)"/>
<path d="M227.06 178.131L226.74 178.317L181.116 204.866L180.798 205.052L150.108 222.911C150.266 223.024 150.426 223.134 150.585 223.248L181.065 205.511L181.383 205.325L227.007 178.776L227.327 178.59L242 170.052C241.974 169.861 241.952 169.67 241.927 169.479L227.06 178.131Z" fill="url(#paint25_linear)"/>
<path d="M221.713 168.943L221.393 169.129L175.769 195.678L175.451 195.864L141.107 215.849C141.251 215.971 141.398 216.089 141.543 216.21L175.718 196.323L176.036 196.137L221.66 169.588L221.98 169.402L239.963 158.937C239.92 158.757 239.875 158.58 239.83 158.4L221.713 168.943Z" fill="url(#paint26_linear)"/>
<path d="M216.366 159.754L216.046 159.94L170.422 186.49L170.104 186.675L132.763 208.404C132.9 208.53 133.035 208.657 133.172 208.783L170.373 187.135L170.692 186.949L216.315 160.4L216.635 160.214L236.856 148.447C236.797 148.276 236.734 148.107 236.673 147.937L216.366 159.754Z" fill="url(#paint27_linear)"/>
<path d="M240.173 201.25L240.107 201.288L194.484 227.838L194.165 228.023L178.968 236.867C179.218 236.928 179.47 236.985 179.722 237.044L194.433 228.484L194.751 228.298L239.96 201.991C240.032 201.744 240.103 201.498 240.173 201.25Z" fill="url(#paint28_linear)"/>
<path d="M199.512 237.211L197.063 238.637C197.469 238.611 197.874 238.581 198.28 238.545L199.78 237.672L200.098 237.487L231.688 219.104C231.936 218.758 232.185 218.411 232.425 218.059L199.831 237.026L199.512 237.211Z" fill="url(#paint29_linear)"/>
<path d="M196.839 232.619L187.012 238.337C187.306 238.371 187.599 238.41 187.892 238.44L197.106 233.078L197.425 232.892L237.056 209.83C237.18 209.558 237.295 209.28 237.415 209.007L197.158 232.433L196.839 232.619Z" fill="url(#paint30_linear)"/>
<path d="M66.3823 50.2283L48.4696 60.652C47.7882 61.2317 47.117 61.826 46.4614 62.4352L68.8174 49.4259C67.9996 49.6741 67.1876 49.9411 66.3823 50.2283Z" fill="url(#paint31_linear)"/>
<path d="M41.5464 71.4453L41.8649 71.26L83.0582 47.2888C82.7034 47.2881 82.3479 47.2862 81.9942 47.2933L41.599 70.8001L41.2805 70.9854L37.249 73.3314C37.0319 73.6615 36.8133 73.989 36.603 74.322L41.5464 71.4453Z" fill="url(#paint32_linear)"/>
<path d="M68.2817 117.389L68.6002 117.203L114.225 90.6532L114.544 90.4678L147.71 71.1678C147.504 71.082 147.3 70.9956 147.095 70.9091L114.277 90.0066L113.959 90.192L68.3335 116.742L68.0151 116.927L33.1068 137.241C33.1744 137.407 33.2445 137.572 33.3134 137.737L68.2817 117.389Z" fill="url(#paint33_linear)"/>
<path d="M62.9349 108.2L63.2533 108.015L108.878 81.4649L109.197 81.2796L135.547 65.9459C135.348 65.8564 135.149 65.7669 134.949 65.6774L108.93 80.8184L108.612 81.0037L62.9867 107.554L62.6682 107.739L29.7207 126.912C29.7665 127.091 29.8175 127.267 29.8633 127.445L62.9349 108.2Z" fill="url(#paint34_linear)"/>
<path d="M57.5879 99.0115L57.9064 98.8262L103.532 72.2761L103.85 72.0907L123.878 60.436C123.687 60.3421 123.496 60.2474 123.305 60.1547L103.584 71.6308L103.266 71.8162L57.6404 98.3662L57.322 98.5516L27.7395 115.766C27.7598 115.96 27.7755 116.154 27.797 116.347L57.5879 99.0115Z" fill="url(#paint35_linear)"/>
<path d="M52.2411 89.8234L52.5596 89.6381L98.1847 63.088L98.5032 62.9027L112.285 54.883C112.087 54.7928 111.889 54.7026 111.691 54.6136L98.236 62.4435L97.9175 62.6288L52.2924 89.1789L51.9739 89.3642L27.4794 103.618C27.4656 103.83 27.4526 104.043 27.4409 104.255L52.2411 89.8234Z" fill="url(#paint36_linear)"/>
<path d="M46.8932 80.6336L47.2117 80.4482L92.8368 53.8981L93.1553 53.7128L99.5811 49.9735C99.3478 49.9021 99.1129 49.8368 98.8778 49.7682L92.8881 53.2536L92.5696 53.439L46.9445 79.9891L46.626 80.1744L29.7494 89.9952C29.6812 90.2369 29.619 90.4803 29.5536 90.7238L46.8932 80.6336Z" fill="url(#paint37_linear)"/>
<path d="M65.6083 112.795L65.9268 112.609L111.552 86.0591L111.87 85.8738L141.585 68.5826C141.381 68.4953 141.177 68.4088 140.975 68.3208L111.604 85.4126L111.285 85.5979L65.6601 112.148L65.3416 112.333L31.2558 132.169C31.3118 132.341 31.3659 132.514 31.4239 132.687L65.6083 112.795Z" fill="url(#paint38_linear)"/>
<path d="M60.2616 103.606L60.5801 103.42L106.205 76.8703L106.524 76.685L129.642 63.232C129.448 63.1396 129.255 63.0464 129.062 62.9532L106.257 76.2238L105.939 76.4091L60.3134 102.959L59.995 103.145L28.5439 121.446C28.5782 121.632 28.6118 121.816 28.6468 122.003L60.2616 103.606Z" fill="url(#paint39_linear)"/>
<path d="M54.9145 94.4174L55.233 94.232L100.858 67.6819L101.177 67.4966L118.136 57.6274C117.943 57.5342 117.751 57.441 117.558 57.3491L100.911 67.0367L100.592 67.222L54.9671 93.7721L54.6486 93.9575L27.3594 109.837C27.3643 110.04 27.3672 110.242 27.3734 110.444L54.9145 94.4174Z" fill="url(#paint40_linear)"/>
<path d="M49.5677 85.2291L49.8862 85.0438L95.5113 58.4937L95.8298 58.3083L106.174 52.2886C105.964 52.2058 105.755 52.1202 105.545 52.04L95.5626 57.8492L95.2441 58.0345L49.619 84.5846L49.3005 84.7699L28.2159 97.0394C28.1798 97.2659 28.1372 97.4927 28.1019 97.7204L49.5677 85.2291Z" fill="url(#paint41_linear)"/>
<path d="M44.2204 76.0407L44.5389 75.8553L90.1641 49.3052L90.4825 49.1199L92.1555 48.1464C91.8838 48.0973 91.6116 48.0503 91.3409 48.0058L90.2153 48.6607L89.8969 48.8461L44.2717 75.3962L43.9532 75.5815L32.4459 82.2778C32.3311 82.5484 32.2163 82.8189 32.1056 83.0905L44.2204 76.0407Z" fill="url(#paint42_linear)"/>
<path d="M75.8754 174.471L75.5532 174.044L67.567 178.691C67.728 178.803 67.8907 178.912 68.0529 179.023L75.8754 174.471Z" fill="url(#paint43_linear)"/>
<path d="M69.4144 165.931L69.0909 165.505L58.4994 171.668C58.6411 171.791 58.7816 171.915 58.9239 172.036L69.4144 165.931Z" fill="url(#paint44_linear)"/>
<path d="M73.6288 126.577L73.9473 126.391L119.572 99.8413L119.891 99.6559L160.014 76.3077C159.809 76.2212 159.606 76.134 159.402 76.0475L119.624 99.1947L119.306 99.3801L73.6806 125.93L73.3622 126.115L37.7556 146.836C37.8436 146.99 37.9342 147.143 38.0235 147.296L73.6288 126.577Z" fill="url(#paint45_linear)"/>
<path d="M72.6456 170.201L72.3221 169.774L62.8983 175.258C63.0503 175.375 63.2015 175.491 63.3535 175.608L72.6456 170.201Z" fill="url(#paint46_linear)"/>
<path d="M54.7693 168.304L66.182 161.662L65.8598 161.235L54.364 167.925C54.4973 168.051 54.6353 168.176 54.7693 168.304Z" fill="url(#paint47_linear)"/>
<path d="M76.303 131.173L76.6215 130.987L122.247 104.437L122.565 104.252L166.089 78.9247C165.888 78.836 165.686 78.748 165.485 78.66L122.298 103.791L121.98 103.976L76.3549 130.526L76.0364 130.711L40.5321 151.372C40.6291 151.521 40.7235 151.672 40.8218 151.82L76.303 131.173Z" fill="url(#paint48_linear)"/>
<path d="M35.5117 142.61L70.9572 121.984L71.2756 121.798L116.901 95.2481L117.219 95.0628L153.873 73.7331C153.668 73.6473 153.462 73.5616 153.256 73.4758L116.951 94.6023L116.633 94.7877L71.0077 121.338L70.6892 121.523L35.2796 142.129C35.3574 142.289 35.4326 142.45 35.5117 142.61Z" fill="url(#paint49_linear)"/>
<path d="M82.3378 183.011L82.0143 182.584L77.7667 185.056C77.9468 185.157 78.1257 185.258 78.3064 185.357L82.3378 183.011Z" fill="url(#paint50_linear)"/>
<path d="M85.5677 187.281L85.2435 186.854L83.3173 187.975C83.5076 188.069 83.6967 188.165 83.887 188.259L85.5677 187.281Z" fill="url(#paint51_linear)"/>
<path d="M72.521 181.959C72.6909 182.066 72.8613 182.17 73.0325 182.276L79.1066 178.741L78.7831 178.315L72.521 181.959Z" fill="url(#paint52_linear)"/>
<g filter="url(#filter2_d)">
<path d="M36.2878 146.641C40.8466 147.48 44.8882 150.767 46.6473 155.061C50.3885 164.197 43.827 174.547 45.5557 184.26C46.1079 187.366 47.4924 190.611 46.3269 193.536C44.9576 196.967 40.453 198.232 36.9151 197.146C33.377 196.062 30.6475 193.267 28.2398 190.451C23.6296 185.062 19.4916 179.014 17.8609 172.117C15.1178 160.528 21.9905 144.005 36.2878 146.641Z" fill="url(#paint53_linear)"/>
</g>
<g filter="url(#filter3_d)">
<path d="M45.8086 75.2177C43.5336 72.0378 43.691 67.2752 46.3289 64.3572C48.9673 61.4402 53.8869 60.8408 57.0065 63.2042C58.7773 64.5455 59.9138 66.8719 59.37 69.0305C58.9121 70.8492 57.4779 72.065 56.1634 73.2927C55.01 74.3691 54.376 75.5698 53.4198 76.774C51.2481 79.5092 47.4826 77.5572 45.8086 75.2177Z" fill="url(#paint54_linear)"/>
</g>
<g filter="url(#filter4_d)">
<path d="M37.9879 204.581C38.7564 203.858 39.92 203.549 40.9027 203.904C42.103 204.339 42.8341 205.749 42.5729 207.011C42.3101 208.273 41.1336 209.269 39.8585 209.382C36.8386 209.65 35.9247 206.526 37.9879 204.581Z" fill="url(#paint55_linear)"/>
</g>
<g filter="url(#filter5_d)">
<path d="M67.57 221.367C71.562 217.611 77.6065 216.006 82.7109 217.853C88.9456 220.109 92.7433 227.434 91.3867 233.989C90.0216 240.548 83.9099 245.72 77.2869 246.306C61.6002 247.701 56.8533 231.47 67.57 221.367Z" fill="url(#paint56_linear)"/>
</g>
<g filter="url(#filter6_d)">
<path d="M12.6386 117.457C15.0064 115.229 18.5917 114.277 21.6192 115.373C25.3172 116.711 27.5698 121.056 26.7651 124.944C25.9555 128.834 22.3304 131.902 18.4021 132.249C9.0978 133.076 6.28219 123.449 12.6386 117.457Z" fill="url(#paint57_linear)"/>
</g>
<g filter="url(#filter7_d)">
<path d="M54.3322 82.5311C54.0472 83.0451 51.4034 84.9282 50.8218 84.9063C50.1113 84.8795 49.5852 83.3112 49.5096 82.5973C49.4348 81.8829 49.8901 81.1549 50.5474 80.8788C52.1041 80.2239 55.0968 81.1492 54.3322 82.5311Z" fill="url(#paint58_linear)"/>
</g>
<g filter="url(#filter8_d)">
<path d="M227.123 155.641C227.892 154.918 229.055 154.609 230.038 154.965C231.238 155.399 231.969 156.809 231.708 158.071C231.445 159.334 230.269 160.33 228.994 160.442C225.974 160.711 225.06 157.586 227.123 155.641Z" fill="url(#paint59_linear)"/>
</g>
<g filter="url(#filter9_d)">
<path d="M227.476 163.841C224.696 164.255 222.316 166.166 219.524 166.496C216.425 166.862 212.958 165.285 210.315 166.912C208.362 168.116 207.704 170.792 208.364 172.994C209.023 175.197 210.746 176.953 212.663 178.248C216.653 180.941 221.848 181.947 226.424 180.534C230.745 179.198 234.637 175.349 235.711 170.903C236.742 166.64 231.363 163.261 227.476 163.841Z" fill="url(#paint60_linear)"/>
</g>
<g filter="url(#filter10_d)">
<path d="M49.7558 148.755C51.0891 147.872 53.1323 148.416 53.8801 149.829C54.6289 151.243 53.9567 153.21 52.5159 153.902C51.074 154.593 49.1422 153.918 48.414 152.493C47.6858 151.068 48.2467 149.136 49.6051 148.292" fill="url(#paint61_linear)"/>
</g>
<path d="M80.3303 170.735L87.6676 201.05L105.294 183.109L80.3303 170.735Z" fill="url(#paint62_linear)"/>
<path d="M214.111 120.74L148.621 212.125C147.367 213.875 145.447 215.045 143.3 215.366C141.155 215.688 138.969 215.132 137.247 213.829L46.8446 145.416C45.8104 144.632 45.3598 143.308 45.7045 142.066C46.0512 140.824 47.1258 139.914 48.4199 139.766L214.111 120.74Z" fill="url(#paint63_linear)"/>
<path d="M80.3401 170.737L214.112 120.74L94.8952 181.823L96.5668 190.315L80.3401 170.737Z" fill="url(#paint64_linear)"/>
<path d="M103.575 188.329L87.6675 201.051L94.895 181.823L103.575 188.329Z" fill="url(#paint65_linear)"/>
<path d="M182.935 69.7395L181.827 66.5776C175.636 71.4726 169.885 74.7942 164.907 77.0505C165.19 79.2858 165.951 82.0177 167.833 84.2435C177.309 77.566 182.935 69.7395 182.935 69.7395Z" fill="url(#paint66_linear)"/>
<path d="M146.762 81.8101L149.609 92.5873C156.603 91.0483 162.768 87.8085 167.831 84.2414C165.949 82.0156 165.188 79.2837 164.905 77.0483C153.975 82.0023 146.762 81.8101 146.762 81.8101Z" fill="url(#paint67_linear)"/>
<path d="M150.333 158.689C153.686 157.955 156.865 157.005 158.974 156.324C156.651 155.474 151.346 153.693 147.265 153.509L144.644 154.045C144.644 154.045 144.13 155.592 144.64 158.678C145.214 159.092 146.664 159.492 150.333 158.689Z" fill="url(#paint68_linear)"/>
<path d="M159.007 156.336C158.997 156.332 158.985 156.329 158.974 156.325C156.863 157.006 153.684 157.955 150.333 158.689C146.662 159.492 145.212 159.093 144.642 158.68C144.665 158.823 144.688 158.963 144.717 159.112C144.844 159.785 145.497 160.232 146.179 160.103C148.946 159.582 155.796 158.244 158.991 157.209C159.413 157.074 159.423 156.488 159.007 156.336Z" fill="url(#paint69_linear)"/>
<path d="M144.939 150.536C145.309 150.52 144.442 152.446 145.025 154.31C145.156 154.73 145.48 155.058 145.925 155.059C146.214 155.059 146.556 155.05 146.903 155.02C147.425 154.972 147.841 154.567 147.883 154.051L149.039 149.194L144.939 150.536Z" fill="url(#paint70_linear)"/>
<path d="M109.878 179.199C113.307 179.372 116.628 179.292 118.844 179.191C116.834 177.761 112.2 174.65 108.316 173.4L106.467 173.281C105.941 173.246 105.448 173.543 105.25 174.026C104.959 174.734 104.584 175.932 104.393 177.692C104.834 178.24 106.124 179.009 109.878 179.199Z" fill="url(#paint71_linear)"/>
<path d="M118.873 179.211C118.863 179.205 118.854 179.198 118.846 179.192C116.63 179.293 113.308 179.373 109.88 179.2C106.126 179.009 104.836 178.243 104.397 177.695C104.382 177.838 104.366 177.98 104.353 178.13C104.293 178.813 104.803 179.415 105.495 179.47C108.302 179.694 115.266 180.206 118.625 180.05C119.066 180.029 119.233 179.468 118.873 179.211Z" fill="url(#paint72_linear)"/>
<path d="M106.731 169.718C107.103 169.708 106.103 171.911 106.092 173.842C106.09 174.281 106.533 174.597 106.979 174.605C107.268 174.611 107.611 174.607 107.958 174.58C108.48 174.542 108.901 174.143 108.953 173.627L110.806 169.215L106.731 169.718Z" fill="url(#paint73_linear)"/>
<path d="M105.857 171.095C107.259 165.413 116.809 125.534 123.507 116.878L133.01 118.794L134.106 117.462C134.106 117.462 156.58 123.963 159.147 126.401C161.254 128.403 149.17 152.653 149.17 152.653C149.17 152.653 146.66 153.593 144.301 151.59L148.116 134.656C148.272 133.962 147.826 133.275 147.123 133.127L130.07 129.527C129.407 129.386 128.735 129.715 128.446 130.322C124.841 137.898 112.449 164.203 110.299 172.326C110.238 172.556 110.028 172.716 109.787 172.703C109.079 172.667 107.596 172.541 106.417 172.113C105.993 171.961 105.751 171.527 105.857 171.095Z" fill="url(#paint74_linear)"/>
<path d="M129.43 128.941C129.374 128.941 129.321 128.92 129.278 128.88C129.191 128.796 129.19 128.661 129.274 128.576L131.499 126.329C131.583 126.243 131.72 126.243 131.807 126.325C131.893 126.407 131.895 126.544 131.811 126.629L129.586 128.876C129.544 128.92 129.488 128.941 129.43 128.941Z" fill="url(#paint75_linear)"/>
<path d="M149.826 81.6394C145.153 80.4295 135.94 78.4262 129.665 79.543L122.871 117.791C126.241 120.143 130.956 120.565 136.675 119.541L151.248 96.8189C152.17 94.9088 152.632 92.8162 152.598 90.7007C152.54 87.1983 152.058 82.2178 149.826 81.6394Z" fill="url(#paint76_linear)"/>
<path d="M139.936 70.5312C139.936 70.5312 138.461 76.7008 137.446 79.4879C137.311 79.8589 137.623 80.2488 138.01 80.344C139.418 80.6902 142.747 81.4303 144.378 81.124C144.708 81.0631 144.956 80.7948 144.993 80.4657L145.911 72.0589L139.936 70.5312Z" fill="url(#paint77_linear)"/>
<path d="M146.691 63.7681C146.691 63.7681 148.69 68.3034 148.825 70.6853C148.96 73.0652 149.478 74.61 146.691 75.0894C143.905 75.5688 141.557 74.1972 140.286 71.8267C140.286 71.8267 138.293 68.1722 138.74 66.6769C139.186 65.1778 146.691 63.7681 146.691 63.7681Z" fill="url(#paint78_linear)"/>
<path d="M141.238 70.1201H141.59C141.59 70.1201 140.138 67.1789 141.415 66.6634C142.69 66.1459 147.741 65.1281 148.831 63.3589C149.882 61.6524 148.945 59.4475 147.543 58.8292C147.454 58.7893 147.35 58.8311 147.304 58.9167L147.188 59.1336C147.109 59.282 146.886 59.2592 146.84 59.0974C146.795 58.9434 146.585 58.911 146.501 59.0461C146.168 59.575 145.264 60.4368 142.84 60.8781C139.402 61.5059 137.128 62.8795 137.072 65.2271C137.068 65.3754 136.908 65.4572 136.779 65.3812C136.525 65.229 136.119 65.1567 135.576 65.6075C134.632 66.3913 135.017 68.425 137.087 70.0992C137.186 70.1791 137.186 70.3313 137.078 70.3997C136.702 70.6414 136.144 71.2159 137.592 71.9807C139.075 72.7626 139.951 72.6788 140.282 72.5951C140.371 72.5723 140.431 72.4924 140.425 72.4011L140.294 70.3217C140.286 70.2133 140.373 70.1239 140.483 70.1239H141.238V70.1201Z" fill="url(#paint79_linear)"/>
<path d="M141.324 70.5559C141.324 70.5559 140.561 67.6585 139.246 68.4708C137.931 69.2832 139.928 71.7164 140.985 71.8248L141.324 70.5559Z" fill="url(#paint80_linear)"/>
<path d="M123.873 112.141C123.873 112.141 127.335 110.828 128.373 111.313C129.413 111.8 131.218 113.636 131.218 113.636C131.218 113.636 129.14 115.148 128.046 114.608C126.952 114.068 124.381 115.257 123.561 115.689C122.74 116.122 120.905 114.155 123.873 112.141Z" fill="url(#paint81_linear)"/>
<path d="M117.835 103.601C117.752 102.477 118.01 101.31 118.775 100.139C122.831 93.9272 131.874 92.3501 131.874 92.3501L129.665 79.543C129.665 79.543 114.242 86.2985 110.806 97.9679C109.695 101.746 110.569 104.891 112.258 107.415C114.086 104.895 116.156 103.921 117.835 103.601Z" fill="url(#paint82_linear)"/>
<path d="M117.835 103.601C116.158 103.92 114.086 104.894 112.258 107.415C115.786 112.687 122.869 115.257 122.869 115.257L124.874 112.447C124.874 112.449 118.191 108.433 117.835 103.601Z" fill="url(#paint83_linear)"/>
<path d="M182.775 70.7115C182.81 71.0901 181.385 71.3526 180.93 69.7375C181.055 69.0355 181.277 65.965 181.822 65.4875C184.72 62.9458 189.889 60.0884 189.889 60.0884C190.467 60.9597 189.71 61.5342 189.71 61.5342L187.129 63.254C187.399 64.1348 187.792 64.9129 187.836 65.9193C187.869 66.6803 187.586 67.426 187.073 68.0044C186.559 68.5846 185.868 69.3323 185.246 69.9011C184.065 70.976 182.775 70.7115 182.775 70.7115Z" fill="url(#paint84_linear)"/>
<path d="M184.2 69.4691L183.763 69.2922C183.894 68.9745 185.065 66.1798 185.658 65.5672C185.877 65.3409 185.989 65.1392 185.979 64.987C185.974 64.909 185.937 64.831 185.866 64.7511L183.799 65.8431L182.881 67.2642L182.482 67.0131L183.468 65.4892L185.933 64.188L186.055 64.2869C186.307 64.4905 186.438 64.7112 186.453 64.9604C186.472 65.2552 186.324 65.5596 186.003 65.8926C185.55 66.3529 184.547 68.6301 184.2 69.4691Z" fill="url(#paint85_linear)"/>
<defs>
<filter id="filter0_d" x="0.953857" y="52.897" width="256.14" height="211.248" filterUnits="userSpaceOnUse" color-interpolation-filters="sRGB">
<feFlood flood-opacity="0" result="BackgroundImageFix"/>
<feColorMatrix in="SourceAlpha" type="matrix" values="0 0 0 0 0 0 0 0 0 0 0 0 0 0 0 0 0 0 127 0" result="hardAlpha"/>
<feOffset dx="8" dy="8"/>
<feGaussianBlur stdDeviation="7"/>
<feColorMatrix type="matrix" values="0 0 0 0 0 0 0 0 0 0 0 0 0 0 0 0 0 0 0.25 0"/>
<feBlend mode="normal" in2="BackgroundImageFix" result="effect1_dropShadow"/>
<feBlend mode="normal" in="SourceGraphic" in2="effect1_dropShadow" result="shape"/>
</filter>
<filter id="filter1_d" x="165.337" y="56.604" width="108.992" height="89.7763" filterUnits="userSpaceOnUse" color-interpolation-filters="sRGB">
<feFlood flood-opacity="0" result="BackgroundImageFix"/>
<feColorMatrix in="SourceAlpha" type="matrix" values="0 0 0 0 0 0 0 0 0 0 0 0 0 0 0 0 0 0 127 0" result="hardAlpha"/>
<feOffset dx="8" dy="8"/>
<feGaussianBlur stdDeviation="7"/>
<feColorMatrix type="matrix" values="0 0 0 0 0 0 0 0 0 0 0 0 0 0 0 0 0 0 0.25 0"/>
<feBlend mode="normal" in2="BackgroundImageFix" result="effect1_dropShadow"/>
<feBlend mode="normal" in="SourceGraphic" in2="effect1_dropShadow" result="shape"/>
</filter>
<filter id="filter2_d" x="11.2675" y="140.36" width="58.5525" height="79.1645" filterUnits="userSpaceOnUse" color-interpolation-filters="sRGB">
<feFlood flood-opacity="0" result="BackgroundImageFix"/>
<feColorMatrix in="SourceAlpha" type="matrix" values="0 0 0 0 0 0 0 0 0 0 0 0 0 0 0 0 0 0 127 0" result="hardAlpha"/>
<feOffset dx="8" dy="8"/>
<feGaussianBlur stdDeviation="7"/>
<feColorMatrix type="matrix" values="0 0 0 0 0 0 0 0 0 0 0 0 0 0 0 0 0 0 0.25 0"/>
<feBlend mode="normal" in2="BackgroundImageFix" result="effect1_dropShadow"/>
<feBlend mode="normal" in="SourceGraphic" in2="effect1_dropShadow" result="shape"/>
</filter>
<filter id="filter3_d" x="38.2177" y="55.7466" width="43.2892" height="44.3614" filterUnits="userSpaceOnUse" color-interpolation-filters="sRGB">
<feFlood flood-opacity="0" result="BackgroundImageFix"/>
<feColorMatrix in="SourceAlpha" type="matrix" values="0 0 0 0 0 0 0 0 0 0 0 0 0 0 0 0 0 0 127 0" result="hardAlpha"/>
<feOffset dx="8" dy="8"/>
<feGaussianBlur stdDeviation="7"/>
<feColorMatrix type="matrix" values="0 0 0 0 0 0 0 0 0 0 0 0 0 0 0 0 0 0 0.25 0"/>
<feBlend mode="normal" in2="BackgroundImageFix" result="effect1_dropShadow"/>
<feBlend mode="normal" in="SourceGraphic" in2="effect1_dropShadow" result="shape"/>
</filter>
<filter id="filter4_d" x="30.8762" y="197.756" width="33.7496" height="33.6417" filterUnits="userSpaceOnUse" color-interpolation-filters="sRGB">
<feFlood flood-opacity="0" result="BackgroundImageFix"/>
<feColorMatrix in="SourceAlpha" type="matrix" values="0 0 0 0 0 0 0 0 0 0 0 0 0 0 0 0 0 0 127 0" result="hardAlpha"/>
<feOffset dx="8" dy="8"/>
<feGaussianBlur stdDeviation="7"/>
<feColorMatrix type="matrix" values="0 0 0 0 0 0 0 0 0 0 0 0 0 0 0 0 0 0 0.25 0"/>
<feBlend mode="normal" in2="BackgroundImageFix" result="effect1_dropShadow"/>
<feBlend mode="normal" in="SourceGraphic" in2="effect1_dropShadow" result="shape"/>
</filter>
<filter id="filter5_d" x="55.7955" y="211.085" width="57.8654" height="57.3051" filterUnits="userSpaceOnUse" color-interpolation-filters="sRGB">
<feFlood flood-opacity="0" result="BackgroundImageFix"/>
<feColorMatrix in="SourceAlpha" type="matrix" values="0 0 0 0 0 0 0 0 0 0 0 0 0 0 0 0 0 0 127 0" result="hardAlpha"/>
<feOffset dx="8" dy="8"/>
<feGaussianBlur stdDeviation="7"/>
<feColorMatrix type="matrix" values="0 0 0 0 0 0 0 0 0 0 0 0 0 0 0 0 0 0 0.25 0"/>
<feBlend mode="normal" in2="BackgroundImageFix" result="effect1_dropShadow"/>
<feBlend mode="normal" in="SourceGraphic" in2="effect1_dropShadow" result="shape"/>
</filter>
<filter id="filter6_d" x="3.21362" y="108.917" width="45.7142" height="45.3818" filterUnits="userSpaceOnUse" color-interpolation-filters="sRGB">
<feFlood flood-opacity="0" result="BackgroundImageFix"/>
<feColorMatrix in="SourceAlpha" type="matrix" values="0 0 0 0 0 0 0 0 0 0 0 0 0 0 0 0 0 0 127 0" result="hardAlpha"/>
<feOffset dx="8" dy="8"/>
<feGaussianBlur stdDeviation="7"/>
<feColorMatrix type="matrix" values="0 0 0 0 0 0 0 0 0 0 0 0 0 0 0 0 0 0 0.25 0"/>
<feBlend mode="normal" in2="BackgroundImageFix" result="effect1_dropShadow"/>
<feBlend mode="normal" in="SourceGraphic" in2="effect1_dropShadow" result="shape"/>
</filter>
<filter id="filter7_d" x="43.5016" y="74.6641" width="32.9535" height="32.2425" filterUnits="userSpaceOnUse" color-interpolation-filters="sRGB">
<feFlood flood-opacity="0" result="BackgroundImageFix"/>
<feColorMatrix in="SourceAlpha" type="matrix" values="0 0 0 0 0 0 0 0 0 0 0 0 0 0 0 0 0 0 127 0" result="hardAlpha"/>
<feOffset dx="8" dy="8"/>
<feGaussianBlur stdDeviation="7"/>
<feColorMatrix type="matrix" values="0 0 0 0 0 0 0 0 0 0 0 0 0 0 0 0 0 0 0.25 0"/>
<feBlend mode="normal" in2="BackgroundImageFix" result="effect1_dropShadow"/>
<feBlend mode="normal" in="SourceGraphic" in2="effect1_dropShadow" result="shape"/>
</filter>
<filter id="filter8_d" x="220.011" y="148.817" width="33.7496" height="33.6417" filterUnits="userSpaceOnUse" color-interpolation-filters="sRGB">
<feFlood flood-opacity="0" result="BackgroundImageFix"/>
<feColorMatrix in="SourceAlpha" type="matrix" values="0 0 0 0 0 0 0 0 0 0 0 0 0 0 0 0 0 0 127 0" result="hardAlpha"/>
<feOffset dx="8" dy="8"/>
<feGaussianBlur stdDeviation="7"/>
<feColorMatrix type="matrix" values="0 0 0 0 0 0 0 0 0 0 0 0 0 0 0 0 0 0 0.25 0"/>
<feBlend mode="normal" in2="BackgroundImageFix" result="effect1_dropShadow"/>
<feBlend mode="normal" in="SourceGraphic" in2="effect1_dropShadow" result="shape"/>
</filter>
<filter id="filter9_d" x="202.116" y="157.776" width="55.7245" height="45.3969" filterUnits="userSpaceOnUse" color-interpolation-filters="sRGB">
<feFlood flood-opacity="0" result="BackgroundImageFix"/>
<feColorMatrix in="SourceAlpha" type="matrix" values="0 0 0 0 0 0 0 0 0 0 0 0 0 0 0 0 0 0 127 0" result="hardAlpha"/>
<feOffset dx="8" dy="8"/>
<feGaussianBlur stdDeviation="7"/>
<feColorMatrix type="matrix" values="0 0 0 0 0 0 0 0 0 0 0 0 0 0 0 0 0 0 0.25 0"/>
<feBlend mode="normal" in2="BackgroundImageFix" result="effect1_dropShadow"/>
<feBlend mode="normal" in="SourceGraphic" in2="effect1_dropShadow" result="shape"/>
</filter>
<filter id="filter10_d" x="42.0934" y="142.292" width="34.0958" height="33.8835" filterUnits="userSpaceOnUse" color-interpolation-filters="sRGB">
<feFlood flood-opacity="0" result="BackgroundImageFix"/>
<feColorMatrix in="SourceAlpha" type="matrix" values="0 0 0 0 0 0 0 0 0 0 0 0 0 0 0 0 0 0 127 0" result="hardAlpha"/>
<feOffset dx="8" dy="8"/>
<feGaussianBlur stdDeviation="7"/>
<feColorMatrix type="matrix" values="0 0 0 0 0 0 0 0 0 0 0 0 0 0 0 0 0 0 0.25 0"/>
<feBlend mode="normal" in2="BackgroundImageFix" result="effect1_dropShadow"/>
<feBlend mode="normal" in="SourceGraphic" in2="effect1_dropShadow" result="shape"/>
</filter>
<linearGradient id="paint0_linear" x1="13.9023" y1="22.2473" x2="260.041" y2="37.6844" gradientUnits="userSpaceOnUse">
<stop offset="0.0756841" stop-color="#B565D8"/>
<stop offset="0.945898" stop-color="#EE609C"/>
</linearGradient>
<linearGradient id="paint1_linear" x1="165.152" y1="56.8308" x2="240.096" y2="33.0843" gradientUnits="userSpaceOnUse">
<stop offset="0.0756841" stop-color="#B565D8"/>
<stop offset="0.945898" stop-color="#EE609C"/>
</linearGradient>
<linearGradient id="paint2_linear" x1="88.6055" y1="166.324" x2="95.0753" y2="175.697" gradientUnits="userSpaceOnUse">
<stop offset="0.0756841" stop-color="#B565D8"/>
<stop offset="0.945898" stop-color="#EE609C"/>
</linearGradient>
<linearGradient id="paint3_linear" x1="76.7526" y1="160.922" x2="83.2076" y2="170.306" gradientUnits="userSpaceOnUse">
<stop offset="0.0756841" stop-color="#B565D8"/>
<stop offset="0.945898" stop-color="#EE609C"/>
</linearGradient>
<linearGradient id="paint4_linear" x1="54.4933" y1="161.574" x2="60.906" y2="171.032" gradientUnits="userSpaceOnUse">
<stop offset="0.0756841" stop-color="#B565D8"/>
<stop offset="0.945898" stop-color="#EE609C"/>
</linearGradient>
<linearGradient id="paint5_linear" x1="47.4348" y1="153.382" x2="53.8691" y2="162.823" gradientUnits="userSpaceOnUse">
<stop offset="0.0756841" stop-color="#B565D8"/>
<stop offset="0.945898" stop-color="#EE609C"/>
</linearGradient>
<linearGradient id="paint6_linear" x1="82.9733" y1="163.453" x2="89.4364" y2="172.831" gradientUnits="userSpaceOnUse">
<stop offset="0.0756841" stop-color="#B565D8"/>
<stop offset="0.945898" stop-color="#EE609C"/>
</linearGradient>
<linearGradient id="paint7_linear" x1="69.7607" y1="158.841" x2="76.2052" y2="168.233" gradientUnits="userSpaceOnUse">
<stop offset="0.0756841" stop-color="#B565D8"/>
<stop offset="0.945898" stop-color="#EE609C"/>
</linearGradient>
<linearGradient id="paint8_linear" x1="50.8355" y1="157.553" x2="57.2577" y2="167.004" gradientUnits="userSpaceOnUse">
<stop offset="0.0756841" stop-color="#B565D8"/>
<stop offset="0.945898" stop-color="#EE609C"/>
</linearGradient>
<linearGradient id="paint9_linear" x1="131.908" y1="202.627" x2="138.453" y2="211.937" gradientUnits="userSpaceOnUse">
<stop offset="0.0756841" stop-color="#B565D8"/>
<stop offset="0.945898" stop-color="#EE609C"/>
</linearGradient>
<linearGradient id="paint10_linear" x1="124.055" y1="194.897" x2="130.598" y2="204.25" gradientUnits="userSpaceOnUse">
<stop offset="0.0756841" stop-color="#B565D8"/>
<stop offset="0.945898" stop-color="#EE609C"/>
</linearGradient>
<linearGradient id="paint11_linear" x1="116.098" y1="187.227" x2="122.623" y2="196.595" gradientUnits="userSpaceOnUse">
<stop offset="0.0756841" stop-color="#B565D8"/>
<stop offset="0.945898" stop-color="#EE609C"/>
</linearGradient>
<linearGradient id="paint12_linear" x1="107.748" y1="179.786" x2="114.26" y2="189.164" gradientUnits="userSpaceOnUse">
<stop offset="0.0756841" stop-color="#B565D8"/>
<stop offset="0.945898" stop-color="#EE609C"/>
</linearGradient>
<linearGradient id="paint13_linear" x1="98.7167" y1="172.742" x2="105.198" y2="182.106" gradientUnits="userSpaceOnUse">
<stop offset="0.0756841" stop-color="#B565D8"/>
<stop offset="0.945898" stop-color="#EE609C"/>
</linearGradient>
<linearGradient id="paint14_linear" x1="127.977" y1="198.764" x2="134.53" y2="208.109" gradientUnits="userSpaceOnUse">
<stop offset="0.0756841" stop-color="#B565D8"/>
<stop offset="0.945898" stop-color="#EE609C"/>
</linearGradient>
<linearGradient id="paint15_linear" x1="120.107" y1="191.044" x2="126.641" y2="200.405" gradientUnits="userSpaceOnUse">
<stop offset="0.0756841" stop-color="#B565D8"/>
<stop offset="0.945898" stop-color="#EE609C"/>
</linearGradient>
<linearGradient id="paint16_linear" x1="111.991" y1="183.467" x2="118.509" y2="192.841" gradientUnits="userSpaceOnUse">
<stop offset="0.0756841" stop-color="#B565D8"/>
<stop offset="0.945898" stop-color="#EE609C"/>
</linearGradient>
<linearGradient id="paint17_linear" x1="103.334" y1="176.205" x2="109.841" y2="185.588" gradientUnits="userSpaceOnUse">
<stop offset="0.0756841" stop-color="#B565D8"/>
<stop offset="0.945898" stop-color="#EE609C"/>
</linearGradient>
<linearGradient id="paint18_linear" x1="93.8218" y1="169.44" x2="100.297" y2="178.808" gradientUnits="userSpaceOnUse">
<stop offset="0.0756841" stop-color="#B565D8"/>
<stop offset="0.945898" stop-color="#EE609C"/>
</linearGradient>
<linearGradient id="paint19_linear" x1="168.087" y1="230.775" x2="174.908" y2="239.838" gradientUnits="userSpaceOnUse">
<stop offset="0.0756841" stop-color="#B565D8"/>
<stop offset="0.945898" stop-color="#EE609C"/>
</linearGradient>
<linearGradient id="paint20_linear" x1="157.583" y1="224.588" x2="164.283" y2="233.763" gradientUnits="userSpaceOnUse">
<stop offset="0.0756841" stop-color="#B565D8"/>
<stop offset="0.945898" stop-color="#EE609C"/>
</linearGradient>
<linearGradient id="paint21_linear" x1="148.365" y1="217.652" x2="154.992" y2="226.893" gradientUnits="userSpaceOnUse">
<stop offset="0.0756841" stop-color="#B565D8"/>
<stop offset="0.945898" stop-color="#EE609C"/>
</linearGradient>
<linearGradient id="paint22_linear" x1="139.918" y1="210.266" x2="146.496" y2="219.548" gradientUnits="userSpaceOnUse">
<stop offset="0.0756841" stop-color="#B565D8"/>
<stop offset="0.945898" stop-color="#EE609C"/>
</linearGradient>
<linearGradient id="paint23_linear" x1="174.086" y1="233.435" x2="181.003" y2="242.403" gradientUnits="userSpaceOnUse">
<stop offset="0.0756841" stop-color="#B565D8"/>
<stop offset="0.945898" stop-color="#EE609C"/>
</linearGradient>
<linearGradient id="paint24_linear" x1="162.614" y1="227.811" x2="169.366" y2="236.939" gradientUnits="userSpaceOnUse">
<stop offset="0.0756841" stop-color="#B565D8"/>
<stop offset="0.945898" stop-color="#EE609C"/>
</linearGradient>
<linearGradient id="paint25_linear" x1="152.851" y1="221.191" x2="159.51" y2="230.403" gradientUnits="userSpaceOnUse">
<stop offset="0.0756841" stop-color="#B565D8"/>
<stop offset="0.945898" stop-color="#EE609C"/>
</linearGradient>
<linearGradient id="paint26_linear" x1="144.06" y1="214.008" x2="150.66" y2="223.271" gradientUnits="userSpaceOnUse">
<stop offset="0.0756841" stop-color="#B565D8"/>
<stop offset="0.945898" stop-color="#EE609C"/>
</linearGradient>
<linearGradient id="paint27_linear" x1="135.874" y1="206.471" x2="142.455" y2="215.792" gradientUnits="userSpaceOnUse">
<stop offset="0.0756841" stop-color="#B565D8"/>
<stop offset="0.945898" stop-color="#EE609C"/>
</linearGradient>
<linearGradient id="paint28_linear" x1="180.778" y1="235.69" x2="187.86" y2="244.532" gradientUnits="userSpaceOnUse">
<stop offset="0.0756841" stop-color="#B565D8"/>
<stop offset="0.945898" stop-color="#EE609C"/>
</linearGradient>
<linearGradient id="paint29_linear" x1="198.086" y1="237.918" x2="205.885" y2="245.802" gradientUnits="userSpaceOnUse">
<stop offset="0.0756841" stop-color="#B565D8"/>
<stop offset="0.945898" stop-color="#EE609C"/>
</linearGradient>
<linearGradient id="paint30_linear" x1="188.494" y1="237.352" x2="195.786" y2="245.906" gradientUnits="userSpaceOnUse">
<stop offset="0.0756841" stop-color="#B565D8"/>
<stop offset="0.945898" stop-color="#EE609C"/>
</linearGradient>
<linearGradient id="paint31_linear" x1="46.8217" y1="61.488" x2="55.1993" y2="67.945" gradientUnits="userSpaceOnUse">
<stop offset="0.0756841" stop-color="#B565D8"/>
<stop offset="0.945898" stop-color="#EE609C"/>
</linearGradient>
<linearGradient id="paint32_linear" x1="37.6973" y1="72.9476" x2="45.0946" y2="81.3688" gradientUnits="userSpaceOnUse">
<stop offset="0.0756841" stop-color="#B565D8"/>
<stop offset="0.945898" stop-color="#EE609C"/>
</linearGradient>
<linearGradient id="paint33_linear" x1="36.476" y1="135.157" x2="42.9866" y2="144.537" gradientUnits="userSpaceOnUse">
<stop offset="0.0756841" stop-color="#B565D8"/>
<stop offset="0.945898" stop-color="#EE609C"/>
</linearGradient>
<linearGradient id="paint34_linear" x1="32.7606" y1="125.02" x2="39.3287" y2="134.352" gradientUnits="userSpaceOnUse">
<stop offset="0.0756841" stop-color="#B565D8"/>
<stop offset="0.945898" stop-color="#EE609C"/>
</linearGradient>
<linearGradient id="paint35_linear" x1="30.4027" y1="114.093" x2="37.0248" y2="123.338" gradientUnits="userSpaceOnUse">
<stop offset="0.0756841" stop-color="#B565D8"/>
<stop offset="0.945898" stop-color="#EE609C"/>
</linearGradient>
<linearGradient id="paint36_linear" x1="29.7043" y1="102.2" x2="36.4324" y2="111.35" gradientUnits="userSpaceOnUse">
<stop offset="0.0756841" stop-color="#B565D8"/>
<stop offset="0.945898" stop-color="#EE609C"/>
</linearGradient>
<linearGradient id="paint37_linear" x1="31.3658" y1="88.9317" x2="38.2787" y2="97.9045" gradientUnits="userSpaceOnUse">
<stop offset="0.0756841" stop-color="#B565D8"/>
<stop offset="0.945898" stop-color="#EE609C"/>
</linearGradient>
<linearGradient id="paint38_linear" x1="34.4576" y1="130.182" x2="40.9951" y2="139.54" gradientUnits="userSpaceOnUse">
<stop offset="0.0756841" stop-color="#B565D8"/>
<stop offset="0.945898" stop-color="#EE609C"/>
</linearGradient>
<linearGradient id="paint39_linear" x1="31.4013" y1="119.66" x2="38.0043" y2="128.963" gradientUnits="userSpaceOnUse">
<stop offset="0.0756841" stop-color="#B565D8"/>
<stop offset="0.945898" stop-color="#EE609C"/>
</linearGradient>
<linearGradient id="paint40_linear" x1="29.8171" y1="108.284" x2="36.4864" y2="117.487" gradientUnits="userSpaceOnUse">
<stop offset="0.0756841" stop-color="#B565D8"/>
<stop offset="0.945898" stop-color="#EE609C"/>
</linearGradient>
<linearGradient id="paint41_linear" x1="30.1591" y1="95.7857" x2="36.964" y2="104.864" gradientUnits="userSpaceOnUse">
<stop offset="0.0756841" stop-color="#B565D8"/>
<stop offset="0.945898" stop-color="#EE609C"/>
</linearGradient>
<linearGradient id="paint42_linear" x1="33.6139" y1="81.4752" x2="40.6943" y2="90.2731" gradientUnits="userSpaceOnUse">
<stop offset="0.0756841" stop-color="#B565D8"/>
<stop offset="0.945898" stop-color="#EE609C"/>
</linearGradient>
<linearGradient id="paint43_linear" x1="67.7585" y1="178.457" x2="75.1707" y2="179.928" gradientUnits="userSpaceOnUse">
<stop offset="0.0756841" stop-color="#B565D8"/>
<stop offset="0.945898" stop-color="#EE609C"/>
</linearGradient>
<linearGradient id="paint44_linear" x1="58.7702" y1="171.388" x2="66.9631" y2="174.247" gradientUnits="userSpaceOnUse">
<stop offset="0.0756841" stop-color="#B565D8"/>
<stop offset="0.945898" stop-color="#EE609C"/>
</linearGradient>
<linearGradient id="paint45_linear" x1="41.4169" y1="144.582" x2="47.8834" y2="153.997" gradientUnits="userSpaceOnUse">
<stop offset="0.0756841" stop-color="#B565D8"/>
<stop offset="0.945898" stop-color="#EE609C"/>
</linearGradient>
<linearGradient id="paint46_linear" x1="63.1336" y1="174.998" x2="71.0514" y2="177.258" gradientUnits="userSpaceOnUse">
<stop offset="0.0756841" stop-color="#B565D8"/>
<stop offset="0.945898" stop-color="#EE609C"/>
</linearGradient>
<linearGradient id="paint47_linear" x1="54.6624" y1="167.628" x2="63.0039" y2="170.919" gradientUnits="userSpaceOnUse">
<stop offset="0.0756841" stop-color="#B565D8"/>
<stop offset="0.945898" stop-color="#EE609C"/>
</linearGradient>
<linearGradient id="paint48_linear" x1="44.2944" y1="149.059" x2="50.7435" y2="158.489" gradientUnits="userSpaceOnUse">
<stop offset="0.0756841" stop-color="#B565D8"/>
<stop offset="0.945898" stop-color="#EE609C"/>
</linearGradient>
<linearGradient id="paint49_linear" x1="38.7951" y1="139.96" x2="45.282" y2="149.359" gradientUnits="userSpaceOnUse">
<stop offset="0.0756841" stop-color="#B565D8"/>
<stop offset="0.945898" stop-color="#EE609C"/>
</linearGradient>
<linearGradient id="paint50_linear" x1="77.8444" y1="184.888" x2="82.7036" y2="184.47" gradientUnits="userSpaceOnUse">
<stop offset="0.0756841" stop-color="#B565D8"/>
<stop offset="0.945898" stop-color="#EE609C"/>
</linearGradient>
<linearGradient id="paint51_linear" x1="83.3241" y1="187.847" x2="85.6337" y2="187.099" gradientUnits="userSpaceOnUse">
<stop offset="0.0756841" stop-color="#B565D8"/>
<stop offset="0.945898" stop-color="#EE609C"/>
</linearGradient>
<linearGradient id="paint52_linear" x1="72.66" y1="181.755" x2="79.1471" y2="182.27" gradientUnits="userSpaceOnUse">
<stop offset="0.0756841" stop-color="#B565D8"/>
<stop offset="0.945898" stop-color="#EE609C"/>
</linearGradient>
<linearGradient id="paint53_linear" x1="1.85251" y1="154.668" x2="34.2574" y2="131.513" gradientUnits="userSpaceOnUse">
<stop offset="0.0756841" stop-color="#B565D8"/>
<stop offset="0.945898" stop-color="#EE609C"/>
</linearGradient>
<linearGradient id="paint54_linear" x1="40.2315" y1="63.5994" x2="56.1807" y2="56.3702" gradientUnits="userSpaceOnUse">
<stop offset="0.0756841" stop-color="#B565D8"/>
<stop offset="0.945898" stop-color="#EE609C"/>
</linearGradient>
<linearGradient id="paint55_linear" x1="35.1061" y1="207.438" x2="38.1692" y2="201.856" gradientUnits="userSpaceOnUse">
<stop offset="0.0756841" stop-color="#B565D8"/>
<stop offset="0.945898" stop-color="#EE609C"/>
</linearGradient>
<linearGradient id="paint56_linear" x1="52.6011" y1="236.209" x2="68.5121" y2="207.211" gradientUnits="userSpaceOnUse">
<stop offset="0.0756841" stop-color="#B565D8"/>
<stop offset="0.945898" stop-color="#EE609C"/>
</linearGradient>
<linearGradient id="paint57_linear" x1="3.76008" y1="126.26" x2="13.1974" y2="109.06" gradientUnits="userSpaceOnUse">
<stop offset="0.0756841" stop-color="#B565D8"/>
<stop offset="0.945898" stop-color="#EE609C"/>
</linearGradient>
<linearGradient id="paint58_linear" x1="55.5605" y1="81.2859" x2="54.6951" y2="85.9414" gradientUnits="userSpaceOnUse">
<stop offset="0.0756841" stop-color="#B565D8"/>
<stop offset="0.945898" stop-color="#EE609C"/>
</linearGradient>
<linearGradient id="paint59_linear" x1="224.241" y1="158.499" x2="227.304" y2="152.916" gradientUnits="userSpaceOnUse">
<stop offset="0.0756841" stop-color="#B565D8"/>
<stop offset="0.945898" stop-color="#EE609C"/>
</linearGradient>
<linearGradient id="paint60_linear" x1="216.981" y1="152.991" x2="241.227" y2="166.332" gradientUnits="userSpaceOnUse">
<stop offset="0.0756841" stop-color="#B565D8"/>
<stop offset="0.945898" stop-color="#EE609C"/>
</linearGradient>
<linearGradient id="paint61_linear" x1="50.247" y1="146.224" x2="56.0996" y2="149.372" gradientUnits="userSpaceOnUse">
<stop offset="0.0756841" stop-color="#B565D8"/>
<stop offset="0.945898" stop-color="#EE609C"/>
</linearGradient>
<linearGradient id="paint62_linear" x1="2.54236" y1="244.134" x2="103.707" y2="142.106" gradientUnits="userSpaceOnUse">
<stop stop-color="#53D8FF"/>
<stop offset="1" stop-color="#3840F7"/>
</linearGradient>
<linearGradient id="paint63_linear" x1="119.556" y1="226.971" x2="150.027" y2="-61.8575" gradientUnits="userSpaceOnUse">
<stop stop-color="#53D8FF"/>
<stop offset="1" stop-color="#3840F7"/>
</linearGradient>
<linearGradient id="paint64_linear" x1="12.3642" y1="242.164" x2="106.867" y2="146.855" gradientUnits="userSpaceOnUse">
<stop stop-color="#53D8FF"/>
<stop offset="1" stop-color="#3840F7"/>
</linearGradient>
<linearGradient id="paint65_linear" x1="66.0683" y1="200.646" x2="124.073" y2="178.934" gradientUnits="userSpaceOnUse">
<stop stop-color="#53D8FF"/>
<stop offset="1" stop-color="#3840F7"/>
</linearGradient>
<linearGradient id="paint66_linear" x1="183.195" y1="64.2464" x2="123.427" y2="126.938" gradientUnits="userSpaceOnUse">
<stop stop-color="#F9B776"/>
<stop offset="1" stop-color="#F47960"/>
</linearGradient>
<linearGradient id="paint67_linear" x1="173.73" y1="59.9737" x2="140.625" y2="107.564" gradientUnits="userSpaceOnUse">
<stop stop-color="#FDF53F"/>
<stop offset="1" stop-color="#D93C65"/>
</linearGradient>
<linearGradient id="paint68_linear" x1="144.212" y1="157.284" x2="158.408" y2="153.399" gradientUnits="userSpaceOnUse">
<stop stop-color="#2B3582"/>
<stop offset="1" stop-color="#150E42"/>
</linearGradient>
<linearGradient id="paint69_linear" x1="144.904" y1="159.81" x2="159.1" y2="155.925" gradientUnits="userSpaceOnUse">
<stop stop-color="#53D8FF"/>
<stop offset="1" stop-color="#3840F7"/>
</linearGradient>
<linearGradient id="paint70_linear" x1="144.809" y1="152.156" x2="149.072" y2="152.107" gradientUnits="userSpaceOnUse">
<stop stop-color="#F9B776"/>
<stop offset="1" stop-color="#F47960"/>
</linearGradient>
<linearGradient id="paint71_linear" x1="104.355" y1="176.259" x2="119.086" y2="176.338" gradientUnits="userSpaceOnUse">
<stop stop-color="#2B3582"/>
<stop offset="1" stop-color="#150E42"/>
</linearGradient>
<linearGradient id="paint72_linear" x1="104.341" y1="178.852" x2="119.072" y2="178.932" gradientUnits="userSpaceOnUse">
<stop stop-color="#53D8FF"/>
<stop offset="1" stop-color="#3840F7"/>
</linearGradient>
<linearGradient id="paint73_linear" x1="106.102" y1="171.896" x2="110.791" y2="171.921" gradientUnits="userSpaceOnUse">
<stop stop-color="#F9B776"/>
<stop offset="1" stop-color="#F47960"/>
</linearGradient>
<linearGradient id="paint74_linear" x1="104.789" y1="120.793" x2="155.535" y2="173.789" gradientUnits="userSpaceOnUse">
<stop stop-color="#CB236D"/>
<stop offset="1" stop-color="#4C246D"/>
</linearGradient>
<linearGradient id="paint75_linear" x1="138.983" y1="116.824" x2="123.949" y2="136.5" gradientUnits="userSpaceOnUse">
<stop stop-color="#CB236D"/>
<stop offset="1" stop-color="#4C246D"/>
</linearGradient>
<linearGradient id="paint76_linear" x1="154.74" y1="70.7802" x2="106.72" y2="136.393" gradientUnits="userSpaceOnUse">
<stop stop-color="#FDF53F"/>
<stop offset="1" stop-color="#D93C65"/>
</linearGradient>
<linearGradient id="paint77_linear" x1="140.458" y1="84.5785" x2="142.127" y2="74.1657" gradientUnits="userSpaceOnUse">
<stop stop-color="#F9B776"/>
<stop offset="1" stop-color="#F47960"/>
</linearGradient>
<linearGradient id="paint78_linear" x1="147.11" y1="67.7599" x2="135.787" y2="76.5301" gradientUnits="userSpaceOnUse">
<stop stop-color="#F9B776"/>
<stop offset="1" stop-color="#F47960"/>
</linearGradient>
<linearGradient id="paint79_linear" x1="139.083" y1="60.942" x2="149.272" y2="74.2221" gradientUnits="userSpaceOnUse">
<stop stop-color="#2B3582"/>
<stop offset="1" stop-color="#150E42"/>
</linearGradient>
<linearGradient id="paint80_linear" x1="145.693" y1="65.9301" x2="134.37" y2="74.7002" gradientUnits="userSpaceOnUse">
<stop stop-color="#F9B776"/>
<stop offset="1" stop-color="#F47960"/>
</linearGradient>
<linearGradient id="paint81_linear" x1="135.717" y1="103.755" x2="107.878" y2="135.214" gradientUnits="userSpaceOnUse">
<stop stop-color="#F9B776"/>
<stop offset="1" stop-color="#F47960"/>
</linearGradient>
<linearGradient id="paint82_linear" x1="144.49" y1="63.2783" x2="96.4701" y2="128.891" gradientUnits="userSpaceOnUse">
<stop stop-color="#FDF53F"/>
<stop offset="1" stop-color="#D93C65"/>
</linearGradient>
<linearGradient id="paint83_linear" x1="129.432" y1="98.1929" x2="101.593" y2="129.652" gradientUnits="userSpaceOnUse">
<stop stop-color="#F9B776"/>
<stop offset="1" stop-color="#F47960"/>
</linearGradient>
<linearGradient id="paint84_linear" x1="617.825" y1="753.293" x2="662.986" y2="826.955" gradientUnits="userSpaceOnUse">
<stop stop-color="#F9B776"/>
<stop offset="1" stop-color="#F47960"/>
</linearGradient>
<linearGradient id="paint85_linear" x1="182.478" y1="66.8278" x2="186.45" y2="66.8278" gradientUnits="userSpaceOnUse">
<stop stop-color="#F9B776"/>
<stop offset="1" stop-color="#F47960"/>
</linearGradient>
</defs>
</svg>
