<svg width="303" height="286" viewBox="0 0 303 286" fill="none" xmlns="http://www.w3.org/2000/svg">
<g opacity="0.7" filter="url(#filter0_d)">
<path d="M251.766 181.352C262.326 146.952 246.791 107.729 218.735 85.2063C190.679 62.6815 152.397 55.5346 116.741 60.3003C86.0727 64.3994 55.532 77.6029 36.2365 101.8C27.3717 112.919 22.0863 131.239 33.3853 139.872C46.9637 150.244 67.3279 134.221 83.2101 140.521C97.2186 146.077 99.3643 165.128 96.4707 179.924C93.5772 194.72 88.08 210.66 94.7013 224.203C100.933 236.945 116.472 242.91 130.627 242.066C146.349 241.129 160.965 233.087 176.587 230.647C184.412 229.425 192.129 229.943 199.967 228.561C208.604 227.037 216.804 223.965 224.03 218.942C237.012 209.915 247.115 196.505 251.766 181.352Z" fill="url(#paint0_linear)"/>
</g>
<g filter="url(#filter1_d)">
<path d="M242.132 67.7575C232.238 63.9451 221.547 61.9665 210.971 62.788C206.083 63.1679 201.069 64.2148 197.105 67.1C193.14 69.9851 190.473 75.0618 191.595 79.8295C192.477 83.5746 195.457 86.486 198.701 88.5568C201.945 90.6283 205.559 92.0783 208.765 94.2083C211.971 96.3375 214.858 99.377 215.536 103.164C216.16 106.651 214.833 110.229 215.203 113.753C215.784 119.281 220.869 123.8 226.408 124.323C231.947 124.847 237.51 121.72 240.503 117.031C243.328 112.603 244.231 106.811 248.308 103.498C250.53 101.693 253.402 100.906 256.224 100.424C259.046 99.9434 261.93 99.7171 264.652 98.8291C270.236 97.0074 274.953 90.0675 270.665 84.6648C268.767 82.2719 265.653 80.6913 263.164 79.0043C260.072 76.9092 256.906 74.9266 253.63 73.1287C249.919 71.0929 246.084 69.2795 242.132 67.7575Z" fill="url(#paint1_linear)"/>
</g>
<path d="M222.788 100.002L206.956 109.215L206.637 109.401L161.013 135.95L160.694 136.136L115.069 162.686L114.751 162.871L105.068 168.505C105.252 168.606 105.439 168.697 105.621 168.799L115.018 163.33L115.336 163.145L160.961 136.595L161.28 136.41L206.904 109.86L207.223 109.674L223.228 100.361C223.082 100.242 222.936 100.121 222.788 100.002Z" fill="url(#paint2_linear)"/>
<path d="M201.609 100.026L201.289 100.213L155.666 126.762L155.347 126.947L109.722 153.497L109.404 153.683L93.137 163.148C93.354 163.224 93.5676 163.309 93.784 163.387L109.669 154.143L109.988 153.957L155.613 127.407L155.932 127.222L201.555 100.672L201.875 100.486L213.871 93.5057C213.705 93.3969 213.536 93.2916 213.37 93.1828L201.609 100.026Z" fill="url(#paint3_linear)"/>
<path d="M196.262 90.8376L195.943 91.0237L150.319 117.573L150 117.758L104.375 144.308L104.057 144.494L70.5068 164.017C70.632 164.15 70.7558 164.283 70.8822 164.415L104.325 144.954L104.643 144.769L150.268 118.219L150.587 118.033L196.211 91.4841L196.53 91.298L203.422 87.2879C203.238 87.1874 203.054 87.0911 202.869 86.9934L196.262 90.8376Z" fill="url(#paint4_linear)"/>
<path d="M190.916 81.6492L190.596 81.8352L144.972 108.385L144.653 108.57L99.0283 135.12L98.7098 135.305L63.5841 155.746C63.6913 155.889 63.7998 156.031 63.907 156.174L98.9777 135.766L99.2962 135.58L144.921 109.03L145.24 108.845L190.864 82.2957L191.183 82.1096L192.043 81.6095C191.846 81.5185 191.649 81.4275 191.453 81.3366L190.916 81.6492Z" fill="url(#paint5_linear)"/>
<path d="M204.284 104.622L203.964 104.808L158.34 131.357L158.022 131.543L112.396 158.093L112.078 158.278L99.4016 165.655C99.5969 165.743 99.7869 165.843 99.9809 165.932L112.345 158.737L112.664 158.552L158.289 132.002L158.607 131.817L204.231 105.267L204.551 105.081L218.693 96.8516C218.537 96.7369 218.383 96.6213 218.226 96.5086L204.284 104.622Z" fill="url(#paint6_linear)"/>
<path d="M198.936 95.4324L198.616 95.6185L152.992 122.168L152.674 122.353L107.049 148.903L106.73 149.089L86.0857 161.102C86.3327 161.159 86.5759 161.229 86.8223 161.288L106.998 149.548L107.316 149.362L152.941 122.812L153.26 122.627L198.883 96.0776L199.203 95.8916L208.77 90.3243C208.595 90.2207 208.423 90.1156 208.247 90.014L198.936 95.4324Z" fill="url(#paint7_linear)"/>
<path d="M193.589 86.2441L193.269 86.4302L147.645 112.98L147.327 113.165L101.702 139.715L101.383 139.9L66.9098 159.961C67.026 160.099 67.1396 160.238 67.2557 160.376L101.651 140.361L101.97 140.175L147.595 113.625L147.913 113.44L193.537 86.8906L193.857 86.7045L197.831 84.392C197.64 84.2974 197.451 84.2019 197.261 84.1072L193.589 86.2441Z" fill="url(#paint8_linear)"/>
<path d="M254.732 142.915L233.692 155.159L233.372 155.345L187.748 181.894L187.43 182.079L148.733 204.598C148.867 204.725 149.001 204.853 149.133 204.979L187.697 182.539L188.015 182.353L233.639 155.804L233.959 155.618L254.937 143.41C254.869 143.246 254.8 143.081 254.732 142.915Z" fill="url(#paint9_linear)"/>
<path d="M228.345 145.97L228.025 146.156L182.401 172.706L182.083 172.891L140.777 196.928C140.91 197.056 141.042 197.184 141.175 197.312L182.351 173.352L182.669 173.166L228.293 146.617L228.613 146.431L250.417 133.742C250.335 133.585 250.252 133.428 250.169 133.271L228.345 145.97Z" fill="url(#paint10_linear)"/>
<path d="M222.998 136.782L222.678 136.968L177.054 163.517L176.736 163.702L132.74 189.304C132.877 189.43 133.012 189.557 133.149 189.683L177.004 164.163L177.322 163.977L222.946 137.428L223.266 137.242L245.006 124.591C244.909 124.442 244.814 124.292 244.715 124.144L222.998 136.782Z" fill="url(#paint11_linear)"/>
<path d="M217.651 127.593L217.331 127.779L171.707 154.328L171.389 154.514L125.764 181.064L125.445 181.249L124.326 181.9C124.47 182.022 124.615 182.143 124.759 182.265L125.713 181.71L126.032 181.524L171.657 154.974L171.975 154.789L217.599 128.239L217.919 128.053L238.706 115.957C238.593 115.817 238.483 115.676 238.369 115.537L217.651 127.593Z" fill="url(#paint12_linear)"/>
<path d="M212.304 118.405L211.984 118.591L166.36 145.141L166.042 145.326L120.417 171.876L120.098 172.061L115.238 174.89C115.396 175.002 115.551 175.118 115.709 175.23L120.366 172.521L120.684 172.335L166.309 145.785L166.628 145.6L212.251 119.05L212.571 118.864L231.475 107.864C231.346 107.733 231.213 107.605 231.084 107.477L212.304 118.405Z" fill="url(#paint13_linear)"/>
<path d="M231.018 150.564L230.698 150.75L185.075 177.3L184.756 177.485L144.747 200.767C144.88 200.895 145.013 201.023 145.145 201.152L185.024 177.946L185.342 177.76L230.966 151.211L231.286 151.025L252.79 138.511C252.715 138.35 252.638 138.189 252.563 138.027L231.018 150.564Z" fill="url(#paint14_linear)"/>
<path d="M225.671 141.376L225.352 141.562L179.728 168.111L179.409 168.297L136.787 193.099C136.921 193.227 137.056 193.352 137.191 193.481L179.677 168.757L179.996 168.572L225.62 142.022L225.939 141.836L247.823 129.102C247.733 128.949 247.644 128.795 247.553 128.643L225.671 141.376Z" fill="url(#paint15_linear)"/>
<path d="M220.324 132.188L220.005 132.374L174.381 158.923L174.062 159.108L128.6 185.564C128.74 185.688 128.882 185.809 129.024 185.934L174.33 159.569L174.649 159.384L220.273 132.834L220.592 132.648L241.969 120.209C241.864 120.064 241.762 119.918 241.655 119.775L220.324 132.188Z" fill="url(#paint16_linear)"/>
<path d="M214.977 122.999L214.658 123.185L169.034 149.735L168.715 149.92L123.09 176.47L122.772 176.655L119.884 178.336C120.034 178.454 120.189 178.567 120.341 178.686L123.04 177.116L123.358 176.93L168.983 150.38L169.302 150.195L214.925 123.646L215.245 123.46L235.212 111.841C235.091 111.706 234.969 111.571 234.847 111.437L214.977 122.999Z" fill="url(#paint17_linear)"/>
<path d="M209.63 113.81L209.311 113.996L163.687 140.546L163.368 140.731L117.743 167.281L117.425 167.467L110.315 171.604C110.485 171.711 110.652 171.817 110.821 171.924L117.692 167.926L118.01 167.74L163.636 141.19L163.954 141.005L209.578 114.456L209.898 114.27L227.485 104.035C227.348 103.91 227.209 103.786 227.07 103.662L209.63 113.81Z" fill="url(#paint18_linear)"/>
<path d="M255.08 191.914L254.76 192.1L209.137 218.649L208.818 218.834L185.803 232.227C186.001 232.317 186.198 232.408 186.396 232.497L209.084 219.294L209.403 219.109L255.026 192.56L255.346 192.374L262.486 188.219C262.503 188.005 262.514 187.791 262.531 187.578L255.08 191.914Z" fill="url(#paint19_linear)"/>
<path d="M249.733 182.725L249.414 182.911L203.79 209.46L203.471 209.646L174.97 226.231C175.136 226.338 175.299 226.453 175.466 226.557L203.738 210.105L204.057 209.92L249.681 183.37L250.001 183.184L262.567 175.872C262.554 175.676 262.537 175.478 262.522 175.283L249.733 182.725Z" fill="url(#paint20_linear)"/>
<path d="M244.386 173.537L244.067 173.723L198.443 200.272L198.124 200.458L165.509 219.437C165.659 219.556 165.807 219.675 165.957 219.791L198.39 200.918L198.709 200.732L244.333 174.183L244.652 173.997L261.121 164.414C261.087 164.228 261.057 164.042 261.023 163.856L244.386 173.537Z" fill="url(#paint21_linear)"/>
<path d="M239.039 164.347L238.719 164.533L193.095 191.082L192.777 191.268L156.88 212.157C157.019 212.281 157.158 212.406 157.297 212.529L193.044 191.727L193.362 191.541L238.986 164.992L239.306 164.806L258.533 153.617C258.481 153.442 258.426 153.271 258.374 153.096L239.039 164.347Z" fill="url(#paint22_linear)"/>
<path d="M257.754 196.508L257.434 196.694L211.81 223.244L211.491 223.429L192.016 234.762C192.236 234.841 192.459 234.914 192.678 234.991L211.759 223.888L212.077 223.703L257.701 197.153L258.021 196.967L261.624 194.871C261.664 194.643 261.703 194.415 261.742 194.188L257.754 196.508Z" fill="url(#paint23_linear)"/>
<path d="M252.407 187.32L252.087 187.506L206.463 214.055L206.145 214.241L180.151 229.367C180.333 229.467 180.516 229.564 180.697 229.664L206.411 214.701L206.729 214.515L252.353 187.966L252.673 187.78L262.75 181.916C262.752 181.709 262.756 181.503 262.755 181.298L252.407 187.32Z" fill="url(#paint24_linear)"/>
<path d="M247.06 178.131L246.74 178.317L201.116 204.866L200.798 205.052L170.108 222.911C170.266 223.024 170.426 223.134 170.585 223.248L201.065 205.511L201.383 205.325L247.007 178.776L247.327 178.59L262 170.052C261.974 169.861 261.952 169.67 261.927 169.479L247.06 178.131Z" fill="url(#paint25_linear)"/>
<path d="M241.713 168.943L241.393 169.129L195.769 195.678L195.451 195.864L161.107 215.849C161.251 215.971 161.398 216.089 161.543 216.21L195.718 196.323L196.036 196.137L241.66 169.588L241.98 169.402L259.963 158.937C259.92 158.757 259.875 158.58 259.83 158.4L241.713 168.943Z" fill="url(#paint26_linear)"/>
<path d="M236.366 159.754L236.046 159.94L190.422 186.49L190.104 186.675L152.763 208.404C152.9 208.53 153.035 208.657 153.172 208.783L190.373 187.135L190.692 186.949L236.315 160.4L236.635 160.214L256.856 148.447C256.797 148.276 256.734 148.107 256.673 147.937L236.366 159.754Z" fill="url(#paint27_linear)"/>
<path d="M260.173 201.25L260.107 201.288L214.484 227.838L214.165 228.023L198.968 236.867C199.218 236.928 199.47 236.985 199.722 237.044L214.433 228.484L214.751 228.298L259.96 201.991C260.032 201.744 260.103 201.498 260.173 201.25Z" fill="url(#paint28_linear)"/>
<path d="M219.512 237.211L217.063 238.637C217.469 238.611 217.874 238.581 218.28 238.545L219.78 237.672L220.098 237.487L251.688 219.104C251.936 218.758 252.185 218.411 252.425 218.059L219.831 237.026L219.512 237.211Z" fill="url(#paint29_linear)"/>
<path d="M216.839 232.619L207.012 238.337C207.306 238.371 207.599 238.41 207.892 238.44L217.106 233.078L217.425 232.892L257.056 209.83C257.18 209.558 257.295 209.28 257.415 209.007L217.158 232.433L216.839 232.619Z" fill="url(#paint30_linear)"/>
<path d="M86.3823 50.2283L68.4696 60.652C67.7882 61.2317 67.117 61.826 66.4614 62.4352L88.8174 49.4259C87.9996 49.6741 87.1876 49.9411 86.3823 50.2283Z" fill="url(#paint31_linear)"/>
<path d="M61.5464 71.4453L61.8649 71.26L103.058 47.2888C102.703 47.2881 102.348 47.2862 101.994 47.2933L61.599 70.8001L61.2805 70.9854L57.249 73.3314C57.0319 73.6615 56.8133 73.989 56.603 74.322L61.5464 71.4453Z" fill="url(#paint32_linear)"/>
<path d="M88.2817 117.389L88.6002 117.203L134.225 90.6532L134.544 90.4678L167.71 71.1678C167.504 71.082 167.3 70.9956 167.095 70.9091L134.277 90.0066L133.959 90.192L88.3335 116.742L88.0151 116.927L53.1068 137.241C53.1744 137.407 53.2445 137.572 53.3134 137.737L88.2817 117.389Z" fill="url(#paint33_linear)"/>
<path d="M82.9349 108.2L83.2533 108.015L128.878 81.4649L129.197 81.2796L155.547 65.9459C155.348 65.8564 155.149 65.7669 154.949 65.6774L128.93 80.8184L128.612 81.0037L82.9867 107.554L82.6682 107.739L49.7207 126.912C49.7665 127.091 49.8175 127.267 49.8633 127.445L82.9349 108.2Z" fill="url(#paint34_linear)"/>
<path d="M77.5879 99.0115L77.9064 98.8262L123.532 72.2761L123.85 72.0907L143.878 60.436C143.687 60.3421 143.496 60.2474 143.305 60.1547L123.584 71.6308L123.266 71.8162L77.6404 98.3662L77.322 98.5516L47.7395 115.766C47.7598 115.96 47.7755 116.154 47.797 116.347L77.5879 99.0115Z" fill="url(#paint35_linear)"/>
<path d="M72.2411 89.8234L72.5596 89.6381L118.185 63.088L118.503 62.9027L132.285 54.883C132.087 54.7928 131.889 54.7026 131.691 54.6136L118.236 62.4435L117.917 62.6288L72.2924 89.1789L71.9739 89.3642L47.4794 103.618C47.4656 103.83 47.4526 104.043 47.4409 104.255L72.2411 89.8234Z" fill="url(#paint36_linear)"/>
<path d="M66.8932 80.6336L67.2117 80.4482L112.837 53.8981L113.155 53.7128L119.581 49.9735C119.348 49.9021 119.113 49.8368 118.878 49.7682L112.888 53.2536L112.57 53.439L66.9445 79.9891L66.626 80.1744L49.7494 89.9952C49.6812 90.2369 49.619 90.4803 49.5536 90.7238L66.8932 80.6336Z" fill="url(#paint37_linear)"/>
<path d="M85.6083 112.795L85.9268 112.609L131.552 86.0591L131.87 85.8738L161.585 68.5826C161.381 68.4953 161.177 68.4088 160.975 68.3208L131.604 85.4126L131.285 85.5979L85.6601 112.148L85.3416 112.333L51.2558 132.169C51.3118 132.341 51.3659 132.514 51.4239 132.687L85.6083 112.795Z" fill="url(#paint38_linear)"/>
<path d="M80.2616 103.606L80.5801 103.42L126.205 76.8703L126.524 76.685L149.642 63.232C149.448 63.1396 149.255 63.0464 149.062 62.9532L126.257 76.2238L125.939 76.4091L80.3134 102.959L79.995 103.145L48.5439 121.446C48.5782 121.632 48.6118 121.816 48.6468 122.003L80.2616 103.606Z" fill="url(#paint39_linear)"/>
<path d="M74.9145 94.4174L75.233 94.232L120.858 67.6819L121.177 67.4966L138.136 57.6274C137.943 57.5342 137.751 57.441 137.558 57.3491L120.911 67.0367L120.592 67.222L74.9671 93.7721L74.6486 93.9575L47.3594 109.837C47.3643 110.04 47.3672 110.242 47.3734 110.444L74.9145 94.4174Z" fill="url(#paint40_linear)"/>
<path d="M69.5677 85.2291L69.8862 85.0438L115.511 58.4937L115.83 58.3083L126.174 52.2886C125.964 52.2058 125.755 52.1202 125.545 52.04L115.563 57.8492L115.244 58.0345L69.619 84.5846L69.3005 84.7699L48.2159 97.0394C48.1798 97.2659 48.1372 97.4927 48.1019 97.7204L69.5677 85.2291Z" fill="url(#paint41_linear)"/>
<path d="M64.2204 76.0407L64.5389 75.8553L110.164 49.3052L110.483 49.1199L112.156 48.1464C111.884 48.0973 111.612 48.0503 111.341 48.0058L110.215 48.6607L109.897 48.8461L64.2717 75.3962L63.9532 75.5815L52.4459 82.2778C52.3311 82.5484 52.2163 82.8189 52.1056 83.0905L64.2204 76.0407Z" fill="url(#paint42_linear)"/>
<path d="M95.8754 174.471L95.5532 174.044L87.567 178.691C87.728 178.803 87.8907 178.912 88.0529 179.023L95.8754 174.471Z" fill="url(#paint43_linear)"/>
<path d="M89.4144 165.931L89.0909 165.505L78.4994 171.668C78.6411 171.791 78.7816 171.915 78.9239 172.036L89.4144 165.931Z" fill="url(#paint44_linear)"/>
<path d="M93.6288 126.577L93.9473 126.391L139.572 99.8413L139.891 99.6559L180.014 76.3077C179.809 76.2212 179.606 76.134 179.402 76.0475L139.624 99.1947L139.306 99.3801L93.6806 125.93L93.3622 126.115L57.7556 146.836C57.8436 146.99 57.9342 147.143 58.0235 147.296L93.6288 126.577Z" fill="url(#paint45_linear)"/>
<path d="M92.6456 170.201L92.3221 169.774L82.8983 175.258C83.0503 175.375 83.2015 175.491 83.3535 175.608L92.6456 170.201Z" fill="url(#paint46_linear)"/>
<path d="M74.7693 168.304L86.182 161.662L85.8598 161.235L74.364 167.925C74.4973 168.051 74.6353 168.176 74.7693 168.304Z" fill="url(#paint47_linear)"/>
<path d="M96.303 131.173L96.6215 130.987L142.247 104.437L142.565 104.252L186.089 78.9247C185.888 78.836 185.686 78.748 185.485 78.66L142.298 103.791L141.98 103.976L96.3549 130.526L96.0364 130.711L60.5321 151.372C60.6291 151.521 60.7235 151.672 60.8218 151.82L96.303 131.173Z" fill="url(#paint48_linear)"/>
<path d="M55.5117 142.61L90.9572 121.984L91.2756 121.798L136.901 95.2481L137.219 95.0628L173.873 73.7331C173.668 73.6473 173.462 73.5616 173.256 73.4758L136.951 94.6023L136.633 94.7877L91.0077 121.338L90.6892 121.523L55.2796 142.129C55.3574 142.289 55.4326 142.45 55.5117 142.61Z" fill="url(#paint49_linear)"/>
<path d="M102.338 183.011L102.014 182.584L97.7667 185.056C97.9468 185.157 98.1257 185.258 98.3064 185.357L102.338 183.011Z" fill="url(#paint50_linear)"/>
<path d="M105.568 187.281L105.243 186.854L103.317 187.975C103.508 188.069 103.697 188.165 103.887 188.259L105.568 187.281Z" fill="url(#paint51_linear)"/>
<path d="M92.521 181.959C92.6909 182.066 92.8613 182.17 93.0325 182.276L99.1066 178.741L98.7831 178.315L92.521 181.959Z" fill="url(#paint52_linear)"/>
<g filter="url(#filter2_d)">
<path d="M56.2878 146.641C60.8466 147.48 64.8882 150.767 66.6473 155.061C70.3885 164.197 63.827 174.547 65.5557 184.26C66.1079 187.366 67.4924 190.611 66.3269 193.536C64.9576 196.967 60.453 198.232 56.9151 197.146C53.377 196.062 50.6475 193.267 48.2398 190.451C43.6296 185.062 39.4916 179.014 37.8609 172.117C35.1178 160.528 41.9905 144.005 56.2878 146.641Z" fill="url(#paint53_linear)"/>
</g>
<g filter="url(#filter3_d)">
<path d="M65.8086 75.2177C63.5336 72.0378 63.691 67.2752 66.3289 64.3572C68.9673 61.4402 73.8869 60.8408 77.0065 63.2042C78.7773 64.5455 79.9138 66.8719 79.37 69.0305C78.9121 70.8492 77.4779 72.065 76.1634 73.2927C75.01 74.3691 74.376 75.5698 73.4198 76.774C71.2481 79.5092 67.4826 77.5572 65.8086 75.2177Z" fill="url(#paint54_linear)"/>
</g>
<g filter="url(#filter4_d)">
<path d="M57.9879 204.581C58.7564 203.858 59.92 203.549 60.9027 203.904C62.103 204.339 62.8341 205.749 62.5729 207.011C62.3101 208.273 61.1336 209.269 59.8585 209.382C56.8386 209.65 55.9247 206.526 57.9879 204.581Z" fill="url(#paint55_linear)"/>
</g>
<g filter="url(#filter5_d)">
<path d="M87.57 221.367C91.562 217.611 97.6065 216.006 102.711 217.853C108.946 220.109 112.743 227.434 111.387 233.989C110.022 240.548 103.91 245.72 97.2869 246.306C81.6002 247.701 76.8533 231.47 87.57 221.367Z" fill="url(#paint56_linear)"/>
</g>
<g filter="url(#filter6_d)">
<path d="M32.6386 117.457C35.0064 115.229 38.5917 114.277 41.6192 115.373C45.3172 116.711 47.5698 121.056 46.7651 124.944C45.9555 128.834 42.3304 131.902 38.4021 132.249C29.0978 133.076 26.2822 123.449 32.6386 117.457Z" fill="url(#paint57_linear)"/>
</g>
<g filter="url(#filter7_d)">
<path d="M74.3322 82.5311C74.0472 83.0451 71.4034 84.9282 70.8218 84.9063C70.1113 84.8795 69.5852 83.3112 69.5096 82.5973C69.4348 81.8829 69.8901 81.1549 70.5474 80.8788C72.1041 80.2239 75.0968 81.1492 74.3322 82.5311Z" fill="url(#paint58_linear)"/>
</g>
<g filter="url(#filter8_d)">
<path d="M247.123 155.641C247.892 154.918 249.055 154.609 250.038 154.965C251.238 155.399 251.969 156.809 251.708 158.071C251.445 159.334 250.269 160.33 248.994 160.442C245.974 160.711 245.06 157.586 247.123 155.641Z" fill="url(#paint59_linear)"/>
</g>
<g filter="url(#filter9_d)">
<path d="M247.476 163.841C244.696 164.255 242.316 166.166 239.524 166.496C236.425 166.862 232.958 165.285 230.315 166.912C228.362 168.116 227.704 170.792 228.364 172.994C229.023 175.197 230.746 176.953 232.663 178.248C236.653 180.941 241.848 181.947 246.424 180.534C250.745 179.198 254.637 175.349 255.711 170.903C256.742 166.64 251.363 163.261 247.476 163.841Z" fill="url(#paint60_linear)"/>
</g>
<g filter="url(#filter10_d)">
<path d="M69.7558 148.755C71.0891 147.872 73.1323 148.416 73.8801 149.829C74.6289 151.243 73.9567 153.21 72.5159 153.902C71.074 154.593 69.1422 153.918 68.414 152.493C67.6858 151.068 68.2467 149.136 69.6051 148.292" fill="url(#paint61_linear)"/>
</g>
<path d="M248.075 89.9154C215.061 89.3564 101.185 87.5992 60.849 89.1874C56.5767 89.3564 53.1722 92.8122 53.0662 97.0936C52.5403 118.262 51.2677 179.158 52.9904 213.762C53.3497 220.971 59.2279 226.658 66.4371 226.749C101.087 227.195 198.545 228.012 243.155 223.887C248.501 223.393 252.726 219.157 253.219 213.805C255.34 190.739 260.489 129.479 258.314 99.5896C257.92 94.1989 253.475 90.0064 248.075 89.9154Z" fill="url(#paint62_linear)"/>
<path d="M237.888 98.5954C210.845 97.6529 120.886 94.717 87.6406 96.1362C82.7818 96.3442 78.8818 100.21 78.635 105.074C77.6222 125.096 75.4471 176.446 78.0269 205.783C78.4922 211.065 82.7948 215.179 88.0843 215.422C115.675 216.692 199.448 220.301 232.321 218.932C237.565 218.713 241.818 214.612 242.244 209.375C244.015 187.708 248.198 132.066 246.642 107.134C246.35 102.454 242.569 98.76 237.888 98.5954Z" fill="url(#paint63_linear)"/>
<path opacity="0.65" d="M65.8117 167.227C63.4461 167.227 61.2169 166.312 59.5288 164.651C57.8233 162.969 56.8732 160.725 56.8559 158.33C56.8364 155.934 57.7519 153.674 59.4292 151.967C61.1087 150.26 63.3509 149.308 65.7425 149.291C65.7663 149.291 65.7901 149.291 65.8139 149.291C70.7203 149.291 74.7329 153.267 74.7719 158.19C74.7913 160.586 73.8758 162.846 72.1985 164.553C70.519 166.26 68.2768 167.212 65.8853 167.229C65.8593 167.227 65.8355 167.227 65.8117 167.227ZM65.816 149.876C65.7944 149.876 65.7706 149.876 65.7489 149.876C63.5132 149.893 61.4182 150.782 59.8491 152.379C58.28 153.973 57.4251 156.086 57.4446 158.324C57.4619 160.562 58.3493 162.659 59.9443 164.23C61.5221 165.784 63.6041 166.64 65.816 166.64C65.8398 166.64 65.8615 166.64 65.8831 166.64C70.4996 166.603 74.2243 162.813 74.1897 158.192C74.1507 153.594 70.4 149.876 65.816 149.876Z" fill="white"/>
<path opacity="0.5" d="M252.88 142.184C251.867 142.193 251.038 142.988 250.992 144.002C250.769 149.003 250.142 163.09 249.826 169.387C249.763 170.628 250.886 171.592 252.103 171.347L252.31 171.306C253.141 171.139 253.763 170.444 253.832 169.599C254.187 165.341 255.167 152.497 254.795 143.995C254.754 142.973 253.901 142.175 252.88 142.184Z" fill="white"/>
<g opacity="0.86">
<path opacity="0.86" d="M93.7504 108.865L92.6444 108.876C92.3458 108.878 92.1012 108.638 92.099 108.339L92.0839 106.82C92.0817 106.521 92.322 106.276 92.6206 106.274L97.7694 106.224C98.0681 106.222 98.3127 106.462 98.3148 106.761L98.33 108.28C98.3322 108.579 98.0919 108.824 97.7933 108.826L96.6635 108.837C96.3648 108.839 96.1246 109.084 96.1268 109.383L96.222 119.406C96.2241 119.705 95.9839 119.95 95.6852 119.952L94.9386 119.959C94.6399 119.961 94.3953 119.72 94.3932 119.421L94.2979 109.398C94.2936 109.104 94.049 108.863 93.7504 108.865Z" fill="white"/>
<path opacity="0.86" d="M100.57 106.196C100.869 106.194 101.113 106.434 101.116 106.733L101.185 114.063C101.206 116.442 101.761 117.638 102.687 117.629C103.65 117.621 104.167 116.477 104.143 114.035L104.074 106.705C104.072 106.406 104.312 106.161 104.611 106.159L105.358 106.152C105.656 106.15 105.901 106.391 105.903 106.69L105.97 113.838C106.011 118.069 104.767 120.095 102.65 120.114C100.605 120.134 99.395 118.212 99.3538 113.859L99.2868 106.753C99.2846 106.454 99.5248 106.209 99.8235 106.207L100.57 106.196Z" fill="white"/>
<path opacity="0.86" d="M108.548 108.724L107.442 108.735C107.143 108.737 106.898 108.497 106.896 108.198L106.881 106.679C106.879 106.38 107.119 106.135 107.418 106.133L112.567 106.083C112.865 106.081 113.11 106.321 113.112 106.62L113.127 108.139C113.129 108.438 112.889 108.683 112.59 108.685L111.461 108.696C111.162 108.698 110.922 108.943 110.924 109.242L111.019 119.265C111.021 119.564 110.781 119.809 110.482 119.811L109.736 119.818C109.437 119.82 109.193 119.579 109.19 119.28L109.095 109.257C109.091 108.96 108.846 108.72 108.548 108.724Z" fill="white"/>
<path opacity="0.86" d="M121.215 112.711C121.258 117.226 119.685 119.948 117.302 119.969C114.908 119.993 113.46 116.934 113.422 113.008C113.383 108.9 114.917 105.812 117.298 105.791C119.791 105.769 121.18 108.908 121.215 112.711ZM115.361 112.93C115.387 115.636 116.151 117.519 117.378 117.508C118.616 117.497 119.308 115.495 119.282 112.832C119.259 110.351 118.553 108.241 117.289 108.254C116.036 108.265 115.335 110.265 115.361 112.93Z" fill="white"/>
<path opacity="0.86" d="M122.36 106.601C122.358 106.345 122.531 106.12 122.782 106.068C123.33 105.953 124.027 105.871 124.795 105.864C125.998 105.853 126.842 106.15 127.427 106.917C127.927 107.563 128.199 108.538 128.212 109.799C128.23 111.528 127.507 112.735 126.812 113.168V113.229C127.381 113.61 127.701 114.503 127.918 115.761C128.117 116.921 128.31 118.203 128.461 119.005C128.524 119.336 128.273 119.644 127.935 119.646L127.154 119.653C126.899 119.655 126.676 119.482 126.622 119.23C126.498 118.673 126.329 117.737 126.145 116.468C125.901 114.741 125.548 114.297 124.788 114.284C124.49 114.286 124.249 114.531 124.252 114.83L124.293 119.137C124.295 119.436 124.055 119.681 123.756 119.683L123.022 119.69C122.724 119.692 122.479 119.451 122.477 119.152L122.36 106.601ZM124.223 111.51C124.226 111.809 124.47 112.05 124.769 112.048L124.949 112.046C125.862 112.037 126.396 111.259 126.386 110.059C126.375 108.817 125.862 108.172 125.02 108.18C124.903 108.182 124.797 108.185 124.706 108.191C124.418 108.211 124.193 108.447 124.195 108.737L124.223 111.51Z" fill="white"/>
<path opacity="0.86" d="M131.333 106.445L131.454 119.07C131.457 119.369 131.216 119.614 130.918 119.616L130.171 119.623C129.872 119.625 129.628 119.384 129.626 119.085L129.504 106.46C129.502 106.161 129.742 105.916 130.041 105.914L130.788 105.908C131.087 105.906 131.331 106.146 131.333 106.445Z" fill="white"/>
<path opacity="0.86" d="M134.833 116.516L134.43 119.131C134.389 119.393 134.166 119.588 133.9 119.59L133.119 119.597C132.781 119.599 132.524 119.298 132.58 118.964L134.731 106.317C134.774 106.06 134.997 105.869 135.259 105.867L136.761 105.852C137.023 105.849 137.248 106.034 137.298 106.289L139.744 118.893C139.809 119.224 139.555 119.534 139.218 119.538L138.337 119.547C138.075 119.549 137.848 119.363 137.8 119.105L137.309 116.486C137.261 116.228 137.034 116.041 136.772 116.044L135.363 116.057C135.097 116.059 134.874 116.252 134.833 116.516ZM136.294 113.727C136.629 113.725 136.882 113.418 136.822 113.088L136.404 110.818C136.253 110.005 136.099 108.989 135.969 108.176H135.945C135.833 108.991 135.722 110.029 135.597 110.824L135.242 113.106C135.19 113.437 135.448 113.734 135.783 113.732L136.294 113.727Z" fill="white"/>
<path opacity="0.86" d="M141.36 105.806L142.107 105.799C142.406 105.797 142.65 106.038 142.652 106.337L142.748 116.36C142.75 116.659 142.994 116.899 143.293 116.897L145.434 116.877C145.732 116.875 145.977 117.116 145.979 117.415L145.994 118.934C145.996 119.233 145.756 119.477 145.457 119.48L141.488 119.519C141.189 119.521 140.945 119.28 140.943 118.981L140.821 106.356C140.821 106.055 141.062 105.81 141.36 105.806Z" fill="white"/>
</g>
<path d="M74.7912 162.312C74.6938 162.126 74.4167 162.154 74.3605 162.358C74.1505 163.112 73.6441 164.429 72.5814 164.895C72.5273 164.919 72.4775 164.943 72.4278 164.966C72.3801 164.821 72.378 164.654 72.4949 164.477C72.826 163.972 72.2287 163.281 72.2287 163.281C72.2287 163.281 72.1897 163.89 71.7265 164.273C71.3283 164.602 71.1379 165.337 71.4106 165.939C71.9863 168.177 72.8476 171.137 69.4908 173.297C66.134 175.46 61.4072 169.217 61.4072 169.217L63.7533 176.662C63.7533 176.662 67.3742 179.338 71.5859 175.577C75.7976 171.815 73.0056 166.342 73.0056 166.342C73.0056 166.342 76.2174 165.044 74.7912 162.312Z" fill="url(#paint64_linear)"/>
<path d="M60.8186 158.278C60.8186 158.278 61.7904 153.912 56.7952 155.067C56.7952 155.067 54.3691 154.671 54.2457 156.963C54.2457 156.963 52.6831 157.994 53.828 159.977C53.828 159.977 49.1813 158.181 47.1577 162.256C45.1341 166.334 46.9932 168.576 48.9454 169.161C48.9454 169.161 47.3654 169.956 48.1121 171.748C48.861 173.542 52.6485 174.805 54.8863 172.626C54.8863 172.626 61.2537 173.469 61.126 168.966C61.126 168.966 64.0867 167.051 60.9766 163.331C57.8666 159.608 60.8186 158.278 60.8186 158.278Z" fill="url(#paint65_linear)"/>
<path d="M61.0934 168.398C60.0892 168.097 57.1652 167.54 54.3863 170.11C53.9145 170.546 53.7219 171.209 53.8907 171.828C54.6374 174.58 56.609 182.714 54.8798 186.232C54.8798 186.232 57.9249 189.593 61.2471 186.884C61.2471 186.884 62.7383 180.382 64.6905 177.527C66.0388 175.555 62.5413 170.125 61.6561 168.814C61.5198 168.615 61.3228 168.468 61.0934 168.398Z" fill="url(#paint66_linear)"/>
<path d="M58.321 162.93C58.321 162.93 56.8363 167.135 56.7238 168.99C56.7238 168.99 58.3643 169.737 59.9118 168.476C59.9118 168.476 60.0741 164.277 60.3078 163.526L58.321 162.93Z" fill="url(#paint67_linear)"/>
<path d="M60.3836 157.197C60.3836 157.197 64.2664 162.637 61.9462 164.219C59.624 165.798 56.8602 161.933 56.8602 161.933C56.8602 161.933 55.9598 158.956 56.9013 157.944C57.8428 156.934 60.3836 157.197 60.3836 157.197Z" fill="url(#paint68_linear)"/>
<path d="M58.5851 155.897C58.5851 155.897 60.3685 156.319 60.6195 157.127C60.8706 157.936 58.0895 158.685 57.3104 158.722L56.6827 161.983C56.6827 161.983 54.8279 158.915 55.5616 157.143C56.2975 155.372 58.5851 155.897 58.5851 155.897Z" fill="url(#paint69_linear)"/>
<path d="M57.6112 161.532C57.6112 161.532 56.1005 159.78 55.4988 160.921C54.8972 162.063 56.8602 162.921 57.5376 162.36L57.6112 161.532Z" fill="url(#paint70_linear)"/>
<path d="M65.1233 200.537C65.1125 200.831 65.6298 203.173 65.9111 204.421C66.0237 204.924 65.9458 205.451 65.6904 205.897L55.9316 222.338C55.8126 222.537 55.7282 222.751 55.6762 222.977C55.4966 223.748 55.1265 225.64 55.3191 227.36L55.8234 228.409L53.6396 227.912L53.1656 222.043L53.7846 221.666C54.3192 221.341 54.7348 220.853 54.9728 220.275C55.8559 218.13 58.0461 212.668 58.611 210.005C59.2538 206.98 62.6084 204.523 62.6084 204.523L62.0197 203.128L65.1233 200.537Z" fill="url(#paint71_linear)"/>
<path d="M51.2135 225.895C51.2135 225.895 52.393 224.023 52.5316 223.295C52.6701 222.567 53.0575 221.28 53.7825 221.668C53.7825 221.668 54.1245 225.206 54.0076 226.588C53.8886 227.971 55.568 227.927 55.568 227.927C55.568 227.927 56.0312 227.992 56.3688 228.333C56.6026 228.567 56.4359 228.974 56.1048 228.996C55.5551 229.03 54.6829 229.041 53.7652 228.863C53.4449 228.801 53.2068 228.528 53.1873 228.203L52.9449 224.131L51.4581 226.012L51.2135 225.895Z" fill="url(#paint72_linear)"/>
<path d="M59.2927 203.156C59.2927 203.156 58.9486 217.864 58.901 219.952C58.8534 222.041 59.2299 226.669 61.3228 228.053L60.4116 228.727C60.4116 228.727 59.2732 227.759 58.1629 225.898C56.9142 223.805 56.5376 223.423 56.5376 223.423L56.951 222.574C57.1328 222.201 57.1847 221.781 57.1024 221.376C56.6501 219.185 55.1438 211.901 54.7326 210.332C54.2478 208.48 54.2131 206.008 55.9013 203.938C57.5916 201.867 59.2927 203.156 59.2927 203.156Z" fill="url(#paint73_linear)"/>
<path d="M57.3623 229.388C57.2973 229.388 57.2432 229.343 57.2324 229.278C57.1632 228.788 56.8731 226.821 56.6351 226.314C56.3624 225.731 55.4772 223.278 56.6351 223.068C56.6351 223.068 59.5179 227.284 60.0698 227.852C60.6238 228.42 61.3207 228.051 61.3207 228.051C61.3207 228.051 61.8597 228.212 62.2665 228.732C62.4592 228.979 62.2795 229.343 61.9657 229.345L60.0243 229.364C59.4616 229.369 58.953 229.026 58.7431 228.502C58.4011 227.648 57.8146 226.394 57.1307 225.839L57.4856 229.247C57.4964 229.321 57.438 229.388 57.3623 229.388Z" fill="url(#paint74_linear)"/>
<path d="M61.7039 185.299C61.7039 185.299 61.2667 186.694 61.9377 188.993L66.1061 203.568C66.171 203.798 66.0477 204.036 65.8247 204.116C64.5781 204.565 60.4789 205.83 54.8821 205.444C54.6008 205.425 54.3648 205.225 54.3021 204.948C53.9342 203.286 52.6745 197.618 52.417 196.453C51.4301 192.013 50.3285 187.227 55.1765 184.334C57.4122 185.294 59.4964 185.858 61.7039 185.299Z" fill="url(#paint75_linear)"/>
<path d="M53.9883 170.661C53.9883 170.661 49.2442 174.606 48.0668 179.999C46.8894 185.392 54.999 185.964 54.999 185.964C54.999 185.964 56.1006 184.733 57.4057 185.173C58.7129 185.613 57.5074 183.026 55.9772 183.032C54.4493 183.039 55.157 184.25 52.9927 183.268C50.8847 182.313 49.5839 179.357 54.96 174.879C55.2717 174.619 55.5206 174.288 55.6699 173.911C56.7153 171.278 55.8863 169.553 53.9883 170.661Z" fill="url(#paint76_linear)"/>
<path d="M84.3942 147.178C92.3847 139.864 114.993 123.05 145.358 133.179L171.414 206.831C171.414 206.831 139.101 212.109 118.67 232.463C117.159 233.968 114.612 233.466 113.818 231.485L82.8034 154.194C81.823 151.75 82.4528 148.955 84.3942 147.178Z" fill="url(#paint77_linear)"/>
<path d="M205.176 112.531C195.913 110.18 166.67 105.55 145.358 133.18L171.414 206.831C171.414 206.831 206.092 187.476 229.352 188.438C230.613 188.49 231.542 187.275 231.159 186.072L208.975 116.111C208.414 114.336 206.977 112.986 205.176 112.531Z" fill="url(#paint78_linear)"/>
<path opacity="0.5" d="M148.468 133.695C154.303 126.474 161.194 121.109 168.964 117.736C175.331 114.971 182.283 113.534 189.624 113.465C195.998 113.404 201.231 114.379 204.499 115.209C205.382 115.432 206.073 116.082 206.345 116.945L228.129 185.643C227.817 185.641 227.503 185.639 227.189 185.643C207.367 185.832 181.532 198.401 172.944 202.879L148.468 133.695Z" fill="white"/>
<path d="M96.2825 156.346C95.8345 156.35 95.3887 156.157 95.0857 155.78C94.5598 155.126 94.6615 154.17 95.3151 153.644C95.4926 153.501 99.7627 150.084 107.206 146.724C114.058 143.632 125.009 140.02 138.278 140.356C139.116 140.377 139.778 141.075 139.757 141.914C139.735 142.735 139.068 143.387 138.254 143.393C138.237 143.393 138.218 143.393 138.2 143.393C113.902 142.765 97.3863 155.876 97.2218 156.008C96.9448 156.231 96.6137 156.341 96.2825 156.346Z" fill="white"/>
<path d="M102.568 169.506C102.122 169.51 101.678 169.32 101.375 168.947C100.845 168.297 100.942 167.342 101.592 166.811C101.78 166.657 106.282 163.006 113.82 159.357C120.778 155.99 131.734 152.008 144.425 152.166C145.263 152.177 145.934 152.866 145.925 153.705C145.914 154.543 145.213 155.213 144.388 155.206C143.975 155.202 143.561 155.2 143.15 155.204C120.631 155.418 103.682 169.027 103.511 169.166C103.234 169.391 102.901 169.504 102.568 169.506Z" fill="white"/>
<path d="M107.015 180.844C106.569 180.848 106.128 180.658 105.825 180.285C105.295 179.635 105.392 178.677 106.041 178.146C106.23 177.993 110.731 174.342 118.27 170.693C125.228 167.326 136.181 163.348 148.875 163.502C149.712 163.513 150.383 164.202 150.372 165.04C150.362 165.879 149.669 166.54 148.836 166.54C125.658 166.251 108.134 180.356 107.959 180.499C107.682 180.729 107.349 180.842 107.015 180.844Z" fill="white"/>
<path d="M112.194 195.525C111.749 195.53 111.305 195.339 111.002 194.966C110.472 194.316 110.569 193.361 111.218 192.83C111.407 192.676 115.908 189.025 123.447 185.377C130.403 182.01 141.356 178.03 154.052 178.186C154.889 178.196 155.56 178.885 155.552 179.724C155.541 180.562 154.855 181.225 154.015 181.223C153.602 181.219 153.188 181.217 152.777 181.221C130.258 181.436 113.309 195.044 113.138 195.183C112.861 195.408 112.528 195.521 112.194 195.525Z" fill="white"/>
<path d="M117.815 211.13C117.382 211.134 116.949 210.954 116.646 210.597C116.103 209.96 116.177 209 116.813 208.456C116.997 208.298 121.417 204.545 128.872 200.728C135.753 197.205 146.617 192.978 159.307 192.85C160.144 192.841 160.83 193.515 160.839 194.353C160.848 195.192 160.175 195.879 159.337 195.887C136.205 196.121 118.956 210.619 118.785 210.766C118.503 211.009 118.159 211.128 117.815 211.13Z" fill="white"/>
<path d="M179.129 171.092C178.796 171.094 178.456 171.057 178.119 170.975C176.671 170.626 175.565 169.56 175.162 168.123L168.388 143.945C168.161 143.137 168.633 142.299 169.44 142.071C170.247 141.844 171.085 142.316 171.312 143.124L178.086 167.302C178.231 167.822 178.653 167.976 178.829 168.019C179.004 168.06 179.45 168.117 179.815 167.72L199.547 146.333C199.865 145.989 199.761 145.616 199.703 145.473C199.645 145.328 199.456 144.99 198.989 144.968L173.569 143.763C172.732 143.724 172.085 143.012 172.126 142.173C172.165 141.335 172.875 140.693 173.714 140.728L199.134 141.935C200.644 142.006 201.939 142.921 202.514 144.322C203.088 145.724 202.807 147.284 201.781 148.398L182.049 169.785C181.272 170.624 180.227 171.081 179.129 171.092Z" fill="white"/>
<path d="M226.62 226.474C226.62 226.474 226.906 228.001 227.051 229.516C227.109 230.107 226.657 230.625 226.064 230.655C224.049 230.759 219.738 230.963 218.19 230.909C217.957 230.9 217.803 230.664 217.887 230.447C217.959 230.265 218.095 230.118 218.273 230.033L225.363 226.688L226.62 226.474Z" fill="url(#paint79_linear)"/>
<path d="M226.832 225.573L226.633 227.406C226.633 227.406 225.391 227.999 224.534 227.351L225.032 225.306L226.832 225.573Z" fill="url(#paint80_linear)"/>
<path d="M226.341 191.151C226.439 191.628 227.073 215.008 224.675 225.51C224.636 225.681 224.724 225.857 224.887 225.922C225.272 226.075 226.025 226.294 226.923 226.316C227.203 226.322 227.449 226.138 227.527 225.87C228.218 223.432 231.522 211.216 231.856 199.577C232.23 186.571 231.851 199.135 231.851 199.135L231.483 191.101L226.341 191.151Z" fill="url(#paint81_linear)"/>
<path d="M234.821 227.195C234.821 227.195 235.258 227.964 235.693 230.014C235.771 230.385 235.515 230.742 235.141 230.783C234.477 230.855 233.453 230.95 232.63 230.952C232.252 230.952 231.953 230.627 231.996 230.25C232.081 229.501 232.351 228.268 233.217 227.301L234.821 227.195Z" fill="url(#paint82_linear)"/>
<path d="M235.176 224.836L234.695 227.609C234.695 227.609 234.197 227.989 233.204 227.726L233.418 224.745L235.176 224.836Z" fill="url(#paint83_linear)"/>
<path d="M236.23 191.772C238.39 204.09 236.078 222.27 235.273 225.83C235.223 226.049 235.05 226.216 234.829 226.255C234.455 226.32 233.84 226.376 233.232 226.207C233.022 226.149 232.873 225.96 232.862 225.744C232.721 222.873 232.756 205.234 230.786 198.281C230.687 197.928 230.468 197.622 230.168 197.414L226.449 194.821L226.125 190.574L236.23 191.772Z" fill="url(#paint84_linear)"/>
<path d="M222.995 168.52C229.114 168.36 235.881 170.006 235.881 170.006C237.808 180.645 236.418 192.949 236.418 192.949C231.691 194.238 226.328 192.284 226.328 192.284C225.499 187.838 221.705 175.339 221.705 175.339C218.712 174.996 216.24 174.156 214.202 173.033C215.732 171.224 216.44 168.932 216.743 167.578C218.915 168.232 221.108 168.57 222.995 168.52Z" fill="url(#paint85_linear)"/>
<path d="M204.832 159.669C205.428 158.937 206.192 159.273 206.192 159.273C207.129 163.073 211.879 166.115 216.745 167.577C216.442 168.932 215.734 171.222 214.204 173.033C206.109 168.578 204.832 159.669 204.832 159.669Z" fill="url(#paint86_linear)"/>
<path d="M204.982 159.853C204.921 160.055 205.653 160.352 206.073 159.528C206.083 159.136 206.306 157.453 206.068 157.134C204.804 155.444 202.365 153.332 202.365 153.332C201.96 153.739 202.3 154.133 202.3 154.133L203.484 155.347C203.244 155.793 202.947 156.17 202.811 156.709C202.709 157.117 202.779 157.55 202.986 157.918C203.196 158.289 203.482 158.768 203.75 159.143C204.263 159.853 204.982 159.853 204.982 159.853Z" fill="url(#paint87_linear)"/>
<path d="M204.008 156.135L205.086 157.032L205.43 157.931L204.486 159C204.486 159 204.148 157.21 203.906 156.824C203.664 156.441 203.787 156.252 204.008 156.135Z" fill="url(#paint88_linear)"/>
<path d="M233.591 175.96L235.881 170.006C235.881 170.006 241.634 173.839 242.621 178.76C241.541 178.851 239.578 179.15 237.665 180.14C237.221 177.817 233.591 175.96 233.591 175.96Z" fill="url(#paint89_linear)"/>
<path d="M228.65 181.589C228.65 181.589 235.102 185.16 237.238 182.037C237.682 181.39 237.784 180.748 237.667 180.139C239.582 179.149 241.543 178.848 242.623 178.759C242.922 180.243 242.785 181.825 241.928 183.431C238.201 190.414 227.815 183.181 227.815 183.181L228.65 181.589Z" fill="url(#paint90_linear)"/>
<path d="M229.146 163.487L231.148 169.105C231.18 169.198 231.144 169.302 231.057 169.35C230.529 169.649 228.624 170.515 226.307 169.075C226.064 168.925 225.9 168.678 225.861 168.396L225.183 163.524L229.146 163.487Z" fill="url(#paint91_linear)"/>
<path d="M224.861 158.308C224.861 158.308 222.761 162.358 223.051 163.983C223.341 165.608 225.991 165.465 228.291 164.121L229.867 159.755L224.861 158.308Z" fill="url(#paint92_linear)"/>
<path d="M228.168 161.985C228.073 161.944 228.038 161.829 228.092 161.743C228.261 161.478 228.577 160.941 228.674 160.473C228.674 160.473 229.057 160.224 227.69 159.91C226.324 159.595 224.287 159.108 223.848 157.951C223.422 156.822 224.489 153.964 226.255 156.218C226.322 156.304 226.452 156.304 226.516 156.218C226.8 155.843 227.544 155.061 228.594 155.52C229.577 155.949 229.694 156.666 229.683 157.028C229.681 157.134 229.776 157.216 229.88 157.195C230.373 157.095 231.559 157.004 232.124 158.215C232.589 159.214 232.299 159.784 232.031 160.066C231.944 160.157 231.983 160.304 232.105 160.341C232.431 160.438 232.853 160.709 232.817 161.472C232.769 162.525 231.592 162.445 231.256 162.399C231.202 162.393 231.146 162.412 231.109 162.453C230.826 162.774 229.544 164.137 228.146 164.314C228.025 164.33 227.93 164.21 227.969 164.096L228.557 162.325C228.586 162.243 228.544 162.154 228.464 162.12L228.168 161.985Z" fill="url(#paint93_linear)"/>
<path d="M227.925 162.239C227.925 162.239 229.438 161.18 229.557 162.059C229.676 162.939 228.198 163.348 227.462 163.026L227.925 162.239Z" fill="url(#paint94_linear)"/>
<path d="M229.969 187.231L226.454 174.944C226.415 174.805 226.296 174.704 226.151 174.686C225.514 174.613 223.668 174.402 221.539 174.223C218.972 174.006 215.992 173.828 214.21 173.98C213.957 174.002 213.803 174.27 213.916 174.498C214.929 176.55 219.095 184.893 221.182 187.626C221.251 187.717 221.357 187.769 221.472 187.769L229.627 187.693C229.865 187.688 230.033 187.461 229.969 187.231Z" fill="url(#paint95_linear)"/>
<path d="M229.12 184.263C229.12 184.263 229.609 182.248 229.412 181.533C229.215 180.818 228.832 179.899 227.558 180.103C226.283 180.307 224.776 180.846 224.776 180.846C224.776 180.846 224.852 181.778 225.822 181.477L225.22 181.943C225.22 181.943 225.307 182.688 226.125 182.289L225.566 182.907C225.566 182.907 225.917 183.52 226.521 183.126C227.122 182.733 227.41 184.506 229.12 184.263Z" fill="url(#paint96_linear)"/>
<path d="M221.772 177.891C221.772 178.461 221.311 178.924 220.74 178.924C220.171 178.924 219.708 178.463 219.708 177.891C219.708 177.321 220.169 176.857 220.74 176.857C221.311 176.857 221.772 177.319 221.772 177.891Z" fill="url(#paint97_linear)"/>
<path d="M226.047 178.573L225.33 176.142C225.244 175.848 225.006 175.627 224.711 175.564C222.469 175.096 216.331 174.996 216.269 174.994L216.273 174.699C216.526 174.704 222.502 174.799 224.77 175.273C225.17 175.358 225.493 175.657 225.61 176.056L226.326 178.487L226.047 178.573Z" fill="white"/>
<defs>
<filter id="filter0_d" x="20.9539" y="52.897" width="256.14" height="211.248" filterUnits="userSpaceOnUse" color-interpolation-filters="sRGB">
<feFlood flood-opacity="0" result="BackgroundImageFix"/>
<feColorMatrix in="SourceAlpha" type="matrix" values="0 0 0 0 0 0 0 0 0 0 0 0 0 0 0 0 0 0 127 0" result="hardAlpha"/>
<feOffset dx="8" dy="8"/>
<feGaussianBlur stdDeviation="7"/>
<feColorMatrix type="matrix" values="0 0 0 0 0 0 0 0 0 0 0 0 0 0 0 0 0 0 0.25 0"/>
<feBlend mode="normal" in2="BackgroundImageFix" result="effect1_dropShadow"/>
<feBlend mode="normal" in="SourceGraphic" in2="effect1_dropShadow" result="shape"/>
</filter>
<filter id="filter1_d" x="185.337" y="56.604" width="108.992" height="89.7763" filterUnits="userSpaceOnUse" color-interpolation-filters="sRGB">
<feFlood flood-opacity="0" result="BackgroundImageFix"/>
<feColorMatrix in="SourceAlpha" type="matrix" values="0 0 0 0 0 0 0 0 0 0 0 0 0 0 0 0 0 0 127 0" result="hardAlpha"/>
<feOffset dx="8" dy="8"/>
<feGaussianBlur stdDeviation="7"/>
<feColorMatrix type="matrix" values="0 0 0 0 0 0 0 0 0 0 0 0 0 0 0 0 0 0 0.25 0"/>
<feBlend mode="normal" in2="BackgroundImageFix" result="effect1_dropShadow"/>
<feBlend mode="normal" in="SourceGraphic" in2="effect1_dropShadow" result="shape"/>
</filter>
<filter id="filter2_d" x="31.2675" y="140.36" width="58.5525" height="79.1645" filterUnits="userSpaceOnUse" color-interpolation-filters="sRGB">
<feFlood flood-opacity="0" result="BackgroundImageFix"/>
<feColorMatrix in="SourceAlpha" type="matrix" values="0 0 0 0 0 0 0 0 0 0 0 0 0 0 0 0 0 0 127 0" result="hardAlpha"/>
<feOffset dx="8" dy="8"/>
<feGaussianBlur stdDeviation="7"/>
<feColorMatrix type="matrix" values="0 0 0 0 0 0 0 0 0 0 0 0 0 0 0 0 0 0 0.25 0"/>
<feBlend mode="normal" in2="BackgroundImageFix" result="effect1_dropShadow"/>
<feBlend mode="normal" in="SourceGraphic" in2="effect1_dropShadow" result="shape"/>
</filter>
<filter id="filter3_d" x="58.2177" y="55.7466" width="43.2892" height="44.3614" filterUnits="userSpaceOnUse" color-interpolation-filters="sRGB">
<feFlood flood-opacity="0" result="BackgroundImageFix"/>
<feColorMatrix in="SourceAlpha" type="matrix" values="0 0 0 0 0 0 0 0 0 0 0 0 0 0 0 0 0 0 127 0" result="hardAlpha"/>
<feOffset dx="8" dy="8"/>
<feGaussianBlur stdDeviation="7"/>
<feColorMatrix type="matrix" values="0 0 0 0 0 0 0 0 0 0 0 0 0 0 0 0 0 0 0.25 0"/>
<feBlend mode="normal" in2="BackgroundImageFix" result="effect1_dropShadow"/>
<feBlend mode="normal" in="SourceGraphic" in2="effect1_dropShadow" result="shape"/>
</filter>
<filter id="filter4_d" x="50.8762" y="197.756" width="33.7496" height="33.6417" filterUnits="userSpaceOnUse" color-interpolation-filters="sRGB">
<feFlood flood-opacity="0" result="BackgroundImageFix"/>
<feColorMatrix in="SourceAlpha" type="matrix" values="0 0 0 0 0 0 0 0 0 0 0 0 0 0 0 0 0 0 127 0" result="hardAlpha"/>
<feOffset dx="8" dy="8"/>
<feGaussianBlur stdDeviation="7"/>
<feColorMatrix type="matrix" values="0 0 0 0 0 0 0 0 0 0 0 0 0 0 0 0 0 0 0.25 0"/>
<feBlend mode="normal" in2="BackgroundImageFix" result="effect1_dropShadow"/>
<feBlend mode="normal" in="SourceGraphic" in2="effect1_dropShadow" result="shape"/>
</filter>
<filter id="filter5_d" x="75.7955" y="211.085" width="57.8654" height="57.3051" filterUnits="userSpaceOnUse" color-interpolation-filters="sRGB">
<feFlood flood-opacity="0" result="BackgroundImageFix"/>
<feColorMatrix in="SourceAlpha" type="matrix" values="0 0 0 0 0 0 0 0 0 0 0 0 0 0 0 0 0 0 127 0" result="hardAlpha"/>
<feOffset dx="8" dy="8"/>
<feGaussianBlur stdDeviation="7"/>
<feColorMatrix type="matrix" values="0 0 0 0 0 0 0 0 0 0 0 0 0 0 0 0 0 0 0.25 0"/>
<feBlend mode="normal" in2="BackgroundImageFix" result="effect1_dropShadow"/>
<feBlend mode="normal" in="SourceGraphic" in2="effect1_dropShadow" result="shape"/>
</filter>
<filter id="filter6_d" x="23.2136" y="108.917" width="45.7142" height="45.3818" filterUnits="userSpaceOnUse" color-interpolation-filters="sRGB">
<feFlood flood-opacity="0" result="BackgroundImageFix"/>
<feColorMatrix in="SourceAlpha" type="matrix" values="0 0 0 0 0 0 0 0 0 0 0 0 0 0 0 0 0 0 127 0" result="hardAlpha"/>
<feOffset dx="8" dy="8"/>
<feGaussianBlur stdDeviation="7"/>
<feColorMatrix type="matrix" values="0 0 0 0 0 0 0 0 0 0 0 0 0 0 0 0 0 0 0.25 0"/>
<feBlend mode="normal" in2="BackgroundImageFix" result="effect1_dropShadow"/>
<feBlend mode="normal" in="SourceGraphic" in2="effect1_dropShadow" result="shape"/>
</filter>
<filter id="filter7_d" x="63.5016" y="74.6641" width="32.9535" height="32.2425" filterUnits="userSpaceOnUse" color-interpolation-filters="sRGB">
<feFlood flood-opacity="0" result="BackgroundImageFix"/>
<feColorMatrix in="SourceAlpha" type="matrix" values="0 0 0 0 0 0 0 0 0 0 0 0 0 0 0 0 0 0 127 0" result="hardAlpha"/>
<feOffset dx="8" dy="8"/>
<feGaussianBlur stdDeviation="7"/>
<feColorMatrix type="matrix" values="0 0 0 0 0 0 0 0 0 0 0 0 0 0 0 0 0 0 0.25 0"/>
<feBlend mode="normal" in2="BackgroundImageFix" result="effect1_dropShadow"/>
<feBlend mode="normal" in="SourceGraphic" in2="effect1_dropShadow" result="shape"/>
</filter>
<filter id="filter8_d" x="240.011" y="148.817" width="33.7496" height="33.6417" filterUnits="userSpaceOnUse" color-interpolation-filters="sRGB">
<feFlood flood-opacity="0" result="BackgroundImageFix"/>
<feColorMatrix in="SourceAlpha" type="matrix" values="0 0 0 0 0 0 0 0 0 0 0 0 0 0 0 0 0 0 127 0" result="hardAlpha"/>
<feOffset dx="8" dy="8"/>
<feGaussianBlur stdDeviation="7"/>
<feColorMatrix type="matrix" values="0 0 0 0 0 0 0 0 0 0 0 0 0 0 0 0 0 0 0.25 0"/>
<feBlend mode="normal" in2="BackgroundImageFix" result="effect1_dropShadow"/>
<feBlend mode="normal" in="SourceGraphic" in2="effect1_dropShadow" result="shape"/>
</filter>
<filter id="filter9_d" x="222.116" y="157.776" width="55.7245" height="45.3969" filterUnits="userSpaceOnUse" color-interpolation-filters="sRGB">
<feFlood flood-opacity="0" result="BackgroundImageFix"/>
<feColorMatrix in="SourceAlpha" type="matrix" values="0 0 0 0 0 0 0 0 0 0 0 0 0 0 0 0 0 0 127 0" result="hardAlpha"/>
<feOffset dx="8" dy="8"/>
<feGaussianBlur stdDeviation="7"/>
<feColorMatrix type="matrix" values="0 0 0 0 0 0 0 0 0 0 0 0 0 0 0 0 0 0 0.25 0"/>
<feBlend mode="normal" in2="BackgroundImageFix" result="effect1_dropShadow"/>
<feBlend mode="normal" in="SourceGraphic" in2="effect1_dropShadow" result="shape"/>
</filter>
<filter id="filter10_d" x="62.0934" y="142.292" width="34.0958" height="33.8835" filterUnits="userSpaceOnUse" color-interpolation-filters="sRGB">
<feFlood flood-opacity="0" result="BackgroundImageFix"/>
<feColorMatrix in="SourceAlpha" type="matrix" values="0 0 0 0 0 0 0 0 0 0 0 0 0 0 0 0 0 0 127 0" result="hardAlpha"/>
<feOffset dx="8" dy="8"/>
<feGaussianBlur stdDeviation="7"/>
<feColorMatrix type="matrix" values="0 0 0 0 0 0 0 0 0 0 0 0 0 0 0 0 0 0 0.25 0"/>
<feBlend mode="normal" in2="BackgroundImageFix" result="effect1_dropShadow"/>
<feBlend mode="normal" in="SourceGraphic" in2="effect1_dropShadow" result="shape"/>
</filter>
<linearGradient id="paint0_linear" x1="33.9023" y1="22.2473" x2="280.041" y2="37.6844" gradientUnits="userSpaceOnUse">
<stop offset="0.0756841" stop-color="#B565D8"/>
<stop offset="0.945898" stop-color="#EE609C"/>
</linearGradient>
<linearGradient id="paint1_linear" x1="185.152" y1="56.8308" x2="260.096" y2="33.0843" gradientUnits="userSpaceOnUse">
<stop offset="0.0756841" stop-color="#B565D8"/>
<stop offset="0.945898" stop-color="#EE609C"/>
</linearGradient>
<linearGradient id="paint2_linear" x1="108.606" y1="166.324" x2="115.075" y2="175.697" gradientUnits="userSpaceOnUse">
<stop offset="0.0756841" stop-color="#B565D8"/>
<stop offset="0.945898" stop-color="#EE609C"/>
</linearGradient>
<linearGradient id="paint3_linear" x1="96.7526" y1="160.922" x2="103.208" y2="170.306" gradientUnits="userSpaceOnUse">
<stop offset="0.0756841" stop-color="#B565D8"/>
<stop offset="0.945898" stop-color="#EE609C"/>
</linearGradient>
<linearGradient id="paint4_linear" x1="74.4933" y1="161.574" x2="80.906" y2="171.032" gradientUnits="userSpaceOnUse">
<stop offset="0.0756841" stop-color="#B565D8"/>
<stop offset="0.945898" stop-color="#EE609C"/>
</linearGradient>
<linearGradient id="paint5_linear" x1="67.4348" y1="153.382" x2="73.8691" y2="162.823" gradientUnits="userSpaceOnUse">
<stop offset="0.0756841" stop-color="#B565D8"/>
<stop offset="0.945898" stop-color="#EE609C"/>
</linearGradient>
<linearGradient id="paint6_linear" x1="102.973" y1="163.453" x2="109.436" y2="172.831" gradientUnits="userSpaceOnUse">
<stop offset="0.0756841" stop-color="#B565D8"/>
<stop offset="0.945898" stop-color="#EE609C"/>
</linearGradient>
<linearGradient id="paint7_linear" x1="89.7607" y1="158.841" x2="96.2052" y2="168.233" gradientUnits="userSpaceOnUse">
<stop offset="0.0756841" stop-color="#B565D8"/>
<stop offset="0.945898" stop-color="#EE609C"/>
</linearGradient>
<linearGradient id="paint8_linear" x1="70.8355" y1="157.553" x2="77.2577" y2="167.004" gradientUnits="userSpaceOnUse">
<stop offset="0.0756841" stop-color="#B565D8"/>
<stop offset="0.945898" stop-color="#EE609C"/>
</linearGradient>
<linearGradient id="paint9_linear" x1="151.908" y1="202.627" x2="158.453" y2="211.937" gradientUnits="userSpaceOnUse">
<stop offset="0.0756841" stop-color="#B565D8"/>
<stop offset="0.945898" stop-color="#EE609C"/>
</linearGradient>
<linearGradient id="paint10_linear" x1="144.055" y1="194.897" x2="150.598" y2="204.25" gradientUnits="userSpaceOnUse">
<stop offset="0.0756841" stop-color="#B565D8"/>
<stop offset="0.945898" stop-color="#EE609C"/>
</linearGradient>
<linearGradient id="paint11_linear" x1="136.098" y1="187.227" x2="142.623" y2="196.595" gradientUnits="userSpaceOnUse">
<stop offset="0.0756841" stop-color="#B565D8"/>
<stop offset="0.945898" stop-color="#EE609C"/>
</linearGradient>
<linearGradient id="paint12_linear" x1="127.748" y1="179.786" x2="134.26" y2="189.164" gradientUnits="userSpaceOnUse">
<stop offset="0.0756841" stop-color="#B565D8"/>
<stop offset="0.945898" stop-color="#EE609C"/>
</linearGradient>
<linearGradient id="paint13_linear" x1="118.717" y1="172.742" x2="125.198" y2="182.106" gradientUnits="userSpaceOnUse">
<stop offset="0.0756841" stop-color="#B565D8"/>
<stop offset="0.945898" stop-color="#EE609C"/>
</linearGradient>
<linearGradient id="paint14_linear" x1="147.977" y1="198.764" x2="154.53" y2="208.109" gradientUnits="userSpaceOnUse">
<stop offset="0.0756841" stop-color="#B565D8"/>
<stop offset="0.945898" stop-color="#EE609C"/>
</linearGradient>
<linearGradient id="paint15_linear" x1="140.107" y1="191.044" x2="146.641" y2="200.405" gradientUnits="userSpaceOnUse">
<stop offset="0.0756841" stop-color="#B565D8"/>
<stop offset="0.945898" stop-color="#EE609C"/>
</linearGradient>
<linearGradient id="paint16_linear" x1="131.991" y1="183.467" x2="138.509" y2="192.841" gradientUnits="userSpaceOnUse">
<stop offset="0.0756841" stop-color="#B565D8"/>
<stop offset="0.945898" stop-color="#EE609C"/>
</linearGradient>
<linearGradient id="paint17_linear" x1="123.334" y1="176.205" x2="129.841" y2="185.588" gradientUnits="userSpaceOnUse">
<stop offset="0.0756841" stop-color="#B565D8"/>
<stop offset="0.945898" stop-color="#EE609C"/>
</linearGradient>
<linearGradient id="paint18_linear" x1="113.822" y1="169.44" x2="120.297" y2="178.808" gradientUnits="userSpaceOnUse">
<stop offset="0.0756841" stop-color="#B565D8"/>
<stop offset="0.945898" stop-color="#EE609C"/>
</linearGradient>
<linearGradient id="paint19_linear" x1="188.087" y1="230.775" x2="194.908" y2="239.838" gradientUnits="userSpaceOnUse">
<stop offset="0.0756841" stop-color="#B565D8"/>
<stop offset="0.945898" stop-color="#EE609C"/>
</linearGradient>
<linearGradient id="paint20_linear" x1="177.583" y1="224.588" x2="184.283" y2="233.763" gradientUnits="userSpaceOnUse">
<stop offset="0.0756841" stop-color="#B565D8"/>
<stop offset="0.945898" stop-color="#EE609C"/>
</linearGradient>
<linearGradient id="paint21_linear" x1="168.365" y1="217.652" x2="174.992" y2="226.893" gradientUnits="userSpaceOnUse">
<stop offset="0.0756841" stop-color="#B565D8"/>
<stop offset="0.945898" stop-color="#EE609C"/>
</linearGradient>
<linearGradient id="paint22_linear" x1="159.918" y1="210.266" x2="166.496" y2="219.548" gradientUnits="userSpaceOnUse">
<stop offset="0.0756841" stop-color="#B565D8"/>
<stop offset="0.945898" stop-color="#EE609C"/>
</linearGradient>
<linearGradient id="paint23_linear" x1="194.086" y1="233.435" x2="201.003" y2="242.403" gradientUnits="userSpaceOnUse">
<stop offset="0.0756841" stop-color="#B565D8"/>
<stop offset="0.945898" stop-color="#EE609C"/>
</linearGradient>
<linearGradient id="paint24_linear" x1="182.614" y1="227.811" x2="189.366" y2="236.939" gradientUnits="userSpaceOnUse">
<stop offset="0.0756841" stop-color="#B565D8"/>
<stop offset="0.945898" stop-color="#EE609C"/>
</linearGradient>
<linearGradient id="paint25_linear" x1="172.851" y1="221.191" x2="179.51" y2="230.403" gradientUnits="userSpaceOnUse">
<stop offset="0.0756841" stop-color="#B565D8"/>
<stop offset="0.945898" stop-color="#EE609C"/>
</linearGradient>
<linearGradient id="paint26_linear" x1="164.06" y1="214.008" x2="170.66" y2="223.271" gradientUnits="userSpaceOnUse">
<stop offset="0.0756841" stop-color="#B565D8"/>
<stop offset="0.945898" stop-color="#EE609C"/>
</linearGradient>
<linearGradient id="paint27_linear" x1="155.874" y1="206.471" x2="162.455" y2="215.792" gradientUnits="userSpaceOnUse">
<stop offset="0.0756841" stop-color="#B565D8"/>
<stop offset="0.945898" stop-color="#EE609C"/>
</linearGradient>
<linearGradient id="paint28_linear" x1="200.778" y1="235.69" x2="207.86" y2="244.532" gradientUnits="userSpaceOnUse">
<stop offset="0.0756841" stop-color="#B565D8"/>
<stop offset="0.945898" stop-color="#EE609C"/>
</linearGradient>
<linearGradient id="paint29_linear" x1="218.086" y1="237.918" x2="225.885" y2="245.802" gradientUnits="userSpaceOnUse">
<stop offset="0.0756841" stop-color="#B565D8"/>
<stop offset="0.945898" stop-color="#EE609C"/>
</linearGradient>
<linearGradient id="paint30_linear" x1="208.494" y1="237.352" x2="215.786" y2="245.906" gradientUnits="userSpaceOnUse">
<stop offset="0.0756841" stop-color="#B565D8"/>
<stop offset="0.945898" stop-color="#EE609C"/>
</linearGradient>
<linearGradient id="paint31_linear" x1="66.8217" y1="61.488" x2="75.1993" y2="67.945" gradientUnits="userSpaceOnUse">
<stop offset="0.0756841" stop-color="#B565D8"/>
<stop offset="0.945898" stop-color="#EE609C"/>
</linearGradient>
<linearGradient id="paint32_linear" x1="57.6973" y1="72.9476" x2="65.0946" y2="81.3688" gradientUnits="userSpaceOnUse">
<stop offset="0.0756841" stop-color="#B565D8"/>
<stop offset="0.945898" stop-color="#EE609C"/>
</linearGradient>
<linearGradient id="paint33_linear" x1="56.476" y1="135.157" x2="62.9866" y2="144.537" gradientUnits="userSpaceOnUse">
<stop offset="0.0756841" stop-color="#B565D8"/>
<stop offset="0.945898" stop-color="#EE609C"/>
</linearGradient>
<linearGradient id="paint34_linear" x1="52.7606" y1="125.02" x2="59.3287" y2="134.352" gradientUnits="userSpaceOnUse">
<stop offset="0.0756841" stop-color="#B565D8"/>
<stop offset="0.945898" stop-color="#EE609C"/>
</linearGradient>
<linearGradient id="paint35_linear" x1="50.4027" y1="114.093" x2="57.0248" y2="123.338" gradientUnits="userSpaceOnUse">
<stop offset="0.0756841" stop-color="#B565D8"/>
<stop offset="0.945898" stop-color="#EE609C"/>
</linearGradient>
<linearGradient id="paint36_linear" x1="49.7043" y1="102.2" x2="56.4324" y2="111.35" gradientUnits="userSpaceOnUse">
<stop offset="0.0756841" stop-color="#B565D8"/>
<stop offset="0.945898" stop-color="#EE609C"/>
</linearGradient>
<linearGradient id="paint37_linear" x1="51.3658" y1="88.9317" x2="58.2787" y2="97.9045" gradientUnits="userSpaceOnUse">
<stop offset="0.0756841" stop-color="#B565D8"/>
<stop offset="0.945898" stop-color="#EE609C"/>
</linearGradient>
<linearGradient id="paint38_linear" x1="54.4576" y1="130.182" x2="60.9951" y2="139.54" gradientUnits="userSpaceOnUse">
<stop offset="0.0756841" stop-color="#B565D8"/>
<stop offset="0.945898" stop-color="#EE609C"/>
</linearGradient>
<linearGradient id="paint39_linear" x1="51.4013" y1="119.66" x2="58.0043" y2="128.963" gradientUnits="userSpaceOnUse">
<stop offset="0.0756841" stop-color="#B565D8"/>
<stop offset="0.945898" stop-color="#EE609C"/>
</linearGradient>
<linearGradient id="paint40_linear" x1="49.8171" y1="108.284" x2="56.4864" y2="117.487" gradientUnits="userSpaceOnUse">
<stop offset="0.0756841" stop-color="#B565D8"/>
<stop offset="0.945898" stop-color="#EE609C"/>
</linearGradient>
<linearGradient id="paint41_linear" x1="50.1591" y1="95.7857" x2="56.964" y2="104.864" gradientUnits="userSpaceOnUse">
<stop offset="0.0756841" stop-color="#B565D8"/>
<stop offset="0.945898" stop-color="#EE609C"/>
</linearGradient>
<linearGradient id="paint42_linear" x1="53.6139" y1="81.4752" x2="60.6943" y2="90.2731" gradientUnits="userSpaceOnUse">
<stop offset="0.0756841" stop-color="#B565D8"/>
<stop offset="0.945898" stop-color="#EE609C"/>
</linearGradient>
<linearGradient id="paint43_linear" x1="87.7585" y1="178.457" x2="95.1707" y2="179.928" gradientUnits="userSpaceOnUse">
<stop offset="0.0756841" stop-color="#B565D8"/>
<stop offset="0.945898" stop-color="#EE609C"/>
</linearGradient>
<linearGradient id="paint44_linear" x1="78.7702" y1="171.388" x2="86.9631" y2="174.247" gradientUnits="userSpaceOnUse">
<stop offset="0.0756841" stop-color="#B565D8"/>
<stop offset="0.945898" stop-color="#EE609C"/>
</linearGradient>
<linearGradient id="paint45_linear" x1="61.4169" y1="144.582" x2="67.8834" y2="153.997" gradientUnits="userSpaceOnUse">
<stop offset="0.0756841" stop-color="#B565D8"/>
<stop offset="0.945898" stop-color="#EE609C"/>
</linearGradient>
<linearGradient id="paint46_linear" x1="83.1336" y1="174.998" x2="91.0514" y2="177.258" gradientUnits="userSpaceOnUse">
<stop offset="0.0756841" stop-color="#B565D8"/>
<stop offset="0.945898" stop-color="#EE609C"/>
</linearGradient>
<linearGradient id="paint47_linear" x1="74.6624" y1="167.628" x2="83.0039" y2="170.919" gradientUnits="userSpaceOnUse">
<stop offset="0.0756841" stop-color="#B565D8"/>
<stop offset="0.945898" stop-color="#EE609C"/>
</linearGradient>
<linearGradient id="paint48_linear" x1="64.2944" y1="149.059" x2="70.7435" y2="158.489" gradientUnits="userSpaceOnUse">
<stop offset="0.0756841" stop-color="#B565D8"/>
<stop offset="0.945898" stop-color="#EE609C"/>
</linearGradient>
<linearGradient id="paint49_linear" x1="58.7951" y1="139.96" x2="65.282" y2="149.359" gradientUnits="userSpaceOnUse">
<stop offset="0.0756841" stop-color="#B565D8"/>
<stop offset="0.945898" stop-color="#EE609C"/>
</linearGradient>
<linearGradient id="paint50_linear" x1="97.8444" y1="184.888" x2="102.704" y2="184.47" gradientUnits="userSpaceOnUse">
<stop offset="0.0756841" stop-color="#B565D8"/>
<stop offset="0.945898" stop-color="#EE609C"/>
</linearGradient>
<linearGradient id="paint51_linear" x1="103.324" y1="187.847" x2="105.634" y2="187.099" gradientUnits="userSpaceOnUse">
<stop offset="0.0756841" stop-color="#B565D8"/>
<stop offset="0.945898" stop-color="#EE609C"/>
</linearGradient>
<linearGradient id="paint52_linear" x1="92.66" y1="181.755" x2="99.1471" y2="182.27" gradientUnits="userSpaceOnUse">
<stop offset="0.0756841" stop-color="#B565D8"/>
<stop offset="0.945898" stop-color="#EE609C"/>
</linearGradient>
<linearGradient id="paint53_linear" x1="21.8525" y1="154.668" x2="54.2574" y2="131.513" gradientUnits="userSpaceOnUse">
<stop offset="0.0756841" stop-color="#B565D8"/>
<stop offset="0.945898" stop-color="#EE609C"/>
</linearGradient>
<linearGradient id="paint54_linear" x1="60.2315" y1="63.5994" x2="76.1807" y2="56.3702" gradientUnits="userSpaceOnUse">
<stop offset="0.0756841" stop-color="#B565D8"/>
<stop offset="0.945898" stop-color="#EE609C"/>
</linearGradient>
<linearGradient id="paint55_linear" x1="55.1061" y1="207.438" x2="58.1692" y2="201.856" gradientUnits="userSpaceOnUse">
<stop offset="0.0756841" stop-color="#B565D8"/>
<stop offset="0.945898" stop-color="#EE609C"/>
</linearGradient>
<linearGradient id="paint56_linear" x1="72.6011" y1="236.209" x2="88.5121" y2="207.211" gradientUnits="userSpaceOnUse">
<stop offset="0.0756841" stop-color="#B565D8"/>
<stop offset="0.945898" stop-color="#EE609C"/>
</linearGradient>
<linearGradient id="paint57_linear" x1="23.7601" y1="126.26" x2="33.1974" y2="109.06" gradientUnits="userSpaceOnUse">
<stop offset="0.0756841" stop-color="#B565D8"/>
<stop offset="0.945898" stop-color="#EE609C"/>
</linearGradient>
<linearGradient id="paint58_linear" x1="75.5605" y1="81.2859" x2="74.6951" y2="85.9414" gradientUnits="userSpaceOnUse">
<stop offset="0.0756841" stop-color="#B565D8"/>
<stop offset="0.945898" stop-color="#EE609C"/>
</linearGradient>
<linearGradient id="paint59_linear" x1="244.241" y1="158.499" x2="247.304" y2="152.916" gradientUnits="userSpaceOnUse">
<stop offset="0.0756841" stop-color="#B565D8"/>
<stop offset="0.945898" stop-color="#EE609C"/>
</linearGradient>
<linearGradient id="paint60_linear" x1="236.981" y1="152.991" x2="261.227" y2="166.332" gradientUnits="userSpaceOnUse">
<stop offset="0.0756841" stop-color="#B565D8"/>
<stop offset="0.945898" stop-color="#EE609C"/>
</linearGradient>
<linearGradient id="paint61_linear" x1="70.247" y1="146.224" x2="76.0996" y2="149.372" gradientUnits="userSpaceOnUse">
<stop offset="0.0756841" stop-color="#B565D8"/>
<stop offset="0.945898" stop-color="#EE609C"/>
</linearGradient>
<linearGradient id="paint62_linear" x1="155.031" y1="88.1045" x2="156.13" y2="226.992" gradientUnits="userSpaceOnUse">
<stop stop-color="#2B3582"/>
<stop offset="1" stop-color="#150E42"/>
</linearGradient>
<linearGradient id="paint63_linear" x1="208.47" y1="192.163" x2="-151.8" y2="-84.6013" gradientUnits="userSpaceOnUse">
<stop stop-color="#FDF53F"/>
<stop offset="0.6645" stop-color="#E57A58"/>
<stop offset="1" stop-color="#D93C65"/>
</linearGradient>
<linearGradient id="paint64_linear" x1="76.2237" y1="157.07" x2="63.5855" y2="177.302" gradientUnits="userSpaceOnUse">
<stop stop-color="#F9B776"/>
<stop offset="1" stop-color="#F47960"/>
</linearGradient>
<linearGradient id="paint65_linear" x1="41.1954" y1="155.207" x2="53.9493" y2="163.701" gradientUnits="userSpaceOnUse">
<stop stop-color="#2B3582"/>
<stop offset="1" stop-color="#150E42"/>
</linearGradient>
<linearGradient id="paint66_linear" x1="74.7687" y1="146.892" x2="58.9452" y2="176.233" gradientUnits="userSpaceOnUse">
<stop stop-color="#53D8FF"/>
<stop offset="1" stop-color="#3840F7"/>
</linearGradient>
<linearGradient id="paint67_linear" x1="60.6828" y1="171.074" x2="58.3128" y2="165.816" gradientUnits="userSpaceOnUse">
<stop stop-color="#F9B776"/>
<stop offset="1" stop-color="#F47960"/>
</linearGradient>
<linearGradient id="paint68_linear" x1="60.8047" y1="158.292" x2="55.995" y2="168.694" gradientUnits="userSpaceOnUse">
<stop stop-color="#F9B776"/>
<stop offset="1" stop-color="#F47960"/>
</linearGradient>
<linearGradient id="paint69_linear" x1="44.6206" y1="150.064" x2="57.3749" y2="158.558" gradientUnits="userSpaceOnUse">
<stop stop-color="#2B3582"/>
<stop offset="1" stop-color="#150E42"/>
</linearGradient>
<linearGradient id="paint70_linear" x1="58.5459" y1="157.248" x2="53.7362" y2="167.649" gradientUnits="userSpaceOnUse">
<stop stop-color="#F9B776"/>
<stop offset="1" stop-color="#F47960"/>
</linearGradient>
<linearGradient id="paint71_linear" x1="47.4077" y1="236.574" x2="65.0629" y2="204.742" gradientUnits="userSpaceOnUse">
<stop stop-color="#F9B776"/>
<stop offset="1" stop-color="#F47960"/>
</linearGradient>
<linearGradient id="paint72_linear" x1="51.2092" y1="225.336" x2="56.4491" y2="225.287" gradientUnits="userSpaceOnUse">
<stop stop-color="#2B3582"/>
<stop offset="1" stop-color="#150E42"/>
</linearGradient>
<linearGradient id="paint73_linear" x1="67.5" y1="212.946" x2="40.7665" y2="221.766" gradientUnits="userSpaceOnUse">
<stop stop-color="#F9B776"/>
<stop offset="1" stop-color="#F47960"/>
</linearGradient>
<linearGradient id="paint74_linear" x1="56.0763" y1="226.238" x2="62.3227" y2="226.179" gradientUnits="userSpaceOnUse">
<stop stop-color="#2B3582"/>
<stop offset="1" stop-color="#150E42"/>
</linearGradient>
<linearGradient id="paint75_linear" x1="64.2065" y1="184.101" x2="49.5319" y2="217.627" gradientUnits="userSpaceOnUse">
<stop stop-color="#53D8FF"/>
<stop offset="1" stop-color="#3840F7"/>
</linearGradient>
<linearGradient id="paint76_linear" x1="49.1006" y1="187.438" x2="74.4024" y2="149.964" gradientUnits="userSpaceOnUse">
<stop stop-color="#F9B776"/>
<stop offset="1" stop-color="#F47960"/>
</linearGradient>
<linearGradient id="paint77_linear" x1="150.679" y1="153.373" x2="51.3692" y2="256.149" gradientUnits="userSpaceOnUse">
<stop stop-color="#A737D5"/>
<stop offset="1" stop-color="#EF497A"/>
</linearGradient>
<linearGradient id="paint78_linear" x1="153.488" y1="201.281" x2="228.36" y2="113.075" gradientUnits="userSpaceOnUse">
<stop stop-color="#A737D5"/>
<stop offset="1" stop-color="#EF497A"/>
</linearGradient>
<linearGradient id="paint79_linear" x1="218.355" y1="224.437" x2="244.736" y2="252.56" gradientUnits="userSpaceOnUse">
<stop stop-color="#2B3582"/>
<stop offset="1" stop-color="#150E42"/>
</linearGradient>
<linearGradient id="paint80_linear" x1="226.841" y1="226.466" x2="224.524" y2="226.488" gradientUnits="userSpaceOnUse">
<stop stop-color="#F9B776"/>
<stop offset="1" stop-color="#F47960"/>
</linearGradient>
<linearGradient id="paint81_linear" x1="215.995" y1="192.338" x2="238.506" y2="222.217" gradientUnits="userSpaceOnUse">
<stop stop-color="#FDF53F"/>
<stop offset="1" stop-color="#D93C65"/>
</linearGradient>
<linearGradient id="paint82_linear" x1="224.155" y1="218.996" x2="250.537" y2="247.12" gradientUnits="userSpaceOnUse">
<stop stop-color="#2B3582"/>
<stop offset="1" stop-color="#150E42"/>
</linearGradient>
<linearGradient id="paint83_linear" x1="235.189" y1="226.268" x2="233.188" y2="226.287" gradientUnits="userSpaceOnUse">
<stop stop-color="#F9B776"/>
<stop offset="1" stop-color="#F47960"/>
</linearGradient>
<linearGradient id="paint84_linear" x1="219.923" y1="189.379" x2="242.434" y2="219.257" gradientUnits="userSpaceOnUse">
<stop stop-color="#FDF53F"/>
<stop offset="1" stop-color="#D93C65"/>
</linearGradient>
<linearGradient id="paint85_linear" x1="224.006" y1="182.937" x2="240.31" y2="166.063" gradientUnits="userSpaceOnUse">
<stop stop-color="#CB236D"/>
<stop offset="1" stop-color="#4C246D"/>
</linearGradient>
<linearGradient id="paint86_linear" x1="216.731" y1="166.051" x2="204.895" y2="166.163" gradientUnits="userSpaceOnUse">
<stop stop-color="#F9B776"/>
<stop offset="1" stop-color="#F47960"/>
</linearGradient>
<linearGradient id="paint87_linear" x1="207.512" y1="164.152" x2="215.641" y2="182.16" gradientUnits="userSpaceOnUse">
<stop stop-color="#F9B776"/>
<stop offset="1" stop-color="#F47960"/>
</linearGradient>
<linearGradient id="paint88_linear" x1="204.875" y1="158.152" x2="201.508" y2="153.087" gradientUnits="userSpaceOnUse">
<stop stop-color="#F9B776"/>
<stop offset="1" stop-color="#F47960"/>
</linearGradient>
<linearGradient id="paint89_linear" x1="227.63" y1="186.438" x2="243.934" y2="169.565" gradientUnits="userSpaceOnUse">
<stop stop-color="#CB236D"/>
<stop offset="1" stop-color="#4C246D"/>
</linearGradient>
<linearGradient id="paint90_linear" x1="242.789" y1="182.586" x2="227.811" y2="182.729" gradientUnits="userSpaceOnUse">
<stop stop-color="#F9B776"/>
<stop offset="1" stop-color="#F47960"/>
</linearGradient>
<linearGradient id="paint91_linear" x1="231.136" y1="166.666" x2="225.214" y2="166.723" gradientUnits="userSpaceOnUse">
<stop stop-color="#F9B776"/>
<stop offset="1" stop-color="#F47960"/>
</linearGradient>
<linearGradient id="paint92_linear" x1="223.769" y1="162.964" x2="230.247" y2="158.933" gradientUnits="userSpaceOnUse">
<stop stop-color="#F9B776"/>
<stop offset="1" stop-color="#F47960"/>
</linearGradient>
<linearGradient id="paint93_linear" x1="233.649" y1="154.703" x2="225.294" y2="161.425" gradientUnits="userSpaceOnUse">
<stop stop-color="#2B3582"/>
<stop offset="1" stop-color="#150E42"/>
</linearGradient>
<linearGradient id="paint94_linear" x1="225.493" y1="164.431" x2="231.321" y2="160.804" gradientUnits="userSpaceOnUse">
<stop stop-color="#F9B776"/>
<stop offset="1" stop-color="#F47960"/>
</linearGradient>
<linearGradient id="paint95_linear" x1="223.795" y1="173.059" x2="215.513" y2="207.53" gradientUnits="userSpaceOnUse">
<stop stop-color="#2B3582"/>
<stop offset="1" stop-color="#150E42"/>
</linearGradient>
<linearGradient id="paint96_linear" x1="229.458" y1="182.18" x2="224.776" y2="182.18" gradientUnits="userSpaceOnUse">
<stop stop-color="#F9B776"/>
<stop offset="1" stop-color="#F47960"/>
</linearGradient>
<linearGradient id="paint97_linear" x1="220.464" y1="176.736" x2="221.702" y2="181.888" gradientUnits="userSpaceOnUse">
<stop stop-color="#53D8FF"/>
<stop offset="1" stop-color="#3840F7"/>
</linearGradient>
</defs>
</svg>
