<svg width="213" height="201" viewBox="0 0 213 201" fill="none" xmlns="http://www.w3.org/2000/svg">
<g opacity="0.7" filter="url(#filter0_d)">
<path d="M175.589 127.305C183.001 103.157 172.096 75.623 152.401 59.8123C132.707 44.0004 105.834 38.9834 80.8038 42.3289C59.2757 45.2063 37.8368 54.4749 24.2918 71.4607C18.0688 79.2659 14.3586 92.126 22.2903 98.1864C31.822 105.468 46.1172 94.2197 57.2662 98.6418C67.0998 102.542 68.6061 115.916 66.5749 126.302C64.5436 136.689 60.6847 147.878 65.3328 157.385C69.7075 166.33 80.6151 170.517 90.5517 169.925C101.589 169.267 111.849 163.622 122.815 161.909C128.308 161.051 133.725 161.414 139.227 160.444C145.29 159.375 151.046 157.218 156.118 153.692C165.232 147.355 172.324 137.942 175.589 127.305Z" fill="url(#paint0_linear)"/>
</g>
<g filter="url(#filter1_d)">
<path d="M168.826 47.5642C161.88 44.8879 154.376 43.499 146.951 44.0757C143.52 44.3423 140.001 45.0773 137.218 47.1026C134.435 49.1279 132.562 52.6916 133.35 56.0384C133.969 58.6674 136.061 60.7111 138.338 62.1648C140.615 63.619 143.152 64.6369 145.403 66.132C147.653 67.6267 149.68 69.7603 150.156 72.4186C150.594 74.8663 149.662 77.3783 149.922 79.8517C150.33 83.7328 153.899 86.9045 157.788 87.2721C161.676 87.6397 165.581 85.4449 167.682 82.153C169.666 79.045 170.299 74.9789 173.162 72.653C174.721 71.3862 176.737 70.8333 178.718 70.4955C180.699 70.158 182.724 69.9991 184.634 69.3757C188.554 68.0969 191.866 63.2253 188.856 59.4327C187.523 57.753 185.337 56.6434 183.59 55.4592C181.419 53.9884 179.197 52.5967 176.897 51.3346C174.292 49.9056 171.6 48.6326 168.826 47.5642Z" fill="url(#paint1_linear)"/>
</g>
<path d="M155.247 70.1994L144.133 76.6665L143.909 76.7972L111.882 95.4342L111.658 95.5643L79.6305 114.202L79.4069 114.332L72.6102 118.287C72.739 118.358 72.8702 118.422 72.998 118.493L79.5945 114.654L79.818 114.524L111.846 95.8866L112.069 95.7566L144.096 77.1195L144.321 76.9889L155.556 70.4512C155.453 70.3679 155.351 70.2831 155.247 70.1994Z" fill="url(#paint2_linear)"/>
<path d="M140.38 70.2171L140.155 70.3477L108.128 88.9848L107.905 89.1149L75.877 107.752L75.6534 107.883L64.2346 114.527C64.387 114.581 64.5369 114.64 64.6888 114.694L75.8401 108.205L76.0636 108.075L108.091 89.4377L108.315 89.3076L140.342 70.6706L140.566 70.5399L148.987 65.6397C148.871 65.5633 148.752 65.4894 148.635 65.413L140.38 70.2171Z" fill="url(#paint3_linear)"/>
<path d="M136.626 63.7663L136.402 63.8969L104.375 82.534L104.151 82.6641L72.1236 101.302L71.9 101.432L48.3487 115.137C48.4365 115.23 48.5235 115.323 48.6122 115.416L72.0881 101.755L72.3117 101.625L104.34 82.9873L104.563 82.8572L136.59 64.2202L136.815 64.0895L141.652 61.2745C141.523 61.204 141.394 61.1363 141.264 61.0678L136.626 63.7663Z" fill="url(#paint4_linear)"/>
<path d="M132.873 57.316L132.649 57.4466L100.622 76.0837L100.398 76.2138L68.3702 94.8514L68.1466 94.9815L43.4891 109.33C43.5644 109.431 43.6406 109.53 43.7158 109.631L68.3347 95.3047L68.5583 95.1746L100.586 76.537L100.81 76.4069L132.837 57.7698L133.061 57.6392L133.664 57.2881C133.526 57.2243 133.388 57.1604 133.25 57.0966L132.873 57.316Z" fill="url(#paint5_linear)"/>
<path d="M142.257 73.4425L142.033 73.5731L110.006 92.2101L109.782 92.3402L77.7543 110.978L77.5307 111.108L68.6322 116.286C68.7693 116.348 68.9027 116.418 69.0388 116.481L77.7183 111.43L77.9419 111.3L109.97 92.6626L110.193 92.5325L142.22 73.8954L142.445 73.7648L152.372 67.9878C152.263 67.9072 152.154 67.8262 152.044 67.747L142.257 73.4425Z" fill="url(#paint6_linear)"/>
<path d="M138.503 66.9912L138.279 67.1218L106.252 85.7589L106.028 85.889L74.0004 104.527L73.7768 104.657L59.2847 113.09C59.4581 113.13 59.6288 113.179 59.8018 113.22L73.9644 104.979L74.1879 104.849L106.216 86.2113L106.439 86.0812L138.466 67.4441L138.691 67.3135L145.407 63.4054C145.284 63.3327 145.163 63.2589 145.04 63.1876L138.503 66.9912Z" fill="url(#paint7_linear)"/>
<path d="M134.75 60.5414L134.525 60.6721L102.498 79.3091L102.275 79.4392L70.2469 98.0768L70.0233 98.2069L45.8237 112.289C45.9053 112.386 45.985 112.484 46.0666 112.58L70.2114 98.5301L70.4349 98.4L102.463 79.7624L102.686 79.6323L134.713 60.9953L134.938 60.8647L137.727 59.2413C137.594 59.1749 137.461 59.1079 137.327 59.0414L134.75 60.5414Z" fill="url(#paint8_linear)"/>
<path d="M177.67 100.323L162.901 108.918L162.676 109.049L130.65 127.686L130.426 127.816L103.262 143.623C103.356 143.713 103.45 143.802 103.543 143.891L130.614 128.138L130.837 128.008L162.864 109.371L163.089 109.24L177.815 100.671C177.767 100.555 177.719 100.439 177.67 100.323Z" fill="url(#paint9_linear)"/>
<path d="M159.148 102.467L158.923 102.598L126.896 121.235L126.673 121.365L97.6768 138.238C97.77 138.328 97.8632 138.418 97.9564 138.508L126.861 121.688L127.084 121.558L159.111 102.921L159.336 102.791L174.642 93.8834C174.584 93.7731 174.526 93.6627 174.467 93.5524L159.148 102.467Z" fill="url(#paint10_linear)"/>
<path d="M155.394 96.018L155.17 96.1486L123.143 114.786L122.919 114.916L92.035 132.888C92.131 132.976 92.226 133.065 92.3219 133.153L123.107 115.239L123.331 115.109L155.358 96.4718L155.582 96.3412L170.844 87.4602C170.776 87.3556 170.708 87.2505 170.639 87.1464L155.394 96.018Z" fill="url(#paint11_linear)"/>
<path d="M151.641 89.5678L151.416 89.6984L119.389 108.335L119.166 108.466L87.1378 127.103L86.9143 127.233L86.1287 127.69C86.23 127.776 86.3313 127.861 86.4326 127.946L87.1024 127.556L87.3259 127.426L119.354 108.789L119.577 108.659L151.604 90.0216L151.829 89.891L166.421 81.3998C166.342 81.3015 166.265 81.2021 166.184 81.1048L151.641 89.5678Z" fill="url(#paint12_linear)"/>
<path d="M147.887 83.1177L147.663 83.2483L115.636 101.885L115.412 102.015L83.3844 120.653L83.1608 120.783L79.749 122.769C79.8597 122.847 79.9687 122.929 80.0793 123.008L83.3484 121.105L83.572 120.975L115.6 102.338L115.823 102.208L147.85 83.5706L148.075 83.44L161.345 75.7179C161.254 75.6264 161.161 75.5364 161.07 75.4463L147.887 83.1177Z" fill="url(#paint13_linear)"/>
<path d="M161.024 105.692L160.8 105.823L128.773 124.46L128.549 124.59L100.464 140.934C100.557 141.024 100.65 141.114 100.743 141.204L128.737 124.913L128.961 124.783L160.988 106.146L161.212 106.016L176.308 97.2313C176.255 97.1178 176.201 97.0049 176.148 96.8914L161.024 105.692Z" fill="url(#paint14_linear)"/>
<path d="M157.271 99.2422L157.046 99.3728L125.02 118.01L124.796 118.14L94.8762 135.551C94.9703 135.64 95.0648 135.728 95.1595 135.819L124.984 118.463L125.208 118.333L157.235 99.696L157.459 99.5654L172.821 90.6259C172.758 90.5187 172.695 90.411 172.631 90.3037L157.271 99.2422Z" fill="url(#paint15_linear)"/>
<path d="M153.517 92.7927L153.293 92.9233L121.266 111.56L121.042 111.69L89.1287 130.262C89.2273 130.349 89.3272 130.433 89.4263 130.521L121.231 112.014L121.454 111.884L153.481 93.2465L153.706 93.1159L168.711 84.3839C168.638 84.2824 168.566 84.1799 168.491 84.0795L153.517 92.7927Z" fill="url(#paint16_linear)"/>
<path d="M149.764 86.3423L149.539 86.4729L117.512 105.11L117.289 105.24L85.261 123.878L85.0375 124.008L83.0101 125.188C83.1159 125.27 83.2248 125.35 83.3311 125.433L85.2256 124.331L85.4491 124.201L117.477 105.563L117.701 105.433L149.728 86.7961L149.952 86.6655L163.968 78.5092C163.883 78.4145 163.798 78.3199 163.712 78.2257L149.764 86.3423Z" fill="url(#paint17_linear)"/>
<path d="M146.011 79.892L145.786 80.0227L113.759 98.6597L113.536 98.7898L81.5078 117.427L81.2842 117.557L76.2931 120.462C76.4124 120.537 76.5302 120.611 76.6486 120.687L81.4718 117.88L81.6953 117.75L113.723 99.1121L113.947 98.982L145.974 80.345L146.198 80.2144L158.544 73.0299C158.448 72.942 158.35 72.8555 158.253 72.7681L146.011 79.892Z" fill="url(#paint18_linear)"/>
<path d="M177.915 134.719L177.691 134.85L145.664 153.487L145.44 153.617L129.284 163.019C129.423 163.082 129.562 163.146 129.7 163.208L145.627 153.94L145.85 153.81L177.877 135.173L178.102 135.042L183.114 132.126C183.126 131.976 183.134 131.826 183.145 131.676L177.915 134.719Z" fill="url(#paint19_linear)"/>
<path d="M174.162 128.269L173.938 128.4L141.911 147.037L141.687 147.167L121.679 158.81C121.796 158.885 121.91 158.965 122.028 159.038L141.875 147.489L142.098 147.359L174.125 128.722L174.35 128.591L183.171 123.458C183.162 123.32 183.15 123.182 183.139 123.045L174.162 128.269Z" fill="url(#paint20_linear)"/>
<path d="M170.408 121.819L170.184 121.95L138.157 140.587L137.933 140.717L115.038 154.04C115.143 154.123 115.247 154.207 115.353 154.289L138.12 141.04L138.344 140.91L170.371 122.273L170.595 122.142L182.156 115.415C182.132 115.285 182.111 115.154 182.087 115.023L170.408 121.819Z" fill="url(#paint21_linear)"/>
<path d="M166.654 115.368L166.43 115.499L134.403 134.136L134.179 134.266L108.981 148.93C109.078 149.017 109.176 149.104 109.273 149.191L134.367 134.588L134.591 134.458L166.618 115.821L166.842 115.691L180.339 107.836C180.303 107.713 180.264 107.593 180.227 107.47L166.654 115.368Z" fill="url(#paint22_linear)"/>
<path d="M179.792 137.944L179.567 138.075L147.541 156.712L147.317 156.842L133.646 164.798C133.8 164.853 133.956 164.904 134.111 164.959L147.505 157.165L147.728 157.034L179.755 138.397L179.98 138.267L182.509 136.795C182.537 136.635 182.564 136.475 182.591 136.315L179.792 137.944Z" fill="url(#paint23_linear)"/>
<path d="M176.038 131.494L175.814 131.624L143.787 150.261L143.564 150.392L125.317 161.01C125.444 161.08 125.573 161.148 125.7 161.218L143.75 150.714L143.974 150.584L176.001 131.947L176.225 131.817L183.299 127.7C183.3 127.555 183.304 127.41 183.303 127.266L176.038 131.494Z" fill="url(#paint24_linear)"/>
<path d="M172.285 125.044L172.061 125.175L140.034 143.812L139.81 143.942L118.266 156.479C118.377 156.558 118.49 156.636 118.601 156.715L139.998 144.264L140.221 144.134L172.248 125.497L172.473 125.366L182.773 119.373C182.755 119.239 182.739 119.105 182.721 118.971L172.285 125.044Z" fill="url(#paint25_linear)"/>
<path d="M168.532 118.594L168.307 118.725L136.28 137.362L136.057 137.492L111.948 151.521C112.049 151.607 112.153 151.69 112.254 151.775L136.244 137.814L136.468 137.684L168.495 119.047L168.719 118.917L181.343 111.571C181.312 111.444 181.281 111.32 181.25 111.194L168.532 118.594Z" fill="url(#paint26_linear)"/>
<path d="M164.778 112.144L164.554 112.274L132.527 130.911L132.303 131.041L106.091 146.295C106.187 146.383 106.282 146.472 106.378 146.561L132.492 131.364L132.716 131.234L164.743 112.597L164.967 112.466L179.162 104.206C179.12 104.086 179.076 103.968 179.033 103.848L164.778 112.144Z" fill="url(#paint27_linear)"/>
<path d="M181.49 141.274L181.444 141.3L149.417 159.937L149.194 160.067L138.526 166.275C138.701 166.319 138.878 166.359 139.055 166.4L149.382 160.391L149.605 160.261L181.34 141.793C181.391 141.62 181.441 141.448 181.49 141.274Z" fill="url(#paint28_linear)"/>
<path d="M152.947 166.517L151.228 167.518C151.513 167.499 151.798 167.478 152.082 167.453L153.135 166.84L153.359 166.71L175.534 153.806C175.708 153.563 175.883 153.319 176.051 153.072L153.171 166.387L152.947 166.517Z" fill="url(#paint29_linear)"/>
<path d="M151.071 163.293L144.173 167.308C144.379 167.332 144.585 167.359 144.79 167.38L151.258 163.616L151.482 163.486L179.303 147.296C179.39 147.105 179.47 146.911 179.554 146.719L151.294 163.163L151.071 163.293Z" fill="url(#paint30_linear)"/>
<path d="M59.4929 35.2592L46.9186 42.5764C46.4403 42.9833 45.9692 43.4005 45.5089 43.8282L61.2023 34.6959C60.6282 34.8701 60.0583 35.0576 59.4929 35.2592Z" fill="url(#paint31_linear)"/>
<path d="M42.0588 50.1526L42.2824 50.0225L71.1992 33.1953C70.9501 33.1948 70.7005 33.1934 70.4523 33.1984L42.0957 49.6996L41.8721 49.8297L39.0421 51.4766C38.8897 51.7083 38.7363 51.9382 38.5886 52.1719L42.0588 50.1526Z" fill="url(#paint32_linear)"/>
<path d="M60.8264 82.4041L61.05 82.274L93.0779 63.6364L93.3014 63.5063L116.583 49.9581C116.439 49.8979 116.295 49.8372 116.152 49.7765L93.1142 63.1826L92.8907 63.3127L60.8628 81.9503L60.6392 82.0804L36.1344 96.3402C36.1818 96.4568 36.2311 96.5724 36.2794 96.6885L60.8264 82.4041Z" fill="url(#paint33_linear)"/>
<path d="M57.0729 75.9543L57.2965 75.8242L89.3243 57.1866L89.5479 57.0565L108.045 46.2926C107.905 46.2298 107.765 46.167 107.626 46.1042L89.3607 56.7328L89.1372 56.8629L57.1093 75.5005L56.8857 75.6306L33.7573 89.0894C33.7895 89.2149 33.8252 89.3383 33.8574 89.4638L57.0729 75.9543Z" fill="url(#paint34_linear)"/>
<path d="M53.3194 69.5045L53.543 69.3744L85.5708 50.7368L85.7944 50.6067L99.8537 42.4253C99.7192 42.3594 99.5856 42.2929 99.4516 42.2279L85.6077 50.2839L85.3842 50.414L53.3563 69.0515L53.1328 69.1816L32.3665 81.2659C32.3808 81.4018 32.3918 81.5385 32.4069 81.6739L53.3194 69.5045Z" fill="url(#paint35_linear)"/>
<path d="M49.5662 63.0539L49.7897 62.9238L81.8176 44.2862L82.0412 44.1561L91.7154 38.5265C91.5764 38.4632 91.4374 38.3998 91.2989 38.3374L81.8536 43.8338L81.63 43.9639L49.6022 62.6015L49.3786 62.7316L32.184 72.7374C32.1744 72.8861 32.1652 73.0356 32.157 73.1846L49.5662 63.0539Z" fill="url(#paint36_linear)"/>
<path d="M45.8121 56.6034L46.0357 56.4733L78.0636 37.8358L78.2871 37.7057L82.7979 35.0808C82.6341 35.0307 82.4692 34.9848 82.3042 34.9366L78.0995 37.3833L77.876 37.5134L45.8481 56.151L45.6246 56.2811L33.7775 63.1751C33.7296 63.3448 33.686 63.5156 33.6401 63.6866L45.8121 56.6034Z" fill="url(#paint37_linear)"/>
<path d="M58.9497 79.1795L59.1733 79.0494L91.2011 60.4118L91.4247 60.2817L112.283 48.1436C112.141 48.0824 111.997 48.0217 111.856 47.9599L91.2375 59.9579L91.0139 60.088L58.9861 78.7256L58.7625 78.8557L34.835 92.7796C34.8743 92.9009 34.9123 93.0218 34.953 93.1435L58.9497 79.1795Z" fill="url(#paint38_linear)"/>
<path d="M55.1964 72.7291L55.42 72.599L87.4478 53.9614L87.6714 53.8313L103.9 44.3877C103.764 44.3228 103.628 44.2573 103.493 44.1919L87.4842 53.5076L87.2606 53.6377L55.2328 72.2753L55.0092 72.4053L32.9312 85.2529C32.9553 85.3831 32.9789 85.5124 33.0035 85.6435L55.1964 72.7291Z" fill="url(#paint39_linear)"/>
<path d="M51.4428 66.279L51.6663 66.1489L83.6942 47.5113L83.9177 47.3812L95.8231 40.4532C95.6877 40.3878 95.5523 40.3224 95.4174 40.2579L83.7311 47.0584L83.5075 47.1885L51.4797 65.826L51.2561 65.9561L32.0997 77.1036C32.1031 77.2458 32.1052 77.3877 32.1095 77.5294L51.4428 66.279Z" fill="url(#paint40_linear)"/>
<path d="M47.6894 59.8291L47.913 59.699L79.9408 41.0614L80.1644 40.9313L87.4262 36.7056C87.2782 36.6475 87.1314 36.5874 86.9845 36.5311L79.9768 40.609L79.7533 40.7391L47.7254 59.3767L47.5019 59.5068L32.7009 68.1197C32.6756 68.2786 32.6457 68.4379 32.6209 68.5977L47.6894 59.8291Z" fill="url(#paint41_linear)"/>
<path d="M43.9359 53.3784L44.1595 53.2483L76.1873 34.6107L76.4109 34.4806L77.5853 33.7972C77.3945 33.7627 77.2035 33.7297 77.0134 33.6985L76.2233 34.1583L75.9997 34.2884L43.9719 52.9259L43.7483 53.056L35.6704 57.7567C35.5898 57.9466 35.5093 58.1365 35.4315 58.3272L43.9359 53.3784Z" fill="url(#paint42_linear)"/>
<path d="M66.157 122.475L65.9308 122.175L60.3247 125.438C60.4377 125.516 60.5519 125.593 60.6658 125.67L66.157 122.475Z" fill="url(#paint43_linear)"/>
<path d="M61.6214 116.48L61.3943 116.18L53.9593 120.507C54.0588 120.593 54.1574 120.68 54.2573 120.765L61.6214 116.48Z" fill="url(#paint44_linear)"/>
<path d="M64.5799 88.8546L64.8034 88.7245L96.8313 70.0869L97.0548 69.9568L125.22 53.5669C125.077 53.5062 124.934 53.445 124.791 53.3842L96.8676 69.6331L96.6441 69.7632L64.6162 88.4008L64.3927 88.5309L39.3976 103.076C39.4594 103.184 39.523 103.291 39.5857 103.399L64.5799 88.8546Z" fill="url(#paint45_linear)"/>
<path d="M63.8897 119.477L63.6626 119.178L57.0473 123.027C57.154 123.109 57.2602 123.191 57.3668 123.273L63.8897 119.477Z" fill="url(#paint46_linear)"/>
<path d="M51.341 118.145L59.3524 113.483L59.1263 113.183L51.0565 117.879C51.1501 117.967 51.2469 118.055 51.341 118.145Z" fill="url(#paint47_linear)"/>
<path d="M66.4571 92.0802L66.6807 91.9501L98.7085 73.3126L98.9321 73.1825L129.485 55.4033C129.344 55.341 129.202 55.2792 129.061 55.2175L98.7449 72.8587L98.5213 72.9888L66.4935 91.6264L66.2699 91.7565L41.3467 106.26C41.4148 106.364 41.4811 106.47 41.55 106.574L66.4571 92.0802Z" fill="url(#paint48_linear)"/>
<path d="M37.8225 100.109L62.7045 85.6301L62.928 85.5L94.9559 66.8624L95.1795 66.7323L120.91 51.7594C120.765 51.6992 120.621 51.639 120.477 51.5788L94.9914 66.4091L94.7678 66.5392L62.7399 85.1768L62.5164 85.3069L37.6596 99.7715C37.7142 99.8839 37.767 99.9974 37.8225 100.109Z" fill="url(#paint49_linear)"/>
<path d="M70.6933 128.469L70.4662 128.17L67.4845 129.905C67.6109 129.976 67.7365 130.047 67.8633 130.116L70.6933 128.469Z" fill="url(#paint50_linear)"/>
<path d="M72.9606 131.467L72.733 131.167L71.3809 131.954C71.5145 132.021 71.6472 132.088 71.7808 132.154L72.9606 131.467Z" fill="url(#paint51_linear)"/>
<path d="M63.8022 127.731C63.9215 127.806 64.0411 127.88 64.1613 127.954L68.4252 125.473L68.1981 125.173L63.8022 127.731Z" fill="url(#paint52_linear)"/>
<g filter="url(#filter2_d)">
<path d="M38.3674 102.938C41.5675 103.528 44.4047 105.835 45.6395 108.85C48.2657 115.262 43.6597 122.528 44.8732 129.346C45.2608 131.527 46.2328 133.805 45.4146 135.858C44.4534 138.266 41.2912 139.155 38.8077 138.392C36.324 137.631 34.408 135.669 32.7178 133.693C29.4816 129.91 26.5768 125.664 25.4321 120.822C23.5064 112.687 28.331 101.088 38.3674 102.938Z" fill="url(#paint53_linear)"/>
</g>
<g filter="url(#filter3_d)">
<path d="M45.0507 52.8015C43.4537 50.5693 43.5642 47.226 45.416 45.1776C47.2681 43.13 50.7215 42.7092 52.9114 44.3682C54.1545 45.3098 54.9523 46.9429 54.5706 48.4582C54.2491 49.7349 53.2424 50.5883 52.3196 51.4502C51.5099 52.2057 51.0649 53.0486 50.3936 53.8939C48.8691 55.814 46.2258 54.4437 45.0507 52.8015Z" fill="url(#paint54_linear)"/>
</g>
<g filter="url(#filter4_d)">
<path d="M39.5607 143.611C40.1002 143.104 40.9171 142.887 41.6069 143.137C42.4494 143.441 42.9627 144.431 42.7793 145.317C42.5949 146.203 41.7689 146.903 40.8739 146.982C38.754 147.17 38.1124 144.977 39.5607 143.611Z" fill="url(#paint55_linear)"/>
</g>
<g filter="url(#filter5_d)">
<path d="M60.3267 155.395C63.129 152.758 67.3721 151.632 70.9553 152.928C75.3319 154.512 77.9978 159.654 77.0455 164.256C76.0872 168.86 71.797 172.491 67.1478 172.902C56.1361 173.881 52.8038 162.487 60.3267 155.395Z" fill="url(#paint56_linear)"/>
</g>
<g filter="url(#filter6_d)">
<path d="M21.7661 82.4528C23.4283 80.8888 25.945 80.2207 28.0703 80.9897C30.6662 81.9291 32.2475 84.979 31.6826 87.7083C31.1143 90.4389 28.5696 92.5927 25.8119 92.8364C19.2805 93.4173 17.3041 86.6592 21.7661 82.4528Z" fill="url(#paint57_linear)"/>
</g>
<g filter="url(#filter7_d)">
<path d="M51.0341 57.9354C50.834 58.2963 48.9782 59.6182 48.5698 59.6028C48.0711 59.584 47.7018 58.483 47.6487 57.9819C47.5962 57.4804 47.9158 56.9694 48.3773 56.7756C49.47 56.3159 51.5708 56.9654 51.0341 57.9354Z" fill="url(#paint58_linear)"/>
</g>
<g filter="url(#filter8_d)">
<path d="M172.329 109.257C172.869 108.749 173.686 108.532 174.376 108.782C175.218 109.087 175.731 110.077 175.548 110.963C175.364 111.849 174.538 112.548 173.643 112.627C171.523 112.816 170.881 110.622 172.329 109.257Z" fill="url(#paint59_linear)"/>
</g>
<g filter="url(#filter9_d)">
<path d="M172.577 115.012C170.626 115.303 168.955 116.645 166.995 116.876C164.82 117.133 162.386 116.026 160.531 117.168C159.159 118.013 158.698 119.892 159.161 121.438C159.624 122.984 160.833 124.217 162.179 125.126C164.98 127.016 168.626 127.723 171.839 126.731C174.872 125.793 177.604 123.091 178.358 119.97C179.082 116.977 175.306 114.606 172.577 115.012Z" fill="url(#paint60_linear)"/>
</g>
<g filter="url(#filter10_d)">
<path d="M47.8215 104.423C48.7575 103.803 50.1918 104.185 50.7167 105.177C51.2423 106.17 50.7705 107.55 49.759 108.036C48.7469 108.522 47.3908 108.047 46.8796 107.047C46.3684 106.047 46.7622 104.691 47.7157 104.098" fill="url(#paint61_linear)"/>
</g>
<path d="M178.889 132.982C178.889 132.982 183.385 129.677 179.853 120.622C176.321 111.568 170.076 115.696 172.212 120.176C173.601 123.091 181.009 125.049 178.889 132.982Z" fill="#115A61"/>
<path d="M178.889 132.982C178.889 132.982 184.061 130.705 184.622 125.824C185.183 120.943 181.072 116.063 187.623 108.742C194.173 101.422 181.603 99.6417 179.383 111.311C176.879 124.476 183.256 125.182 178.889 132.982Z" fill="#23686F"/>
<path d="M176.174 151.447H182.998L188.818 133.601C188.917 133.296 188.689 132.982 188.368 132.982H171.892C171.581 132.982 171.356 133.276 171.435 133.576L176.174 151.447Z" fill="#F8AA6D"/>
<path d="M169.996 139.566C169.996 139.566 165.661 123.769 166.143 115.774C166.624 107.78 169.996 133.402 169.996 133.402C169.996 133.402 170.8 104.89 172.517 103.252C174.234 101.614 171.537 131.861 171.537 131.861C171.537 131.861 174.715 103.638 177.991 100.941C181.266 98.2437 173.133 131.958 173.133 131.958C173.133 131.958 178.858 113.367 179.917 113.174C180.976 112.981 174.716 132.485 174.716 132.485C174.716 132.485 179.609 118.858 180.919 118.858C182.229 118.858 173.512 139.566 173.512 139.566H169.996V139.566Z" fill="#2E365C"/>
<path d="M169.75 151.491H174.236L177.991 139.974C178.091 139.668 177.863 139.354 177.542 139.354H167.146C166.835 139.354 166.609 139.648 166.689 139.948L169.75 151.491Z" fill="#F0D1B1"/>
<path d="M179.383 132.789C179.383 132.789 188.329 130.32 189.228 123.256C190.127 116.192 193.415 116.513 192.959 113.11C192.503 109.706 186.484 110.493 185.632 117.943C184.808 125.152 183.794 130.12 179.383 132.789Z" fill="#23686F"/>
<path d="M186.563 136.211H175.726C175.611 136.211 175.518 136.118 175.518 136.003C175.518 135.888 175.612 135.795 175.726 135.795H186.563C186.678 135.795 186.771 135.888 186.771 136.003C186.772 136.118 186.678 136.211 186.563 136.211Z" fill="#E68E53"/>
<path d="M187.912 118.15C187.894 118.15 187.876 118.148 187.858 118.143C187.746 118.113 187.681 117.999 187.711 117.887C188.077 116.519 188.432 115.693 189.457 114.704C189.541 114.626 189.672 114.627 189.752 114.71C189.832 114.793 189.829 114.925 189.747 115.005C188.877 115.844 188.511 116.515 188.113 117.995C188.089 118.088 188.004 118.15 187.912 118.15Z" fill="#115A61"/>
<path d="M185.183 127.287C185.138 127.287 185.092 127.272 185.054 127.242C184.963 127.17 184.949 127.039 185.02 126.949C186.164 125.509 186.522 123.605 186.869 121.764L186.996 121.098C187.017 120.985 187.123 120.912 187.24 120.933C187.354 120.956 187.427 121.065 187.405 121.178L187.279 121.841C186.923 123.733 186.555 125.688 185.346 127.209C185.306 127.26 185.244 127.287 185.183 127.287Z" fill="#115A61"/>
<path d="M182.575 127.554C182.559 127.554 182.544 127.552 182.529 127.549C182.416 127.523 182.346 127.411 182.371 127.299C182.889 125.032 182.416 122.709 181.959 120.462C181.626 118.829 181.313 117.286 181.358 115.781C181.48 111.755 183.283 107.846 185.952 105.821C186.044 105.753 186.174 105.77 186.244 105.861C186.314 105.953 186.295 106.084 186.204 106.153C183.631 108.105 181.893 111.888 181.775 115.793C181.73 117.249 182.04 118.769 182.367 120.378C182.833 122.667 183.314 125.035 182.779 127.391C182.756 127.488 182.67 127.554 182.575 127.554Z" fill="#115A61"/>
<path d="M181.753 129.894C181.71 129.894 181.667 129.88 181.63 129.853C181.537 129.785 181.517 129.655 181.586 129.561C181.846 129.206 182.063 128.818 182.231 128.409C182.275 128.302 182.399 128.25 182.503 128.296C182.61 128.339 182.661 128.461 182.618 128.568C182.436 129.009 182.202 129.425 181.921 129.808C181.88 129.864 181.818 129.894 181.753 129.894Z" fill="#115A61"/>
<path d="M175.727 141.439H168.508C168.393 141.439 168.3 141.346 168.3 141.231C168.3 141.116 168.394 141.022 168.508 141.022H175.727C175.842 141.022 175.935 141.116 175.935 141.231C175.935 141.346 175.842 141.439 175.727 141.439Z" fill="#D9B38D"/>
<path d="M160.505 143.787C160.505 143.787 159.47 146.812 161.136 150.22C162.801 153.628 164.262 155.568 162.596 155.471C160.93 155.374 155.84 148.558 155.748 143.787H160.505Z" fill="#F8AA6D"/>
<path d="M42.8085 143.787C42.8085 143.787 43.8439 146.812 42.1782 150.22C40.5125 153.628 39.0522 155.568 40.7179 155.471C42.3836 155.374 47.4733 148.558 47.5659 143.787H42.8085Z" fill="#F8AA6D"/>
<path d="M161.207 125.884H42.7208V143.788H161.207V125.884Z" fill="#6294BD"/>
<path d="M162.487 130.028C162.487 130.028 166.976 101.693 158.732 90.6152C150.489 79.5377 140.984 85.7344 130.808 85.7176C122.918 85.705 113.424 80.6699 103.736 81.0541C102.892 81.0878 102.05 81.0878 101.206 81.0541C91.5182 80.6699 82.0237 85.7043 74.134 85.7176C63.9567 85.7344 54.4531 79.537 46.2093 90.6152C37.9655 101.693 42.4544 130.028 42.4544 130.028H162.487Z" fill="#6294BD"/>
<path d="M160.671 143.787C160.671 143.787 167.702 143.572 169.027 133.923C170.352 124.274 176.364 119.556 174.122 112.694C171.88 105.832 161.69 106.69 160.671 113.766C159.651 120.843 160.671 143.787 160.671 143.787Z" fill="#6294BD"/>
<path d="M43.2774 143.787C43.2774 143.787 36.2458 143.572 34.9215 133.923C33.5965 124.274 27.5842 119.556 29.8262 112.694C32.0682 105.832 42.2581 106.69 43.2774 113.766C44.2961 120.843 43.2774 143.787 43.2774 143.787Z" fill="#6294BD"/>
<path d="M39.3424 117.785C39.3424 118.788 38.5291 119.602 37.5259 119.602C36.5227 119.602 35.7095 118.788 35.7095 117.785C35.7095 116.782 36.5227 115.969 37.5259 115.969C38.5291 115.969 39.3424 116.782 39.3424 117.785Z" fill="#F8AA6D"/>
<path d="M168.218 117.785C168.218 118.788 167.405 119.602 166.401 119.602C165.398 119.602 164.585 118.788 164.585 117.785C164.585 116.782 165.398 115.969 166.401 115.969C167.405 115.969 168.218 116.782 168.218 117.785Z" fill="#F8AA6D"/>
<path d="M37.3808 119.119C37.3156 119.119 37.2504 119.112 37.188 119.1C37.0758 119.076 37.0022 118.966 37.0254 118.854C37.0485 118.741 37.1572 118.666 37.2714 118.691C37.5414 118.744 37.8155 118.589 37.976 118.423C38.1863 118.205 38.3139 117.902 38.4107 117.634C38.4499 117.526 38.5698 117.47 38.6778 117.51C38.7857 117.549 38.8425 117.669 38.8033 117.777C38.6911 118.085 38.5411 118.438 38.2754 118.713C38.0244 118.973 37.6949 119.119 37.3808 119.119Z" fill="#E68E53"/>
<path d="M166.176 119.047C166.109 119.047 166.042 119.04 165.976 119.028C165.864 119.007 165.789 118.898 165.81 118.785C165.832 118.672 165.941 118.596 166.055 118.619C166.293 118.666 166.568 118.573 166.788 118.375C166.977 118.206 167.13 117.968 167.271 117.625C167.315 117.519 167.433 117.466 167.543 117.511C167.649 117.555 167.7 117.677 167.657 117.783C167.491 118.186 167.304 118.472 167.067 118.685C166.807 118.918 166.485 119.047 166.176 119.047Z" fill="#E68E53"/>
<path d="M147.957 134.519H52.9689C52.8539 134.519 52.7607 134.426 52.7607 134.311C52.7607 134.196 52.8546 134.103 52.9689 134.103H147.956C148.071 134.103 148.165 134.196 148.165 134.311C148.165 134.426 148.071 134.519 147.957 134.519Z" fill="#3F7DB0"/>
<path d="M145.914 119.119H50.9267C50.8117 119.119 50.7185 119.025 50.7185 118.91C50.7185 118.795 50.8124 118.702 50.9267 118.702H145.914C146.029 118.702 146.122 118.795 146.122 118.91C146.122 119.025 146.029 119.119 145.914 119.119Z" fill="#3F7DB0"/>
<path d="M49.5617 134.519C47.7418 134.519 46.4778 134.064 45.8068 133.165C45.056 132.162 45.3196 130.966 45.3757 130.752C45.3694 130.168 45.274 121.149 45.1093 117.757C44.9452 114.365 43.6406 113.046 43.6279 113.033C43.5466 112.953 43.5452 112.821 43.6244 112.739C43.7037 112.657 43.8348 112.654 43.9182 112.734C43.9771 112.791 45.3526 114.163 45.5257 117.737C45.6954 121.234 45.7914 130.682 45.7921 130.778L45.7837 130.838C45.7802 130.849 45.4556 132.006 46.142 132.92C46.7315 133.705 47.882 134.103 49.5603 134.103C49.6753 134.103 49.7685 134.197 49.7685 134.312C49.7699 134.426 49.676 134.519 49.5617 134.519Z" fill="#3F7DB0"/>
<path d="M153.941 134.519C153.826 134.519 153.733 134.426 153.733 134.311C153.733 134.196 153.827 134.103 153.941 134.103C155.62 134.103 156.771 133.704 157.36 132.919C158.047 132.005 157.722 130.849 157.719 130.837L157.71 130.777C157.711 130.682 157.807 121.233 157.976 117.736C158.149 114.162 159.525 112.79 159.584 112.733C159.668 112.653 159.799 112.656 159.877 112.738C159.957 112.82 159.955 112.952 159.874 113.032C159.86 113.045 158.556 114.365 158.392 117.756C158.228 121.148 158.134 130.167 158.127 130.751C158.183 130.965 158.446 132.161 157.696 133.164C157.025 134.064 155.762 134.519 153.941 134.519Z" fill="#3F7DB0"/>
<path d="M74.6485 94.1887C74.5412 94.1887 74.4487 94.106 74.441 93.9967C74.4319 93.8817 74.5174 93.7814 74.6324 93.7723C78.2576 93.4835 81.7573 92.5378 85.034 90.9604C85.1392 90.9099 85.2626 90.9541 85.3123 91.0578C85.3621 91.1616 85.3179 91.2864 85.2149 91.3361C81.8919 92.936 78.3424 93.8957 74.6646 94.188C74.659 94.1887 74.6541 94.1887 74.6485 94.1887Z" fill="#3F7DB0"/>
<path d="M46.3151 106.578C46.3032 106.578 46.2899 106.577 46.2765 106.575C46.163 106.554 46.0894 106.445 46.1097 106.332C46.5114 104.164 47.2896 102.104 48.4218 100.209C48.4814 100.11 48.609 100.077 48.7078 100.138C48.8074 100.197 48.8389 100.325 48.78 100.424C47.6724 102.276 46.9124 104.289 46.5198 106.408C46.5016 106.508 46.4133 106.578 46.3151 106.578Z" fill="#3F7DB0"/>
<path d="M30.0786 138.902C30.094 138.746 31.2711 138.198 31.6517 138.47C32.1607 138.835 30.0267 139.43 30.0786 138.902Z" fill="#2E365C"/>
<path d="M87.8443 80.8137C87.8443 80.8137 92.1096 80.3107 94.7887 80.9952C97.4685 81.6798 95.2089 82.1122 93.4631 82.0535C91.7172 81.9949 91.8228 82.2035 93.1687 82.512C94.5146 82.8205 94.5594 83.7773 91.3169 82.9209C88.0744 82.0645 87.4938 82.9352 87.3085 82.6413C87.1225 82.3479 87.8443 80.8137 87.8443 80.8137Z" fill="#FBD3AE"/>
<path d="M13.3996 148.308C13.3996 148.308 12.5654 150.81 12.7743 152.062C12.9825 153.313 9.71624 153.869 7.00524 154.564C4.29494 155.258 -0.570427 156.075 0.0549196 154.824C0.680266 153.573 8.11572 153.157 9.67348 148.443C10.8295 144.945 13.3996 148.308 13.3996 148.308Z" fill="#FBD3AE"/>
<path d="M32.7216 147.057C32.7216 147.057 33.5558 149.698 33.5558 151.992C33.5558 154.286 29.0382 157.761 26.2578 157.761C23.4774 157.761 25.6324 156.857 27.0226 155.12C28.4128 153.383 30.359 151.645 30.2896 148.587C30.2195 145.528 32.7216 147.057 32.7216 147.057Z" fill="#FBD3AE"/>
<path d="M27.4117 148.365C27.5603 148.847 27.7173 149.838 29.7329 149.282C31.7484 148.726 34.3199 147.961 34.3199 146.293C34.3199 144.625 30.0806 127.354 31.0186 125.477C31.9567 123.6 39.7763 117.763 47.5952 114.217C55.4142 110.672 41.027 102.645 35.0848 105.043C29.1426 107.441 21.6013 119.951 20.9065 121.759C20.2118 123.566 20.2812 125.095 20.2812 125.095C20.2812 125.095 7.97898 146.085 8.11849 147.475C8.2573 148.865 14.0957 149.073 14.9994 147.892C15.9031 146.711 22.8534 137.05 22.8534 137.05C22.8534 137.05 26.4365 145.213 27.4117 148.365Z" fill="#2E365C"/>
<path d="M61.8935 71.8311C61.8935 71.8311 52.5204 69.7549 46.4575 74.7205C40.3946 79.6861 32.0724 89.8629 32.0198 100.97C32.0198 100.97 34.6727 111.142 37.2621 112.868C39.8514 114.595 40.9193 109.737 41.2509 107.255C41.2509 107.255 43.3743 109.323 43.9086 110.794C44.4432 112.264 53.2087 107.882 57.042 99.3475C60.876 90.8132 62.8313 84.524 65.0056 84.8013C67.1798 85.0786 76.5841 90.6121 87.4194 83.8661C87.4194 83.8661 88.651 83.1835 88.6628 81.3155C88.6747 79.4475 87.3818 79.626 86.4445 79.6892C85.1614 79.7755 78.6262 81.836 74.9581 79.4245C71.2893 77.0129 69.276 74.1913 61.8935 71.8311Z" fill="#F46041"/>
<path d="M38 111.782C38 111.782 38.7747 112.965 39.7134 115.468C40.6521 117.97 40.8084 119.377 41.7983 118.335C42.7889 117.292 41.7121 114.227 41.7983 113.556C41.9126 112.667 42.198 114.391 43.0322 114.494C43.8665 114.599 42.0318 110.428 40.5161 110.046C39.0004 109.663 38 111.782 38 111.782Z" fill="#FBD3AE"/>
<path d="M60.3427 58.2246C60.3427 58.2246 63.6566 57.4443 64.4803 58.7314C65.3048 60.0186 65.5242 60.8353 65.4499 62.4421C65.3426 64.7542 66.6543 65.7364 66.6543 66.3954C66.6543 67.2788 65.4142 66.9983 65.1141 67.6027C64.8147 68.2063 64.8554 70.878 62.9759 71.4052C62.1444 71.6387 59.7615 71.7747 57.7859 69.0588C55.811 66.3435 53.7303 59.2488 60.3427 58.2246Z" fill="#FBD3AE"/>
<path d="M56.2793 64.5605C56.2793 64.5605 55.3392 72.1902 51.7112 73.0371C51.7112 73.0371 54.0086 74.7182 57.3933 74.4757C58.3327 74.4083 59.0513 73.6638 59.2476 72.7426C59.3976 72.0402 59.8414 71.3482 61.0157 71.3917C61.0164 71.3924 57.1809 68.7529 56.2793 64.5605Z" fill="#FBD3AE"/>
<path d="M64.4804 68.3944C64.0815 68.3944 63.4919 68.229 63.1462 67.5861C63.0916 67.4844 63.1294 67.3583 63.2311 67.3036C63.3306 67.2503 63.4582 67.2874 63.5129 67.3884C63.8943 68.0958 64.6045 67.9703 64.6339 67.964C64.7447 67.9436 64.8561 68.0165 64.8786 68.1287C64.8996 68.2416 64.8274 68.351 64.7145 68.3734C64.6486 68.386 64.5694 68.3944 64.4804 68.3944Z" fill="#F4A875"/>
<path d="M63.6461 64.1327C63.6307 64.5562 63.8361 64.9074 64.1046 64.9172C64.3731 64.927 64.6037 64.5919 64.6192 64.1685C64.6346 63.745 64.4292 63.3938 64.1607 63.384C63.8914 63.3742 63.6615 63.7093 63.6461 64.1327Z" fill="#2E365C"/>
<path d="M65.1562 60.0348C65.1562 60.0348 67.2839 59.9479 67.2481 58.4308C67.2124 56.9137 66.4931 55.7471 64.2602 56.2365C62.0266 56.7258 60.7984 55.3034 59.0717 55.0664C56.4504 54.7068 56.287 55.9252 56.287 55.9252C56.287 55.9252 54.1769 55.4597 53.5718 57.3203C52.9668 59.1809 55.0567 65.651 56.2611 65.8592C57.4655 66.0682 58.0544 62.8587 58.5234 62.7136C58.9924 62.5685 59.711 63.4034 60.6568 62.5713C61.6018 61.7391 58.8663 58.2787 65.1562 60.0348Z" fill="#2E365C"/>
<path d="M59.6556 62.9398C59.6556 62.9398 59.1298 60.7784 57.4515 61.3673C55.7739 61.9555 57.1935 65.0941 58.494 65.289C59.7944 65.4839 59.6556 62.9398 59.6556 62.9398Z" fill="#FBD3AE"/>
<path d="M57.4423 63.492C57.4409 63.492 57.4395 63.492 57.4381 63.492C57.3225 63.4899 57.2313 63.3946 57.2334 63.2789C57.2454 62.7019 57.4066 62.3374 57.713 62.1951C58.2107 61.9651 58.8305 62.4524 58.8999 62.5084C58.9889 62.5807 59.0022 62.7124 58.93 62.8015C58.8564 62.8912 58.7253 62.9038 58.637 62.8323C58.482 62.7068 58.0964 62.4755 57.8882 62.5736C57.7424 62.6409 57.6583 62.8947 57.6506 63.2873C57.6485 63.4016 57.5552 63.492 57.4423 63.492Z" fill="#F2B885"/>
<path d="M59.2413 68.7943C59.1915 68.7943 59.1417 68.7768 59.1018 68.741C59.0499 68.6948 57.8294 67.5843 57.8967 66.0819C57.9016 65.9697 57.9941 65.8828 58.1049 65.8828C58.1084 65.8828 58.1112 65.8828 58.114 65.8835C58.2297 65.8884 58.3187 65.9859 58.3138 66.1008C58.2549 67.4076 59.3696 68.4207 59.3808 68.4312C59.4663 68.5076 59.4733 68.6394 59.3969 68.7249C59.3556 68.7705 59.2988 68.7943 59.2413 68.7943Z" fill="#F2B885"/>
<path d="M142.324 146.428C142.324 146.428 141.073 151.294 141.073 153.865C141.073 156.436 134.296 158.792 133.115 158.653C131.934 158.514 138.154 155.116 138.536 153.031C138.918 150.946 139.266 145.177 139.266 145.177L142.324 146.428Z" fill="#FBD3AE"/>
<path d="M130.17 144.594C130.17 144.594 128.92 149.46 128.92 152.031C128.92 154.603 123.777 159.12 122.595 158.981C121.413 158.843 126.001 153.282 126.383 151.197C126.765 149.112 127.112 143.343 127.112 143.343L130.17 144.594Z" fill="#FBD3AE"/>
<path d="M153.426 89.4121C153.426 89.4121 150.855 89.4121 145.081 97.4161C140.876 103.245 131.18 106.294 132.966 109.108C134.924 112.193 141.953 109.526 145.289 107.232C148.625 104.939 155.997 95.9986 153.426 89.4121Z" fill="#2E365C"/>
<path d="M132.976 107.935C132.976 107.935 129.233 110.114 127.416 111.138C125.546 112.191 123.452 112.505 122.212 113.509C120.454 114.931 125.979 114.084 126.485 113.943C126.99 113.802 124.793 115.125 125.717 115.047C126.868 114.949 128.579 113.183 129.257 112.355C130.196 111.209 132.717 111.02 134.401 110.363C135.41 109.97 135.651 108.598 134.808 107.918C134.361 107.557 133.753 107.409 132.976 107.935Z" fill="#FBD3AE"/>
<path d="M159.005 112.729C159.005 112.729 162.63 123.483 149.809 127.515C143.326 129.553 145.438 146.173 141.546 147.55C140.683 147.855 138.527 148.261 138.065 146.853C136.443 141.909 135.59 131.338 137.645 126.318C140.286 119.869 153.207 112.73 153.207 112.73H159.005V112.729Z" fill="#DBAD7F"/>
<path d="M153.207 112.729C153.207 112.729 149.961 125.63 143.43 126.876C130.17 129.404 132.967 146.988 129.206 147.324C128.435 147.393 126.617 147.902 126.286 146.852C124.851 142.301 123.597 130.431 126.286 125.449C129.596 119.316 146.043 112.729 146.043 112.729H153.207Z" fill="#DBAD7F"/>
<path d="M160.464 88.4845C160.464 88.4845 172.94 93.4754 174.504 102.868C176.068 112.259 167.646 107.331 162.983 110.203C161.633 111.035 161.55 114.031 159.009 114.657C156.469 115.283 144.792 115.283 143.228 114.032C142.269 113.265 141.03 112.113 147.242 103.356C149.812 99.7338 141.432 102.333 154.177 88.596C154.177 88.5946 159.296 87.9587 160.464 88.4845Z" fill="#2E365C"/>
<path d="M153.207 85.4669C155.271 85.3646 154.776 88.2768 153.426 89.4118C153.426 89.4118 156.375 91.107 160.465 88.4843C157.199 87.3872 156.792 83.4619 156.792 83.4619L153.207 85.4669Z" fill="#FBD3AE"/>
<path d="M151.202 74.2441C151.202 74.2441 148.934 74.6003 149.473 78.8326C149.473 78.8326 149.563 79.8695 149.034 80.8909C149.034 80.8909 148.651 81.6936 149.682 81.8514C150.933 82.0427 150.194 84.2209 151.351 85.0272C153.003 86.1804 156.011 84.7972 156.523 84.1887C157.035 83.5795 158.583 74.7601 151.202 74.2441Z" fill="#FBD3AE"/>
<path d="M149.321 75.7954C149.321 75.7954 149.29 77.6952 153.439 80.6986C157.193 83.4173 152.99 88.7439 158.239 89.8804C165.491 91.4493 167.183 87.1785 162.534 83.4832C159.248 80.8717 161.422 73.2428 156.983 71.9521C153.214 70.8571 148.723 72.7703 149.321 75.7954Z" fill="#F8AA6D"/>
<path d="M150.855 83.0343C150.744 83.0343 150.651 82.9467 150.646 82.8345C150.641 82.7195 150.731 82.6221 150.846 82.6172C151.187 82.6025 151.394 82.2001 151.396 82.1958C151.448 82.0935 151.576 82.0514 151.675 82.1033C151.778 82.1545 151.821 82.2786 151.77 82.3816C151.757 82.4076 151.453 83.0084 150.864 83.0343C150.86 83.0343 150.858 83.0343 150.855 83.0343Z" fill="#F46041"/>
<path d="M150.297 79.4708C150.238 79.8424 150.381 80.174 150.617 80.2119C150.852 80.2497 151.092 79.9791 151.152 79.6069C151.211 79.2353 151.068 78.9037 150.832 78.8658C150.596 78.828 150.357 79.0993 150.297 79.4708Z" fill="#292E4E"/>
<path d="M165.897 108.429C165.74 108.955 165.338 109.375 164.824 109.567C163.498 110.064 160.67 111.267 159.954 112.728C159.009 114.656 159.467 116.406 157.869 118.004C156.27 119.602 156.924 114.312 157.014 113.795C157.105 113.277 156.005 115.595 155.992 114.668C155.976 113.512 157.564 111.635 158.32 110.88C159.661 109.539 162.229 107.477 165.101 106.461C165.45 106.338 165.829 106.542 165.937 106.896C166.046 107.251 166.096 107.761 165.897 108.429Z" fill="#FBD3AE"/>
<path d="M80.6355 127.562C80.6355 127.562 80.7456 135.948 82.1035 145.177C83.4615 154.406 79.8125 153.186 84.4317 156.371C89.2607 159.7 90.7756 158.571 88.6718 156.927C87.4589 155.979 85.1167 154.425 84.8236 152.258C84.478 149.702 88.6879 133.03 87.5276 129.672C86.3113 126.152 80.6355 127.562 80.6355 127.562Z" fill="#FBD3AE"/>
<path d="M70.6995 127.562C70.6995 127.562 70.8095 135.948 72.1675 145.177C73.5254 154.406 69.8764 153.186 74.4957 156.371C79.3246 159.7 80.8396 158.571 78.7357 156.927C77.5229 155.979 75.1806 154.425 74.8876 152.258C74.542 149.702 78.7519 133.03 77.5916 129.672C76.376 126.152 70.6995 127.562 70.6995 127.562Z" fill="#FBD3AE"/>
<path d="M76.4713 86.8514C76.4713 86.8514 65.8726 83.1554 64.6731 92.0799C62.7347 106.501 52.9465 123.79 68.1553 122.952C68.1553 122.952 63.5675 141.439 68.3299 141.44C72.4269 141.441 88.294 141.983 88.9887 139.759C88.9887 139.759 92.4239 114.425 79.7053 109.525C77.8152 108.797 77.9042 106.283 78.5429 102.479C78.6985 101.552 80.78 100.101 80.2227 98.8227C78.5548 95.0012 81.6206 86.137 76.4713 86.8514Z" fill="#23686F"/>
<path d="M78.3557 87.1787C78.3557 87.1787 82.4842 86.9733 83.3606 92.5467C84.2362 98.1202 85.7056 106.001 82.2424 107.978C78.7791 109.956 70.6153 107.383 68.1749 111.197C65.7345 115.012 63.6937 113.035 65.8263 109.99C68.9489 105.53 77.811 106.568 79.497 104.382C80.5872 102.969 80.7085 102.359 79.9485 97.7794C79.2187 94.1304 80.3677 91.0437 78.3557 87.1787Z" fill="#F7CAA1"/>
<path d="M73.4574 73.3612C73.4574 73.3612 78.3866 72.1 80.8319 75.3235C82.6883 77.7702 81.0008 78.507 83.798 81.3715C85.9363 83.5617 82.6224 86.2642 79.7718 83.5518C76.5056 80.444 73.4574 73.3612 73.4574 73.3612Z" fill="#292E4E"/>
<path d="M75.196 75.6772C75.196 75.6772 78.6151 74.1812 80.4063 77.3402C82.1463 80.4094 81.8343 82.1109 81.589 83.3567C81.3036 84.8058 80.9524 85.8412 80.0326 85.9429C79.1128 86.0445 74.7452 86.1371 72.9232 80.6471C71.1011 75.1564 75.196 75.6772 75.196 75.6772Z" fill="#FBD3AE"/>
<path d="M78.9691 85.9702C78.9691 85.9702 76.8617 85.6512 76.6381 87.4887C76.3948 89.4846 75.6475 93.4982 75.6475 93.4982L71.3906 86.5142C71.3906 86.5142 73.2302 86.0964 74.1521 83.8551C75.074 81.6131 78.9691 85.9702 78.9691 85.9702Z" fill="#FBD3AE"/>
<path d="M78.4847 73.5922C78.4847 73.5922 79.0799 76.7898 75.9721 79.9452C73.993 81.9545 77.3083 82.5434 77.3118 85.295C77.3153 88.0467 69.9703 88.0194 69.218 84.3626C68.4132 80.4507 70.8431 79.8576 70.3559 77.7909C69.8686 75.7241 71.3128 71.7863 78.4847 73.5922Z" fill="#292E4E"/>
<path d="M77.1317 80.3623C77.0721 80.7339 77.2151 81.0655 77.4514 81.1034C77.6876 81.1412 77.9267 80.8706 77.9863 80.4983C78.0459 80.1268 77.9028 79.7952 77.6666 79.7573C77.4303 79.7202 77.1913 79.9908 77.1317 80.3623Z" fill="#292E4E"/>
<path d="M80.2913 79.5128C80.2318 79.8844 80.3748 80.216 80.611 80.2539C80.8466 80.2917 81.0863 80.0204 81.1459 79.6489C81.2055 79.2773 81.0625 78.9457 80.8263 78.9078C80.59 78.87 80.3502 79.1406 80.2913 79.5128Z" fill="#292E4E"/>
<path d="M80.2093 82.5939C80.1483 82.5939 80.088 82.5672 80.0473 82.5167C79.9751 82.4277 79.9878 82.2966 80.0775 82.2237C80.1714 82.1466 80.4126 81.8935 80.4014 81.6446C80.3951 81.4904 80.2906 81.3432 80.0901 81.2058C79.0701 80.504 79.4879 79.1797 79.5068 79.1236C79.5426 79.0142 79.6597 78.9533 79.769 78.9904C79.8784 79.0255 79.9387 79.1432 79.9036 79.2526C79.8889 79.2968 79.565 80.3378 80.3264 80.8615C80.6418 81.0782 80.8066 81.3362 80.8185 81.6299C80.8381 82.1396 80.36 82.5315 80.3397 82.5476C80.3018 82.5784 80.2549 82.5939 80.2093 82.5939Z" fill="#F2B885"/>
<path d="M80.0417 83.6465C79.3155 83.6465 78.946 83.2595 78.9264 83.2384C78.8486 83.1543 78.8535 83.0225 78.9376 82.944C79.0203 82.8648 79.1528 82.8704 79.2306 82.9531C79.2489 82.9713 79.6723 83.3927 80.5549 83.1557C80.672 83.1256 80.7807 83.1915 80.8108 83.3029C80.841 83.4144 80.7751 83.5287 80.6643 83.5581C80.4336 83.6212 80.2268 83.6465 80.0417 83.6465Z" fill="#F46041"/>
<path d="M67.2488 87.2146C67.2488 87.2146 63.9251 88.4659 64.6738 96.076C65.4226 103.687 68.2317 108.1 72.5615 107.978C76.8905 107.857 82.4548 98.7743 85.5262 97.4192C88.5975 96.064 90.8914 95.9596 90.3698 94.8127C89.8482 93.6657 85.3572 94.0828 83.6929 95.5425C82.0293 97.0021 74.4228 103.617 72.5608 102.331C70.5634 100.953 72.5152 84.1916 67.2488 87.2146Z" fill="#FBD3AE"/>
<path d="M120.345 86.9155C120.321 86.9155 120.295 86.9113 120.271 86.9022C111.86 83.732 104.983 83.6717 104.914 83.671C104.799 83.6703 104.707 83.5771 104.707 83.4614C104.707 83.3464 104.8 83.2539 104.915 83.2539H104.915C104.985 83.2546 111.932 83.3135 120.417 86.5117C120.526 86.5524 120.579 86.6723 120.539 86.7802C120.508 86.8637 120.429 86.9155 120.345 86.9155Z" fill="#3F7DB0"/>
<path d="M138.381 87.9476C138.285 87.9476 138.198 87.881 138.177 87.7829C138.153 87.6707 138.224 87.5593 138.337 87.5354C138.399 87.5214 144.588 86.1978 148.573 86.4985C148.688 86.5077 148.774 86.6079 148.765 86.7222C148.756 86.8365 148.66 86.9241 148.542 86.9143C144.61 86.6135 138.487 87.9294 138.425 87.942C138.41 87.9462 138.395 87.9476 138.381 87.9476Z" fill="#3F7DB0"/>
<path d="M136.776 129.336C136.775 129.336 136.772 129.336 136.771 129.336C136.656 129.334 136.565 129.238 136.568 129.123C136.587 128.264 137.067 127.492 137.454 126.872C138.601 125.028 139.787 123.121 141.28 121.471C142.971 119.602 144.814 118.35 146.757 117.749C146.872 117.714 146.985 117.776 147.018 117.886C147.052 117.996 146.99 118.113 146.881 118.147C145.01 118.725 143.23 119.938 141.59 121.751C140.122 123.373 138.946 125.264 137.808 127.093C137.43 127.699 137.002 128.387 136.986 129.132C136.982 129.245 136.889 129.336 136.776 129.336Z" fill="#D4A270"/>
<path d="M78.2933 137.674C78.2891 137.674 78.2842 137.674 78.2793 137.674C78.1643 137.666 78.0774 137.567 78.0858 137.452C78.4419 132.017 79.9443 126.584 82.4302 121.741C82.4835 121.637 82.6076 121.598 82.7114 121.65C82.8137 121.703 82.8537 121.828 82.8018 121.931C80.3411 126.724 78.8541 132.101 78.5015 137.479C78.4945 137.589 78.402 137.674 78.2933 137.674Z" fill="#115A61"/>
<path d="M82.492 125.892C82.4661 125.892 82.4387 125.888 82.4128 125.877C82.3062 125.834 82.2558 125.712 82.2985 125.605C83.1047 123.632 83.5618 121.552 83.6558 119.424C83.6607 119.309 83.7504 119.223 83.8731 119.225C83.9888 119.23 84.0778 119.327 84.0729 119.443C83.9769 121.619 83.51 123.746 82.6848 125.763C82.6512 125.843 82.574 125.892 82.492 125.892Z" fill="#115A61"/>
<path d="M74.8869 100.241C73.9615 100.241 73.0466 99.7203 72.5832 98.9183C72.5265 98.8187 72.5594 98.6911 72.6597 98.6336C72.7564 98.5762 72.8861 98.6091 72.945 98.7101C73.3516 99.4146 74.1838 99.8458 74.9837 99.8226C75.1092 99.8079 75.1961 99.9061 75.2017 100.021C75.2066 100.136 75.1176 100.233 75.0033 100.239C74.9655 100.24 74.9262 100.241 74.8869 100.241Z" fill="#115A61"/>
<path d="M43.6035 110.682C43.5193 110.682 43.4408 110.631 43.4086 110.548C42.3058 107.69 41.6517 104.932 41.4652 102.351C41.3397 100.629 41.4141 98.9187 41.6847 97.2677C41.9118 95.8852 42.2834 94.514 42.643 93.1883L45.7172 81.8528C45.7473 81.742 45.8651 81.6768 45.973 81.7063C46.0838 81.7364 46.1497 81.8507 46.1196 81.9622L43.0468 93.2934C42.6893 94.6135 42.3205 95.9736 42.0969 97.3357C41.8305 98.9545 41.7583 100.631 41.881 102.321C42.0653 104.861 42.7103 107.578 43.7984 110.398C43.8397 110.505 43.7864 110.626 43.6785 110.667C43.6539 110.677 43.6287 110.682 43.6035 110.682Z" fill="#E34929"/>
<path d="M47.7951 111.292C47.7348 111.292 47.6745 111.265 47.6331 111.215C46.388 109.68 44.9866 108.259 43.4688 106.992C43.3798 106.919 43.3686 106.787 43.4422 106.699C43.5172 106.61 43.6483 106.599 43.7359 106.672C45.2747 107.956 46.6951 109.396 47.9577 110.952C48.0299 111.042 48.0166 111.173 47.9269 111.246C47.8876 111.277 47.8413 111.292 47.7951 111.292Z" fill="#E34929"/>
<path d="M56.5464 76.1588C56.3971 76.1588 56.2477 76.1476 56.0991 76.1252C55.9848 76.1083 55.907 76.0018 55.9239 75.8882C55.94 75.7746 56.0367 75.6933 56.1608 75.7129C57.0967 75.8531 58.1133 75.4479 58.6944 74.7027C58.7653 74.6123 58.8971 74.5947 58.9868 74.6663C59.0779 74.7371 59.0941 74.8682 59.0232 74.9593C58.4351 75.7143 57.4977 76.1588 56.5464 76.1588Z" fill="#E34929"/>
<path d="M61.0457 84.5247C60.9988 84.5247 60.9511 84.5085 60.9118 84.4763C60.8242 84.4027 60.8116 84.2709 60.8852 84.1826C61.5386 83.396 62.3182 82.737 63.2029 82.2245C63.3004 82.167 63.4293 82.1999 63.4868 82.3002C63.545 82.3998 63.5114 82.5273 63.4111 82.5855C62.5691 83.0742 61.8267 83.7009 61.2056 84.4497C61.1642 84.4987 61.1053 84.5247 61.0457 84.5247Z" fill="#E34929"/>
<path d="M145.578 106.45C145.517 106.45 145.456 106.423 145.415 106.371C145.343 106.281 145.358 106.15 145.449 106.078C146.291 105.408 147.061 104.73 147.244 103.818C147.365 103.206 147.202 102.59 147.027 101.938C146.901 101.464 146.771 100.975 146.753 100.474C146.698 98.9652 147.675 97.6058 148.388 96.6131C148.456 96.5191 148.587 96.4988 148.679 96.5654C148.773 96.6327 148.794 96.7631 148.728 96.8564C147.881 98.0348 147.125 99.1965 147.17 100.459C147.187 100.913 147.311 101.38 147.431 101.83C147.609 102.5 147.794 103.193 147.653 103.9C147.444 104.951 146.615 105.684 145.709 106.406C145.669 106.435 145.623 106.45 145.578 106.45Z" fill="#21294D"/>
<path d="M166.237 105.849C166.159 105.849 166.085 105.805 166.049 105.73C166 105.625 166.044 105.501 166.148 105.452C167.604 104.76 169.148 104.279 170.739 104.023C170.859 104.005 170.96 104.082 170.979 104.196C170.997 104.309 170.92 104.416 170.807 104.434C169.255 104.684 167.747 105.153 166.328 105.828C166.298 105.842 166.267 105.849 166.237 105.849Z" fill="#21294D"/>
<path d="M147.14 113.309C147.13 113.309 147.12 113.309 147.11 113.307L145.247 113.041C144.626 112.953 144.261 112.676 144.246 112.282C144.242 112.167 144.332 112.071 144.448 112.066C144.58 112.075 144.659 112.153 144.663 112.268C144.67 112.467 145 112.584 145.305 112.628L147.168 112.894C147.283 112.91 147.361 113.016 147.345 113.13C147.331 113.235 147.243 113.309 147.14 113.309Z" fill="#21294D"/>
<path d="M156.035 91.1195C155.864 91.1195 155.693 91.1111 155.525 91.0935C155.41 91.0823 155.327 90.9793 155.339 90.865C155.351 90.7507 155.435 90.6652 155.567 90.6792C156.234 90.7451 156.925 90.668 157.562 90.4493C157.673 90.4107 157.789 90.4703 157.827 90.579C157.864 90.6883 157.806 90.8068 157.697 90.844C157.165 91.0262 156.598 91.1195 156.035 91.1195Z" fill="#21294D"/>
<path d="M22.9796 136.527C22.8892 136.527 22.805 136.468 22.7791 136.377C21.8172 133.039 21.0727 129.601 20.5679 126.159L20.3008 124.341L21.0811 126.341C21.1085 126.413 21.0944 126.492 21.0475 126.548C21.5473 129.822 22.2645 133.087 23.1801 136.261C23.2116 136.372 23.1486 136.487 23.0378 136.519C23.0182 136.525 22.9985 136.527 22.9796 136.527Z" fill="#21294D"/>
<path d="M30.999 147.161C30.8869 147.161 30.7936 147.071 30.7908 146.958C30.7873 146.843 30.8791 146.747 30.9934 146.744C31.6468 146.727 32.2967 146.627 32.9248 146.447C33.0321 146.414 33.1506 146.48 33.1821 146.59C33.2137 146.701 33.1492 146.816 33.0384 146.848C32.3773 147.038 31.6931 147.143 31.0046 147.161C31.0025 147.161 31.0011 147.161 30.999 147.161Z" fill="#21294D"/>
<path d="M13.1879 147.173C12.681 147.173 12.1756 147.129 11.6778 147.041C11.5642 147.021 11.4885 146.913 11.5089 146.8C11.5285 146.687 11.6224 146.608 11.7507 146.631C12.3515 146.737 12.965 146.775 13.5784 146.747C13.7046 146.73 13.7908 146.831 13.7964 146.946C13.8013 147.061 13.7123 147.158 13.598 147.164C13.462 147.169 13.3253 147.173 13.1879 147.173Z" fill="#21294D"/>
<defs>
<filter id="filter0_d" x="11.7755" y="35.3438" width="188.149" height="156.636" filterUnits="userSpaceOnUse" color-interpolation-filters="sRGB">
<feFlood flood-opacity="0" result="BackgroundImageFix"/>
<feColorMatrix in="SourceAlpha" type="matrix" values="0 0 0 0 0 0 0 0 0 0 0 0 0 0 0 0 0 0 127 0" result="hardAlpha"/>
<feOffset dx="8" dy="8"/>
<feGaussianBlur stdDeviation="7"/>
<feColorMatrix type="matrix" values="0 0 0 0 0 0 0 0 0 0 0 0 0 0 0 0 0 0 0.25 0"/>
<feBlend mode="normal" in2="BackgroundImageFix" result="effect1_dropShadow"/>
<feBlend mode="normal" in="SourceGraphic" in2="effect1_dropShadow" result="shape"/>
</filter>
<filter id="filter1_d" x="127.169" y="37.9463" width="84.8548" height="71.3656" filterUnits="userSpaceOnUse" color-interpolation-filters="sRGB">
<feFlood flood-opacity="0" result="BackgroundImageFix"/>
<feColorMatrix in="SourceAlpha" type="matrix" values="0 0 0 0 0 0 0 0 0 0 0 0 0 0 0 0 0 0 127 0" result="hardAlpha"/>
<feOffset dx="8" dy="8"/>
<feGaussianBlur stdDeviation="7"/>
<feColorMatrix type="matrix" values="0 0 0 0 0 0 0 0 0 0 0 0 0 0 0 0 0 0 0.25 0"/>
<feBlend mode="normal" in2="BackgroundImageFix" result="effect1_dropShadow"/>
<feBlend mode="normal" in="SourceGraphic" in2="effect1_dropShadow" result="shape"/>
</filter>
<filter id="filter2_d" x="19.0155" y="96.7412" width="49.4472" height="63.9164" filterUnits="userSpaceOnUse" color-interpolation-filters="sRGB">
<feFlood flood-opacity="0" result="BackgroundImageFix"/>
<feColorMatrix in="SourceAlpha" type="matrix" values="0 0 0 0 0 0 0 0 0 0 0 0 0 0 0 0 0 0 127 0" result="hardAlpha"/>
<feOffset dx="8" dy="8"/>
<feGaussianBlur stdDeviation="7"/>
<feColorMatrix type="matrix" values="0 0 0 0 0 0 0 0 0 0 0 0 0 0 0 0 0 0 0.25 0"/>
<feBlend mode="normal" in2="BackgroundImageFix" result="effect1_dropShadow"/>
<feBlend mode="normal" in="SourceGraphic" in2="effect1_dropShadow" result="shape"/>
</filter>
<filter id="filter3_d" x="37.9339" y="37.3447" width="38.7327" height="39.4854" filterUnits="userSpaceOnUse" color-interpolation-filters="sRGB">
<feFlood flood-opacity="0" result="BackgroundImageFix"/>
<feColorMatrix in="SourceAlpha" type="matrix" values="0 0 0 0 0 0 0 0 0 0 0 0 0 0 0 0 0 0 127 0" result="hardAlpha"/>
<feOffset dx="8" dy="8"/>
<feGaussianBlur stdDeviation="7"/>
<feColorMatrix type="matrix" values="0 0 0 0 0 0 0 0 0 0 0 0 0 0 0 0 0 0 0.25 0"/>
<feBlend mode="normal" in2="BackgroundImageFix" result="effect1_dropShadow"/>
<feBlend mode="normal" in="SourceGraphic" in2="effect1_dropShadow" result="shape"/>
</filter>
<filter id="filter4_d" x="32.7803" y="137.032" width="32.0361" height="31.9603" filterUnits="userSpaceOnUse" color-interpolation-filters="sRGB">
<feFlood flood-opacity="0" result="BackgroundImageFix"/>
<feColorMatrix in="SourceAlpha" type="matrix" values="0 0 0 0 0 0 0 0 0 0 0 0 0 0 0 0 0 0 127 0" result="hardAlpha"/>
<feOffset dx="8" dy="8"/>
<feGaussianBlur stdDeviation="7"/>
<feColorMatrix type="matrix" values="0 0 0 0 0 0 0 0 0 0 0 0 0 0 0 0 0 0 0.25 0"/>
<feBlend mode="normal" in2="BackgroundImageFix" result="effect1_dropShadow"/>
<feBlend mode="normal" in="SourceGraphic" in2="effect1_dropShadow" result="shape"/>
</filter>
<filter id="filter5_d" x="50.2732" y="146.39" width="48.9649" height="48.5715" filterUnits="userSpaceOnUse" color-interpolation-filters="sRGB">
<feFlood flood-opacity="0" result="BackgroundImageFix"/>
<feColorMatrix in="SourceAlpha" type="matrix" values="0 0 0 0 0 0 0 0 0 0 0 0 0 0 0 0 0 0 127 0" result="hardAlpha"/>
<feOffset dx="8" dy="8"/>
<feGaussianBlur stdDeviation="7"/>
<feColorMatrix type="matrix" values="0 0 0 0 0 0 0 0 0 0 0 0 0 0 0 0 0 0 0.25 0"/>
<feBlend mode="normal" in2="BackgroundImageFix" result="effect1_dropShadow"/>
<feBlend mode="normal" in="SourceGraphic" in2="effect1_dropShadow" result="shape"/>
</filter>
<filter id="filter6_d" x="13.3619" y="74.6699" width="40.435" height="40.2017" filterUnits="userSpaceOnUse" color-interpolation-filters="sRGB">
<feFlood flood-opacity="0" result="BackgroundImageFix"/>
<feColorMatrix in="SourceAlpha" type="matrix" values="0 0 0 0 0 0 0 0 0 0 0 0 0 0 0 0 0 0 127 0" result="hardAlpha"/>
<feOffset dx="8" dy="8"/>
<feGaussianBlur stdDeviation="7"/>
<feColorMatrix type="matrix" values="0 0 0 0 0 0 0 0 0 0 0 0 0 0 0 0 0 0 0.25 0"/>
<feBlend mode="normal" in2="BackgroundImageFix" result="effect1_dropShadow"/>
<feBlend mode="normal" in="SourceGraphic" in2="effect1_dropShadow" result="shape"/>
</filter>
<filter id="filter7_d" x="41.6431" y="50.625" width="31.4772" height="30.9782" filterUnits="userSpaceOnUse" color-interpolation-filters="sRGB">
<feFlood flood-opacity="0" result="BackgroundImageFix"/>
<feColorMatrix in="SourceAlpha" type="matrix" values="0 0 0 0 0 0 0 0 0 0 0 0 0 0 0 0 0 0 127 0" result="hardAlpha"/>
<feOffset dx="8" dy="8"/>
<feGaussianBlur stdDeviation="7"/>
<feColorMatrix type="matrix" values="0 0 0 0 0 0 0 0 0 0 0 0 0 0 0 0 0 0 0.25 0"/>
<feBlend mode="normal" in2="BackgroundImageFix" result="effect1_dropShadow"/>
<feBlend mode="normal" in="SourceGraphic" in2="effect1_dropShadow" result="shape"/>
</filter>
<filter id="filter8_d" x="165.549" y="102.678" width="32.0361" height="31.9603" filterUnits="userSpaceOnUse" color-interpolation-filters="sRGB">
<feFlood flood-opacity="0" result="BackgroundImageFix"/>
<feColorMatrix in="SourceAlpha" type="matrix" values="0 0 0 0 0 0 0 0 0 0 0 0 0 0 0 0 0 0 127 0" result="hardAlpha"/>
<feOffset dx="8" dy="8"/>
<feGaussianBlur stdDeviation="7"/>
<feColorMatrix type="matrix" values="0 0 0 0 0 0 0 0 0 0 0 0 0 0 0 0 0 0 0.25 0"/>
<feBlend mode="normal" in2="BackgroundImageFix" result="effect1_dropShadow"/>
<feBlend mode="normal" in="SourceGraphic" in2="effect1_dropShadow" result="shape"/>
</filter>
<filter id="filter9_d" x="152.987" y="108.967" width="47.462" height="40.2122" filterUnits="userSpaceOnUse" color-interpolation-filters="sRGB">
<feFlood flood-opacity="0" result="BackgroundImageFix"/>
<feColorMatrix in="SourceAlpha" type="matrix" values="0 0 0 0 0 0 0 0 0 0 0 0 0 0 0 0 0 0 127 0" result="hardAlpha"/>
<feOffset dx="8" dy="8"/>
<feGaussianBlur stdDeviation="7"/>
<feColorMatrix type="matrix" values="0 0 0 0 0 0 0 0 0 0 0 0 0 0 0 0 0 0 0.25 0"/>
<feBlend mode="normal" in2="BackgroundImageFix" result="effect1_dropShadow"/>
<feBlend mode="normal" in="SourceGraphic" in2="effect1_dropShadow" result="shape"/>
</filter>
<filter id="filter10_d" x="40.6546" y="98.0977" width="32.2791" height="32.1301" filterUnits="userSpaceOnUse" color-interpolation-filters="sRGB">
<feFlood flood-opacity="0" result="BackgroundImageFix"/>
<feColorMatrix in="SourceAlpha" type="matrix" values="0 0 0 0 0 0 0 0 0 0 0 0 0 0 0 0 0 0 127 0" result="hardAlpha"/>
<feOffset dx="8" dy="8"/>
<feGaussianBlur stdDeviation="7"/>
<feColorMatrix type="matrix" values="0 0 0 0 0 0 0 0 0 0 0 0 0 0 0 0 0 0 0.25 0"/>
<feBlend mode="normal" in2="BackgroundImageFix" result="effect1_dropShadow"/>
<feBlend mode="normal" in="SourceGraphic" in2="effect1_dropShadow" result="shape"/>
</filter>
<linearGradient id="paint0_linear" x1="22.6532" y1="15.6165" x2="195.437" y2="26.453" gradientUnits="userSpaceOnUse">
<stop offset="0.0756841" stop-color="#B565D8"/>
<stop offset="0.945898" stop-color="#EE609C"/>
</linearGradient>
<linearGradient id="paint1_linear" x1="128.827" y1="39.8938" x2="181.436" y2="23.2243" gradientUnits="userSpaceOnUse">
<stop offset="0.0756841" stop-color="#B565D8"/>
<stop offset="0.945898" stop-color="#EE609C"/>
</linearGradient>
<linearGradient id="paint2_linear" x1="75.0933" y1="116.756" x2="79.6349" y2="123.335" gradientUnits="userSpaceOnUse">
<stop offset="0.0756841" stop-color="#B565D8"/>
<stop offset="0.945898" stop-color="#EE609C"/>
</linearGradient>
<linearGradient id="paint3_linear" x1="66.7727" y1="112.964" x2="71.304" y2="119.552" gradientUnits="userSpaceOnUse">
<stop offset="0.0756841" stop-color="#B565D8"/>
<stop offset="0.945898" stop-color="#EE609C"/>
</linearGradient>
<linearGradient id="paint4_linear" x1="51.1471" y1="113.422" x2="55.6487" y2="120.061" gradientUnits="userSpaceOnUse">
<stop offset="0.0756841" stop-color="#B565D8"/>
<stop offset="0.945898" stop-color="#EE609C"/>
</linearGradient>
<linearGradient id="paint5_linear" x1="46.1922" y1="107.671" x2="50.709" y2="114.298" gradientUnits="userSpaceOnUse">
<stop offset="0.0756841" stop-color="#B565D8"/>
<stop offset="0.945898" stop-color="#EE609C"/>
</linearGradient>
<linearGradient id="paint6_linear" x1="71.1394" y1="114.741" x2="75.6764" y2="121.324" gradientUnits="userSpaceOnUse">
<stop offset="0.0756841" stop-color="#B565D8"/>
<stop offset="0.945898" stop-color="#EE609C"/>
</linearGradient>
<linearGradient id="paint7_linear" x1="61.8645" y1="111.502" x2="66.3884" y2="118.096" gradientUnits="userSpaceOnUse">
<stop offset="0.0756841" stop-color="#B565D8"/>
<stop offset="0.945898" stop-color="#EE609C"/>
</linearGradient>
<linearGradient id="paint8_linear" x1="48.5795" y1="110.599" x2="53.0877" y2="117.233" gradientUnits="userSpaceOnUse">
<stop offset="0.0756841" stop-color="#B565D8"/>
<stop offset="0.945898" stop-color="#EE609C"/>
</linearGradient>
<linearGradient id="paint9_linear" x1="105.49" y1="142.24" x2="110.085" y2="148.775" gradientUnits="userSpaceOnUse">
<stop offset="0.0756841" stop-color="#B565D8"/>
<stop offset="0.945898" stop-color="#EE609C"/>
</linearGradient>
<linearGradient id="paint10_linear" x1="99.9779" y1="136.813" x2="104.571" y2="143.379" gradientUnits="userSpaceOnUse">
<stop offset="0.0756841" stop-color="#B565D8"/>
<stop offset="0.945898" stop-color="#EE609C"/>
</linearGradient>
<linearGradient id="paint11_linear" x1="94.392" y1="131.43" x2="98.9729" y2="138.006" gradientUnits="userSpaceOnUse">
<stop offset="0.0756841" stop-color="#B565D8"/>
<stop offset="0.945898" stop-color="#EE609C"/>
</linearGradient>
<linearGradient id="paint12_linear" x1="88.5308" y1="126.206" x2="93.1022" y2="132.79" gradientUnits="userSpaceOnUse">
<stop offset="0.0756841" stop-color="#B565D8"/>
<stop offset="0.945898" stop-color="#EE609C"/>
</linearGradient>
<linearGradient id="paint13_linear" x1="82.191" y1="121.261" x2="86.7404" y2="127.834" gradientUnits="userSpaceOnUse">
<stop offset="0.0756841" stop-color="#B565D8"/>
<stop offset="0.945898" stop-color="#EE609C"/>
</linearGradient>
<linearGradient id="paint14_linear" x1="102.731" y1="139.528" x2="107.331" y2="146.087" gradientUnits="userSpaceOnUse">
<stop offset="0.0756841" stop-color="#B565D8"/>
<stop offset="0.945898" stop-color="#EE609C"/>
</linearGradient>
<linearGradient id="paint15_linear" x1="97.2068" y1="134.108" x2="101.793" y2="140.679" gradientUnits="userSpaceOnUse">
<stop offset="0.0756841" stop-color="#B565D8"/>
<stop offset="0.945898" stop-color="#EE609C"/>
</linearGradient>
<linearGradient id="paint16_linear" x1="91.5092" y1="128.79" x2="96.085" y2="135.37" gradientUnits="userSpaceOnUse">
<stop offset="0.0756841" stop-color="#B565D8"/>
<stop offset="0.945898" stop-color="#EE609C"/>
</linearGradient>
<linearGradient id="paint17_linear" x1="85.4325" y1="123.691" x2="89.9999" y2="130.278" gradientUnits="userSpaceOnUse">
<stop offset="0.0756841" stop-color="#B565D8"/>
<stop offset="0.945898" stop-color="#EE609C"/>
</linearGradient>
<linearGradient id="paint18_linear" x1="78.755" y1="118.943" x2="83.3006" y2="125.519" gradientUnits="userSpaceOnUse">
<stop offset="0.0756841" stop-color="#B565D8"/>
<stop offset="0.945898" stop-color="#EE609C"/>
</linearGradient>
<linearGradient id="paint19_linear" x1="130.887" y1="161.999" x2="135.676" y2="168.361" gradientUnits="userSpaceOnUse">
<stop offset="0.0756841" stop-color="#B565D8"/>
<stop offset="0.945898" stop-color="#EE609C"/>
</linearGradient>
<linearGradient id="paint20_linear" x1="123.514" y1="157.656" x2="128.217" y2="164.096" gradientUnits="userSpaceOnUse">
<stop offset="0.0756841" stop-color="#B565D8"/>
<stop offset="0.945898" stop-color="#EE609C"/>
</linearGradient>
<linearGradient id="paint21_linear" x1="117.043" y1="152.787" x2="121.695" y2="159.274" gradientUnits="userSpaceOnUse">
<stop offset="0.0756841" stop-color="#B565D8"/>
<stop offset="0.945898" stop-color="#EE609C"/>
</linearGradient>
<linearGradient id="paint22_linear" x1="111.113" y1="147.602" x2="115.731" y2="154.118" gradientUnits="userSpaceOnUse">
<stop offset="0.0756841" stop-color="#B565D8"/>
<stop offset="0.945898" stop-color="#EE609C"/>
</linearGradient>
<linearGradient id="paint23_linear" x1="135.099" y1="163.866" x2="139.955" y2="170.161" gradientUnits="userSpaceOnUse">
<stop offset="0.0756841" stop-color="#B565D8"/>
<stop offset="0.945898" stop-color="#EE609C"/>
</linearGradient>
<linearGradient id="paint24_linear" x1="127.045" y1="159.918" x2="131.785" y2="166.325" gradientUnits="userSpaceOnUse">
<stop offset="0.0756841" stop-color="#B565D8"/>
<stop offset="0.945898" stop-color="#EE609C"/>
</linearGradient>
<linearGradient id="paint25_linear" x1="120.192" y1="155.272" x2="124.867" y2="161.738" gradientUnits="userSpaceOnUse">
<stop offset="0.0756841" stop-color="#B565D8"/>
<stop offset="0.945898" stop-color="#EE609C"/>
</linearGradient>
<linearGradient id="paint26_linear" x1="114.021" y1="150.229" x2="118.654" y2="156.731" gradientUnits="userSpaceOnUse">
<stop offset="0.0756841" stop-color="#B565D8"/>
<stop offset="0.945898" stop-color="#EE609C"/>
</linearGradient>
<linearGradient id="paint27_linear" x1="108.275" y1="144.937" x2="112.895" y2="151.481" gradientUnits="userSpaceOnUse">
<stop offset="0.0756841" stop-color="#B565D8"/>
<stop offset="0.945898" stop-color="#EE609C"/>
</linearGradient>
<linearGradient id="paint28_linear" x1="139.796" y1="165.449" x2="144.768" y2="171.657" gradientUnits="userSpaceOnUse">
<stop offset="0.0756841" stop-color="#B565D8"/>
<stop offset="0.945898" stop-color="#EE609C"/>
</linearGradient>
<linearGradient id="paint29_linear" x1="151.946" y1="167.013" x2="157.421" y2="172.548" gradientUnits="userSpaceOnUse">
<stop offset="0.0756841" stop-color="#B565D8"/>
<stop offset="0.945898" stop-color="#EE609C"/>
</linearGradient>
<linearGradient id="paint30_linear" x1="145.213" y1="166.616" x2="150.332" y2="172.621" gradientUnits="userSpaceOnUse">
<stop offset="0.0756841" stop-color="#B565D8"/>
<stop offset="0.945898" stop-color="#EE609C"/>
</linearGradient>
<linearGradient id="paint31_linear" x1="45.7618" y1="43.1633" x2="51.6427" y2="47.6959" gradientUnits="userSpaceOnUse">
<stop offset="0.0756841" stop-color="#B565D8"/>
<stop offset="0.945898" stop-color="#EE609C"/>
</linearGradient>
<linearGradient id="paint32_linear" x1="39.3568" y1="51.2072" x2="44.5495" y2="57.1187" gradientUnits="userSpaceOnUse">
<stop offset="0.0756841" stop-color="#B565D8"/>
<stop offset="0.945898" stop-color="#EE609C"/>
</linearGradient>
<linearGradient id="paint33_linear" x1="38.4995" y1="94.8773" x2="43.0698" y2="101.462" gradientUnits="userSpaceOnUse">
<stop offset="0.0756841" stop-color="#B565D8"/>
<stop offset="0.945898" stop-color="#EE609C"/>
</linearGradient>
<linearGradient id="paint34_linear" x1="35.8912" y1="87.7611" x2="40.5019" y2="94.312" gradientUnits="userSpaceOnUse">
<stop offset="0.0756841" stop-color="#B565D8"/>
<stop offset="0.945898" stop-color="#EE609C"/>
</linearGradient>
<linearGradient id="paint35_linear" x1="34.236" y1="80.0917" x2="38.8846" y2="86.5811" gradientUnits="userSpaceOnUse">
<stop offset="0.0756841" stop-color="#B565D8"/>
<stop offset="0.945898" stop-color="#EE609C"/>
</linearGradient>
<linearGradient id="paint36_linear" x1="33.7459" y1="71.7423" x2="38.4688" y2="78.1652" gradientUnits="userSpaceOnUse">
<stop offset="0.0756841" stop-color="#B565D8"/>
<stop offset="0.945898" stop-color="#EE609C"/>
</linearGradient>
<linearGradient id="paint37_linear" x1="34.9122" y1="62.4285" x2="39.7649" y2="68.7273" gradientUnits="userSpaceOnUse">
<stop offset="0.0756841" stop-color="#B565D8"/>
<stop offset="0.945898" stop-color="#EE609C"/>
</linearGradient>
<linearGradient id="paint38_linear" x1="37.0826" y1="91.3851" x2="41.6718" y2="97.954" gradientUnits="userSpaceOnUse">
<stop offset="0.0756841" stop-color="#B565D8"/>
<stop offset="0.945898" stop-color="#EE609C"/>
</linearGradient>
<linearGradient id="paint39_linear" x1="34.9371" y1="83.9991" x2="39.5722" y2="90.5293" gradientUnits="userSpaceOnUse">
<stop offset="0.0756841" stop-color="#B565D8"/>
<stop offset="0.945898" stop-color="#EE609C"/>
</linearGradient>
<linearGradient id="paint40_linear" x1="33.8249" y1="76.0133" x2="38.5066" y2="82.4736" gradientUnits="userSpaceOnUse">
<stop offset="0.0756841" stop-color="#B565D8"/>
<stop offset="0.945898" stop-color="#EE609C"/>
</linearGradient>
<linearGradient id="paint41_linear" x1="34.065" y1="67.2396" x2="38.8419" y2="73.6123" gradientUnits="userSpaceOnUse">
<stop offset="0.0756841" stop-color="#B565D8"/>
<stop offset="0.945898" stop-color="#EE609C"/>
</linearGradient>
<linearGradient id="paint42_linear" x1="36.4903" y1="57.1933" x2="41.4606" y2="63.3692" gradientUnits="userSpaceOnUse">
<stop offset="0.0756841" stop-color="#B565D8"/>
<stop offset="0.945898" stop-color="#EE609C"/>
</linearGradient>
<linearGradient id="paint43_linear" x1="60.4591" y1="125.273" x2="65.6623" y2="126.305" gradientUnits="userSpaceOnUse">
<stop offset="0.0756841" stop-color="#B565D8"/>
<stop offset="0.945898" stop-color="#EE609C"/>
</linearGradient>
<linearGradient id="paint44_linear" x1="54.1494" y1="120.31" x2="59.9006" y2="122.317" gradientUnits="userSpaceOnUse">
<stop offset="0.0756841" stop-color="#B565D8"/>
<stop offset="0.945898" stop-color="#EE609C"/>
</linearGradient>
<linearGradient id="paint45_linear" x1="41.9678" y1="101.494" x2="46.5071" y2="108.103" gradientUnits="userSpaceOnUse">
<stop offset="0.0756841" stop-color="#B565D8"/>
<stop offset="0.945898" stop-color="#EE609C"/>
</linearGradient>
<linearGradient id="paint46_linear" x1="57.2125" y1="122.845" x2="62.7706" y2="124.431" gradientUnits="userSpaceOnUse">
<stop offset="0.0756841" stop-color="#B565D8"/>
<stop offset="0.945898" stop-color="#EE609C"/>
</linearGradient>
<linearGradient id="paint47_linear" x1="51.2659" y1="117.671" x2="57.1215" y2="119.98" gradientUnits="userSpaceOnUse">
<stop offset="0.0756841" stop-color="#B565D8"/>
<stop offset="0.945898" stop-color="#EE609C"/>
</linearGradient>
<linearGradient id="paint48_linear" x1="43.9877" y1="104.636" x2="48.5148" y2="111.256" gradientUnits="userSpaceOnUse">
<stop offset="0.0756841" stop-color="#B565D8"/>
<stop offset="0.945898" stop-color="#EE609C"/>
</linearGradient>
<linearGradient id="paint49_linear" x1="40.1274" y1="98.2489" x2="44.681" y2="104.847" gradientUnits="userSpaceOnUse">
<stop offset="0.0756841" stop-color="#B565D8"/>
<stop offset="0.945898" stop-color="#EE609C"/>
</linearGradient>
<linearGradient id="paint50_linear" x1="67.539" y1="129.787" x2="70.9501" y2="129.494" gradientUnits="userSpaceOnUse">
<stop offset="0.0756841" stop-color="#B565D8"/>
<stop offset="0.945898" stop-color="#EE609C"/>
</linearGradient>
<linearGradient id="paint51_linear" x1="71.3856" y1="131.865" x2="73.007" y2="131.339" gradientUnits="userSpaceOnUse">
<stop offset="0.0756841" stop-color="#B565D8"/>
<stop offset="0.945898" stop-color="#EE609C"/>
</linearGradient>
<linearGradient id="paint52_linear" x1="63.8998" y1="127.588" x2="68.4536" y2="127.949" gradientUnits="userSpaceOnUse">
<stop offset="0.0756841" stop-color="#B565D8"/>
<stop offset="0.945898" stop-color="#EE609C"/>
</linearGradient>
<linearGradient id="paint53_linear" x1="14.1945" y1="108.574" x2="36.942" y2="92.3195" gradientUnits="userSpaceOnUse">
<stop offset="0.0756841" stop-color="#B565D8"/>
<stop offset="0.945898" stop-color="#EE609C"/>
</linearGradient>
<linearGradient id="paint54_linear" x1="41.1358" y1="44.6457" x2="52.3317" y2="39.5709" gradientUnits="userSpaceOnUse">
<stop offset="0.0756841" stop-color="#B565D8"/>
<stop offset="0.945898" stop-color="#EE609C"/>
</linearGradient>
<linearGradient id="paint55_linear" x1="37.5378" y1="145.617" x2="39.688" y2="141.698" gradientUnits="userSpaceOnUse">
<stop offset="0.0756841" stop-color="#B565D8"/>
<stop offset="0.945898" stop-color="#EE609C"/>
</linearGradient>
<linearGradient id="paint56_linear" x1="49.8188" y1="165.814" x2="60.988" y2="145.458" gradientUnits="userSpaceOnUse">
<stop offset="0.0756841" stop-color="#B565D8"/>
<stop offset="0.945898" stop-color="#EE609C"/>
</linearGradient>
<linearGradient id="paint57_linear" x1="15.5336" y1="88.6326" x2="22.1584" y2="76.5586" gradientUnits="userSpaceOnUse">
<stop offset="0.0756841" stop-color="#B565D8"/>
<stop offset="0.945898" stop-color="#EE609C"/>
</linearGradient>
<linearGradient id="paint58_linear" x1="51.8963" y1="57.0614" x2="51.2888" y2="60.3294" gradientUnits="userSpaceOnUse">
<stop offset="0.0756841" stop-color="#B565D8"/>
<stop offset="0.945898" stop-color="#EE609C"/>
</linearGradient>
<linearGradient id="paint59_linear" x1="170.306" y1="111.263" x2="172.457" y2="107.344" gradientUnits="userSpaceOnUse">
<stop offset="0.0756841" stop-color="#B565D8"/>
<stop offset="0.945898" stop-color="#EE609C"/>
</linearGradient>
<linearGradient id="paint60_linear" x1="165.21" y1="107.396" x2="182.23" y2="116.761" gradientUnits="userSpaceOnUse">
<stop offset="0.0756841" stop-color="#B565D8"/>
<stop offset="0.945898" stop-color="#EE609C"/>
</linearGradient>
<linearGradient id="paint61_linear" x1="48.1664" y1="102.646" x2="52.2748" y2="104.856" gradientUnits="userSpaceOnUse">
<stop offset="0.0756841" stop-color="#B565D8"/>
<stop offset="0.945898" stop-color="#EE609C"/>
</linearGradient>
</defs>
</svg>
