<svg width="202" height="201" viewBox="0 0 202 201" fill="none" xmlns="http://www.w3.org/2000/svg">
<g opacity="0.7" filter="url(#filter0_d)">
<path d="M164.589 127.305C172.001 103.157 161.096 75.623 141.401 59.8123C121.707 44.0004 94.834 38.9834 69.8038 42.3289C48.2757 45.2063 26.8368 54.4749 13.2918 71.4607C7.06881 79.2659 3.3586 92.126 11.2903 98.1864C20.822 105.468 35.1172 94.2197 46.2662 98.6418C56.0998 102.542 57.6061 115.916 55.5749 126.302C53.5436 136.689 49.6847 147.878 54.3328 157.385C58.7075 166.33 69.6151 170.517 79.5517 169.925C90.5885 169.267 100.849 163.622 111.815 161.909C117.308 161.051 122.725 161.414 128.227 160.444C134.29 159.375 140.046 157.218 145.118 153.692C154.232 147.355 161.324 137.942 164.589 127.305Z" fill="url(#paint0_linear)"/>
</g>
<g filter="url(#filter1_d)">
<path d="M157.826 47.5642C150.88 44.8879 143.376 43.499 135.951 44.0757C132.52 44.3423 129.001 45.0773 126.218 47.1026C123.435 49.1279 121.562 52.6916 122.35 56.0384C122.969 58.6674 125.061 60.7111 127.338 62.1648C129.615 63.619 132.152 64.6369 134.403 66.132C136.653 67.6267 138.68 69.7603 139.156 72.4186C139.594 74.8663 138.662 77.3783 138.922 79.8517C139.33 83.7328 142.899 86.9045 146.788 87.2721C150.676 87.6397 154.581 85.4449 156.682 82.153C158.666 79.045 159.299 74.9789 162.162 72.653C163.721 71.3862 165.737 70.8333 167.718 70.4955C169.699 70.158 171.724 69.9991 173.634 69.3757C177.554 68.0969 180.866 63.2253 177.856 59.4327C176.523 57.753 174.337 56.6434 172.59 55.4592C170.419 53.9884 168.197 52.5967 165.897 51.3346C163.292 49.9056 160.6 48.6326 157.826 47.5642Z" fill="url(#paint1_linear)"/>
</g>
<path d="M144.247 70.1994L133.133 76.6665L132.909 76.7972L100.882 95.4342L100.658 95.5643L68.6305 114.202L68.4069 114.332L61.6102 118.287C61.739 118.358 61.8702 118.422 61.998 118.493L68.5945 114.654L68.818 114.524L100.846 95.8866L101.069 95.7566L133.096 77.1195L133.321 76.9889L144.556 70.4512C144.453 70.3679 144.351 70.2831 144.247 70.1994Z" fill="url(#paint2_linear)"/>
<path d="M129.38 70.2171L129.155 70.3477L97.1284 88.9848L96.9048 89.1149L64.877 107.752L64.6534 107.883L53.2346 114.527C53.387 114.581 53.5369 114.64 53.6888 114.694L64.8401 108.205L65.0636 108.075L97.0915 89.4377L97.315 89.3076L129.342 70.6706L129.566 70.5399L137.987 65.6397C137.871 65.5633 137.752 65.4894 137.635 65.413L129.38 70.2171Z" fill="url(#paint3_linear)"/>
<path d="M125.626 63.7663L125.402 63.8969L93.375 82.534L93.1515 82.6641L61.1236 101.302L60.9001 101.432L37.3488 115.137C37.4366 115.23 37.5235 115.323 37.6123 115.416L61.0882 101.755L61.3117 101.625L93.3396 82.9873L93.5631 82.8572L125.59 64.2202L125.815 64.0895L130.652 61.2745C130.523 61.204 130.394 61.1363 130.264 61.0678L125.626 63.7663Z" fill="url(#paint4_linear)"/>
<path d="M121.873 57.316L121.649 57.4466L89.6216 76.0837L89.398 76.2138L57.3702 94.8514L57.1466 94.9815L32.4891 109.33C32.5644 109.431 32.6406 109.53 32.7158 109.631L57.3347 95.3047L57.5583 95.1746L89.5861 76.537L89.8097 76.4069L121.837 57.7698L122.061 57.6392L122.664 57.2881C122.526 57.2243 122.388 57.1604 122.25 57.0966L121.873 57.316Z" fill="url(#paint5_linear)"/>
<path d="M131.257 73.4425L131.033 73.5731L99.0057 92.2101L98.7821 92.3402L66.7543 110.978L66.5307 111.108L57.6322 116.286C57.7693 116.348 57.9027 116.418 58.0388 116.481L66.7183 111.43L66.9419 111.3L98.9697 92.6626L99.1933 92.5325L131.22 73.8954L131.445 73.7648L141.372 67.9878C141.263 67.9072 141.154 67.8262 141.044 67.747L131.257 73.4425Z" fill="url(#paint6_linear)"/>
<path d="M127.503 66.9912L127.279 67.1218L95.2519 85.7589L95.0283 85.889L63.0004 104.527L62.7769 104.657L48.2848 113.09C48.4581 113.13 48.6289 113.179 48.8019 113.22L62.9644 104.979L63.188 104.849L95.2159 86.2113L95.4394 86.0812L127.466 67.4441L127.691 67.3135L134.407 63.4054C134.284 63.3327 134.163 63.2589 134.04 63.1876L127.503 66.9912Z" fill="url(#paint7_linear)"/>
<path d="M123.75 60.5414L123.525 60.6721L91.4983 79.3091L91.2747 79.4392L59.2469 98.0768L59.0233 98.2069L34.8237 112.289C34.9053 112.386 34.985 112.484 35.0666 112.58L59.2114 98.5301L59.4349 98.4L91.4628 79.7624L91.6864 79.6323L123.713 60.9953L123.938 60.8647L126.727 59.2413C126.594 59.1749 126.461 59.1079 126.327 59.0414L123.75 60.5414Z" fill="url(#paint8_linear)"/>
<path d="M166.67 100.323L151.901 108.918L151.676 109.049L119.65 127.686L119.426 127.816L92.2617 143.623C92.3558 143.713 92.45 143.802 92.5427 143.891L119.614 128.138L119.837 128.008L151.864 109.371L152.089 109.24L166.815 100.671C166.767 100.555 166.719 100.439 166.67 100.323Z" fill="url(#paint9_linear)"/>
<path d="M148.148 102.467L147.923 102.598L115.896 121.235L115.673 121.365L86.6768 138.238C86.77 138.328 86.8632 138.418 86.9564 138.508L115.861 121.688L116.084 121.558L148.111 102.921L148.336 102.791L163.642 93.8834C163.584 93.7731 163.526 93.6627 163.467 93.5524L148.148 102.467Z" fill="url(#paint10_linear)"/>
<path d="M144.394 96.018L144.17 96.1486L112.143 114.786L111.919 114.916L81.035 132.888C81.131 132.976 81.226 133.065 81.3219 133.153L112.107 115.239L112.331 115.109L144.358 96.4718L144.582 96.3412L159.844 87.4602C159.776 87.3556 159.708 87.2505 159.639 87.1464L144.394 96.018Z" fill="url(#paint11_linear)"/>
<path d="M140.641 89.5678L140.416 89.6984L108.389 108.335L108.166 108.466L76.1378 127.103L75.9143 127.233L75.1287 127.69C75.23 127.776 75.3313 127.861 75.4326 127.946L76.1024 127.556L76.3259 127.426L108.354 108.789L108.577 108.659L140.604 90.0216L140.829 89.891L155.421 81.3998C155.342 81.3015 155.265 81.2021 155.184 81.1048L140.641 89.5678Z" fill="url(#paint12_linear)"/>
<path d="M136.887 83.1177L136.663 83.2483L104.636 101.885L104.412 102.015L72.3844 120.653L72.1608 120.783L68.749 122.769C68.8597 122.847 68.9687 122.929 69.0793 123.008L72.3484 121.105L72.572 120.975L104.6 102.338L104.823 102.208L136.85 83.5706L137.075 83.44L150.345 75.7179C150.254 75.6264 150.161 75.5364 150.07 75.4463L136.887 83.1177Z" fill="url(#paint13_linear)"/>
<path d="M150.024 105.692L149.8 105.823L117.773 124.46L117.549 124.59L89.4637 140.934C89.557 141.024 89.6502 141.114 89.7434 141.204L117.737 124.913L117.961 124.783L149.988 106.146L150.212 106.016L165.308 97.2313C165.255 97.1178 165.201 97.0049 165.148 96.8914L150.024 105.692Z" fill="url(#paint14_linear)"/>
<path d="M146.271 99.2422L146.046 99.3728L114.02 118.01L113.796 118.14L83.8762 135.551C83.9703 135.64 84.0648 135.728 84.1595 135.819L113.984 118.463L114.208 118.333L146.235 99.696L146.459 99.5654L161.821 90.6259C161.758 90.5187 161.695 90.411 161.631 90.3037L146.271 99.2422Z" fill="url(#paint15_linear)"/>
<path d="M142.517 92.7927L142.293 92.9233L110.266 111.56L110.042 111.69L78.1287 130.262C78.2273 130.349 78.3272 130.433 78.4263 130.521L110.231 112.014L110.454 111.884L142.481 93.2465L142.706 93.1159L157.711 84.3839C157.638 84.2824 157.566 84.1799 157.491 84.0795L142.517 92.7927Z" fill="url(#paint16_linear)"/>
<path d="M138.764 86.3423L138.539 86.4729L106.512 105.11L106.289 105.24L74.261 123.878L74.0375 124.008L72.0101 125.188C72.1159 125.27 72.2248 125.35 72.3311 125.433L74.2256 124.331L74.4491 124.201L106.477 105.563L106.701 105.433L138.728 86.7961L138.952 86.6655L152.968 78.5092C152.883 78.4145 152.798 78.3199 152.712 78.2257L138.764 86.3423Z" fill="url(#paint17_linear)"/>
<path d="M135.011 79.892L134.786 80.0227L102.759 98.6597L102.536 98.7898L70.5078 117.427L70.2842 117.557L65.2931 120.462C65.4124 120.537 65.5302 120.611 65.6486 120.687L70.4718 117.88L70.6953 117.75L102.723 99.1121L102.947 98.982L134.974 80.345L135.198 80.2144L147.544 73.0299C147.448 72.942 147.35 72.8555 147.253 72.7681L135.011 79.892Z" fill="url(#paint18_linear)"/>
<path d="M166.915 134.719L166.691 134.85L134.664 153.487L134.44 153.617L118.284 163.019C118.423 163.082 118.562 163.146 118.7 163.208L134.627 153.94L134.85 153.81L166.877 135.173L167.102 135.042L172.114 132.126C172.126 131.976 172.134 131.826 172.145 131.676L166.915 134.719Z" fill="url(#paint19_linear)"/>
<path d="M163.162 128.269L162.938 128.4L130.911 147.037L130.687 147.167L110.679 158.81C110.796 158.885 110.91 158.965 111.028 159.038L130.875 147.489L131.098 147.359L163.125 128.722L163.35 128.591L172.171 123.458C172.162 123.32 172.15 123.182 172.139 123.045L163.162 128.269Z" fill="url(#paint20_linear)"/>
<path d="M159.408 121.819L159.184 121.95L127.157 140.587L126.933 140.717L104.038 154.04C104.143 154.123 104.247 154.207 104.353 154.289L127.12 141.04L127.344 140.91L159.371 122.273L159.595 122.142L171.156 115.415C171.132 115.285 171.111 115.154 171.087 115.023L159.408 121.819Z" fill="url(#paint21_linear)"/>
<path d="M155.654 115.368L155.43 115.499L123.403 134.136L123.179 134.266L97.9806 148.93C98.0783 149.017 98.176 149.104 98.2732 149.191L123.367 134.588L123.591 134.458L155.618 115.821L155.842 115.691L169.339 107.836C169.303 107.713 169.264 107.593 169.227 107.47L155.654 115.368Z" fill="url(#paint22_linear)"/>
<path d="M168.792 137.944L168.567 138.075L136.541 156.712L136.317 156.842L122.646 164.798C122.8 164.853 122.956 164.904 123.111 164.959L136.505 157.165L136.728 157.034L168.755 138.397L168.98 138.267L171.509 136.795C171.537 136.635 171.564 136.475 171.591 136.315L168.792 137.944Z" fill="url(#paint23_linear)"/>
<path d="M165.038 131.494L164.814 131.624L132.787 150.261L132.564 150.392L114.317 161.01C114.444 161.08 114.573 161.148 114.7 161.218L132.75 150.714L132.974 150.584L165.001 131.947L165.225 131.817L172.299 127.7C172.3 127.555 172.304 127.41 172.303 127.266L165.038 131.494Z" fill="url(#paint24_linear)"/>
<path d="M161.285 125.044L161.061 125.175L129.034 143.812L128.81 143.942L107.266 156.479C107.377 156.558 107.49 156.636 107.601 156.715L128.998 144.264L129.221 144.134L161.248 125.497L161.473 125.366L171.773 119.373C171.755 119.239 171.739 119.105 171.721 118.971L161.285 125.044Z" fill="url(#paint25_linear)"/>
<path d="M157.532 118.594L157.307 118.725L125.28 137.362L125.057 137.492L100.948 151.521C101.049 151.607 101.153 151.69 101.254 151.775L125.244 137.814L125.468 137.684L157.495 119.047L157.719 118.917L170.343 111.571C170.312 111.444 170.281 111.32 170.25 111.194L157.532 118.594Z" fill="url(#paint26_linear)"/>
<path d="M153.778 112.144L153.554 112.274L121.527 130.911L121.303 131.041L95.0907 146.295C95.1866 146.383 95.2816 146.472 95.3776 146.561L121.492 131.364L121.716 131.234L153.743 112.597L153.967 112.466L168.162 104.206C168.12 104.086 168.076 103.968 168.033 103.848L153.778 112.144Z" fill="url(#paint27_linear)"/>
<path d="M170.49 141.274L170.444 141.3L138.417 159.937L138.194 160.067L127.526 166.275C127.701 166.319 127.878 166.359 128.055 166.4L138.382 160.391L138.605 160.261L170.34 141.793C170.391 141.62 170.441 141.448 170.49 141.274Z" fill="url(#paint28_linear)"/>
<path d="M141.947 166.517L140.228 167.518C140.513 167.499 140.798 167.478 141.082 167.453L142.135 166.84L142.359 166.71L164.534 153.806C164.708 153.563 164.883 153.319 165.051 153.072L142.171 166.387L141.947 166.517Z" fill="url(#paint29_linear)"/>
<path d="M140.071 163.293L133.173 167.308C133.379 167.332 133.585 167.359 133.79 167.38L140.258 163.616L140.482 163.486L168.303 147.296C168.39 147.105 168.47 146.911 168.554 146.719L140.294 163.163L140.071 163.293Z" fill="url(#paint30_linear)"/>
<path d="M48.493 35.2592L35.9187 42.5764C35.4404 42.9833 34.9692 43.4005 34.509 43.8282L50.2024 34.6959C49.6283 34.8701 49.0583 35.0576 48.493 35.2592Z" fill="url(#paint31_linear)"/>
<path d="M31.0587 50.1526L31.2823 50.0225L60.1991 33.1953C59.95 33.1948 59.7005 33.1934 59.4522 33.1984L31.0956 49.6996L30.8721 49.8297L28.0421 51.4766C27.8897 51.7083 27.7362 51.9382 27.5886 52.1719L31.0587 50.1526Z" fill="url(#paint32_linear)"/>
<path d="M49.8264 82.4041L50.05 82.274L82.0779 63.6364L82.3014 63.5063L105.583 49.9581C105.439 49.8979 105.295 49.8372 105.152 49.7765L82.1142 63.1826L81.8907 63.3127L49.8628 81.9503L49.6392 82.0804L25.1344 96.3402C25.1818 96.4568 25.2311 96.5724 25.2794 96.6885L49.8264 82.4041Z" fill="url(#paint33_linear)"/>
<path d="M46.0729 75.9543L46.2965 75.8242L78.3243 57.1866L78.5479 57.0565L97.0453 46.2926C96.9054 46.2298 96.7655 46.167 96.6255 46.1042L78.3607 56.7328L78.1372 56.8629L46.1093 75.5005L45.8857 75.6306L22.7573 89.0894C22.7895 89.2149 22.8252 89.3383 22.8574 89.4638L46.0729 75.9543Z" fill="url(#paint34_linear)"/>
<path d="M42.3195 69.5045L42.5431 69.3744L74.5709 50.7368L74.7945 50.6067L88.8538 42.4253C88.7193 42.3594 88.5856 42.2929 88.4516 42.2279L74.6078 50.2839L74.3842 50.414L42.3564 69.0515L42.1328 69.1816L21.3666 81.2659C21.3808 81.4018 21.3918 81.5385 21.4069 81.6739L42.3195 69.5045Z" fill="url(#paint35_linear)"/>
<path d="M38.5661 63.0539L38.7897 62.9238L70.8175 44.2862L71.0411 44.1561L80.7153 38.5265C80.5763 38.4632 80.4373 38.3998 80.2988 38.3374L70.8535 43.8338L70.63 43.9639L38.6021 62.6015L38.3785 62.7316L21.1839 72.7374C21.1743 72.8861 21.1652 73.0356 21.1569 73.1846L38.5661 63.0539Z" fill="url(#paint36_linear)"/>
<path d="M34.8121 56.6034L35.0357 56.4733L67.0636 37.8358L67.2871 37.7057L71.7979 35.0808C71.6341 35.0307 71.4692 34.9848 71.3042 34.9366L67.0995 37.3833L66.876 37.5134L34.8481 56.151L34.6246 56.2811L22.7775 63.1751C22.7296 63.3448 22.686 63.5156 22.6401 63.6866L34.8121 56.6034Z" fill="url(#paint37_linear)"/>
<path d="M47.9496 79.1795L48.1732 79.0494L80.2011 60.4118L80.4246 60.2817L101.283 48.1436C101.141 48.0824 100.997 48.0217 100.855 47.9599L80.2374 59.9579L80.0139 60.088L47.986 78.7256L47.7624 78.8557L23.8349 92.7796C23.8743 92.9009 23.9122 93.0218 23.953 93.1435L47.9496 79.1795Z" fill="url(#paint38_linear)"/>
<path d="M44.1964 72.7291L44.42 72.599L76.4478 53.9614L76.6714 53.8313L92.8999 44.3877C92.7636 44.3228 92.6282 44.2573 92.4927 44.1919L76.4842 53.5076L76.2606 53.6377L44.2328 72.2753L44.0092 72.4053L21.9312 85.2529C21.9553 85.3831 21.9789 85.5124 22.0035 85.6435L44.1964 72.7291Z" fill="url(#paint39_linear)"/>
<path d="M40.4428 66.279L40.6664 66.1489L72.6942 47.5113L72.9178 47.3812L84.8232 40.4532C84.6878 40.3878 84.5523 40.3224 84.4175 40.2579L72.7311 47.0584L72.5076 47.1885L40.4797 65.826L40.2561 65.9561L21.0998 77.1036C21.1032 77.2458 21.1052 77.3877 21.1096 77.5294L40.4428 66.279Z" fill="url(#paint40_linear)"/>
<path d="M36.6894 59.8291L36.913 59.699L68.9408 41.0614L69.1644 40.9313L76.4262 36.7056C76.2782 36.6475 76.1314 36.5874 75.9845 36.5311L68.9768 40.609L68.7533 40.7391L36.7254 59.3767L36.5019 59.5068L21.7009 68.1197C21.6756 68.2786 21.6457 68.4379 21.6209 68.5977L36.6894 59.8291Z" fill="url(#paint41_linear)"/>
<path d="M32.936 53.3784L33.1595 53.2483L65.1874 34.6107L65.4109 34.4806L66.5853 33.7972C66.3946 33.7627 66.2035 33.7297 66.0135 33.6985L65.2234 34.1583L64.9998 34.2884L32.972 52.9259L32.7484 53.056L24.6705 57.7567C24.5899 57.9466 24.5093 58.1365 24.4316 58.3272L32.936 53.3784Z" fill="url(#paint42_linear)"/>
<path d="M55.157 122.475L54.9308 122.175L49.3247 125.438C49.4377 125.516 49.5519 125.593 49.6658 125.67L55.157 122.475Z" fill="url(#paint43_linear)"/>
<path d="M50.6215 116.48L50.3944 116.18L42.9594 120.507C43.0589 120.593 43.1575 120.68 43.2574 120.765L50.6215 116.48Z" fill="url(#paint44_linear)"/>
<path d="M53.5799 88.8546L53.8034 88.7245L85.8313 70.0869L86.0548 69.9568L114.22 53.5669C114.077 53.5062 113.934 53.445 113.791 53.3842L85.8676 69.6331L85.6441 69.7632L53.6162 88.4008L53.3927 88.5309L28.3976 103.076C28.4594 103.184 28.523 103.291 28.5857 103.399L53.5799 88.8546Z" fill="url(#paint45_linear)"/>
<path d="M52.8897 119.477L52.6627 119.178L46.0474 123.027C46.1541 123.109 46.2602 123.191 46.3669 123.273L52.8897 119.477Z" fill="url(#paint46_linear)"/>
<path d="M40.3411 118.145L48.3525 113.483L48.1263 113.183L40.0565 117.879C40.1501 117.967 40.2469 118.055 40.3411 118.145Z" fill="url(#paint47_linear)"/>
<path d="M55.4571 92.0802L55.6807 91.9501L87.7085 73.3126L87.9321 73.1825L118.485 55.4033C118.344 55.341 118.202 55.2792 118.061 55.2175L87.7449 72.8587L87.5213 72.9888L55.4935 91.6264L55.2699 91.7565L30.3467 106.26C30.4148 106.364 30.4811 106.47 30.55 106.574L55.4571 92.0802Z" fill="url(#paint48_linear)"/>
<path d="M26.8226 100.109L51.7045 85.6301L51.9281 85.5L83.956 66.8624L84.1795 66.7323L109.91 51.7594C109.766 51.6992 109.621 51.639 109.477 51.5788L83.9914 66.4091L83.7679 66.5392L51.74 85.1768L51.5164 85.3069L26.6597 99.7715C26.7143 99.8839 26.7671 99.9974 26.8226 100.109Z" fill="url(#paint49_linear)"/>
<path d="M59.6933 128.469L59.4662 128.17L56.4845 129.905C56.6109 129.976 56.7365 130.047 56.8633 130.116L59.6933 128.469Z" fill="url(#paint50_linear)"/>
<path d="M61.9606 131.467L61.733 131.167L60.3809 131.954C60.5145 132.021 60.6472 132.088 60.7808 132.154L61.9606 131.467Z" fill="url(#paint51_linear)"/>
<path d="M52.8022 127.731C52.9215 127.806 53.0411 127.88 53.1613 127.954L57.4252 125.473L57.1981 125.173L52.8022 127.731Z" fill="url(#paint52_linear)"/>
<g filter="url(#filter2_d)">
<path d="M27.3674 102.938C30.5676 103.528 33.4047 105.835 34.6396 108.85C37.2658 115.262 32.6598 122.528 33.8733 129.346C34.2609 131.527 35.2328 133.805 34.4147 135.858C33.4534 138.266 30.2913 139.155 27.8078 138.392C25.3241 137.631 23.4081 135.669 21.7179 133.693C18.4817 129.91 15.5769 125.664 14.4321 120.822C12.5065 112.687 17.331 101.088 27.3674 102.938Z" fill="url(#paint53_linear)"/>
</g>
<g filter="url(#filter3_d)">
<path d="M34.0508 52.8015C32.4538 50.5693 32.5643 47.226 34.416 45.1776C36.2681 43.13 39.7216 42.7092 41.9115 44.3682C43.1545 45.3098 43.9524 46.9429 43.5706 48.4582C43.2491 49.7349 42.2424 50.5883 41.3196 51.4502C40.51 52.2057 40.0649 53.0486 39.3937 53.8939C37.8692 55.814 35.2259 54.4437 34.0508 52.8015Z" fill="url(#paint54_linear)"/>
</g>
<g filter="url(#filter4_d)">
<path d="M28.5607 143.611C29.1002 143.104 29.9171 142.887 30.6069 143.137C31.4494 143.441 31.9627 144.431 31.7793 145.317C31.5949 146.203 30.7689 146.903 29.8739 146.982C27.754 147.17 27.1124 144.977 28.5607 143.611Z" fill="url(#paint55_linear)"/>
</g>
<g filter="url(#filter5_d)">
<path d="M49.3266 155.395C52.1289 152.758 56.3721 151.632 59.9552 152.928C64.3318 154.512 66.9978 159.654 66.0454 164.256C65.0872 168.86 60.7969 172.491 56.1477 172.902C45.136 173.881 41.8037 162.487 49.3266 155.395Z" fill="url(#paint56_linear)"/>
</g>
<g filter="url(#filter6_d)">
<path d="M10.7661 82.4528C12.4282 80.8888 14.945 80.2207 17.0703 80.9897C19.6662 81.9291 21.2474 84.979 20.6826 87.7083C20.1142 90.4389 17.5695 92.5927 14.8119 92.8364C8.28048 93.4173 6.30399 86.6592 10.7661 82.4528Z" fill="url(#paint57_linear)"/>
</g>
<g filter="url(#filter7_d)">
<path d="M40.0341 57.9354C39.834 58.2963 37.9782 59.6182 37.5698 59.6028C37.0711 59.584 36.7018 58.483 36.6487 57.9819C36.5962 57.4804 36.9158 56.9694 37.3773 56.7756C38.47 56.3159 40.5708 56.9654 40.0341 57.9354Z" fill="url(#paint58_linear)"/>
</g>
<g filter="url(#filter8_d)">
<path d="M161.329 109.257C161.869 108.749 162.686 108.532 163.376 108.782C164.218 109.087 164.731 110.077 164.548 110.963C164.364 111.849 163.538 112.548 162.643 112.627C160.523 112.816 159.881 110.622 161.329 109.257Z" fill="url(#paint59_linear)"/>
</g>
<g filter="url(#filter9_d)">
<path d="M161.577 115.012C159.626 115.303 157.955 116.645 155.995 116.876C153.82 117.133 151.386 116.026 149.531 117.168C148.159 118.013 147.698 119.892 148.161 121.438C148.624 122.984 149.833 124.217 151.179 125.126C153.98 127.016 157.626 127.723 160.839 126.731C163.872 125.793 166.604 123.091 167.358 119.97C168.082 116.977 164.306 114.606 161.577 115.012Z" fill="url(#paint60_linear)"/>
</g>
<g filter="url(#filter10_d)">
<path d="M36.8216 104.423C37.7576 103.803 39.1918 104.185 39.7168 105.177C40.2424 106.17 39.7706 107.55 38.7591 108.036C37.747 108.522 36.3909 108.047 35.8797 107.047C35.3685 106.047 35.7623 104.691 36.7158 104.098" fill="url(#paint61_linear)"/>
</g>
<path d="M93.1873 83.4775C93.1873 83.4775 102.411 95.2879 91.8873 107.3L87.9308 106.931C87.9308 106.931 95.1743 95.3 92.3877 85.6832C92.2643 85.2592 91.8658 84.9734 91.4257 85.0056L87.3861 85.3008C86.8494 85.3397 86.3168 85.1747 85.8969 84.8366L83.451 82.8711L93.1873 83.4775Z" fill="url(#paint62_linear)"/>
<path d="M125.788 37.3819C125.382 37.0035 124.836 36.8144 124.284 36.864C118.378 37.3953 109.1 31.3324 100.156 27.1814C99.5064 26.8796 98.7443 26.9587 98.1714 27.3867C90.1619 33.3731 76.8851 34.6127 72.2752 34.8663C71.3213 34.9186 70.5485 35.6579 70.4492 36.6077C66.2593 77.0916 92.6171 91.761 98.0829 94.3504C98.6799 94.6335 99.3843 94.5919 99.9451 94.2431C127.191 77.2727 126.025 55.2015 126.402 38.8483C126.416 38.2955 126.193 37.7616 125.788 37.3819Z" fill="url(#paint63_linear)"/>
<path d="M98.2023 91.867C98.1634 91.867 98.1232 91.8549 98.0896 91.8321C98.0158 91.7811 90.5657 86.6963 83.9542 77.9099C80.0688 72.746 77.2272 67.3325 75.5072 61.8197C73.3552 54.9223 72.9648 47.8506 74.344 40.8003C74.3641 40.6997 74.454 40.6312 74.5573 40.638C74.7411 40.6514 93.037 41.8495 100.462 31.8019C100.498 31.7523 100.556 31.7214 100.617 31.7201C100.675 31.7161 100.738 31.7443 100.778 31.7926C100.847 31.8744 107.719 40.0221 113.175 41.9863C118.63 43.9505 122.609 43.1025 122.648 43.0945C122.707 43.0811 122.769 43.0958 122.816 43.1321C122.863 43.1696 122.892 43.226 122.894 43.2863C122.895 43.3628 123.044 51.0665 120.098 60.8483C118.368 66.5932 115.925 71.9249 112.838 76.6931C108.977 82.6553 104.092 87.7481 98.3177 91.8307C98.2842 91.8549 98.2426 91.867 98.2023 91.867ZM74.7063 41.0512C73.3807 47.9754 73.7792 54.9183 75.8896 61.6922C77.5948 67.1607 80.4136 72.5313 84.2681 77.6577C90.3913 85.7987 97.2377 90.744 98.201 91.4189C103.88 87.3819 108.689 82.3561 112.495 76.4811C115.562 71.7465 117.989 66.4537 119.707 60.7464C122.348 51.9815 122.49 44.9017 122.491 43.5345C121.532 43.6942 117.892 44.1155 113.037 42.3673C107.886 40.5132 101.735 33.5327 100.631 32.246C98.3901 35.1708 93.8393 38.8844 84.7712 40.426C79.8514 41.2618 75.6132 41.0995 74.7063 41.0512Z" fill="white"/>
<path d="M88.1346 141.299C88.1346 141.299 80.6603 157.588 76.7401 164.335C76.7401 164.335 75.9619 168.58 76.7401 169.915L77.4042 170.21L74.3064 170.118C74.3064 170.118 74.0313 164.408 74.246 164.088C74.4607 163.769 74.8913 163.79 74.8913 163.79C74.8913 163.79 76.2195 153.268 80.066 151.022L83.7944 138.183L88.1346 141.299Z" fill="url(#paint64_linear)"/>
<path d="M78.7271 171.012C78.7312 171.087 76.3082 171.052 74.992 171.028C74.5063 171.019 74.0918 170.678 73.9885 170.203L72.9943 164.98C72.9004 164.484 73.2157 164.002 73.7081 163.889L74.2635 163.762C74.2635 163.762 75.0551 164.847 74.8055 165.869C74.556 166.892 74.3346 169.54 74.9638 169.849C75.5931 170.157 77.4056 170.211 77.4056 170.211C77.4056 170.211 78.6855 170.338 78.7271 171.012Z" fill="url(#paint65_linear)"/>
<path d="M95.2184 171.105C95.464 171.245 95.362 171.619 95.0803 171.616C92.8773 171.593 87.9414 171.525 87.5027 171.342C86.9365 171.106 87.7093 169.072 88.5223 168.383L93.0128 169.848L95.2184 171.105Z" fill="url(#paint66_linear)"/>
<path d="M96.6125 140.261C96.6125 140.261 91.7826 163.625 90.4169 168.183L93.6489 170.211C93.6489 170.211 92.0295 169.936 90.8287 169.849C89.628 169.762 88.5225 168.384 88.5225 168.384L88.9102 167.767C88.9102 167.767 90.1217 144.53 89.8265 141.892L96.6125 140.261Z" fill="url(#paint67_linear)"/>
<path d="M108.601 85.7636C108.601 85.7636 109.268 97.9174 98.2023 104.128L100.867 110.204C100.867 110.204 110.885 104.145 110.514 87.6177C110.504 87.1441 110.675 86.6826 110.984 86.323L113.113 83.8531C113.925 82.9126 114.228 81.6354 113.926 80.4306L113.646 79.3103C113.552 78.9347 113.125 78.7549 112.79 78.9494L112.567 79.0782C111.859 79.4901 111.297 80.1139 110.963 80.8626L109.893 82.549C109.503 83.4224 109.412 83.7887 108.459 83.7055L106.687 83.7256L108.601 85.7636Z" fill="url(#paint68_linear)"/>
<path d="M98.5873 103.219C96.7359 103.733 90.4651 105.381 86.5488 105.314L88.953 118.88L88.7612 121.092L96.599 121.057C96.599 121.057 98.806 115.933 100.546 113.379C101.049 112.641 100.675 111.761 100.389 110.914L100.781 110.654C101.179 110.388 101.352 109.891 101.204 109.436L99.2944 103.596C99.1964 103.302 98.8865 103.135 98.5873 103.219Z" fill="url(#paint69_linear)"/>
<path d="M97.2269 119.899L97.0727 121.239C97.0727 121.239 99.2877 127.872 95.9658 143.365C95.9658 143.365 88.7706 145.403 82.8567 140.527C82.8567 140.527 84.5243 125.904 84.9805 125.223C87.2505 121.83 88.7626 121.093 88.7626 121.093L88.831 119.628C88.8296 119.628 95.1555 120.771 97.2269 119.899Z" fill="url(#paint70_linear)"/>
<path d="M94.16 104.312C94.1882 104.276 92.5232 99.2891 92.5232 99.2891L90.1404 99.5051L89.2094 105.163C89.2094 105.161 92.9445 105.915 94.16 104.312Z" fill="url(#paint71_linear)"/>
<path d="M90.7106 91.424C90.8689 91.5233 95.8035 93.5613 94.7436 98.6836C94.6805 98.9869 94.4793 99.2431 94.1962 99.3692C93.4717 99.6926 91.9141 100.245 90.0492 100.056C87.4652 99.7932 85.7707 95.2839 85.8432 93.9705C85.9156 92.657 89.1356 90.4433 90.7106 91.424Z" fill="url(#paint72_linear)"/>
<path d="M89.2093 89.4333C89.3394 89.4508 92.0603 90.398 90.7106 92.3702C89.3609 94.3424 88.8551 95.5029 89.4937 96.3696C90.0746 97.1585 91.364 96.709 91.2513 98.3498C91.2285 98.6785 91.3707 98.9979 91.643 99.1817C92.8572 100.004 95.8182 102.533 92.884 106.139C92.6452 106.433 92.5969 106.837 92.7807 107.167C93.6407 108.709 95.4452 113.225 88.9101 115.729C82.4515 118.205 80.1197 113.983 79.4677 112.296C79.3268 111.931 78.9672 111.707 78.5768 111.726C77.8671 111.759 76.8609 111.641 76.9078 110.693C76.936 110.117 77.2956 109.601 77.7195 109.186C78.1395 108.777 78.0563 108.059 77.5465 107.769C77.1614 107.551 76.8193 107.209 76.6757 106.675C76.284 105.224 77.0662 100.888 81.2225 100.153C81.5687 100.091 81.9323 99.7666 81.9832 99.4178C81.9846 99.4124 81.9846 99.4071 81.9859 99.4017C82.0423 99.0649 81.9282 98.7201 81.6519 98.5175C80.9877 98.0305 80.1372 97.0498 80.8281 95.4787C81.4412 94.0848 82.6178 93.6139 83.4912 93.4649C84.0037 93.3764 84.3418 92.8921 84.2332 92.3822C83.938 90.9963 84.1956 88.7759 89.2093 89.4333Z" fill="url(#paint73_linear)"/>
<line x1="81.2426" y1="61.2783" x2="93.3727" y2="73.4083" stroke="#00B907" stroke-width="6" stroke-linecap="round"/>
<line x1="93.369" y1="73.4107" x2="117.78" y2="49" stroke="#00B907" stroke-width="6" stroke-linecap="round"/>
<defs>
<filter id="filter0_d" x="0.775513" y="35.3438" width="188.149" height="156.636" filterUnits="userSpaceOnUse" color-interpolation-filters="sRGB">
<feFlood flood-opacity="0" result="BackgroundImageFix"/>
<feColorMatrix in="SourceAlpha" type="matrix" values="0 0 0 0 0 0 0 0 0 0 0 0 0 0 0 0 0 0 127 0" result="hardAlpha"/>
<feOffset dx="8" dy="8"/>
<feGaussianBlur stdDeviation="7"/>
<feColorMatrix type="matrix" values="0 0 0 0 0 0 0 0 0 0 0 0 0 0 0 0 0 0 0.25 0"/>
<feBlend mode="normal" in2="BackgroundImageFix" result="effect1_dropShadow"/>
<feBlend mode="normal" in="SourceGraphic" in2="effect1_dropShadow" result="shape"/>
</filter>
<filter id="filter1_d" x="116.169" y="37.9463" width="84.8548" height="71.3656" filterUnits="userSpaceOnUse" color-interpolation-filters="sRGB">
<feFlood flood-opacity="0" result="BackgroundImageFix"/>
<feColorMatrix in="SourceAlpha" type="matrix" values="0 0 0 0 0 0 0 0 0 0 0 0 0 0 0 0 0 0 127 0" result="hardAlpha"/>
<feOffset dx="8" dy="8"/>
<feGaussianBlur stdDeviation="7"/>
<feColorMatrix type="matrix" values="0 0 0 0 0 0 0 0 0 0 0 0 0 0 0 0 0 0 0.25 0"/>
<feBlend mode="normal" in2="BackgroundImageFix" result="effect1_dropShadow"/>
<feBlend mode="normal" in="SourceGraphic" in2="effect1_dropShadow" result="shape"/>
</filter>
<filter id="filter2_d" x="8.01562" y="96.7412" width="49.4472" height="63.9164" filterUnits="userSpaceOnUse" color-interpolation-filters="sRGB">
<feFlood flood-opacity="0" result="BackgroundImageFix"/>
<feColorMatrix in="SourceAlpha" type="matrix" values="0 0 0 0 0 0 0 0 0 0 0 0 0 0 0 0 0 0 127 0" result="hardAlpha"/>
<feOffset dx="8" dy="8"/>
<feGaussianBlur stdDeviation="7"/>
<feColorMatrix type="matrix" values="0 0 0 0 0 0 0 0 0 0 0 0 0 0 0 0 0 0 0.25 0"/>
<feBlend mode="normal" in2="BackgroundImageFix" result="effect1_dropShadow"/>
<feBlend mode="normal" in="SourceGraphic" in2="effect1_dropShadow" result="shape"/>
</filter>
<filter id="filter3_d" x="26.934" y="37.3447" width="38.7327" height="39.4854" filterUnits="userSpaceOnUse" color-interpolation-filters="sRGB">
<feFlood flood-opacity="0" result="BackgroundImageFix"/>
<feColorMatrix in="SourceAlpha" type="matrix" values="0 0 0 0 0 0 0 0 0 0 0 0 0 0 0 0 0 0 127 0" result="hardAlpha"/>
<feOffset dx="8" dy="8"/>
<feGaussianBlur stdDeviation="7"/>
<feColorMatrix type="matrix" values="0 0 0 0 0 0 0 0 0 0 0 0 0 0 0 0 0 0 0.25 0"/>
<feBlend mode="normal" in2="BackgroundImageFix" result="effect1_dropShadow"/>
<feBlend mode="normal" in="SourceGraphic" in2="effect1_dropShadow" result="shape"/>
</filter>
<filter id="filter4_d" x="21.7804" y="137.032" width="32.0361" height="31.9603" filterUnits="userSpaceOnUse" color-interpolation-filters="sRGB">
<feFlood flood-opacity="0" result="BackgroundImageFix"/>
<feColorMatrix in="SourceAlpha" type="matrix" values="0 0 0 0 0 0 0 0 0 0 0 0 0 0 0 0 0 0 127 0" result="hardAlpha"/>
<feOffset dx="8" dy="8"/>
<feGaussianBlur stdDeviation="7"/>
<feColorMatrix type="matrix" values="0 0 0 0 0 0 0 0 0 0 0 0 0 0 0 0 0 0 0.25 0"/>
<feBlend mode="normal" in2="BackgroundImageFix" result="effect1_dropShadow"/>
<feBlend mode="normal" in="SourceGraphic" in2="effect1_dropShadow" result="shape"/>
</filter>
<filter id="filter5_d" x="39.2731" y="146.39" width="48.9649" height="48.5715" filterUnits="userSpaceOnUse" color-interpolation-filters="sRGB">
<feFlood flood-opacity="0" result="BackgroundImageFix"/>
<feColorMatrix in="SourceAlpha" type="matrix" values="0 0 0 0 0 0 0 0 0 0 0 0 0 0 0 0 0 0 127 0" result="hardAlpha"/>
<feOffset dx="8" dy="8"/>
<feGaussianBlur stdDeviation="7"/>
<feColorMatrix type="matrix" values="0 0 0 0 0 0 0 0 0 0 0 0 0 0 0 0 0 0 0.25 0"/>
<feBlend mode="normal" in2="BackgroundImageFix" result="effect1_dropShadow"/>
<feBlend mode="normal" in="SourceGraphic" in2="effect1_dropShadow" result="shape"/>
</filter>
<filter id="filter6_d" x="2.36182" y="74.6699" width="40.435" height="40.2017" filterUnits="userSpaceOnUse" color-interpolation-filters="sRGB">
<feFlood flood-opacity="0" result="BackgroundImageFix"/>
<feColorMatrix in="SourceAlpha" type="matrix" values="0 0 0 0 0 0 0 0 0 0 0 0 0 0 0 0 0 0 127 0" result="hardAlpha"/>
<feOffset dx="8" dy="8"/>
<feGaussianBlur stdDeviation="7"/>
<feColorMatrix type="matrix" values="0 0 0 0 0 0 0 0 0 0 0 0 0 0 0 0 0 0 0.25 0"/>
<feBlend mode="normal" in2="BackgroundImageFix" result="effect1_dropShadow"/>
<feBlend mode="normal" in="SourceGraphic" in2="effect1_dropShadow" result="shape"/>
</filter>
<filter id="filter7_d" x="30.6431" y="50.625" width="31.4772" height="30.9782" filterUnits="userSpaceOnUse" color-interpolation-filters="sRGB">
<feFlood flood-opacity="0" result="BackgroundImageFix"/>
<feColorMatrix in="SourceAlpha" type="matrix" values="0 0 0 0 0 0 0 0 0 0 0 0 0 0 0 0 0 0 127 0" result="hardAlpha"/>
<feOffset dx="8" dy="8"/>
<feGaussianBlur stdDeviation="7"/>
<feColorMatrix type="matrix" values="0 0 0 0 0 0 0 0 0 0 0 0 0 0 0 0 0 0 0.25 0"/>
<feBlend mode="normal" in2="BackgroundImageFix" result="effect1_dropShadow"/>
<feBlend mode="normal" in="SourceGraphic" in2="effect1_dropShadow" result="shape"/>
</filter>
<filter id="filter8_d" x="154.549" y="102.678" width="32.0361" height="31.9603" filterUnits="userSpaceOnUse" color-interpolation-filters="sRGB">
<feFlood flood-opacity="0" result="BackgroundImageFix"/>
<feColorMatrix in="SourceAlpha" type="matrix" values="0 0 0 0 0 0 0 0 0 0 0 0 0 0 0 0 0 0 127 0" result="hardAlpha"/>
<feOffset dx="8" dy="8"/>
<feGaussianBlur stdDeviation="7"/>
<feColorMatrix type="matrix" values="0 0 0 0 0 0 0 0 0 0 0 0 0 0 0 0 0 0 0.25 0"/>
<feBlend mode="normal" in2="BackgroundImageFix" result="effect1_dropShadow"/>
<feBlend mode="normal" in="SourceGraphic" in2="effect1_dropShadow" result="shape"/>
</filter>
<filter id="filter9_d" x="141.987" y="108.967" width="47.462" height="40.2122" filterUnits="userSpaceOnUse" color-interpolation-filters="sRGB">
<feFlood flood-opacity="0" result="BackgroundImageFix"/>
<feColorMatrix in="SourceAlpha" type="matrix" values="0 0 0 0 0 0 0 0 0 0 0 0 0 0 0 0 0 0 127 0" result="hardAlpha"/>
<feOffset dx="8" dy="8"/>
<feGaussianBlur stdDeviation="7"/>
<feColorMatrix type="matrix" values="0 0 0 0 0 0 0 0 0 0 0 0 0 0 0 0 0 0 0.25 0"/>
<feBlend mode="normal" in2="BackgroundImageFix" result="effect1_dropShadow"/>
<feBlend mode="normal" in="SourceGraphic" in2="effect1_dropShadow" result="shape"/>
</filter>
<filter id="filter10_d" x="29.6547" y="98.0977" width="32.2791" height="32.1301" filterUnits="userSpaceOnUse" color-interpolation-filters="sRGB">
<feFlood flood-opacity="0" result="BackgroundImageFix"/>
<feColorMatrix in="SourceAlpha" type="matrix" values="0 0 0 0 0 0 0 0 0 0 0 0 0 0 0 0 0 0 127 0" result="hardAlpha"/>
<feOffset dx="8" dy="8"/>
<feGaussianBlur stdDeviation="7"/>
<feColorMatrix type="matrix" values="0 0 0 0 0 0 0 0 0 0 0 0 0 0 0 0 0 0 0.25 0"/>
<feBlend mode="normal" in2="BackgroundImageFix" result="effect1_dropShadow"/>
<feBlend mode="normal" in="SourceGraphic" in2="effect1_dropShadow" result="shape"/>
</filter>
<linearGradient id="paint0_linear" x1="11.6532" y1="15.6165" x2="184.437" y2="26.453" gradientUnits="userSpaceOnUse">
<stop offset="0.0756841" stop-color="#B565D8"/>
<stop offset="0.945898" stop-color="#EE609C"/>
</linearGradient>
<linearGradient id="paint1_linear" x1="117.827" y1="39.8938" x2="170.436" y2="23.2243" gradientUnits="userSpaceOnUse">
<stop offset="0.0756841" stop-color="#B565D8"/>
<stop offset="0.945898" stop-color="#EE609C"/>
</linearGradient>
<linearGradient id="paint2_linear" x1="64.0933" y1="116.756" x2="68.6349" y2="123.335" gradientUnits="userSpaceOnUse">
<stop offset="0.0756841" stop-color="#B565D8"/>
<stop offset="0.945898" stop-color="#EE609C"/>
</linearGradient>
<linearGradient id="paint3_linear" x1="55.7727" y1="112.964" x2="60.304" y2="119.552" gradientUnits="userSpaceOnUse">
<stop offset="0.0756841" stop-color="#B565D8"/>
<stop offset="0.945898" stop-color="#EE609C"/>
</linearGradient>
<linearGradient id="paint4_linear" x1="40.1471" y1="113.422" x2="44.6488" y2="120.061" gradientUnits="userSpaceOnUse">
<stop offset="0.0756841" stop-color="#B565D8"/>
<stop offset="0.945898" stop-color="#EE609C"/>
</linearGradient>
<linearGradient id="paint5_linear" x1="35.1922" y1="107.671" x2="39.709" y2="114.298" gradientUnits="userSpaceOnUse">
<stop offset="0.0756841" stop-color="#B565D8"/>
<stop offset="0.945898" stop-color="#EE609C"/>
</linearGradient>
<linearGradient id="paint6_linear" x1="60.1394" y1="114.741" x2="64.6764" y2="121.324" gradientUnits="userSpaceOnUse">
<stop offset="0.0756841" stop-color="#B565D8"/>
<stop offset="0.945898" stop-color="#EE609C"/>
</linearGradient>
<linearGradient id="paint7_linear" x1="50.8646" y1="111.502" x2="55.3884" y2="118.096" gradientUnits="userSpaceOnUse">
<stop offset="0.0756841" stop-color="#B565D8"/>
<stop offset="0.945898" stop-color="#EE609C"/>
</linearGradient>
<linearGradient id="paint8_linear" x1="37.5795" y1="110.599" x2="42.0877" y2="117.233" gradientUnits="userSpaceOnUse">
<stop offset="0.0756841" stop-color="#B565D8"/>
<stop offset="0.945898" stop-color="#EE609C"/>
</linearGradient>
<linearGradient id="paint9_linear" x1="94.4905" y1="142.24" x2="99.0853" y2="148.775" gradientUnits="userSpaceOnUse">
<stop offset="0.0756841" stop-color="#B565D8"/>
<stop offset="0.945898" stop-color="#EE609C"/>
</linearGradient>
<linearGradient id="paint10_linear" x1="88.9779" y1="136.813" x2="93.5707" y2="143.379" gradientUnits="userSpaceOnUse">
<stop offset="0.0756841" stop-color="#B565D8"/>
<stop offset="0.945898" stop-color="#EE609C"/>
</linearGradient>
<linearGradient id="paint11_linear" x1="83.392" y1="131.43" x2="87.9729" y2="138.006" gradientUnits="userSpaceOnUse">
<stop offset="0.0756841" stop-color="#B565D8"/>
<stop offset="0.945898" stop-color="#EE609C"/>
</linearGradient>
<linearGradient id="paint12_linear" x1="77.5308" y1="126.206" x2="82.1022" y2="132.79" gradientUnits="userSpaceOnUse">
<stop offset="0.0756841" stop-color="#B565D8"/>
<stop offset="0.945898" stop-color="#EE609C"/>
</linearGradient>
<linearGradient id="paint13_linear" x1="71.191" y1="121.261" x2="75.7404" y2="127.834" gradientUnits="userSpaceOnUse">
<stop offset="0.0756841" stop-color="#B565D8"/>
<stop offset="0.945898" stop-color="#EE609C"/>
</linearGradient>
<linearGradient id="paint14_linear" x1="91.7312" y1="139.528" x2="96.3315" y2="146.087" gradientUnits="userSpaceOnUse">
<stop offset="0.0756841" stop-color="#B565D8"/>
<stop offset="0.945898" stop-color="#EE609C"/>
</linearGradient>
<linearGradient id="paint15_linear" x1="86.2068" y1="134.108" x2="90.7932" y2="140.679" gradientUnits="userSpaceOnUse">
<stop offset="0.0756841" stop-color="#B565D8"/>
<stop offset="0.945898" stop-color="#EE609C"/>
</linearGradient>
<linearGradient id="paint16_linear" x1="80.5092" y1="128.79" x2="85.085" y2="135.37" gradientUnits="userSpaceOnUse">
<stop offset="0.0756841" stop-color="#B565D8"/>
<stop offset="0.945898" stop-color="#EE609C"/>
</linearGradient>
<linearGradient id="paint17_linear" x1="74.4325" y1="123.691" x2="78.9999" y2="130.278" gradientUnits="userSpaceOnUse">
<stop offset="0.0756841" stop-color="#B565D8"/>
<stop offset="0.945898" stop-color="#EE609C"/>
</linearGradient>
<linearGradient id="paint18_linear" x1="67.755" y1="118.943" x2="72.3006" y2="125.519" gradientUnits="userSpaceOnUse">
<stop offset="0.0756841" stop-color="#B565D8"/>
<stop offset="0.945898" stop-color="#EE609C"/>
</linearGradient>
<linearGradient id="paint19_linear" x1="119.887" y1="161.999" x2="124.676" y2="168.361" gradientUnits="userSpaceOnUse">
<stop offset="0.0756841" stop-color="#B565D8"/>
<stop offset="0.945898" stop-color="#EE609C"/>
</linearGradient>
<linearGradient id="paint20_linear" x1="112.514" y1="157.656" x2="117.217" y2="164.096" gradientUnits="userSpaceOnUse">
<stop offset="0.0756841" stop-color="#B565D8"/>
<stop offset="0.945898" stop-color="#EE609C"/>
</linearGradient>
<linearGradient id="paint21_linear" x1="106.043" y1="152.787" x2="110.695" y2="159.274" gradientUnits="userSpaceOnUse">
<stop offset="0.0756841" stop-color="#B565D8"/>
<stop offset="0.945898" stop-color="#EE609C"/>
</linearGradient>
<linearGradient id="paint22_linear" x1="100.113" y1="147.602" x2="104.731" y2="154.118" gradientUnits="userSpaceOnUse">
<stop offset="0.0756841" stop-color="#B565D8"/>
<stop offset="0.945898" stop-color="#EE609C"/>
</linearGradient>
<linearGradient id="paint23_linear" x1="124.099" y1="163.866" x2="128.955" y2="170.161" gradientUnits="userSpaceOnUse">
<stop offset="0.0756841" stop-color="#B565D8"/>
<stop offset="0.945898" stop-color="#EE609C"/>
</linearGradient>
<linearGradient id="paint24_linear" x1="116.045" y1="159.918" x2="120.785" y2="166.325" gradientUnits="userSpaceOnUse">
<stop offset="0.0756841" stop-color="#B565D8"/>
<stop offset="0.945898" stop-color="#EE609C"/>
</linearGradient>
<linearGradient id="paint25_linear" x1="109.192" y1="155.272" x2="113.867" y2="161.738" gradientUnits="userSpaceOnUse">
<stop offset="0.0756841" stop-color="#B565D8"/>
<stop offset="0.945898" stop-color="#EE609C"/>
</linearGradient>
<linearGradient id="paint26_linear" x1="103.021" y1="150.229" x2="107.654" y2="156.731" gradientUnits="userSpaceOnUse">
<stop offset="0.0756841" stop-color="#B565D8"/>
<stop offset="0.945898" stop-color="#EE609C"/>
</linearGradient>
<linearGradient id="paint27_linear" x1="97.2747" y1="144.937" x2="101.895" y2="151.481" gradientUnits="userSpaceOnUse">
<stop offset="0.0756841" stop-color="#B565D8"/>
<stop offset="0.945898" stop-color="#EE609C"/>
</linearGradient>
<linearGradient id="paint28_linear" x1="128.796" y1="165.449" x2="133.768" y2="171.657" gradientUnits="userSpaceOnUse">
<stop offset="0.0756841" stop-color="#B565D8"/>
<stop offset="0.945898" stop-color="#EE609C"/>
</linearGradient>
<linearGradient id="paint29_linear" x1="140.946" y1="167.013" x2="146.421" y2="172.548" gradientUnits="userSpaceOnUse">
<stop offset="0.0756841" stop-color="#B565D8"/>
<stop offset="0.945898" stop-color="#EE609C"/>
</linearGradient>
<linearGradient id="paint30_linear" x1="134.213" y1="166.616" x2="139.332" y2="172.621" gradientUnits="userSpaceOnUse">
<stop offset="0.0756841" stop-color="#B565D8"/>
<stop offset="0.945898" stop-color="#EE609C"/>
</linearGradient>
<linearGradient id="paint31_linear" x1="34.7619" y1="43.1633" x2="40.6428" y2="47.6959" gradientUnits="userSpaceOnUse">
<stop offset="0.0756841" stop-color="#B565D8"/>
<stop offset="0.945898" stop-color="#EE609C"/>
</linearGradient>
<linearGradient id="paint32_linear" x1="28.3567" y1="51.2072" x2="33.5495" y2="57.1187" gradientUnits="userSpaceOnUse">
<stop offset="0.0756841" stop-color="#B565D8"/>
<stop offset="0.945898" stop-color="#EE609C"/>
</linearGradient>
<linearGradient id="paint33_linear" x1="27.4995" y1="94.8773" x2="32.0698" y2="101.462" gradientUnits="userSpaceOnUse">
<stop offset="0.0756841" stop-color="#B565D8"/>
<stop offset="0.945898" stop-color="#EE609C"/>
</linearGradient>
<linearGradient id="paint34_linear" x1="24.8912" y1="87.7611" x2="29.5019" y2="94.312" gradientUnits="userSpaceOnUse">
<stop offset="0.0756841" stop-color="#B565D8"/>
<stop offset="0.945898" stop-color="#EE609C"/>
</linearGradient>
<linearGradient id="paint35_linear" x1="23.2361" y1="80.0917" x2="27.8846" y2="86.5811" gradientUnits="userSpaceOnUse">
<stop offset="0.0756841" stop-color="#B565D8"/>
<stop offset="0.945898" stop-color="#EE609C"/>
</linearGradient>
<linearGradient id="paint36_linear" x1="22.7458" y1="71.7423" x2="27.4687" y2="78.1652" gradientUnits="userSpaceOnUse">
<stop offset="0.0756841" stop-color="#B565D8"/>
<stop offset="0.945898" stop-color="#EE609C"/>
</linearGradient>
<linearGradient id="paint37_linear" x1="23.9122" y1="62.4285" x2="28.7649" y2="68.7273" gradientUnits="userSpaceOnUse">
<stop offset="0.0756841" stop-color="#B565D8"/>
<stop offset="0.945898" stop-color="#EE609C"/>
</linearGradient>
<linearGradient id="paint38_linear" x1="26.0825" y1="91.3851" x2="30.6717" y2="97.954" gradientUnits="userSpaceOnUse">
<stop offset="0.0756841" stop-color="#B565D8"/>
<stop offset="0.945898" stop-color="#EE609C"/>
</linearGradient>
<linearGradient id="paint39_linear" x1="23.9371" y1="83.9991" x2="28.5722" y2="90.5293" gradientUnits="userSpaceOnUse">
<stop offset="0.0756841" stop-color="#B565D8"/>
<stop offset="0.945898" stop-color="#EE609C"/>
</linearGradient>
<linearGradient id="paint40_linear" x1="22.825" y1="76.0133" x2="27.5067" y2="82.4736" gradientUnits="userSpaceOnUse">
<stop offset="0.0756841" stop-color="#B565D8"/>
<stop offset="0.945898" stop-color="#EE609C"/>
</linearGradient>
<linearGradient id="paint41_linear" x1="23.065" y1="67.2396" x2="27.8419" y2="73.6123" gradientUnits="userSpaceOnUse">
<stop offset="0.0756841" stop-color="#B565D8"/>
<stop offset="0.945898" stop-color="#EE609C"/>
</linearGradient>
<linearGradient id="paint42_linear" x1="25.4904" y1="57.1933" x2="30.4607" y2="63.3692" gradientUnits="userSpaceOnUse">
<stop offset="0.0756841" stop-color="#B565D8"/>
<stop offset="0.945898" stop-color="#EE609C"/>
</linearGradient>
<linearGradient id="paint43_linear" x1="49.4591" y1="125.273" x2="54.6623" y2="126.305" gradientUnits="userSpaceOnUse">
<stop offset="0.0756841" stop-color="#B565D8"/>
<stop offset="0.945898" stop-color="#EE609C"/>
</linearGradient>
<linearGradient id="paint44_linear" x1="43.1495" y1="120.31" x2="48.9007" y2="122.317" gradientUnits="userSpaceOnUse">
<stop offset="0.0756841" stop-color="#B565D8"/>
<stop offset="0.945898" stop-color="#EE609C"/>
</linearGradient>
<linearGradient id="paint45_linear" x1="30.9678" y1="101.494" x2="35.5071" y2="108.103" gradientUnits="userSpaceOnUse">
<stop offset="0.0756841" stop-color="#B565D8"/>
<stop offset="0.945898" stop-color="#EE609C"/>
</linearGradient>
<linearGradient id="paint46_linear" x1="46.2125" y1="122.845" x2="51.7707" y2="124.431" gradientUnits="userSpaceOnUse">
<stop offset="0.0756841" stop-color="#B565D8"/>
<stop offset="0.945898" stop-color="#EE609C"/>
</linearGradient>
<linearGradient id="paint47_linear" x1="40.266" y1="117.671" x2="46.1215" y2="119.98" gradientUnits="userSpaceOnUse">
<stop offset="0.0756841" stop-color="#B565D8"/>
<stop offset="0.945898" stop-color="#EE609C"/>
</linearGradient>
<linearGradient id="paint48_linear" x1="32.9877" y1="104.636" x2="37.5148" y2="111.256" gradientUnits="userSpaceOnUse">
<stop offset="0.0756841" stop-color="#B565D8"/>
<stop offset="0.945898" stop-color="#EE609C"/>
</linearGradient>
<linearGradient id="paint49_linear" x1="29.1275" y1="98.2489" x2="33.6811" y2="104.847" gradientUnits="userSpaceOnUse">
<stop offset="0.0756841" stop-color="#B565D8"/>
<stop offset="0.945898" stop-color="#EE609C"/>
</linearGradient>
<linearGradient id="paint50_linear" x1="56.539" y1="129.787" x2="59.9501" y2="129.494" gradientUnits="userSpaceOnUse">
<stop offset="0.0756841" stop-color="#B565D8"/>
<stop offset="0.945898" stop-color="#EE609C"/>
</linearGradient>
<linearGradient id="paint51_linear" x1="60.3856" y1="131.865" x2="62.007" y2="131.339" gradientUnits="userSpaceOnUse">
<stop offset="0.0756841" stop-color="#B565D8"/>
<stop offset="0.945898" stop-color="#EE609C"/>
</linearGradient>
<linearGradient id="paint52_linear" x1="52.8998" y1="127.588" x2="57.4536" y2="127.949" gradientUnits="userSpaceOnUse">
<stop offset="0.0756841" stop-color="#B565D8"/>
<stop offset="0.945898" stop-color="#EE609C"/>
</linearGradient>
<linearGradient id="paint53_linear" x1="3.1946" y1="108.574" x2="25.9421" y2="92.3195" gradientUnits="userSpaceOnUse">
<stop offset="0.0756841" stop-color="#B565D8"/>
<stop offset="0.945898" stop-color="#EE609C"/>
</linearGradient>
<linearGradient id="paint54_linear" x1="30.1358" y1="44.6457" x2="41.3318" y2="39.5709" gradientUnits="userSpaceOnUse">
<stop offset="0.0756841" stop-color="#B565D8"/>
<stop offset="0.945898" stop-color="#EE609C"/>
</linearGradient>
<linearGradient id="paint55_linear" x1="26.5378" y1="145.617" x2="28.688" y2="141.698" gradientUnits="userSpaceOnUse">
<stop offset="0.0756841" stop-color="#B565D8"/>
<stop offset="0.945898" stop-color="#EE609C"/>
</linearGradient>
<linearGradient id="paint56_linear" x1="38.8188" y1="165.814" x2="49.9879" y2="145.458" gradientUnits="userSpaceOnUse">
<stop offset="0.0756841" stop-color="#B565D8"/>
<stop offset="0.945898" stop-color="#EE609C"/>
</linearGradient>
<linearGradient id="paint57_linear" x1="4.53352" y1="88.6326" x2="11.1583" y2="76.5586" gradientUnits="userSpaceOnUse">
<stop offset="0.0756841" stop-color="#B565D8"/>
<stop offset="0.945898" stop-color="#EE609C"/>
</linearGradient>
<linearGradient id="paint58_linear" x1="40.8963" y1="57.0614" x2="40.2888" y2="60.3294" gradientUnits="userSpaceOnUse">
<stop offset="0.0756841" stop-color="#B565D8"/>
<stop offset="0.945898" stop-color="#EE609C"/>
</linearGradient>
<linearGradient id="paint59_linear" x1="159.306" y1="111.263" x2="161.457" y2="107.344" gradientUnits="userSpaceOnUse">
<stop offset="0.0756841" stop-color="#B565D8"/>
<stop offset="0.945898" stop-color="#EE609C"/>
</linearGradient>
<linearGradient id="paint60_linear" x1="154.21" y1="107.396" x2="171.23" y2="116.761" gradientUnits="userSpaceOnUse">
<stop offset="0.0756841" stop-color="#B565D8"/>
<stop offset="0.945898" stop-color="#EE609C"/>
</linearGradient>
<linearGradient id="paint61_linear" x1="37.1664" y1="102.646" x2="41.2748" y2="104.856" gradientUnits="userSpaceOnUse">
<stop offset="0.0756841" stop-color="#B565D8"/>
<stop offset="0.945898" stop-color="#EE609C"/>
</linearGradient>
<linearGradient id="paint62_linear" x1="86.591" y1="81.545" x2="93.3384" y2="102.227" gradientUnits="userSpaceOnUse">
<stop stop-color="#F9B776"/>
<stop offset="1" stop-color="#F47960"/>
</linearGradient>
<linearGradient id="paint63_linear" x1="7.08299" y1="123.98" x2="186.374" y2="-10.8919" gradientUnits="userSpaceOnUse">
<stop stop-color="#3F2BF3"/>
<stop offset="1" stop-color="#3522CB"/>
</linearGradient>
<linearGradient id="paint64_linear" x1="88.1349" y1="154.197" x2="74.164" y2="154.197" gradientUnits="userSpaceOnUse">
<stop stop-color="#F9B776"/>
<stop offset="1" stop-color="#F47960"/>
</linearGradient>
<linearGradient id="paint65_linear" x1="68.9315" y1="122.955" x2="75.8504" y2="167.927" gradientUnits="userSpaceOnUse">
<stop stop-color="#53D8FF"/>
<stop offset="1" stop-color="#3840F7"/>
</linearGradient>
<linearGradient id="paint66_linear" x1="83.571" y1="120.702" x2="90.4898" y2="165.674" gradientUnits="userSpaceOnUse">
<stop stop-color="#53D8FF"/>
<stop offset="1" stop-color="#3840F7"/>
</linearGradient>
<linearGradient id="paint67_linear" x1="96.6125" y1="155.236" x2="88.5222" y2="155.236" gradientUnits="userSpaceOnUse">
<stop stop-color="#F9B776"/>
<stop offset="1" stop-color="#F47960"/>
</linearGradient>
<linearGradient id="paint68_linear" x1="114.04" y1="94.5374" x2="98.2022" y2="94.5374" gradientUnits="userSpaceOnUse">
<stop stop-color="#F9B776"/>
<stop offset="1" stop-color="#F47960"/>
</linearGradient>
<linearGradient id="paint69_linear" x1="76.818" y1="138.567" x2="86.0062" y2="122.763" gradientUnits="userSpaceOnUse">
<stop stop-color="#FDF53F"/>
<stop offset="0.6645" stop-color="#E57A58"/>
<stop offset="1" stop-color="#D93C65"/>
</linearGradient>
<linearGradient id="paint70_linear" x1="103.755" y1="118.688" x2="77.8099" y2="147.948" gradientUnits="userSpaceOnUse">
<stop stop-color="#53D8FF"/>
<stop offset="1" stop-color="#3840F7"/>
</linearGradient>
<linearGradient id="paint71_linear" x1="94.1599" y1="102.314" x2="89.2091" y2="102.314" gradientUnits="userSpaceOnUse">
<stop stop-color="#F9B776"/>
<stop offset="1" stop-color="#F47960"/>
</linearGradient>
<linearGradient id="paint72_linear" x1="86.2915" y1="95.9154" x2="50.256" y2="98.3658" gradientUnits="userSpaceOnUse">
<stop stop-color="#F9B776"/>
<stop offset="1" stop-color="#F47960"/>
</linearGradient>
<linearGradient id="paint73_linear" x1="80.3685" y1="93.7436" x2="93.0529" y2="119.112" gradientUnits="userSpaceOnUse">
<stop stop-color="#2B3582"/>
<stop offset="1" stop-color="#150E42"/>
</linearGradient>
</defs>
</svg>
