<svg width="282" height="286" viewBox="0 0 282 286" fill="none" xmlns="http://www.w3.org/2000/svg">
<g opacity="0.7" filter="url(#filter0_d)">
<path d="M231.767 181.352C242.326 146.952 226.791 107.729 198.735 85.2063C170.679 62.6815 132.397 55.5346 96.7405 60.3003C66.0728 64.3994 35.532 77.6029 16.2366 101.8C7.3717 112.919 2.08634 131.239 13.3853 139.872C26.9637 150.244 47.328 134.221 63.2101 140.521C77.2186 146.077 79.3644 165.128 76.4708 179.924C73.5772 194.72 68.08 210.66 74.7014 224.203C80.9333 236.945 96.4717 242.91 110.627 242.066C126.349 241.129 140.966 233.087 156.587 230.647C164.412 229.425 172.129 229.943 179.967 228.561C188.604 227.037 196.804 223.965 204.03 218.942C217.012 209.915 227.115 196.505 231.767 181.352Z" fill="url(#paint0_linear)"/>
</g>
<g filter="url(#filter1_d)">
<path d="M222.132 67.7575C212.238 63.9451 201.547 61.9665 190.971 62.788C186.083 63.1679 181.069 64.2148 177.105 67.1C173.14 69.9851 170.473 75.0618 171.595 79.8295C172.477 83.5746 175.457 86.486 178.701 88.5568C181.945 90.6283 185.559 92.0783 188.765 94.2083C191.971 96.3375 194.858 99.377 195.536 103.164C196.16 106.651 194.833 110.229 195.203 113.753C195.784 119.281 200.869 123.8 206.408 124.323C211.947 124.847 217.51 121.72 220.503 117.031C223.328 112.603 224.231 106.811 228.308 103.498C230.53 101.693 233.402 100.906 236.224 100.424C239.046 99.9434 241.93 99.7171 244.652 98.8291C250.236 97.0074 254.953 90.0675 250.665 84.6648C248.767 82.2719 245.653 80.6913 243.164 79.0043C240.072 76.9092 236.906 74.9266 233.63 73.1287C229.919 71.0929 226.084 69.2795 222.132 67.7575Z" fill="url(#paint1_linear)"/>
</g>
<path d="M202.788 100.002L186.956 109.215L186.636 109.401L141.013 135.95L140.694 136.136L95.0689 162.686L94.7505 162.871L85.0683 168.505C85.2517 168.606 85.4386 168.697 85.6207 168.799L95.0177 163.33L95.3361 163.145L140.961 136.595L141.28 136.41L186.904 109.86L187.223 109.674L203.228 100.361C203.082 100.242 202.936 100.121 202.788 100.002Z" fill="url(#paint2_linear)"/>
<path d="M181.609 100.026L181.29 100.213L135.666 126.762L135.347 126.947L89.722 153.497L89.4036 153.683L73.137 163.148C73.354 163.224 73.5676 163.309 73.7841 163.387L89.6695 154.143L89.9879 153.957L135.613 127.407L135.932 127.222L181.555 100.672L181.875 100.486L193.871 93.5057C193.705 93.3969 193.536 93.2916 193.37 93.1828L181.609 100.026Z" fill="url(#paint3_linear)"/>
<path d="M176.263 90.8376L175.943 91.0237L130.319 117.573L130 117.758L84.3753 144.308L84.0568 144.494L50.5069 164.017C50.632 164.15 50.7558 164.283 50.8822 164.415L84.3247 144.954L84.6432 144.769L130.268 118.219L130.587 118.033L176.211 91.4841L176.53 91.298L183.422 87.2879C183.238 87.1874 183.054 87.0911 182.869 86.9934L176.263 90.8376Z" fill="url(#paint4_linear)"/>
<path d="M170.916 81.6492L170.596 81.8352L124.972 108.385L124.653 108.57L79.0283 135.12L78.7098 135.305L43.5841 155.746C43.6914 155.889 43.7999 156.031 43.9071 156.174L78.9778 135.766L79.2962 135.58L124.921 109.03L125.24 108.845L170.864 82.2957L171.183 82.1096L172.043 81.6095C171.846 81.5185 171.649 81.4275 171.453 81.3366L170.916 81.6492Z" fill="url(#paint5_linear)"/>
<path d="M184.284 104.622L183.964 104.808L138.34 131.357L138.022 131.543L92.3964 158.093L92.0779 158.278L79.4016 165.655C79.5968 165.743 79.7868 165.843 79.9808 165.932L92.3451 158.737L92.6636 158.552L138.289 132.002L138.607 131.817L184.231 105.267L184.551 105.081L198.693 96.8516C198.537 96.7369 198.383 96.6213 198.226 96.5086L184.284 104.622Z" fill="url(#paint6_linear)"/>
<path d="M178.936 95.4324L178.616 95.6185L132.992 122.168L132.674 122.353L87.0487 148.903L86.7303 149.089L66.0856 161.102C66.3326 161.159 66.5758 161.229 66.8222 161.288L86.9975 149.548L87.3159 149.362L132.941 122.812L133.26 122.627L178.883 96.0776L179.203 95.8916L188.77 90.3243C188.595 90.2207 188.423 90.1156 188.247 90.014L178.936 95.4324Z" fill="url(#paint7_linear)"/>
<path d="M173.589 86.2441L173.269 86.4302L127.645 112.98L127.327 113.165L81.7017 139.715L81.3832 139.9L46.9099 159.961C47.026 160.099 47.1396 160.238 47.2558 160.376L81.6512 140.361L81.9697 140.175L127.595 113.625L127.913 113.44L173.537 86.8906L173.857 86.7045L177.831 84.392C177.64 84.2974 177.451 84.2019 177.261 84.1072L173.589 86.2441Z" fill="url(#paint8_linear)"/>
<path d="M234.731 142.915L213.692 155.159L213.372 155.345L167.748 181.894L167.43 182.079L128.733 204.598C128.867 204.725 129.001 204.853 129.133 204.979L167.697 182.539L168.015 182.353L213.639 155.804L213.959 155.618L234.937 143.41C234.869 143.246 234.8 143.081 234.731 142.915Z" fill="url(#paint9_linear)"/>
<path d="M208.345 145.97L208.025 146.156L162.401 172.706L162.083 172.891L120.777 196.928C120.91 197.056 121.042 197.184 121.175 197.312L162.351 173.352L162.669 173.166L208.293 146.617L208.613 146.431L230.417 133.742C230.335 133.585 230.252 133.428 230.169 133.271L208.345 145.97Z" fill="url(#paint10_linear)"/>
<path d="M202.998 136.782L202.678 136.968L157.054 163.517L156.736 163.702L112.74 189.304C112.877 189.43 113.012 189.557 113.149 189.683L157.004 164.163L157.322 163.977L202.946 137.428L203.266 137.242L225.006 124.591C224.909 124.442 224.814 124.292 224.715 124.144L202.998 136.782Z" fill="url(#paint11_linear)"/>
<path d="M197.651 127.593L197.331 127.779L151.707 154.328L151.389 154.514L105.764 181.064L105.445 181.249L104.326 181.9C104.47 182.022 104.615 182.143 104.759 182.265L105.713 181.71L106.032 181.524L151.657 154.974L151.975 154.789L197.599 128.239L197.919 128.053L218.706 115.957C218.593 115.817 218.483 115.676 218.369 115.537L197.651 127.593Z" fill="url(#paint12_linear)"/>
<path d="M192.304 118.405L191.984 118.591L146.36 145.141L146.042 145.326L100.417 171.876L100.098 172.061L95.238 174.89C95.3957 175.002 95.551 175.118 95.7086 175.23L100.366 172.521L100.684 172.335L146.309 145.785L146.628 145.6L192.251 119.05L192.571 118.864L211.475 107.864C211.346 107.733 211.213 107.605 211.084 107.477L192.304 118.405Z" fill="url(#paint13_linear)"/>
<path d="M211.018 150.564L210.698 150.75L165.075 177.3L164.756 177.485L124.747 200.767C124.88 200.895 125.013 201.023 125.145 201.152L165.024 177.946L165.342 177.76L210.966 151.211L211.286 151.025L232.79 138.511C232.715 138.35 232.638 138.189 232.563 138.027L211.018 150.564Z" fill="url(#paint14_linear)"/>
<path d="M205.671 141.376L205.352 141.562L159.728 168.111L159.409 168.297L116.787 193.099C116.921 193.227 117.056 193.352 117.191 193.481L159.677 168.757L159.996 168.572L205.62 142.022L205.939 141.836L227.823 129.102C227.733 128.949 227.644 128.795 227.553 128.643L205.671 141.376Z" fill="url(#paint15_linear)"/>
<path d="M200.324 132.188L200.005 132.374L154.381 158.923L154.062 159.108L108.6 185.564C108.74 185.688 108.882 185.809 109.024 185.934L154.33 159.569L154.649 159.384L200.273 132.834L200.592 132.648L221.969 120.209C221.864 120.064 221.762 119.918 221.655 119.775L200.324 132.188Z" fill="url(#paint16_linear)"/>
<path d="M194.977 122.999L194.658 123.185L149.034 149.735L148.715 149.92L103.09 176.47L102.772 176.655L99.8836 178.336C100.034 178.454 100.189 178.567 100.341 178.686L103.04 177.116L103.358 176.93L148.983 150.38L149.302 150.195L194.926 123.646L195.245 123.46L215.212 111.841C215.091 111.706 214.969 111.571 214.847 111.437L194.977 122.999Z" fill="url(#paint17_linear)"/>
<path d="M189.63 113.81L189.311 113.996L143.687 140.546L143.368 140.731L97.7432 167.281L97.4248 167.467L90.3147 171.604C90.4846 171.711 90.6525 171.817 90.8211 171.924L97.692 167.926L98.0104 167.74L143.636 141.19L143.954 141.005L189.578 114.456L189.898 114.27L207.485 104.035C207.348 103.91 207.209 103.786 207.07 103.662L189.63 113.81Z" fill="url(#paint18_linear)"/>
<path d="M235.08 191.914L234.76 192.1L189.137 218.649L188.818 218.834L165.803 232.227C166.001 232.317 166.198 232.408 166.395 232.497L189.084 219.294L189.402 219.109L235.026 192.56L235.346 192.374L242.486 188.219C242.503 188.005 242.514 187.791 242.53 187.578L235.08 191.914Z" fill="url(#paint19_linear)"/>
<path d="M229.733 182.725L229.414 182.911L183.79 209.46L183.471 209.646L154.97 226.231C155.136 226.338 155.299 226.453 155.466 226.557L183.738 210.105L184.057 209.92L229.681 183.37L230.001 183.184L242.567 175.872C242.554 175.676 242.537 175.478 242.522 175.283L229.733 182.725Z" fill="url(#paint20_linear)"/>
<path d="M224.386 173.537L224.067 173.723L178.443 200.272L178.124 200.458L145.509 219.437C145.659 219.556 145.807 219.675 145.957 219.791L178.39 200.918L178.709 200.732L224.333 174.183L224.652 173.997L241.121 164.414C241.087 164.228 241.057 164.042 241.023 163.856L224.386 173.537Z" fill="url(#paint21_linear)"/>
<path d="M219.039 164.347L218.719 164.533L173.095 191.082L172.777 191.268L136.88 212.157C137.019 212.281 137.158 212.406 137.297 212.529L173.044 191.727L173.362 191.541L218.986 164.992L219.306 164.806L238.533 153.617C238.481 153.442 238.426 153.271 238.374 153.096L219.039 164.347Z" fill="url(#paint22_linear)"/>
<path d="M237.754 196.508L237.434 196.694L191.81 223.244L191.492 223.429L172.016 234.762C172.236 234.841 172.459 234.914 172.678 234.991L191.759 223.888L192.077 223.703L237.701 197.153L238.021 196.967L241.624 194.871C241.664 194.643 241.703 194.415 241.742 194.188L237.754 196.508Z" fill="url(#paint23_linear)"/>
<path d="M232.407 187.32L232.087 187.506L186.463 214.055L186.145 214.241L160.151 229.367C160.333 229.467 160.516 229.564 160.697 229.664L186.411 214.701L186.729 214.515L232.353 187.966L232.673 187.78L242.75 181.916C242.752 181.709 242.756 181.503 242.755 181.298L232.407 187.32Z" fill="url(#paint24_linear)"/>
<path d="M227.06 178.131L226.74 178.317L181.116 204.866L180.798 205.052L150.108 222.911C150.266 223.024 150.426 223.134 150.585 223.248L181.065 205.511L181.383 205.325L227.007 178.776L227.327 178.59L242 170.052C241.974 169.861 241.952 169.67 241.927 169.479L227.06 178.131Z" fill="url(#paint25_linear)"/>
<path d="M221.713 168.943L221.393 169.129L175.769 195.678L175.451 195.864L141.107 215.849C141.251 215.971 141.398 216.089 141.543 216.21L175.718 196.323L176.036 196.137L221.66 169.588L221.98 169.402L239.963 158.937C239.92 158.757 239.875 158.58 239.83 158.4L221.713 168.943Z" fill="url(#paint26_linear)"/>
<path d="M216.366 159.754L216.046 159.94L170.422 186.49L170.104 186.675L132.763 208.404C132.9 208.53 133.035 208.657 133.172 208.783L170.373 187.135L170.692 186.949L216.315 160.4L216.635 160.214L236.856 148.447C236.797 148.276 236.734 148.107 236.673 147.937L216.366 159.754Z" fill="url(#paint27_linear)"/>
<path d="M240.173 201.25L240.107 201.288L194.484 227.838L194.165 228.023L178.968 236.867C179.218 236.928 179.47 236.985 179.722 237.044L194.433 228.484L194.751 228.298L239.96 201.991C240.032 201.744 240.103 201.498 240.173 201.25Z" fill="url(#paint28_linear)"/>
<path d="M199.512 237.211L197.063 238.637C197.469 238.611 197.874 238.581 198.28 238.545L199.78 237.672L200.098 237.487L231.688 219.104C231.936 218.758 232.185 218.411 232.425 218.059L199.83 237.026L199.512 237.211Z" fill="url(#paint29_linear)"/>
<path d="M196.839 232.619L187.012 238.337C187.306 238.371 187.599 238.41 187.892 238.44L197.106 233.078L197.425 232.892L237.056 209.83C237.18 209.558 237.295 209.28 237.415 209.007L197.158 232.433L196.839 232.619Z" fill="url(#paint30_linear)"/>
<path d="M66.3823 50.2283L48.4696 60.652C47.7882 61.2317 47.117 61.826 46.4614 62.4352L68.8174 49.4259C67.9996 49.6741 67.1876 49.9411 66.3823 50.2283Z" fill="url(#paint31_linear)"/>
<path d="M41.5465 71.4453L41.8649 71.26L83.0583 47.2888C82.7034 47.2881 82.3479 47.2862 81.9942 47.2933L41.599 70.8001L41.2805 70.9854L37.2491 73.3314C37.032 73.6615 36.8133 73.989 36.603 74.322L41.5465 71.4453Z" fill="url(#paint32_linear)"/>
<path d="M68.2818 117.389L68.6002 117.203L114.225 90.6532L114.544 90.4678L147.71 71.1678C147.504 71.082 147.3 70.9956 147.096 70.9091L114.277 90.0066L113.959 90.192L68.3336 116.742L68.0151 116.927L33.1068 137.241C33.1744 137.407 33.2445 137.572 33.3134 137.737L68.2818 117.389Z" fill="url(#paint33_linear)"/>
<path d="M62.9349 108.2L63.2534 108.015L108.879 81.4649L109.197 81.2796L135.547 65.9459C135.348 65.8564 135.149 65.7669 134.949 65.6774L108.93 80.8184L108.612 81.0037L62.9867 107.554L62.6682 107.739L29.7207 126.912C29.7665 127.091 29.8175 127.267 29.8633 127.445L62.9349 108.2Z" fill="url(#paint34_linear)"/>
<path d="M57.5879 99.0115L57.9064 98.8262L103.532 72.2761L103.85 72.0907L123.878 60.436C123.687 60.3421 123.496 60.2474 123.305 60.1547L103.584 71.6308L103.266 71.8162L57.6404 98.3662L57.322 98.5516L27.7395 115.766C27.7598 115.96 27.7755 116.154 27.797 116.347L57.5879 99.0115Z" fill="url(#paint35_linear)"/>
<path d="M52.2411 89.8234L52.5596 89.6381L98.1847 63.088L98.5032 62.9027L112.285 54.883C112.087 54.7928 111.889 54.7026 111.691 54.6136L98.236 62.4435L97.9175 62.6288L52.2924 89.1789L51.9739 89.3642L27.4794 103.618C27.4657 103.83 27.4527 104.043 27.4409 104.255L52.2411 89.8234Z" fill="url(#paint36_linear)"/>
<path d="M46.8932 80.6336L47.2117 80.4482L92.8368 53.8981L93.1553 53.7128L99.5811 49.9735C99.3478 49.9021 99.1129 49.8368 98.8778 49.7682L92.8881 53.2536L92.5696 53.439L46.9445 79.9891L46.626 80.1744L29.7494 89.9952C29.6812 90.2369 29.619 90.4803 29.5536 90.7238L46.8932 80.6336Z" fill="url(#paint37_linear)"/>
<path d="M65.6083 112.795L65.9268 112.609L111.552 86.0591L111.87 85.8738L141.585 68.5826C141.381 68.4953 141.177 68.4088 140.975 68.3208L111.604 85.4126L111.285 85.5979L65.6601 112.148L65.3416 112.333L31.2558 132.169C31.3118 132.341 31.3659 132.514 31.4239 132.687L65.6083 112.795Z" fill="url(#paint38_linear)"/>
<path d="M60.2616 103.606L60.58 103.42L106.205 76.8703L106.524 76.685L129.642 63.232C129.448 63.1396 129.255 63.0464 129.062 62.9532L106.257 76.2238L105.939 76.4091L60.3134 102.959L59.9949 103.145L28.5438 121.446C28.5782 121.632 28.6117 121.816 28.6468 122.003L60.2616 103.606Z" fill="url(#paint39_linear)"/>
<path d="M54.9145 94.4174L55.2329 94.232L100.858 67.6819L101.177 67.4966L118.136 57.6274C117.943 57.5342 117.751 57.441 117.558 57.3491L100.911 67.0367L100.592 67.222L54.967 93.7721L54.6486 93.9575L27.3594 109.837C27.3643 110.04 27.3672 110.242 27.3734 110.444L54.9145 94.4174Z" fill="url(#paint40_linear)"/>
<path d="M49.5677 85.2291L49.8861 85.0438L95.5113 58.4937L95.8297 58.3083L106.174 52.2886C105.964 52.2058 105.755 52.1202 105.545 52.04L95.5625 57.8492L95.2441 58.0345L49.6189 84.5846L49.3005 84.7699L28.2158 97.0394C28.1798 97.2659 28.1372 97.4927 28.1019 97.7204L49.5677 85.2291Z" fill="url(#paint41_linear)"/>
<path d="M44.2205 76.0407L44.539 75.8553L90.1641 49.3052L90.4826 49.1199L92.1556 48.1464C91.8839 48.0973 91.6117 48.0503 91.3409 48.0058L90.2154 48.6607L89.8969 48.8461L44.2718 75.3962L43.9533 75.5815L32.446 82.2778C32.3312 82.5484 32.2164 82.8189 32.1056 83.0905L44.2205 76.0407Z" fill="url(#paint42_linear)"/>
<path d="M75.8754 174.471L75.5532 174.044L67.567 178.691C67.728 178.803 67.8907 178.912 68.053 179.023L75.8754 174.471Z" fill="url(#paint43_linear)"/>
<path d="M69.4144 165.931L69.0909 165.505L58.4994 171.668C58.6411 171.791 58.7816 171.915 58.9239 172.036L69.4144 165.931Z" fill="url(#paint44_linear)"/>
<path d="M73.6288 126.577L73.9472 126.391L119.572 99.8413L119.891 99.6559L160.014 76.3077C159.809 76.2212 159.606 76.134 159.402 76.0475L119.624 99.1947L119.306 99.3801L73.6806 125.93L73.3621 126.115L37.7555 146.836C37.8435 146.99 37.9341 147.143 38.0235 147.296L73.6288 126.577Z" fill="url(#paint45_linear)"/>
<path d="M72.6456 170.201L72.3222 169.774L62.8983 175.258C63.0503 175.375 63.2016 175.491 63.3536 175.608L72.6456 170.201Z" fill="url(#paint46_linear)"/>
<path d="M54.7694 168.304L66.1821 161.662L65.8599 161.235L54.3641 167.925C54.4974 168.051 54.6353 168.176 54.7694 168.304Z" fill="url(#paint47_linear)"/>
<path d="M76.303 131.173L76.6215 130.987L122.247 104.437L122.565 104.252L166.089 78.9247C165.888 78.836 165.686 78.748 165.485 78.66L122.298 103.791L121.98 103.976L76.3549 130.526L76.0364 130.711L40.5321 151.372C40.6291 151.521 40.7235 151.672 40.8218 151.82L76.303 131.173Z" fill="url(#paint48_linear)"/>
<path d="M35.5117 142.61L70.9572 121.984L71.2757 121.798L116.901 95.2481L117.219 95.0628L153.873 73.7331C153.668 73.6473 153.462 73.5616 153.256 73.4758L116.951 94.6023L116.633 94.7877L71.0077 121.338L70.6892 121.523L35.2796 142.129C35.3574 142.289 35.4327 142.45 35.5117 142.61Z" fill="url(#paint49_linear)"/>
<path d="M82.3378 183.011L82.0143 182.584L77.7667 185.056C77.9468 185.157 78.1256 185.258 78.3063 185.357L82.3378 183.011Z" fill="url(#paint50_linear)"/>
<path d="M85.5677 187.281L85.2435 186.854L83.3173 187.975C83.5076 188.069 83.6967 188.165 83.887 188.259L85.5677 187.281Z" fill="url(#paint51_linear)"/>
<path d="M72.521 181.959C72.6909 182.066 72.8613 182.17 73.0325 182.276L79.1065 178.741L78.783 178.315L72.521 181.959Z" fill="url(#paint52_linear)"/>
<g filter="url(#filter2_d)">
<path d="M36.2879 146.641C40.8466 147.48 44.8883 150.767 46.6474 155.061C50.3885 164.197 43.827 174.547 45.5557 184.26C46.1079 187.366 47.4925 190.611 46.327 193.536C44.9577 196.967 40.453 198.232 36.9152 197.146C33.3771 196.062 30.6476 193.267 28.2399 190.451C23.6297 185.062 19.4917 179.014 17.861 172.117C15.1178 160.528 21.9906 144.005 36.2879 146.641Z" fill="url(#paint53_linear)"/>
</g>
<g filter="url(#filter3_d)">
<path d="M45.8086 75.2177C43.5336 72.0378 43.691 67.2752 46.3289 64.3572C48.9673 61.4402 53.8869 60.8408 57.0065 63.2042C58.7773 64.5455 59.9139 66.8719 59.37 69.0305C58.9121 70.8492 57.478 72.065 56.1634 73.2927C55.0101 74.3691 54.376 75.5698 53.4198 76.774C51.2481 79.5092 47.4826 77.5572 45.8086 75.2177Z" fill="url(#paint54_linear)"/>
</g>
<g filter="url(#filter4_d)">
<path d="M37.9879 204.581C38.7564 203.858 39.92 203.549 40.9027 203.904C42.103 204.339 42.8341 205.749 42.5729 207.011C42.3101 208.273 41.1336 209.269 39.8585 209.382C36.8386 209.65 35.9247 206.526 37.9879 204.581Z" fill="url(#paint55_linear)"/>
</g>
<g filter="url(#filter5_d)">
<path d="M67.57 221.367C71.562 217.611 77.6065 216.006 82.7109 217.853C88.9456 220.109 92.7433 227.434 91.3867 233.989C90.0216 240.548 83.9099 245.72 77.2869 246.306C61.6002 247.701 56.8533 231.47 67.57 221.367Z" fill="url(#paint56_linear)"/>
</g>
<g filter="url(#filter6_d)">
<path d="M12.6386 117.457C15.0064 115.229 18.5917 114.277 21.6192 115.373C25.3172 116.711 27.5698 121.056 26.7651 124.944C25.9555 128.834 22.3304 131.902 18.4021 132.249C9.0978 133.076 6.28219 123.449 12.6386 117.457Z" fill="url(#paint57_linear)"/>
</g>
<g filter="url(#filter7_d)">
<path d="M54.3322 82.5311C54.0472 83.0451 51.4034 84.9282 50.8217 84.9063C50.1112 84.8795 49.5851 83.3112 49.5096 82.5973C49.4348 81.8829 49.8901 81.1549 50.5474 80.8788C52.104 80.2239 55.0968 81.1492 54.3322 82.5311Z" fill="url(#paint58_linear)"/>
</g>
<g filter="url(#filter8_d)">
<path d="M227.123 155.641C227.892 154.918 229.055 154.609 230.038 154.965C231.238 155.399 231.969 156.809 231.708 158.071C231.445 159.334 230.269 160.33 228.994 160.442C225.974 160.711 225.06 157.586 227.123 155.641Z" fill="url(#paint59_linear)"/>
</g>
<g filter="url(#filter9_d)">
<path d="M227.476 163.841C224.696 164.255 222.316 166.166 219.524 166.496C216.425 166.862 212.958 165.285 210.315 166.912C208.362 168.116 207.704 170.792 208.364 172.994C209.023 175.197 210.746 176.953 212.663 178.248C216.653 180.941 221.848 181.947 226.424 180.534C230.745 179.198 234.637 175.349 235.711 170.903C236.742 166.64 231.363 163.261 227.476 163.841Z" fill="url(#paint60_linear)"/>
</g>
<g filter="url(#filter10_d)">
<path d="M49.7558 148.755C51.0891 147.872 53.1323 148.416 53.8801 149.829C54.6288 151.243 53.9567 153.21 52.5158 153.902C51.074 154.593 49.1422 153.918 48.414 152.493C47.6858 151.068 48.2467 149.136 49.605 148.292" fill="url(#paint61_linear)"/>
</g>
<path d="M132.482 145.703H46.7362C46.3297 145.703 46 145.373 46 144.967V89.7362C46 89.3297 46.3297 89 46.7362 89H132.483C132.889 89 133.219 89.3297 133.219 89.7362V144.967C133.219 145.373 132.889 145.703 132.482 145.703Z" fill="#C46E47"/>
<path d="M130.146 143.375H49.0726C48.7488 143.375 48.4862 143.112 48.4862 142.788V91.914C48.4862 91.5902 48.7488 91.3276 49.0726 91.3276H130.145C130.469 91.3276 130.731 91.5902 130.731 91.914V142.788C130.732 143.112 130.469 143.375 130.146 143.375Z" fill="#005761"/>
<path d="M149.591 231.423C149.145 232.259 151.456 232.104 153.588 231.482C155.72 230.861 157.2 229.055 157.674 229.203C158.147 229.351 157.496 230.979 158.029 230.979C158.562 230.979 159.154 231.018 159.391 230.688C159.628 230.357 159.953 228.462 159.864 227.426C159.776 226.39 158.885 224.317 158.885 224.317L153.211 227.186C153.211 227.186 150.301 230.091 149.591 231.423Z" fill="#161919"/>
<path d="M173.232 229.536C173.084 230.471 175.217 229.57 177.028 228.286C178.839 227.001 179.649 224.811 180.144 224.796C180.64 224.781 180.557 226.533 181.06 226.359C181.564 226.185 182.137 226.029 182.253 225.639C182.369 225.25 182.057 223.352 181.634 222.402C181.212 221.451 179.693 219.783 179.693 219.783L175.268 224.348C175.268 224.348 173.468 228.045 173.232 229.536Z" fill="#161919"/>
<path d="M152.847 209.959C152.847 209.959 154.358 222.452 154.268 224.11C154.18 225.768 153.025 227.101 153.114 227.663C153.202 228.225 156.696 226.361 157.851 225.413C159.006 224.465 158.976 225.206 159.036 221.031C159.095 216.857 159.864 209.633 159.864 209.633L152.847 209.959Z" fill="#FEB997"/>
<path d="M169.295 208.185C169.295 208.185 174.805 219.5 175.262 221.096C175.72 222.692 175.064 224.328 175.332 224.831C175.6 225.333 178.292 222.429 179.074 221.156C179.856 219.883 180.069 220.593 178.761 216.628C177.453 212.664 175.82 205.585 175.82 205.585L169.295 208.185Z" fill="#FEB997"/>
<path d="M158.62 170.553C158.62 170.553 160.219 190.626 162.706 195.245C165.193 199.863 169.295 208.185 169.295 208.185L173.224 209.633L176.42 204.837C176.42 204.837 174.15 193.291 173.224 187.073C172.298 180.856 173.224 166.29 173.224 166.29L158.62 170.553Z" fill="#FEB997"/>
<path d="M158.532 114.021L160.574 113.088C160.574 113.088 168.746 113.177 168.435 114.399C168.124 115.62 166.726 118.751 166.726 118.751L162.462 134.094C162.462 134.094 159.154 134.494 158.532 134.516C157.91 134.539 153.958 132.118 153.958 132.118L155.334 122.859L158.532 114.021Z" fill="#EBE1C3"/>
<path d="M151.959 148.26C151.959 148.26 148.741 153.885 148.03 174.935C147.319 195.985 148.756 209.509 150.177 210.931C151.598 212.352 155.423 210.61 159.775 210.965C164.127 211.32 166.259 211.32 166.614 209.366C166.969 207.412 167.236 181.655 167.591 181.122C167.946 180.589 169.102 209.188 169.545 210.609C169.99 212.03 175.338 209.632 178.457 209.632C181.299 209.632 174.786 185.355 176.421 166.289C177.182 157.418 174.608 151.634 173.809 148.881C173.009 146.128 151.959 148.26 151.959 148.26Z" fill="#161919"/>
<path d="M162.085 92.6744C161.285 92.3193 157.689 92.9852 156.445 96.7158C155.201 100.446 151.426 103.777 152.448 108.174C153.47 112.57 156.362 113.326 160.112 113.215C163.861 113.103 168.036 114.013 171.544 113.225C175.053 112.437 176.829 109.196 176.163 105.998C175.497 102.8 172.788 100.624 172.121 97.8267C171.456 95.029 169.99 92.7643 167.769 91.8756C165.549 90.9876 164.039 92.0535 163.328 92.4086C162.618 92.7637 162.085 92.6744 162.085 92.6744Z" fill="#FB8D6E"/>
<path d="M138.37 129.934C138.37 129.934 128.866 125.493 127.564 124.723C126.261 123.953 124.396 122.177 122.916 120.963C121.62 119.901 120.695 118.512 120.281 119.157C119.867 119.803 122.235 120.948 122.294 122.725C122.353 124.502 121.08 125.671 122.028 126.559C122.975 127.447 125.64 128.395 127.239 129.224C128.837 130.053 137.423 135.559 139.14 135.737C140.857 135.915 138.37 129.934 138.37 129.934Z" fill="#FEB997"/>
<path d="M158.917 113.947C158.917 115.523 158.12 118.637 158.238 122.177C158.357 125.717 159.568 126.763 160.871 123.802C162.173 120.842 166.851 114.717 168.332 114.303C169.812 113.888 175.331 117.336 176.272 119.136C177.212 120.935 173.365 136.448 173.601 141.066C173.838 145.685 175.2 148.172 175.377 148.941C175.555 149.711 168.982 150.836 165.075 151.369C161.167 151.902 150.627 151.014 150.213 150.007C149.798 149.001 152.167 144.501 152.285 141.422C152.404 138.342 151.645 134.392 151.397 133.246C151.15 132.1 148.14 137.099 145.417 140.829C142.693 144.56 140.324 145.567 139.91 142.783C139.496 140.001 137.66 139.882 137.542 137.81C137.423 135.737 139.141 134.594 138.489 132.738C137.838 130.882 137.009 129.224 138.015 128.514C139.022 127.803 144.943 125.908 147.786 122.119C150.627 118.328 158.917 112.94 158.917 113.947Z" fill="#D2E1E5"/>
<path d="M155.789 138.597C157.106 138.143 164.82 133.546 165.548 133.25C166.277 132.954 174.262 149.108 174.34 149.587C174.417 150.066 165.542 154.869 164.372 155.343C163.201 155.816 156.169 140.831 155.823 139.822C155.46 138.764 155.347 138.75 155.789 138.597Z" fill="#00A9B0"/>
<path d="M171.706 139.704C171.706 139.704 164.246 144.974 162.647 145.684C161.048 146.395 158.502 145.803 158.265 146.513C158.028 147.224 159.391 148.408 159.983 149.355C160.575 150.302 161.459 149.447 164.424 148.467C167.388 147.487 173.838 143.967 174.904 142.842C175.97 141.717 171.706 139.704 171.706 139.704Z" fill="#FEB997"/>
<path d="M156.637 102.015C156.637 102.86 156.712 106.738 157.688 108.87C158.666 111.002 159.864 111.09 160.131 111.579C160.397 112.067 159.731 113.814 159.776 114.524C159.82 115.235 161.197 116.3 162.928 115.99C164.66 115.679 166.792 114.258 167.014 113.858C167.236 113.458 166.259 110.627 166.348 109.378C166.437 108.129 167.192 106.708 167.769 106.219C168.347 105.731 168.717 104.57 168.717 103.415C168.717 102.26 167.384 101.873 166.807 102.317C166.23 102.761 163.416 100.786 162.44 99.6461C161.64 98.7105 161.286 97.6922 160.93 97.7808C160.575 97.8694 159.604 99.3646 158.494 100.386C157.384 101.409 156.637 101.751 156.637 102.015Z" fill="#FEB997"/>
<path d="M173.009 118.625C171.229 119.449 170.403 123.362 172.298 129.934C174.193 136.507 172.244 137.75 171.235 139.171C170.225 140.592 171.405 141.599 173.095 142.369C174.785 143.138 174.785 145.152 177.212 145.034C179.64 144.915 178.693 144.333 181.298 145.039C183.904 145.745 184.022 141.244 183.548 138.758C183.075 136.271 179.404 115.664 173.009 118.625Z" fill="#D2E1E5"/>
<path d="M173.03 135.966L172.935 135.916C172.946 135.897 173.922 133.906 171.419 126.298C170.401 123.203 170.371 120.948 171.332 119.596C172.149 118.445 173.415 118.409 173.428 118.409L173.43 118.517C173.418 118.517 172.204 118.554 171.419 119.66C170.481 120.983 170.515 123.205 171.522 126.265C174.045 133.936 173.073 135.887 173.03 135.966Z" fill="#00A9B0"/>
<path d="M151.344 131.732C151.158 130.634 151.514 127.339 152.49 125.718C154.255 122.784 154.831 119.185 154.837 119.149L154.944 119.166C154.938 119.202 154.359 122.822 152.583 125.773C151.636 127.346 151.271 130.657 151.45 131.714L151.344 131.732Z" fill="#00A9B0"/>
<path d="M162.868 104.421C161.709 104.421 161.384 103.884 161.314 103.433C161.292 103.291 161.332 103.153 161.43 103.036C161.909 102.463 163.773 102.367 165.482 102.323L165.704 102.317C166.133 102.317 166.213 102.518 166.222 102.637C166.265 103.182 164.803 104.174 163.698 104.348C163.395 104.397 163.115 104.421 162.868 104.421ZM165.705 102.617L165.49 102.622C164.474 102.649 162.092 102.711 161.66 103.228C161.617 103.28 161.602 103.329 161.61 103.388C161.686 103.882 162.098 104.121 162.868 104.121C163.099 104.121 163.364 104.098 163.652 104.052C164.575 103.906 165.62 103.193 165.875 102.785C165.923 102.708 165.926 102.667 165.923 102.658C165.923 102.658 165.884 102.617 165.705 102.617Z" fill="#005761"/>
<path d="M158.508 104.542C158.324 104.542 158.122 104.531 157.909 104.509C156.789 104.395 155.274 103.483 155.295 102.936C155.3 102.812 155.377 102.603 155.838 102.591L156.019 102.585C156.36 102.575 156.785 102.562 157.241 102.562C158.877 102.562 159.788 102.727 160.109 103.079C160.208 103.189 160.254 103.322 160.24 103.463C160.192 103.955 159.853 104.542 158.508 104.542ZM157.24 102.862C156.788 102.862 156.366 102.875 156.027 102.884L155.846 102.89C155.635 102.895 155.594 102.945 155.594 102.946C155.592 102.953 155.598 102.994 155.65 103.068C155.926 103.462 157.01 104.116 157.94 104.211C158.143 104.232 158.335 104.242 158.508 104.242C159.407 104.242 159.89 103.97 159.941 103.434C159.947 103.377 159.929 103.329 159.886 103.281C159.712 103.09 159.113 102.862 157.24 102.862Z" fill="#005761"/>
<path d="M160.17 103.465L160.004 103.216C160.711 102.745 161.331 102.992 161.56 103.188L161.365 103.416L161.463 103.302L161.367 103.417C161.346 103.4 160.86 103.006 160.17 103.465Z" fill="#005761"/>
<path d="M160.615 104.604C160.896 104.618 161.079 105.894 160.918 106.063C160.758 106.232 160.16 106.27 160.116 106.024C160.071 105.779 160.354 104.592 160.615 104.604Z" fill="#DBA083"/>
<path d="M158.966 102.245C158.966 102.245 158.144 101.5 157.179 102.411C157.179 102.411 156.936 102.63 157.002 102.203C157.043 101.945 157.728 101.39 158.471 101.615C159.367 101.886 159.326 102.38 158.966 102.245Z" fill="#001214"/>
<path d="M164.248 102.231C164.248 102.231 163.427 101.487 162.461 102.398C162.461 102.398 162.218 102.617 162.285 102.19C162.325 101.932 163.011 101.377 163.753 101.602C164.65 101.874 164.609 102.368 164.248 102.231Z" fill="#001214"/>
<path d="M157.898 103.386C157.882 103.551 158.002 103.697 158.166 103.712C158.331 103.728 158.477 103.608 158.492 103.444C158.508 103.28 158.388 103.134 158.224 103.118C158.06 103.102 157.914 103.222 157.898 103.386Z" fill="#121622"/>
<path d="M159.066 103.699C159.041 103.699 159.017 103.687 159.003 103.665C159 103.661 158.694 103.206 158.149 103.177C157.607 103.149 157.271 103.536 157.267 103.541C157.241 103.573 157.194 103.577 157.162 103.55C157.13 103.523 157.126 103.476 157.153 103.444C157.168 103.426 157.536 102.993 158.158 103.027C158.779 103.061 159.114 103.562 159.129 103.582C159.152 103.617 159.142 103.663 159.107 103.686C159.094 103.695 159.08 103.699 159.066 103.699Z" fill="#121622"/>
<path d="M163.807 103.32C163.823 103.484 163.703 103.63 163.539 103.646C163.375 103.661 163.229 103.542 163.213 103.377C163.197 103.213 163.317 103.067 163.482 103.052C163.646 103.036 163.792 103.156 163.807 103.32Z" fill="#121622"/>
<path d="M162.64 103.633C162.625 103.633 162.611 103.629 162.599 103.62C162.564 103.598 162.554 103.551 162.577 103.517C162.591 103.495 162.926 102.994 163.548 102.96C164.17 102.927 164.538 103.359 164.553 103.378C164.58 103.41 164.575 103.457 164.544 103.484C164.512 103.51 164.465 103.506 164.438 103.474C164.435 103.471 164.099 103.082 163.556 103.11C163.012 103.14 162.706 103.594 162.702 103.599C162.689 103.621 162.665 103.633 162.64 103.633Z" fill="#121622"/>
<path d="M160.752 108.079C161.114 107.863 161.371 107.981 161.838 108.029C162.304 108.077 162.593 107.961 162.605 108.12C162.616 108.279 162.012 109.072 161.2 109.15C160.119 109.254 159.747 108.684 159.585 108.415C159.423 108.146 159.809 108.088 159.97 108.042C160.225 107.969 160.363 107.943 160.604 108.065C160.707 108.118 160.752 108.079 160.752 108.079Z" fill="#FB8D6E"/>
<path d="M161.203 111.721L161.199 111.613C161.223 111.612 163.669 111.506 164.794 109.948L164.881 110.011C163.725 111.613 161.228 111.72 161.203 111.721Z" fill="#DBA083"/>
<defs>
<filter id="filter0_d" x="0.953888" y="52.897" width="256.14" height="211.248" filterUnits="userSpaceOnUse" color-interpolation-filters="sRGB">
<feFlood flood-opacity="0" result="BackgroundImageFix"/>
<feColorMatrix in="SourceAlpha" type="matrix" values="0 0 0 0 0 0 0 0 0 0 0 0 0 0 0 0 0 0 127 0" result="hardAlpha"/>
<feOffset dx="8" dy="8"/>
<feGaussianBlur stdDeviation="7"/>
<feColorMatrix type="matrix" values="0 0 0 0 0 0 0 0 0 0 0 0 0 0 0 0 0 0 0.25 0"/>
<feBlend mode="normal" in2="BackgroundImageFix" result="effect1_dropShadow"/>
<feBlend mode="normal" in="SourceGraphic" in2="effect1_dropShadow" result="shape"/>
</filter>
<filter id="filter1_d" x="161.756" y="38.1777" width="119.342" height="115.413" filterUnits="userSpaceOnUse" color-interpolation-filters="sRGB">
<feFlood flood-opacity="0" result="BackgroundImageFix"/>
<feColorMatrix in="SourceAlpha" type="matrix" values="0 0 0 0 0 0 0 0 0 0 0 0 0 0 0 0 0 0 127 0" result="hardAlpha"/>
<feOffset dx="8" dy="8"/>
<feGaussianBlur stdDeviation="7"/>
<feColorMatrix type="matrix" values="0 0 0 0 0 0 0 0 0 0 0 0 0 0 0 0 0 0 0.25 0"/>
<feBlend mode="normal" in2="BackgroundImageFix" result="effect1_dropShadow"/>
<feBlend mode="normal" in="SourceGraphic" in2="effect1_dropShadow" result="shape"/>
</filter>
<filter id="filter2_d" x="0.953918" y="134.586" width="87.0471" height="89.2241" filterUnits="userSpaceOnUse" color-interpolation-filters="sRGB">
<feFlood flood-opacity="0" result="BackgroundImageFix"/>
<feColorMatrix in="SourceAlpha" type="matrix" values="0 0 0 0 0 0 0 0 0 0 0 0 0 0 0 0 0 0 127 0" result="hardAlpha"/>
<feOffset dx="8" dy="8"/>
<feGaussianBlur stdDeviation="7"/>
<feColorMatrix type="matrix" values="0 0 0 0 0 0 0 0 0 0 0 0 0 0 0 0 0 0 0.25 0"/>
<feBlend mode="normal" in2="BackgroundImageFix" result="effect1_dropShadow"/>
<feBlend mode="normal" in="SourceGraphic" in2="effect1_dropShadow" result="shape"/>
</filter>
<filter id="filter3_d" x="35.1863" y="53.0337" width="49.3252" height="48.8551" filterUnits="userSpaceOnUse" color-interpolation-filters="sRGB">
<feFlood flood-opacity="0" result="BackgroundImageFix"/>
<feColorMatrix in="SourceAlpha" type="matrix" values="0 0 0 0 0 0 0 0 0 0 0 0 0 0 0 0 0 0 127 0" result="hardAlpha"/>
<feOffset dx="8" dy="8"/>
<feGaussianBlur stdDeviation="7"/>
<feColorMatrix type="matrix" values="0 0 0 0 0 0 0 0 0 0 0 0 0 0 0 0 0 0 0.25 0"/>
<feBlend mode="normal" in2="BackgroundImageFix" result="effect1_dropShadow"/>
<feBlend mode="normal" in="SourceGraphic" in2="effect1_dropShadow" result="shape"/>
</filter>
<filter id="filter4_d" x="30.0233" y="196.772" width="35.5255" height="35.6977" filterUnits="userSpaceOnUse" color-interpolation-filters="sRGB">
<feFlood flood-opacity="0" result="BackgroundImageFix"/>
<feColorMatrix in="SourceAlpha" type="matrix" values="0 0 0 0 0 0 0 0 0 0 0 0 0 0 0 0 0 0 127 0" result="hardAlpha"/>
<feOffset dx="8" dy="8"/>
<feGaussianBlur stdDeviation="7"/>
<feColorMatrix type="matrix" values="0 0 0 0 0 0 0 0 0 0 0 0 0 0 0 0 0 0 0.25 0"/>
<feBlend mode="normal" in2="BackgroundImageFix" result="effect1_dropShadow"/>
<feBlend mode="normal" in="SourceGraphic" in2="effect1_dropShadow" result="shape"/>
</filter>
<filter id="filter5_d" x="51.3654" y="205.971" width="67.0904" height="67.9848" filterUnits="userSpaceOnUse" color-interpolation-filters="sRGB">
<feFlood flood-opacity="0" result="BackgroundImageFix"/>
<feColorMatrix in="SourceAlpha" type="matrix" values="0 0 0 0 0 0 0 0 0 0 0 0 0 0 0 0 0 0 127 0" result="hardAlpha"/>
<feOffset dx="8" dy="8"/>
<feGaussianBlur stdDeviation="7"/>
<feColorMatrix type="matrix" values="0 0 0 0 0 0 0 0 0 0 0 0 0 0 0 0 0 0 0.25 0"/>
<feBlend mode="normal" in2="BackgroundImageFix" result="effect1_dropShadow"/>
<feBlend mode="normal" in="SourceGraphic" in2="effect1_dropShadow" result="shape"/>
</filter>
<filter id="filter6_d" x="0.585938" y="105.884" width="51.1858" height="51.7163" filterUnits="userSpaceOnUse" color-interpolation-filters="sRGB">
<feFlood flood-opacity="0" result="BackgroundImageFix"/>
<feColorMatrix in="SourceAlpha" type="matrix" values="0 0 0 0 0 0 0 0 0 0 0 0 0 0 0 0 0 0 127 0" result="hardAlpha"/>
<feOffset dx="8" dy="8"/>
<feGaussianBlur stdDeviation="7"/>
<feColorMatrix type="matrix" values="0 0 0 0 0 0 0 0 0 0 0 0 0 0 0 0 0 0 0.25 0"/>
<feBlend mode="normal" in2="BackgroundImageFix" result="effect1_dropShadow"/>
<feBlend mode="normal" in="SourceGraphic" in2="effect1_dropShadow" result="shape"/>
</filter>
<filter id="filter7_d" x="43.1747" y="74.3447" width="33.4376" height="33.0086" filterUnits="userSpaceOnUse" color-interpolation-filters="sRGB">
<feFlood flood-opacity="0" result="BackgroundImageFix"/>
<feColorMatrix in="SourceAlpha" type="matrix" values="0 0 0 0 0 0 0 0 0 0 0 0 0 0 0 0 0 0 127 0" result="hardAlpha"/>
<feOffset dx="8" dy="8"/>
<feGaussianBlur stdDeviation="7"/>
<feColorMatrix type="matrix" values="0 0 0 0 0 0 0 0 0 0 0 0 0 0 0 0 0 0 0.25 0"/>
<feBlend mode="normal" in2="BackgroundImageFix" result="effect1_dropShadow"/>
<feBlend mode="normal" in="SourceGraphic" in2="effect1_dropShadow" result="shape"/>
</filter>
<filter id="filter8_d" x="219.159" y="147.833" width="35.5255" height="35.6977" filterUnits="userSpaceOnUse" color-interpolation-filters="sRGB">
<feFlood flood-opacity="0" result="BackgroundImageFix"/>
<feColorMatrix in="SourceAlpha" type="matrix" values="0 0 0 0 0 0 0 0 0 0 0 0 0 0 0 0 0 0 127 0" result="hardAlpha"/>
<feOffset dx="8" dy="8"/>
<feGaussianBlur stdDeviation="7"/>
<feColorMatrix type="matrix" values="0 0 0 0 0 0 0 0 0 0 0 0 0 0 0 0 0 0 0.25 0"/>
<feBlend mode="normal" in2="BackgroundImageFix" result="effect1_dropShadow"/>
<feBlend mode="normal" in="SourceGraphic" in2="effect1_dropShadow" result="shape"/>
</filter>
<filter id="filter9_d" x="202.116" y="157.776" width="55.7245" height="45.3969" filterUnits="userSpaceOnUse" color-interpolation-filters="sRGB">
<feFlood flood-opacity="0" result="BackgroundImageFix"/>
<feColorMatrix in="SourceAlpha" type="matrix" values="0 0 0 0 0 0 0 0 0 0 0 0 0 0 0 0 0 0 127 0" result="hardAlpha"/>
<feOffset dx="8" dy="8"/>
<feGaussianBlur stdDeviation="7"/>
<feColorMatrix type="matrix" values="0 0 0 0 0 0 0 0 0 0 0 0 0 0 0 0 0 0 0.25 0"/>
<feBlend mode="normal" in2="BackgroundImageFix" result="effect1_dropShadow"/>
<feBlend mode="normal" in="SourceGraphic" in2="effect1_dropShadow" result="shape"/>
</filter>
<filter id="filter10_d" x="41.0623" y="141.209" width="36.069" height="35.9468" filterUnits="userSpaceOnUse" color-interpolation-filters="sRGB">
<feFlood flood-opacity="0" result="BackgroundImageFix"/>
<feColorMatrix in="SourceAlpha" type="matrix" values="0 0 0 0 0 0 0 0 0 0 0 0 0 0 0 0 0 0 127 0" result="hardAlpha"/>
<feOffset dx="8" dy="8"/>
<feGaussianBlur stdDeviation="7"/>
<feColorMatrix type="matrix" values="0 0 0 0 0 0 0 0 0 0 0 0 0 0 0 0 0 0 0.25 0"/>
<feBlend mode="normal" in2="BackgroundImageFix" result="effect1_dropShadow"/>
<feBlend mode="normal" in="SourceGraphic" in2="effect1_dropShadow" result="shape"/>
</filter>
<linearGradient id="paint0_linear" x1="13.9023" y1="22.2473" x2="260.041" y2="37.6844" gradientUnits="userSpaceOnUse">
<stop offset="0.0756841" stop-color="#B565D8"/>
<stop offset="0.945898" stop-color="#EE609C"/>
</linearGradient>
<linearGradient id="paint1_linear" x1="165.152" y1="56.8308" x2="240.096" y2="33.0843" gradientUnits="userSpaceOnUse">
<stop offset="0.0756841" stop-color="#B565D8"/>
<stop offset="0.945898" stop-color="#EE609C"/>
</linearGradient>
<linearGradient id="paint2_linear" x1="88.6055" y1="166.324" x2="95.0752" y2="175.697" gradientUnits="userSpaceOnUse">
<stop offset="0.0756841" stop-color="#B565D8"/>
<stop offset="0.945898" stop-color="#EE609C"/>
</linearGradient>
<linearGradient id="paint3_linear" x1="76.7526" y1="160.922" x2="83.2076" y2="170.306" gradientUnits="userSpaceOnUse">
<stop offset="0.0756841" stop-color="#B565D8"/>
<stop offset="0.945898" stop-color="#EE609C"/>
</linearGradient>
<linearGradient id="paint4_linear" x1="54.4933" y1="161.574" x2="60.906" y2="171.032" gradientUnits="userSpaceOnUse">
<stop offset="0.0756841" stop-color="#B565D8"/>
<stop offset="0.945898" stop-color="#EE609C"/>
</linearGradient>
<linearGradient id="paint5_linear" x1="47.4348" y1="153.382" x2="53.8692" y2="162.823" gradientUnits="userSpaceOnUse">
<stop offset="0.0756841" stop-color="#B565D8"/>
<stop offset="0.945898" stop-color="#EE609C"/>
</linearGradient>
<linearGradient id="paint6_linear" x1="82.9732" y1="163.453" x2="89.4364" y2="172.831" gradientUnits="userSpaceOnUse">
<stop offset="0.0756841" stop-color="#B565D8"/>
<stop offset="0.945898" stop-color="#EE609C"/>
</linearGradient>
<linearGradient id="paint7_linear" x1="69.7606" y1="158.841" x2="76.2051" y2="168.233" gradientUnits="userSpaceOnUse">
<stop offset="0.0756841" stop-color="#B565D8"/>
<stop offset="0.945898" stop-color="#EE609C"/>
</linearGradient>
<linearGradient id="paint8_linear" x1="50.8355" y1="157.553" x2="57.2577" y2="167.004" gradientUnits="userSpaceOnUse">
<stop offset="0.0756841" stop-color="#B565D8"/>
<stop offset="0.945898" stop-color="#EE609C"/>
</linearGradient>
<linearGradient id="paint9_linear" x1="131.908" y1="202.627" x2="138.453" y2="211.937" gradientUnits="userSpaceOnUse">
<stop offset="0.0756841" stop-color="#B565D8"/>
<stop offset="0.945898" stop-color="#EE609C"/>
</linearGradient>
<linearGradient id="paint10_linear" x1="124.055" y1="194.897" x2="130.598" y2="204.25" gradientUnits="userSpaceOnUse">
<stop offset="0.0756841" stop-color="#B565D8"/>
<stop offset="0.945898" stop-color="#EE609C"/>
</linearGradient>
<linearGradient id="paint11_linear" x1="116.098" y1="187.227" x2="122.623" y2="196.595" gradientUnits="userSpaceOnUse">
<stop offset="0.0756841" stop-color="#B565D8"/>
<stop offset="0.945898" stop-color="#EE609C"/>
</linearGradient>
<linearGradient id="paint12_linear" x1="107.748" y1="179.786" x2="114.26" y2="189.164" gradientUnits="userSpaceOnUse">
<stop offset="0.0756841" stop-color="#B565D8"/>
<stop offset="0.945898" stop-color="#EE609C"/>
</linearGradient>
<linearGradient id="paint13_linear" x1="98.7167" y1="172.742" x2="105.198" y2="182.106" gradientUnits="userSpaceOnUse">
<stop offset="0.0756841" stop-color="#B565D8"/>
<stop offset="0.945898" stop-color="#EE609C"/>
</linearGradient>
<linearGradient id="paint14_linear" x1="127.977" y1="198.764" x2="134.53" y2="208.109" gradientUnits="userSpaceOnUse">
<stop offset="0.0756841" stop-color="#B565D8"/>
<stop offset="0.945898" stop-color="#EE609C"/>
</linearGradient>
<linearGradient id="paint15_linear" x1="120.107" y1="191.044" x2="126.641" y2="200.405" gradientUnits="userSpaceOnUse">
<stop offset="0.0756841" stop-color="#B565D8"/>
<stop offset="0.945898" stop-color="#EE609C"/>
</linearGradient>
<linearGradient id="paint16_linear" x1="111.991" y1="183.467" x2="118.509" y2="192.841" gradientUnits="userSpaceOnUse">
<stop offset="0.0756841" stop-color="#B565D8"/>
<stop offset="0.945898" stop-color="#EE609C"/>
</linearGradient>
<linearGradient id="paint17_linear" x1="103.334" y1="176.205" x2="109.841" y2="185.588" gradientUnits="userSpaceOnUse">
<stop offset="0.0756841" stop-color="#B565D8"/>
<stop offset="0.945898" stop-color="#EE609C"/>
</linearGradient>
<linearGradient id="paint18_linear" x1="93.8218" y1="169.44" x2="100.297" y2="178.808" gradientUnits="userSpaceOnUse">
<stop offset="0.0756841" stop-color="#B565D8"/>
<stop offset="0.945898" stop-color="#EE609C"/>
</linearGradient>
<linearGradient id="paint19_linear" x1="168.087" y1="230.775" x2="174.908" y2="239.838" gradientUnits="userSpaceOnUse">
<stop offset="0.0756841" stop-color="#B565D8"/>
<stop offset="0.945898" stop-color="#EE609C"/>
</linearGradient>
<linearGradient id="paint20_linear" x1="157.583" y1="224.588" x2="164.283" y2="233.763" gradientUnits="userSpaceOnUse">
<stop offset="0.0756841" stop-color="#B565D8"/>
<stop offset="0.945898" stop-color="#EE609C"/>
</linearGradient>
<linearGradient id="paint21_linear" x1="148.365" y1="217.652" x2="154.992" y2="226.893" gradientUnits="userSpaceOnUse">
<stop offset="0.0756841" stop-color="#B565D8"/>
<stop offset="0.945898" stop-color="#EE609C"/>
</linearGradient>
<linearGradient id="paint22_linear" x1="139.917" y1="210.266" x2="146.496" y2="219.548" gradientUnits="userSpaceOnUse">
<stop offset="0.0756841" stop-color="#B565D8"/>
<stop offset="0.945898" stop-color="#EE609C"/>
</linearGradient>
<linearGradient id="paint23_linear" x1="174.086" y1="233.435" x2="181.003" y2="242.403" gradientUnits="userSpaceOnUse">
<stop offset="0.0756841" stop-color="#B565D8"/>
<stop offset="0.945898" stop-color="#EE609C"/>
</linearGradient>
<linearGradient id="paint24_linear" x1="162.614" y1="227.811" x2="169.366" y2="236.939" gradientUnits="userSpaceOnUse">
<stop offset="0.0756841" stop-color="#B565D8"/>
<stop offset="0.945898" stop-color="#EE609C"/>
</linearGradient>
<linearGradient id="paint25_linear" x1="152.851" y1="221.191" x2="159.51" y2="230.403" gradientUnits="userSpaceOnUse">
<stop offset="0.0756841" stop-color="#B565D8"/>
<stop offset="0.945898" stop-color="#EE609C"/>
</linearGradient>
<linearGradient id="paint26_linear" x1="144.06" y1="214.008" x2="150.66" y2="223.271" gradientUnits="userSpaceOnUse">
<stop offset="0.0756841" stop-color="#B565D8"/>
<stop offset="0.945898" stop-color="#EE609C"/>
</linearGradient>
<linearGradient id="paint27_linear" x1="135.874" y1="206.471" x2="142.455" y2="215.792" gradientUnits="userSpaceOnUse">
<stop offset="0.0756841" stop-color="#B565D8"/>
<stop offset="0.945898" stop-color="#EE609C"/>
</linearGradient>
<linearGradient id="paint28_linear" x1="180.778" y1="235.69" x2="187.86" y2="244.532" gradientUnits="userSpaceOnUse">
<stop offset="0.0756841" stop-color="#B565D8"/>
<stop offset="0.945898" stop-color="#EE609C"/>
</linearGradient>
<linearGradient id="paint29_linear" x1="198.086" y1="237.918" x2="205.885" y2="245.802" gradientUnits="userSpaceOnUse">
<stop offset="0.0756841" stop-color="#B565D8"/>
<stop offset="0.945898" stop-color="#EE609C"/>
</linearGradient>
<linearGradient id="paint30_linear" x1="188.494" y1="237.352" x2="195.786" y2="245.906" gradientUnits="userSpaceOnUse">
<stop offset="0.0756841" stop-color="#B565D8"/>
<stop offset="0.945898" stop-color="#EE609C"/>
</linearGradient>
<linearGradient id="paint31_linear" x1="46.8217" y1="61.488" x2="55.1993" y2="67.945" gradientUnits="userSpaceOnUse">
<stop offset="0.0756841" stop-color="#B565D8"/>
<stop offset="0.945898" stop-color="#EE609C"/>
</linearGradient>
<linearGradient id="paint32_linear" x1="37.6973" y1="72.9476" x2="45.0946" y2="81.3688" gradientUnits="userSpaceOnUse">
<stop offset="0.0756841" stop-color="#B565D8"/>
<stop offset="0.945898" stop-color="#EE609C"/>
</linearGradient>
<linearGradient id="paint33_linear" x1="36.476" y1="135.157" x2="42.9866" y2="144.537" gradientUnits="userSpaceOnUse">
<stop offset="0.0756841" stop-color="#B565D8"/>
<stop offset="0.945898" stop-color="#EE609C"/>
</linearGradient>
<linearGradient id="paint34_linear" x1="32.7606" y1="125.02" x2="39.3288" y2="134.352" gradientUnits="userSpaceOnUse">
<stop offset="0.0756841" stop-color="#B565D8"/>
<stop offset="0.945898" stop-color="#EE609C"/>
</linearGradient>
<linearGradient id="paint35_linear" x1="30.4027" y1="114.093" x2="37.0248" y2="123.338" gradientUnits="userSpaceOnUse">
<stop offset="0.0756841" stop-color="#B565D8"/>
<stop offset="0.945898" stop-color="#EE609C"/>
</linearGradient>
<linearGradient id="paint36_linear" x1="29.7044" y1="102.2" x2="36.4324" y2="111.35" gradientUnits="userSpaceOnUse">
<stop offset="0.0756841" stop-color="#B565D8"/>
<stop offset="0.945898" stop-color="#EE609C"/>
</linearGradient>
<linearGradient id="paint37_linear" x1="31.3658" y1="88.9317" x2="38.2787" y2="97.9045" gradientUnits="userSpaceOnUse">
<stop offset="0.0756841" stop-color="#B565D8"/>
<stop offset="0.945898" stop-color="#EE609C"/>
</linearGradient>
<linearGradient id="paint38_linear" x1="34.4576" y1="130.182" x2="40.9951" y2="139.54" gradientUnits="userSpaceOnUse">
<stop offset="0.0756841" stop-color="#B565D8"/>
<stop offset="0.945898" stop-color="#EE609C"/>
</linearGradient>
<linearGradient id="paint39_linear" x1="31.4013" y1="119.66" x2="38.0042" y2="128.963" gradientUnits="userSpaceOnUse">
<stop offset="0.0756841" stop-color="#B565D8"/>
<stop offset="0.945898" stop-color="#EE609C"/>
</linearGradient>
<linearGradient id="paint40_linear" x1="29.8171" y1="108.284" x2="36.4863" y2="117.487" gradientUnits="userSpaceOnUse">
<stop offset="0.0756841" stop-color="#B565D8"/>
<stop offset="0.945898" stop-color="#EE609C"/>
</linearGradient>
<linearGradient id="paint41_linear" x1="30.1591" y1="95.7857" x2="36.964" y2="104.864" gradientUnits="userSpaceOnUse">
<stop offset="0.0756841" stop-color="#B565D8"/>
<stop offset="0.945898" stop-color="#EE609C"/>
</linearGradient>
<linearGradient id="paint42_linear" x1="33.6139" y1="81.4752" x2="40.6944" y2="90.2731" gradientUnits="userSpaceOnUse">
<stop offset="0.0756841" stop-color="#B565D8"/>
<stop offset="0.945898" stop-color="#EE609C"/>
</linearGradient>
<linearGradient id="paint43_linear" x1="67.7585" y1="178.457" x2="75.1707" y2="179.928" gradientUnits="userSpaceOnUse">
<stop offset="0.0756841" stop-color="#B565D8"/>
<stop offset="0.945898" stop-color="#EE609C"/>
</linearGradient>
<linearGradient id="paint44_linear" x1="58.7702" y1="171.388" x2="66.963" y2="174.247" gradientUnits="userSpaceOnUse">
<stop offset="0.0756841" stop-color="#B565D8"/>
<stop offset="0.945898" stop-color="#EE609C"/>
</linearGradient>
<linearGradient id="paint45_linear" x1="41.4168" y1="144.582" x2="47.8833" y2="153.997" gradientUnits="userSpaceOnUse">
<stop offset="0.0756841" stop-color="#B565D8"/>
<stop offset="0.945898" stop-color="#EE609C"/>
</linearGradient>
<linearGradient id="paint46_linear" x1="63.1336" y1="174.998" x2="71.0514" y2="177.258" gradientUnits="userSpaceOnUse">
<stop offset="0.0756841" stop-color="#B565D8"/>
<stop offset="0.945898" stop-color="#EE609C"/>
</linearGradient>
<linearGradient id="paint47_linear" x1="54.6624" y1="167.628" x2="63.004" y2="170.919" gradientUnits="userSpaceOnUse">
<stop offset="0.0756841" stop-color="#B565D8"/>
<stop offset="0.945898" stop-color="#EE609C"/>
</linearGradient>
<linearGradient id="paint48_linear" x1="44.2944" y1="149.059" x2="50.7435" y2="158.489" gradientUnits="userSpaceOnUse">
<stop offset="0.0756841" stop-color="#B565D8"/>
<stop offset="0.945898" stop-color="#EE609C"/>
</linearGradient>
<linearGradient id="paint49_linear" x1="38.7951" y1="139.96" x2="45.282" y2="149.359" gradientUnits="userSpaceOnUse">
<stop offset="0.0756841" stop-color="#B565D8"/>
<stop offset="0.945898" stop-color="#EE609C"/>
</linearGradient>
<linearGradient id="paint50_linear" x1="77.8443" y1="184.888" x2="82.7035" y2="184.47" gradientUnits="userSpaceOnUse">
<stop offset="0.0756841" stop-color="#B565D8"/>
<stop offset="0.945898" stop-color="#EE609C"/>
</linearGradient>
<linearGradient id="paint51_linear" x1="83.3241" y1="187.847" x2="85.6337" y2="187.099" gradientUnits="userSpaceOnUse">
<stop offset="0.0756841" stop-color="#B565D8"/>
<stop offset="0.945898" stop-color="#EE609C"/>
</linearGradient>
<linearGradient id="paint52_linear" x1="72.66" y1="181.755" x2="79.1471" y2="182.27" gradientUnits="userSpaceOnUse">
<stop offset="0.0756841" stop-color="#B565D8"/>
<stop offset="0.945898" stop-color="#EE609C"/>
</linearGradient>
<linearGradient id="paint53_linear" x1="1.85257" y1="154.668" x2="34.2574" y2="131.513" gradientUnits="userSpaceOnUse">
<stop offset="0.0756841" stop-color="#B565D8"/>
<stop offset="0.945898" stop-color="#EE609C"/>
</linearGradient>
<linearGradient id="paint54_linear" x1="40.2316" y1="63.5994" x2="56.1807" y2="56.3702" gradientUnits="userSpaceOnUse">
<stop offset="0.0756841" stop-color="#B565D8"/>
<stop offset="0.945898" stop-color="#EE609C"/>
</linearGradient>
<linearGradient id="paint55_linear" x1="35.1061" y1="207.438" x2="38.1692" y2="201.856" gradientUnits="userSpaceOnUse">
<stop offset="0.0756841" stop-color="#B565D8"/>
<stop offset="0.945898" stop-color="#EE609C"/>
</linearGradient>
<linearGradient id="paint56_linear" x1="52.6011" y1="236.209" x2="68.5121" y2="207.211" gradientUnits="userSpaceOnUse">
<stop offset="0.0756841" stop-color="#B565D8"/>
<stop offset="0.945898" stop-color="#EE609C"/>
</linearGradient>
<linearGradient id="paint57_linear" x1="3.76008" y1="126.26" x2="13.1974" y2="109.06" gradientUnits="userSpaceOnUse">
<stop offset="0.0756841" stop-color="#B565D8"/>
<stop offset="0.945898" stop-color="#EE609C"/>
</linearGradient>
<linearGradient id="paint58_linear" x1="55.5604" y1="81.2859" x2="54.6951" y2="85.9414" gradientUnits="userSpaceOnUse">
<stop offset="0.0756841" stop-color="#B565D8"/>
<stop offset="0.945898" stop-color="#EE609C"/>
</linearGradient>
<linearGradient id="paint59_linear" x1="224.241" y1="158.499" x2="227.304" y2="152.916" gradientUnits="userSpaceOnUse">
<stop offset="0.0756841" stop-color="#B565D8"/>
<stop offset="0.945898" stop-color="#EE609C"/>
</linearGradient>
<linearGradient id="paint60_linear" x1="216.981" y1="152.991" x2="241.227" y2="166.332" gradientUnits="userSpaceOnUse">
<stop offset="0.0756841" stop-color="#B565D8"/>
<stop offset="0.945898" stop-color="#EE609C"/>
</linearGradient>
<linearGradient id="paint61_linear" x1="50.247" y1="146.224" x2="56.0996" y2="149.372" gradientUnits="userSpaceOnUse">
<stop offset="0.0756841" stop-color="#B565D8"/>
<stop offset="0.945898" stop-color="#EE609C"/>
</linearGradient>
</defs>
</svg>
