<svg width="109" height="105" viewBox="0 0 109 105" fill="none" xmlns="http://www.w3.org/2000/svg">
<path d="M66.9569 8.79385C64.324 -0.131152 51.676 -0.131152 49.0431 8.79385L48.4056 10.9613C48.0122 12.2975 47.3248 13.5287 46.3936 14.5646C45.4625 15.6005 44.3113 16.4148 43.0245 16.9479C41.7376 17.481 40.3478 17.7192 38.9569 17.6453C37.566 17.5713 36.2093 17.1869 34.9862 16.5203L33.01 15.4366C24.8309 10.9868 15.8867 19.931 20.3429 28.1037L21.4203 30.0863C24.2635 35.3138 21.5669 41.8227 15.8612 43.5057L13.6937 44.1432C4.76875 46.7761 4.76875 59.4241 13.6937 62.057L15.8612 62.6945C17.1974 63.0879 18.4286 63.7753 19.4645 64.7065C20.5004 65.6376 21.3147 66.7888 21.8478 68.0756C22.3809 69.3625 22.6191 70.7523 22.5452 72.1432C22.4712 73.5341 22.0868 74.8908 21.4203 76.1138L20.3365 78.0901C15.8868 86.2692 24.8309 95.2133 33.0036 90.7572L34.9862 89.6798C36.2093 89.0133 37.566 88.6289 38.9569 88.5549C40.3478 88.481 41.7376 88.7192 43.0245 89.2523C44.3113 89.7854 45.4625 90.5997 46.3936 91.6356C47.3248 92.6715 48.0122 93.9027 48.4056 95.2388L49.0431 97.4063C51.676 106.331 64.324 106.331 66.9569 97.4063L67.5944 95.2388C67.9878 93.9027 68.6752 92.6715 69.6064 91.6356C70.5375 90.5997 71.6887 89.7854 72.9755 89.2523C74.2624 88.7192 75.6522 88.481 77.0431 88.5549C78.434 88.6289 79.7907 89.0133 81.0137 89.6798L82.99 90.7636C91.1691 95.2133 100.113 86.2692 95.6571 78.0965L94.5798 76.1138C93.9132 74.8908 93.5288 73.5341 93.4548 72.1432C93.3809 70.7523 93.6191 69.3625 94.1522 68.0756C94.6853 66.7888 95.4996 65.6376 96.5355 64.7065C97.5714 63.7753 98.8026 63.0879 100.139 62.6945L102.306 62.057C111.231 59.4241 111.231 46.7761 102.306 44.1432L100.139 43.5057C98.8026 43.1123 97.5714 42.4249 96.5355 41.4937C95.4996 40.5626 94.6853 39.4114 94.1522 38.1246C93.6191 36.8377 93.3809 35.4479 93.4548 34.057C93.5288 32.6661 93.9132 31.3094 94.5798 30.0863L95.6635 28.1101C100.113 19.931 91.1691 10.9868 82.9964 15.443L81.0137 16.5203C79.7907 17.1869 78.434 17.5713 77.0431 17.6453C75.6522 17.7192 74.2624 17.481 72.9755 16.9479C71.6887 16.4148 70.5375 15.6005 69.6064 14.5646C68.6752 13.5287 67.9878 12.2975 67.5944 10.9613L66.9569 8.79385ZM58 71.7788C53.0461 71.7788 48.2951 69.8109 44.7921 66.308C41.2892 62.805 39.3213 58.054 39.3213 53.1001C39.3213 48.1462 41.2892 43.3952 44.7921 39.8922C48.2951 36.3893 53.0461 34.4213 58 34.4213C62.9522 34.4213 67.7016 36.3886 71.2034 39.8904C74.7051 43.3921 76.6724 48.1415 76.6724 53.0937C76.6724 58.0459 74.7051 62.7953 71.2034 66.2971C67.7016 69.7988 62.9522 71.7661 58 71.7661V71.7788Z" fill="#9D9D9D" fill-opacity="0.2"/>
<g clip-path="url(#clip0)">
<path d="M59.9569 6.79385C57.324 -2.13115 44.676 -2.13115 42.0431 6.79385L41.4056 8.96135C41.0122 10.2975 40.3248 11.5287 39.3936 12.5646C38.4625 13.6005 37.3113 14.4148 36.0245 14.9479C34.7376 15.481 33.3478 15.7192 31.9569 15.6453C30.566 15.5713 29.2093 15.1869 27.9862 14.5203L26.01 13.4366C17.8309 8.98685 8.88675 17.931 13.3429 26.1037L14.4203 28.0863C17.2635 33.3138 14.5669 39.8227 8.86125 41.5057L6.69375 42.1432C-2.23125 44.7761 -2.23125 57.4241 6.69375 60.057L8.86125 60.6945C10.1974 61.0879 11.4286 61.7753 12.4645 62.7065C13.5004 63.6376 14.3147 64.7888 14.8478 66.0756C15.3809 67.3625 15.6191 68.7523 15.5452 70.1432C15.4712 71.5341 15.0868 72.8908 14.4203 74.1138L13.3365 76.0901C8.88675 84.2692 17.8309 93.2133 26.0036 88.7572L27.9862 87.6798C29.2093 87.0133 30.566 86.6289 31.9569 86.5549C33.3478 86.481 34.7376 86.7192 36.0245 87.2523C37.3113 87.7854 38.4625 88.5997 39.3936 89.6356C40.3248 90.6715 41.0122 91.9027 41.4056 93.2388L42.0431 95.4063C44.676 104.331 57.324 104.331 59.9569 95.4063L60.5944 93.2388C60.9878 91.9027 61.6752 90.6715 62.6064 89.6356C63.5375 88.5997 64.6887 87.7854 65.9755 87.2523C67.2624 86.7192 68.6522 86.481 70.0431 86.5549C71.434 86.6289 72.7907 87.0133 74.0137 87.6798L75.99 88.7636C84.1691 93.2133 93.1133 84.2692 88.6571 76.0965L87.5798 74.1138C86.9132 72.8908 86.5288 71.5341 86.4548 70.1432C86.3809 68.7523 86.6191 67.3625 87.1522 66.0756C87.6853 64.7888 88.4996 63.6376 89.5355 62.7065C90.5714 61.7753 91.8026 61.0879 93.1387 60.6945L95.3063 60.057C104.231 57.4241 104.231 44.7761 95.3063 42.1432L93.1387 41.5057C91.8026 41.1123 90.5714 40.4249 89.5355 39.4937C88.4996 38.5626 87.6853 37.4114 87.1522 36.1246C86.6191 34.8377 86.3809 33.4479 86.4548 32.057C86.5288 30.6661 86.9132 29.3094 87.5798 28.0863L88.6635 26.1101C93.1133 17.931 84.1691 8.98685 75.9964 13.443L74.0137 14.5203C72.7907 15.1869 71.434 15.5713 70.0431 15.6453C68.6522 15.7192 67.2624 15.481 65.9755 14.9479C64.6887 14.4148 63.5375 13.6005 62.6064 12.5646C61.6752 11.5287 60.9878 10.2975 60.5944 8.96135L59.9569 6.79385ZM51 69.7788C46.0461 69.7788 41.2951 67.8109 37.7921 64.308C34.2892 60.805 32.3213 56.054 32.3213 51.1001C32.3213 46.1462 34.2892 41.3952 37.7921 37.8922C41.2951 34.3893 46.0461 32.4213 51 32.4213C55.9522 32.4213 60.7016 34.3886 64.2034 37.8904C67.7051 41.3921 69.6724 46.1415 69.6724 51.0937C69.6724 56.0459 67.7051 60.7953 64.2034 64.2971C60.7016 67.7988 55.9522 69.7661 51 69.7661V69.7788Z" fill="#9D9D9D"/>
<path d="M51 13.6001L21 24.8501V47.6876C21 66.6251 33.7875 84.2876 51 88.6001C68.2125 84.2876 81 66.6251 81 47.6876V24.8501L51 13.6001ZM73.5 47.6876C73.5 62.6876 63.9375 76.5626 51 80.8001C38.0625 76.5626 28.5 62.7251 28.5 47.6876V29.7626L51 21.8126L73.5 29.7626V47.6876ZM39.075 45.8126L33.75 51.1001L47.025 64.3751L68.25 43.1501L62.9625 37.8626L47.0625 53.7626L39.075 45.8126Z" fill="#00B512"/>
</g>
<defs>
<clipPath id="clip0">
<rect width="102" height="102" fill="white" transform="translate(0 0.100098)"/>
</clipPath>
</defs>
</svg>
