<svg width="190" height="170" viewBox="0 0 190 170" fill="none" xmlns="http://www.w3.org/2000/svg">
<path d="M102.917 127.5V141.667H134.583V155.833H55.4167V141.667H87.0833V127.5H23.6867C22.6471 127.494 21.619 127.305 20.6612 126.944C19.7035 126.582 18.8349 126.055 18.1053 125.392C17.3758 124.729 16.7995 123.944 16.4097 123.082C16.0198 122.22 15.8239 121.297 15.8333 120.367V28.3829C15.8333 24.4446 19.4354 21.25 23.6867 21.25H166.313C170.652 21.25 174.167 24.4304 174.167 28.3829V120.367C174.167 124.305 170.565 127.5 166.313 127.5H102.917Z" fill="white"/>
<path d="M147.778 34.2368H42.2228C34.9658 34.2368 29.0943 38.7524 29.0943 44.2715L29.0283 104.48C29.0283 109.999 34.9658 114.515 42.2228 114.515H147.778C155.035 114.515 160.973 109.999 160.973 104.48V44.2715C160.973 38.7524 155.035 34.2368 147.778 34.2368ZM42.2228 59.3236H111.494V76.8844H42.2228V59.3236ZM42.2228 86.9191H111.494V104.48H48.82C45.1915 104.48 42.2228 102.222 42.2228 99.4625V86.9191ZM141.181 104.48H124.688V59.3236H147.778V99.4625C147.778 102.222 144.81 104.48 141.181 104.48Z" fill="#282828"/>
<path d="M104.136 48.1672C104.231 47.466 104.303 46.7647 104.303 46.0422C104.303 45.3197 104.231 44.6185 104.136 43.9172H108.15C108.34 44.5972 108.459 45.3091 108.459 46.0422C108.459 46.7754 108.34 47.4872 108.15 48.1672H104.136ZM102.035 54.0747C102.747 52.8954 103.293 51.6204 103.673 50.2922H107.176C106.026 52.0648 104.201 53.4075 102.035 54.0747ZM101.738 48.1672H96.1802C96.0615 47.466 95.9902 46.7647 95.9902 46.0422C95.9902 45.3197 96.0615 44.6079 96.1802 43.9172H101.738C101.845 44.6079 101.928 45.3197 101.928 46.0422C101.928 46.7647 101.845 47.466 101.738 48.1672ZM98.959 54.4997C97.9734 53.2247 97.1777 51.8116 96.6909 50.2922H101.227C100.74 51.8116 99.9446 53.2247 98.959 54.4997ZM94.209 41.7922H90.7415C91.8801 40.0149 93.7041 38.6701 95.8715 38.0097C95.159 39.1891 94.6246 40.4641 94.209 41.7922ZM90.7415 50.2922H94.209C94.6246 51.6204 95.159 52.8954 95.8715 54.0747C93.7086 53.4071 91.8872 52.0642 90.7415 50.2922ZM89.7677 48.1672C89.5777 47.4872 89.459 46.7754 89.459 46.0422C89.459 45.3091 89.5777 44.5972 89.7677 43.9172H93.7815C93.6865 44.6185 93.6152 45.3197 93.6152 46.0422C93.6152 46.7647 93.6865 47.466 93.7815 48.1672H89.7677ZM98.959 37.5741C99.9446 38.8491 100.74 40.2729 101.227 41.7922H96.6909C97.1777 40.2729 97.9734 38.8491 98.959 37.5741ZM107.176 41.7922H103.673C103.302 40.4763 102.751 39.206 102.035 38.0097C104.22 38.6791 106.036 40.0285 107.176 41.7922ZM98.959 35.4172C92.3921 35.4172 87.084 40.1985 87.084 46.0422C87.084 48.8602 88.3351 51.5627 90.5621 53.5552C91.6648 54.5419 92.9739 55.3245 94.4146 55.8585C95.8554 56.3924 97.3995 56.6672 98.959 56.6672C102.108 56.6672 105.129 55.5478 107.356 53.5552C109.583 51.5627 110.834 48.8602 110.834 46.0422C110.834 44.6469 110.527 43.2653 109.93 41.9762C109.333 40.6871 108.459 39.5158 107.356 38.5292C106.253 37.5426 104.944 36.76 103.503 36.226C102.063 35.6921 100.518 35.4172 98.959 35.4172Z" fill="white"/>
</svg>
