<svg width="158" height="134" viewBox="0 0 158 134" fill="none" xmlns="http://www.w3.org/2000/svg">
<g clip-path="url(#clip0)">
<path d="M150.1 0H39.5C37.4048 0 35.3954 0.882364 33.9139 2.45298C32.4323 4.0236 31.6 6.15381 31.6 8.375V33.5H71.1V16.75H118.5V100.5H150.1C152.195 100.5 154.205 99.6176 155.686 98.047C157.168 96.4764 158 94.3462 158 92.125V8.375C158 6.15381 157.168 4.0236 155.686 2.45298C154.205 0.882364 152.195 0 150.1 0V0ZM57.275 26.957C57.275 27.5817 57.0409 28.1809 56.6242 28.6226C56.2075 29.0643 55.6424 29.3125 55.0531 29.3125H47.6469C47.0576 29.3125 46.4925 29.0643 46.0758 28.6226C45.6591 28.1809 45.425 27.5817 45.425 26.957V19.1055C45.425 18.4808 45.6591 17.8816 46.0758 17.4399C46.4925 16.9982 47.0576 16.75 47.6469 16.75H55.0531C55.6424 16.75 56.2075 16.9982 56.6242 17.4399C57.0409 17.8816 57.275 18.4808 57.275 19.1055V26.957ZM144.175 81.3945C144.175 82.0192 143.941 82.6184 143.524 83.0601C143.108 83.5018 142.542 83.75 141.953 83.75H134.547C133.958 83.75 133.392 83.5018 132.976 83.0601C132.559 82.6184 132.325 82.0192 132.325 81.3945V73.543C132.325 72.9183 132.559 72.3191 132.976 71.8774C133.392 71.4357 133.958 71.1875 134.547 71.1875H141.953C142.542 71.1875 143.108 71.4357 143.524 71.8774C143.941 72.3191 144.175 72.9183 144.175 73.543V81.3945ZM144.175 54.1758C144.175 54.8005 143.941 55.3996 143.524 55.8414C143.108 56.2831 142.542 56.5312 141.953 56.5312H134.547C133.958 56.5312 133.392 56.2831 132.976 55.8414C132.559 55.3996 132.325 54.8005 132.325 54.1758V46.3242C132.325 45.6995 132.559 45.1004 132.976 44.6586C133.392 44.2169 133.958 43.9688 134.547 43.9688H141.953C142.542 43.9688 143.108 44.2169 143.524 44.6586C143.941 45.1004 144.175 45.6995 144.175 46.3242V54.1758ZM144.175 26.957C144.175 27.5817 143.941 28.1809 143.524 28.6226C143.108 29.0643 142.542 29.3125 141.953 29.3125H134.547C133.958 29.3125 133.392 29.0643 132.976 28.6226C132.559 28.1809 132.325 27.5817 132.325 26.957V19.1055C132.325 18.4808 132.559 17.8816 132.976 17.4399C133.392 16.9982 133.958 16.75 134.547 16.75H141.953C142.542 16.75 143.108 16.9982 143.524 17.4399C143.941 17.8816 144.175 18.4808 144.175 19.1055V26.957ZM102.7 41.875H7.9C5.80479 41.875 3.79539 42.7574 2.31386 44.328C0.832319 45.8986 0 48.0288 0 50.25L0 125.625C0 127.846 0.832319 129.976 2.31386 131.547C3.79539 133.118 5.80479 134 7.9 134H102.7C104.795 134 106.805 133.118 108.286 131.547C109.768 129.976 110.6 127.846 110.6 125.625V50.25C110.6 48.0288 109.768 45.8986 108.286 44.328C106.805 42.7574 104.795 41.875 102.7 41.875ZM23.7 58.625C25.2625 58.625 26.7899 59.1162 28.089 60.0364C29.3882 60.9567 30.4007 62.2647 30.9986 63.795C31.5966 65.3254 31.753 67.0093 31.4482 68.6339C31.1434 70.2585 30.391 71.7508 29.2861 72.922C28.1813 74.0933 26.7737 74.8909 25.2412 75.2141C23.7088 75.5372 22.1203 75.3714 20.6768 74.7375C19.2333 74.1036 17.9995 73.0302 17.1314 71.6529C16.2633 70.2756 15.8 68.6564 15.8 67C15.8 64.7788 16.6323 62.6486 18.1139 61.078C19.5954 59.5074 21.6048 58.625 23.7 58.625ZM94.8 117.25H15.8V108.875L31.6 92.125L39.5 100.5L71.1 67L94.8 92.125V117.25Z" fill="white"/>
</g>
<defs>
<clipPath id="clip0">
<rect width="158" height="134" fill="white"/>
</clipPath>
</defs>
</svg>
