<svg width="190" height="170" viewBox="0 0 190 170" fill="none" xmlns="http://www.w3.org/2000/svg">
<g clip-path="url(#clip0)">
<path d="M173.672 16.6812H119.106L116.387 19.1249V115.94L118.346 128.637H116.197V129.933H114.374V128.307H110.752V129.604H108.9V127.654H106.02V129.28H99.453L87.4592 127.33V122.442H92.5476L94.3408 114.633H110.532C111.068 114.633 111.581 114.443 111.96 114.104C112.338 113.765 112.551 113.306 112.551 112.827V41.5862C112.552 41.3493 112.5 41.1146 112.399 40.8957C112.297 40.6768 112.149 40.4781 111.961 40.3111C111.773 40.1441 111.55 40.0121 111.305 39.9227C111.06 39.8333 110.797 39.7884 110.532 39.7905H9.44047C8.90869 39.7919 8.39915 39.9816 8.02312 40.318C7.6471 40.6544 7.43516 41.1104 7.43359 41.5862V112.837C7.43359 113.831 8.33609 114.644 9.45234 114.644H27.3539L28.5414 122.453H36.9014L16.7139 140.516L12.528 148.484C12.528 148.484 29.9842 154.344 52.1786 154.344C74.367 154.344 109.654 149.791 114.38 149.791H143.117V143.278L142.304 137.61H152.659C151.471 138.173 150.759 138.906 150.759 139.713V144.909C150.759 146.715 154.339 148.166 158.774 148.166C163.186 148.166 166.79 146.731 166.79 144.914V139.708C166.79 137.912 163.198 136.467 158.774 136.467C157.664 136.467 156.619 136.574 155.663 136.733V135.83H142.066L141.74 133.53H173.701L173.672 16.6812ZM14.707 107.153V46.293H104.185V107.153H14.713H14.707Z" fill="white"/>
<g clip-path="url(#clip1)">
<path d="M153.131 106.887L148.067 102.199C146.487 102.894 144.791 103.297 142.98 103.408L140.898 109.154C140.673 109.685 140.299 110.079 139.776 110.335C139.253 110.591 138.715 110.678 138.162 110.597L134.076 109.681C133.525 109.542 133.114 109.253 132.842 108.817C132.57 108.38 132.547 107.897 132.773 107.366L134.86 101.531C134.097 101.071 133.465 100.61 132.965 100.147C132.465 99.6837 131.971 99.1032 131.484 98.4054L124.895 100.073C124.294 100.257 123.755 100.22 123.276 99.9619C122.798 99.7039 122.49 99.3265 122.353 98.8295L121.468 95.1445C121.397 94.6467 121.513 94.1685 121.816 93.71C122.12 93.2514 122.572 92.9303 123.173 92.7467L129.663 91.08C129.849 89.4642 130.356 87.9616 131.186 86.5723L126.122 81.8844C125.715 81.5082 125.519 81.0487 125.531 80.5058C125.544 79.9629 125.792 79.4831 126.274 79.0662L129.579 76.208C130.026 75.821 130.562 75.6235 131.186 75.6155C131.81 75.6076 132.325 75.7917 132.732 76.1679L137.796 80.8559C139.342 80.1908 141.02 79.8028 142.831 79.6918L144.913 73.9449C145.139 73.414 145.513 73.0205 146.036 72.7645C146.558 72.5085 147.096 72.421 147.65 72.502L151.736 73.4181C152.286 73.5578 152.697 73.8459 152.969 74.2825C153.241 74.719 153.282 75.1879 153.09 75.689L150.952 81.5686C151.715 82.0283 152.346 82.4896 152.846 82.9526C153.347 83.4157 153.841 83.9961 154.328 84.6939L160.968 82.9814C161.535 82.8275 162.057 82.8795 162.535 83.1375C163.014 83.3954 163.322 83.7728 163.459 84.2698L164.343 87.9548C164.415 88.4526 164.299 88.9308 163.995 89.3893C163.691 89.8479 163.239 90.169 162.639 90.3527L156.149 92.0193C155.963 93.6351 155.472 95.1228 154.677 96.4823L159.741 101.17C160.148 101.546 160.336 102.013 160.306 102.571C160.276 103.129 160.037 103.601 159.589 103.988L156.285 106.847C155.803 107.263 155.258 107.468 154.651 107.461C154.044 107.454 153.538 107.263 153.131 106.887ZM146.237 88.6691C145.392 87.8878 144.354 87.5123 143.122 87.5426C141.889 87.573 140.817 87.9826 139.905 88.7716C138.992 89.5606 138.507 90.4982 138.448 91.5843C138.39 92.6705 138.783 93.6042 139.627 94.3856C140.471 95.1669 141.5 95.5498 142.716 95.5344C143.931 95.5189 144.995 95.1167 145.907 94.3277C146.819 93.5387 147.313 92.5937 147.389 91.4927C147.465 90.3916 147.081 89.4504 146.237 88.6691ZM154.955 73.0691L149.89 68.3812C148.31 69.076 146.615 69.4789 144.804 69.59L142.721 75.3368C142.53 75.838 142.165 76.224 141.625 76.4949C141.085 76.7657 140.539 76.8607 139.985 76.7797L135.899 75.8636C135.349 75.724 134.946 75.4284 134.691 74.9769C134.437 74.5255 134.405 74.0492 134.596 73.548L136.683 67.7131C135.986 67.2526 135.371 66.7764 134.84 66.2844C134.309 65.7925 133.797 65.2269 133.307 64.5878L126.718 66.2557C126.152 66.4096 125.621 66.365 125.125 66.1219C124.63 65.8789 124.313 65.5089 124.176 65.0119L123.292 61.3269C123.22 60.8291 123.345 60.3435 123.665 59.87C123.986 59.3966 124.43 59.0829 124.996 58.929L131.486 57.2624C131.672 55.6466 132.18 54.144 133.009 52.7547L127.945 48.0668C127.539 47.6906 127.342 47.2311 127.355 46.6882C127.368 46.1453 127.615 45.6655 128.097 45.2486L131.402 42.3904C131.85 42.0034 132.385 41.8059 133.009 41.7979C133.633 41.79 134.149 41.9741 134.555 42.3503L139.619 47.0383C141.165 46.3732 142.861 45.9703 144.706 45.8295L146.788 40.0826C146.98 39.5815 147.345 39.1955 147.885 38.9246C148.424 38.6537 148.954 38.5736 149.473 38.6844L153.559 39.6005C154.144 39.7104 154.564 39.9911 154.818 40.4425C155.073 40.894 155.105 41.3703 154.914 41.8714L152.775 47.751C153.538 48.2107 154.17 48.672 154.67 49.135C155.17 49.5981 155.664 50.1785 156.151 50.8763L162.792 49.1638C163.358 49.0099 163.889 49.0545 164.384 49.2975C164.88 49.5406 165.179 49.9255 165.282 50.4522L166.167 54.1372C166.273 54.6052 166.165 55.076 165.844 55.5494C165.523 56.0229 165.08 56.3365 164.514 56.4904L158.023 58.157C157.803 59.8026 157.296 61.3052 156.5 62.6647L161.565 67.3527C161.971 67.7289 162.159 68.1958 162.129 68.7536C162.099 69.3114 161.86 69.7838 161.413 70.1708L158.108 73.029C157.626 73.4459 157.081 73.6508 156.475 73.6438C155.868 73.6369 155.361 73.4453 154.955 73.0691ZM148.06 54.8515C147.216 54.0702 146.178 53.6947 144.945 53.725C143.713 53.7554 142.64 54.165 141.728 54.954C140.816 55.743 140.33 56.6806 140.272 57.7667C140.213 58.8529 140.606 59.7866 141.45 60.568C142.294 61.3493 143.324 61.7322 144.539 61.7168C145.754 61.7013 146.818 61.2991 147.73 60.5101C148.642 59.7211 149.136 58.7761 149.212 57.675C149.288 56.574 148.904 55.6328 148.06 54.8515Z" fill="#252525"/>
</g>
</g>
<defs>
<clipPath id="clip0">
<rect width="190" height="170" fill="white"/>
</clipPath>
<clipPath id="clip1">
<rect width="65.432" height="65.6787" fill="white" transform="matrix(0.733851 0.679311 -0.756377 0.654136 144.678 30.9089)"/>
</clipPath>
</defs>
</svg>
