<svg width="190" height="134" viewBox="0 0 190 134" fill="none" xmlns="http://www.w3.org/2000/svg">
<path d="M163.461 69.3913C162.6 66.3404 165.643 63.3414 169.636 62.675L167.246 54.1781C163.194 54.6259 158.607 52.6787 157.761 49.6277C157.716 49.4715 157.494 49.1799 157.508 49.1799L13.8061 69.0165C13.8209 69.0165 13.9248 69.3184 13.9693 69.485C14.8451 72.6089 11.8021 75.6599 7.34902 76.2742C6.99277 76.3263 6.14668 76.42 6.13184 76.3888L8.53652 84.969C8.52168 84.9378 9.36777 84.8024 9.72402 84.7503C14.1771 84.136 18.5561 86.1561 19.4318 89.2799C20.3076 92.4038 17.2943 95.4443 12.8561 96.0587C12.4998 96.1108 11.6982 96.1941 11.6834 96.1628L14.0881 104.743C14.0732 104.712 14.9193 104.576 15.2756 104.524C19.7287 103.91 24.1076 105.93 24.9834 109.054C25.8592 112.178 22.8459 115.218 18.4076 115.833C18.0514 115.885 17.2498 115.968 17.235 115.937L19.6396 124.517C19.6248 124.486 20.4709 124.35 20.8271 124.298C25.2803 123.684 29.674 125.704 30.5498 128.828C30.5943 128.984 30.7428 129.286 30.7279 129.286L174.445 109.439C174.43 109.439 174.475 109.116 174.43 108.96C173.569 105.909 176.761 102.89 180.754 102.223L178.364 93.7262C174.312 94.174 169.873 92.2059 169.027 89.155C168.166 86.104 171.209 83.1051 175.202 82.4387L172.812 73.9418C168.745 74.3999 164.322 72.4423 163.461 69.3913Z" fill="white"/>
<path d="M25.0059 76.9022L150.087 59.6345L161.908 101.769L36.8259 119.038L25.0059 76.9022Z" fill="white"/>
<path d="M42.9307 69.7409L47.8543 69.062L62.3641 120.781L57.4404 121.461L42.9307 69.7409Z" fill="white"/>
<path d="M124.783 57.8821L129.707 57.2021L144.215 108.921L139.293 109.601L124.783 57.8821Z" fill="white"/>
<path d="M117.161 82.5951L69.7352 88.999C67.0187 89.3635 64.4062 88.1243 63.8719 86.2188C63.3523 84.3132 65.1187 82.4805 67.8352 82.1057L115.261 75.7018C117.977 75.3373 120.59 76.5764 121.124 78.482C121.644 80.3876 119.863 82.2306 117.161 82.5951Z" fill="white"/>
<path d="M110.304 98.4424L82.888 102.149C80.2607 102.503 77.7224 101.296 77.2177 99.4629C76.713 97.6198 78.4349 95.8392 81.0474 95.4852L108.464 91.7782C111.091 91.4241 113.629 92.632 114.134 94.4647C114.257 94.9024 114.255 95.3528 114.129 95.79C114.003 96.2272 113.754 96.6426 113.399 97.0123C113.043 97.3819 112.586 97.6986 112.055 97.944C111.524 98.1895 110.929 98.3589 110.304 98.4424Z" fill="white"/>
<path opacity="0.2" d="M154.732 52.7411C156.558 55.0007 159.824 56.6668 163.564 57.1874L164.589 60.8632C160.432 62.8104 158.087 66.4028 159.082 69.9953C160.061 73.494 164.158 76.243 169.101 76.9615L170.14 80.6476C165.984 82.5949 163.639 86.1873 164.633 89.7797C165.613 93.2785 169.71 96.0275 174.653 96.746L175.692 100.432C172.56 101.9 170.407 104.306 169.932 106.899L33.6074 125.725C32.5703 124.403 31.0742 123.286 29.2578 122.478C27.4414 121.67 25.3635 121.196 23.2168 121.102L22.4004 118.176C24.4061 117.492 26.1207 116.45 27.373 115.156C28.3279 114.191 28.9962 113.1 29.3379 111.95C29.6796 110.8 29.6878 109.613 29.3621 108.46C28.2488 104.493 23.3949 101.567 17.6652 101.317L16.8488 98.3912C18.8545 97.7072 20.5692 96.6659 21.8215 95.3715C22.7764 94.4061 23.4446 93.3158 23.7863 92.1656C24.128 91.0153 24.1363 89.8285 23.8105 88.676C22.6973 84.7087 17.8434 81.7827 12.1137 81.5327L11.2973 78.6171C13.316 77.9342 15.0454 76.8933 16.3145 75.5974C17.5168 74.3687 18.259 72.9942 18.4816 71.5676L154.732 52.7411ZM157.523 49.1799L13.8059 69.0165C13.8207 69.0165 13.9246 69.3184 13.9691 69.485C14.8449 72.6089 11.802 75.6599 7.34883 76.2742C7.03711 76.3159 6.36914 76.3888 6.19102 76.3888C6.16133 76.3888 6.14648 76.3888 6.14648 76.3784L8.55117 84.9586C8.53633 84.9273 9.38242 84.792 9.73867 84.7399C10.273 84.667 10.8074 84.6254 11.3418 84.6254C15.2012 84.6254 18.6895 86.5205 19.4465 89.2591C20.3223 92.383 17.309 95.4235 12.8707 96.0379C12.559 96.0795 11.9355 96.1524 11.7426 96.1524C11.7129 96.1524 11.698 96.1524 11.698 96.142L14.1027 104.722C14.0879 104.691 14.934 104.556 15.2902 104.504C15.8246 104.431 16.359 104.389 16.8934 104.389C20.7527 104.389 24.241 106.284 24.998 109.023C25.8738 112.147 22.8605 115.187 18.4223 115.802C18.1105 115.843 17.4871 115.916 17.2941 115.916C17.2645 115.916 17.2496 115.916 17.2496 115.906L19.6543 124.486C19.6395 124.455 20.4855 124.319 20.8418 124.267C21.3762 124.194 21.9105 124.153 22.4449 124.153C26.3043 124.153 29.7926 126.048 30.5645 128.797C30.609 128.953 30.7574 129.255 30.7426 129.255L174.46 109.408C174.445 109.408 174.489 109.085 174.445 108.929C173.584 105.878 176.775 102.858 180.768 102.192L178.379 93.695C177.993 93.7366 177.607 93.7575 177.221 93.7575C173.51 93.7575 169.814 91.8831 169.042 89.1237C168.181 86.0728 171.224 83.0738 175.217 82.4074L172.827 73.9105C172.441 73.9522 172.055 73.973 171.669 73.973C167.958 73.973 164.262 72.0987 163.49 69.3393C162.629 66.2883 165.672 63.2894 169.665 62.623L167.275 54.126C166.889 54.1677 166.489 54.1885 166.103 54.1885C162.377 54.1885 158.562 52.335 157.79 49.5756C157.716 49.4715 157.508 49.1799 157.523 49.1799Z" fill="#424242"/>
<path opacity="0.8" d="M167.926 42.6516L0.859375 65.7266C0.874219 65.7266 12.8977 115.281 12.8828 115.292L180.736 73.328C180.721 73.328 167.911 42.662 167.926 42.6516Z" fill="url(#paint0_linear)"/>
<path d="M158.562 23.1888C156.914 20.3044 159.111 16.9619 162.867 15.7956L158.295 7.75689C154.421 8.72528 149.418 7.40285 147.771 4.50807C147.682 4.36229 147.4 4.10197 147.414 4.09155L11.3715 42.1819C11.3863 42.1819 11.5645 42.463 11.6535 42.6192C13.3309 45.5765 11.1488 48.9606 6.9332 50.1477C6.5918 50.2414 5.79023 50.4497 5.77539 50.4184L10.3918 58.5405C10.377 58.5092 11.1637 58.2697 11.4902 58.176C15.7059 56.9994 20.5449 58.4155 22.2223 61.3728C23.8996 64.33 21.7473 67.7038 17.5316 68.8909C17.1902 68.9846 16.4184 69.1824 16.4035 69.1512L21.0199 77.2732C21.0051 77.242 21.7918 77.0025 22.1184 76.9088C26.334 75.7321 31.173 77.1483 32.8504 80.1056C34.5277 83.0628 32.3754 86.4366 28.1598 87.6236C27.8184 87.7174 27.0465 87.9152 27.0316 87.884L31.6481 96.006C31.6332 95.9748 32.4199 95.7353 32.7465 95.6416C36.9621 94.4649 41.8012 95.8811 43.4934 98.8383C43.5824 98.9841 43.8051 99.2652 43.7902 99.2757L179.833 61.1854C179.818 61.1854 179.774 60.8626 179.685 60.7168C178.037 57.8324 180.382 54.4482 184.138 53.282L179.566 45.2432C175.692 46.2116 170.823 44.8475 169.175 41.9632C167.528 39.0788 169.725 35.7363 173.48 34.57L168.908 26.5313C165.079 27.4372 160.21 26.0835 158.562 23.1888Z" fill="white"/>
<path d="M24.4541 48.4788L142.842 15.3293L165.535 55.2107L47.1457 88.3601L24.4541 48.4788Z" fill="white"/>
<path d="M40.1904 39.1316L44.8514 37.8269L72.7042 86.7778L68.0432 88.0826L40.1904 39.1316Z" fill="white"/>
<path d="M117.509 16.8919L122.17 15.5872L150.023 64.5381L145.363 65.8439L117.509 16.8919Z" fill="white"/>
<path d="M115.945 42.5256L71.0873 55.0835C68.5193 55.802 65.6099 54.9273 64.5857 53.1259C63.5615 51.3245 64.8084 49.2835 67.3763 48.565L112.219 36.0071C114.787 35.2886 117.697 36.1633 118.721 37.9647C119.76 39.7662 118.498 41.8071 115.945 42.5256Z" fill="white"/>
<path d="M113.465 58.9886L87.5332 66.2463C85.0543 66.944 82.234 66.0902 81.2543 64.3512C80.2598 62.6123 81.477 60.6338 83.9559 59.9466L109.888 52.6888C112.367 51.9911 115.187 52.845 116.167 54.5839C117.161 56.3229 115.944 58.2909 113.465 58.9886Z" fill="white"/>
<path opacity="0.2" d="M145.604 7.96514C147.964 9.92276 151.571 11.1515 155.445 11.1931L157.419 14.671C153.842 17.1181 152.476 20.9604 154.406 24.355C156.261 27.6247 160.937 29.8426 166.088 29.9051L168.077 33.3934C164.5 35.8404 163.134 39.6828 165.064 43.0774C166.919 46.347 171.595 48.5649 176.746 48.6274L178.735 52.1157C176.048 53.9588 174.564 56.6037 174.771 59.2173L45.7496 95.35C43.3895 93.3091 39.7973 92.0804 35.8785 92.0804C35.359 92.0804 34.8395 92.1012 34.3199 92.1428L32.7465 89.373C34.5323 88.4401 35.9437 87.1989 36.8434 85.7702C38.2238 83.573 38.298 81.1364 37.0363 78.9289C35.1066 75.5447 30.4754 73.358 25.2355 73.358C24.716 73.358 24.1965 73.3788 23.677 73.4205L22.1035 70.6507C23.8893 69.7177 25.3007 68.4766 26.2004 67.0478C27.5809 64.8507 27.6551 62.4141 26.3934 60.2065C24.4637 56.8224 19.8324 54.6357 14.5926 54.6357C14.073 54.6357 13.5535 54.6565 13.034 54.6981L11.4309 51.9387C13.2121 51.0224 14.6371 49.7833 15.5723 48.315C16.4332 46.951 16.7895 45.5036 16.641 44.0666L145.604 7.96514ZM147.414 4.09155L11.3715 42.1819C11.3863 42.1819 11.5645 42.4734 11.6535 42.6192C13.3309 45.5765 11.1488 48.9606 6.9332 50.1477C6.62148 50.231 5.89414 50.4184 5.79023 50.4184H5.77539L10.3918 58.5405C10.377 58.5092 11.1637 58.2697 11.4902 58.176C12.4996 57.8949 13.5387 57.7595 14.5629 57.7595C17.8285 57.7595 20.9457 59.1236 22.2371 61.3728C23.9145 64.33 21.7621 67.7038 17.5465 68.8909C17.2348 68.9742 16.552 69.1512 16.4332 69.1512H16.4184L21.0348 77.2732C21.0199 77.242 21.8066 77.0025 22.1332 76.9088C23.1426 76.6277 24.1816 76.4923 25.2059 76.4923C28.4715 76.4923 31.5887 77.8564 32.8801 80.1056C34.5574 83.0628 32.4051 86.4366 28.1895 87.6236C27.8777 87.707 27.1949 87.884 27.0762 87.884H27.0613L31.6777 96.006C31.6629 95.9748 32.4496 95.7353 32.7762 95.6416C33.7855 95.3604 34.8246 95.225 35.8488 95.225C39.1293 95.225 42.2465 96.5891 43.5231 98.8383C43.6121 98.9841 43.8348 99.2652 43.8199 99.2757L179.863 61.1854C179.848 61.1854 179.804 60.8626 179.714 60.7168C178.067 57.8324 180.412 54.4482 184.168 53.282L179.596 45.2432C178.764 45.4515 177.874 45.5556 176.998 45.5556C173.777 45.5556 170.497 44.2332 169.22 41.9632C167.572 39.0788 169.769 35.7363 173.525 34.57L168.953 26.5313C168.121 26.7396 167.231 26.8437 166.355 26.8437C163.134 26.8437 159.854 25.5213 158.577 23.2512C156.929 20.3669 159.126 17.0243 162.882 15.8581L158.31 7.81936C157.464 8.02762 156.558 8.13175 155.653 8.13175C152.402 8.13175 149.062 6.83014 147.786 4.57054C147.682 4.36229 147.385 4.10197 147.414 4.09155Z" fill="#424242"/>
<defs>
<linearGradient id="paint0_linear" x1="87.3302" y1="55.9686" x2="94.8449" y2="117.718" gradientUnits="userSpaceOnUse">
<stop stop-color="#424242"/>
<stop offset="0.732" stop-color="#757575" stop-opacity="0"/>
</linearGradient>
</defs>
</svg>
