<svg width="158" height="134" viewBox="0 0 158 134" fill="none" xmlns="http://www.w3.org/2000/svg">
<path d="M157.691 83.7812C157.897 85.3505 158 86.7455 158 87.9661C158 89.1867 157.897 90.5817 157.691 92.151H147.815C147.507 94.2435 147.044 96.3359 146.426 98.4284L155.531 101.698C154.605 104.226 153.371 106.798 151.827 109.414L142.569 106.144C141.437 107.975 140.048 109.762 138.402 111.506L145.346 117.391C143.289 119.571 140.974 121.532 138.402 123.276L131.458 117.391C129.401 118.786 127.292 119.963 125.131 120.922L128.989 128.638C125.903 130.033 122.868 131.123 119.885 131.908L116.027 124.192C113.558 124.715 111.089 125.107 108.62 125.369V133.738C106.768 133.913 105.122 134 103.682 134C102.241 134 100.595 133.913 98.7436 133.738V125.369C96.2746 125.107 93.8055 124.715 91.3365 124.192L87.633 131.908C84.5467 131.123 81.4604 130.033 78.3742 128.638L82.232 120.922C80.0716 119.963 78.0141 118.786 76.0595 117.391L68.961 123.276C66.3892 121.532 64.0744 119.571 62.0169 117.391L68.961 111.506C67.4179 109.762 66.0291 107.975 64.7946 106.144L55.6901 109.414C54.0441 106.798 52.7581 104.226 51.8322 101.698L61.0911 98.4284C60.3709 96.3359 59.8565 94.2435 59.5479 92.151H49.6718C49.4661 90.5817 49.3632 89.1867 49.3632 87.9661C49.3632 86.7455 49.4661 85.3505 49.6718 83.7812H59.5479C59.8565 81.6888 60.3709 79.5963 61.0911 77.5039L51.8322 74.2344C52.7581 71.706 54.0441 69.1341 55.6901 66.5185L64.7946 69.7879C66.0291 67.9571 67.4179 66.1698 68.961 64.426L62.0169 58.541C64.0744 56.3614 66.3892 54.3997 68.961 52.656L76.0595 58.541C78.0141 57.1461 80.0716 55.9691 82.232 55.01L78.3742 47.1633C81.4604 45.8556 84.5467 44.8093 87.633 44.0247L91.3365 51.7406C93.8055 51.1303 96.2746 50.7379 98.7436 50.5636V42.1938C100.595 42.0194 102.241 41.9322 103.682 41.9322C105.122 41.9322 106.768 42.0194 108.62 42.1938V50.5636C111.089 50.7379 113.558 51.1303 116.027 51.7406L119.885 44.0247C122.868 44.8093 125.903 45.8556 128.989 47.1633L125.131 55.01C127.292 56.0562 129.401 57.2333 131.458 58.541L138.402 52.656C140.974 54.3997 143.289 56.3614 145.346 58.541L138.402 64.426C140.048 66.1698 141.437 67.9571 142.569 69.7879L151.827 66.5185C153.371 69.1341 154.605 71.706 155.531 74.2344L146.426 77.5039C147.044 79.5963 147.507 81.6888 147.815 83.7812H157.691ZM103.682 67.0416C96.8918 67.0416 91.0793 69.0905 86.2442 73.1882C81.409 77.2859 78.9914 82.2119 78.9914 87.9661C78.9914 93.7203 81.409 98.6463 86.2442 102.744C91.0793 106.842 96.8918 108.891 103.682 108.891C110.471 108.891 116.284 106.842 121.119 102.744C125.954 98.6463 128.372 93.7203 128.372 87.9661C128.372 82.2119 125.954 77.2859 121.119 73.1882C116.284 69.0905 110.471 67.0416 103.682 67.0416ZM68.961 39.0551L67.1093 43.1092C66.8007 43.6323 66.312 44.0247 65.6433 44.2862C64.9746 44.5478 64.3316 44.5478 63.7144 44.2862L54.9185 41.2783C53.1696 43.3708 51.0607 45.1145 48.5916 46.5094L52.2952 53.9638C52.6038 54.5741 52.6038 55.1408 52.2952 55.6639C51.9865 56.187 51.5236 56.5794 50.9064 56.8409L46.1226 58.541C45.5054 58.8026 44.8624 58.8026 44.1937 58.541C43.525 58.2795 43.0364 57.8871 42.7277 57.364L39.0242 49.9097C37.3782 50.1712 35.8865 50.302 34.5491 50.302C33.3146 50.302 31.8743 50.1712 30.2283 49.9097L26.5248 57.364C26.319 57.8871 25.8818 58.2795 25.2131 58.541C24.5444 58.8026 23.85 58.8026 23.1299 58.541L18.5005 56.8409C17.7804 56.6665 17.2917 56.296 17.0345 55.7293C16.7773 55.1626 16.7516 54.5741 16.9574 53.9638L20.6609 46.6402C18.1919 45.1581 16.0829 43.3708 14.334 41.2783L5.53814 44.417C4.92089 44.5914 4.27792 44.5696 3.60922 44.3516C2.94053 44.1336 2.45187 43.7631 2.14324 43.24L0.291481 39.1859C-0.017146 38.5756 -0.0428649 37.9871 0.214324 37.4204C0.471514 36.8537 0.960174 36.4831 1.6803 36.3088L10.3219 33.1701C10.0132 31.7751 9.85893 30.5109 9.85893 29.3775C9.85893 28.3313 10.0132 27.0671 10.3219 25.585L1.52599 22.5771C0.908736 22.3155 0.471514 21.9232 0.214324 21.4001C-0.0428649 20.8769 -0.0685838 20.3102 0.137168 19.6999L2.14324 15.6458C2.45187 15.1227 2.91481 14.7304 3.53207 14.4688C4.14932 14.2073 4.81801 14.2073 5.53814 14.4688L14.334 17.4767C15.98 15.3843 18.0375 13.6406 20.5066 12.2456L16.9574 4.79123C16.6487 4.18094 16.623 3.61423 16.8802 3.09112C17.1374 2.56801 17.626 2.17567 18.3462 1.91412L23.1299 0.214001C23.7472 -0.0475557 24.3901 -0.0475557 25.0588 0.214001C25.7275 0.475557 26.2162 0.867891 26.5248 1.391L30.074 8.84536C31.72 8.5838 33.2117 8.45302 34.5491 8.45302C35.8865 8.45302 37.3782 8.5838 39.0242 8.84536L42.5734 1.391C42.882 0.780706 43.3707 0.366575 44.0394 0.148611C44.7081 -0.069352 45.3511 -0.0475557 45.9683 0.214001L50.752 1.91412C51.4722 2.08849 51.9608 2.45902 52.218 3.02573C52.4752 3.59243 52.4495 4.13734 52.1409 4.66046L48.5916 12.1148C51.0607 13.597 53.1696 15.3843 54.9185 17.4767L63.5601 14.338C64.2802 14.1637 64.9746 14.1855 65.6433 14.4034C66.312 14.6214 66.7492 14.9919 66.955 15.515L68.961 19.5692C69.2697 20.1795 69.2954 20.768 69.0382 21.3347C68.781 21.9014 68.2924 22.2719 67.5722 22.4463L58.7763 25.585C59.085 26.9799 59.2393 28.2441 59.2393 29.3775C59.2393 30.5109 59.085 31.7751 58.7763 33.1701L67.5722 36.178C68.2924 36.4395 68.781 36.8319 69.0382 37.355C69.2954 37.8781 69.2697 38.4448 68.961 39.0551ZM34.6263 16.8228C30.5627 16.8228 27.0649 18.0434 24.1329 20.4846C21.201 22.9258 19.735 25.8901 19.735 29.3775C19.735 32.8649 21.201 35.8292 24.1329 38.2704C27.0649 40.7116 30.5627 41.9322 34.6263 41.9322C38.6899 41.9322 42.1619 40.7116 45.0424 38.2704C47.923 35.8292 49.3632 32.8649 49.3632 29.3775C49.3632 25.8901 47.923 22.9258 45.0424 20.4846C42.1619 18.0434 38.6899 16.8228 34.6263 16.8228Z" fill="white"/>
</svg>
