<svg width="158" height="134" viewBox="0 0 158 134" fill="none" xmlns="http://www.w3.org/2000/svg">
<path d="M137.487 100.499C137.546 102.73 137.082 104.948 136.122 107.024C135.162 109.099 133.726 110.99 131.897 112.586C130.068 114.182 127.884 115.449 125.473 116.315C123.062 117.181 120.472 117.627 117.856 117.628C115.24 117.629 112.65 117.183 110.238 116.319C107.826 115.454 105.641 114.187 103.812 112.592C101.982 110.997 100.544 109.107 99.5833 107.031C98.6222 104.956 98.1569 102.738 98.2148 100.508C98.3282 96.1313 100.446 91.9666 104.115 88.9053C107.784 85.8439 112.713 84.1291 117.846 84.1281C122.979 84.127 127.909 85.8396 131.58 88.8994C135.25 91.9592 137.371 96.123 137.487 100.499Z" fill="white"/>
<path d="M114.9 134C107.043 134 99.1868 132.325 92.3124 128.137L31.4255 100.5C26.5153 97.15 22.5871 95.475 18.6589 92.125C6.87433 82.075 0 67.8375 0 53.6C0 39.3625 6.87433 25.9625 18.6589 15.9125C30.4435 5.8625 46.1562 0 62.851 0C79.5458 0 95.2586 5.8625 108.025 15.9125C111.953 19.2625 113.917 21.775 117.846 25.9625L152.217 79.5625C162.038 93.8 159.092 111.387 145.343 123.112C136.505 130.65 126.684 134 114.9 134ZM62.851 8.375C49.1024 8.375 35.3537 13.4 25.5332 21.775C15.7128 30.15 9.82047 41.875 9.82047 53.6C9.82047 66.1625 15.7128 77.05 25.5332 85.425C28.4794 87.9375 31.4255 89.6125 36.3358 92.125L98.2047 120.6C104.097 123.95 109.989 124.787 115.882 124.787C124.72 124.787 132.576 122.275 138.469 116.412C149.271 107.2 151.235 93.8 143.379 82.9125L109.007 29.3125C106.061 25.9625 104.097 23.45 101.151 20.9375C90.3484 13.4 77.5817 8.375 62.851 8.375Z" fill="white"/>
<path d="M108.025 58.625V50.25L94.2762 46.0625C93.2942 44.3875 93.2942 43.55 92.3121 41.875L98.2044 30.9875L91.3301 25.125L78.5635 30.15C76.5994 29.3125 75.6173 29.3125 73.6532 28.475L68.743 16.75H58.9225L54.0123 28.475C52.0482 29.3125 51.0661 29.3125 49.102 30.15L36.3354 25.125L29.4611 30.9875L35.3534 41.875C34.3713 43.55 34.3713 44.3875 33.3893 46.0625L19.6406 50.25V58.625L33.3893 62.8125C34.3713 64.4875 34.3713 65.325 35.3534 67L29.4611 77.8875L36.3354 83.75L49.102 78.725C51.0661 79.5625 52.0482 80.4 54.0123 80.4L58.9225 92.125H68.743L73.6532 80.4C75.6173 79.5625 76.5994 79.5625 78.5635 78.725L91.3301 83.75L98.2044 77.8875L92.3121 67C93.2942 65.325 94.2762 64.4875 94.2762 62.8125L108.025 58.625ZM63.8328 67C55.9764 67 49.102 61.1375 49.102 54.4375C49.102 47.7375 55.9764 41.875 63.8328 41.875C71.6891 41.875 78.5635 47.7375 78.5635 54.4375C78.5635 61.1375 71.6891 67 63.8328 67Z" fill="white"/>
</svg>
