<svg width="124" height="134" viewBox="0 0 124 134" fill="none" xmlns="http://www.w3.org/2000/svg">
<path d="M122.344 25.723C121.792 25.1444 121.115 24.6765 120.356 24.3488C119.597 24.0211 118.773 23.8404 117.935 23.8183C104.911 23.506 88.4306 10.7351 77.5347 5.72351C70.8042 2.63746 66.3607 0.602645 63.0238 0.0666203C62.3463 -0.0239181 61.6578 -0.0221645 60.9808 0.0718244C57.644 0.607849 53.2005 2.64266 46.4756 5.72871C35.5797 10.7351 19.0997 23.506 6.07563 23.8183C5.2367 23.8416 4.41194 24.0227 3.65247 24.3503C2.893 24.678 2.21501 25.1452 1.66052 25.723C0.511183 26.9154 -0.0818143 28.4739 0.00910238 30.0632C2.80686 82.2242 23.2083 114.505 59.0059 133.266C59.9366 133.75 60.9695 134 61.9966 134C63.0238 134 64.0567 133.75 64.993 133.266C100.791 114.505 121.186 82.2242 123.99 30.0632C124.086 28.4742 123.495 26.9145 122.344 25.723ZM93.8785 46.2376L63.6708 87.116C62.5868 88.5836 60.8843 89.5568 59.1989 89.5568C57.5078 89.5568 55.6293 88.7085 54.4433 87.6208L33.1508 68.0898C32.4557 67.4499 32.0654 66.5835 32.0654 65.6802C32.0654 64.777 32.4557 63.9106 33.1508 63.2707L38.4115 58.4361C39.1107 57.8011 40.055 57.4449 41.039 57.4449C42.0231 57.4449 42.9673 57.8011 43.6665 58.4361L57.5134 71.1342L81.5696 38.5719C82.1262 37.8268 82.9816 37.3139 83.9492 37.1452C84.9168 36.9765 85.9178 37.1658 86.7338 37.6716L92.8911 41.5019C93.7046 42.0115 94.265 42.7956 94.4501 43.683C94.6351 44.5703 94.4296 45.4888 93.8785 46.2376Z" fill="white"/>
</svg>
