<svg width="158" height="152" viewBox="0 0 158 152" fill="none" xmlns="http://www.w3.org/2000/svg">
<g clip-path="url(#clip0)">
<path d="M66.1844 130.888H4.74C3.54141 130.892 2.38607 130.458 1.50659 129.674C0.627101 128.891 0.0887805 127.816 0 126.666L0 37.9996C0 35.4831 2.12422 33.4396 4.74 33.4396H66.1844C68.8002 33.4396 70.9244 35.4831 70.9244 37.9996V126.666C70.8357 127.816 70.2973 128.891 69.4179 129.674C68.5384 130.458 67.383 130.892 66.1844 130.888ZM17.9067 50.4974V58.9418H53.0178V50.4974H17.9067ZM31.0733 105.048V114.168H39.8511V105.048H31.0733Z" fill="white"/>
<path d="M88.2169 104.753H79.4391V25.3329H26.7725V16.8884H83.828C84.992 16.8884 86.1084 17.3333 86.9314 18.1251C87.7545 18.9169 88.2169 19.9908 88.2169 21.1107V104.753Z" fill="white"/>
<path d="M105.684 84.4444H96.9067V8.44444H48.6289V0H101.296C102.46 0 103.576 0.44484 104.399 1.23666C105.222 2.02848 105.684 3.10242 105.684 4.22222V84.4444Z" fill="white"/>
<path d="M135.137 109.394C135.377 107.494 135.556 105.594 135.556 103.637C135.556 101.679 135.377 99.7792 135.137 97.8792H145.252C145.73 99.7216 146.03 101.65 146.03 103.637C146.03 105.623 145.73 107.552 145.252 109.394H135.137ZM129.841 125.4C131.636 122.205 133.013 118.75 133.97 115.152H142.798C139.899 119.955 135.299 123.593 129.841 125.4ZM129.093 109.394H115.088C114.789 107.494 114.609 105.594 114.609 103.637C114.609 101.679 114.789 99.7504 115.088 97.8792H129.093C129.362 99.7504 129.571 101.679 129.571 103.637C129.571 105.594 129.362 107.494 129.093 109.394ZM122.09 126.552C119.607 123.097 117.602 119.269 116.375 115.152H127.806C126.579 119.269 124.574 123.097 122.09 126.552ZM110.121 92.1216H101.383C104.252 87.306 108.848 83.6622 114.31 81.8731C112.515 85.0686 111.168 88.5231 110.121 92.1216ZM101.383 115.152H110.121C111.168 118.75 112.515 122.205 114.31 125.4C108.86 123.592 104.27 119.953 101.383 115.152ZM98.9289 109.394C98.4501 107.552 98.1509 105.623 98.1509 103.637C98.1509 101.65 98.4501 99.7216 98.9289 97.8792H109.043C108.804 99.7792 108.624 101.679 108.624 103.637C108.624 105.594 108.804 107.494 109.043 109.394H98.9289ZM122.09 80.6928C124.574 84.1474 126.579 88.0049 127.806 92.1216H116.375C117.602 88.0049 119.607 84.1474 122.09 80.6928ZM142.798 92.1216H133.97C133.034 88.5561 131.647 85.1143 129.841 81.8731C135.347 83.6868 139.925 87.3428 142.798 92.1216ZM122.09 74.8489C105.542 74.8489 92.166 87.8034 92.166 103.637C92.166 111.272 95.3187 118.594 100.931 123.993C103.709 126.666 107.008 128.787 110.639 130.233C114.269 131.68 118.161 132.425 122.09 132.425C130.027 132.425 137.638 129.392 143.25 123.993C148.862 118.594 152.015 111.272 152.015 103.637C152.015 99.8563 151.24 96.1128 149.737 92.6201C148.233 89.1274 146.029 85.9539 143.25 83.2807C140.471 80.6075 137.172 78.487 133.542 77.0402C129.911 75.5935 126.02 74.8489 122.09 74.8489Z" fill="white"/>
</g>
<defs>
<clipPath id="clip0">
<rect width="158" height="152" fill="white"/>
</clipPath>
</defs>
</svg>
