<svg width="136" height="124" viewBox="0 0 136 124" fill="none" xmlns="http://www.w3.org/2000/svg">
<path opacity="0.3" d="M60.7573 76.9642C57.5779 81.4952 56.0397 87.091 56.4241 92.7282C56.8085 98.3654 59.0898 103.667 62.8506 107.664C66.6114 111.66 71.6005 114.084 76.9052 114.493C82.2099 114.901 87.4758 113.267 91.7395 109.888C74.6108 109.888 60.7573 95.1665 60.7573 76.9642ZM105.018 39.3369C100.016 39.3369 95.4574 41.0772 91.7395 44.0403C108.868 44.0874 122.722 58.8091 122.722 76.9642C125.184 73.4694 126.683 69.3153 127.05 64.9668C127.418 60.6184 126.639 56.2471 124.802 52.342C122.964 48.437 120.141 45.1523 116.647 42.8555C113.153 40.5587 109.126 39.3404 105.018 39.3369Z" fill="white"/>
<path opacity="0.3" d="M91.7398 53.4471C89.0841 53.4471 86.5613 53.9645 84.2155 54.8582C83.3746 57.351 82.8877 60.0319 82.8877 62.854C82.8877 75.8354 92.802 86.3711 105.018 86.3711C107.673 86.3711 110.196 85.8537 112.542 84.96C113.383 82.4672 113.87 79.7863 113.87 76.9642C113.87 63.9828 103.956 53.4471 91.7398 53.4471Z" fill="white"/>
<path opacity="0.3" d="M74.0356 62.8547C70.8562 67.3857 69.3181 72.9815 69.7025 78.6187C70.0868 84.2559 72.3681 89.5576 76.1289 93.5541C79.8898 97.5507 84.8788 99.9749 90.1835 100.383C95.4883 100.792 100.754 99.1573 105.018 95.7787C87.8891 95.7316 74.0356 81.0099 74.0356 62.8547Z" fill="white"/>
<path d="M105.018 29.9316C93.0233 29.9316 82.6664 37.1749 77.488 47.7106C71.8056 50.8566 67.1704 55.7823 64.2099 61.8208C59.1695 64.604 54.9442 68.8034 51.9942 73.9618C49.0443 79.1202 47.4827 85.0398 47.4795 91.0761C47.4795 109.278 61.333 124 78.4617 124C90.4562 124 100.813 116.757 105.992 106.221C111.674 103.075 116.309 98.1493 119.27 92.1108C124.31 89.3276 128.535 85.1282 131.485 79.9698C134.435 74.8114 135.997 68.8918 136 62.8556C136 44.6533 122.147 29.9316 105.018 29.9316ZM78.4617 114.593C74.3532 114.59 70.3267 113.371 66.8327 111.075C63.3387 108.778 60.515 105.493 58.6777 101.588C56.8403 97.683 56.0617 93.3117 56.4291 88.9632C56.7964 84.6147 58.2951 80.4607 60.7576 76.9658C60.7576 95.168 74.6111 109.89 91.7398 109.89C88.0219 112.853 83.4189 114.593 78.4617 114.593ZM91.7398 100.483C87.6313 100.479 83.6048 99.2611 80.1108 96.9643C76.6168 94.6675 73.7931 91.3828 71.9558 87.4778C70.1184 83.5727 69.3398 79.2014 69.7071 74.853C70.0745 70.5045 71.5732 66.3504 74.0357 62.8556C74.0357 81.0107 87.8891 95.7324 105.018 95.7795C101.3 98.7426 96.6969 100.483 91.7398 100.483ZM112.542 84.9616C110.196 85.8553 107.673 86.3726 105.018 86.3726C92.802 86.3726 82.8877 75.837 82.8877 62.8556C82.8877 60.0335 83.3746 57.3526 84.2155 54.8597C86.5613 53.9661 89.0842 53.4487 91.7398 53.4487C103.956 53.4487 113.87 63.9844 113.87 76.9658C113.87 79.7879 113.383 82.4688 112.542 84.9616ZM122.722 76.9658C122.722 58.8106 108.869 44.0889 91.7398 44.0419C96.0035 40.6633 101.269 39.0287 106.574 39.4372C111.879 39.8456 116.868 42.2699 120.629 46.2664C124.39 50.2629 126.671 55.5647 127.055 61.2018C127.44 66.839 125.901 72.4349 122.722 76.9658Z" fill="white"/>
<path d="M21.7282 10.262C18.5268 10.262 15.4565 11.6134 13.1927 14.0191C10.929 16.4247 9.65723 19.6874 9.65723 23.0895V58.9962C9.65723 61.613 10.3911 64.04 11.6562 66.0718L32.819 43.5827C34.3584 41.9471 36.446 41.0283 38.6228 41.0283C40.7995 41.0283 42.8872 41.9471 44.4265 43.5827L46.0682 45.3272L56.1498 34.6188C57.6213 33.0525 59.4416 31.907 61.4415 31.2889C63.4414 30.6708 65.5559 30.6002 67.5883 31.0836V23.0895C67.5883 19.6874 66.3165 16.4247 64.0528 14.0191C61.7891 11.6134 58.7187 10.262 55.5173 10.262H21.7282ZM55.5173 28.2256C55.5378 28.9141 55.4279 29.5999 55.1941 30.2424C54.9603 30.8848 54.6074 31.4708 54.1563 31.9655C53.7053 32.4602 53.1653 32.8536 52.5684 33.1222C51.9715 33.3908 51.3299 33.5293 50.6817 33.5293C50.0335 33.5293 49.3919 33.3908 48.795 33.1222C48.1981 32.8536 47.6581 32.4602 47.2071 31.9655C46.756 31.4708 46.4031 30.8848 46.1693 30.2424C45.9355 29.5999 45.8256 28.9141 45.846 28.2256C45.8857 26.8908 46.4126 25.6249 47.3151 24.6956C48.2177 23.7663 49.425 23.2467 50.6817 23.2467C51.9384 23.2467 53.1457 23.7663 54.0482 24.6956C54.9508 25.6249 55.4776 26.8908 55.5173 28.2256ZM64.0346 35.9529C62.3425 36.1561 60.7658 36.9649 59.5635 38.2464L38.869 60.2482C37.1513 62.0742 35.9329 64.3621 35.3443 66.8672L33.8765 73.0757C33.7527 73.6002 33.759 74.1499 33.8947 74.6712C34.0304 75.1924 34.2909 75.6674 34.6508 76.0498C35.0106 76.4322 35.4576 76.709 35.9481 76.8532C36.4385 76.9974 36.9558 77.0041 37.4495 76.8726L43.2918 75.3179C45.6491 74.6924 47.8021 73.3977 49.5205 71.5723L70.2246 49.5706C71.3315 48.3966 72.0671 46.8857 72.3294 45.2474C72.5917 43.6091 72.3676 41.9247 71.6883 40.4278C71.0089 38.931 69.908 37.6959 68.5383 36.894C67.1685 36.0922 65.5979 35.7632 64.0443 35.9529H64.0346ZM42.6593 48.9548L35.4505 56.6154C33.1122 59.0992 31.4532 62.2119 30.6511 65.6203L29.1929 71.8237H21.7282C19.2657 71.8237 16.9771 71.0387 15.0699 69.6995L36.2327 47.2052C36.5466 46.8716 36.9192 46.607 37.3293 46.4265C37.7394 46.246 38.1789 46.153 38.6228 46.153C39.0666 46.153 39.5062 46.246 39.9163 46.4265C40.3264 46.607 40.699 46.8716 41.0128 47.2052L42.6545 48.9497L42.6593 48.9548Z" fill="white"/>
</svg>
