<svg width="144" height="124" viewBox="0 0 144 124" fill="none" xmlns="http://www.w3.org/2000/svg">
<path d="M57.4615 10.4625C55.6731 10.4625 54.0721 9.94583 52.6587 8.9125C51.2452 7.87917 50.5385 6.65208 50.5385 5.23125C50.5385 3.81042 51.2452 2.58333 52.6587 1.55C54.0721 0.516667 55.6731 0 57.4615 0C59.3077 0 60.9808 0.516667 62.4808 1.55C63.9808 2.58333 64.7308 3.81042 64.7308 5.23125C64.7308 6.65208 63.9808 7.87917 62.4808 8.9125C60.9808 9.94583 59.3077 10.4625 57.4615 10.4625ZM82.9038 10.4625C81.0577 10.4625 79.4135 9.94583 77.9712 8.9125C76.5288 7.87917 75.8077 6.65208 75.8077 5.23125C75.8077 3.81042 76.5288 2.58333 77.9712 1.55C79.4135 0.516667 81.0577 0 82.9038 0C84.75 0 86.3942 0.516667 87.8365 1.55C89.2788 2.58333 90 3.81042 90 5.23125C90 6.65208 89.2788 7.87917 87.8365 8.9125C86.3942 9.94583 84.75 10.4625 82.9038 10.4625ZM137.163 115.087H131.192V94.0333C131.192 95.8847 130.038 97.467 127.731 98.7802C125.423 100.093 122.596 100.75 119.25 100.75C115.962 100.75 113.163 100.093 110.856 98.7802C108.548 97.467 107.394 95.8847 107.394 94.0333C107.394 95.8847 106.226 97.467 103.889 98.7802C101.553 100.093 98.7404 100.75 95.4519 100.75C92.1635 100.75 89.351 100.093 87.0144 98.7802C84.6779 97.467 83.5096 95.8847 83.5096 94.0333C83.5096 95.8847 82.3413 97.467 80.0048 98.7802C77.6683 100.093 74.8558 100.75 71.5673 100.75C68.2788 100.75 65.4663 100.093 63.1298 98.7802C60.7933 97.467 59.625 95.8847 59.625 94.0333C59.625 95.8847 58.4567 97.467 56.1202 98.7802C53.7837 100.093 50.9712 100.75 47.6827 100.75C44.3942 100.75 41.5962 100.093 39.2885 98.7802C36.9808 97.467 35.8269 95.8847 35.8269 94.0333C35.8269 95.8847 34.6587 97.467 32.3221 98.7802C29.9856 100.093 27.1731 100.75 23.8846 100.75C20.5962 100.75 17.7837 100.093 15.4471 98.7802C13.1106 97.467 11.9423 95.8847 11.9423 94.0333V115.087H5.97115C4.29808 115.087 2.88462 115.518 1.73077 116.379C0.576923 117.24 0 118.295 0 119.544C0 120.792 0.576923 121.847 1.73077 122.708C2.88462 123.569 4.29808 124 5.97115 124H137.163C138.837 124 140.25 123.569 141.404 122.708C142.558 121.847 143.135 120.792 143.135 119.544C143.135 118.295 142.558 117.24 141.404 116.379C140.25 115.518 138.837 115.087 137.163 115.087ZM107.394 85.7021C107.394 87.5535 108.548 89.1358 110.856 90.449C113.163 91.7622 115.962 92.4187 119.25 92.4187C122.596 92.4187 125.423 91.7729 127.731 90.4812C130.038 89.1896 131.192 87.5965 131.192 85.7021V81.7625C131.192 79.9111 130.385 78.3288 128.769 77.0156C127.154 75.7024 125.163 75.0458 122.798 75.0458H20.5096C18.1442 75.0458 16.125 75.7024 14.4519 77.0156C12.7788 78.3288 11.9423 79.9111 11.9423 81.7625V85.7021C11.9423 87.5535 13.1106 89.1358 15.4471 90.449C17.7837 91.7622 20.5962 92.4187 23.8846 92.4187C27.1731 92.4187 29.9856 91.7622 32.3221 90.449C34.6587 89.1358 35.8269 87.5535 35.8269 85.7021C35.8269 87.5535 36.9808 89.1358 39.2885 90.449C41.5962 91.7622 44.3942 92.4187 47.6827 92.4187C50.9712 92.4187 53.7837 91.7622 56.1202 90.449C58.4567 89.1358 59.625 87.5535 59.625 85.7021C59.625 87.5535 60.7933 89.1358 63.1298 90.449C65.4663 91.7622 68.2788 92.4187 71.5673 92.4187C74.8558 92.4187 77.6683 91.7622 80.0048 90.449C82.3413 89.1358 83.5096 87.5535 83.5096 85.7021C83.5096 87.5535 84.6779 89.1358 87.0144 90.449C89.351 91.7622 92.1635 92.4187 95.4519 92.4187C98.7404 92.4187 101.553 91.7622 103.889 90.449C106.226 89.1358 107.394 87.5535 107.394 85.7021ZM107.394 70.5896V48.8896C107.394 50.741 106.226 52.334 103.889 53.6687C101.553 55.0035 98.7404 55.6708 95.4519 55.6708C92.1635 55.6708 89.351 55.0035 87.0144 53.6687C84.6779 52.334 83.5096 50.741 83.5096 48.8896C83.5096 50.741 82.3413 52.334 80.0048 53.6687C77.6683 55.0035 74.8558 55.6708 71.5673 55.6708C68.2788 55.6708 65.4663 55.0035 63.1298 53.6687C60.7933 52.334 59.625 50.741 59.625 48.8896C59.625 50.741 58.4567 52.334 56.1202 53.6687C53.7837 55.0035 50.9712 55.6708 47.6827 55.6708C44.3942 55.6708 41.5962 55.0142 39.2885 53.701C36.9808 52.3878 35.8269 50.784 35.8269 48.8896V70.5896H107.394ZM72.6923 30.5479H92.9423L86.1923 20.0854V16.3396C86.1923 15.6076 85.8462 15.2417 85.1538 15.2417H80.3942C79.7596 15.2417 79.4423 15.6076 79.4423 16.3396V20.0854L72.6923 30.5479ZM97.7885 30.5479H100.731C102.692 30.5479 104.293 31.183 105.534 32.4531C106.774 33.7233 107.394 35.3056 107.394 37.2V40.5583C107.394 42.4097 106.226 44.0028 103.889 45.3375C101.553 46.6722 98.7404 47.3396 95.4519 47.3396C92.1635 47.3396 89.351 46.6722 87.0144 45.3375C84.6779 44.0028 83.5096 42.4097 83.5096 40.5583C83.5096 42.4097 82.3413 44.0028 80.0048 45.3375C77.6683 46.6722 74.8558 47.3396 71.5673 47.3396C68.2788 47.3396 65.4663 46.6722 63.1298 45.3375C60.7933 44.0028 59.625 42.4097 59.625 40.5583C59.625 42.4097 58.4567 44.0028 56.1202 45.3375C53.7837 46.6722 50.9712 47.3396 47.6827 47.3396C44.3942 47.3396 41.5962 46.683 39.2885 45.3698C36.9808 44.0566 35.8269 42.4528 35.8269 40.5583V37.2C35.8269 35.3486 36.5192 33.7771 37.9038 32.4854C39.2885 31.1937 40.9615 30.5479 42.9231 30.5479H51.75V22.2812H47.8558V14.9187C47.8558 14.4451 48.2452 13.9069 49.024 13.3042C49.8029 12.7014 50.4808 12.4 51.0577 12.4H64.125C64.7019 12.4 65.3654 12.7014 66.1154 13.3042C66.8654 13.9069 67.2404 14.4451 67.2404 14.9187V22.2812H63.4327V30.5479H67.8462C68.8846 28.5674 71.2788 24.8215 75.0288 19.3104V14.8542C75.0288 14.3806 75.4471 13.8531 76.2837 13.2719C77.1202 12.6906 77.8846 12.4 78.5769 12.4H87.0577C87.75 12.4 88.5144 12.6906 89.351 13.2719C90.1875 13.8531 90.6058 14.3806 90.6058 14.8542V19.3104C94.3558 24.8215 96.75 28.5674 97.7885 30.5479Z" fill="white"/>
</svg>
