<svg width="132" height="134" viewBox="0 0 132 134" fill="none" xmlns="http://www.w3.org/2000/svg">
<path d="M121 93.2022L92.7245 100.36L66.2145 94.799L39.072 100.36L11 93.1687V89.3329C11 84.8906 12.7384 80.6301 15.8327 77.4889C18.9271 74.3477 23.1239 72.5829 27.5 72.5829H104.5C108.876 72.5829 113.073 74.3477 116.167 77.4889C119.262 80.6301 121 84.8906 121 89.3329V93.2022ZM121 104.721V128.416H11V104.687L38.8135 111.806L66.1925 106.2L92.917 111.806L121 104.721ZM49.5 55.8329H82.5V66.9996H49.5V55.8329ZM66 52.4829C61.6239 52.4829 57.4271 50.7182 54.3327 47.577C51.2384 44.4358 49.5 40.1753 49.5 35.7329C49.5 29.5634 55 19.5134 66 5.58295C77 19.5134 82.5 29.5634 82.5 35.7329C82.5 40.1753 80.7616 44.4358 77.6673 47.577C74.5729 50.7182 70.3761 52.4829 66 52.4829Z" fill="white"/>
</svg>
