<svg width="135" height="122" viewBox="0 0 135 122" fill="none" xmlns="http://www.w3.org/2000/svg">
<path d="M71.1238 31.5117H77.7156C77.932 31.5122 78.1464 31.4742 78.3466 31.3997C78.5467 31.3252 78.7285 31.2157 78.8818 31.0776C79.035 30.9395 79.1566 30.7754 79.2395 30.5947C79.3225 30.4141 79.3652 30.2204 79.3652 30.0249V24.0678C79.3652 23.6725 79.1914 23.2933 78.882 23.0138C78.5727 22.7342 78.1531 22.5771 77.7156 22.5771H71.1238C70.9074 22.5771 70.6931 22.6157 70.4932 22.6907C70.2933 22.7657 70.1118 22.8755 69.9589 23.014C69.8061 23.1525 69.685 23.3168 69.6026 23.4977C69.5201 23.6785 69.478 23.8723 69.4785 24.0678V30.0249C69.4785 30.8465 70.2147 31.5117 71.1238 31.5117Z" fill="white"/>
<path d="M84.9656 31.5117H91.5574C91.7738 31.5122 91.9882 31.4742 92.1884 31.3997C92.3885 31.3252 92.5703 31.2157 92.7236 31.0776C92.8768 30.9395 92.9984 30.7754 93.0813 30.5947C93.1642 30.4141 93.2069 30.2204 93.2069 30.0249V24.0678C93.2069 23.6725 93.0332 23.2933 92.7238 23.0138C92.4145 22.7342 91.9949 22.5771 91.5574 22.5771H84.9656C84.7492 22.5771 84.5349 22.6157 84.335 22.6907C84.1351 22.7657 83.9536 22.8755 83.8007 23.014C83.6479 23.1525 83.5268 23.3168 83.4443 23.4977C83.3619 23.6785 83.3198 23.8723 83.3203 24.0678V30.0249C83.3203 30.8465 84.0586 31.5117 84.9656 31.5117Z" fill="white"/>
<path d="M98.8094 31.5117H105.401C105.618 31.5122 105.832 31.4742 106.032 31.3997C106.232 31.3252 106.414 31.2157 106.567 31.0776C106.721 30.9395 106.842 30.7754 106.925 30.5947C107.008 30.4141 107.051 30.2204 107.051 30.0249V24.0678C107.051 23.6725 106.877 23.2933 106.568 23.0138C106.258 22.7342 105.839 22.5771 105.401 22.5771H98.8094C98.593 22.5771 98.3787 22.6157 98.1788 22.6907C97.9789 22.7657 97.7973 22.8755 97.6445 23.014C97.4916 23.1525 97.3705 23.3168 97.2881 23.4977C97.2057 23.6785 97.1635 23.8723 97.1641 24.0678V30.0249C97.1641 30.8465 97.9002 31.5117 98.8094 31.5117Z" fill="white"/>
<path d="M112.651 31.5117H119.243C119.459 31.5122 119.674 31.4742 119.874 31.3997C120.074 31.3252 120.256 31.2157 120.409 31.0776C120.562 30.9395 120.684 30.7754 120.767 30.5947C120.85 30.4141 120.892 30.2204 120.892 30.0249V24.0678C120.892 23.6725 120.719 23.2933 120.409 23.0138C120.1 22.7342 119.68 22.5771 119.243 22.5771H112.651C112.435 22.5771 112.22 22.6157 112.021 22.6907C111.821 22.7657 111.639 22.8755 111.486 23.014C111.333 23.1525 111.212 23.3168 111.13 23.4977C111.047 23.6785 111.005 23.8723 111.006 24.0678V30.0249C111.006 30.8465 111.744 31.5117 112.651 31.5117Z" fill="white"/>
<path d="M77.7156 91.3811H71.1238C70.9074 91.3811 70.6931 91.4197 70.4932 91.4947C70.2933 91.5696 70.1118 91.6795 69.9589 91.8179C69.8061 91.9564 69.685 92.1208 69.6026 92.3016C69.5201 92.4825 69.478 92.6762 69.4785 92.8718V98.8288C69.4785 99.6504 70.2168 100.316 71.1238 100.316H77.7156C77.932 100.316 78.1464 100.278 78.3466 100.204C78.5467 100.129 78.7285 100.02 78.8818 99.8815C79.035 99.7434 79.1566 99.5793 79.2395 99.3987C79.3224 99.2181 79.3651 99.0244 79.3651 98.8288V92.8718C79.3654 92.676 79.323 92.482 79.2402 92.301C79.1574 92.1201 79.0359 91.9556 78.8826 91.8172C78.7294 91.6787 78.5475 91.5689 78.3472 91.4941C78.1469 91.4192 77.9323 91.3809 77.7156 91.3811Z" fill="white"/>
<path d="M84.9656 100.316H91.5574C91.7738 100.316 91.9882 100.278 92.1883 100.204C92.3885 100.129 92.5703 100.02 92.7236 99.8815C92.8768 99.7434 92.9983 99.5793 93.0813 99.3987C93.1642 99.2181 93.2069 99.0244 93.2069 98.8288V92.8718C93.2072 92.676 93.1647 92.482 93.0819 92.301C92.9992 92.1201 92.8777 91.9556 92.7244 91.8172C92.5712 91.6787 92.3892 91.5689 92.189 91.4941C91.9887 91.4192 91.7741 91.3809 91.5574 91.3811H84.9656C84.7492 91.3811 84.5349 91.4197 84.335 91.4947C84.1351 91.5696 83.9536 91.6795 83.8007 91.8179C83.6479 91.9564 83.5268 92.1208 83.4443 92.3016C83.3619 92.4825 83.3198 92.6762 83.3203 92.8718V98.8288C83.3203 99.6485 84.0586 100.316 84.9656 100.316Z" fill="white"/>
<path d="M98.8094 100.316H105.401C105.618 100.316 105.832 100.278 106.032 100.204C106.232 100.129 106.414 100.02 106.567 99.8815C106.721 99.7434 106.842 99.5793 106.925 99.3987C107.008 99.2181 107.051 99.0244 107.051 98.8288V92.8718C107.051 92.676 107.009 92.482 106.926 92.301C106.843 92.1201 106.721 91.9556 106.568 91.8172C106.415 91.6787 106.233 91.5689 106.033 91.4941C105.833 91.4192 105.618 91.3809 105.401 91.3811H98.8094C98.593 91.3811 98.3787 91.4197 98.1788 91.4947C97.9789 91.5696 97.7973 91.6795 97.6445 91.8179C97.4916 91.9564 97.3705 92.1208 97.2881 92.3016C97.2057 92.4825 97.1635 92.6762 97.1641 92.8718V98.8288C97.1641 99.6485 97.9002 100.316 98.8094 100.316Z" fill="white"/>
<path d="M112.651 100.316H119.243C119.459 100.316 119.674 100.278 119.874 100.204C120.074 100.129 120.256 100.02 120.409 99.8815C120.562 99.7434 120.684 99.5793 120.767 99.3987C120.85 99.2181 120.893 99.0244 120.892 98.8288V92.8718C120.893 92.676 120.85 92.482 120.768 92.301C120.685 92.1201 120.563 91.9556 120.41 91.8172C120.257 91.6787 120.075 91.5689 119.875 91.4941C119.674 91.4192 119.46 91.3809 119.243 91.3811H112.651C112.435 91.3811 112.22 91.4197 112.021 91.4947C111.821 91.5696 111.639 91.6795 111.486 91.8179C111.333 91.9564 111.212 92.1208 111.13 92.3016C111.047 92.4825 111.005 92.6762 111.006 92.8718V98.8288C111.006 99.6485 111.744 100.316 112.651 100.316Z" fill="white"/>
<path d="M84.9656 65.9138H91.5574C91.7738 65.9143 91.9882 65.8762 92.1883 65.8017C92.3885 65.7272 92.5703 65.6178 92.7236 65.4797C92.8768 65.3416 92.9983 65.1775 93.0813 64.9968C93.1642 64.8162 93.2069 64.6225 93.2069 64.427V58.4699C93.2072 58.2741 93.1647 58.0801 93.0819 57.8992C92.9992 57.7182 92.8777 57.5538 92.7244 57.4153C92.5712 57.2768 92.3892 57.167 92.189 57.0922C91.9887 57.0174 91.7741 56.979 91.5574 56.9792H84.9656C84.7492 56.9792 84.5349 57.0178 84.335 57.0928C84.1351 57.1678 83.9536 57.2776 83.8007 57.4161C83.6479 57.5546 83.5268 57.7189 83.4443 57.8998C83.3619 58.0806 83.3198 58.2744 83.3203 58.4699V64.427C83.3203 65.2486 84.0586 65.9138 84.9656 65.9138Z" fill="white"/>
<path d="M98.8094 65.9138H105.401C105.618 65.9143 105.832 65.8762 106.032 65.8017C106.232 65.7272 106.414 65.6178 106.567 65.4797C106.721 65.3416 106.842 65.1775 106.925 64.9968C107.008 64.8162 107.051 64.6225 107.051 64.427V58.4699C107.051 58.2741 107.009 58.0801 106.926 57.8992C106.843 57.7182 106.721 57.5538 106.568 57.4153C106.415 57.2768 106.233 57.167 106.033 57.0922C105.833 57.0174 105.618 56.979 105.401 56.9792H98.8094C98.593 56.9792 98.3787 57.0178 98.1788 57.0928C97.9789 57.1678 97.7973 57.2776 97.6445 57.4161C97.4916 57.5546 97.3705 57.7189 97.2881 57.8998C97.2057 58.0806 97.1635 58.2744 97.1641 58.4699V64.427C97.1641 65.2486 97.9002 65.9138 98.8094 65.9138Z" fill="white"/>
<path d="M71.1238 54.4482H77.7156C78.629 54.4482 79.3652 53.781 79.3652 52.9575V47.0024C79.3652 46.607 79.1914 46.2279 78.882 45.9483C78.5727 45.6688 78.1531 45.5117 77.7156 45.5117H71.1238C70.9074 45.5117 70.6931 45.5503 70.4932 45.6253C70.2933 45.7002 70.1118 45.8101 69.9589 45.9486C69.8061 46.087 69.685 46.2514 69.6026 46.4322C69.5201 46.6131 69.478 46.8068 69.4785 47.0024V52.9575C69.478 53.1531 69.5201 53.3469 69.6026 53.5277C69.685 53.7085 69.8061 53.8729 69.9589 54.0114C70.1118 54.1498 70.2933 54.2597 70.4932 54.3347C70.6931 54.4096 70.9074 54.4482 71.1238 54.4482Z" fill="white"/>
<path d="M84.9656 54.4482H91.5574C92.4708 54.4482 93.2069 53.781 93.2069 52.9575V47.0024C93.2069 46.607 93.0332 46.2279 92.7238 45.9483C92.4145 45.6688 91.9949 45.5117 91.5574 45.5117H84.9656C84.7492 45.5117 84.5349 45.5503 84.335 45.6253C84.1351 45.7002 83.9536 45.8101 83.8007 45.9486C83.6479 46.087 83.5268 46.2514 83.4443 46.4322C83.3619 46.6131 83.3198 46.8068 83.3203 47.0024V52.9575C83.3203 53.7829 84.0586 54.4482 84.9656 54.4482Z" fill="white"/>
<path d="M98.8094 54.4482H105.401C106.315 54.4482 107.051 53.781 107.051 52.9575V47.0024C107.051 46.607 106.877 46.2279 106.568 45.9483C106.258 45.6688 105.839 45.5117 105.401 45.5117H98.8094C98.593 45.5117 98.3787 45.5503 98.1788 45.6253C97.9789 45.7002 97.7973 45.8101 97.6445 45.9486C97.4916 46.087 97.3705 46.2514 97.2881 46.4322C97.2057 46.6131 97.1635 46.8068 97.1641 47.0024V52.9575C97.1635 53.1531 97.2057 53.3469 97.2881 53.5277C97.3705 53.7085 97.4916 53.8729 97.6445 54.0114C97.7973 54.1498 97.9789 54.2597 98.1788 54.3347C98.3787 54.4096 98.593 54.4482 98.8094 54.4482Z" fill="white"/>
<path d="M112.651 54.4482H119.243C120.156 54.4482 120.892 53.781 120.892 52.9575V47.0024C120.892 46.607 120.719 46.2279 120.409 45.9483C120.1 45.6688 119.68 45.5117 119.243 45.5117H112.651C112.435 45.5117 112.22 45.5503 112.021 45.6253C111.821 45.7002 111.639 45.8101 111.486 45.9486C111.333 46.087 111.212 46.2514 111.13 46.4322C111.047 46.6131 111.005 46.8068 111.006 47.0024V52.9575C111.006 53.7829 111.744 54.4482 112.651 54.4482Z" fill="white"/>
<path d="M71.1238 42.9817H77.7156C78.629 42.9817 79.3652 42.3145 79.3652 41.491V35.534C79.3652 34.7143 78.6269 34.0471 77.7156 34.0471H71.1238C70.6875 34.0471 70.269 34.2038 69.9604 34.4826C69.6519 34.7615 69.4785 35.1397 69.4785 35.534V41.491C69.478 41.6866 69.5201 41.8804 69.6026 42.0612C69.685 42.242 69.8061 42.4064 69.9589 42.5449C70.1118 42.6833 70.2933 42.7932 70.4932 42.8682C70.6931 42.9431 70.9074 42.9817 71.1238 42.9817Z" fill="white"/>
<path d="M84.9656 42.9817H91.5574C92.4708 42.9817 93.207 42.3145 93.207 41.491V35.534C93.207 34.7143 92.4687 34.0471 91.5574 34.0471H84.9656C84.5293 34.0471 84.1108 34.2038 83.8022 34.4826C83.4937 34.7615 83.3203 35.1397 83.3203 35.534V41.491C83.3203 42.3145 84.0586 42.9817 84.9656 42.9817Z" fill="white"/>
<path d="M98.8094 42.9817H105.401C106.315 42.9817 107.051 42.3145 107.051 41.491V35.534C107.051 34.7143 106.312 34.0471 105.401 34.0471H98.8094C98.373 34.0471 97.9545 34.2038 97.646 34.4826C97.3374 34.7615 97.1641 35.1397 97.1641 35.534V41.491C97.1635 41.6866 97.2057 41.8804 97.2881 42.0612C97.3705 42.242 97.4916 42.4064 97.6445 42.5449C97.7973 42.6833 97.9789 42.7932 98.1788 42.8682C98.3787 42.9431 98.593 42.9817 98.8094 42.9817Z" fill="white"/>
<path d="M112.651 42.9817H119.243C120.156 42.9817 120.893 42.3145 120.893 41.491V35.534C120.893 34.7143 120.154 34.0471 119.243 34.0471H112.651C112.215 34.0471 111.796 34.2038 111.488 34.4826C111.179 34.7615 111.006 35.1397 111.006 35.534V41.491C111.006 42.3145 111.744 42.9817 112.651 42.9817Z" fill="white"/>
<path d="M122.344 3.8125H68.0273C63.8107 3.8125 59.5898 7.503 59.592 11.1916V46.7031L37.6966 26.9163V43.0183H4.21875V78.9836H37.6966V95.0838L59.592 75.295L59.5898 110.808C59.5898 114.499 63.8107 118.188 68.0273 118.188H122.344C126.565 118.188 130.781 114.497 130.781 110.808V11.1916C130.781 7.503 126.565 3.8125 122.344 3.8125ZM117.925 10.0669C118.449 10.0667 118.952 10.2547 119.323 10.5897C119.694 10.9246 119.903 11.3791 119.903 11.8531C119.903 12.327 119.695 12.7817 119.325 13.117C118.954 13.4523 118.451 13.6409 117.927 13.6411C117.402 13.6414 116.899 13.4533 116.528 13.1184C116.157 12.7834 115.948 12.3289 115.948 11.855C115.948 11.381 116.156 10.9263 116.527 10.591C116.897 10.2557 117.4 10.0672 117.925 10.0669ZM89.8446 11.0238H100.526C100.856 11.0238 101.117 11.4203 101.117 11.9141C101.117 12.4097 100.856 12.8119 100.526 12.8119H89.8446C89.5198 12.8119 89.254 12.4097 89.254 11.9141C89.254 11.4223 89.5176 11.0238 89.8446 11.0238ZM102.602 111.485C102.602 111.661 102.564 111.835 102.489 111.998C102.415 112.161 102.305 112.308 102.168 112.433C102.03 112.557 101.867 112.656 101.687 112.723C101.507 112.791 101.314 112.825 101.119 112.825H89.254C89.0592 112.825 88.8664 112.791 88.6865 112.723C88.5066 112.656 88.3431 112.557 88.2054 112.433C88.0677 112.308 87.9585 112.161 87.884 111.998C87.8094 111.835 87.7711 111.661 87.7711 111.485V108.805C87.7711 108.065 88.4355 107.465 89.254 107.465H101.119C101.938 107.465 102.602 108.065 102.602 108.805V111.485ZM124.85 103.891H65.5235V69.9365L70.3919 65.5369C70.508 65.7637 70.7126 65.9143 71.126 65.9143H77.7178C77.9342 65.9148 78.1486 65.8767 78.3487 65.8022C78.5489 65.7277 78.7307 65.6183 78.8839 65.4802C79.0372 65.342 79.1588 65.178 79.2417 64.9973C79.3247 64.8167 79.3673 64.623 79.3673 64.4274V58.4704C79.3676 58.2746 79.3251 58.0806 79.2423 57.8997C79.1595 57.7187 79.0381 57.5542 78.8848 57.4158C78.7316 57.2773 78.5496 57.1675 78.3494 57.0927C78.1491 57.0179 77.9345 56.9795 77.7178 56.9797H71.126C71.0712 56.9797 71.048 57.0045 70.9952 57.0102L65.5235 52.0654V18.1094H124.85V103.891Z" fill="white"/>
</svg>
