<svg width="125" height="106" viewBox="0 0 125 106" fill="none" xmlns="http://www.w3.org/2000/svg">
<g clip-path="url(#clip0)">
<path d="M66.1322 40.2823C64.5236 42.3487 61.9516 43.5295 58.9821 43.5649C56.0125 43.6002 52.8886 42.4873 50.2976 40.471C47.7065 38.4546 45.8607 35.7 45.166 32.813C44.4713 29.9261 44.9848 27.1433 46.5934 25.0769C48.202 23.0105 50.774 21.8298 53.7435 21.7944C56.7131 21.759 59.837 22.8719 62.428 24.8883C65.019 26.9046 66.8649 29.6593 67.5596 32.5462C68.2543 35.4332 67.7408 38.2159 66.1322 40.2823Z" fill="white"/>
<path d="M109.228 26.3214H88.2725C84.4872 26.3214 80.8569 27.5208 78.1803 29.6557C75.5037 31.7906 74 34.6862 74 37.7054V59.2232C74 60.9684 74.8692 62.6422 76.4164 63.8762C77.9635 65.1103 80.062 65.8036 82.25 65.8036V105.286H115.25V65.8036C117.438 65.8036 119.536 65.1103 121.084 63.8762C122.631 62.6422 123.5 60.9684 123.5 59.2232V37.7054C123.5 34.6862 121.996 31.7906 119.32 29.6557C116.643 27.5208 113.013 26.3214 109.228 26.3214Z" fill="white"/>
<path d="M115.25 13.1603C115.299 14.9129 114.91 16.6558 114.103 18.2866C113.297 19.9174 112.09 21.4032 110.554 22.6569C109.018 23.9106 107.183 24.9068 105.157 25.5871C103.131 26.2674 100.956 26.6181 98.758 26.6185C96.5602 26.619 94.3844 26.2692 92.3583 25.5897C90.3323 24.9102 88.4969 23.9147 86.9598 22.6616C85.4228 21.4085 84.2151 19.9232 83.4077 18.2927C82.6002 16.6622 82.2093 14.9195 82.2579 13.1669C82.3533 9.72824 84.1325 6.456 87.2149 4.05065C90.2972 1.64529 94.4376 0.29798 98.7498 0.29712C103.062 0.296259 107.203 1.64192 110.287 4.04605C113.371 6.45017 115.152 9.7217 115.25 13.1603Z" fill="white"/>
<path d="M35.2275 32.9017H14.2725C12.3977 32.9022 10.5413 33.1971 8.80939 33.7698C7.07747 34.3425 5.50393 35.1816 4.17861 36.2393C2.85329 37.297 1.80213 38.5526 1.08517 39.9343C0.368198 41.3161 -0.000541107 42.7969 5.95981e-07 44.2923C0.000542299 45.7877 0.370354 47.2684 1.08832 48.6498C1.80629 50.0312 2.85835 51.2863 4.18444 52.3434C5.51053 53.4005 7.08468 54.2389 8.81701 54.8108C10.5493 55.3827 12.4059 55.6768 14.2808 55.6764C18.0671 55.6755 21.698 54.4749 24.3746 52.3388C27.0513 50.2026 28.5543 47.3059 28.5532 44.2858C28.5522 41.2656 27.047 38.3696 24.3688 36.2347C21.6906 34.0998 18.0589 32.9009 14.2725 32.9017C10.4872 32.9017 6.85693 34.1011 4.18032 36.236C1.50371 38.371 8.96838e-07 41.2665 8.96838e-07 44.2858V59.2232C8.96838e-07 60.9684 0.869195 62.6421 2.41637 63.8762C3.96355 65.1102 6.06196 65.8035 8.25 65.8035L8.96838e-07 85.5446H8.25V105.286H41.25V85.5446H49.5L41.25 65.8035C43.438 65.8035 45.5365 65.1102 47.0836 63.8762C48.6308 62.6421 49.5 60.9684 49.5 59.2232V44.2858C49.5 42.7908 49.1308 41.3105 48.4136 39.9293C47.6963 38.5481 46.645 37.2931 45.3197 36.236C43.9944 35.1789 42.421 34.3404 40.6893 33.7683C38.9577 33.1962 37.1018 32.9017 35.2275 32.9017Z" fill="white"/>
<path d="M41.2497 19.7406C41.2994 21.4932 40.9096 23.2361 40.1032 24.8669C39.2968 26.4977 38.09 27.9835 36.5538 29.2372C35.0175 30.4909 33.1827 31.4871 31.1571 32.1674C29.1315 32.8478 26.9559 33.1984 24.758 33.1989C22.5602 33.1993 20.3844 32.8495 18.3583 32.17C16.3323 31.4905 14.4969 30.495 12.9598 29.2419C11.4228 27.9888 10.2151 26.5035 9.40767 24.873C8.60024 23.2425 8.20935 21.4998 8.25794 19.7472C8.35327 16.3086 10.1325 13.0363 13.2149 10.631C16.2972 8.22562 20.4376 6.8783 24.7498 6.87744C29.062 6.87658 33.2032 8.22224 36.2871 10.6264C39.3709 13.0305 41.1522 16.302 41.2497 19.7406Z" fill="white"/>
<path d="M27.6325 56.1878L15.5126 71.7704L28.5369 81.9005L40.6568 66.3179C42.3839 67.6612 44.4659 68.4023 46.4448 68.3781C48.4237 68.3538 50.1374 67.5663 51.2089 66.1887L57.4304 58.1896C58.9948 56.1784 59.4934 53.4704 58.8165 50.6613C58.1396 47.8523 56.3427 45.1724 53.8211 43.2112L46.788 37.7409C44.2664 35.7796 41.2266 34.6977 38.3374 34.733C35.4482 34.7684 32.9463 35.9182 31.3819 37.9295L25.1604 45.9285C24.0889 47.3061 23.7474 49.1609 24.211 51.0849C24.6746 53.0089 25.9054 54.8445 27.6325 56.1878Z" fill="white"/>
<g clip-path="url(#clip1)">
<path d="M72.6667 9.03564H68.6667V5.47314C68.6667 4.81742 68.0696 4.28564 67.3333 4.28564H64.6667C63.9304 4.28564 63.3333 4.81742 63.3333 5.47314V9.03564H59.3333C58.5971 9.03564 58 9.56742 58 10.2231V12.5981C58 13.2539 58.5971 13.7856 59.3333 13.7856H63.3333V22.0981C63.3333 22.7539 63.9304 23.2856 64.6667 23.2856H67.3333C68.0696 23.2856 68.6667 22.7539 68.6667 22.0981V13.7856H72.6667C73.4029 13.7856 74 13.2539 74 12.5981V10.2231C74 9.56742 73.4029 9.03564 72.6667 9.03564Z" fill="white"/>
</g>
</g>
<defs>
<clipPath id="clip0">
<rect width="125" height="105.286" fill="white"/>
</clipPath>
<clipPath id="clip1">
<rect width="16" height="19" fill="white" transform="translate(58 4.28564)"/>
</clipPath>
</defs>
</svg>
