<svg width="158" height="134" viewBox="0 0 158 134" fill="none" xmlns="http://www.w3.org/2000/svg">
<path fill-rule="evenodd" clip-rule="evenodd" d="M148.332 124.628C121.66 112.637 97.8514 55.0914 86.2285 27.129L98.1279 5.21958C98.5299 4.49966 98.6514 3.66308 98.47 2.86321C98.2887 2.06334 97.8166 1.35376 97.1404 0.864551C95.7776 -0.0371522 94.0199 0.452069 93.1904 1.9581L83.3055 20.1552C81.0836 14.9561 79.6024 11.8001 79 11.8001C78.4075 11.8001 76.9559 14.8601 74.7933 19.925L64.8096 1.54562C63.9801 0.0395881 62.2026 -0.449634 60.8596 0.452069C60.1834 0.941279 59.7113 1.65086 59.53 2.45073C59.3486 3.2506 59.4701 4.08717 59.8721 4.8071L71.8702 26.8892C60.3066 54.6981 36.5276 112.311 9.875 124.532V105.414H0V134H46.0767C71.7715 115.601 79 56.5495 79 56.5495C79 56.5495 88.3121 115.601 111.923 134L158 133.971V105.414H148.332V124.628Z" fill="white"/>
</svg>
