<svg width="158" height="134" viewBox="0 0 158 134" fill="none" xmlns="http://www.w3.org/2000/svg">
<path d="M150.062 64.2999V60.3H157.96V40.2H150.062V26.8C150.062 12.0198 135.893 0 118.47 0H39.4901C22.0671 0 7.89802 12.0198 7.89802 26.8V40.2H0V60.3H7.89802V64.2999C2.78801 69.1907 -0.0206462 75.5062 0.00789745 82.0415L0.039491 107.22C0.047389 112.131 3.23029 116.392 7.89802 118.717V127.3C7.89802 129.077 8.73013 130.781 10.2113 132.038C11.6925 133.294 13.7014 134 15.796 134H23.6941C25.7888 134 27.7976 133.294 29.2788 132.038C30.76 130.781 31.5921 129.077 31.5921 127.3V120.6H126.368V127.3C126.368 129.077 127.2 130.781 128.682 132.038C130.163 133.294 132.172 134 134.266 134H142.164C144.259 134 146.268 133.294 147.749 132.038C149.23 130.781 150.062 129.077 150.062 127.3V118.764C151.274 118.191 152.391 117.486 153.388 116.667C156.365 114.134 158.008 110.764 158 107.187L157.968 82.0013C157.985 75.4775 155.171 69.1767 150.062 64.2999ZM47.3881 13.4H110.572V26.8H47.3881V13.4ZM35.5411 100.5C32.398 100.499 29.3841 99.4391 27.1624 97.5531C24.9406 95.6671 23.693 93.1096 23.6941 90.4433C23.6951 87.777 24.9447 85.2202 27.1679 83.3355C29.3912 81.4507 32.4059 80.3924 35.549 80.3933C38.6921 80.3942 41.706 81.4542 43.9278 83.3402C46.1495 85.2262 47.3971 87.7837 47.396 90.45C47.395 93.1163 46.1454 95.6731 43.9222 97.5578C41.6989 99.4426 38.6842 100.501 35.5411 100.5ZM71.0822 67H23.6941V40.2H71.0822V67ZM122.419 100.5C119.276 100.499 116.262 99.4391 114.041 97.5531C111.819 95.6671 110.571 93.1096 110.572 90.4433C110.573 87.777 111.823 85.2202 114.046 83.3355C116.269 81.4507 119.284 80.3924 122.427 80.3933C125.57 80.3942 128.584 81.4542 130.806 83.3402C133.028 85.2262 134.275 87.7837 134.274 90.45C134.273 93.1163 133.024 95.6731 130.8 97.5578C128.577 99.4426 125.562 100.501 122.419 100.5ZM134.266 67H86.8783V40.2H134.266V67Z" fill="white"/>
</svg>
