<svg width="158" height="134" viewBox="0 0 158 134" fill="none" xmlns="http://www.w3.org/2000/svg">
<path d="M143.805 4.1875H14.1953C9.56641 4.1875 4.9375 8.11328 4.9375 12.0391V100.37C4.9375 104.296 9.56641 108.222 14.1953 108.222H60.4844V116.073C60.4844 121.525 52.1449 123.925 41.9688 123.925V129.812H116.031V123.923C105.853 123.923 97.5156 121.523 97.5156 116.071V108.22H143.805C148.434 108.22 153.062 104.294 153.062 100.368V12.0391C153.062 8.11328 148.434 4.1875 143.805 4.1875ZM148.125 100.37C148.125 101.98 145.701 104.034 143.805 104.034H14.1953C12.2968 104.034 9.875 101.98 9.875 100.37V92.5186H148.125V100.37Z" fill="white"/>
<path d="M79.0003 102.334C80.2792 102.334 81.3159 101.455 81.3159 100.37C81.3159 99.2855 80.2792 98.4062 79.0003 98.4062C77.7213 98.4062 76.6846 99.2855 76.6846 100.37C76.6846 101.455 77.7213 102.334 79.0003 102.334Z" fill="white"/>
<g clip-path="url(#clip0)">
<path d="M85.9372 15.5636C83.898 9.70112 74.102 9.70112 72.0628 15.5636L71.5691 16.9874C71.2644 17.865 70.7319 18.6738 70.0107 19.3542C69.2896 20.0346 68.398 20.5695 67.4013 20.9197C66.4046 21.2699 65.3282 21.4264 64.2509 21.3778C63.1737 21.3292 62.1229 21.0767 61.1756 20.6389L59.645 19.927C53.3102 17.0041 46.3829 22.8792 49.8342 28.2476L50.6686 29.5499C52.8708 32.9836 50.7822 37.2591 46.3631 38.3646L44.6844 38.7833C37.7719 40.5127 37.7719 48.8207 44.6844 50.5502L46.3631 50.9689C47.398 51.2273 48.3516 51.6789 49.1539 52.2905C49.9562 52.9022 50.5869 53.6583 50.9998 54.5036C51.4126 55.3489 51.5972 56.2618 51.5399 57.1754C51.4826 58.0891 51.1849 58.9803 50.6686 59.7836L49.8293 61.0817C46.3829 66.4543 53.3102 72.3294 59.6401 69.4023L61.1756 68.6946C62.1229 68.2568 63.1737 68.0043 64.2509 67.9557C65.3282 67.9071 66.4046 68.0636 67.4013 68.4138C68.398 68.7639 69.2896 69.2989 70.0107 69.9793C70.7319 70.6597 71.2644 71.4684 71.5691 72.3461L72.0628 73.7699C74.102 79.6324 83.898 79.6324 85.9372 73.7699L86.4309 72.3461C86.7356 71.4684 87.2681 70.6597 87.9893 69.9793C88.7104 69.2989 89.602 68.7639 90.5987 68.4138C91.5954 68.0636 92.6718 67.9071 93.7491 67.9557C94.8263 68.0043 95.8771 68.2568 96.8244 68.6946L98.355 69.4065C104.69 72.3294 111.617 66.4543 108.166 61.0859L107.331 59.7836C106.815 58.9803 106.517 58.0891 106.46 57.1754C106.403 56.2618 106.587 55.3489 107 54.5036C107.413 53.6583 108.044 52.9022 108.846 52.2905C109.648 51.6789 110.602 51.2273 111.637 50.9689L113.316 50.5502C120.228 48.8207 120.228 40.5127 113.316 38.7833L111.637 38.3646C110.602 38.1062 109.648 37.6546 108.846 37.0429C108.044 36.4313 107.413 35.6751 107 34.8299C106.587 33.9846 106.403 33.0717 106.46 32.158C106.517 31.2444 106.815 30.3532 107.331 29.5499L108.171 28.2517C111.617 22.8792 104.69 17.0041 98.3599 19.9312L96.8244 20.6389C95.8771 21.0767 94.8263 21.3292 93.7491 21.3778C92.6718 21.4264 91.5954 21.2699 90.5987 20.9197C89.602 20.5695 88.7104 20.0346 87.9893 19.3542C87.2681 18.6738 86.7356 17.865 86.4309 16.9874L85.9372 15.5636ZM79 56.9361C75.1631 56.9361 71.4834 55.6435 68.7704 53.3425C66.0573 51.0415 64.5331 47.9208 64.5331 44.6667C64.5331 41.4127 66.0573 38.2919 68.7704 35.991C71.4834 33.69 75.1631 32.3974 79 32.3974C82.8355 32.3974 86.514 33.6896 89.2261 35.9898C91.9383 38.2899 93.4619 41.4096 93.4619 44.6626C93.4619 47.9155 91.9383 51.0352 89.2261 53.3354C86.514 55.6355 82.8355 56.9277 79 56.9277V56.9361Z" fill="#282828"/>
</g>
<defs>
<clipPath id="clip0">
<rect width="79" height="67" fill="white" transform="translate(39.5 11.1667)"/>
</clipPath>
</defs>
</svg>
