<svg width="155" height="102" viewBox="0 0 155 102" fill="none" xmlns="http://www.w3.org/2000/svg">
<path d="M150.842 47.916C143.992 20.1337 133.684 5.3053 118.393 1.25487C115.179 0.408994 111.845 -0.0135946 108.495 0.000333356C104.068 0.000333356 100.212 0.968033 96.1332 1.99368C91.2181 3.23083 85.6345 4.63602 77.4933 4.63602C69.3521 4.63602 63.7654 3.23373 58.8406 1.99658C54.7587 0.968034 50.9061 0.000333356 46.4916 0.000333356C43.0278 -0.010442 39.5793 0.410801 36.2448 1.25197C21.0346 5.28502 10.7329 20.1076 3.78338 47.8986C-3.68934 77.8046 -0.0111105 96.6863 14.0979 101.067C16.0319 101.679 18.0668 101.994 20.1174 102C29.7829 102 37.5333 94.777 42.8295 88.8636C48.8135 82.1708 55.8179 78.7752 77.4933 78.7752C96.8533 78.7752 104.865 81.1307 111.786 88.8636C116.136 93.7253 120.247 97.1267 124.348 99.2678C129.802 102.113 135.254 102.745 140.546 101.113C148.885 98.5609 153.664 91.8131 154.756 81.0525C155.586 72.801 154.307 61.9621 150.842 47.916ZM61.9925 46.3572H51.6585V55.6286C51.6585 56.8581 51.1142 58.0372 50.1452 58.9065C49.1762 59.7759 47.8619 60.2643 46.4916 60.2643C45.1212 60.2643 43.807 59.7759 42.838 58.9065C41.869 58.0372 41.3246 56.8581 41.3246 55.6286V46.3572H30.9907C29.6203 46.3572 28.3061 45.8688 27.3371 44.9995C26.3681 44.1301 25.8237 42.951 25.8237 41.7215C25.8237 40.4921 26.3681 39.313 27.3371 38.4436C28.3061 37.5743 29.6203 37.0859 30.9907 37.0859H41.3246V27.8145C41.3246 26.585 41.869 25.4059 42.838 24.5365C43.807 23.6672 45.1212 23.1788 46.4916 23.1788C47.8619 23.1788 49.1762 23.6672 50.1452 24.5365C51.1142 25.4059 51.6585 26.585 51.6585 27.8145V37.0859H61.9925C63.3628 37.0859 64.6771 37.5743 65.646 38.4436C66.615 39.313 67.1594 40.4921 67.1594 41.7215C67.1594 42.951 66.615 44.1301 65.646 44.9995C64.6771 45.8688 63.3628 46.3572 61.9925 46.3572ZM89.119 47.5162C87.8416 47.5162 86.5929 47.1763 85.5308 46.5396C84.4686 45.9029 83.6408 44.9979 83.152 43.939C82.6631 42.8802 82.5352 41.7151 82.7844 40.5911C83.0336 39.467 83.6488 38.4345 84.552 37.6241C85.4553 36.8137 86.6061 36.2619 87.859 36.0383C89.1119 35.8147 90.4105 35.9294 91.5907 36.368C92.7708 36.8066 93.7795 37.5493 94.4892 38.5022C95.1989 39.4551 95.5777 40.5755 95.5777 41.7215C95.5777 43.2584 94.8973 44.7323 93.686 45.819C92.4748 46.9057 90.832 47.5162 89.119 47.5162ZM103.328 60.2643C102.05 60.2643 100.801 59.9241 99.7382 59.2867C98.6758 58.6494 97.8479 57.7435 97.3596 56.6838C96.8712 55.6242 96.7443 54.4583 96.9948 53.3339C97.2453 52.2094 97.862 51.177 98.7669 50.3672C99.6718 49.5573 100.824 49.0066 102.078 48.7847C103.332 48.5627 104.631 48.6795 105.811 49.1203C106.991 49.5611 107.998 50.3061 108.706 51.2609C109.414 52.2158 109.79 53.3375 109.787 54.4842C109.783 56.0185 109.1 57.4887 107.889 58.5722C106.679 59.6558 105.038 60.2643 103.328 60.2643ZM103.328 34.768C102.051 34.768 100.802 34.4282 99.7399 33.7914C98.6778 33.1547 97.85 32.2497 97.3611 31.1909C96.8723 30.1321 96.7444 28.967 96.9936 27.8429C97.2428 26.7189 97.8579 25.6864 98.7612 24.876C99.6644 24.0656 100.815 23.5137 102.068 23.2901C103.321 23.0665 104.62 23.1813 105.8 23.6199C106.98 24.0585 107.989 24.8012 108.698 25.7541C109.408 26.707 109.787 27.8273 109.787 28.9734C109.787 30.5102 109.106 31.9841 107.895 33.0708C106.684 34.1575 105.041 34.768 103.328 34.768ZM117.537 47.5162C116.26 47.5162 115.011 47.1763 113.949 46.5396C112.887 45.9029 112.059 44.9979 111.57 43.939C111.081 42.8802 110.954 41.7151 111.203 40.5911C111.452 39.467 112.067 38.4345 112.97 37.6241C113.874 36.8137 115.024 36.2619 116.277 36.0383C117.53 35.8147 118.829 35.9294 120.009 36.368C121.189 36.8066 122.198 37.5493 122.908 38.5022C123.617 39.4551 123.996 40.5755 123.996 41.7215C123.996 43.2584 123.316 44.7323 122.104 45.819C120.893 46.9057 119.25 47.5162 117.537 47.5162Z" fill="white"/>
</svg>
