<svg width="134" height="134" viewBox="0 0 134 134" fill="none" xmlns="http://www.w3.org/2000/svg">
<path d="M98.5511 63.7095L110.237 53.1905L82.3244 28.0655L70.6382 38.5845L39.8224 10.9135C34.0165 5.68752 24.5633 5.68752 18.7575 10.9135L4.61493 23.6435C-1.19095 28.8695 -1.19095 37.3785 4.61493 42.6045L35.3563 70.2755L0 102.168V127.293H27.9129L63.3436 95.4005L94.085 123.072C101.156 129.437 110.684 127.092 115.15 123.072L129.292 110.342C135.098 105.116 135.098 96.6065 129.292 91.3805L98.5511 63.7095ZM46.0004 60.7615L15.1846 33.0905L29.2527 20.3605L38.7059 28.8695L29.9226 36.8425L40.4179 46.2895L49.2755 38.3165L60.0685 48.0315L46.0004 60.7615ZM104.655 113.625L73.9133 85.9535L88.0558 73.2235L98.8488 82.9385L89.9911 90.9115L100.486 100.359L109.344 92.3855L118.797 100.895L104.655 113.625ZM131.823 33.7605C132.513 33.1407 133.061 32.4044 133.434 31.5939C133.808 30.7834 134 29.9145 134 29.037C134 28.1595 133.808 27.2907 133.434 26.4801C133.061 25.6696 132.513 24.9334 131.823 24.3135L114.406 8.63552C110.907 5.48652 106.069 6.69252 103.91 8.63552L90.2889 20.8965L118.202 46.0215L131.823 33.7605Z" fill="white"/>
<rect x="36.6807" y="27" width="17" height="17" transform="rotate(43.402 36.6807 27)" fill="white"/>
<path d="M75.9288 123.602C76.7072 123.018 77.3169 122.591 77.9504 122.147C77.9917 122.118 78.0332 122.089 78.0748 122.059L78.0809 122.055C78.1531 122.005 78.2255 121.956 78.2985 121.905C78.7945 121.564 79.3144 121.206 79.9526 120.734L79.9588 120.729L79.965 120.725C81.3862 119.708 82.8503 118.534 84.1548 117.079C86.8156 114.081 88.3227 110.317 88.3227 104.688C88.3227 97.8925 84.9733 92.1065 79.7286 88.5474L78.6521 87.8169L79.6349 86.9645L80.3379 86.3548C83.2812 83.6376 85.026 80.0889 86.1337 76.5054C88.315 69.3876 88.3227 60.7825 88.3227 54.647V54.4376C88.3227 31.2047 84.1089 18.1674 79.5836 10.8086C77.3066 7.10796 74.9084 4.78032 72.8684 3.33733L72.8618 3.33256C72.0425 2.74298 71.1345 2.21959 70.153 1.77371C69.7268 1.58124 69.2806 1.41182 68.8181 1.2672L68.8019 1.26346C68.7694 1.25603 68.7209 1.24515 68.6596 1.23196C68.5368 1.2055 68.3647 1.17017 68.169 1.13493C67.761 1.06148 67.3119 0.999999 66.9924 0.999999C66.6729 0.999999 66.2238 1.06148 65.8158 1.13493C65.6201 1.17017 65.448 1.2055 65.3252 1.23196C65.264 1.24515 65.2155 1.25603 65.1829 1.26346L65.1575 1.26932C64.6983 1.40308 64.2604 1.56949 63.85 1.76523L63.8416 1.76924L63.8331 1.7731C62.8512 2.21912 61.9427 2.74271 61.1231 3.33258L61.1185 3.3358C59.0757 4.78873 56.6775 7.10923 54.4013 10.8086C49.876 18.1674 45.6621 31.2047 45.6621 54.4376V54.647C45.6621 60.7906 45.6698 69.3871 47.8509 76.5048C48.9599 80.0929 50.7078 83.6462 53.6578 86.3649L53.6578 86.3648L53.6641 86.3707C53.8648 86.5588 54.0915 86.7525 54.328 86.9461L55.3653 87.7948L54.2562 88.5474C49.0115 92.1065 45.6621 97.8925 45.6621 104.688C45.6621 107.215 46.5715 110.324 47.8867 113.275L47.8871 113.276C49.1939 116.217 51.0202 119.246 53.1123 121.673L53.1264 121.689L53.1397 121.706C55.6201 124.847 59.1439 127.516 61.9242 129.336L61.927 129.338C63.441 130.337 65.0219 131.279 66.6638 132.16L67.1421 132.404C67.9996 132.832 69.0454 133.046 70.1124 132.992C71.0805 132.943 71.9824 132.678 72.7066 132.257L72.9211 132.116C73.6835 131.618 74.1407 130.988 74.308 130.362C74.472 129.749 74.3704 129.1 73.9723 128.494L73.9135 128.405L73.875 128.305C73.7384 127.951 73.6655 127.578 73.6629 127.198H73.6629V127.191C73.6629 126.793 73.735 126.241 74.0825 125.596C74.4227 124.964 74.9993 124.294 75.9288 123.602ZM75.9288 123.602C75.9283 123.602 75.9279 123.602 75.9274 123.603L76.5273 124.402L75.9299 123.601C75.9296 123.601 75.9292 123.601 75.9288 123.602Z" fill="url(#paint0_linear)" stroke="#252525" stroke-width="2"/>
<defs>
<linearGradient id="paint0_linear" x1="66.9924" y1="134" x2="66.9924" y2="-7.15254e-07" gradientUnits="userSpaceOnUse">
<stop offset="0.34243" stop-color="white"/>
<stop offset="0.34253" stop-color="white"/>
</linearGradient>
</defs>
</svg>
