<svg width="140" height="134" viewBox="0 0 140 134" fill="none" xmlns="http://www.w3.org/2000/svg">
<path d="M138.615 126.418L132.195 132.693C131.285 133.477 130.192 133.869 128.917 133.869C127.642 133.869 126.55 133.477 125.639 132.693L105.015 112.821C99.5513 115.785 93.7237 117.266 87.5318 117.266C77.8798 117.266 69.6391 113.998 62.8099 107.461C55.9806 100.925 52.566 93.0374 52.566 83.799C52.566 74.5606 55.9806 66.6732 62.8099 60.1366C69.6391 53.6 77.8798 50.3317 87.5318 50.3317C97.1839 50.3317 105.425 53.6 112.254 60.1366C119.083 66.6732 122.498 74.5606 122.498 83.799C122.498 89.7255 120.95 95.2598 117.854 100.402L138.615 120.273C139.525 121.145 139.981 122.169 139.981 123.345C139.981 124.522 139.525 125.546 138.615 126.418ZM87.6001 58.6985C80.3611 58.6985 74.1692 61.1389 69.0245 66.0195C63.8798 70.9002 61.3074 76.8049 61.3074 83.7337C61.3074 90.6624 63.8798 96.5889 69.0245 101.513C74.1692 106.437 80.3611 108.9 87.6001 108.9C94.8391 108.9 101.008 106.437 106.107 101.513C111.207 96.5889 113.756 90.6624 113.756 83.7337C113.756 76.8049 111.207 70.9002 106.107 66.0195C101.008 61.1389 94.8391 58.6985 87.6001 58.6985ZM96.2733 42.7493V41.9649C96.2733 39.6117 97.1383 37.6289 98.8684 36.0166C100.598 34.4042 102.647 33.598 105.015 33.598H122.498C124.956 33.598 127.051 34.4042 128.781 36.0166C130.511 37.6289 131.376 39.6117 131.376 41.9649V83.799H131.239C131.239 73.7763 127.938 64.9083 121.337 57.1951C114.735 49.4819 106.381 44.6667 96.2733 42.7493ZM52.566 58.6985V25.2312C52.566 22.878 53.431 20.8953 55.1611 19.2829C56.8912 17.6706 58.94 16.8644 61.3074 16.8644H78.7904C81.2489 16.8644 83.3204 17.6706 85.005 19.2829C86.6895 20.8953 87.5318 22.878 87.5318 25.2312V41.9649C80.5204 41.9649 73.9643 43.4683 67.8635 46.4751C61.7627 49.4819 56.6635 53.5564 52.566 58.6985ZM52.566 108.769C56.6635 113.998 61.7627 118.116 67.8635 121.123C73.9643 124.13 80.5204 125.633 87.5318 125.633H96.2733C96.2733 127.899 95.431 129.86 93.7465 131.516C92.0619 133.172 89.9904 134 87.5318 134H8.85865C6.49117 134 4.44239 133.172 2.71231 131.516C0.982228 129.86 0.117188 127.877 0.117188 125.568C0.117188 123.258 0.959464 121.297 2.64402 119.685C4.32857 118.073 6.40011 117.266 8.85865 117.266V8.36683C8.85865 6.10081 9.72369 4.13984 11.4538 2.4839C13.1839 0.827967 15.2326 0 17.6001 0H35.083C37.5416 0 39.6131 0.827967 41.2977 2.4839C42.9822 4.13984 43.8245 6.10081 43.8245 8.36683V117.266H52.566V108.769Z" fill="white"/>
</svg>
