<svg width="158" height="126" viewBox="0 0 158 126" fill="none" xmlns="http://www.w3.org/2000/svg">
<path d="M29.625 13.5C29.625 9.91958 31.1856 6.4858 33.9635 3.95406C36.7414 1.42232 40.509 0 44.4375 0H113.562C117.491 0 121.259 1.42232 124.037 3.95406C126.814 6.4858 128.375 9.91958 128.375 13.5V18H133.312C139.86 18 146.139 20.3705 150.769 24.5901C155.399 28.8097 158 34.5326 158 40.5V85.5C158 89.0804 156.439 92.5142 153.662 95.0459C150.884 97.5777 147.116 99 143.188 99H128.375V112.5C128.375 116.08 126.814 119.514 124.037 122.046C121.259 124.578 117.491 126 113.562 126H44.4375C40.509 126 36.7414 124.578 33.9635 122.046C31.1856 119.514 29.625 116.08 29.625 112.5V99H14.8125C10.884 99 7.11636 97.5777 4.33848 95.0459C1.5606 92.5142 0 89.0804 0 85.5V40.5C0 34.5326 2.601 28.8097 7.2308 24.5901C11.8606 20.3705 18.14 18 24.6875 18H29.625V13.5ZM118.5 13.5C118.5 12.3065 117.98 11.1619 117.054 10.318C116.128 9.47411 114.872 9 113.562 9H44.4375C43.128 9 41.8721 9.47411 40.9462 10.318C40.0202 11.1619 39.5 12.3065 39.5 13.5V18H118.5V13.5ZM39.5 76.5V112.5C39.5 113.693 40.0202 114.838 40.9462 115.682C41.8721 116.526 43.128 117 44.4375 117H113.562C114.872 117 116.128 116.526 117.054 115.682C117.98 114.838 118.5 113.693 118.5 112.5V76.5C118.5 75.3065 117.98 74.1619 117.054 73.318C116.128 72.4741 114.872 72 113.562 72H44.4375C43.128 72 41.8721 72.4741 40.9462 73.318C40.0202 74.1619 39.5 75.3065 39.5 76.5Z" fill="white"/>
</svg>
