<svg width="23" height="19" viewBox="0 0 23 19" fill="none" xmlns="http://www.w3.org/2000/svg">
<path d="M5.69534 19V6.18073H0.97941V19H5.69534ZM3.33799 4.42943C4.98252 4.42943 6.00616 3.44506 6.00616 2.21492C5.97552 0.957048 4.98258 0 3.36919 0C1.75606 0 0.701172 0.957067 0.701172 2.21492C0.701172 3.44511 1.72456 4.42943 3.3072 4.42943H3.33799ZM8.3056 19H13.0215V11.8411C13.0215 11.458 13.0522 11.0752 13.1767 10.8013C13.5176 10.0358 14.2936 9.24302 15.5963 9.24302C17.3028 9.24302 17.9855 10.4186 17.9855 12.1419V18.9999H22.7012V11.6495C22.7012 7.71188 20.3746 5.87977 17.2718 5.87977C14.7277 5.87977 13.6107 7.16459 12.9902 8.03967H13.0216V6.18047H8.30571C8.3676 7.38335 8.3056 19 8.3056 19Z" fill="white"/>
</svg>
