<svg width="29" height="30" viewBox="0 0 29 30" fill="none" xmlns="http://www.w3.org/2000/svg">
<path d="M5.99606 11.1064C5.96866 11.3987 5.95492 11.6921 5.9549 11.9857C5.9549 16.1171 8.63442 19.4658 11.9394 19.4658C15.2443 19.4658 17.9238 16.1171 17.9238 11.9857C17.9238 11.3745 17.8647 10.7802 17.7544 10.2118" stroke="black" stroke-miterlimit="10" stroke-linecap="round" stroke-linejoin="round"/>
<path d="M15.1061 11.2673C15.106 11.5473 14.9947 11.8158 14.7967 12.0138C14.5986 12.2117 14.33 12.3229 14.05 12.3228C13.77 12.3228 13.5015 12.2114 13.3035 12.0134C13.1055 11.8153 12.9944 11.5468 12.9944 11.2667C12.9945 11.1281 13.0218 10.9908 13.0749 10.8627C13.128 10.7346 13.2058 10.6183 13.3039 10.5202C13.4019 10.4222 13.5184 10.3445 13.6465 10.2915C13.7746 10.2384 13.9119 10.2111 14.0505 10.2112C14.1892 10.2112 14.3265 10.2386 14.4546 10.2917C14.5826 10.3447 14.699 10.4225 14.797 10.5206C14.895 10.6187 14.9728 10.7351 15.0258 10.8632C15.0788 10.9913 15.1061 11.1286 15.1061 11.2673Z" fill="black"/>
<path d="M10.8839 11.2673C10.8838 11.4059 10.8565 11.5432 10.8034 11.6713C10.7503 11.7994 10.6725 11.9157 10.5744 12.0138C10.4764 12.1118 10.3599 12.1895 10.2318 12.2426C10.1037 12.2956 9.96643 12.3229 9.82777 12.3228C9.68912 12.3228 9.55183 12.2954 9.42375 12.2424C9.29566 12.1893 9.17929 12.1115 9.08127 12.0134C8.98326 11.9153 8.90551 11.7989 8.85248 11.6708C8.79946 11.5427 8.77218 11.4054 8.77222 11.2667C8.77229 10.9867 8.88359 10.7182 9.08165 10.5202C9.2797 10.3223 9.54828 10.2111 9.8283 10.2112C10.1083 10.2113 10.3768 10.3226 10.5748 10.5206C10.7728 10.7187 10.8839 10.9872 10.8839 11.2673Z" fill="black"/>
<path d="M11.9392 16.5467C11.3312 16.5467 10.7232 16.3958 10.12 16.0939C10.0579 16.0629 10.0026 16.02 9.95716 15.9676C9.9117 15.9153 9.87701 15.8545 9.85505 15.7887C9.83309 15.7229 9.82431 15.6535 9.82919 15.5843C9.83408 15.5151 9.85254 15.4476 9.88352 15.3856C9.9145 15.3236 9.95739 15.2682 10.0098 15.2228C10.0621 15.1773 10.1229 15.1426 10.1887 15.1207C10.2545 15.0987 10.3239 15.0899 10.3931 15.0948C10.4622 15.0997 10.5298 15.1182 10.5918 15.1491C11.4985 15.603 12.3799 15.603 13.2866 15.1491C13.4119 15.0866 13.5569 15.0763 13.6897 15.1207C13.7555 15.1426 13.8163 15.1773 13.8687 15.2228C13.921 15.2682 13.9639 15.3236 13.9949 15.3856C14.0259 15.4476 14.0443 15.5151 14.0492 15.5843C14.0541 15.6535 14.0453 15.7229 14.0234 15.7887C14.0014 15.8545 13.9667 15.9153 13.9213 15.9676C13.8758 16.02 13.8205 16.0629 13.7585 16.0939C13.1552 16.3958 12.5472 16.5467 11.9392 16.5467Z" fill="black"/>
<path d="M26.0485 29.1743H18.3387V19.3386H24.5802V20.4533H26.0485V29.1743Z" stroke="black" stroke-miterlimit="10" stroke-linecap="round" stroke-linejoin="round"/>
<path d="M20.0297 17.5109H27.8545V27.3471" stroke="black" stroke-miterlimit="10" stroke-linecap="round" stroke-linejoin="round"/>
<path d="M24.5801 19.3386L26.0484 20.4533" stroke="black" stroke-miterlimit="10" stroke-linecap="round" stroke-linejoin="round"/>
<path d="M19.8929 22.6156H24.3436" stroke="black" stroke-miterlimit="10" stroke-linecap="round" stroke-linejoin="round"/>
<path d="M19.8929 24.7773H24.3436" stroke="black" stroke-miterlimit="10" stroke-linecap="round" stroke-linejoin="round"/>
<path d="M19.8929 26.6688H24.3436" stroke="black" stroke-miterlimit="10" stroke-linecap="round" stroke-linejoin="round"/>
<path d="M10.6569 22.6156C10.6569 22.6156 10.0204 25.7934 11.8745 25.7934C13.7286 25.7934 13.0926 22.6156 13.0926 22.6156" stroke="black" stroke-width="2" stroke-miterlimit="10" stroke-linecap="round" stroke-linejoin="round"/>
<path d="M16.5917 26.3595L13.5623 27.509" stroke="black" stroke-width="2" stroke-miterlimit="10" stroke-linecap="round" stroke-linejoin="round"/>
<path d="M7.44708 6.91523C7.44708 6.91523 12.7966 11.1163 12.9946 8.20301C12.9946 8.20301 15.8102 10.2117 17.7541 10.2117C21.1492 10.2117 17.6849 3.62507 11.8746 2.23173C10.2147 1.83485 6.65331 1.30548 6.65331 4.58562C6.65331 4.58562 2.63269 6.81865 5.95453 11.2092L6.00255 11.033C6.16828 9.4074 7.44708 6.91523 7.44708 6.91523V6.91523Z" stroke="black" stroke-width="2" stroke-miterlimit="10" stroke-linecap="round" stroke-linejoin="round"/>
<path d="M1.87975 27.5508C1.87975 27.5508 0.824198 20.6897 7.15753 20.6897C8.8422 21.8128 10.2851 22.5886 11.9075 22.5855H11.8416C13.4639 22.5886 14.9069 21.8128 16.5916 20.6897" stroke="black" stroke-width="2" stroke-miterlimit="10" stroke-linecap="round" stroke-linejoin="round"/>
<path d="M11.4257 25.7933L10.1511 27.5059L7.15757 20.6897L5.06915 25.1674L10.0603 27.5059" stroke="black" stroke-width="2" stroke-miterlimit="10" stroke-linecap="round" stroke-linejoin="round"/>
<path d="M16.5915 20.6897L13.5979 27.5059L12.3234 25.7933" stroke="black" stroke-width="2" stroke-miterlimit="10" stroke-linecap="round" stroke-linejoin="round"/>
</svg>
