<svg width="18" height="18" viewBox="0 0 18 18" fill="none" xmlns="http://www.w3.org/2000/svg">
<g clip-path="url(#clip0)">
<path d="M3.94943 7.32375C4.30034 6.26209 4.97758 5.33836 5.88452 4.68435C6.79146 4.03034 7.88178 3.67945 8.99993 3.68175C10.2674 3.68175 11.4134 4.13175 12.3134 4.86825L14.9324 2.25C13.3364 0.85875 11.2912 0 8.99993 0C5.45243 0 2.39843 2.0235 0.929932 4.9875L3.94943 7.32375Z" fill="#EA4335"/>
<path d="M12.0299 13.5097C11.2124 14.037 10.1744 14.3182 8.99992 14.3182C7.88623 14.3205 6.80003 13.9724 5.8951 13.3233C4.99018 12.6741 4.31238 11.7567 3.95767 10.701L0.927673 13.0012C1.67111 14.506 2.82162 15.772 4.24854 16.6557C5.67546 17.5393 7.32158 18.005 8.99992 18C11.1997 18 13.3012 17.2177 14.8754 15.75L12.0307 13.5097H12.0299Z" fill="#34A853"/>
<path d="M14.8755 15.75C16.5217 14.214 17.5905 11.928 17.5905 9.00003C17.5905 8.46753 17.5087 7.89528 17.3865 7.36353H9V10.8413H13.827C13.5893 12.0105 12.9495 12.9158 12.0308 13.5098L14.8755 15.75Z" fill="#4A90E2"/>
<path d="M3.95772 10.701C3.77423 10.1527 3.68102 9.57822 3.68172 9.00002C3.68172 8.41352 3.77547 7.85027 3.94947 7.32377L0.929965 4.98752C0.312249 6.23453 -0.00618203 7.60841 -3.47294e-05 9.00002C-3.47294e-05 10.44 0.333715 11.7975 0.927715 13.0013L3.95772 10.701Z" fill="#FBBC05"/>
</g>
<defs>
<clipPath id="clip0">
<rect width="18" height="18" fill="white"/>
</clipPath>
</defs>
</svg>
