<svg width="156" height="21" viewBox="0 0 156 21" fill="none" xmlns="http://www.w3.org/2000/svg">
<path d="M15.4625 9.892H19.6065V17.844C18.5425 18.6467 17.3105 19.2627 15.9105 19.692C14.5105 20.1213 13.1012 20.336 11.6825 20.336C9.64787 20.336 7.81853 19.9067 6.19453 19.048C4.57053 18.1707 3.29186 16.9667 2.35853 15.436C1.44386 13.8867 0.986531 12.1413 0.986531 10.2C0.986531 8.25867 1.44386 6.52267 2.35853 4.992C3.29186 3.44267 4.57986 2.23867 6.22253 1.38C7.8652 0.502666 9.7132 0.0639997 11.7665 0.0639997C13.4839 0.0639997 15.0425 0.353333 16.4425 0.931998C17.8425 1.51067 19.0185 2.35067 19.9705 3.452L17.0585 6.14C15.6585 4.66533 13.9692 3.928 11.9905 3.928C10.7399 3.928 9.6292 4.18933 8.65853 4.712C7.68786 5.23467 6.93186 5.972 6.39053 6.924C5.8492 7.876 5.57853 8.968 5.57853 10.2C5.57853 11.4133 5.8492 12.496 6.39053 13.448C6.93186 14.4 7.67853 15.1467 8.63053 15.688C9.6012 16.2107 10.7025 16.472 11.9345 16.472C13.2412 16.472 14.4172 16.192 15.4625 15.632V9.892ZM23.8201 0.399999H28.3561V16.304H38.1841V20H23.8201V0.399999ZM49.8824 20.336C47.8477 20.336 46.0091 19.8973 44.3664 19.02C42.7424 18.1427 41.4637 16.9387 40.5304 15.408C39.6157 13.8587 39.1584 12.1227 39.1584 10.2C39.1584 8.27733 39.6157 6.55067 40.5304 5.02C41.4637 3.47067 42.7424 2.25733 44.3664 1.38C46.0091 0.502666 47.8477 0.0639997 49.8824 0.0639997C51.9171 0.0639997 53.7464 0.502666 55.3704 1.38C56.9944 2.25733 58.2731 3.47067 59.2064 5.02C60.1397 6.55067 60.6064 8.27733 60.6064 10.2C60.6064 12.1227 60.1397 13.8587 59.2064 15.408C58.2731 16.9387 56.9944 18.1427 55.3704 19.02C53.7464 19.8973 51.9171 20.336 49.8824 20.336ZM49.8824 16.472C51.0397 16.472 52.0851 16.2107 53.0184 15.688C53.9517 15.1467 54.6797 14.4 55.2024 13.448C55.7437 12.496 56.0144 11.4133 56.0144 10.2C56.0144 8.98667 55.7437 7.904 55.2024 6.952C54.6797 6 53.9517 5.26267 53.0184 4.74C52.0851 4.19867 51.0397 3.928 49.8824 3.928C48.7251 3.928 47.6797 4.19867 46.7464 4.74C45.8131 5.26267 45.0757 6 44.5344 6.952C44.0117 7.904 43.7504 8.98667 43.7504 10.2C43.7504 11.4133 44.0117 12.496 44.5344 13.448C45.0757 14.4 45.8131 15.1467 46.7464 15.688C47.6797 16.2107 48.7251 16.472 49.8824 16.472ZM78.4074 9.808C79.5274 10.1627 80.4047 10.76 81.0394 11.6C81.6741 12.4213 81.9914 13.4387 81.9914 14.652C81.9914 16.3693 81.3194 17.6947 79.9754 18.628C78.6501 19.5427 76.7087 20 74.1514 20H64.0154V0.399999H73.5914C75.9807 0.399999 77.8101 0.857332 79.0794 1.772C80.3674 2.68667 81.0114 3.928 81.0114 5.496C81.0114 6.448 80.7781 7.29733 80.3114 8.044C79.8634 8.79067 79.2287 9.37867 78.4074 9.808ZM68.5234 3.816V8.436H73.0314C74.1514 8.436 75.0007 8.24 75.5794 7.848C76.1581 7.456 76.4474 6.87733 76.4474 6.112C76.4474 5.34667 76.1581 4.77733 75.5794 4.404C75.0007 4.012 74.1514 3.816 73.0314 3.816H68.5234ZM73.8154 16.584C75.0101 16.584 75.9061 16.388 76.5034 15.996C77.1194 15.604 77.4274 14.9973 77.4274 14.176C77.4274 12.552 76.2234 11.74 73.8154 11.74H68.5234V16.584H73.8154ZM98.3336 15.8H89.2336L87.4976 20H82.8496L91.5856 0.399999H96.0656L104.83 20H100.07L98.3336 15.8ZM96.9056 12.356L93.7976 4.852L90.6896 12.356H96.9056ZM106.863 0.399999H111.399V16.304H121.227V20H106.863V0.399999ZM131.691 0.399999H136.227V20H131.691V0.399999ZM144.939 4.096H138.667V0.399999H155.747V4.096H149.475V20H144.939V4.096Z" fill="white"/>
</svg>
