<svg width="28" height="29" viewBox="0 0 28 29" fill="none" xmlns="http://www.w3.org/2000/svg">
<path d="M9.55077 4.39709C9.67743 4.71904 9.83577 5.08848 10.126 5.45265H8.86993C8.73271 5.19932 8.63771 4.96182 8.55854 4.76654C8.38438 4.99348 8.2366 5.22571 8.10993 5.45265H1.24354V22.4946H2.33077C2.62104 22.4946 2.85854 22.7268 2.85854 23.0224C2.85854 23.3126 2.62104 23.5501 2.33077 23.5501H0.715766C0.425488 23.5501 0.187988 23.3126 0.187988 23.0224V4.92487C0.187988 4.63459 0.425488 4.39709 0.715766 4.39709H9.55077Z" fill="black"/>
<path d="M27.6006 4.92487V23.0224C27.6006 23.3126 27.3631 23.5501 27.0728 23.5501H25.7059C25.4156 23.5501 25.1781 23.3126 25.1781 23.0224C25.1781 22.7268 25.4156 22.4946 25.7059 22.4946H26.545V5.45265H20.0956C19.8053 5.09904 19.457 4.75071 19.0506 4.39709H27.0728C27.3631 4.39709 27.6006 4.63459 27.6006 4.92487Z" fill="black"/>
<path d="M17.1418 10.3403C17.1418 10.4789 17.1144 10.6162 17.0613 10.7443C17.0082 10.8724 16.9304 10.9887 16.8324 11.0868C16.7343 11.1848 16.6179 11.2625 16.4898 11.3156C16.3617 11.3686 16.2244 11.3959 16.0857 11.3958C15.9471 11.3958 15.8098 11.3684 15.6817 11.3153C15.5536 11.2623 15.4372 11.1845 15.3392 11.0864C15.2412 10.9883 15.1634 10.8719 15.1104 10.7438C15.0574 10.6157 15.0301 10.4784 15.0302 10.3397C15.0302 10.0597 15.1415 9.79119 15.3396 9.59324C15.5376 9.39528 15.8062 9.28411 16.0862 9.28418C16.3663 9.28425 16.6348 9.39555 16.8327 9.59361C17.0307 9.79166 17.1419 10.0602 17.1418 10.3403Z" fill="black"/>
<path d="M12.9195 10.3403C12.9195 10.4789 12.8921 10.6162 12.839 10.7443C12.7859 10.8724 12.7081 10.9887 12.6101 11.0868C12.512 11.1848 12.3956 11.2625 12.2675 11.3156C12.1394 11.3686 12.0021 11.3959 11.8634 11.3958C11.7248 11.3958 11.5875 11.3684 11.4594 11.3153C11.3313 11.2623 11.2149 11.1845 11.1169 11.0864C11.0189 10.9883 10.9412 10.8719 10.8881 10.7438C10.8351 10.6157 10.8078 10.4784 10.8079 10.3397C10.8079 10.0597 10.9192 9.79119 11.1173 9.59324C11.3153 9.39528 11.5839 9.28411 11.8639 9.28418C12.144 9.28425 12.4125 9.39555 12.6104 9.59361C12.8084 9.79166 12.9196 10.0602 12.9195 10.3403Z" fill="black"/>
<path d="M13.975 15.6191C13.367 15.6191 12.759 15.4682 12.1558 15.1663C12.0932 15.1356 12.0374 15.0929 11.9914 15.0405C11.9454 14.9882 11.9103 14.9273 11.888 14.8613C11.8657 14.7953 11.8567 14.7255 11.8615 14.6561C11.8663 14.5866 11.8848 14.5187 11.9159 14.4564C11.947 14.3941 11.9902 14.3386 12.0429 14.293C12.0956 14.2475 12.1568 14.2128 12.2229 14.191C12.2891 14.1692 12.3589 14.1608 12.4284 14.1661C12.4978 14.1714 12.5655 14.1904 12.6276 14.2221C13.5343 14.676 14.4157 14.676 15.3224 14.2221C15.4477 14.1595 15.5927 14.1493 15.7255 14.1936C15.7913 14.2156 15.8521 14.2503 15.9045 14.2957C15.9568 14.3412 15.9997 14.3965 16.0307 14.4585C16.0617 14.5205 16.0802 14.5881 16.085 14.6572C16.0899 14.7264 16.0811 14.7959 16.0592 14.8616C16.0372 14.9274 16.0025 14.9882 15.9571 15.0406C15.9116 15.0929 15.8563 15.1358 15.7943 15.1668C15.191 15.4682 14.583 15.6191 13.975 15.6191Z" fill="black"/>
<path d="M20.4122 9.88068C20.4122 10.1762 20.1747 10.4085 19.8844 10.4085H18.85V11.0629C18.85 12.1765 17.9475 13.079 16.8391 13.079H15.7783C14.9603 13.079 14.2583 12.5882 13.9416 11.8915C13.7812 12.2444 13.5229 12.5439 13.1973 12.7544C12.8717 12.9649 12.4926 13.0775 12.105 13.079H11.0441C10.5094 13.079 9.99663 12.8666 9.61854 12.4885C9.24044 12.1104 9.02803 11.5976 9.02803 11.0629V10.4085H8.66386C8.55104 10.4085 8.44122 10.372 8.35085 10.3045C8.26047 10.2369 8.19439 10.142 8.16248 10.0337C8.28386 9.83318 8.3947 9.61152 8.4897 9.38457C8.54247 9.36346 8.60053 9.35291 8.66386 9.35291H9.55581C9.69578 9.35291 9.83003 9.40851 9.929 9.50749C10.028 9.60647 10.0836 9.74071 10.0836 9.88068V11.0629C10.0836 11.5907 10.5164 12.0235 11.0441 12.0235H12.105C12.6328 12.0235 13.0603 11.5907 13.0603 11.0629V10.4824C13.0603 10.1921 13.2978 9.95457 13.588 9.95457H14.29C14.5855 9.95457 14.8178 10.1921 14.8178 10.4824V11.0629C14.8178 11.5907 15.2505 12.0235 15.7783 12.0235H16.8391C17.3669 12.0235 17.7944 11.5907 17.7944 11.0629V9.88068C17.7944 9.59041 18.0319 9.35291 18.3222 9.35291H19.8844C20.1747 9.35291 20.4122 9.59041 20.4122 9.88068Z" fill="black"/>
<path d="M7.9884 11.0601V11.1287C8.02007 15.2243 10.6853 18.5387 13.9734 18.5387C17.2456 18.5387 19.9109 15.2454 19.9584 11.171V11.0601C19.9584 10.4479 19.9003 9.85151 19.7895 9.28679C19.6787 8.72207 19.5203 8.18901 19.3198 7.68762" stroke="black" stroke-miterlimit="10" stroke-linecap="round" stroke-linejoin="round"/>
<path d="M20.5023 11.6012C20.4073 11.6698 20.2965 11.7015 20.1856 11.7015C20.0273 11.7015 19.8637 11.6329 19.7634 11.4904C19.5892 11.2581 19.6367 10.9256 19.869 10.7515C19.9323 10.704 21.2306 9.70648 21.2306 8.10731C21.2306 7.87509 21.2042 7.62703 21.1409 7.3737C20.9931 6.74036 20.6395 6.09647 20.0959 5.45259C19.8056 5.09897 19.4573 4.75064 19.0509 4.39703C18.5759 3.98009 18.0217 3.56314 17.3937 3.15147C14.7337 1.23564 10.6962 1.75814 9.65646 3.08286C9.50868 3.2887 9.42424 3.55259 9.42952 3.82175C9.42952 3.98536 9.46118 4.15953 9.51924 4.30731C9.5298 4.33897 9.54035 4.36536 9.55091 4.39703C9.67757 4.71897 9.83591 5.08842 10.1262 5.45259C10.179 5.5212 10.237 5.58453 10.3004 5.65314C11.6356 7.06231 14.6598 7.56897 19.2726 7.15731C19.4942 7.1362 19.7159 7.11509 19.9481 7.09398L20.0695 7.08342C20.3492 7.05703 20.6131 7.26814 20.6448 7.55842C20.658 7.69768 20.6154 7.8365 20.5264 7.94437C20.4373 8.05224 20.309 8.12034 20.1698 8.1337L20.0484 8.14425C19.8162 8.17064 19.584 8.19175 19.3623 8.20759C15.0187 8.59814 12.0315 8.20231 10.2687 6.9937C9.679 6.60731 9.19762 6.07688 8.87007 5.45259C8.73285 5.19925 8.63785 4.96175 8.55868 4.76648C8.55341 4.74009 8.54285 4.71897 8.5323 4.69259C8.49535 4.59759 8.46896 4.49731 8.44785 4.39703C8.39507 4.20703 8.37396 4.01703 8.37396 3.82703C8.37396 3.67397 8.38452 3.52092 8.41618 3.37314C8.47424 3.04592 8.60618 2.72925 8.81202 2.44953C10.1631 0.728975 14.8023 -0.0151921 17.9953 2.28064C19.0456 2.97203 19.9059 3.67925 20.5709 4.39703C20.8981 4.74536 21.1778 5.09897 21.4101 5.45259C21.7795 6.00675 22.0328 6.5662 22.1648 7.12564C22.8245 9.83314 20.5973 11.5273 20.5023 11.6012Z" fill="black"/>
<path d="M9.92005 5.54772C9.85123 5.53954 9.78146 5.54531 9.71491 5.56468C9.64836 5.58405 9.58639 5.61663 9.53271 5.66046C9.47902 5.7043 9.43471 5.7585 9.40242 5.81983C9.37013 5.88116 9.35053 5.94837 9.34478 6.01744C9.34478 6.02272 9.3395 6.06494 9.32894 6.14939C9.27089 6.59272 9.03867 8.118 8.48978 9.38467C8.39478 9.61161 8.28394 9.83328 8.16255 10.0338C8.05172 10.2238 7.93033 10.4033 7.79839 10.5616C7.62422 10.2186 7.40783 9.5905 7.35505 8.76189C7.297 7.8805 7.40783 6.68244 8.10978 5.45272C8.31983 5.07296 8.57308 4.71875 8.8645 4.39716C8.92255 4.32855 8.98061 4.26522 9.04394 4.19661C9.2445 3.9855 9.23394 3.653 9.02283 3.45244C8.94296 3.37688 8.84124 3.32853 8.73221 3.31431C8.62319 3.30009 8.51247 3.32073 8.41589 3.37328C8.36215 3.39682 8.31369 3.43092 8.27339 3.47355C7.98839 3.77439 7.74033 4.08578 7.52394 4.39716C7.28116 4.7455 7.08061 5.09911 6.92228 5.45272C5.9195 7.60078 6.26783 9.71716 6.75867 10.8255C7.04894 11.4905 7.39728 11.8283 7.79839 11.8283H7.80894C8.04117 11.8283 8.247 11.7016 8.37367 11.4905C8.62172 11.2477 8.83811 10.9574 9.02811 10.6355C9.27089 10.2397 9.46617 9.80161 9.63505 9.35828C9.957 8.498 10.1523 7.61661 10.2684 6.99383C10.3528 6.503 10.3898 6.1705 10.3951 6.12828C10.4214 5.838 10.2103 5.57939 9.92005 5.54772Z" fill="black"/>
<path d="M3.91436 26.6244C3.91436 26.6244 2.85881 19.7633 9.19214 19.7633C9.21853 19.7844 9.25019 19.8002 9.27658 19.8161C10.9021 20.898 12.3113 21.6422 13.8788 21.658H13.9421C15.4885 21.6422 16.8766 20.9191 18.4757 19.8636C18.5285 19.8319 18.576 19.8003 18.6288 19.7633C20.7346 19.7633 22.0224 20.5233 22.8088 21.5366L23.2205 22.2016" stroke="black" stroke-width="2" stroke-miterlimit="10" stroke-linecap="round" stroke-linejoin="round"/>
<path d="M13.8626 26.1859L13.9101 26.2545L13.8626 26.2703L10.754 27.1148L10.8015 24.5867L7.83539 24.7134L9.19178 19.9423L13.8626 26.1859Z" stroke="black" stroke-width="2" stroke-miterlimit="10" stroke-linecap="round" stroke-linejoin="round"/>
<path d="M13.863 26.1859L13.8102 26.2545L13.863 26.2703L16.9663 27.1148L16.9188 24.5867L19.8849 24.7134L18.5285 19.9423L13.863 26.1859Z" stroke="black" stroke-width="2" stroke-miterlimit="10" stroke-linecap="round" stroke-linejoin="round"/>
<path d="M22.9957 27.008C22.9324 27.008 22.8698 26.9944 22.8121 26.9682C22.7545 26.942 22.7031 26.9038 22.6614 26.8561C22.6197 26.8085 22.5887 26.7524 22.5704 26.6918C22.5522 26.6311 22.5471 26.5673 22.5555 26.5045L24.3347 12.5168L23.5889 26.5937C23.5731 26.827 23.23 27.008 22.9957 27.008Z" fill="black"/>
<path d="M22.9956 27.4045C22.8757 27.4047 22.7572 27.3791 22.6481 27.3296C22.5389 27.2801 22.4417 27.2078 22.3628 27.1175C22.2839 27.0272 22.2253 26.9211 22.1909 26.8063C22.1565 26.6915 22.1471 26.5707 22.1633 26.4519L23.9419 12.4668C23.9683 12.2557 24.1514 12.1027 24.3699 12.1227C24.472 12.1319 24.5666 12.1803 24.6337 12.2578C24.7009 12.3352 24.7353 12.4357 24.7299 12.5381L23.9841 26.615C23.9493 27.1259 23.3772 27.4045 22.9956 27.4045ZM23.3703 23.2351L22.9481 26.5548L22.9956 26.6129C23.069 26.6055 23.1385 26.5767 23.1956 26.53L23.3698 23.2351H23.3703Z" fill="black"/>
</svg>
