<svg width="92" height="92" viewBox="0 0 92 92" fill="none" xmlns="http://www.w3.org/2000/svg">
<rect width="92" height="92" rx="15" fill="white"/>
<path d="M14.7652 76.2513C14.7652 76.2513 12.2096 58.618 27.543 58.618C31.6216 61.3371 35.1151 63.2167 39.043 63.209H38.8832C42.8111 63.2167 45.6657 59.8038 49.7444 57.0859C66.7567 57.0859 63.6721 76.2526 63.6721 76.2526" fill="#9B9B9A"/>
<path d="M39.4453 70.3152L42.5311 76.1214L50.6731 57.4492L58.9238 69.9497L44.6676 75.2269" fill="#D0CFCE"/>
<path d="M41.8658 74.8351C41.1017 76.1576 35.6162 76.1576 34.8521 74.8351L32.4984 71.7557L28.1719 60.5879L38.3596 64.0379L48.0362 60.5879L43.8362 71.7557L41.8658 74.8351Z" fill="white"/>
<path d="M76.6487 75.783H56.8623V50.4805H76.3753C76.526 50.4805 76.6487 50.6019 76.6487 50.7539V75.783Z" fill="#D0CFCE"/>
<path d="M72.6746 78.9469H54.0088V54.7305H67.7487C69.0551 54.7305 70.308 55.2494 71.2318 56.1732C72.1556 57.097 72.6746 58.3499 72.6746 59.6563V78.9469Z" fill="white"/>
<path d="M35.4107 63.0664C35.4107 63.0664 33.8696 70.7599 38.3585 70.7599C42.8473 70.7599 41.3076 63.0664 41.3076 63.0664" fill="#3F3F3F"/>
<path d="M37.4041 71.1761C37.4988 71.0121 37.6349 70.8759 37.7989 70.7813C37.9629 70.6866 38.1489 70.6367 38.3382 70.6367C38.5275 70.6367 38.7135 70.6866 38.8775 70.7813C39.0415 70.8759 39.1776 71.0121 39.2723 71.1761L40.7609 73.7534L43.1823 76.2872H33.4941L35.9168 73.7534L37.4041 71.1761Z" fill="#3F3F3F"/>
<path d="M37.2724 70.7604L34.1865 74.9068L26.939 58.4043L21.8828 69.245L33.9668 74.9068" fill="#D0CFCE"/>
<path d="M27.6412 25.0567C27.6412 25.0567 40.5928 35.2278 41.072 28.1745C41.072 28.1745 47.8889 33.0377 52.595 33.0377C60.8149 33.0377 52.4276 17.091 38.3605 13.7177C34.3419 12.7568 25.7195 11.4752 25.7195 19.4166C25.7195 19.4166 15.9853 24.8228 24.0277 35.4527L24.144 35.0259C24.5452 31.0903 27.6412 25.0567 27.6412 25.0567Z" fill="#9B9B9A"/>
<path d="M27.5837 25.4453C25.368 28.627 24.0264 32.7836 24.0264 37.3312C24.0264 47.3336 30.5136 55.4412 38.5151 55.4412C46.5165 55.4412 53.0038 47.3336 53.0038 37.3312C53.0038 35.8515 52.8607 34.4128 52.5936 33.0366C48.7667 32.6405 44.9257 30.9193 41.0706 28.1721C40.8688 32.9727 34.9629 30.1897 27.5837 25.4453Z" fill="#DADADA"/>
<path d="M24.1248 35.2048C24.0585 35.9124 24.0252 36.6228 24.0251 37.3335C24.0251 47.336 30.5124 55.4435 38.5139 55.4435C46.5153 55.4435 53.0026 47.336 53.0026 37.3335C53.0026 35.8539 52.8595 34.4151 52.5924 33.0389" stroke="black" stroke-miterlimit="10" stroke-linecap="round" stroke-linejoin="round"/>
<path d="M46.1814 35.5925C46.1812 36.2704 45.9117 36.9205 45.4322 37.3998C44.9527 37.8791 44.3025 38.1482 43.6245 38.148C42.9466 38.1479 42.2965 37.8784 41.8172 37.3989C41.3379 36.9194 41.0688 36.2691 41.069 35.5912C41.0691 35.2555 41.1353 34.9231 41.2638 34.613C41.3923 34.3029 41.5807 34.0212 41.8181 33.7839C42.0555 33.5466 42.3374 33.3584 42.6475 33.23C42.9577 33.1016 43.2901 33.0356 43.6258 33.0356C43.9615 33.0357 44.2939 33.1019 44.604 33.2305C44.9141 33.359 45.1958 33.5474 45.4331 33.7848C45.6704 34.0222 45.8586 34.3041 45.987 34.6142C46.1154 34.9244 46.1814 35.2568 46.1814 35.5925Z" fill="black"/>
<path d="M35.9585 35.5925C35.9584 35.9282 35.8922 36.2605 35.7636 36.5706C35.6351 36.8807 35.4467 37.1625 35.2093 37.3998C34.9719 37.6371 34.6901 37.8253 34.3799 37.9537C34.0697 38.0821 33.7373 38.1481 33.4016 38.148C33.0659 38.148 32.7336 38.0818 32.4235 37.9532C32.1134 37.8247 31.8316 37.6363 31.5943 37.3989C31.357 37.1615 31.1688 36.8796 31.0404 36.5695C30.912 36.2593 30.846 35.9269 30.8461 35.5912C30.8462 34.9133 31.1157 34.2631 31.5952 33.7839C32.0747 33.3046 32.725 33.0355 33.4029 33.0356C34.0809 33.0358 34.731 33.3053 35.2102 33.7848C35.6895 34.2643 35.9586 34.9145 35.9585 35.5925Z" fill="black"/>
<path d="M38.5136 48.3749C37.0416 48.3749 35.5696 48.0095 34.1091 47.2786C33.9589 47.2036 33.825 47.0997 33.715 46.973C33.6049 46.8462 33.5209 46.699 33.4678 46.5398C33.4146 46.3805 33.3933 46.2124 33.4052 46.045C33.417 45.8775 33.4617 45.714 33.5367 45.5638C33.6117 45.4136 33.7155 45.2797 33.8423 45.1697C33.9691 45.0596 34.1163 44.9756 34.2755 44.9225C34.4347 44.8693 34.6029 44.848 34.7703 44.8599C34.9378 44.8717 35.1013 44.9164 35.2515 44.9914C37.4467 46.0903 39.5806 46.0903 41.7758 44.9914C42.0791 44.8399 42.4302 44.8151 42.7517 44.9225C42.911 44.9756 43.0582 45.0596 43.1849 45.1697C43.3117 45.2797 43.4156 45.4136 43.4906 45.5638C43.5656 45.714 43.6103 45.8775 43.6221 46.045C43.6339 46.2124 43.6126 46.3805 43.5595 46.5398C43.5063 46.699 43.4223 46.8462 43.3123 46.973C43.2022 47.0997 43.0683 47.2036 42.9181 47.2786C41.4576 48.0095 39.9856 48.3749 38.5136 48.3749Z" fill="black"/>
<path d="M72.6742 78.9484H54.0084V55.1357H69.1194V57.8344H72.6742V78.9484Z" stroke="black" stroke-miterlimit="10" stroke-linecap="round" stroke-linejoin="round"/>
<path d="M58.1016 50.7102H77.0459V74.5241" stroke="black" stroke-miterlimit="10" stroke-linecap="round" stroke-linejoin="round"/>
<path d="M69.1189 55.1357L72.6737 57.8344" stroke="black" stroke-miterlimit="10" stroke-linecap="round" stroke-linejoin="round"/>
<path d="M57.7705 63.0673H68.546" stroke="black" stroke-miterlimit="10" stroke-linecap="round" stroke-linejoin="round"/>
<path d="M57.7705 68.3014H68.546" stroke="black" stroke-miterlimit="10" stroke-linecap="round" stroke-linejoin="round"/>
<path d="M57.7705 72.8824H68.546" stroke="black" stroke-miterlimit="10" stroke-linecap="round" stroke-linejoin="round"/>
<path d="M35.4092 63.0673C35.4092 63.0673 33.8682 70.7608 38.357 70.7608C42.8459 70.7608 41.3061 63.0673 41.3061 63.0673" stroke="black" stroke-width="2" stroke-miterlimit="10" stroke-linecap="round" stroke-linejoin="round"/>
<path d="M49.7774 72.1317L42.443 74.9147" stroke="black" stroke-width="2" stroke-miterlimit="10" stroke-linecap="round" stroke-linejoin="round"/>
<path d="M27.6387 25.0567C27.6387 25.0567 40.5902 35.2278 41.0694 28.1745C41.0694 28.1745 47.8863 33.0377 52.5924 33.0377C60.8123 33.0377 52.425 17.091 38.3579 13.7177C34.3393 12.7568 25.7169 11.4752 25.7169 19.4166C25.7169 19.4166 15.9828 24.8228 24.0251 35.4527L24.1414 35.0259C24.5426 31.0903 27.6387 25.0567 27.6387 25.0567V25.0567Z" stroke="black" stroke-width="2" stroke-miterlimit="10" stroke-linecap="round" stroke-linejoin="round"/>
<path d="M14.1597 75.0158C14.1597 75.0158 11.6042 58.4047 26.9375 58.4047C31.0162 61.1238 34.5096 63.0021 38.4375 62.9944H38.2778C42.2057 63.0021 45.6991 61.1238 49.7778 58.4047" stroke="black" stroke-width="2" stroke-miterlimit="10" stroke-linecap="round" stroke-linejoin="round"/>
<path d="M37.2703 70.7608L34.1845 74.9072L26.9369 58.4047L21.8807 69.2453L33.9647 74.9072" stroke="black" stroke-width="2" stroke-miterlimit="10" stroke-linecap="round" stroke-linejoin="round"/>
<path d="M49.778 58.4047L42.5304 74.9072L39.4446 70.7608" stroke="black" stroke-width="2" stroke-miterlimit="10" stroke-linecap="round" stroke-linejoin="round"/>
</svg>
