<svg width="92" height="92" viewBox="0 0 92 92" fill="none" xmlns="http://www.w3.org/2000/svg">
<rect width="92" height="92" rx="15" fill="white"/>
<path d="M17.0316 85.4405V78.6939C17.0316 71.1294 24.6645 64.9961 32.2973 64.9961C41.3742 72.5605 50.4511 72.5605 59.7343 64.9961C67.3672 64.9961 75 71.1294 75 78.6939V85.4405" fill="#3F3F3F"/>
<path d="M27.7592 12.2504C27.7592 12.8637 54.9899 -1.65181 60.1473 15.1126C60.1473 15.1126 67.3675 18.5882 65.9235 30.446C65.7172 32.4904 65.7172 37.1926 63.6543 39.2371L57.878 24.7215C57.878 24.7215 42.6123 30.446 32.2977 23.4949L27.5529 38.8282C27.5529 38.8282 25.6963 36.1704 25.49 32.6949C25.49 32.6949 24.6648 24.5171 26.3152 21.6549C26.7277 21.6549 29.8221 16.3393 27.7592 12.2504Z" fill="#3F3F3F"/>
<path d="M57.8781 24.7228C57.8781 24.7228 42.6124 30.4472 32.2977 23.4961L27.9656 37.3983C28.5845 49.2561 36.4236 58.865 45.9131 58.865C54.99 58.865 62.4165 50.2783 63.6543 39.2383L57.8781 24.7228Z" fill="#DADADA"/>
<path d="M63.6554 33.5117V35.9651C63.6554 48.6406 55.61 59.0673 45.7079 59.0673C35.8058 59.0673 27.7604 48.6406 27.7604 35.9651V34.5339" stroke="black" stroke-miterlimit="10"/>
<path d="M27.7587 12.2504C27.7587 12.8637 54.9895 -1.65181 60.1468 15.1126C60.1468 15.1126 67.3671 18.5882 65.923 30.446C65.7167 32.4904 65.7167 37.1926 63.6538 39.2371L57.8776 24.7215C57.8776 24.7215 42.6119 30.446 32.2972 23.4949L27.5524 38.8282C27.5524 38.8282 25.6958 36.1704 25.4895 32.6949C25.4895 32.6949 24.6643 24.5171 26.3147 21.6549C26.7273 21.6549 29.8217 16.3393 27.7587 12.2504V12.2504Z" stroke="black" stroke-width="2" stroke-miterlimit="10" stroke-linejoin="round"/>
<path d="M54.5781 37.8056C54.5781 39.4411 53.3403 40.6678 51.69 40.6678C50.0396 40.6678 48.8019 39.4411 48.8019 37.8056C48.8019 36.17 50.0396 34.9434 51.69 34.9434C53.3403 34.9434 54.5781 36.17 54.5781 37.8056Z" fill="black"/>
<path d="M43.0243 37.8056C43.0243 39.4411 41.7865 40.6678 40.1362 40.6678C38.4858 40.6678 37.248 39.4411 37.248 37.8056C37.248 36.17 38.4858 34.9434 40.1362 34.9434C41.7865 34.9434 43.0243 36.17 43.0243 37.8056Z" fill="black"/>
<path d="M41.5808 49.4609C44.2626 50.892 47.5633 50.892 50.2451 49.4609" stroke="black" stroke-linecap="round" stroke-linejoin="round"/>
<path d="M17.0316 83.396V78.6938C17.0316 71.1294 24.6645 64.996 32.2973 64.996C41.3742 72.5605 50.4511 72.5605 59.7343 64.996C67.3672 64.996 75 71.1294 75 78.6938V83.396" stroke="black" stroke-width="2" stroke-linecap="round" stroke-linejoin="round"/>
</svg>
