<svg width="210" height="210" viewBox="0 0 210 210" fill="none" xmlns="http://www.w3.org/2000/svg">
<path d="M105.711 2.5C105.711 3.88075 104.592 5 103.211 5C101.83 5 100.711 3.88075 100.711 2.5C100.711 1.11925 101.83 0 103.211 0C104.592 0 105.711 1.11925 105.711 2.5Z" fill="url(#paint0_radial)"/>
<path d="M206.883 104.172C205.502 104.172 204.383 103.053 204.383 101.672C204.383 100.291 205.502 99.1719 206.883 99.1719C208.264 99.1719 209.383 100.291 209.383 101.672C209.383 103.053 208.264 104.172 206.883 104.172Z" fill="url(#paint1_radial)"/>
<path d="M203.66 130.656C202.326 130.3 201.534 128.93 201.89 127.596C202.246 126.262 203.616 125.469 204.95 125.825C206.284 126.181 207.077 127.551 206.72 128.885C206.364 130.219 204.994 131.012 203.66 130.656Z" fill="url(#paint2_radial)"/>
<path d="M193.707 155.257C192.511 154.568 192.1 153.039 192.789 151.843C193.478 150.646 195.006 150.235 196.203 150.924C197.399 151.613 197.811 153.142 197.121 154.338C196.432 155.535 194.904 155.946 193.707 155.257Z" fill="url(#paint3_radial)"/>
<path d="M177.589 176.61C176.613 175.633 176.613 174.05 177.589 173.074C178.566 172.098 180.148 172.098 181.125 173.074C182.101 174.05 182.101 175.633 181.125 176.61C180.148 177.586 178.566 177.586 177.589 176.61Z" fill="url(#paint4_radial)"/>
<path d="M156.477 193.102C155.784 191.908 156.19 190.378 157.384 189.684C158.577 188.991 160.107 189.396 160.801 190.59C161.494 191.784 161.089 193.314 159.895 194.008C158.701 194.701 157.171 194.295 156.477 193.102Z" fill="url(#paint5_radial)"/>
<path d="M131.897 203.496C131.536 202.164 132.324 200.791 133.656 200.43C134.989 200.068 136.362 200.856 136.723 202.189C137.084 203.521 136.297 204.894 134.964 205.255C133.631 205.617 132.258 204.829 131.897 203.496Z" fill="url(#paint6_radial)"/>
<path d="M105.246 207.118C105.251 205.738 106.375 204.623 107.756 204.628C109.136 204.633 110.251 205.757 110.246 207.138C110.241 208.518 109.117 209.633 107.736 209.628C106.356 209.623 105.241 208.499 105.246 207.118Z" fill="url(#paint7_radial)"/>
<path d="M78.7342 203.779C79.0954 202.447 80.4684 201.659 81.8011 202.02C83.1338 202.381 83.9213 203.754 83.5601 205.087C83.199 206.42 81.826 207.207 80.4933 206.846C79.1606 206.485 78.3731 205.112 78.7342 203.779Z" fill="url(#paint8_radial)"/>
<path d="M54.104 193.676C54.7975 192.483 56.3275 192.077 57.5214 192.77C58.7154 193.464 59.1211 194.994 58.4275 196.188C57.734 197.382 56.204 197.787 55.0101 197.094C53.8161 196.4 53.4105 194.87 54.104 193.676Z" fill="url(#paint9_radial)"/>
<path d="M32.9273 177.536C33.9072 176.563 35.49 176.569 36.4628 177.549C37.4356 178.529 37.4298 180.112 36.45 181.084C35.4701 182.057 33.8872 182.051 32.9144 181.072C31.9417 180.092 31.9474 178.509 32.9273 177.536Z" fill="url(#paint10_radial)"/>
<path d="M16.5753 156.459C17.7718 155.769 19.3003 156.181 19.9894 157.377C20.6785 158.574 20.2672 160.102 19.0707 160.791C17.8742 161.48 16.3457 161.069 15.6566 159.873C14.9675 158.676 15.3788 157.148 16.5753 156.459Z" fill="url(#paint11_radial)"/>
<path d="M6.33103 132.149C7.66508 131.793 9.03511 132.586 9.3912 133.92C9.74729 135.254 8.95456 136.624 7.62051 136.98C6.28646 137.336 4.91643 136.544 4.56034 135.21C4.20425 133.876 4.99698 132.505 6.33103 132.149Z" fill="url(#paint12_radial)"/>
<path d="M2.7065 105.073C4.08721 105.084 5.19778 106.212 5.18712 107.592C5.17646 108.973 4.04861 110.084 2.66789 110.073C1.28718 110.062 0.17661 108.934 0.187269 107.554C0.197929 106.173 1.32578 105.063 2.7065 105.073Z" fill="url(#paint13_radial)"/>
<path d="M6.11547 78.7073C7.44678 79.0735 8.2291 80.4495 7.86289 81.7809C7.49669 83.1122 6.12068 83.8945 4.78938 83.5283C3.45807 83.1621 2.67575 81.7861 3.04195 80.4548C3.40815 79.1235 4.78416 78.3411 6.11547 78.7073Z" fill="url(#paint14_radial)"/>
<path d="M16.0652 54.4757C17.2566 55.1736 17.6567 56.7051 16.9588 57.8965C16.2609 59.0879 14.7294 59.4879 13.538 58.79C12.3466 58.0921 11.9466 56.5606 12.6445 55.3692C13.3424 54.1778 14.8739 53.7778 16.0652 54.4757Z" fill="url(#paint15_radial)"/>
<path d="M32.4801 32.9671C33.4493 33.9505 33.4378 35.5333 32.4544 36.5025C31.471 37.4718 29.8882 37.4603 28.9189 36.4769C27.9497 35.4934 27.9612 33.9106 28.9446 32.9414C29.928 31.9722 31.5108 31.9837 32.4801 32.9671Z" fill="url(#paint16_radial)"/>
<path d="M53.2652 16.8634C53.9499 18.0625 53.533 19.5894 52.334 20.2741C51.1349 20.9588 49.608 20.5419 48.9233 19.3428C48.2386 18.1438 48.6555 16.6169 49.8546 15.9322C51.0536 15.2475 52.5806 15.6644 53.2652 16.8634Z" fill="url(#paint17_radial)"/>
<path d="M78.2599 6.4048C78.6058 7.74151 77.8027 9.10549 76.466 9.45144C75.1293 9.79739 73.7653 8.99427 73.4194 7.65756C73.0734 6.32085 73.8765 4.95687 75.2132 4.61092C76.5499 4.26497 77.9139 5.06809 78.2599 6.4048Z" fill="url(#paint18_radial)"/>
<path d="M131.382 6.41734C131.011 7.74725 129.632 8.52434 128.302 8.1531C126.972 7.78185 126.195 6.40289 126.566 5.07298C126.937 3.74307 128.316 2.96597 129.646 3.33722C130.976 3.70846 131.753 5.08743 131.382 6.41734Z" fill="url(#paint19_radial)"/>
<path d="M155.514 16.3899C154.812 17.5787 153.279 17.9731 152.09 17.2708C150.901 16.5686 150.507 15.0356 151.209 13.8468C151.911 12.658 153.444 12.2636 154.633 12.9659C155.822 13.6682 156.216 15.2011 155.514 16.3899Z" fill="url(#paint20_radial)"/>
<path d="M177.102 32.956C176.116 33.9217 174.533 33.9044 173.567 32.9175C172.601 31.9306 172.619 30.3478 173.606 29.3822C174.593 28.4165 176.175 28.4338 177.141 29.4207C178.107 30.4076 178.089 31.9904 177.102 32.956Z" fill="url(#paint21_radial)"/>
<path d="M193.21 53.9275C192.008 54.6077 190.483 54.1852 189.803 52.9836C189.122 51.7821 189.545 50.2567 190.746 49.5764C191.948 48.8962 193.473 49.3187 194.154 50.5203C194.834 51.7218 194.411 53.2472 193.21 53.9275Z" fill="url(#paint22_radial)"/>
<path d="M203.517 78.8599C202.179 79.2008 200.818 78.3925 200.477 77.0544C200.136 75.7164 200.944 74.3555 202.282 74.0146C203.62 73.6738 204.981 74.4821 205.322 75.8201C205.663 77.1581 204.855 78.519 203.517 78.8599Z" fill="url(#paint23_radial)"/>
<defs>
<radialGradient id="paint0_radial" cx="0" cy="0" r="1" gradientUnits="userSpaceOnUse" gradientTransform="translate(101.882 1.13924) scale(3.71729)">
<stop stop-color="white"/>
<stop offset="0.0544" stop-color="#FAE7FE"/>
<stop offset="0.4974" stop-color="#E7CEF6"/>
<stop offset="0.8253" stop-color="#948B9D"/>
<stop offset="1" stop-color="#6D617B"/>
</radialGradient>
<radialGradient id="paint1_radial" cx="0" cy="0" r="1" gradientUnits="userSpaceOnUse" gradientTransform="translate(208.244 100.343) rotate(90) scale(3.71729)">
<stop stop-color="white"/>
<stop offset="0.0544" stop-color="#FAE7FE"/>
<stop offset="0.4974" stop-color="#E7CEF6"/>
<stop offset="0.8253" stop-color="#948B9D"/>
<stop offset="1" stop-color="#6D617B"/>
</radialGradient>
<radialGradient id="paint2_radial" cx="0" cy="0" r="1" gradientUnits="userSpaceOnUse" gradientTransform="translate(205.963 127.307) rotate(104.945) scale(3.71729)">
<stop stop-color="white"/>
<stop offset="0.0544" stop-color="#FAE7FE"/>
<stop offset="0.4974" stop-color="#E7CEF6"/>
<stop offset="0.8253" stop-color="#948B9D"/>
<stop offset="1" stop-color="#6D617B"/>
</radialGradient>
<radialGradient id="paint3_radial" cx="0" cy="0" r="1" gradientUnits="userSpaceOnUse" gradientTransform="translate(196.798 152.618) rotate(119.939) scale(3.71729)">
<stop stop-color="white"/>
<stop offset="0.0544" stop-color="#FAE7FE"/>
<stop offset="0.4974" stop-color="#E7CEF6"/>
<stop offset="0.8253" stop-color="#948B9D"/>
<stop offset="1" stop-color="#6D617B"/>
</radialGradient>
<radialGradient id="paint4_radial" cx="0" cy="0" r="1" gradientUnits="userSpaceOnUse" gradientTransform="translate(181.259 174.864) rotate(135) scale(3.71729)">
<stop stop-color="white"/>
<stop offset="0.0544" stop-color="#FAE7FE"/>
<stop offset="0.4974" stop-color="#E7CEF6"/>
<stop offset="0.8253" stop-color="#948B9D"/>
<stop offset="1" stop-color="#6D617B"/>
</radialGradient>
<radialGradient id="paint5_radial" cx="0" cy="0" r="1" gradientUnits="userSpaceOnUse" gradientTransform="translate(160.472 192.355) rotate(149.85) scale(3.71729)">
<stop stop-color="white"/>
<stop offset="0.0544" stop-color="#FAE7FE"/>
<stop offset="0.4974" stop-color="#E7CEF6"/>
<stop offset="0.8253" stop-color="#948B9D"/>
<stop offset="1" stop-color="#6D617B"/>
</radialGradient>
<radialGradient id="paint6_radial" cx="0" cy="0" r="1" gradientUnits="userSpaceOnUse" gradientTransform="translate(135.949 203.808) rotate(164.837) scale(3.71729)">
<stop stop-color="white"/>
<stop offset="0.0544" stop-color="#FAE7FE"/>
<stop offset="0.4974" stop-color="#E7CEF6"/>
<stop offset="0.8253" stop-color="#948B9D"/>
<stop offset="1" stop-color="#6D617B"/>
</radialGradient>
<radialGradient id="paint7_radial" cx="0" cy="0" r="1" gradientUnits="userSpaceOnUse" gradientTransform="translate(109.07 208.494) rotate(-179.779) scale(3.71729)">
<stop stop-color="white"/>
<stop offset="0.0544" stop-color="#FAE7FE"/>
<stop offset="0.4974" stop-color="#E7CEF6"/>
<stop offset="0.8253" stop-color="#948B9D"/>
<stop offset="1" stop-color="#6D617B"/>
</radialGradient>
<radialGradient id="paint8_radial" cx="0" cy="0" r="1" gradientUnits="userSpaceOnUse" gradientTransform="translate(82.0743 206.094) rotate(-164.837) scale(3.71729)">
<stop stop-color="white"/>
<stop offset="0.0544" stop-color="#FAE7FE"/>
<stop offset="0.4974" stop-color="#E7CEF6"/>
<stop offset="0.8253" stop-color="#948B9D"/>
<stop offset="1" stop-color="#6D617B"/>
</radialGradient>
<radialGradient id="paint9_radial" cx="0" cy="0" r="1" gradientUnits="userSpaceOnUse" gradientTransform="translate(56.7318 196.777) rotate(-149.85) scale(3.71729)">
<stop stop-color="white"/>
<stop offset="0.0544" stop-color="#FAE7FE"/>
<stop offset="0.4974" stop-color="#E7CEF6"/>
<stop offset="0.8253" stop-color="#948B9D"/>
<stop offset="1" stop-color="#6D617B"/>
</radialGradient>
<radialGradient id="paint10_radial" cx="0" cy="0" r="1" gradientUnits="userSpaceOnUse" gradientTransform="translate(34.6595 181.212) rotate(-134.792) scale(3.71729)">
<stop stop-color="white"/>
<stop offset="0.0544" stop-color="#FAE7FE"/>
<stop offset="0.4974" stop-color="#E7CEF6"/>
<stop offset="0.8253" stop-color="#948B9D"/>
<stop offset="1" stop-color="#6D617B"/>
</radialGradient>
<radialGradient id="paint11_radial" cx="0" cy="0" r="1" gradientUnits="userSpaceOnUse" gradientTransform="translate(17.3073 160.456) rotate(-119.939) scale(3.71729)">
<stop stop-color="white"/>
<stop offset="0.0544" stop-color="#FAE7FE"/>
<stop offset="0.4974" stop-color="#E7CEF6"/>
<stop offset="0.8253" stop-color="#948B9D"/>
<stop offset="1" stop-color="#6D617B"/>
</radialGradient>
<radialGradient id="paint12_radial" cx="0" cy="0" r="1" gradientUnits="userSpaceOnUse" gradientTransform="translate(6.00388 136.2) rotate(-104.945) scale(3.71729)">
<stop stop-color="white"/>
<stop offset="0.0544" stop-color="#FAE7FE"/>
<stop offset="0.4974" stop-color="#E7CEF6"/>
<stop offset="0.8253" stop-color="#948B9D"/>
<stop offset="1" stop-color="#6D617B"/>
</radialGradient>
<radialGradient id="paint13_radial" cx="0" cy="0" r="1" gradientUnits="userSpaceOnUse" gradientTransform="translate(1.31622 108.892) rotate(-89.5577) scale(3.71729)">
<stop stop-color="white"/>
<stop offset="0.0544" stop-color="#FAE7FE"/>
<stop offset="0.4974" stop-color="#E7CEF6"/>
<stop offset="0.8253" stop-color="#948B9D"/>
<stop offset="1" stop-color="#6D617B"/>
</radialGradient>
<radialGradient id="paint14_radial" cx="0" cy="0" r="1" gradientUnits="userSpaceOnUse" gradientTransform="translate(3.78783 82.0387) rotate(-74.6201) scale(3.71729)">
<stop stop-color="white"/>
<stop offset="0.0544" stop-color="#FAE7FE"/>
<stop offset="0.4974" stop-color="#E7CEF6"/>
<stop offset="0.8253" stop-color="#948B9D"/>
<stop offset="1" stop-color="#6D617B"/>
</radialGradient>
<radialGradient id="paint15_radial" cx="0" cy="0" r="1" gradientUnits="userSpaceOnUse" gradientTransform="translate(12.9556 57.0921) rotate(-59.6388) scale(3.71729)">
<stop stop-color="white"/>
<stop offset="0.0544" stop-color="#FAE7FE"/>
<stop offset="0.4974" stop-color="#E7CEF6"/>
<stop offset="0.8253" stop-color="#948B9D"/>
<stop offset="1" stop-color="#6D617B"/>
</radialGradient>
<radialGradient id="paint16_radial" cx="0" cy="0" r="1" gradientUnits="userSpaceOnUse" gradientTransform="translate(28.7975 34.6859) rotate(-44.5837) scale(3.71729)">
<stop stop-color="white"/>
<stop offset="0.0544" stop-color="#FAE7FE"/>
<stop offset="0.4974" stop-color="#E7CEF6"/>
<stop offset="0.8253" stop-color="#948B9D"/>
<stop offset="1" stop-color="#6D617B"/>
</radialGradient>
<radialGradient id="paint17_radial" cx="0" cy="0" r="1" gradientUnits="userSpaceOnUse" gradientTransform="translate(49.2651 17.5807) rotate(-29.7279) scale(3.71729)">
<stop stop-color="white"/>
<stop offset="0.0544" stop-color="#FAE7FE"/>
<stop offset="0.4974" stop-color="#E7CEF6"/>
<stop offset="0.8253" stop-color="#948B9D"/>
<stop offset="1" stop-color="#6D617B"/>
</radialGradient>
<radialGradient id="paint18_radial" cx="0" cy="0" r="1" gradientUnits="userSpaceOnUse" gradientTransform="translate(74.2117 6.0469) rotate(-14.5102) scale(3.71729)">
<stop stop-color="white"/>
<stop offset="0.0544" stop-color="#FAE7FE"/>
<stop offset="0.4974" stop-color="#E7CEF6"/>
<stop offset="0.8253" stop-color="#948B9D"/>
<stop offset="1" stop-color="#6D617B"/>
</radialGradient>
<radialGradient id="paint19_radial" cx="0" cy="0" r="1" gradientUnits="userSpaceOnUse" gradientTransform="translate(128.06 4.07709) rotate(15.5971) scale(3.71729)">
<stop stop-color="white"/>
<stop offset="0.0544" stop-color="#FAE7FE"/>
<stop offset="0.4974" stop-color="#E7CEF6"/>
<stop offset="0.8253" stop-color="#948B9D"/>
<stop offset="1" stop-color="#6D617B"/>
</radialGradient>
<radialGradient id="paint20_radial" cx="0" cy="0" r="1" gradientUnits="userSpaceOnUse" gradientTransform="translate(152.909 13.2706) rotate(30.5721) scale(3.71729)">
<stop stop-color="white"/>
<stop offset="0.0544" stop-color="#FAE7FE"/>
<stop offset="0.4974" stop-color="#E7CEF6"/>
<stop offset="0.8253" stop-color="#948B9D"/>
<stop offset="1" stop-color="#6D617B"/>
</radialGradient>
<radialGradient id="paint21_radial" cx="0" cy="0" r="1" gradientUnits="userSpaceOnUse" gradientTransform="translate(175.397 29.2673) rotate(45.6245) scale(3.71729)">
<stop stop-color="white"/>
<stop offset="0.0544" stop-color="#FAE7FE"/>
<stop offset="0.4974" stop-color="#E7CEF6"/>
<stop offset="0.8253" stop-color="#948B9D"/>
<stop offset="1" stop-color="#6D617B"/>
</radialGradient>
<radialGradient id="paint22_radial" cx="0" cy="0" r="1" gradientUnits="userSpaceOnUse" gradientTransform="translate(192.507 49.9247) rotate(60.4833) scale(3.71729)">
<stop stop-color="white"/>
<stop offset="0.0544" stop-color="#FAE7FE"/>
<stop offset="0.4974" stop-color="#E7CEF6"/>
<stop offset="0.8253" stop-color="#948B9D"/>
<stop offset="1" stop-color="#6D617B"/>
</radialGradient>
<radialGradient id="paint23_radial" cx="0" cy="0" r="1" gradientUnits="userSpaceOnUse" gradientTransform="translate(203.89 74.8131) rotate(75.7074) scale(3.71729)">
<stop stop-color="white"/>
<stop offset="0.0544" stop-color="#FAE7FE"/>
<stop offset="0.4974" stop-color="#E7CEF6"/>
<stop offset="0.8253" stop-color="#948B9D"/>
<stop offset="1" stop-color="#6D617B"/>
</radialGradient>
</defs>
</svg>
