<svg width="199" height="186" viewBox="0 0 199 186" fill="none" xmlns="http://www.w3.org/2000/svg">
<g opacity="0.7">
<g opacity="0.7" filter="url(#filter0_d)">
<path d="M178.824 103.801C186.476 78.8738 161.508 61.7692 141.177 45.4484C120.847 29.1264 131.721 1.52474 105.884 4.97811C83.6609 7.94844 30.3354 33.3511 16.3534 50.8849C9.92971 58.942 6.0998 72.2169 14.2874 78.4729C24.1266 85.989 31.3166 84.1774 42.8252 88.7421C52.9761 92.7683 49.1573 106.256 47.0605 116.977C44.9637 127.699 53.9205 129.768 58.7186 139.581C63.2344 148.815 74.4939 153.137 84.7511 152.525C96.144 151.846 106.735 146.019 118.055 144.251C123.725 143.365 129.317 143.741 134.997 142.739C141.255 141.635 147.197 139.409 152.433 135.769C161.84 129.228 175.454 114.781 178.824 103.801Z" fill="url(#paint0_linear)"/>
</g>
<g filter="url(#filter1_d)">
<path d="M30.8831 83.3774C34.1865 83.986 37.1152 86.3672 38.3899 89.4793C41.1008 96.0988 36.3462 103.599 37.5988 110.637C37.999 112.888 39.0023 115.24 38.1577 117.359C37.1655 119.845 33.9013 120.762 31.3376 119.975C28.7739 119.19 26.796 117.164 25.0513 115.124C21.7107 111.219 18.7122 106.836 17.5305 101.838C15.5427 93.4405 20.5229 81.4674 30.8831 83.3774Z" fill="url(#paint1_linear)"/>
</g>
<g filter="url(#filter2_d)">
<path d="M37.7821 31.6228C36.1335 29.3186 36.2476 25.8675 38.1591 23.753C40.071 21.6393 43.6358 21.205 45.8963 22.9175C47.1795 23.8895 48.0031 25.5753 47.609 27.1394C47.2772 28.4573 46.238 29.3383 45.2854 30.2279C44.4497 31.0079 43.9902 31.878 43.2973 32.7506C41.7236 34.7325 38.9951 33.3181 37.7821 31.6228Z" fill="url(#paint2_linear)"/>
</g>
<g filter="url(#filter3_d)">
<path d="M32.115 125.363C32.6719 124.839 33.5151 124.615 34.2272 124.872C35.0969 125.187 35.6267 126.209 35.4374 127.124C35.247 128.038 34.3944 128.76 33.4705 128.842C31.2822 129.036 30.62 126.772 32.115 125.363Z" fill="url(#paint3_linear)"/>
</g>
<g filter="url(#filter4_d)">
<path d="M53.5518 137.526C56.4445 134.804 60.8245 133.642 64.5233 134.98C69.0411 136.615 71.793 141.923 70.81 146.673C69.8208 151.425 65.3921 155.173 60.5929 155.597C49.2259 156.608 45.7861 144.847 53.5518 137.526Z" fill="url(#paint4_linear)"/>
</g>
<g filter="url(#filter5_d)">
<path d="M11.0803 71.8295C12.796 70.215 15.394 69.5253 17.5879 70.3191C20.2675 71.2889 21.8998 74.4371 21.3167 77.2545C20.73 80.0732 18.1032 82.2964 15.2566 82.548C8.51449 83.1477 6.47423 76.1715 11.0803 71.8295Z" fill="url(#paint5_linear)"/>
</g>
<g filter="url(#filter6_d)">
<path d="M43.9592 36.9222C43.7526 37.2947 41.8369 38.6592 41.4154 38.6433C40.9005 38.6239 40.5193 37.4875 40.4646 36.9702C40.4104 36.4525 40.7403 35.925 41.2166 35.7249C42.3446 35.2504 44.5132 35.9209 43.9592 36.9222Z" fill="url(#paint6_linear)"/>
</g>
<g filter="url(#filter7_d)">
<path d="M169.168 89.8997C169.725 89.3757 170.568 89.1518 171.28 89.4095C172.15 89.7242 172.679 90.7461 172.49 91.6605C172.3 92.5754 171.447 93.297 170.523 93.3787C168.335 93.5733 167.673 91.309 169.168 89.8997Z" fill="url(#paint7_linear)"/>
</g>
<g filter="url(#filter8_d)">
<path d="M169.423 95.8412C167.409 96.1413 165.684 97.5263 163.661 97.765C161.415 98.0306 158.903 96.8877 156.988 98.0669C155.572 98.9389 155.096 100.878 155.574 102.474C156.052 104.07 157.3 105.343 158.689 106.281C161.58 108.232 165.345 108.962 168.66 107.938C171.792 106.97 174.612 104.18 175.39 100.959C176.137 97.8694 172.24 95.4212 169.423 95.8412Z" fill="url(#paint8_linear)"/>
</g>
<g filter="url(#filter9_d)">
<path d="M40.6426 84.9099C41.6088 84.2701 43.0893 84.6642 43.6312 85.6882C44.1737 86.7126 43.6867 88.1378 42.6426 88.6393C41.5978 89.1405 40.198 88.6508 39.6703 87.6182C39.1426 86.5856 39.5491 85.1858 40.5334 84.574" fill="url(#paint9_linear)"/>
</g>
<path d="M144.8 55.4643L133.328 62.1401L133.096 62.2749L100.036 81.5133L99.805 81.6476L66.7438 100.886L66.513 101.021L59.4971 105.103C59.63 105.176 59.7654 105.243 59.8974 105.316L66.7066 101.353L66.9374 101.219L99.9986 81.9803L100.229 81.846L133.29 62.6076L133.521 62.4728L145.118 55.7242C145.013 55.6382 144.907 55.5507 144.8 55.4643Z" fill="url(#paint10_linear)"/>
<path d="M129.453 55.4819L129.222 55.6167L96.1614 74.8551L95.9307 74.9894L62.8695 94.2283L62.6387 94.3626L50.8516 101.222C51.0088 101.277 51.1636 101.338 51.3204 101.394L62.8314 94.6958L63.0622 94.5615L96.1234 75.3227L96.3541 75.1884L129.414 55.95L129.646 55.8152L138.339 50.7568C138.218 50.678 138.096 50.6017 137.975 50.5228L129.453 55.4819Z" fill="url(#paint11_linear)"/>
<path d="M125.578 48.824L125.346 48.9589L92.286 68.1972L92.0552 68.3315L58.9941 87.5704L58.7633 87.7047L34.4521 101.852C34.5428 101.948 34.6326 102.045 34.7242 102.14L58.9575 88.0384L59.1882 87.9041L92.2494 68.6652L92.4802 68.5309L125.54 49.2925L125.772 49.1577L130.766 46.2518C130.633 46.179 130.499 46.1092 130.365 46.0384L125.578 48.824Z" fill="url(#paint12_linear)"/>
<path d="M121.704 42.1654L121.472 42.3002L88.4122 61.5386L88.1814 61.6729L55.1203 80.9118L54.8895 81.0461L29.4365 95.8576C29.5142 95.9613 29.5928 96.0644 29.6705 96.1681L55.0837 81.3797L55.3144 81.2454L88.3756 62.0065L88.6064 61.8722L121.667 42.6339L121.898 42.4991L122.521 42.1366C122.379 42.0707 122.236 42.0048 122.093 41.9389L121.704 42.1654Z" fill="url(#paint13_linear)"/>
<path d="M131.391 58.8119L131.159 58.9467L98.099 78.1851L97.8682 78.3194L64.807 97.5583L64.5762 97.6926L55.3906 103.038C55.5321 103.102 55.6698 103.174 55.8104 103.239L64.7699 98.0253L65.0006 97.891L98.0618 78.6521L98.2926 78.5178L131.353 59.2795L131.585 59.1446L141.832 53.1813C141.719 53.0981 141.607 53.0144 141.494 52.9327L131.391 58.8119Z" fill="url(#paint14_linear)"/>
<path d="M127.516 52.1528L127.285 52.2876L94.2245 71.526L93.9938 71.6602L60.9326 90.8991L60.7018 91.0334L45.7422 99.7387C45.9211 99.7797 46.0974 99.831 46.2759 99.8735L60.8954 91.3662L61.1262 91.2319L94.1874 71.993L94.4182 71.8587L127.478 52.6203L127.71 52.4855L134.643 48.4513C134.516 48.3762 134.391 48.3001 134.264 48.2265L127.516 52.1528Z" fill="url(#paint15_linear)"/>
<path d="M123.642 45.4946L123.41 45.6294L90.3497 64.8678L90.1189 65.0021L57.0578 84.241L56.827 84.3752L31.8467 98.9117C31.9309 99.0116 32.0132 99.1126 32.0974 99.2125L57.0211 84.7089L57.2519 84.5746L90.3131 65.3357L90.5439 65.2014L123.604 45.9631L123.836 45.8282L126.715 44.1526C126.577 44.0839 126.44 44.0148 126.303 43.9462L123.642 45.4946Z" fill="url(#paint16_linear)"/>
<path d="M167.947 86.5601L152.701 95.4321L152.469 95.5669L119.409 114.805L119.178 114.94L91.1377 131.257C91.2349 131.349 91.332 131.442 91.4277 131.534L119.372 115.272L119.603 115.138L152.663 95.8996L152.895 95.7648L168.096 86.9188C168.047 86.7998 167.997 86.68 167.947 86.5601Z" fill="url(#paint17_linear)"/>
<path d="M148.826 88.7737L148.594 88.9086L115.534 108.147L115.303 108.281L85.3721 125.699C85.4683 125.792 85.5645 125.885 85.6608 125.977L115.498 108.615L115.728 108.481L148.789 89.2422L149.02 89.1074L164.821 79.9129C164.76 79.799 164.7 79.6851 164.64 79.5712L148.826 88.7737Z" fill="url(#paint18_linear)"/>
<path d="M144.952 82.1156L144.72 82.2504L111.66 101.489L111.429 101.623L79.5488 120.175C79.6478 120.266 79.7459 120.358 79.8449 120.449L111.623 101.957L111.854 101.822L144.914 82.5841L145.146 82.4493L160.9 73.2818C160.83 73.1738 160.76 73.0653 160.689 72.9578L144.952 82.1156Z" fill="url(#paint19_linear)"/>
<path d="M141.078 75.4574L140.846 75.5923L107.786 94.8306L107.555 94.9649L74.4939 114.204L74.2631 114.338L73.4521 114.81C73.5567 114.898 73.6613 114.986 73.7659 115.074L74.4573 114.672L74.688 114.537L107.749 95.2986L107.98 95.1643L141.04 75.9259L141.272 75.7911L156.334 67.0259C156.253 66.9244 156.173 66.8218 156.09 66.7214L141.078 75.4574Z" fill="url(#paint20_linear)"/>
<path d="M137.203 68.7992L136.971 68.934L103.911 88.1724L103.68 88.3067L70.6189 107.546L70.3881 107.68L66.8662 109.729C66.9804 109.81 67.093 109.895 67.2072 109.976L70.5817 108.013L70.8125 107.878L103.874 88.6394L104.104 88.5051L137.165 69.2668L137.396 69.1319L151.095 61.1607C151.001 61.0662 150.905 60.9733 150.811 60.8803L137.203 68.7992Z" fill="url(#paint21_linear)"/>
<path d="M150.764 92.103L150.533 92.2379L117.472 111.476L117.242 111.611L88.25 128.481C88.3462 128.574 88.4425 128.667 88.5387 128.76L117.436 111.944L117.666 111.81L150.727 92.5715L150.958 92.4367L166.541 83.369C166.486 83.2518 166.431 83.1352 166.376 83.0181L150.764 92.103Z" fill="url(#paint22_linear)"/>
<path d="M146.889 85.4447L146.657 85.5795L113.597 104.818L113.366 104.952L82.4814 122.925C82.5786 123.017 82.6762 123.108 82.7738 123.201L113.561 105.286L113.791 105.152L146.852 85.9132L147.083 85.7784L162.941 76.5505C162.875 76.4398 162.811 76.3286 162.745 76.2179L146.889 85.4447Z" fill="url(#paint23_linear)"/>
<path d="M143.015 78.7865L142.783 78.9213L109.723 98.1597L109.492 98.294L76.5488 117.464C76.6506 117.554 76.7537 117.642 76.8561 117.732L109.686 98.6276L109.917 98.4933L142.977 79.255L143.209 79.1201L158.699 70.1064C158.623 70.0016 158.549 69.8958 158.471 69.7921L143.015 78.7865Z" fill="url(#paint24_linear)"/>
<path d="M139.14 72.1284L138.908 72.2632L105.848 91.5016L105.617 91.6359L72.5559 110.875L72.3252 111.009L70.2324 112.227C70.3416 112.312 70.454 112.394 70.5638 112.481L72.5193 111.343L72.7501 111.208L105.811 91.9695L106.042 91.8352L139.102 72.5969L139.334 72.462L153.802 64.0426C153.715 63.9449 153.627 63.8471 153.538 63.7499L139.14 72.1284Z" fill="url(#paint25_linear)"/>
<path d="M135.266 65.4702L135.034 65.605L101.974 84.8433L101.743 84.9776L68.6817 104.217L68.451 104.351L63.2988 107.349C63.4219 107.426 63.5436 107.503 63.6658 107.581L68.6446 104.684L68.8754 104.549L101.937 85.3104L102.167 85.1761L135.228 65.9377L135.459 65.8029L148.204 58.3866C148.104 58.2959 148.004 58.2066 147.903 58.1164L135.266 65.4702Z" fill="url(#paint26_linear)"/>
<path d="M168.2 122.066L167.968 122.201L134.908 141.439L134.677 141.573L118 151.278C118.143 151.343 118.286 151.409 118.429 151.474L134.87 141.906L135.1 141.772L168.161 122.534L168.392 122.399L173.566 119.388C173.579 119.233 173.587 119.079 173.598 118.924L168.2 122.066Z" fill="url(#paint27_linear)"/>
<path d="M164.325 115.408L164.093 115.542L131.033 134.781L130.802 134.915L110.149 146.933C110.27 147.011 110.388 147.094 110.509 147.17L130.996 135.248L131.227 135.113L164.287 115.875L164.519 115.74L173.625 110.441C173.615 110.299 173.603 110.156 173.592 110.015L164.325 115.408Z" fill="url(#paint28_linear)"/>
<path d="M160.45 108.749L160.219 108.884L127.158 128.123L126.928 128.257L103.294 142.01C103.402 142.096 103.51 142.182 103.618 142.266L127.12 128.59L127.351 128.456L160.411 109.217L160.643 109.083L172.577 102.138C172.552 102.004 172.53 101.869 172.505 101.734L160.45 108.749Z" fill="url(#paint29_linear)"/>
<path d="M156.576 102.09L156.344 102.225L123.284 121.463L123.053 121.598L97.041 136.734C97.1419 136.825 97.2427 136.915 97.3431 137.004L123.246 121.93L123.477 121.796L156.538 102.558L156.769 102.423L170.702 94.3152C170.664 94.1883 170.624 94.064 170.586 93.9372L156.576 102.09Z" fill="url(#paint30_linear)"/>
<path d="M170.137 125.395L169.906 125.53L136.845 144.768L136.614 144.902L122.502 153.115C122.662 153.172 122.823 153.225 122.982 153.281L136.808 145.235L137.039 145.101L170.099 125.862L170.331 125.728L172.942 124.208C172.971 124.044 172.999 123.878 173.027 123.713L170.137 125.395Z" fill="url(#paint31_linear)"/>
<path d="M166.263 118.737L166.031 118.871L132.971 138.11L132.74 138.244L113.904 149.205C114.036 149.277 114.169 149.348 114.3 149.42L132.933 138.577L133.163 138.443L166.224 119.205L166.455 119.07L173.758 114.821C173.759 114.671 173.762 114.521 173.761 114.373L166.263 118.737Z" fill="url(#paint32_linear)"/>
<path d="M162.388 112.078L162.156 112.213L129.096 131.452L128.865 131.586L106.626 144.527C106.741 144.609 106.857 144.689 106.972 144.771L129.058 131.919L129.289 131.784L162.349 112.546L162.581 112.411L173.213 106.224C173.195 106.086 173.179 105.948 173.161 105.809L162.388 112.078Z" fill="url(#paint33_linear)"/>
<path d="M158.513 105.42L158.281 105.555L125.221 124.793L124.99 124.928L100.104 139.41C100.208 139.498 100.315 139.583 100.419 139.671L125.184 125.26L125.415 125.126L158.475 105.888L158.707 105.753L171.738 98.1701C171.706 98.0394 171.673 97.9108 171.641 97.7807L158.513 105.42Z" fill="url(#paint34_linear)"/>
<path d="M154.639 98.7621L154.407 98.8969L121.347 118.135L121.116 118.27L94.0576 134.015C94.1566 134.106 94.2547 134.198 94.3537 134.29L121.311 118.603L121.542 118.468L154.602 99.23L154.834 99.0952L169.487 90.5684C169.443 90.4448 169.398 90.3222 169.354 90.1992L154.639 98.7621Z" fill="url(#paint35_linear)"/>
<path d="M171.89 128.831L171.842 128.859L138.782 148.097L138.551 148.231L127.539 154.64C127.72 154.684 127.903 154.726 128.085 154.768L138.746 148.565L138.976 148.431L171.735 129.368C171.787 129.189 171.839 129.011 171.89 128.831Z" fill="url(#paint36_linear)"/>
<path d="M142.426 154.89L140.651 155.922C140.946 155.904 141.239 155.882 141.533 155.856L142.62 155.223L142.851 155.089L165.742 141.769C165.922 141.518 166.102 141.266 166.276 141.011L142.657 154.755L142.426 154.89Z" fill="url(#paint37_linear)"/>
<path d="M140.49 151.562L133.369 155.705C133.582 155.73 133.794 155.758 134.007 155.78L140.683 151.894L140.914 151.76L169.632 135.048C169.722 134.851 169.805 134.65 169.892 134.452L140.721 151.427L140.49 151.562Z" fill="url(#paint38_linear)"/>
<path d="M45.9569 19.3966L32.9769 26.9498C32.4832 27.3699 31.9968 27.8006 31.5217 28.242L47.7215 18.8151C47.1289 18.995 46.5405 19.1885 45.9569 19.3966Z" fill="url(#paint39_linear)"/>
<path d="M27.9603 34.7712L28.1911 34.6369L58.0408 17.2668C57.7837 17.2663 57.5261 17.2648 57.2698 17.27L27.9984 34.3036L27.7676 34.4379L24.8463 36.1379C24.689 36.3771 24.5306 36.6144 24.3782 36.8557L27.9603 34.7712Z" fill="url(#paint40_linear)"/>
<path d="M47.333 68.063L47.5637 67.9287L80.6249 48.6898L80.8557 48.5555L104.889 34.5702C104.74 34.5081 104.592 34.4454 104.443 34.3827L80.6624 48.2213L80.4317 48.3556L47.3705 67.5945L47.1397 67.7288L21.8443 82.4487C21.8933 82.569 21.9441 82.6884 21.994 82.8082L47.333 68.063Z" fill="url(#paint41_linear)"/>
<path d="M43.4585 61.4048L43.6893 61.2705L76.7504 42.0316L76.9812 41.8973L96.0753 30.7861C95.9309 30.7213 95.7865 30.6564 95.6421 30.5916L76.788 41.5631L76.5572 41.6974L43.496 60.9363L43.2653 61.0706L19.3906 74.9637C19.4238 75.0932 19.4608 75.2206 19.494 75.3502L43.4585 61.4048Z" fill="url(#paint42_linear)"/>
<path d="M39.5846 54.7466L39.8154 54.6123L72.8765 35.3734L73.1073 35.2391L87.6202 26.7938C87.4814 26.7257 87.3434 26.6571 87.2051 26.59L72.9146 34.9059L72.6838 35.0402L39.6227 54.279L39.3919 54.4133L17.9557 66.8874C17.9704 67.0278 17.9817 67.1688 17.9973 67.3086L39.5846 54.7466Z" fill="url(#paint43_linear)"/>
<path d="M35.7094 48.0883L35.9402 47.954L69.0013 28.7151L69.2321 28.5808L79.2185 22.7696C79.075 22.7042 78.9315 22.6388 78.7885 22.5744L69.0385 28.2481L68.8077 28.3824L35.7465 47.6213L35.5158 47.7556L17.7664 58.0842C17.7565 58.2377 17.747 58.392 17.7385 58.5459L35.7094 48.0883Z" fill="url(#paint44_linear)"/>
<path d="M31.8346 41.4293L32.0653 41.295L65.1265 22.0561L65.3573 21.9218L70.0136 19.2122C69.8445 19.1605 69.6743 19.1131 69.5039 19.0634L65.1637 21.5891L64.9329 21.7234L31.8717 40.9622L31.6409 41.0965L19.4117 48.213C19.3622 48.3881 19.3172 48.5645 19.2698 48.7409L31.8346 41.4293Z" fill="url(#paint45_linear)"/>
<path d="M45.3957 64.7339L45.6265 64.5996L78.6876 45.3607L78.9184 45.2265L100.45 32.6968C100.303 32.6336 100.155 32.5709 100.008 32.5071L78.7252 44.8923L78.4944 45.0266L45.4332 64.2654L45.2024 64.3997L20.503 78.7728C20.5436 78.8981 20.5827 79.0229 20.6248 79.1485L45.3957 64.7339Z" fill="url(#paint46_linear)"/>
<path d="M41.522 58.0757L41.7528 57.9414L74.8139 38.7025L75.0447 38.5682L91.7968 28.8199C91.6561 28.7529 91.5163 28.6853 91.3765 28.6178L74.8515 38.234L74.6207 38.3683L41.5595 57.6072L41.3288 57.7415L18.5385 71.0035C18.5634 71.138 18.5877 71.2714 18.6131 71.4068L41.522 58.0757Z" fill="url(#paint47_linear)"/>
<path d="M37.6467 51.4175L37.8775 51.2832L70.9387 32.0443L71.1694 31.91L83.4589 24.7585C83.3191 24.691 83.1794 24.6235 83.0401 24.5569L70.9767 31.5768L70.746 31.7111L37.6848 50.9499L37.454 51.0842L17.6796 62.5913C17.6832 62.7381 17.6852 62.8846 17.6897 63.0308L37.6467 51.4175Z" fill="url(#paint48_linear)"/>
<path d="M33.7727 44.7592L34.0035 44.6249L67.0646 25.386L67.2954 25.2517L74.7914 20.8897C74.6387 20.8297 74.4872 20.7677 74.3355 20.7096L67.1018 24.919L66.871 25.0533L33.8098 44.2922L33.5791 44.4265L18.3006 53.3173C18.2745 53.4814 18.2436 53.6458 18.218 53.8108L33.7727 44.7592Z" fill="url(#paint49_linear)"/>
<path d="M29.8981 38.101L30.1289 37.9668L63.1901 18.7279L63.4209 18.5936L64.6331 17.8881C64.4363 17.8526 64.239 17.8185 64.0428 17.7862L63.2272 18.2608L62.9965 18.3951L29.9353 37.634L29.7045 37.7683L21.366 42.6207C21.2828 42.8167 21.1997 43.0127 21.1194 43.2096L29.8981 38.101Z" fill="url(#paint50_linear)"/>
<path d="M52.8359 109.427L52.6024 109.117L46.8154 112.485C46.9321 112.566 47.05 112.645 47.1675 112.725L52.8359 109.427Z" fill="url(#paint51_linear)"/>
<path d="M48.1544 103.238L47.92 102.929L40.2451 107.395C40.3478 107.484 40.4496 107.574 40.5527 107.662L48.1544 103.238Z" fill="url(#paint52_linear)"/>
<path d="M51.208 74.7212L51.4388 74.5869L84.4999 55.348L84.7307 55.2137L113.805 38.295C113.657 38.2323 113.509 38.1691 113.361 38.1064L84.5375 54.8795L84.3067 55.0138L51.2455 74.2527L51.0148 74.387L25.2133 89.4013C25.2771 89.5131 25.3427 89.6237 25.4075 89.735L51.208 74.7212Z" fill="url(#paint53_linear)"/>
<path d="M50.4957 106.332L50.2614 106.023L43.4326 109.997C43.5428 110.082 43.6523 110.165 43.7625 110.25L50.4957 106.332Z" fill="url(#paint54_linear)"/>
<path d="M37.5418 104.957L45.8117 100.145L45.5782 99.8351L37.248 104.683C37.3447 104.774 37.4446 104.865 37.5418 104.957Z" fill="url(#paint55_linear)"/>
<path d="M53.1452 78.0512L53.3759 77.9169L86.4371 58.678L86.6679 58.5437L118.206 40.1909C118.061 40.1266 117.915 40.0629 117.768 39.9991L86.4746 58.2095L86.2439 58.3438L53.1827 77.5827L52.9519 77.717L27.2246 92.6882C27.2949 92.7962 27.3633 92.9052 27.4345 93.0127L53.1452 78.0512Z" fill="url(#paint56_linear)"/>
<path d="M23.5877 86.339L49.2724 71.3926L49.5032 71.2583L82.5643 52.0194L82.7951 51.8851L109.356 36.4291C109.207 36.3669 109.058 36.3048 108.908 36.2426L82.601 51.5515L82.3702 51.6857L49.309 70.9246L49.0782 71.0589L23.4195 85.9902C23.4759 86.1063 23.5304 86.2234 23.5877 86.339Z" fill="url(#paint57_linear)"/>
<path d="M57.5184 115.614L57.284 115.305L54.2061 117.097C54.3366 117.169 54.4662 117.243 54.5971 117.314L57.5184 115.614Z" fill="url(#paint58_linear)"/>
<path d="M59.8592 118.709L59.6243 118.399L58.2285 119.211C58.3665 119.28 58.5035 119.349 58.6414 119.418L59.8592 118.709Z" fill="url(#paint59_linear)"/>
<path d="M50.4053 114.852C50.5284 114.929 50.6519 115.005 50.7759 115.082L55.1773 112.52L54.9429 112.212L50.4053 114.852Z" fill="url(#paint60_linear)"/>
</g>
<path d="M112.994 25.2147H76.9658V115.855H112.994V25.2147Z" fill="#997B71"/>
<path d="M111.88 26.3594H78.2227V114.71H111.88V26.3594Z" fill="#E0EFF1"/>
<path d="M92.4028 49.0855C92.4018 50.5126 91.9601 51.9136 91.1228 53.1446C90.2856 54.3756 89.0832 55.3921 87.6392 56.0896C86.1953 56.7871 84.5619 57.1404 82.907 57.1131C81.2522 57.0858 79.6356 56.679 78.2236 55.9345V42.2322C79.636 41.4875 81.253 41.0806 82.9083 41.0536C84.5636 41.0265 86.1973 41.3802 87.6414 42.0782C89.0856 42.7762 90.2879 43.7933 91.1248 45.0249C91.9616 46.2565 92.4027 47.6581 92.4028 49.0855Z" fill="#E4B083"/>
<path opacity="0.79" d="M81.1582 56.8702C81.1674 56.2696 83.372 55.8977 83.7996 55.6022C84.2272 55.3067 85.3343 54.318 86.6527 54.2985C87.9711 54.279 89.7899 55.94 90.1252 55.9438C90.4604 55.9476 90.8725 55.3516 91.2913 55.3564C91.7101 55.3611 92.3394 56.3386 92.7046 56.3428C93.0698 56.3469 93.3592 54.964 94.3653 54.9524C95.3714 54.9407 96.7037 56.0763 96.8294 56.0778C96.9551 56.0792 97.3602 55.9219 97.7246 55.9147C98.0014 55.9091 101.962 56.8793 101.29 56.8765C99.3875 56.8688 81.157 56.951 81.1582 56.8702Z" fill="white"/>
<path opacity="0.79" d="M111.88 46.8805V47.7852C106.795 47.7939 101.168 47.8027 100.296 47.7983C99.6216 47.7983 103.586 47.0334 103.865 47.0378C104.23 47.0422 104.63 47.1646 104.757 47.1646C104.884 47.1602 106.222 46.2729 107.226 46.2817C108.23 46.2861 108.518 47.3612 108.883 47.3612C109.249 47.3569 109.877 46.592 110.298 46.5876C110.719 46.5833 111.129 47.0466 111.464 47.0422C111.54 47.0422 111.682 46.9766 111.88 46.8805Z" fill="white"/>
<path d="M91.0193 67.0679C91.162 67.115 84.5678 67.0627 78.2227 66.9894V64.5917C79.8773 64.7356 80.618 66.1072 81.6108 66.0627C82.6187 66.0156 83.1774 64.7042 84.4494 64.8011C85.7215 64.8927 85.8885 65.78 86.2953 65.8926C86.6961 66.0078 86.523 65.678 87.4763 65.8141C88.4296 65.9449 89.4163 66.5444 91.0193 67.0679Z" fill="#FDFEFE"/>
<path d="M111.879 57.3396V114.71H91.6424C88.7884 111.764 94.8716 102.249 93.5435 98.149C92.2102 94.0537 97.1529 90.7756 100.007 88.8088C102.856 86.842 99.6267 84.3813 98.1515 79.6303C96.6814 74.8749 102.856 73.7298 104.189 70.95C105.517 68.1703 103.049 62.7462 104.189 59.49C105.33 56.2294 109.892 56.3562 111.879 57.3396Z" fill="#D2DEC9"/>
<path d="M94.9805 26.3599V115.855" stroke="#997B71" stroke-width="3" stroke-miterlimit="10"/>
<path d="M94.9805 26.3599V115.855" stroke="#997B71" stroke-width="3" stroke-miterlimit="10"/>
<path d="M112.997 71.1075H76.9658" stroke="#997B71" stroke-width="3" stroke-miterlimit="10"/>
<path d="M112.997 71.1075H76.9658" stroke="#997B71" stroke-width="3" stroke-miterlimit="10"/>
<path d="M86.8986 91.8431L86.7191 95.0417L86.5088 98.8699L86.3704 101.379H80.7443L80.611 98.8699L80.4058 95.0417L80.2314 91.8431H86.8986Z" fill="#FDFEFE"/>
<path d="M86.7195 95.0417L86.5092 98.8699H80.6114L80.4062 95.0417H86.7195Z" fill="#CC9300"/>
<path d="M86.8996 91.1655H80.2324V91.8431H86.8996V91.1655Z" fill="#CC9300"/>
<path d="M86.5317 90.9082H80.5947V91.4228H86.5317V90.9082Z" fill="#CC9300"/>
<path d="M108.951 107.608V147.435C108.951 149.31 107.321 150.83 105.316 150.83H95.2618C93.2568 150.83 91.6268 149.31 91.6268 147.435V107.608C91.6249 107.261 91.6833 106.914 91.7999 106.581C92.2615 105.207 93.6414 104.213 95.2618 104.213H105.316C106.936 104.213 108.316 105.207 108.778 106.581C108.894 106.914 108.953 107.261 108.951 107.608ZM89.1562 103.657V154.103H111.423V103.657H89.1562Z" fill="#E4D9C4"/>
<g style="mix-blend-mode:multiply">
<path d="M108.951 107.608V147.435C108.951 149.31 107.321 150.83 105.316 150.83H95.2618C93.2568 150.83 91.6268 149.31 91.6268 147.435V107.608C91.6249 107.261 91.6833 106.914 91.7999 106.581C92.2615 105.207 93.6414 104.213 95.2618 104.213H105.316C106.936 104.213 108.316 105.207 108.778 106.581C108.894 106.914 108.953 107.261 108.951 107.608ZM89.1562 103.657V154.103H111.423V103.657H89.1562Z" fill="#DFDFDF"/>
</g>
<path d="M92.5574 148.888C92.7523 149.645 91.1675 150.877 90.8383 151.333C90.509 151.79 82.8297 154.464 82.5945 154.788C82.3593 155.112 82.5116 155.633 82.6057 155.836C82.6998 156.038 90.0832 156.239 91.4002 155.995C92.7172 155.752 95.9042 156.425 97.4465 155.611C97.7065 155.474 96.6716 149.742 96.3424 149.176C96.0131 148.61 92.3693 148.158 92.5574 148.888Z" fill="#5A5A5A"/>
<path d="M141.961 84.1862C141.802 83.8006 141.612 83.4251 141.391 83.0627C141.083 82.5413 140.673 81.9021 140.174 81.1823C140.144 81.1406 140.12 81.0967 140.1 81.0511C140.08 81.0108 140.064 80.9692 140.053 80.9266C140.047 80.9124 140.043 80.8978 140.041 80.8829C139.585 79.2379 141.805 74.7875 142.078 75.3156C142.37 75.8841 145.581 79.433 146.393 80.237C147.06 80.8997 142.082 84.5092 141.961 84.1862Z" fill="#DFB89A"/>
<g style="mix-blend-mode:multiply">
<path d="M142.574 79.1168C142.496 79.4969 141.891 82.9415 141.392 83.0626C141.084 82.5412 140.674 81.9021 140.175 81.1822C140.145 81.1405 140.12 81.0966 140.101 81.051C140.081 80.9972 140.065 80.9568 140.054 80.9266C140.048 80.9124 140.044 80.8977 140.042 80.8828C140.042 80.792 142.574 79.1168 142.574 79.1168Z" fill="#DFDFDF"/>
</g>
<path d="M132.763 74.5176C132.964 75.2599 136.522 81.8192 137.603 81.8941C140.753 82.1122 143.645 78.5333 143.748 77.8423C143.851 77.1512 142.378 72.0896 141.402 71.5156C140.425 70.9415 138.385 69.8414 137.306 69.9583C136.227 70.0753 132.481 73.4713 132.763 74.5176Z" fill="#DFB89A"/>
<path d="M144.391 77.8357C144.877 77.9633 145.314 76.0154 145.557 75.4588C145.8 74.9022 145.394 70.8746 145.181 70.1212C144.79 68.7369 143.131 66.9261 141.015 66.7016C138.523 66.4372 136.307 67.7382 134.969 67.8515C129.655 68.3011 128.093 70.5492 129.935 73.0296C130.47 73.7503 131.962 74.8817 132.748 74.2144C133.817 73.3072 136.979 71.3709 137.677 72.4517C138.376 73.5325 138.168 74.4297 139.132 74.9581C140.095 75.4866 141.409 73.0457 141.657 73.0501C141.906 73.0545 143.19 77.5202 144.391 77.8357Z" fill="#382B25"/>
<path d="M142.576 75.0969C143.028 74.2795 142.847 73.3914 142.171 73.1133C141.495 72.8353 140.58 73.2725 140.128 74.09C139.675 74.9074 139.857 75.7955 140.533 76.0735C141.209 76.3516 142.123 75.9143 142.576 75.0969Z" fill="#DFB89A"/>
<path d="M124.461 113.826C116.364 116.515 105.343 120.963 104.611 121.893C103.878 122.822 91.7831 149.061 92.1733 149.482C92.5635 149.902 96.27 151.332 97.2455 150.911C98.2209 150.491 109.731 130.391 110.804 128.036C111.877 125.682 124.461 113.826 124.461 113.826Z" fill="#B0881F"/>
<path d="M139.586 126.557H137.245V144.53H139.586V126.557Z" fill="#6E787D"/>
<path d="M138.415 150.404H129.782L138.415 146.194V150.404Z" fill="#6E787D"/>
<path d="M138.415 150.404H147.047L138.415 146.194V150.404Z" fill="#6E787D"/>
<path d="M139.857 143.988H136.975V146.869H139.857V143.988Z" fill="#495053"/>
<path d="M138.415 152.679L139.856 146.858H136.974L138.415 152.679Z" fill="#3A3F42"/>
<path d="M147.047 153.612C148.202 153.612 149.138 152.894 149.138 152.008C149.138 151.122 148.202 150.404 147.047 150.404C145.892 150.404 144.956 151.122 144.956 152.008C144.956 152.894 145.892 153.612 147.047 153.612Z" fill="#3A3F42"/>
<path d="M138.415 155.708C139.57 155.708 140.506 154.989 140.506 154.103C140.506 153.217 139.57 152.499 138.415 152.499C137.26 152.499 136.324 153.217 136.324 154.103C136.324 154.989 137.26 155.708 138.415 155.708Z" fill="#3A3F42"/>
<path d="M129.782 153.612C130.937 153.612 131.873 152.894 131.873 152.008C131.873 151.122 130.937 150.404 129.782 150.404C128.628 150.404 127.691 151.122 127.691 152.008C127.691 152.894 128.628 153.612 129.782 153.612Z" fill="#3A3F42"/>
<path d="M123.845 151.163C124.009 151.84 123.875 152.545 123.469 153.14C123.139 153.597 115.618 155.898 115.383 156.222C115.148 156.546 115.521 157.142 115.615 157.344C115.709 157.547 122.195 157.737 123.512 157.494C124.829 157.251 129.029 157.909 130.572 157.095C130.832 156.958 128.784 151.241 128.455 150.675C128.125 150.109 123.657 150.433 123.845 151.163Z" fill="#5A5A5A"/>
<path d="M148.271 110.348C147.939 111.646 147.916 118.017 146.242 119.905C144.568 121.792 136.671 122.128 133.16 122.367C129.648 122.606 118.325 125.532 117.838 126.326C117.35 127.12 129.66 151.391 129.129 151.842C128.704 152.198 126.411 151.46 123.94 151.909C123.286 152.028 113.429 136.956 111.478 133.465C109.527 129.973 106.472 124.311 107.822 121.455C108.474 120.076 111.981 118.535 122.527 114.482H122.531C125.766 113.237 129.66 111.757 134.342 109.974C134.357 109.967 134.369 109.964 134.377 109.961C135.793 109.423 148.599 109.049 148.271 110.348Z" fill="#CC9300"/>
<g style="mix-blend-mode:multiply">
<path d="M135.929 110.28C133.229 110.926 123.681 114.378 122.53 114.482C125.765 113.237 129.659 111.757 134.341 109.974C134.356 109.967 134.368 109.964 134.376 109.961C134.984 109.749 135.929 110.28 135.929 110.28Z" fill="#DFDFDF"/>
</g>
<path d="M143.228 127.201H133.596L132.416 123.08H144.414L143.228 127.201Z" fill="#495053"/>
<path d="M119.087 96.2177C118.521 96.0831 116.012 96.0721 114.632 96.7028C113.252 97.3336 111.789 97.6399 111.496 97.9763C111.204 98.3127 107.054 99.5724 106.88 100.182C106.755 100.622 111.913 100.558 112.873 100.499C113.897 100.436 115.691 99.8986 115.837 99.6883C115.983 99.4781 121.916 96.8905 119.087 96.2177Z" fill="#D5B093"/>
<path d="M140.92 83.601C140.234 84.2137 139.547 85.6541 139.605 86.6019C139.663 87.5497 140.078 87.2067 140.171 87.0321C140.263 86.8575 140.92 83.601 140.92 83.601Z" fill="#CC9300"/>
<path d="M139.754 87.1592C137.571 89.224 131.901 93.4981 130.944 94.0027C129.988 94.5073 119.746 95.7868 118.502 95.7848C117.259 95.7828 118.063 97.0933 118.502 97.2195C118.941 97.3456 132.496 97.5979 134.351 96.4626C136.206 95.3273 142.796 86.4339 142.574 85.9924C142.351 85.5509 141.546 85.4653 139.754 87.1592Z" fill="#F1E7DE"/>
<g style="mix-blend-mode:multiply">
<path d="M134.349 96.4614C132.839 97.3898 123.553 97.3932 119.933 97.2923C119.109 97.2721 118.583 97.2418 118.501 97.2182C118.064 97.0938 117.26 95.7818 118.501 95.7852C118.672 95.7852 119.012 95.7617 119.472 95.7179C122.375 95.4488 130.12 94.4363 130.943 94.0023C131.899 93.4977 137.569 89.2248 139.754 87.1593C141.545 85.4639 142.352 85.5521 142.574 85.9928C142.796 86.4334 136.206 95.3277 134.349 96.4614Z" fill="#DFDFDF"/>
</g>
<path d="M134.879 109.674C135.257 109.914 135.584 109.953 136.26 110.216C140.595 111.9 148.669 111.962 149.894 110.612C149.822 110.037 149.3 108.082 149.246 107.973L135.184 107.593C135.175 107.647 135.166 107.701 135.156 107.763C135.066 108.353 134.951 109.022 134.879 109.674Z" fill="#382B25"/>
<path d="M151.181 95.1492C149.574 98.6006 151.079 106.298 149.176 109.042C148.27 110.347 139.999 109.692 136.799 108.507C136.147 108.266 135.088 107.688 135.118 107.448C136.234 98.4467 135.643 98.5107 135.483 97.0945C135.292 95.3991 139.039 88.3474 140.974 85.0844C141.271 84.5832 141.513 84.2299 141.669 84.0819C142.293 83.4932 143.183 82.9315 143.842 82.4202C145.239 81.3336 146.257 80.2807 146.288 80.089C146.3 80.0318 146.565 80.1932 147.334 81.0813C147.336 81.0831 147.338 81.0854 147.338 81.088C147.599 81.3908 147.915 81.781 148.302 82.2721C150.689 85.3198 152.878 91.496 151.181 95.1492Z" fill="#E6DCD4"/>
<path d="M134.864 109.898C135.139 110.144 135.772 110.406 136.12 110.602L136.26 108.26C135.729 108.024 135.486 107.799 135.041 107.376C134.984 107.966 134.908 109.246 134.864 109.898Z" fill="#E4D9C4"/>
<path d="M139.604 86.602C138.038 89.6004 136.289 97.978 135.657 100.025C135.026 102.072 134.782 106.046 135.338 105.294C135.894 104.542 136.154 103.014 136.415 101.346C136.675 99.6779 139.516 87.4491 139.872 87.1444C140.227 86.8398 139.734 86.3527 139.604 86.602Z" fill="#CC9300"/>
<g style="mix-blend-mode:multiply">
<path d="M135.658 100.025C137.295 98.9138 148.696 89.1494 147.596 90.9915C146.496 92.8336 135.627 101.041 135.645 100.829C135.663 100.616 135.658 100.025 135.658 100.025Z" fill="#DFDFDF"/>
</g>
<g style="mix-blend-mode:multiply">
<path d="M152.545 93.6243C152.727 89.8074 149.213 95.3381 147.458 105.583C146.574 110.738 147.324 116.158 145.191 118.853C143.662 120.784 141.957 120.93 135.653 121.581C133.372 121.816 130.006 122 125.708 123.521C122.716 124.581 127.976 125.014 128.269 125.14C128.562 125.266 141.716 125.178 145.3 124.957C148.885 124.737 151.238 123.208 150.751 118.853C150.263 114.498 150.135 110.039 150.165 107.265C150.263 98.2667 152.399 96.6829 152.545 93.6243Z" fill="#DFDFDF"/>
</g>
<path d="M152.738 92.963C152.92 89.1461 150.032 95.6365 148.276 105.882C147.393 111.036 148.143 116.457 146.009 119.151C144.48 121.083 142.776 121.228 136.472 121.879C134.19 122.114 129.824 122.22 125.526 123.742C122.533 124.801 125.087 125.382 125.379 125.508C125.672 125.634 142.535 125.477 146.119 125.256C149.704 125.035 152.057 123.506 151.569 119.151C151.082 114.796 150.954 110.337 150.984 107.564C151.082 98.5651 152.592 96.0217 152.738 92.963Z" fill="#E2A16D"/>
<path d="M111.967 97.0813C111.401 96.9467 110.142 96.829 108.762 97.4598C107.382 98.0905 105.919 98.3968 105.626 98.7332C105.334 99.0696 101.31 99.8896 101.136 100.499C101.01 100.939 106.276 100.832 107.236 100.773C108.26 100.71 109.821 100.656 109.967 100.445C110.113 100.235 114.795 97.7541 111.967 97.0813Z" fill="#DFB89A"/>
<path d="M147.891 90.7224C146.369 92.1958 134.922 100.653 133.65 101.426C132.378 102.2 127.598 102.214 125.253 102.066C123.369 101.948 115.725 100.696 112.702 100C111.96 99.832 111.496 99.694 111.461 99.6167C111.285 99.2197 111.437 96.7136 112.241 96.7472C112.358 96.7506 112.76 96.7506 113.365 96.7439C116.9 96.6968 127.368 96.4781 128.429 96.542C129.674 96.616 131.215 96.0072 131.691 95.7313C132.167 95.4588 139.416 89.6426 141.504 86.9783C143.595 84.3107 147.52 83.0324 148.25 83.5269C152.561 86.4502 149.393 89.2726 147.891 90.7224Z" fill="#F1E7DE"/>
<path d="M128.816 101.342H71.7617V104.033H128.816V101.342Z" fill="#E4D9C4"/>
<path d="M115.502 100.499H95.75V101.341H115.502V100.499Z" fill="#495053"/>
<path d="M87.7859 85.8967L96.5404 100.904C96.5483 100.917 96.5531 100.932 96.5544 100.947C96.5557 100.963 96.5535 100.978 96.5479 100.992C96.5424 101.007 96.5336 101.02 96.5221 101.031C96.5106 101.043 96.4966 101.052 96.4808 101.059L95.848 101.334C95.8322 101.341 95.8151 101.345 95.7975 101.346C95.7799 101.347 95.7623 101.345 95.7456 101.34C95.7288 101.335 95.7133 101.328 95.7 101.318C95.6867 101.308 95.6757 101.296 95.6678 101.282L86.9133 86.2751C86.8973 86.2477 86.8946 86.2159 86.9058 86.1868C86.9169 86.1576 86.9411 86.1335 86.9729 86.1197L87.6057 85.8453C87.6375 85.8315 87.6743 85.8292 87.7081 85.8388C87.7419 85.8485 87.7699 85.8693 87.7859 85.8967Z" fill="#495053"/>
<path d="M86.8848 103.266V159.61C86.8848 159.946 87.0396 160.269 87.3153 160.506C87.5909 160.744 87.9648 160.877 88.3546 160.877H112.219C112.412 160.877 112.604 160.845 112.782 160.781C112.96 160.717 113.122 160.624 113.259 160.506C113.395 160.388 113.504 160.249 113.577 160.095C113.651 159.941 113.689 159.776 113.689 159.61V103.266H86.8848ZM110.712 153.436C110.712 155.455 108.754 157.093 106.338 157.093H94.2394C91.8243 157.093 89.8617 155.455 89.8617 153.436V110.556C89.8644 109.976 90.0292 109.405 90.3424 108.891C90.6555 108.378 91.1076 107.937 91.6604 107.606C92.4148 107.147 93.316 106.901 94.2394 106.903H106.338C107.26 106.901 108.16 107.145 108.914 107.603C109.467 107.934 109.919 108.376 110.232 108.89C110.545 109.404 110.71 109.975 110.712 110.556V153.436Z" fill="#E4D9C4"/>
<g style="mix-blend-mode:multiply">
<path d="M134.342 109.974C129.66 111.757 125.766 113.237 122.531 114.482H122.527" fill="#DFDFDF"/>
</g>
<g style="mix-blend-mode:multiply">
<path d="M113.69 104.034H86.8867V104.788H113.69V104.034Z" fill="#DFDFDF"/>
</g>
<path d="M145.912 79.7395C145.497 78.8929 148.489 81.4784 147.9 81.7672C143.531 83.9081 139.617 87.1528 139.979 86.0843C140.821 83.6002 141.072 83.1536 141.391 83.0627C142.34 82.7918 146.152 80.2288 145.912 79.7395Z" fill="#F1E7DE"/>
<path d="M58.2111 70.4672C57.5851 70.4672 53.7925 65.1046 54.0378 65.0415C54.2794 64.9784 55.7007 63.7214 55.8178 63.3111C55.8984 63.027 56.3331 61.4117 56.3075 60.2692C56.2965 59.8936 56.2892 59.5558 56.2818 59.3128C56.2782 59.237 56.2745 59.1708 56.2745 59.114C56.2562 58.4511 61.3045 59.7389 61.1654 60.4933C61.0959 60.8689 61.0629 61.6737 61.0556 62.4312C61.0556 62.8037 61.0593 63.1666 61.0703 63.4633C61.0717 63.6768 61.0913 63.8899 61.1288 64.1009C61.235 64.4765 62.487 65.1046 62.8677 65.5118C63.2521 65.9189 58.8371 70.4672 58.2111 70.4672Z" fill="#E3C7B1"/>
<g style="mix-blend-mode:multiply">
<path d="M61.0706 63.4633C60.6716 63.3844 57.45 62.0366 56.3079 60.2691C56.2969 59.8935 56.2896 59.5558 56.2822 59.3127C57.3439 59.5747 60.591 61.6957 61.056 62.4311C61.056 62.8036 61.0596 63.1666 61.0706 63.4633Z" fill="#E8E8E8"/>
</g>
<path d="M63.9285 58.5305C63.4037 60.4267 62.7077 62.2879 61.0569 62.5578C59.6612 62.7856 56.9901 60.672 55.9005 59.3717C55.8932 59.3647 55.8859 59.3542 55.8786 59.3472C55.7194 59.1647 55.5849 58.9671 55.4778 58.7583C55.434 58.6637 55.3939 58.5725 55.3575 58.4849C55.3284 58.4218 55.3028 58.3587 55.281 58.2991C55.2367 58.1935 55.199 58.0858 55.168 57.9767C55.1316 57.854 55.106 57.7348 55.0842 57.6192C55.0696 57.5315 55.0587 57.4439 55.0514 57.3563C55.0478 57.3142 55.0441 57.2722 55.0441 57.2336C55.0113 56.5291 55.1789 55.5897 55.4705 53.5919C55.762 51.6185 57.1759 51.4292 57.9266 51.7657C58.0687 51.8288 58.3821 51.8498 58.8012 51.8428C60.5941 51.8218 64.2819 51.3206 64.3038 51.7657C64.3074 51.8323 64.3111 51.9059 64.3111 51.983C64.322 52.1758 64.3293 52.3966 64.3366 52.635C64.3767 54.2999 64.3657 56.9532 63.9285 58.5305Z" fill="#E3C7B1"/>
<g style="mix-blend-mode:multiply">
<path d="M64.3119 51.9828C64.3228 52.1756 64.3301 52.3964 64.3374 52.6347H64.3337C61.8156 54.2295 58.6197 52.6838 57.8545 52.116L57.8618 52.1125L58.802 51.8426L63.7106 50.4336C63.7106 50.4336 65.0589 50.693 65.2775 51.3239C65.0009 51.5888 64.6744 51.8115 64.3119 51.9828Z" fill="#E8E8E8"/>
</g>
<path d="M66.1766 50.1077C65.9524 50.5513 65.6486 50.9617 65.2766 51.324C64.9999 51.5889 64.6734 51.8116 64.3109 51.9829C63.7096 52.2738 62.9589 52.4701 61.9786 52.6103C59.6318 52.9538 58.1159 52.2738 57.9264 52.1371C57.9084 52.1227 57.8853 52.1141 57.8608 52.1126C57.6713 52.1091 57.3871 52.5823 57.2522 53.7635C57.1028 55.0814 56.9315 55.8245 56.4578 55.8174C55.8492 55.8104 55.1605 56.0558 55.0658 56.7323C55.0415 56.8985 55.0341 57.0662 55.0439 57.2335C55.0439 57.272 55.0475 57.3141 55.0512 57.3562C55.0585 57.4438 55.0694 57.5314 55.084 57.619C55.1058 57.7347 55.1313 57.8539 55.1678 57.9765C55.1987 58.0857 55.2365 58.1933 55.2808 58.299C55.3026 58.3586 55.3281 58.4217 55.3573 58.4848C55.4983 58.786 55.6728 59.0748 55.8784 59.347C55.8857 59.354 55.893 59.3645 55.9003 59.3716C55.9148 59.3961 55.9367 59.4206 55.9549 59.4452C56.108 59.6414 54.6285 58.7687 54.326 57.924C54.0272 57.0758 50.6559 52.1541 54.5155 49.2279C56.6722 47.5928 56.972 47.149 60.3465 46.6758C63.7209 46.2026 64.3514 47.1296 66.8144 46.3188C67.2729 46.1678 67.0002 48.5865 66.1766 50.1077Z" fill="#3A3F42"/>
<path d="M56.262 55.0238C56.6998 55.9249 56.9531 56.344 55.7657 57.0092C55.2496 57.2984 54.685 56.7215 54.2472 55.8204C53.8094 54.9192 53.9055 54.0103 54.4619 53.7904C55.0183 53.5704 55.8242 54.1226 56.262 55.0238Z" fill="#E3C7B1"/>
<path d="M65.4612 147.519C65.9734 148.65 66.2003 149.378 66.1966 149.442C66.193 149.506 69.5243 149.285 69.3548 149C69.1853 148.716 68.7566 146.461 68.7273 146.161C68.6979 145.862 65.2783 147.115 65.4612 147.519Z" fill="#E3C7B1"/>
<path d="M47.5785 148.533C47.3837 149.656 47.1714 150.696 46.9919 151.121C46.8124 151.546 50.3711 151.378 50.6303 150.597C50.8896 149.816 50.6009 148.841 50.6619 148.254C50.7228 147.666 47.7704 147.426 47.5785 148.533Z" fill="#E3C7B1"/>
<path d="M65.0245 147.102C64.7435 146.673 64.0594 151.842 64.3599 152.186C64.6604 152.529 68.786 153.144 69.6033 153.546C70.4206 153.948 73.0171 154.719 74.2522 154.808C75.4873 154.897 76.9113 154.48 76.4973 154.021C76.0833 153.563 73.0639 151.346 72.6835 150.999C72.3032 150.652 69.0113 146.513 68.6263 146.53C68.2413 146.546 65.0909 147.204 65.0245 147.102Z" fill="#ACACAC"/>
<path d="M65.2417 95.3683C65.1811 98.8947 69.1439 145.774 68.92 146.446C68.6961 147.119 63.9155 147.93 63.1009 147.564C62.2862 147.198 60.3365 123.543 59.6973 121.726C59.058 119.909 55.5181 104.625 54.8691 102.978C54.2201 101.331 56.2563 96.2182 57.7812 95.686C59.306 95.1539 65.27 93.7261 65.2417 95.3683Z" fill="#6E787D"/>
<g style="mix-blend-mode:multiply">
<path d="M68.9195 146.446C68.7297 147.021 65.1929 147.701 63.674 147.654C63.4777 147.657 63.2825 147.627 63.1002 147.564C62.4363 147.265 61.0173 131.508 60.1726 124.697C59.9795 123.148 59.8153 122.062 59.6966 121.726C59.1888 120.282 56.854 110.35 55.5893 105.494C55.2613 104.235 55.0048 103.317 54.8697 102.977C54.2191 101.331 56.2549 96.2191 57.7792 95.6861C59.3064 95.1532 65.2701 93.7266 65.2401 95.3679C65.18 98.8946 69.1425 145.773 68.9195 146.446Z" fill="#E8E8E8"/>
</g>
<path d="M51.1033 147.265C51.1639 148.758 51.951 151.374 51.9569 152.035C51.9628 152.697 50.313 153.149 49.8224 153.579C49.3319 154.008 47.385 155.947 46.6127 156.354C45.8404 156.762 43.1017 157.675 42.231 157.242C41.3604 156.809 44.1153 153.249 44.7476 152.554C45.3799 151.86 47.1245 148.344 47.127 148.332C47.1295 148.321 48.6112 148.819 49.3464 148.454C50.0816 148.089 51.1033 147.265 51.1033 147.265Z" fill="#ACACAC"/>
<g style="mix-blend-mode:multiply">
<path d="M58.6308 112.989C59.9925 118.513 58.9511 115.885 59.7238 121.249C59.2146 119.83 56.87 110.07 55.6006 105.298C55.7347 104.006 55.8163 103.202 55.8163 103.202C57.6648 108.551 57.2691 107.465 58.6308 112.989Z" fill="#E8E8E8"/>
</g>
<path d="M57.3034 97.9381C56.8152 100.916 53.9045 118.973 53.9396 121.701C53.9744 124.427 52.1135 146.995 51.8662 147.564C51.6165 148.139 49.3959 148.691 47.7304 148.777C46.7133 148.828 45.9048 148.702 45.8796 148.299C45.6919 145.32 46.2663 118.685 46.2307 116.385C46.2034 114.522 45.8592 103.174 45.9871 98.3433C46.0157 97.2066 46.0722 96.4316 46.1626 96.2236C46.6435 95.1266 57.7316 95.3262 57.3034 97.9381Z" fill="#6E787D"/>
<path d="M67.5488 83.3898C67.8848 84.096 69.6504 88.0007 71.8757 88.5339C74.1009 89.0671 77.1259 87.1852 78.2385 86.5892C79.3512 85.9932 84.5667 82.4802 84.81 82.1666C85.0534 81.8529 83.906 80.1591 83.3497 80.2219C82.7934 80.2846 78.7949 81.8529 78.0995 81.947C77.4041 82.0411 74.3095 82.637 73.6837 82.5743C73.0578 82.5116 72.119 79.8141 71.7366 78.779C71.3541 77.7439 67.0121 82.2622 67.5488 83.3898Z" fill="#E3C7B1"/>
<path d="M71.5597 83.6261C70.6208 84.4427 70.4887 87.5761 69.7233 87.4195C69.302 87.334 67.8373 84.813 66.5598 82.444C66.122 81.6368 65.7062 80.8464 65.3593 80.177C64.8775 79.2393 64.5306 78.5367 64.459 78.3563C64.2525 77.8459 66.2762 72.7161 67.3555 70.0526C67.356 70.0461 67.3578 70.0397 67.3609 70.0337C67.7409 69.096 68.0025 68.4693 68.0025 68.4693C68.019 68.3838 68.1319 68.5761 68.3164 68.9844C69.2359 70.9879 71.9369 78.1616 73.7678 82.3466C73.9082 82.6695 72.4986 82.8119 71.5597 83.6261Z" fill="#CC9300"/>
<g style="mix-blend-mode:multiply">
<path d="M66.8998 76.9654C66.0187 79.5172 66.9702 78.9782 66.56 82.4439C66.1222 81.6368 65.7064 80.8464 65.3595 80.177C65.3154 79.7639 65.2852 79.3865 65.2769 79.0969C65.2273 77.4589 66.414 72.6947 67.3557 70.0526C67.3562 70.0461 67.358 70.0397 67.3611 70.0337C67.7411 69.096 68.0027 68.4693 68.0027 68.4693C68.0192 68.3839 67.9478 68.196 68.1323 68.6043C68.6923 69.912 67.7809 74.4135 66.8998 76.9654Z" fill="#E8E8E8"/>
</g>
<path d="M65.4162 94.7142C65.5457 95.6542 59.4471 97.0975 56.8976 97.4108C55.7412 97.5509 53.3652 97.7123 51.1047 97.6648C49.1499 97.6268 47.2804 97.4322 46.3718 96.9337C46.3625 96.9265 46.3524 96.9201 46.3416 96.9147C46.2622 96.8706 46.1876 96.8205 46.1185 96.7651C46.1175 96.7621 46.1157 96.7592 46.1134 96.7568C46.111 96.7543 46.1081 96.7523 46.1047 96.7509C46.0119 96.6816 45.9368 96.5965 45.8842 96.5008C45.8316 96.4052 45.8026 96.3012 45.7991 96.1954C45.7744 95.3836 47.2584 90.5078 47.6741 86.7453C47.988 83.9276 47.6769 80.5473 47.2061 78.4987V78.4963C47.2033 78.4892 47.2033 78.4773 47.2005 78.4631C47.0574 77.8364 46.895 77.3331 46.7325 77.0174C46.7325 77.0174 46.7297 77.015 46.7325 77.015C46.7215 76.996 46.7105 76.977 46.6995 76.9581C46.0276 75.7451 46.6554 67.3726 47.2033 66.4872C47.2054 66.4829 47.2082 66.4789 47.2116 66.4753C47.2253 66.4587 47.2391 66.4421 47.2529 66.4279C47.2529 66.4255 47.2556 66.4255 47.2584 66.4231C47.3089 66.3924 47.3623 66.3654 47.4181 66.3424C48.5689 65.8368 54.3646 64.2606 54.5931 64.6997C54.8381 65.1674 57.3023 66.1358 58.5881 66.264C59.8766 66.3899 62.3656 65.5733 62.6354 65.3074C63.2136 64.7353 67.2389 67.0071 68.0732 68.4693C68.9074 69.9316 65.441 79.2797 65.3529 80.2221C65.2676 81.1621 65.2923 93.7718 65.4162 94.7142Z" fill="#CC9300"/>
<g style="mix-blend-mode:multiply">
<path d="M51.1053 97.6649C49.1505 97.6269 47.281 97.4323 46.3724 96.9338C46.3631 96.9266 46.3529 96.9202 46.3421 96.9148C46.2628 96.8707 46.1882 96.8206 46.1191 96.7652C46.1181 96.7621 46.1163 96.7593 46.1139 96.7568C46.1116 96.7544 46.1086 96.7524 46.1053 96.751C46.0125 96.6817 45.9374 96.5965 45.8848 96.5009C45.8322 96.4053 45.8032 96.3013 45.7997 96.1955C45.7749 95.3836 47.2589 90.5078 47.6747 86.7453C47.9886 83.9276 47.6774 80.5473 47.2066 78.4987C46.7303 79.0542 44.9792 81.3852 44.167 82.3632C45.1582 80.2885 46.0805 78.3705 46.7331 77.0174C46.7331 77.0174 46.7303 77.015 46.7331 77.015C47.3195 75.7949 47.6857 75.0353 47.6857 75.0353C48.2006 76.4073 49.4396 78.5675 49.3487 81.2642C49.2578 83.9632 47.9665 85.9026 48.52 87.6426C49.0734 89.3826 48.0574 92.9196 48.52 94.5742C48.9797 96.2145 49.836 97.3634 51.1053 97.6649Z" fill="#E8E8E8"/>
</g>
<g style="mix-blend-mode:multiply">
<path d="M64.6631 89.5527C63.0388 90.2635 54.0296 90.278 54.0107 90.0508C54.3246 90.0296 52.5141 76.764 52.2002 76.7852C52.2161 76.976 63.6551 76.0557 63.6398 76.197L64.6631 89.5527Z" fill="#E8E8E8"/>
</g>
<path d="M63.1635 89.8662C63.1666 90.0891 52.3888 90.2123 52.3857 89.9895C52.7004 89.9859 52.5149 76.7817 52.2002 76.7853C52.2028 76.9724 63.0342 76.847 63.0316 76.6598L63.1635 89.8662Z" fill="#E4D9C4"/>
<g style="mix-blend-mode:multiply">
<path d="M63.1635 89.8662C63.1666 90.0891 52.3888 90.2123 52.3857 89.9895C52.7004 89.9859 52.5149 76.7817 52.2002 76.7853C52.2028 76.9724 63.0342 76.847 63.0316 76.6598L63.1635 89.8662Z" fill="#E8E8E8"/>
</g>
<path d="M63.288 90.1164C63.2907 90.3393 52.5127 90.4458 52.5101 90.223C52.8248 90.2199 52.6643 77.0155 52.3496 77.0186C53.017 77.0739 62.8664 77.1008 62.6034 76.9653L63.288 90.1164Z" fill="#F6F6F7"/>
<path d="M64.1288 89.8278C64.1473 90.0501 53.3989 90.7789 53.3804 90.5566C53.6943 90.5354 52.5971 77.3673 52.2832 77.3886C52.2988 77.5753 63.0471 76.8464 63.0316 76.6598L64.1288 89.8278Z" fill="#E4D9C4"/>
<path d="M40.4081 77.242C39.8855 78.3263 39.1216 79.6602 38.5653 81.1486C38.009 82.637 37.9046 85.575 38.148 86.035C38.3914 86.4951 43.7683 83.0761 43.7745 82.7938C43.7808 82.5115 44.5457 81.1314 44.7195 80.8805C44.8934 80.6296 40.8534 76.318 40.4081 77.242Z" fill="#E3C7B1"/>
<path d="M47.6855 75.0354C47.5699 76.849 47.4074 78.2709 47.2587 78.437C47.245 78.4537 47.2257 78.4727 47.2064 78.4964V78.4988C46.7301 79.0543 44.979 81.3853 44.1668 82.3633C44.0521 82.5166 43.9212 82.6605 43.7759 82.793C43.4978 82.9615 43.1536 82.0049 41.375 82.4488C39.9571 82.8049 37.7269 84.3312 37.6801 83.4671C37.6361 82.6007 41.0859 75.4983 42.7654 72.3316C43.4317 71.0735 46.039 67.8427 47.2037 66.4873C47.2058 66.483 47.2086 66.479 47.2119 66.4754C47.2257 66.4588 47.2395 66.4421 47.2532 66.4279C47.2532 66.4255 47.256 66.4255 47.2587 66.4232V66.4208C47.3166 66.352 47.3716 66.3282 47.4184 66.3425C47.9691 66.4873 47.914 71.5055 47.6855 75.0354Z" fill="#CC9300"/>
<path d="M38.1473 86.0351C38.2815 86.4143 39.6424 87.3734 40.8941 87.4988C42.1458 87.6243 52.2291 86.7147 52.3334 86.5265C52.4377 86.3383 53.0983 84.2681 52.6115 84.0172C52.1248 83.7662 48.4044 83.4526 47.2918 83.233C46.1791 83.0134 43.4671 82.4802 41.8329 82.9821C40.1987 83.4839 37.9734 85.5437 38.1473 86.0351Z" fill="#E3C7B1"/>
<path d="M83.1238 80.2723C83.5892 79.7852 84.7368 78.8 84.8424 78.1308C84.9481 77.4617 85.9216 76.7925 86.6634 76.3325C87.4052 75.8724 88.7032 75.5379 89.0741 75.2869C89.445 75.036 89.0741 75.7708 88.8423 75.968C88.6105 76.1652 87.768 76.8552 87.4435 77.2735C87.1189 77.6917 88.1933 77.5161 89.0278 77.1125C89.8622 76.7089 91.0946 75.0135 91.6703 75.036C91.9647 75.0475 91.8021 77.1744 91.6711 77.9635C91.4732 79.1562 89.6471 80.3146 88.7199 81.0256C87.7927 81.7366 85.158 81.9406 84.5479 82.3873C83.9377 82.8339 82.7091 80.7064 83.1238 80.2723Z" fill="#E3C7B1"/>
<g style="mix-blend-mode:multiply">
<path d="M53.9424 86.1086C54.8397 86.4209 55.9379 86.7459 56.7193 86.7662C57.5007 86.7865 59.2892 86.0463 59.9293 85.3646C60.225 85.0497 59.3063 81.6168 59.1131 81.8533C58.969 82.0297 53.9424 86.1086 53.9424 86.1086Z" fill="#E8E8E8"/>
</g>
<path d="M52.4157 83.9507C52.9197 84.0956 54.1082 82.3919 55.3599 82.1828C56.6116 81.9737 58.4512 81.1007 59.0539 81.2926C59.6566 81.4845 59.683 85.0439 59.6361 85.1421C59.5445 85.3341 58.1193 86.4696 57.0001 86.4614C55.881 86.4533 54.4902 86.0365 54.1193 86.0776C53.7484 86.1188 52.4109 86.5394 52.1183 86.5862C51.8257 86.633 51.9742 83.8237 52.4157 83.9507Z" fill="#E3C7B1"/>
<g style="mix-blend-mode:multiply">
<path d="M64.2853 147.656C64.0267 147.648 63.2189 147.617 63.1006 147.564C62.4365 147.27 61.0546 130.862 60.2031 124.169C60.7673 127.19 61.2925 128.569 62.0146 132.302C62.8947 136.843 63.4816 145.6 64.2853 147.656Z" fill="#E8E8E8"/>
</g>
<g style="mix-blend-mode:multiply">
<path d="M46.7925 108.735C46.1658 112.817 47.5449 118.972 46.7773 122.852C46.0097 126.732 46.8108 143.349 47.5125 146.183C47.7207 147.074 48.1237 147.923 48.6999 148.684C46.9845 148.917 45.9028 148.695 45.878 148.299C45.694 145.372 46.2367 116.856 46.2039 114.596C46.1789 112.767 45.8484 101.616 45.9821 96.8699L47.0921 97.0457C47.5058 100.939 47.4053 104.861 46.7925 108.735Z" fill="#E8E8E8"/>
</g>
<path d="M54.3534 64.6249C55.1886 63.4115 55.4194 62.8299 55.8949 63.0309C56.3704 63.2319 61.0833 63.9311 61.0722 63.4633C61.0611 62.9956 61.8778 64.9744 62.8933 65.2185C63.9088 65.4626 59.3531 66.9113 59.3531 66.9113C59.3531 66.9113 53.667 65.6222 54.3534 64.6249Z" fill="#A9CDD5"/>
<defs>
<filter id="filter0_d" x="3.62695" y="-1.31763" width="198.61" height="175.9" filterUnits="userSpaceOnUse" color-interpolation-filters="sRGB">
<feFlood flood-opacity="0" result="BackgroundImageFix"/>
<feColorMatrix in="SourceAlpha" type="matrix" values="0 0 0 0 0 0 0 0 0 0 0 0 0 0 0 0 0 0 127 0" result="hardAlpha"/>
<feOffset dx="8" dy="8"/>
<feGaussianBlur stdDeviation="7"/>
<feColorMatrix type="matrix" values="0 0 0 0 0 0 0 0 0 0 0 0 0 0 0 0 0 0 0.25 0"/>
<feBlend mode="normal" in2="BackgroundImageFix" result="effect1_dropShadow"/>
<feBlend mode="normal" in="SourceGraphic" in2="effect1_dropShadow" result="shape"/>
</filter>
<filter id="filter1_d" x="11.1006" y="77.1743" width="50.1391" height="65.0752" filterUnits="userSpaceOnUse" color-interpolation-filters="sRGB">
<feFlood flood-opacity="0" result="BackgroundImageFix"/>
<feColorMatrix in="SourceAlpha" type="matrix" values="0 0 0 0 0 0 0 0 0 0 0 0 0 0 0 0 0 0 127 0" result="hardAlpha"/>
<feOffset dx="8" dy="8"/>
<feGaussianBlur stdDeviation="7"/>
<feColorMatrix type="matrix" values="0 0 0 0 0 0 0 0 0 0 0 0 0 0 0 0 0 0 0.25 0"/>
<feBlend mode="normal" in2="BackgroundImageFix" result="effect1_dropShadow"/>
<feBlend mode="normal" in="SourceGraphic" in2="effect1_dropShadow" result="shape"/>
</filter>
<filter id="filter2_d" x="30.6289" y="15.8612" width="39.0789" height="39.8559" filterUnits="userSpaceOnUse" color-interpolation-filters="sRGB">
<feFlood flood-opacity="0" result="BackgroundImageFix"/>
<feColorMatrix in="SourceAlpha" type="matrix" values="0 0 0 0 0 0 0 0 0 0 0 0 0 0 0 0 0 0 127 0" result="hardAlpha"/>
<feOffset dx="8" dy="8"/>
<feGaussianBlur stdDeviation="7"/>
<feColorMatrix type="matrix" values="0 0 0 0 0 0 0 0 0 0 0 0 0 0 0 0 0 0 0.25 0"/>
<feBlend mode="normal" in2="BackgroundImageFix" result="effect1_dropShadow"/>
<feBlend mode="normal" in="SourceGraphic" in2="effect1_dropShadow" result="shape"/>
</filter>
<filter id="filter3_d" x="25.3096" y="118.765" width="32.1663" height="32.0881" filterUnits="userSpaceOnUse" color-interpolation-filters="sRGB">
<feFlood flood-opacity="0" result="BackgroundImageFix"/>
<feColorMatrix in="SourceAlpha" type="matrix" values="0 0 0 0 0 0 0 0 0 0 0 0 0 0 0 0 0 0 127 0" result="hardAlpha"/>
<feOffset dx="8" dy="8"/>
<feGaussianBlur stdDeviation="7"/>
<feColorMatrix type="matrix" values="0 0 0 0 0 0 0 0 0 0 0 0 0 0 0 0 0 0 0.25 0"/>
<feBlend mode="normal" in2="BackgroundImageFix" result="effect1_dropShadow"/>
<feBlend mode="normal" in="SourceGraphic" in2="effect1_dropShadow" result="shape"/>
</filter>
<filter id="filter4_d" x="43.3672" y="128.423" width="49.6413" height="49.2352" filterUnits="userSpaceOnUse" color-interpolation-filters="sRGB">
<feFlood flood-opacity="0" result="BackgroundImageFix"/>
<feColorMatrix in="SourceAlpha" type="matrix" values="0 0 0 0 0 0 0 0 0 0 0 0 0 0 0 0 0 0 127 0" result="hardAlpha"/>
<feOffset dx="8" dy="8"/>
<feGaussianBlur stdDeviation="7"/>
<feColorMatrix type="matrix" values="0 0 0 0 0 0 0 0 0 0 0 0 0 0 0 0 0 0 0.25 0"/>
<feBlend mode="normal" in2="BackgroundImageFix" result="effect1_dropShadow"/>
<feBlend mode="normal" in="SourceGraphic" in2="effect1_dropShadow" result="shape"/>
</filter>
<filter id="filter5_d" x="2.59863" y="63.989" width="40.8362" height="40.5953" filterUnits="userSpaceOnUse" color-interpolation-filters="sRGB">
<feFlood flood-opacity="0" result="BackgroundImageFix"/>
<feColorMatrix in="SourceAlpha" type="matrix" values="0 0 0 0 0 0 0 0 0 0 0 0 0 0 0 0 0 0 127 0" result="hardAlpha"/>
<feOffset dx="8" dy="8"/>
<feGaussianBlur stdDeviation="7"/>
<feColorMatrix type="matrix" values="0 0 0 0 0 0 0 0 0 0 0 0 0 0 0 0 0 0 0.25 0"/>
<feBlend mode="normal" in2="BackgroundImageFix" result="effect1_dropShadow"/>
<feBlend mode="normal" in="SourceGraphic" in2="effect1_dropShadow" result="shape"/>
</filter>
<filter id="filter6_d" x="34.459" y="29.5692" width="31.5894" height="31.0742" filterUnits="userSpaceOnUse" color-interpolation-filters="sRGB">
<feFlood flood-opacity="0" result="BackgroundImageFix"/>
<feColorMatrix in="SourceAlpha" type="matrix" values="0 0 0 0 0 0 0 0 0 0 0 0 0 0 0 0 0 0 127 0" result="hardAlpha"/>
<feOffset dx="8" dy="8"/>
<feGaussianBlur stdDeviation="7"/>
<feColorMatrix type="matrix" values="0 0 0 0 0 0 0 0 0 0 0 0 0 0 0 0 0 0 0.25 0"/>
<feBlend mode="normal" in2="BackgroundImageFix" result="effect1_dropShadow"/>
<feBlend mode="normal" in="SourceGraphic" in2="effect1_dropShadow" result="shape"/>
</filter>
<filter id="filter7_d" x="162.362" y="83.3023" width="32.1663" height="32.0881" filterUnits="userSpaceOnUse" color-interpolation-filters="sRGB">
<feFlood flood-opacity="0" result="BackgroundImageFix"/>
<feColorMatrix in="SourceAlpha" type="matrix" values="0 0 0 0 0 0 0 0 0 0 0 0 0 0 0 0 0 0 127 0" result="hardAlpha"/>
<feOffset dx="8" dy="8"/>
<feGaussianBlur stdDeviation="7"/>
<feColorMatrix type="matrix" values="0 0 0 0 0 0 0 0 0 0 0 0 0 0 0 0 0 0 0.25 0"/>
<feBlend mode="normal" in2="BackgroundImageFix" result="effect1_dropShadow"/>
<feBlend mode="normal" in="SourceGraphic" in2="effect1_dropShadow" result="shape"/>
</filter>
<filter id="filter8_d" x="149.394" y="89.7942" width="48.0899" height="40.6062" filterUnits="userSpaceOnUse" color-interpolation-filters="sRGB">
<feFlood flood-opacity="0" result="BackgroundImageFix"/>
<feColorMatrix in="SourceAlpha" type="matrix" values="0 0 0 0 0 0 0 0 0 0 0 0 0 0 0 0 0 0 127 0" result="hardAlpha"/>
<feOffset dx="8" dy="8"/>
<feGaussianBlur stdDeviation="7"/>
<feColorMatrix type="matrix" values="0 0 0 0 0 0 0 0 0 0 0 0 0 0 0 0 0 0 0.25 0"/>
<feBlend mode="normal" in2="BackgroundImageFix" result="effect1_dropShadow"/>
<feBlend mode="normal" in="SourceGraphic" in2="effect1_dropShadow" result="shape"/>
</filter>
<filter id="filter9_d" x="33.4375" y="78.574" width="32.4172" height="32.2633" filterUnits="userSpaceOnUse" color-interpolation-filters="sRGB">
<feFlood flood-opacity="0" result="BackgroundImageFix"/>
<feColorMatrix in="SourceAlpha" type="matrix" values="0 0 0 0 0 0 0 0 0 0 0 0 0 0 0 0 0 0 127 0" result="hardAlpha"/>
<feOffset dx="8" dy="8"/>
<feGaussianBlur stdDeviation="7"/>
<feColorMatrix type="matrix" values="0 0 0 0 0 0 0 0 0 0 0 0 0 0 0 0 0 0 0.25 0"/>
<feBlend mode="normal" in2="BackgroundImageFix" result="effect1_dropShadow"/>
<feBlend mode="normal" in="SourceGraphic" in2="effect1_dropShadow" result="shape"/>
</filter>
<linearGradient id="paint0_linear" x1="14.8232" y1="-24.8977" x2="198.996" y2="-14.1952" gradientUnits="userSpaceOnUse">
<stop offset="0.0756841" stop-color="#B565D8"/>
<stop offset="0.945898" stop-color="#EE609C"/>
</linearGradient>
<linearGradient id="paint1_linear" x1="5.93038" y1="89.1945" x2="29.4118" y2="72.4159" gradientUnits="userSpaceOnUse">
<stop offset="0.0756841" stop-color="#B565D8"/>
<stop offset="0.945898" stop-color="#EE609C"/>
</linearGradient>
<linearGradient id="paint2_linear" x1="33.7408" y1="23.2039" x2="45.298" y2="17.9654" gradientUnits="userSpaceOnUse">
<stop offset="0.0756841" stop-color="#B565D8"/>
<stop offset="0.945898" stop-color="#EE609C"/>
</linearGradient>
<linearGradient id="paint3_linear" x1="30.0268" y1="127.433" x2="32.2464" y2="123.388" gradientUnits="userSpaceOnUse">
<stop offset="0.0756841" stop-color="#B565D8"/>
<stop offset="0.945898" stop-color="#EE609C"/>
</linearGradient>
<linearGradient id="paint4_linear" x1="42.7049" y1="148.281" x2="54.2344" y2="127.268" gradientUnits="userSpaceOnUse">
<stop offset="0.0756841" stop-color="#B565D8"/>
<stop offset="0.945898" stop-color="#EE609C"/>
</linearGradient>
<linearGradient id="paint5_linear" x1="4.64664" y1="78.2086" x2="11.4852" y2="65.7451" gradientUnits="userSpaceOnUse">
<stop offset="0.0756841" stop-color="#B565D8"/>
<stop offset="0.945898" stop-color="#EE609C"/>
</linearGradient>
<linearGradient id="paint6_linear" x1="44.8492" y1="36.0199" x2="44.2221" y2="39.3934" gradientUnits="userSpaceOnUse">
<stop offset="0.0756841" stop-color="#B565D8"/>
<stop offset="0.945898" stop-color="#EE609C"/>
</linearGradient>
<linearGradient id="paint7_linear" x1="167.08" y1="91.9702" x2="169.299" y2="87.9249" gradientUnits="userSpaceOnUse">
<stop offset="0.0756841" stop-color="#B565D8"/>
<stop offset="0.945898" stop-color="#EE609C"/>
</linearGradient>
<linearGradient id="paint8_linear" x1="161.818" y1="87.9789" x2="179.387" y2="97.6467" gradientUnits="userSpaceOnUse">
<stop offset="0.0756841" stop-color="#B565D8"/>
<stop offset="0.945898" stop-color="#EE609C"/>
</linearGradient>
<linearGradient id="paint9_linear" x1="40.9985" y1="83.0757" x2="45.2395" y2="85.3566" gradientUnits="userSpaceOnUse">
<stop offset="0.0756841" stop-color="#B565D8"/>
<stop offset="0.945898" stop-color="#EE609C"/>
</linearGradient>
<linearGradient id="paint10_linear" x1="62.0602" y1="103.523" x2="66.7484" y2="110.314" gradientUnits="userSpaceOnUse">
<stop offset="0.0756841" stop-color="#B565D8"/>
<stop offset="0.945898" stop-color="#EE609C"/>
</linearGradient>
<linearGradient id="paint11_linear" x1="53.4715" y1="99.6081" x2="58.149" y2="106.408" gradientUnits="userSpaceOnUse">
<stop offset="0.0756841" stop-color="#B565D8"/>
<stop offset="0.945898" stop-color="#EE609C"/>
</linearGradient>
<linearGradient id="paint12_linear" x1="37.3408" y1="100.082" x2="41.9877" y2="106.935" gradientUnits="userSpaceOnUse">
<stop offset="0.0756841" stop-color="#B565D8"/>
<stop offset="0.945898" stop-color="#EE609C"/>
</linearGradient>
<linearGradient id="paint13_linear" x1="32.2268" y1="94.1445" x2="36.8893" y2="100.986" gradientUnits="userSpaceOnUse">
<stop offset="0.0756841" stop-color="#B565D8"/>
<stop offset="0.945898" stop-color="#EE609C"/>
</linearGradient>
<linearGradient id="paint14_linear" x1="57.9787" y1="101.443" x2="62.6621" y2="108.238" gradientUnits="userSpaceOnUse">
<stop offset="0.0756841" stop-color="#B565D8"/>
<stop offset="0.945898" stop-color="#EE609C"/>
</linearGradient>
<linearGradient id="paint15_linear" x1="48.4052" y1="98.1" x2="53.075" y2="104.906" gradientUnits="userSpaceOnUse">
<stop offset="0.0756841" stop-color="#B565D8"/>
<stop offset="0.945898" stop-color="#EE609C"/>
</linearGradient>
<linearGradient id="paint16_linear" x1="34.6913" y1="97.1671" x2="39.345" y2="104.015" gradientUnits="userSpaceOnUse">
<stop offset="0.0756841" stop-color="#B565D8"/>
<stop offset="0.945898" stop-color="#EE609C"/>
</linearGradient>
<linearGradient id="paint17_linear" x1="93.4383" y1="129.829" x2="98.1814" y2="136.575" gradientUnits="userSpaceOnUse">
<stop offset="0.0756841" stop-color="#B565D8"/>
<stop offset="0.945898" stop-color="#EE609C"/>
</linearGradient>
<linearGradient id="paint18_linear" x1="87.7475" y1="124.227" x2="92.4884" y2="131.005" gradientUnits="userSpaceOnUse">
<stop offset="0.0756841" stop-color="#B565D8"/>
<stop offset="0.945898" stop-color="#EE609C"/>
</linearGradient>
<linearGradient id="paint19_linear" x1="81.9818" y1="118.67" x2="86.7105" y2="125.458" gradientUnits="userSpaceOnUse">
<stop offset="0.0756841" stop-color="#B565D8"/>
<stop offset="0.945898" stop-color="#EE609C"/>
</linearGradient>
<linearGradient id="paint20_linear" x1="75.9317" y1="113.278" x2="80.6507" y2="120.074" gradientUnits="userSpaceOnUse">
<stop offset="0.0756841" stop-color="#B565D8"/>
<stop offset="0.945898" stop-color="#EE609C"/>
</linearGradient>
<linearGradient id="paint21_linear" x1="69.3869" y1="108.173" x2="74.0832" y2="114.958" gradientUnits="userSpaceOnUse">
<stop offset="0.0756841" stop-color="#B565D8"/>
<stop offset="0.945898" stop-color="#EE609C"/>
</linearGradient>
<linearGradient id="paint22_linear" x1="90.5907" y1="127.03" x2="95.3393" y2="133.801" gradientUnits="userSpaceOnUse">
<stop offset="0.0756841" stop-color="#B565D8"/>
<stop offset="0.945898" stop-color="#EE609C"/>
</linearGradient>
<linearGradient id="paint23_linear" x1="84.8873" y1="121.435" x2="89.6216" y2="128.219" gradientUnits="userSpaceOnUse">
<stop offset="0.0756841" stop-color="#B565D8"/>
<stop offset="0.945898" stop-color="#EE609C"/>
</linearGradient>
<linearGradient id="paint24_linear" x1="79.0061" y1="115.945" x2="83.7296" y2="122.737" gradientUnits="userSpaceOnUse">
<stop offset="0.0756841" stop-color="#B565D8"/>
<stop offset="0.945898" stop-color="#EE609C"/>
</linearGradient>
<linearGradient id="paint25_linear" x1="72.733" y1="110.682" x2="77.4477" y2="117.482" gradientUnits="userSpaceOnUse">
<stop offset="0.0756841" stop-color="#B565D8"/>
<stop offset="0.945898" stop-color="#EE609C"/>
</linearGradient>
<linearGradient id="paint26_linear" x1="65.8401" y1="105.781" x2="70.5325" y2="112.569" gradientUnits="userSpaceOnUse">
<stop offset="0.0756841" stop-color="#B565D8"/>
<stop offset="0.945898" stop-color="#EE609C"/>
</linearGradient>
<linearGradient id="paint27_linear" x1="119.655" y1="150.226" x2="124.598" y2="156.793" gradientUnits="userSpaceOnUse">
<stop offset="0.0756841" stop-color="#B565D8"/>
<stop offset="0.945898" stop-color="#EE609C"/>
</linearGradient>
<linearGradient id="paint28_linear" x1="112.043" y1="145.742" x2="116.898" y2="152.391" gradientUnits="userSpaceOnUse">
<stop offset="0.0756841" stop-color="#B565D8"/>
<stop offset="0.945898" stop-color="#EE609C"/>
</linearGradient>
<linearGradient id="paint29_linear" x1="105.363" y1="140.716" x2="110.165" y2="147.412" gradientUnits="userSpaceOnUse">
<stop offset="0.0756841" stop-color="#B565D8"/>
<stop offset="0.945898" stop-color="#EE609C"/>
</linearGradient>
<linearGradient id="paint30_linear" x1="99.2422" y1="135.364" x2="104.009" y2="142.09" gradientUnits="userSpaceOnUse">
<stop offset="0.0756841" stop-color="#B565D8"/>
<stop offset="0.945898" stop-color="#EE609C"/>
</linearGradient>
<linearGradient id="paint31_linear" x1="124.002" y1="152.153" x2="129.015" y2="158.651" gradientUnits="userSpaceOnUse">
<stop offset="0.0756841" stop-color="#B565D8"/>
<stop offset="0.945898" stop-color="#EE609C"/>
</linearGradient>
<linearGradient id="paint32_linear" x1="115.689" y1="148.077" x2="120.582" y2="154.692" gradientUnits="userSpaceOnUse">
<stop offset="0.0756841" stop-color="#B565D8"/>
<stop offset="0.945898" stop-color="#EE609C"/>
</linearGradient>
<linearGradient id="paint33_linear" x1="108.614" y1="143.281" x2="113.439" y2="149.956" gradientUnits="userSpaceOnUse">
<stop offset="0.0756841" stop-color="#B565D8"/>
<stop offset="0.945898" stop-color="#EE609C"/>
</linearGradient>
<linearGradient id="paint34_linear" x1="102.244" y1="138.075" x2="107.026" y2="144.788" gradientUnits="userSpaceOnUse">
<stop offset="0.0756841" stop-color="#B565D8"/>
<stop offset="0.945898" stop-color="#EE609C"/>
</linearGradient>
<linearGradient id="paint35_linear" x1="96.3121" y1="132.614" x2="101.081" y2="139.369" gradientUnits="userSpaceOnUse">
<stop offset="0.0756841" stop-color="#B565D8"/>
<stop offset="0.945898" stop-color="#EE609C"/>
</linearGradient>
<linearGradient id="paint36_linear" x1="128.851" y1="153.787" x2="133.982" y2="160.195" gradientUnits="userSpaceOnUse">
<stop offset="0.0756841" stop-color="#B565D8"/>
<stop offset="0.945898" stop-color="#EE609C"/>
</linearGradient>
<linearGradient id="paint37_linear" x1="141.393" y1="155.402" x2="147.044" y2="161.115" gradientUnits="userSpaceOnUse">
<stop offset="0.0756841" stop-color="#B565D8"/>
<stop offset="0.945898" stop-color="#EE609C"/>
</linearGradient>
<linearGradient id="paint38_linear" x1="134.443" y1="154.991" x2="139.727" y2="161.19" gradientUnits="userSpaceOnUse">
<stop offset="0.0756841" stop-color="#B565D8"/>
<stop offset="0.945898" stop-color="#EE609C"/>
</linearGradient>
<linearGradient id="paint39_linear" x1="31.7828" y1="27.5556" x2="37.8534" y2="32.2345" gradientUnits="userSpaceOnUse">
<stop offset="0.0756841" stop-color="#B565D8"/>
<stop offset="0.945898" stop-color="#EE609C"/>
</linearGradient>
<linearGradient id="paint40_linear" x1="25.1711" y1="35.8598" x2="30.5314" y2="41.962" gradientUnits="userSpaceOnUse">
<stop offset="0.0756841" stop-color="#B565D8"/>
<stop offset="0.945898" stop-color="#EE609C"/>
</linearGradient>
<linearGradient id="paint41_linear" x1="24.2857" y1="80.9386" x2="29.0034" y2="87.7357" gradientUnits="userSpaceOnUse">
<stop offset="0.0756841" stop-color="#B565D8"/>
<stop offset="0.945898" stop-color="#EE609C"/>
</linearGradient>
<linearGradient id="paint42_linear" x1="21.5934" y1="73.5925" x2="26.3529" y2="80.3548" gradientUnits="userSpaceOnUse">
<stop offset="0.0756841" stop-color="#B565D8"/>
<stop offset="0.945898" stop-color="#EE609C"/>
</linearGradient>
<linearGradient id="paint43_linear" x1="19.8855" y1="65.6754" x2="24.684" y2="72.3742" gradientUnits="userSpaceOnUse">
<stop offset="0.0756841" stop-color="#B565D8"/>
<stop offset="0.945898" stop-color="#EE609C"/>
</linearGradient>
<linearGradient id="paint44_linear" x1="19.3787" y1="57.057" x2="24.254" y2="63.6872" gradientUnits="userSpaceOnUse">
<stop offset="0.0756841" stop-color="#B565D8"/>
<stop offset="0.945898" stop-color="#EE609C"/>
</linearGradient>
<linearGradient id="paint45_linear" x1="20.5829" y1="47.4423" x2="25.5923" y2="53.9442" gradientUnits="userSpaceOnUse">
<stop offset="0.0756841" stop-color="#B565D8"/>
<stop offset="0.945898" stop-color="#EE609C"/>
</linearGradient>
<linearGradient id="paint46_linear" x1="22.8231" y1="77.3334" x2="27.5603" y2="84.1142" gradientUnits="userSpaceOnUse">
<stop offset="0.0756841" stop-color="#B565D8"/>
<stop offset="0.945898" stop-color="#EE609C"/>
</linearGradient>
<linearGradient id="paint47_linear" x1="20.6091" y1="69.7093" x2="25.3937" y2="76.4502" gradientUnits="userSpaceOnUse">
<stop offset="0.0756841" stop-color="#B565D8"/>
<stop offset="0.945898" stop-color="#EE609C"/>
</linearGradient>
<linearGradient id="paint48_linear" x1="19.4605" y1="61.4659" x2="24.2932" y2="68.1346" gradientUnits="userSpaceOnUse">
<stop offset="0.0756841" stop-color="#B565D8"/>
<stop offset="0.945898" stop-color="#EE609C"/>
</linearGradient>
<linearGradient id="paint49_linear" x1="19.7087" y1="52.4088" x2="24.6398" y2="58.9871" gradientUnits="userSpaceOnUse">
<stop offset="0.0756841" stop-color="#B565D8"/>
<stop offset="0.945898" stop-color="#EE609C"/>
</linearGradient>
<linearGradient id="paint50_linear" x1="22.2124" y1="42.0391" x2="27.343" y2="48.4143" gradientUnits="userSpaceOnUse">
<stop offset="0.0756841" stop-color="#B565D8"/>
<stop offset="0.945898" stop-color="#EE609C"/>
</linearGradient>
<linearGradient id="paint51_linear" x1="46.9542" y1="112.315" x2="52.3253" y2="113.38" gradientUnits="userSpaceOnUse">
<stop offset="0.0756841" stop-color="#B565D8"/>
<stop offset="0.945898" stop-color="#EE609C"/>
</linearGradient>
<linearGradient id="paint52_linear" x1="40.4414" y1="107.192" x2="46.3781" y2="109.264" gradientUnits="userSpaceOnUse">
<stop offset="0.0756841" stop-color="#B565D8"/>
<stop offset="0.945898" stop-color="#EE609C"/>
</linearGradient>
<linearGradient id="paint53_linear" x1="27.8664" y1="87.7681" x2="32.5522" y2="94.5909" gradientUnits="userSpaceOnUse">
<stop offset="0.0756841" stop-color="#B565D8"/>
<stop offset="0.945898" stop-color="#EE609C"/>
</linearGradient>
<linearGradient id="paint54_linear" x1="43.6031" y1="109.809" x2="49.3406" y2="111.446" gradientUnits="userSpaceOnUse">
<stop offset="0.0756841" stop-color="#B565D8"/>
<stop offset="0.945898" stop-color="#EE609C"/>
</linearGradient>
<linearGradient id="paint55_linear" x1="37.4642" y1="104.468" x2="43.5087" y2="106.852" gradientUnits="userSpaceOnUse">
<stop offset="0.0756841" stop-color="#B565D8"/>
<stop offset="0.945898" stop-color="#EE609C"/>
</linearGradient>
<linearGradient id="paint56_linear" x1="29.9509" y1="91.0124" x2="34.624" y2="97.8454" gradientUnits="userSpaceOnUse">
<stop offset="0.0756841" stop-color="#B565D8"/>
<stop offset="0.945898" stop-color="#EE609C"/>
</linearGradient>
<linearGradient id="paint57_linear" x1="25.9669" y1="84.4185" x2="30.6675" y2="91.2293" gradientUnits="userSpaceOnUse">
<stop offset="0.0756841" stop-color="#B565D8"/>
<stop offset="0.945898" stop-color="#EE609C"/>
</linearGradient>
<linearGradient id="paint58_linear" x1="54.2623" y1="116.975" x2="57.7834" y2="116.672" gradientUnits="userSpaceOnUse">
<stop offset="0.0756841" stop-color="#B565D8"/>
<stop offset="0.945898" stop-color="#EE609C"/>
</linearGradient>
<linearGradient id="paint59_linear" x1="58.2334" y1="119.119" x2="59.9071" y2="118.577" gradientUnits="userSpaceOnUse">
<stop offset="0.0756841" stop-color="#B565D8"/>
<stop offset="0.945898" stop-color="#EE609C"/>
</linearGradient>
<linearGradient id="paint60_linear" x1="50.506" y1="114.704" x2="55.2067" y2="115.077" gradientUnits="userSpaceOnUse">
<stop offset="0.0756841" stop-color="#B565D8"/>
<stop offset="0.945898" stop-color="#EE609C"/>
</linearGradient>
</defs>
</svg>
