<svg width="176" height="153" viewBox="0 0 176 153" fill="none" xmlns="http://www.w3.org/2000/svg">
<g opacity="0.7">
<g opacity="0.7" filter="url(#filter0_d)">
<path d="M159.54 90.4844C166.795 66.8486 156.121 39.8992 136.844 24.4238C117.567 8.94737 91.2648 4.03678 66.7656 7.31125C45.6941 10.1277 24.7099 19.1997 11.4522 35.8252C5.36129 43.4648 1.72978 56.0521 9.49319 61.984C18.8227 69.1108 32.8148 58.1014 43.7272 62.4297C53.3523 66.2473 54.8266 79.3373 52.8384 89.5034C50.8503 99.6695 47.0732 110.622 51.6227 119.927C55.9046 128.682 66.5808 132.78 76.3066 132.2C87.1094 131.556 97.152 126.031 107.885 124.355C113.262 123.515 118.564 123.871 123.949 122.921C129.884 121.874 135.518 119.763 140.483 116.312C149.402 110.11 156.344 100.896 159.54 90.4844Z" fill="url(#paint0_linear)"/>
</g>
<g filter="url(#filter1_d)">
<path d="M25.2292 66.6345C28.3615 67.2116 31.1385 69.4695 32.3471 72.4203C34.9176 78.697 30.4093 85.8086 31.597 92.4821C31.9765 94.6163 32.9278 96.8464 32.127 98.8555C31.1861 101.213 28.0911 102.083 25.6602 101.336C23.2292 100.591 21.3539 98.6711 19.6995 96.7364C16.5319 93.0337 13.6888 88.8776 12.5683 84.1391C10.6835 76.1763 15.4057 64.8235 25.2292 66.6345Z" fill="url(#paint1_linear)"/>
</g>
<g filter="url(#filter2_d)">
<path d="M31.7707 17.561C30.2075 15.3762 30.3157 12.1038 32.1281 10.0989C33.941 8.09466 37.3212 7.6828 39.4646 9.30664C40.6813 10.2282 41.4622 11.8267 41.0885 13.3098C40.7739 14.5594 39.7885 15.3948 38.8853 16.2383C38.0929 16.9779 37.6572 17.8029 37.0002 18.6303C35.5081 20.5096 32.9208 19.1684 31.7707 17.561Z" fill="url(#paint2_linear)"/>
</g>
<g filter="url(#filter3_d)">
<path d="M26.3967 106.445C26.9247 105.948 27.7243 105.736 28.3995 105.98C29.2241 106.278 29.7265 107.247 29.547 108.114C29.3665 108.982 28.5581 109.666 27.682 109.744C25.607 109.928 24.9791 107.781 26.3967 106.445Z" fill="url(#paint3_linear)"/>
</g>
<g filter="url(#filter4_d)">
<path d="M46.7224 117.978C49.4653 115.397 53.6184 114.295 57.1256 115.564C61.4093 117.114 64.0187 122.147 63.0866 126.651C62.1487 131.157 57.9494 134.711 53.3988 135.113C42.6207 136.072 39.3591 124.92 46.7224 117.978Z" fill="url(#paint4_linear)"/>
</g>
<g filter="url(#filter5_d)">
<path d="M6.45171 55.6849C8.07858 54.154 10.542 53.5001 12.6222 54.2528C15.163 55.1723 16.7107 58.1574 16.1579 60.8289C15.6015 63.5016 13.1108 65.6096 10.4117 65.8482C4.01884 66.4167 2.08427 59.802 6.45171 55.6849Z" fill="url(#paint5_linear)"/>
</g>
<g filter="url(#filter6_d)">
<path d="M37.6269 22.5859C37.4311 22.9391 35.6146 24.2329 35.2149 24.2179C34.7267 24.1995 34.3652 23.1219 34.3133 22.6314C34.262 22.1405 34.5748 21.6404 35.0264 21.4507C36.096 21.0007 38.1522 21.6364 37.6269 22.5859Z" fill="url(#paint6_linear)"/>
</g>
<g filter="url(#filter7_d)">
<path d="M156.349 72.8189C156.877 72.3221 157.677 72.1098 158.352 72.3541C159.177 72.6526 159.679 73.6215 159.5 74.4886C159.319 75.356 158.511 76.0402 157.635 76.1177C155.56 76.3022 154.932 74.1552 156.349 72.8189Z" fill="url(#paint7_linear)"/>
</g>
<g filter="url(#filter8_d)">
<path d="M156.592 78.4527C154.682 78.7373 153.047 80.0505 151.129 80.2769C148.999 80.5287 146.617 79.445 144.801 80.5631C143.459 81.3899 143.007 83.2286 143.46 84.7421C143.914 86.2557 145.097 87.4622 146.414 88.3519C149.156 90.2019 152.725 90.8935 155.869 89.9226C158.838 89.0048 161.513 86.3598 162.251 83.305C162.959 80.3758 159.263 78.0545 156.592 78.4527Z" fill="url(#paint8_linear)"/>
</g>
<g filter="url(#filter9_d)">
<path d="M34.4825 68.0876C35.3986 67.481 36.8024 67.8547 37.3163 68.8257C37.8307 69.797 37.3689 71.1483 36.3789 71.6239C35.3882 72.0991 34.0609 71.6347 33.5606 70.6557C33.0602 69.6766 33.4456 68.3493 34.3789 67.7692" fill="url(#paint9_linear)"/>
</g>
<path d="M133.245 40.1673L122.367 46.4973L122.148 46.6251L90.8 64.8669L90.5811 64.9942L59.2327 83.2364L59.0138 83.3638L52.3613 87.235C52.4874 87.304 52.6157 87.3669 52.7409 87.4364L59.1974 83.6793L59.4162 83.5519L90.7647 65.3097L90.9835 65.1823L122.331 46.9406L122.551 46.8127L133.547 40.4138C133.447 40.3322 133.347 40.2492 133.245 40.1673Z" fill="url(#paint10_linear)"/>
<path d="M118.693 40.184L118.473 40.3118L87.1258 58.5536L86.9069 58.6809L55.5585 76.9231L55.3396 77.0505L44.1631 83.5543C44.3122 83.6064 44.4589 83.6645 44.6077 83.7179L55.5224 77.3665L55.7412 77.2391L87.0897 58.9969L87.3085 58.8696L118.656 40.6278L118.876 40.5L127.118 35.7037C127.004 35.6289 126.888 35.5565 126.774 35.4818L118.693 40.184Z" fill="url(#paint11_linear)"/>
<path d="M115.019 33.8706L114.8 33.9984L83.4521 52.2402L83.2333 52.3675L51.8848 70.6097L51.666 70.7371L28.6143 84.1513C28.7002 84.2424 28.7853 84.3341 28.8722 84.4247L51.8501 71.0534L52.0689 70.9261L83.4174 52.6839L83.6362 52.5565L114.984 34.3148L115.204 34.1869L119.938 31.4316C119.812 31.3626 119.686 31.2964 119.558 31.2292L115.019 33.8706Z" fill="url(#paint12_linear)"/>
<path d="M111.345 27.5573L111.126 27.6852L79.778 45.9269L79.5592 46.0542L48.2107 64.2965L47.9919 64.4238L23.8574 78.4681C23.9311 78.5664 24.0056 78.6642 24.0793 78.7625L48.176 64.7402L48.3948 64.6129L79.7433 46.3706L79.9621 46.2433L111.31 28.0015L111.529 27.8737L112.12 27.53C111.985 27.4675 111.85 27.405 111.714 27.3425L111.345 27.5573Z" fill="url(#paint13_linear)"/>
<path d="M120.531 43.3414L120.311 43.4693L88.9637 61.711L88.7448 61.8384L57.3964 80.0806L57.1775 80.2079L48.4678 85.2763C48.6019 85.337 48.7325 85.4058 48.8658 85.467L57.3611 80.5234L57.58 80.3961L88.9284 62.1538L89.1473 62.0265L120.495 43.7848L120.715 43.6569L130.431 38.0025C130.324 37.9236 130.218 37.8443 130.111 37.7668L120.531 43.3414Z" fill="url(#paint14_linear)"/>
<path d="M116.856 37.0272L116.637 37.1551L85.2892 55.3968L85.0703 55.5242L53.7219 73.7664L53.503 73.8937L39.3184 82.1481C39.488 82.187 39.6552 82.2356 39.8245 82.2759L53.6866 74.2092L53.9055 74.0819L85.2539 55.8397L85.4728 55.7123L116.82 37.4706L117.04 37.3427L123.613 33.5175C123.493 33.4464 123.375 33.3741 123.254 33.3043L116.856 37.0272Z" fill="url(#paint15_linear)"/>
<path d="M113.182 30.714L112.963 30.8418L81.6149 49.0836L81.3961 49.2109L50.0476 67.4532L49.8288 67.5805L26.1426 81.364C26.2224 81.4587 26.3005 81.5544 26.3803 81.6491L50.0129 67.8969L50.2317 67.7695L81.5802 49.5273L81.799 49.3999L113.147 31.1582L113.366 31.0304L116.097 29.4415C115.966 29.3764 115.836 29.3109 115.705 29.2458L113.182 30.714Z" fill="url(#paint16_linear)"/>
<path d="M155.193 69.6522L140.736 78.0645L140.517 78.1924L109.169 96.4341L108.95 96.5615L82.3623 112.034C82.4544 112.121 82.5465 112.209 82.6373 112.296L109.134 96.8769L109.353 96.7496L140.7 78.5079L140.92 78.38L155.334 69.9922C155.287 69.8795 155.24 69.7658 155.193 69.6522Z" fill="url(#paint17_linear)"/>
<path d="M137.062 71.7512L136.843 71.879L105.495 90.1207L105.276 90.2481L76.8955 106.763C76.9868 106.851 77.078 106.94 77.1692 107.028L105.46 90.5644L105.679 90.4371L137.027 72.1954L137.247 72.0675L152.228 63.3494C152.171 63.2414 152.114 63.1334 152.057 63.0253L137.062 71.7512Z" fill="url(#paint18_linear)"/>
<path d="M133.389 65.438L133.169 65.5658L101.822 83.8076L101.603 83.9349L71.374 101.526C71.4679 101.612 71.5609 101.699 71.6548 101.786L101.787 84.2513L102.006 84.1239L133.353 65.8822L133.573 65.7543L148.511 57.0618C148.444 56.9594 148.379 56.8565 148.311 56.7546L133.389 65.438Z" fill="url(#paint19_linear)"/>
<path d="M129.714 59.1251L129.494 59.253L98.1469 77.4947L97.9281 77.622L66.5796 95.8643L66.3607 95.9916L65.5918 96.4391C65.691 96.5226 65.7901 96.606 65.8893 96.6895L66.5448 96.308L66.7637 96.1807L98.1121 77.9384L98.331 77.8111L129.679 59.5693L129.898 59.4415L144.181 51.1304C144.103 51.0341 144.028 50.9369 143.949 50.8416L129.714 59.1251Z" fill="url(#paint20_linear)"/>
<path d="M126.041 52.8114L125.822 52.9392L94.4742 71.181L94.2554 71.3083L62.9069 89.5505L62.6881 89.6779L59.3486 91.6212C59.4569 91.6981 59.5636 91.7784 59.6719 91.8553L62.8717 89.9934L63.0905 89.866L94.439 71.6238L94.6578 71.4964L126.005 53.2547L126.225 53.1269L139.214 45.5685C139.125 45.4789 139.034 45.3909 138.945 45.3027L126.041 52.8114Z" fill="url(#paint21_linear)"/>
<path d="M138.9 74.908L138.68 75.0359L107.333 93.2776L107.114 93.4049L79.624 109.402C79.7153 109.49 79.8065 109.578 79.8978 109.666L107.298 93.7213L107.517 93.594L138.864 75.3522L139.084 75.2244L153.859 66.6264C153.807 66.5153 153.755 66.4048 153.703 66.2937L138.9 74.908Z" fill="url(#paint22_linear)"/>
<path d="M135.225 68.5946L135.006 68.7224L103.658 86.9642L103.439 87.0915L74.1543 104.133C74.2464 104.221 74.3389 104.307 74.4316 104.395L103.623 87.4079L103.842 87.2805L135.19 69.0388L135.41 68.9109L150.446 60.1611C150.384 60.0561 150.322 59.9507 150.26 59.8457L135.225 68.5946Z" fill="url(#paint23_linear)"/>
<path d="M131.552 62.2813L131.333 62.4091L99.985 80.6509L99.7662 80.7782L68.5293 98.9555C68.6258 99.0405 68.7236 99.1236 68.8206 99.2095L99.9503 81.0946L100.169 80.9672L131.517 62.7255L131.736 62.5976L146.424 54.0508C146.352 53.9515 146.282 53.8512 146.208 53.7529L131.552 62.2813Z" fill="url(#paint24_linear)"/>
<path d="M127.878 55.9681L127.658 56.0959L96.3105 74.3377L96.0917 74.465L64.7432 92.7073L64.5244 92.8346L62.54 93.9893C62.6436 94.0702 62.7501 94.1482 62.8542 94.23L64.7085 93.151L64.9273 93.0236L96.2758 74.7814L96.4946 74.654L127.842 56.4123L128.062 56.2845L141.781 48.3012C141.697 48.2085 141.614 48.1158 141.53 48.0237L127.878 55.9681Z" fill="url(#paint25_linear)"/>
<path d="M124.204 49.6548L123.985 49.7826L92.6372 68.0243L92.4184 68.1517L61.0699 86.3939L60.8511 86.5213L55.9658 89.3641C56.0826 89.4373 56.1979 89.5102 56.3137 89.5839L61.0347 86.8368L61.2535 86.7094L92.602 68.4672L92.8208 68.3398L124.168 50.0981L124.388 49.9702L136.472 42.9381C136.378 42.8521 136.283 42.7675 136.187 42.682L124.204 49.6548Z" fill="url(#paint26_linear)"/>
<path d="M155.432 103.319L155.213 103.446L123.865 121.688L123.646 121.815L107.833 131.017C107.969 131.079 108.104 131.142 108.24 131.203L123.829 122.131L124.048 122.004L155.395 103.762L155.615 103.635L160.52 100.78C160.532 100.633 160.54 100.486 160.551 100.34L155.432 103.319Z" fill="url(#paint27_linear)"/>
<path d="M151.759 97.0052L151.539 97.1331L120.192 115.375L119.973 115.502L100.39 126.898C100.504 126.971 100.616 127.05 100.731 127.122L120.156 115.818L120.375 115.69L151.723 97.4486L151.943 97.3207L160.577 92.2963C160.568 92.1616 160.556 92.0261 160.546 91.8919L151.759 97.0052Z" fill="url(#paint28_linear)"/>
<path d="M148.085 90.692L147.865 90.8198L116.518 109.062L116.299 109.189L93.8896 122.229C93.9923 122.311 94.0941 122.393 94.1972 122.473L116.482 109.505L116.701 109.378L148.048 91.1358L148.268 91.008L159.583 84.4233C159.56 84.2959 159.539 84.1678 159.516 84.0403L148.085 90.692Z" fill="url(#paint29_linear)"/>
<path d="M144.41 84.3777L144.191 84.5056L112.843 102.747L112.624 102.875L87.96 117.227C88.0556 117.313 88.1512 117.398 88.2464 117.483L112.808 103.19L113.027 103.063L144.374 84.8211L144.594 84.6932L157.805 77.0055C157.769 76.8852 157.731 76.7674 157.695 76.6471L144.41 84.3777Z" fill="url(#paint30_linear)"/>
<path d="M157.269 106.475L157.049 106.603L125.702 124.845L125.483 124.972L112.102 132.759C112.253 132.813 112.406 132.863 112.557 132.916L125.667 125.288L125.885 125.16L157.233 106.919L157.453 106.791L159.928 105.35C159.956 105.194 159.983 105.037 160.009 104.881L157.269 106.475Z" fill="url(#paint31_linear)"/>
<path d="M153.595 100.162L153.375 100.29L122.028 118.531L121.809 118.659L103.949 129.052C104.074 129.12 104.2 129.187 104.324 129.256L121.992 118.975L122.211 118.847L153.558 100.606L153.778 100.478L160.702 96.4486C160.703 96.3068 160.706 96.1649 160.706 96.0242L153.595 100.162Z" fill="url(#paint32_linear)"/>
<path d="M149.922 93.8486L149.702 93.9765L118.354 112.218L118.136 112.346L97.0488 124.616C97.1576 124.694 97.2677 124.77 97.3765 124.848L118.319 112.661L118.538 112.534L149.886 94.292L150.105 94.1641L160.187 88.2975C160.169 88.1665 160.154 88.0353 160.137 87.9043L149.922 93.8486Z" fill="url(#paint33_linear)"/>
<path d="M146.248 87.5354L146.028 87.6632L114.681 105.905L114.462 106.032L90.8643 119.764C90.9634 119.848 91.0647 119.929 91.1639 120.012L114.645 106.348L114.864 106.22L146.212 87.9787L146.431 87.8509L158.787 80.6607C158.758 80.5369 158.727 80.4149 158.696 80.2916L146.248 87.5354Z" fill="url(#paint34_linear)"/>
<path d="M142.573 81.222L142.354 81.3499L111.006 99.5916L110.787 99.7189L85.1309 114.649C85.2247 114.735 85.3177 114.823 85.4116 114.909L110.972 100.035L111.191 99.9075L142.539 81.6657L142.758 81.5379L156.652 73.4528C156.611 73.3356 156.568 73.2194 156.526 73.1027L142.573 81.222Z" fill="url(#paint35_linear)"/>
<path d="M158.932 109.734L158.887 109.76L127.539 128.001L127.32 128.129L116.878 134.205C117.05 134.247 117.223 134.287 117.396 134.327L127.504 128.445L127.723 128.318L158.785 110.242C158.835 110.072 158.884 109.904 158.932 109.734Z" fill="url(#paint36_linear)"/>
<path d="M130.994 134.442L129.311 135.421C129.59 135.404 129.869 135.383 130.147 135.358L131.178 134.758L131.397 134.631L153.101 122.001C153.272 121.763 153.443 121.524 153.608 121.282L131.213 134.315L130.994 134.442Z" fill="url(#paint37_linear)"/>
<path d="M129.158 131.286L122.406 135.215C122.608 135.239 122.809 135.265 123.01 135.286L129.341 131.602L129.56 131.474L156.79 115.629C156.876 115.441 156.954 115.251 157.037 115.063L129.376 131.159L129.158 131.286Z" fill="url(#paint38_linear)"/>
<path d="M39.5223 5.96803L27.2148 13.13C26.7466 13.5283 26.2854 13.9367 25.835 14.3553L41.1955 5.41672C40.6336 5.58724 40.0757 5.77072 39.5223 5.96803Z" fill="url(#paint39_linear)"/>
<path d="M22.4581 20.546L22.6769 20.4187L50.9803 3.94838C50.7365 3.94791 50.4922 3.94655 50.2493 3.95149L22.4942 20.1027L22.2754 20.23L19.5054 21.8419C19.3562 22.0687 19.206 22.2937 19.0615 22.5225L22.4581 20.546Z" fill="url(#paint40_linear)"/>
<path d="M40.8276 52.1133L41.0465 51.986L72.3949 33.7437L72.6138 33.6164L95.4019 20.3556C95.2605 20.2967 95.1201 20.2372 94.9796 20.1778L72.4305 33.2995L72.2117 33.4269L40.8632 51.6691L40.6444 51.7964L16.6594 65.7538C16.7058 65.8679 16.754 65.9811 16.8013 66.0947L40.8276 52.1133Z" fill="url(#paint41_linear)"/>
<path d="M37.1533 45.8L37.3721 45.6727L68.7206 27.4304L68.9394 27.3031L87.0444 16.7674C86.9075 16.706 86.7705 16.6445 86.6336 16.583L68.7562 26.9862L68.5374 27.1135L37.1889 45.3558L36.9701 45.4831L14.3322 58.6565C14.3637 58.7793 14.3987 58.9001 14.4302 59.023L37.1533 45.8Z" fill="url(#paint42_linear)"/>
<path d="M33.4797 39.4867L33.6985 39.3594L65.047 21.1172L65.2658 20.9898L79.0269 12.982C78.8953 12.9174 78.7645 12.8524 78.6333 12.7887L65.0831 20.6738L64.8643 20.8012L33.5158 39.0434L33.297 39.1707L12.9713 50.9987C12.9852 51.1317 12.9959 51.2655 13.0107 51.398L33.4797 39.4867Z" fill="url(#paint43_linear)"/>
<path d="M29.8055 33.1733L30.0243 33.046L61.3728 14.8038L61.5916 14.6764L71.0607 9.16622C70.9246 9.10423 70.7886 9.04224 70.653 8.98113L61.4081 14.3609L61.1892 14.4883L29.8407 32.7305L29.6219 32.8579L12.7921 42.6515C12.7826 42.7969 12.7737 42.9433 12.7656 43.0892L29.8055 33.1733Z" fill="url(#paint44_linear)"/>
<path d="M26.1316 26.8593L26.3505 26.7319L57.6989 8.4897L57.9178 8.36236L62.3328 5.79315C62.1725 5.74409 62.0111 5.69919 61.8496 5.65204L57.7342 8.04687L57.5153 8.17421L26.1669 26.4165L25.948 26.5438L14.3523 33.2916C14.3054 33.4576 14.2627 33.6248 14.2178 33.7922L26.1316 26.8593Z" fill="url(#paint45_linear)"/>
<path d="M38.9901 48.9567L39.2089 48.8293L70.5574 30.5871L70.7762 30.4597L91.1925 18.5792C91.0529 18.5192 90.9124 18.4598 90.7737 18.3993L70.593 30.1429L70.3742 30.2702L39.0257 48.5124L38.8069 48.6398L15.3869 62.2683C15.4254 62.387 15.4626 62.5054 15.5025 62.6245L38.9901 48.9567Z" fill="url(#paint46_linear)"/>
<path d="M35.3164 42.6433L35.5352 42.516L66.8837 24.2738L67.1025 24.1464L82.9868 14.9031C82.8534 14.8395 82.7208 14.7755 82.5883 14.7115L66.9193 23.8295L66.7005 23.9569L35.352 42.1991L35.1332 42.3265L13.5235 54.9015C13.5471 55.0289 13.5702 55.1555 13.5943 55.2838L35.3164 42.6433Z" fill="url(#paint47_linear)"/>
<path d="M31.6429 36.3301L31.8617 36.2028L63.2102 17.9605L63.429 17.8332L75.0819 11.0522C74.9493 10.9882 74.8168 10.9241 74.6847 10.861L63.2463 17.5172L63.0275 17.6445L31.679 35.8868L31.4602 36.0141L12.7101 46.9251C12.7135 47.0643 12.7155 47.2032 12.7197 47.3419L31.6429 36.3301Z" fill="url(#paint48_linear)"/>
<path d="M27.9686 30.0168L28.1874 29.8895L59.5359 11.6472L59.7547 11.5199L66.8624 7.38376C66.7176 7.32688 66.574 7.26811 66.4302 7.21299L59.5711 11.2044L59.3523 11.3317L28.0038 29.574L27.785 29.7013L13.298 38.1315C13.2733 38.2871 13.244 38.443 13.2197 38.5994L27.9686 30.0168Z" fill="url(#paint49_linear)"/>
<path d="M24.2947 23.7035L24.5135 23.5762L55.862 5.33396L56.0808 5.20663L57.2303 4.53773C57.0436 4.50401 56.8566 4.47169 56.6706 4.44112L55.8972 4.89114L55.6784 5.01847L24.3299 23.2607L24.1111 23.3881L16.2045 27.989C16.1257 28.1749 16.0468 28.3608 15.9707 28.5474L24.2947 23.7035Z" fill="url(#paint50_linear)"/>
<path d="M46.0445 91.3341L45.8232 91.0406L40.3359 94.2337C40.4465 94.3105 40.5583 94.3854 40.6698 94.4617L46.0445 91.3341Z" fill="url(#paint51_linear)"/>
<path d="M41.6051 85.4663L41.3828 85.1733L34.1055 89.4081C34.2029 89.4926 34.2994 89.5776 34.3971 89.6607L41.6051 85.4663Z" fill="url(#paint52_linear)"/>
<path d="M44.501 58.4265L44.7198 58.2992L76.0683 40.057L76.2871 39.9296L103.855 23.8874C103.715 23.8279 103.575 23.768 103.435 23.7086L76.1039 39.6127L75.8851 39.7401L44.5366 57.9823L44.3178 58.1097L19.8529 72.3462C19.9134 72.4522 19.9757 72.5571 20.037 72.6626L44.501 58.4265Z" fill="url(#paint53_linear)"/>
<path d="M43.8252 88.3999L43.6029 88.1069L37.1279 91.8748C37.2324 91.9552 37.3363 92.0347 37.4407 92.1151L43.8252 88.3999Z" fill="url(#paint54_linear)"/>
<path d="M31.5431 87.0961L39.3847 82.533L39.1633 82.2395L31.2646 86.8359C31.3563 86.9226 31.451 87.0086 31.5431 87.0961Z" fill="url(#paint55_linear)"/>
<path d="M46.3385 61.5841L46.5573 61.4567L77.9058 43.2145L78.1246 43.0872L108.029 25.6851C107.891 25.6242 107.753 25.5637 107.614 25.5032L77.9414 42.7703L77.7226 42.8976L46.3741 61.1399L46.1553 61.2672L21.7607 75.4628C21.8274 75.5652 21.8923 75.6686 21.9598 75.7705L46.3385 61.5841Z" fill="url(#paint56_linear)"/>
<path d="M18.3111 69.4425L42.6652 55.2704L42.884 55.143L74.2325 36.9008L74.4513 36.7734L99.6359 22.1181C99.4946 22.0591 99.3532 22.0002 99.2119 21.9413L74.2672 36.4571L74.0484 36.5844L42.6999 54.8267L42.4811 54.954L18.1516 69.1118C18.205 69.2218 18.2567 69.3329 18.3111 69.4425Z" fill="url(#paint57_linear)"/>
<path d="M50.4845 97.2014L50.2622 96.9084L47.3438 98.6068C47.4675 98.6759 47.5904 98.7456 47.7145 98.8133L50.4845 97.2014Z" fill="url(#paint58_linear)"/>
<path d="M52.7044 100.136L52.4817 99.8417L51.1582 100.612C51.289 100.677 51.4189 100.742 51.5497 100.807L52.7044 100.136Z" fill="url(#paint59_linear)"/>
<path d="M43.7402 96.4785C43.857 96.5518 43.9741 96.6236 44.0917 96.6963L48.2651 94.2677L48.0428 93.9748L43.7402 96.4785Z" fill="url(#paint60_linear)"/>
</g>
<path d="M67.0129 90.5333C66.9373 90.6873 65.7123 93.1782 64.357 95.8415C62.9555 98.5909 62.3945 102.257 62.3945 102.257C62.3945 102.257 58.6838 103.846 55.8116 104.579C55.8116 104.579 59.4529 104.946 62.1151 103.846C62.1151 103.846 60.224 111.055 57.213 112.307L53.8617 113.498L57.1416 113.621C57.1416 113.621 54.6496 116.431 53.3595 118.112C51.107 121.044 47.4048 122.555 44.4022 123.207C43.9945 123.295 43.6017 123.367 43.2255 123.425C40.0738 123.915 42.7255 122.175 42.7255 122.175C42.7255 122.175 39.1429 119.547 41.5236 113.561C43.9042 107.572 45.3057 104.396 45.3057 103.05C45.3057 103.05 46.4256 104.396 46.5664 105.496C46.5664 105.496 46.9173 101.89 49.9283 98.8971C52.9393 95.902 58.4023 94.2524 58.4023 94.2524L57.5618 96.5142C57.5618 96.5142 59.1734 94.5584 60.9951 93.5192C62.6025 92.6027 65.9014 91.305 66.7966 90.7203C66.8825 90.6714 66.9561 90.6078 67.0129 90.5333Z" fill="#74AEAF"/>
<path opacity="0.68" d="M149.679 99.0798H139.911V124.748H149.679V99.0798Z" fill="#E2E8E6"/>
<path opacity="0.68" d="M149.679 95.825H139.911V97.3043H149.679V95.825Z" fill="#E2E8E6"/>
<path opacity="0.68" d="M135.026 78.0675H113.454V123.521H135.026V78.0675Z" fill="#E2E8E6"/>
<path d="M121.474 98.8596V98.5388C126.938 98.5388 131.383 94.6609 131.383 89.8943H131.751C131.751 94.8378 127.141 98.8596 121.474 98.8596Z" fill="#070C0A"/>
<path d="M83.7344 39.3578C83.7344 42.0614 88.0117 45.6356 95.0506 45.0857C102.089 44.5359 100.881 47.102 100.881 47.102L105.714 48.0643C105.714 48.0643 107.815 47.1478 106.975 45.544C106.134 43.9402 106.502 43.4361 108.288 41.5115C110.074 39.5869 108.025 34.2714 102.667 36.5626C102.667 36.5626 99.7092 34.6013 96.1012 33.7809C90.9625 32.6124 83.7344 33.5712 83.7344 39.3578Z" fill="#1B1C17"/>
<path d="M110.022 51.6843L103.248 55.8377L102.431 54.7416L101.258 53.1726L99.4639 50.7678L101.847 47.3384L102.406 46.5356L103.088 46.0022L107.383 49.4775L110.022 51.6843Z" fill="#F6C5A7"/>
<path d="M101.257 53.1726L99.4629 50.7678L101.846 47.3384C102.4 46.9608 102.781 46.7042 102.781 46.7042C102.781 46.7042 103.712 50.9034 101.257 53.1726Z" fill="#F0B48D"/>
<path d="M90.7441 43.3175C90.7441 43.3175 92.2672 50.432 96.689 51.975C101.111 53.5179 102.781 46.7033 102.781 46.7033C102.781 46.7033 104.796 45.7604 104.059 43.8747C103.322 41.9889 101.16 43.1032 101.209 44.2175C101.209 44.2175 100.914 45.2033 100.325 44.8176C99.7351 44.4318 99.5877 41.6031 99.5877 41.6031C99.5877 41.6031 93.6429 44.0461 90.7441 43.3175Z" fill="#F6C5A7"/>
<path d="M102.371 36.8284C98.1284 32.592 93.0423 32.9152 92.9914 32.919L92.96 32.5994C93.0126 32.595 98.2777 32.2533 102.648 36.6173L102.371 36.8284Z" fill="#1B1C17"/>
<path d="M85.4342 59.0187C85.4342 59.0187 84.3521 57.4885 83.8268 58.2523C83.3015 59.016 85.1861 61.2504 85.1861 61.2504C85.1861 61.2504 86.6417 62.1934 86.4679 61.4905C86.3039 60.8274 85.4342 59.0187 85.4342 59.0187Z" fill="#F6C5A7"/>
<path d="M83.3691 65.1564L85.1008 66.0117L87.6436 63.4041L86.1377 60.7878L83.734 61.0933L83.3691 65.1564Z" fill="#F6C5A7"/>
<path d="M23.3477 94.1134C23.3477 94.1134 24.9235 99.249 24.9235 101.723C24.9235 104.198 26.4994 106.856 26.4994 106.856L32.908 108.459L27.55 108.689C27.55 108.689 28.7056 111.621 30.0714 112.721C31.4372 113.821 33.4333 115.745 34.694 117.212C35.9547 118.678 39.1065 118.403 39.1065 118.403L36.6774 119.87C36.6774 119.87 38.5341 120.328 39.8709 121.611C41.2076 122.894 45.6194 122.802 45.6194 122.802C45.6194 122.802 48.3166 119.167 46.2855 112.996C44.2543 106.825 42.0131 105.237 42.0131 105.237L40.5423 108.459L39.7718 102.976C39.7718 102.976 36.3399 100.776 33.3983 99.7989C30.4566 98.8213 29.1959 97.6605 29.1959 97.6605L29.6862 99.6767C28.7769 98.833 27.9997 97.888 27.3749 96.8662C26.3243 95.1554 23.3477 94.1134 23.3477 94.1134Z" fill="#72A797"/>
<path opacity="0.59" d="M25.5539 81.0418C25.5539 81.0418 29.4558 86.1178 32.2076 88.3125C35.1953 90.6953 32.908 97.1106 32.908 97.1106C32.908 97.1106 35.4994 92.9559 35.4994 91.9173C35.4994 91.9173 38.301 94.3612 38.7913 96.0108C39.2816 97.6605 40.3813 98.3436 39.8709 100.532C39.3604 102.721 40.6123 102.365 41.1726 100.532C41.1726 100.532 42.2932 102.915 43.624 104.381C44.9547 105.848 46.9541 115.273 46.8841 115.456C46.8141 115.64 38.5714 115.374 34.4489 107.436C33.6885 105.972 29.6162 104.381 28.1453 102.915C26.6745 101.449 24.2669 96.5225 23.3477 94.1134L25.7377 94.5292C25.7377 94.5292 23.7076 93.0961 23.7679 91.2146C23.8286 89.3193 26.1142 84.0356 25.5539 81.0418Z" fill="#74AEAF"/>
<path d="M42.7267 130.867H42.7267C40.09 130.867 38.0007 129.171 37.4255 126.926C37.1155 125.716 36.6787 122.161 36.6787 122.161H48.7746C48.7746 122.161 48.3379 125.716 48.0278 126.926C47.4526 129.171 45.3633 130.867 42.7267 130.867Z" fill="#D0DBD7"/>
<path d="M85.8928 64.6981L85.1009 66.0117C85.1009 66.0117 84.8422 67.2336 86.6282 68.7C88.4142 70.1663 92.3365 72.7935 92.3365 72.7935L97.0291 72.152L98.2198 68.089C98.2198 68.089 88.4375 62.5902 87.6438 63.4041C87.1397 63.9112 86.5491 64.3476 85.8928 64.6981Z" fill="#2E67BB"/>
<path d="M97.0645 75.4208C97.0645 75.4208 102.247 79.4765 105.469 77.6319C108.691 75.7874 102.948 70.1664 102.948 70.1664L97.0645 75.4208Z" fill="#BDC7C3"/>
<path d="M94.3412 122.804V126.789H88.6943L87.6963 119.824L94.3412 122.804Z" fill="#F6CAAD"/>
<path d="M94.4734 122.804H85.6484L83.8309 115.016L81.6562 105.706V102.548L90.3761 97.449L90.5253 98.3673L90.7438 99.7236L94.4734 122.804Z" fill="#B4895C"/>
<path d="M91.6536 97.449L90.7438 99.7237L83.8309 115.016L81.6562 105.706V105.585L90.5253 98.3673L91.6536 97.449Z" fill="#96734D"/>
<path d="M94.3097 126.789C94.3097 126.789 94.6774 129.309 94.3097 130.867H90.5276C90.5276 130.867 90.0548 129.673 89.1618 130.064C88.2688 130.455 87.2182 130.867 84.7493 130.867H79.0618C79.0618 130.867 78.2091 130.98 78.6617 130.064C79.1144 129.147 85.1229 128.164 88.6949 126.789H94.3097Z" fill="#CC9F66"/>
<path d="M65.8972 120.236L62.9023 126.789H69.0482L73.1981 120.465L65.8972 120.236Z" fill="#F6CAAD"/>
<path d="M121.767 90.055C121.763 90.1155 121.755 90.1742 121.746 90.2365C121.528 91.756 121.145 92.9621 120.658 93.9299C119.04 97.1595 116.285 97.7405 114.749 98.5159C112.753 99.524 88.6948 100.532 88.6948 100.532L74.2492 122.804H64.7246C64.7246 122.804 76.0658 95.1583 78.5041 93.2022C80.4966 91.6037 95.9607 88.6107 102.241 87.0527C103.825 86.6605 104.804 86.4185 104.804 86.4185C104.804 86.4185 116.071 84.6717 120.248 87.2452C121.286 87.8848 121.885 88.7903 121.767 90.055Z" fill="#CC9F66"/>
<path d="M68.2158 122.876L67.8867 122.733C67.9235 122.668 71.6095 116.219 75.3665 109.808C82.9964 96.7877 83.4799 96.6046 83.6619 96.5357C84.6343 96.1675 109.409 91.2229 110.464 91.0127L110.546 91.3254C101.654 93.0992 84.6637 96.5241 83.8156 96.8273C82.9848 97.3621 74.037 112.688 68.2158 122.876Z" fill="#96734D"/>
<path d="M121.767 90.055C121.763 90.1155 121.755 90.1741 121.746 90.2365C121.528 91.756 121.145 92.962 120.658 93.9298C119.485 93.9701 117.903 93.8107 115.836 93.2021C111.03 91.7908 104.113 88.081 102.241 87.0527C103.825 86.6604 104.805 86.4185 104.805 86.4185C104.805 86.4185 116.071 84.6717 120.248 87.2451L121.767 90.055Z" fill="#96734D"/>
<path d="M95.209 78.8116H44.6758V80.7277H95.209V78.8116Z" fill="#1B1C17"/>
<path d="M88.1702 81.7902H51.7148V82.4604H88.1702V81.7902Z" fill="#1B1C17"/>
<path d="M51.7142 80.5443L46.5664 130.867H47.3018L55.8114 80.5443H51.7142Z" fill="#1B1C17"/>
<path d="M88.1695 80.5443L93.3174 130.867H92.582L84.0723 80.5443H88.1695Z" fill="#1B1C17"/>
<path d="M58.6409 67.8039H53.3584V77.8152H58.6409V67.8039Z" fill="#1B1C17"/>
<path d="M73.3685 74.4477H44.5824L38.2549 56.3932H67.0409L73.3685 74.4477Z" fill="#3060A9"/>
<path opacity="0.26" d="M57.9182 73.5312H45.5563L39.8711 57.3096H52.233L57.9182 73.5312Z" fill="#70AEAB"/>
<path d="M55.7037 71.6065H46.4235L46.3271 71.3315H55.6073L55.7037 71.6065Z" fill="#70AEAB"/>
<path d="M54.9966 69.5903H45.7164L45.6201 69.3153H54.9002L54.9966 69.5903Z" fill="#70AEAB"/>
<path d="M54.2896 67.574H45.0095L44.9131 67.2991H54.1933L54.2896 67.574Z" fill="#70AEAB"/>
<path d="M53.5836 65.5578H44.3034L44.207 65.2829H53.4872L53.5836 65.5578Z" fill="#70AEAB"/>
<path d="M52.8766 63.5417H43.5964L43.5 63.2667H52.7802L52.8766 63.5417Z" fill="#70AEAB"/>
<path d="M52.1704 61.5254H42.8903L42.7939 61.2505H52.074L52.1704 61.5254Z" fill="#70AEAB"/>
<path d="M51.4634 59.5091H42.1833L42.0869 59.2343H51.3671L51.4634 59.5091Z" fill="#70AEAB"/>
<path opacity="0.26" d="M71.6467 73.5312H59.2848L53.5996 57.3096H65.9615L71.6467 73.5312Z" fill="#70AEAB"/>
<path d="M69.4313 71.6065H60.1511L60.0547 71.3315H69.3349L69.4313 71.6065Z" fill="#70AEAB"/>
<path d="M68.7242 69.5903H59.444L59.3477 69.3153H68.6278L68.7242 69.5903Z" fill="#70AEAB"/>
<path d="M68.0171 67.574H58.737L58.6406 67.2991H67.9208L68.0171 67.574Z" fill="#70AEAB"/>
<path d="M67.3111 65.5578H58.0309L57.9346 65.2829H67.2148L67.3111 65.5578Z" fill="#70AEAB"/>
<path d="M66.6051 63.5417H57.3249L57.2285 63.2667H66.5087L66.6051 63.5417Z" fill="#70AEAB"/>
<path d="M65.898 61.5254H56.6178L56.5215 61.2505H65.8016L65.898 61.5254Z" fill="#70AEAB"/>
<path d="M65.191 59.5091H55.9108L55.8145 59.2343H65.0947L65.191 59.5091Z" fill="#70AEAB"/>
<path d="M65.6565 78.8918H53.3584V77.7331H64.3284C64.6806 77.7331 65.0184 77.8552 65.2675 78.0725C65.5166 78.2897 65.6565 78.5845 65.6565 78.8918Z" fill="#1B1C17"/>
<path d="M125.15 101.723C125.149 102.574 124.761 103.389 124.072 103.991C123.383 104.592 122.448 104.93 121.473 104.931H102.001C101.133 104.931 100.293 104.662 99.6302 104.174C98.9669 103.686 98.523 103.008 98.3768 102.262C98.3412 102.084 98.3236 101.904 98.3242 101.723C98.325 100.873 98.7127 100.057 99.4021 99.4559C100.092 98.8545 101.026 98.5163 102.001 98.5156H121.473C122.448 98.5167 123.382 98.855 124.072 99.4563C124.761 100.058 125.149 100.873 125.15 101.723Z" fill="#6FACA7"/>
<path d="M134.824 69.8021H134.824C135.799 69.8021 136.734 70.1401 137.424 70.7416C138.113 71.3432 138.501 72.159 138.501 73.0097V89.9949C138.501 90.8456 138.113 91.6615 137.424 92.263C136.734 92.8646 135.799 93.2025 134.824 93.2025C133.848 93.2025 132.913 92.8646 132.223 92.263C131.534 91.6615 131.146 90.8456 131.146 89.9949V73.0097C131.146 72.159 131.534 71.3432 132.223 70.7416C132.913 70.1401 133.848 69.8021 134.824 69.8021Z" fill="#6FACA7"/>
<path d="M120.422 104.931H119.057V127.385H120.422V104.931Z" fill="#1B1C17"/>
<path d="M120.423 127.385H106.064V128.576H120.423V127.385Z" fill="#1B1C17"/>
<path d="M121.745 104.931H117.733V110.613H121.745V104.931Z" fill="#1B1C17"/>
<path d="M106.956 130.545C107.448 130.116 107.448 129.419 106.956 128.99C106.463 128.56 105.665 128.56 105.173 128.99C104.68 129.419 104.68 130.116 105.173 130.545C105.665 130.975 106.463 130.975 106.956 130.545Z" fill="#1B1C17"/>
<path d="M121.65 130.02C121.81 129.429 121.39 128.837 120.713 128.697C120.035 128.558 119.356 128.924 119.196 129.515C119.036 130.106 119.456 130.698 120.133 130.838C120.811 130.977 121.49 130.611 121.65 130.02Z" fill="#1B1C17"/>
<path d="M69.0603 126.789C69.0603 126.789 69.4019 129.309 69.0603 130.867H65.5467C65.5467 130.867 65.1075 129.673 64.2779 130.064C63.4483 130.455 62.4723 130.867 60.1787 130.867H54.1275C54.1275 130.867 53.3354 130.98 53.7559 130.064C54.1764 129.147 59.5443 128.164 62.8627 126.789H69.0603Z" fill="#CC9F66"/>
<path d="M110.021 51.6843L103.247 55.8376L102.43 54.7415C103.117 53.2642 104.655 50.6798 107.382 49.4774L110.021 51.6843Z" fill="#F8F4F3"/>
<path d="M125.15 90.7258C125.15 90.7258 121.473 93.6585 113.488 90.7258C105.504 87.7931 102.667 86.9463 102.667 86.9463C102.667 86.9463 102.569 85.9015 102.43 84.1951L102.428 84.1932C102.214 81.5281 101.903 77.2519 101.728 72.829C101.461 66.1131 101.506 59.0636 102.667 56.8164C105.084 52.1424 110.022 51.6842 110.022 51.6842C117.166 55.3501 120.948 67.6308 121.782 76.1539C122.616 84.6771 125.15 90.7258 125.15 90.7258Z" fill="#4C85DA"/>
<path d="M108.919 75.1763C107.679 78.6587 102.43 84.195 102.43 84.195L102.428 84.1931C102.214 81.528 101.903 77.2518 101.729 72.8289L111.192 59.6447C111.192 59.6447 110.442 70.8995 108.919 75.1763Z" fill="#295FB0"/>
<path d="M77.5148 76.6485L78.1149 78.8117C78.1149 78.8117 98.1148 79.5754 102.667 76.2762C107.22 72.9769 114.088 59.3956 109.881 56.3932C105.675 53.3907 101.687 59.2298 100.216 62.9568C98.7451 66.6838 96.0836 70.7861 94.4727 71.3316C92.8618 71.8771 77.306 75.8197 77.5148 76.6485Z" fill="#4C85DA"/>
<path d="M84.5956 66.5659H79.6929L78.5723 56.4848H85.7163L84.5956 66.5659Z" fill="#FE707C"/>
<path d="M85.6089 61.8003H83.3701V61.2504H85.6089C86.0601 61.2504 86.4927 61.0941 86.8117 60.8158C87.1307 60.5375 87.3099 60.1601 87.3099 59.7666C87.3099 59.3731 87.1307 58.9957 86.8117 58.7174C86.4927 58.4391 86.0601 58.2828 85.6089 58.2828H84.6834V57.7329H85.6089C86.2272 57.7329 86.8202 57.9472 87.2574 58.3286C87.6946 58.71 87.9403 59.2272 87.9403 59.7666C87.9403 60.306 87.6946 60.8232 87.2574 61.2046C86.8202 61.586 86.2272 61.8003 85.6089 61.8003Z" fill="#FE707C"/>
<path d="M78.9084 59.5091C78.9084 59.5091 78.2591 60.1769 78.154 60.9406C78.0489 61.7043 78.0703 62.952 79.3728 63.6876C80.6754 64.4231 82.2512 63.8733 81.3057 62.3764C80.3602 60.8795 79.0916 59.2932 78.9084 59.5091Z" fill="#F6C5A7"/>
<path d="M72.0976 27.6732C76.1594 24.1299 76.1594 18.3852 72.0976 14.842C68.0359 11.2987 61.4504 11.2987 57.3887 14.842C53.3269 18.3852 53.3269 24.1299 57.3887 27.6732C61.4504 31.2164 68.0359 31.2164 72.0976 27.6732Z" fill="#4C85DA"/>
<path d="M70.8469 26.5825C74.2182 23.6416 74.2182 18.8735 70.8469 15.9326C67.4756 12.9917 62.0097 12.9917 58.6384 15.9326C55.2671 18.8735 55.2671 23.6416 58.6384 26.5825C62.0097 29.5234 67.4756 29.5234 70.8469 26.5825Z" fill="white"/>
<path d="M65.1406 21.6046C65.3603 21.4129 65.3603 21.1022 65.1406 20.9105C64.9209 20.7189 64.5648 20.7189 64.3451 20.9105C64.1254 21.1022 64.1254 21.4129 64.3451 21.6046C64.5648 21.7963 64.9209 21.7962 65.1406 21.6046Z" fill="#4C85DA"/>
<path d="M64.743 16.4918C64.7109 16.4918 64.6792 16.4863 64.6496 16.4756C64.62 16.4649 64.5931 16.4493 64.5705 16.4295C64.5478 16.4097 64.5298 16.3863 64.5176 16.3605C64.5053 16.3346 64.499 16.307 64.499 16.279V14.6884C64.499 14.6604 64.5053 14.6328 64.5176 14.6069C64.5298 14.5811 64.5478 14.5577 64.5705 14.5379C64.5931 14.5182 64.62 14.5025 64.6496 14.4918C64.6792 14.4811 64.7109 14.4756 64.743 14.4756C64.775 14.4756 64.8067 14.4811 64.8363 14.4918C64.8659 14.5025 64.8928 14.5182 64.9154 14.5379C64.9381 14.5577 64.9561 14.5811 64.9683 14.6069C64.9806 14.6328 64.9869 14.6604 64.9869 14.6884V16.279C64.9869 16.307 64.9806 16.3346 64.9683 16.3605C64.9561 16.3863 64.9381 16.4097 64.9154 16.4295C64.8928 16.4493 64.8659 16.4649 64.8363 16.4756C64.8067 16.4863 64.775 16.4918 64.743 16.4918Z" fill="#4C85DA"/>
<path d="M64.743 28.0355C64.7109 28.0355 64.6792 28.03 64.6496 28.0193C64.62 28.0086 64.5931 27.9929 64.5705 27.9732C64.5478 27.9534 64.5299 27.93 64.5176 27.9041C64.5053 27.8783 64.499 27.8507 64.499 27.8227V26.2321C64.499 26.2041 64.5053 26.1765 64.5176 26.1506C64.5299 26.1248 64.5478 26.1014 64.5705 26.0816C64.5931 26.0619 64.62 26.0462 64.6496 26.0355C64.6792 26.0248 64.7109 26.0193 64.743 26.0193C64.8076 26.0193 64.8697 26.0417 64.9154 26.0816C64.9612 26.1215 64.9869 26.1756 64.9869 26.2321V27.8227C64.9869 27.8791 64.9612 27.9333 64.9154 27.9732C64.8697 28.0131 64.8076 28.0355 64.743 28.0355Z" fill="#4C85DA"/>
<path d="M70.2031 21.2645C70.2032 21.2081 70.2291 21.154 70.2749 21.1142C70.3207 21.0743 70.3828 21.052 70.4475 21.0521L72.271 21.0551C72.3357 21.0552 72.3976 21.0777 72.4433 21.1177C72.489 21.1577 72.5145 21.2118 72.5144 21.2683C72.5143 21.3247 72.4885 21.3788 72.4427 21.4186C72.3968 21.4585 72.3347 21.4808 72.27 21.4807L70.4466 21.4777C70.4146 21.4776 70.3829 21.4721 70.3533 21.4614C70.3237 21.4506 70.2969 21.4349 70.2742 21.4151C70.2516 21.3953 70.2337 21.3718 70.2215 21.346C70.2093 21.3201 70.2031 21.2925 70.2031 21.2645Z" fill="#4C85DA"/>
<path d="M56.9707 21.2429C56.9708 21.1865 56.9966 21.1324 57.0425 21.0926C57.0883 21.0527 57.1504 21.0304 57.2151 21.0305L59.0386 21.0335C59.1033 21.0336 59.1653 21.0561 59.2109 21.0961C59.2566 21.1361 59.2822 21.1902 59.2821 21.2467C59.282 21.2746 59.2756 21.3023 59.2633 21.3281C59.251 21.3539 59.233 21.3773 59.2103 21.397C59.1876 21.4167 59.1607 21.4324 59.1311 21.443C59.1014 21.4537 59.0697 21.4591 59.0377 21.4591L57.2142 21.4561C57.1495 21.456 57.0875 21.4335 57.0418 21.3935C56.9962 21.3535 56.9706 21.2993 56.9707 21.2429Z" fill="#4C85DA"/>
<path d="M64.7433 24.8088C64.7157 24.8088 64.6884 24.8041 64.6629 24.7949C64.6374 24.7857 64.6142 24.7722 64.5947 24.7552C64.5752 24.7381 64.5597 24.7179 64.5492 24.6957C64.5386 24.6734 64.5332 24.6496 64.5332 24.6255V21.2061L67.7932 16.5341C67.8075 16.5135 67.8263 16.4956 67.8486 16.4814C67.8709 16.4671 67.8961 16.4569 67.9229 16.4512C67.9498 16.4454 67.9776 16.4444 68.0049 16.4481C68.0322 16.4518 68.0584 16.4601 68.082 16.4726C68.1055 16.4851 68.1261 16.5016 68.1424 16.521C68.1587 16.5405 68.1704 16.5625 68.1769 16.5859C68.1834 16.6093 68.1846 16.6336 68.1804 16.6574C68.1761 16.6812 68.1665 16.704 68.1522 16.7246L64.9534 21.3089V24.6255C64.9534 24.6496 64.948 24.6734 64.9375 24.6957C64.9269 24.7179 64.9114 24.7381 64.8919 24.7552C64.8724 24.7722 64.8492 24.7857 64.8237 24.7949C64.7982 24.8041 64.7709 24.8088 64.7433 24.8088Z" fill="#4C85DA"/>
<path d="M86.969 106.976L86.8486 106.997L90.4206 122.814L90.5409 122.794L86.969 106.976Z" fill="#96734D"/>
<path d="M82.1458 67.0695C83.5002 67.0695 84.5981 66.844 84.5981 66.566C84.5981 66.2879 83.5002 66.0624 82.1458 66.0624C80.7913 66.0624 79.6934 66.2879 79.6934 66.566C79.6934 66.844 80.7913 67.0695 82.1458 67.0695Z" fill="#FE707C"/>
<path d="M77.5154 76.6485C77.5154 76.6485 74.416 76.7268 73.1816 77.0704C71.9472 77.4141 70.8361 78.791 71.203 78.8118C72.5512 78.8883 73.1585 78.2161 74.3213 78.3764C75.4841 78.5368 77.3852 78.8118 78.1156 78.8118L77.5154 76.6485Z" fill="#F6C5A7"/>
<path d="M125.15 101.723C125.149 102.574 124.761 103.389 124.072 103.991C123.383 104.592 122.448 104.93 121.473 104.931H102.001C101.134 104.931 100.294 104.663 99.6304 104.174C98.9671 103.686 98.5231 103.009 98.377 102.262C99.3351 102.592 113.175 107.189 124.37 99.7513C124.877 100.314 125.152 101.008 125.15 101.723Z" fill="#4F8D88"/>
<mask id="path-137-inside-1" fill="white">
<path d="M99.9192 23.2925H88.7637V18.2255C88.7641 18.0591 88.8026 17.8945 88.8771 17.7413C88.9515 17.5881 89.0603 17.4495 89.1971 17.3335L90.0792 16.5887L90.147 16.6499L89.265 17.3947C89.1376 17.5027 89.0362 17.6318 88.9669 17.7745C88.8975 17.9172 88.8616 18.0705 88.8612 18.2255V23.2074H99.8216V18.2255C99.8214 18.0706 99.7857 17.9173 99.7165 17.7746C99.6473 17.6319 99.5461 17.5027 99.4189 17.3947L98.5359 16.6499L98.6037 16.5887L99.4867 17.3335C99.6233 17.4495 99.732 17.5882 99.8063 17.7414C99.8806 17.8946 99.9189 18.0592 99.9192 18.2255V23.2925Z"/>
</mask>
<path d="M99.9192 23.2925H88.7637V18.2255C88.7641 18.0591 88.8026 17.8945 88.8771 17.7413C88.9515 17.5881 89.0603 17.4495 89.1971 17.3335L90.0792 16.5887L90.147 16.6499L89.265 17.3947C89.1376 17.5027 89.0362 17.6318 88.9669 17.7745C88.8975 17.9172 88.8616 18.0705 88.8612 18.2255V23.2074H99.8216V18.2255C99.8214 18.0706 99.7857 17.9173 99.7165 17.7746C99.6473 17.6319 99.5461 17.5027 99.4189 17.3947L98.5359 16.6499L98.6037 16.5887L99.4867 17.3335C99.6233 17.4495 99.732 17.5882 99.8063 17.7414C99.8806 17.8946 99.9189 18.0592 99.9192 18.2255V23.2925Z" fill="#70A794"/>
<path d="M99.9192 23.2925V24.2925H100.919V23.2925H99.9192ZM88.7637 23.2925H87.7637V24.2925H88.7637V23.2925ZM88.7637 18.2255L87.7637 18.2231V18.2255H88.7637ZM89.1971 17.3335L88.552 16.5695L88.5505 16.5707L89.1971 17.3335ZM90.0792 16.5887L90.7487 15.846L90.1007 15.2618L89.434 15.8247L90.0792 16.5887ZM90.147 16.6499L90.7922 17.414L91.6679 16.6746L90.8166 15.9072L90.147 16.6499ZM89.265 17.3947L88.6198 16.6306L88.6184 16.6319L89.265 17.3947ZM88.8612 18.2255L87.8612 18.223V18.2255H88.8612ZM88.8612 23.2074H87.8612V24.2074H88.8612V23.2074ZM99.8216 23.2074V24.2074H100.822V23.2074H99.8216ZM99.8216 18.2255H100.822L100.822 18.2241L99.8216 18.2255ZM99.4189 17.3947L100.066 16.6324L100.064 16.6303L99.4189 17.3947ZM98.5359 16.6499L97.866 15.9074L97.0148 16.6753L97.8911 17.4143L98.5359 16.6499ZM98.6037 16.5887L99.2484 15.8243L98.5816 15.2619L97.9338 15.8462L98.6037 16.5887ZM99.4867 17.3335L100.134 16.5712L100.131 16.5691L99.4867 17.3335ZM99.9192 18.2255H100.919L100.919 18.224L99.9192 18.2255ZM99.9192 22.2925H88.7637V24.2925H99.9192V22.2925ZM89.7637 23.2925V18.2255H87.7637V23.2925H89.7637ZM89.7637 18.2279C89.7637 18.2158 89.7663 18.1994 89.7765 18.1784L87.9777 17.3042C87.839 17.5896 87.7645 17.9024 87.7637 18.2231L89.7637 18.2279ZM89.7765 18.1784C89.787 18.1567 89.8072 18.1273 89.8437 18.0964L88.5505 16.5707C88.3135 16.7716 88.116 17.0195 87.9777 17.3042L89.7765 18.1784ZM89.8423 18.0976L90.7243 17.3528L89.434 15.8247L88.552 16.5695L89.8423 18.0976ZM89.4096 17.3315L89.4775 17.3927L90.8166 15.9072L90.7487 15.846L89.4096 17.3315ZM89.5019 15.8859L88.6198 16.6306L89.9101 18.1588L90.7922 17.414L89.5019 15.8859ZM88.6184 16.6319C88.3907 16.8249 88.2007 17.0632 88.0675 17.3374L89.8663 18.2116C89.8717 18.2004 89.8845 18.1805 89.9116 18.1575L88.6184 16.6319ZM88.0675 17.3374C87.9339 17.6123 87.862 17.9138 87.8613 18.223L89.8612 18.228C89.8612 18.2271 89.8613 18.2257 89.8619 18.2235C89.8624 18.2212 89.8636 18.2172 89.8663 18.2116L88.0675 17.3374ZM87.8612 18.2255V23.2074H89.8612V18.2255H87.8612ZM88.8612 24.2074H99.8216V22.2074H88.8612V24.2074ZM100.822 23.2074V18.2255H98.8216V23.2074H100.822ZM100.822 18.2241C100.821 17.9149 100.75 17.6133 100.616 17.3384L98.8166 18.2108C98.8193 18.2164 98.8205 18.2203 98.821 18.2225C98.8215 18.2247 98.8216 18.2261 98.8216 18.2269L100.822 18.2241ZM100.616 17.3384C100.483 17.0641 100.294 16.8256 100.066 16.6324L98.7716 18.157C98.7986 18.1799 98.8113 18.1997 98.8166 18.2108L100.616 17.3384ZM100.064 16.6303L99.1806 15.8855L97.8911 17.4143L98.7742 18.1591L100.064 16.6303ZM99.2057 17.3924L99.2735 17.3313L97.9338 15.8462L97.866 15.9074L99.2057 17.3924ZM97.9589 17.3532L98.842 18.0979L100.131 16.5691L99.2484 15.8243L97.9589 17.3532ZM98.8395 18.0958C98.8759 18.1268 98.896 18.1561 98.9065 18.1777L100.706 17.3051C100.568 17.0203 100.371 16.7723 100.134 16.5712L98.8395 18.0958ZM98.9065 18.1777C98.9166 18.1986 98.9192 18.2149 98.9192 18.227L100.919 18.224C100.919 17.9035 100.844 17.5905 100.706 17.3051L98.9065 18.1777ZM98.9192 18.2255V23.2925H100.919V18.2255H98.9192Z" fill="white" mask="url(#path-137-inside-1)"/>
<mask id="path-139-inside-2" fill="white">
<path d="M95.5681 14.145L95.2022 13.8361C95.0339 13.6931 94.8222 13.5951 94.5922 13.5536C94.3621 13.5121 94.1233 13.5289 93.9038 13.6019C93.7383 13.658 93.588 13.7433 93.462 13.8523L93.1157 14.145L93.0479 14.0838L93.3942 13.7911C93.5298 13.6739 93.6917 13.5823 93.8697 13.5221C94.1064 13.4433 94.3641 13.4253 94.6122 13.4701C94.8603 13.5149 95.0886 13.6206 95.2701 13.7749L95.6359 14.0838L95.5681 14.145Z"/>
</mask>
<path d="M95.5681 14.145L95.2022 13.8361C95.0339 13.6931 94.8222 13.5951 94.5922 13.5536C94.3621 13.5121 94.1233 13.5289 93.9038 13.6019C93.7383 13.658 93.588 13.7433 93.462 13.8523L93.1157 14.145L93.0479 14.0838L93.3942 13.7911C93.5298 13.6739 93.6917 13.5823 93.8697 13.5221C94.1064 13.4433 94.3641 13.4253 94.6122 13.4701C94.8603 13.5149 95.0886 13.6206 95.2701 13.7749L95.6359 14.0838L95.5681 14.145Z" fill="#70A794"/>
<path d="M95.5681 14.145L94.9229 14.9091L95.5895 15.472L96.2376 14.8878L95.5681 14.145ZM95.2022 13.8361L94.5548 14.5982L94.557 14.6001L95.2022 13.8361ZM93.9038 13.6019L93.588 12.653L93.5827 12.6549L93.9038 13.6019ZM93.462 13.8523L94.1076 14.6162L94.1168 14.6082L93.462 13.8523ZM93.1157 14.145L92.4463 14.8879L93.0947 15.4722L93.7613 14.9088L93.1157 14.145ZM93.0479 14.0838L92.4023 13.3201L91.5273 14.0597L92.3784 14.8267L93.0479 14.0838ZM93.3942 13.7911L94.0398 14.5549L94.0481 14.5477L93.3942 13.7911ZM93.8697 13.5221L93.554 12.5732L93.5493 12.5748L93.8697 13.5221ZM95.2701 13.7749L94.6224 14.5368L94.6249 14.5389L95.2701 13.7749ZM95.6359 14.0838L96.3055 14.8266L97.1567 14.0592L96.2811 13.3198L95.6359 14.0838ZM96.2132 13.381L95.8474 13.072L94.557 14.6001L94.9229 14.9091L96.2132 13.381ZM95.8496 13.0739C95.539 12.8101 95.1626 12.6403 94.7696 12.5695L94.4147 14.5377C94.4818 14.5498 94.5288 14.5761 94.5548 14.5982L95.8496 13.0739ZM94.7696 12.5695C94.3767 12.4986 93.9681 12.5266 93.5881 12.6531L94.2195 14.5508C94.2784 14.5312 94.3476 14.5256 94.4147 14.5377L94.7696 12.5695ZM93.5827 12.6549C93.3007 12.7505 93.0357 12.8986 92.8073 13.0965L94.1168 14.6082C94.1402 14.5879 94.176 14.5655 94.2249 14.549L93.5827 12.6549ZM92.8165 13.0886L92.4702 13.3813L93.7613 14.9088L94.1075 14.6161L92.8165 13.0886ZM93.7852 13.4022L93.7173 13.341L92.3784 14.8267L92.4463 14.8879L93.7852 13.4022ZM93.6934 14.8476L94.0397 14.5548L92.7487 13.0273L92.4023 13.3201L93.6934 14.8476ZM94.0481 14.5477C94.0813 14.519 94.1286 14.4902 94.1901 14.4694L93.5493 12.5748C93.2548 12.6744 92.9784 12.8287 92.7404 13.0345L94.0481 14.5477ZM94.1854 14.471C94.2615 14.4457 94.3494 14.4388 94.4346 14.4542L94.7898 12.486C94.3787 12.4118 93.9514 12.441 93.554 12.5732L94.1854 14.471ZM94.4346 14.4542C94.5197 14.4696 94.5832 14.5035 94.6224 14.5368L95.9177 13.0129C95.5939 12.7377 95.2009 12.5602 94.7898 12.486L94.4346 14.4542ZM94.6249 14.5389L94.9907 14.8479L96.2811 13.3198L95.9153 13.0109L94.6249 14.5389ZM94.9664 13.3411L94.8985 13.4023L96.2376 14.8878L96.3055 14.8266L94.9664 13.3411Z" fill="white" mask="url(#path-139-inside-2)"/>
<mask id="path-141-inside-3" fill="white">
<path d="M94.3413 21.4278L94.3153 21.413L88.7861 18.2609L88.8395 18.1896L94.3426 21.3269L99.8453 18.3339L99.8969 18.406L94.3413 21.4278Z"/>
</mask>
<path d="M94.3413 21.4278L94.3153 21.413L88.7861 18.2609L88.8395 18.1896L94.3426 21.3269L99.8453 18.3339L99.8969 18.406L94.3413 21.4278Z" fill="#70A794"/>
<path d="M94.3413 21.4278L93.848 22.2976L94.3312 22.5717L94.8192 22.3063L94.3413 21.4278ZM94.3153 21.413L93.82 22.2818L93.8219 22.2829L94.3153 21.413ZM88.7861 18.2609L87.9854 17.6619L87.307 18.5687L88.2909 19.1296L88.7861 18.2609ZM88.8395 18.1896L89.3348 17.3208L88.5677 16.8835L88.0388 17.5906L88.8395 18.1896ZM94.3426 21.3269L93.8473 22.1957L94.3311 22.4715L94.8204 22.2054L94.3426 21.3269ZM99.8453 18.3339L100.659 17.7523L100.144 17.0328L99.3675 17.4554L99.8453 18.3339ZM99.8969 18.406L100.375 19.2845L101.368 18.7443L100.71 17.8245L99.8969 18.406ZM94.8347 20.558L94.8086 20.5432L93.8219 22.2829L93.848 22.2976L94.8347 20.558ZM94.8105 20.5443L89.2814 17.3922L88.2909 19.1296L93.82 22.2818L94.8105 20.5443ZM89.5869 18.8599L89.6402 18.7886L88.0388 17.5906L87.9854 17.6619L89.5869 18.8599ZM88.3442 19.0583L93.8473 22.1957L94.8378 20.4582L89.3348 17.3208L88.3442 19.0583ZM94.8204 22.2054L100.323 19.2123L99.3675 17.4554L93.8648 20.4485L94.8204 22.2054ZM99.0318 18.9154L99.0834 18.9876L100.71 17.8245L100.659 17.7523L99.0318 18.9154ZM99.4191 17.5276L93.8635 20.5493L94.8192 22.3063L100.375 19.2845L99.4191 17.5276Z" fill="white" mask="url(#path-141-inside-3)"/>
<mask id="path-143-inside-4" fill="white">
<path d="M98.6186 19.0775H98.521V14.1569H90.162V18.9669H90.0645V14.0718H98.6186V19.0775Z"/>
</mask>
<path d="M98.6186 19.0775H98.521V14.1569H90.162V18.9669H90.0645V14.0718H98.6186V19.0775Z" fill="#70A794"/>
<path d="M98.6186 19.0775V20.0775H99.6186V19.0775H98.6186ZM98.521 19.0775H97.521V20.0775H98.521V19.0775ZM98.521 14.1569H99.521V13.1569H98.521V14.1569ZM90.162 14.1569V13.1569H89.162V14.1569H90.162ZM90.162 18.9669V19.9669H91.162V18.9669H90.162ZM90.0645 18.9669H89.0645V19.9669H90.0645V18.9669ZM90.0645 14.0718V13.0718H89.0645V14.0718H90.0645ZM98.6186 14.0718H99.6186V13.0718H98.6186V14.0718ZM98.6186 18.0775H98.521V20.0775H98.6186V18.0775ZM99.521 19.0775V14.1569H97.521V19.0775H99.521ZM98.521 13.1569H90.162V15.1569H98.521V13.1569ZM89.162 14.1569V18.9669H91.162V14.1569H89.162ZM90.162 17.9669H90.0645V19.9669H90.162V17.9669ZM91.0645 18.9669V14.0718H89.0645V18.9669H91.0645ZM90.0645 15.0718H98.6186V13.0718H90.0645V15.0718ZM97.6186 14.0718V19.0775H99.6186V14.0718H97.6186Z" fill="white" mask="url(#path-143-inside-4)"/>
<mask id="path-145-inside-5" fill="white">
<path d="M94.3153 21.3426L91.127 23.2141L91.1815 23.2848L94.3698 21.4133L94.3153 21.3426Z"/>
</mask>
<path d="M94.3153 21.3426L91.127 23.2141L91.1815 23.2848L94.3698 21.4133L94.3153 21.3426Z" fill="#70A794"/>
<path d="M91.127 23.2141L90.5162 22.4223L89.6538 22.9285L90.2645 23.7203L91.127 23.2141ZM94.3153 21.3426L95.1777 20.8364L94.5669 20.0446L93.7045 20.5508L94.3153 21.3426ZM94.3698 21.4133L94.9805 22.2051L95.8429 21.6988L95.2322 20.907L94.3698 21.4133ZM91.1815 23.2848L90.319 23.791L90.9298 24.5828L91.7922 24.0766L91.1815 23.2848ZM91.7377 24.0059L94.926 22.1344L93.7045 20.5508L90.5162 22.4223L91.7377 24.0059ZM93.4529 21.8488L93.5074 21.9195L95.2322 20.907L95.1777 20.8364L93.4529 21.8488ZM93.759 20.6215L90.5707 22.493L91.7922 24.0766L94.9805 22.2051L93.759 20.6215ZM92.0439 22.7785L91.9894 22.7079L90.2645 23.7203L90.319 23.791L92.0439 22.7785Z" fill="white" mask="url(#path-145-inside-5)"/>
<mask id="path-147-inside-6" fill="white">
<path d="M96.9848 15.717H91.5693V15.8022H96.9848V15.717Z"/>
</mask>
<path d="M96.9848 15.717H91.5693V15.8022H96.9848V15.717Z" fill="#70A794"/>
<path d="M91.5693 15.717V14.717H90.5693V15.717H91.5693ZM96.9848 15.717H97.9848V14.717H96.9848V15.717ZM96.9848 15.8022V16.8022H97.9848V15.8022H96.9848ZM91.5693 15.8022H90.5693V16.8022H91.5693V15.8022ZM91.5693 16.717H96.9848V14.717H91.5693V16.717ZM95.9848 15.717V15.8022H97.9848V15.717H95.9848ZM96.9848 14.8022H91.5693V16.8022H96.9848V14.8022ZM92.5693 15.8022V15.717H90.5693V15.8022H92.5693Z" fill="white" mask="url(#path-147-inside-6)"/>
<mask id="path-149-inside-7" fill="white">
<path d="M96.9848 16.5535H91.5693V16.6386H96.9848V16.5535Z"/>
</mask>
<path d="M96.9848 16.5535H91.5693V16.6386H96.9848V16.5535Z" fill="#70A794"/>
<path d="M91.5693 16.5535V15.5535H90.5693V16.5535H91.5693ZM96.9848 16.5535H97.9848V15.5535H96.9848V16.5535ZM96.9848 16.6386V17.6386H97.9848V16.6386H96.9848ZM91.5693 16.6386H90.5693V17.6386H91.5693V16.6386ZM91.5693 17.5535H96.9848V15.5535H91.5693V17.5535ZM95.9848 16.5535V16.6386H97.9848V16.5535H95.9848ZM96.9848 15.6386H91.5693V17.6386H96.9848V15.6386ZM92.5693 16.6386V16.5535H90.5693V16.6386H92.5693Z" fill="white" mask="url(#path-149-inside-7)"/>
<mask id="path-151-inside-8" fill="white">
<path d="M96.9848 17.3464H91.5693V17.4316H96.9848V17.3464Z"/>
</mask>
<path d="M96.9848 17.3464H91.5693V17.4316H96.9848V17.3464Z" fill="#70A794"/>
<path d="M91.5693 17.3464V16.3464H90.5693V17.3464H91.5693ZM96.9848 17.3464H97.9848V16.3464H96.9848V17.3464ZM96.9848 17.4316V18.4316H97.9848V17.4316H96.9848ZM91.5693 17.4316H90.5693V18.4316H91.5693V17.4316ZM91.5693 18.3464H96.9848V16.3464H91.5693V18.3464ZM95.9848 17.3464V17.4316H97.9848V17.3464H95.9848ZM96.9848 16.4316H91.5693V18.4316H96.9848V16.4316ZM92.5693 17.4316V17.3464H90.5693V17.4316H92.5693Z" fill="white" mask="url(#path-151-inside-8)"/>
<mask id="path-153-inside-9" fill="white">
<path d="M96.9848 18.1826H91.5693V18.2677H96.9848V18.1826Z"/>
</mask>
<path d="M96.9848 18.1826H91.5693V18.2677H96.9848V18.1826Z" fill="#70A794"/>
<path d="M91.5693 18.1826V17.1826H90.5693V18.1826H91.5693ZM96.9848 18.1826H97.9848V17.1826H96.9848V18.1826ZM96.9848 18.2677V19.2677H97.9848V18.2677H96.9848ZM91.5693 18.2677H90.5693V19.2677H91.5693V18.2677ZM91.5693 19.1826H96.9848V17.1826H91.5693V19.1826ZM95.9848 18.1826V18.2677H97.9848V18.1826H95.9848ZM96.9848 17.2677H91.5693V19.2677H96.9848V17.2677ZM92.5693 18.2677V18.1826H90.5693V18.2677H92.5693Z" fill="white" mask="url(#path-153-inside-9)"/>
<mask id="path-155-inside-10" fill="white">
<path d="M96.9848 19.035H91.5693V19.1202H96.9848V19.035Z"/>
</mask>
<path d="M96.9848 19.035H91.5693V19.1202H96.9848V19.035Z" fill="#70A794"/>
<path d="M91.5693 19.035V18.035H90.5693V19.035H91.5693ZM96.9848 19.035H97.9848V18.035H96.9848V19.035ZM96.9848 19.1202V20.1202H97.9848V19.1202H96.9848ZM91.5693 19.1202H90.5693V20.1202H91.5693V19.1202ZM91.5693 20.035H96.9848V18.035H91.5693V20.035ZM95.9848 19.035V19.1202H97.9848V19.035H95.9848ZM96.9848 18.1202H91.5693V20.1202H96.9848V18.1202ZM92.5693 19.1202V19.035H90.5693V19.1202H92.5693Z" fill="white" mask="url(#path-155-inside-10)"/>
<path d="M55.6929 49.0368H55.5929H42.1982H42.0982V48.9368V42.8527V42.8525C42.0988 42.6373 42.1487 42.4248 42.2445 42.2276C42.3402 42.0306 42.4798 41.8532 42.654 41.7054L42.6542 41.7053L43.7133 40.811L43.7799 40.7548L43.8447 40.8132L43.9262 40.8866L44.0114 40.9634L43.9238 41.0373L42.8648 41.9315C42.8648 41.9315 42.8648 41.9315 42.8648 41.9315C42.7219 42.0527 42.609 42.1968 42.5322 42.3549C42.4554 42.513 42.4158 42.6823 42.4154 42.8529V48.7346H55.3758L55.3758 42.8529L55.3758 42.8527M55.6929 49.0368L54.9922 41.8552C55.145 41.9849 55.2665 42.14 55.3496 42.3113C55.4326 42.4826 55.4755 42.6667 55.4758 42.8527H55.3758M55.6929 49.0368V48.9368V42.8527L55.6929 42.8526C55.6926 42.6375 55.6429 42.425 55.5473 42.2278C55.4518 42.0307 55.3125 41.8533 55.1384 41.7055L55.1381 41.7053L54.0778 40.811L54.0112 40.7548L53.9464 40.8132L53.865 40.8867L53.7798 40.9634L53.8675 41.0374L54.9275 41.9314C54.9275 41.9314 54.9276 41.9315 54.9276 41.9315M55.6929 49.0368L54.9276 41.9315M55.3758 42.8527C55.3755 42.6822 55.3362 42.513 55.2596 42.3549C55.1829 42.1968 55.0703 42.0527 54.9276 41.9315M55.3758 42.8527L54.9276 41.9315M43.8593 40.9609L43.7822 41.026L43.7923 41.0352L43.8593 40.9609ZM43.8593 40.9609L43.7948 40.8845L43.7843 40.8933L43.8593 40.9609ZM42.1982 48.8368V42.8527L53.9989 41.0352L53.9319 40.9609L53.9964 40.8845L54.0069 40.8933L54.0134 40.8875L55.0737 41.7817C55.2377 41.921 55.3682 42.0875 55.4574 42.2715C55.5466 42.4554 55.5926 42.653 55.5929 42.8527V48.8368V48.9368H55.4929H42.2982H42.1982V48.8368Z" fill="white" stroke="white" stroke-width="0.2"/>
<path d="M50.3025 38.0294L50.3692 38.0857L50.434 38.0273L50.5155 37.9539L50.6006 37.8771L50.513 37.8032L50.074 37.4324C50.0739 37.4324 50.0739 37.4323 50.0738 37.4323C49.8417 37.235 49.5512 37.1009 49.237 37.0442C48.9228 36.9875 48.5965 37.0103 48.2961 37.1102L48.2961 37.1102L48.2956 37.1104C48.0704 37.1865 47.8648 37.3026 47.6918 37.452L47.2763 37.8032L47.1888 37.8772L47.2739 37.9539L47.3554 38.0273L47.4202 38.0858L47.4869 38.0294L47.9027 37.678L47.9027 37.678L47.9036 37.6772C48.0445 37.5552 48.2135 37.4591 48.4004 37.3957C48.6479 37.3134 48.9176 37.2945 49.1775 37.3413C49.4374 37.3882 49.6751 37.4987 49.863 37.6583L49.8632 37.6585L50.3025 38.0294Z" fill="white" stroke="white" stroke-width="0.2"/>
<path d="M48.8454 46.7847L48.8938 46.8123L48.9427 46.7857L55.6134 43.1573L55.7128 43.1032L55.6469 43.0112L55.5849 42.9246L55.5335 42.8527L55.4558 42.895L48.8975 46.4622L42.3382 42.7227L42.2616 42.679L42.2087 42.7496L42.1446 42.8352L42.0766 42.9259L42.1751 42.982L48.8141 46.7669L48.8142 46.767L48.8454 46.7847Z" fill="white" stroke="white" stroke-width="0.2"/>
<path d="M54.031 43.9758H54.131V43.8758V37.8652V37.7652H54.031H43.7598H43.6598V37.8652V43.7429V43.8429H43.7598H43.8769H43.9769V43.7429V38.0675H53.8139V43.8758V43.9758H53.9139H54.031Z" fill="white" stroke="white" stroke-width="0.2"/>
<path d="M48.9496 46.5448L48.8885 46.4656L48.8023 46.5163L44.9741 48.7633L44.8878 48.814L44.9489 48.8932L45.0144 48.978L45.0754 49.0572L45.1617 49.0065L48.9899 46.7595L49.0761 46.7088L49.015 46.6297L48.9496 46.5448Z" fill="white" stroke="white" stroke-width="0.2"/>
<path d="M52.1687 39.8408V39.7408H52.0687H45.5664H45.4664V39.8408V39.943V40.043H45.5664H52.0687H52.1687V39.943V39.8408Z" fill="white" stroke="white" stroke-width="0.2"/>
<path d="M52.1687 40.845V40.745H52.0687H45.5664H45.4664V40.845V40.9472V41.0472H45.5664H52.0687H52.1687V40.9472V40.845Z" fill="white" stroke="white" stroke-width="0.2"/>
<path d="M52.1687 41.7971V41.6971H52.0687H45.5664H45.4664V41.7971V41.8993V41.9993H45.5664H52.0687H52.1687V41.8993V41.7971Z" fill="white" stroke="white" stroke-width="0.2"/>
<path d="M52.1687 42.8013V42.7013H52.0687H45.5664H45.4664V42.8013V42.9035V43.0035H45.5664H52.0687H52.1687V42.9035V42.8013Z" fill="white" stroke="white" stroke-width="0.2"/>
<path d="M52.1687 43.8247V43.7247H52.0687H45.5664H45.4664V43.8247V43.927V44.027H45.5664H52.0687H52.1687V43.927V43.8247Z" fill="white" stroke="white" stroke-width="0.2"/>
<path d="M131.579 43.318L131.514 43.393C131.458 43.3443 131.38 43.315 131.296 43.3149C131.296 43.3149 131.296 43.3149 131.296 43.3149L131.296 43.2149L131.579 43.318ZM131.579 43.318L131.514 43.393C131.569 43.4413 131.597 43.5036 131.597 43.5652V47.7341H122.206V43.5652C122.206 43.5036 122.234 43.4412 122.289 43.393C122.345 43.3443 122.423 43.315 122.507 43.3149L131.579 43.318ZM131.851 48.068H131.951V47.968V43.5651L131.951 43.565C131.951 43.4054 131.878 43.2557 131.754 43.1476C131.63 43.0399 131.465 42.9812 131.296 42.9811H131.296L122.507 42.9811L122.507 42.9811C122.337 42.9812 122.173 43.0399 122.049 43.1476C121.925 43.2557 121.852 43.4054 121.852 43.565V43.5651V47.968V48.068H121.952H131.851Z" fill="white" stroke="black" stroke-width="0.2"/>
<path d="M121.907 43.559L121.837 43.6486L121.935 43.7064L126.142 46.1977C126.142 46.1977 126.142 46.1977 126.142 46.1978C126.367 46.3316 126.631 46.4027 126.901 46.4029L126.902 46.4029C127.172 46.4027 127.436 46.3316 127.661 46.1977C127.661 46.1977 127.661 46.1977 127.661 46.1977L131.868 43.7064L131.966 43.6486L131.896 43.559L131.81 43.4481L131.756 43.3786L131.68 43.4235L127.473 45.9148L127.473 45.915C127.306 46.0149 127.106 46.069 126.902 46.069C126.697 46.069 126.497 46.0149 126.33 45.915L126.33 45.9148L122.123 43.4235L122.047 43.3786L121.993 43.4481L121.907 43.559Z" fill="white" stroke="black" stroke-width="0.2"/>
<path d="M127.85 45.7997L127.76 45.7558L127.706 45.84L127.631 45.9569L127.577 46.0411L127.667 46.0849L131.682 48.0437L131.772 48.0875L131.826 48.0033L131.901 47.8865L131.955 47.8023L131.865 47.7584L127.85 45.7997Z" fill="white" stroke="black" stroke-width="0.2"/>
<path d="M126.096 45.8401L126.042 45.7559L125.952 45.7997L121.938 47.7581L121.848 47.802L121.902 47.8861L121.977 48.003L122.031 48.0872L122.121 48.0434L126.135 46.085L126.225 46.0412L126.171 45.957L126.096 45.8401Z" fill="white" stroke="black" stroke-width="0.2"/>
<path d="M42.7258 122.148C42.7258 122.148 40.2152 122.036 39.4504 123.484C38.6856 124.932 36.0047 126.12 34.6856 126.38V124.449L33.2813 126.38C33.2813 126.38 32.4302 126.788 30.7706 127.122C29.111 127.456 27.5791 128.533 27.5791 128.533C27.5791 128.533 28.4727 126.452 29.5366 125.339C30.6004 124.227 31.1111 124.152 31.1111 124.152L29.4089 124.449C29.4089 124.449 30.5153 122.593 31.4089 121.628C32.3026 120.663 33.2982 119.812 35.792 119.652C38.2858 119.492 42.7258 122.148 42.7258 122.148Z" fill="#4F8D88"/>
<defs>
<filter id="filter0_d" x="-0.925781" y="0.347046" width="184.752" height="153.907" filterUnits="userSpaceOnUse" color-interpolation-filters="sRGB">
<feFlood flood-opacity="0" result="BackgroundImageFix"/>
<feColorMatrix in="SourceAlpha" type="matrix" values="0 0 0 0 0 0 0 0 0 0 0 0 0 0 0 0 0 0 127 0" result="hardAlpha"/>
<feOffset dx="8" dy="8"/>
<feGaussianBlur stdDeviation="7"/>
<feColorMatrix type="matrix" values="0 0 0 0 0 0 0 0 0 0 0 0 0 0 0 0 0 0 0.25 0"/>
<feBlend mode="normal" in2="BackgroundImageFix" result="effect1_dropShadow"/>
<feBlend mode="normal" in="SourceGraphic" in2="effect1_dropShadow" result="shape"/>
</filter>
<filter id="filter1_d" x="-0.925781" y="56.4744" width="68.5706" height="70.0664" filterUnits="userSpaceOnUse" color-interpolation-filters="sRGB">
<feFlood flood-opacity="0" result="BackgroundImageFix"/>
<feColorMatrix in="SourceAlpha" type="matrix" values="0 0 0 0 0 0 0 0 0 0 0 0 0 0 0 0 0 0 127 0" result="hardAlpha"/>
<feOffset dx="8" dy="8"/>
<feGaussianBlur stdDeviation="7"/>
<feColorMatrix type="matrix" values="0 0 0 0 0 0 0 0 0 0 0 0 0 0 0 0 0 0 0.25 0"/>
<feBlend mode="normal" in2="BackgroundImageFix" result="effect1_dropShadow"/>
<feBlend mode="normal" in="SourceGraphic" in2="effect1_dropShadow" result="shape"/>
</filter>
<filter id="filter2_d" x="22.5947" y="0.44104" width="42.6523" height="42.3293" filterUnits="userSpaceOnUse" color-interpolation-filters="sRGB">
<feFlood flood-opacity="0" result="BackgroundImageFix"/>
<feColorMatrix in="SourceAlpha" type="matrix" values="0 0 0 0 0 0 0 0 0 0 0 0 0 0 0 0 0 0 127 0" result="hardAlpha"/>
<feOffset dx="8" dy="8"/>
<feGaussianBlur stdDeviation="7"/>
<feColorMatrix type="matrix" values="0 0 0 0 0 0 0 0 0 0 0 0 0 0 0 0 0 0 0.25 0"/>
<feBlend mode="normal" in2="BackgroundImageFix" result="effect1_dropShadow"/>
<feBlend mode="normal" in="SourceGraphic" in2="effect1_dropShadow" result="shape"/>
</filter>
<filter id="filter3_d" x="19.6328" y="99.8784" width="31.9504" height="31.8763" filterUnits="userSpaceOnUse" color-interpolation-filters="sRGB">
<feFlood flood-opacity="0" result="BackgroundImageFix"/>
<feColorMatrix in="SourceAlpha" type="matrix" values="0 0 0 0 0 0 0 0 0 0 0 0 0 0 0 0 0 0 127 0" result="hardAlpha"/>
<feOffset dx="8" dy="8"/>
<feGaussianBlur stdDeviation="7"/>
<feColorMatrix type="matrix" values="0 0 0 0 0 0 0 0 0 0 0 0 0 0 0 0 0 0 0.25 0"/>
<feBlend mode="normal" in2="BackgroundImageFix" result="effect1_dropShadow"/>
<feBlend mode="normal" in="SourceGraphic" in2="effect1_dropShadow" result="shape"/>
</filter>
<filter id="filter4_d" x="33.7109" y="105.523" width="54.8585" height="55.4731" filterUnits="userSpaceOnUse" color-interpolation-filters="sRGB">
<feFlood flood-opacity="0" result="BackgroundImageFix"/>
<feColorMatrix in="SourceAlpha" type="matrix" values="0 0 0 0 0 0 0 0 0 0 0 0 0 0 0 0 0 0 127 0" result="hardAlpha"/>
<feOffset dx="8" dy="8"/>
<feGaussianBlur stdDeviation="7"/>
<feColorMatrix type="matrix" values="0 0 0 0 0 0 0 0 0 0 0 0 0 0 0 0 0 0 0.25 0"/>
<feBlend mode="normal" in2="BackgroundImageFix" result="effect1_dropShadow"/>
<feBlend mode="normal" in="SourceGraphic" in2="effect1_dropShadow" result="shape"/>
</filter>
<filter id="filter5_d" x="-3.70703" y="45.8558" width="43.9307" height="44.2952" filterUnits="userSpaceOnUse" color-interpolation-filters="sRGB">
<feFlood flood-opacity="0" result="BackgroundImageFix"/>
<feColorMatrix in="SourceAlpha" type="matrix" values="0 0 0 0 0 0 0 0 0 0 0 0 0 0 0 0 0 0 127 0" result="hardAlpha"/>
<feOffset dx="8" dy="8"/>
<feGaussianBlur stdDeviation="7"/>
<feColorMatrix type="matrix" values="0 0 0 0 0 0 0 0 0 0 0 0 0 0 0 0 0 0 0.25 0"/>
<feBlend mode="normal" in2="BackgroundImageFix" result="effect1_dropShadow"/>
<feBlend mode="normal" in="SourceGraphic" in2="effect1_dropShadow" result="shape"/>
</filter>
<filter id="filter6_d" x="28.083" y="15.0837" width="31.7361" height="31.4413" filterUnits="userSpaceOnUse" color-interpolation-filters="sRGB">
<feFlood flood-opacity="0" result="BackgroundImageFix"/>
<feColorMatrix in="SourceAlpha" type="matrix" values="0 0 0 0 0 0 0 0 0 0 0 0 0 0 0 0 0 0 127 0" result="hardAlpha"/>
<feOffset dx="8" dy="8"/>
<feGaussianBlur stdDeviation="7"/>
<feColorMatrix type="matrix" values="0 0 0 0 0 0 0 0 0 0 0 0 0 0 0 0 0 0 0.25 0"/>
<feBlend mode="normal" in2="BackgroundImageFix" result="effect1_dropShadow"/>
<feBlend mode="normal" in="SourceGraphic" in2="effect1_dropShadow" result="shape"/>
</filter>
<filter id="filter7_d" x="149.585" y="66.2525" width="31.9504" height="31.8763" filterUnits="userSpaceOnUse" color-interpolation-filters="sRGB">
<feFlood flood-opacity="0" result="BackgroundImageFix"/>
<feColorMatrix in="SourceAlpha" type="matrix" values="0 0 0 0 0 0 0 0 0 0 0 0 0 0 0 0 0 0 127 0" result="hardAlpha"/>
<feOffset dx="8" dy="8"/>
<feGaussianBlur stdDeviation="7"/>
<feColorMatrix type="matrix" values="0 0 0 0 0 0 0 0 0 0 0 0 0 0 0 0 0 0 0.25 0"/>
<feBlend mode="normal" in2="BackgroundImageFix" result="effect1_dropShadow"/>
<feBlend mode="normal" in="SourceGraphic" in2="effect1_dropShadow" result="shape"/>
</filter>
<filter id="filter8_d" x="137.29" y="72.4081" width="47.0492" height="39.9532" filterUnits="userSpaceOnUse" color-interpolation-filters="sRGB">
<feFlood flood-opacity="0" result="BackgroundImageFix"/>
<feColorMatrix in="SourceAlpha" type="matrix" values="0 0 0 0 0 0 0 0 0 0 0 0 0 0 0 0 0 0 127 0" result="hardAlpha"/>
<feOffset dx="8" dy="8"/>
<feGaussianBlur stdDeviation="7"/>
<feColorMatrix type="matrix" values="0 0 0 0 0 0 0 0 0 0 0 0 0 0 0 0 0 0 0.25 0"/>
<feBlend mode="normal" in2="BackgroundImageFix" result="effect1_dropShadow"/>
<feBlend mode="normal" in="SourceGraphic" in2="effect1_dropShadow" result="shape"/>
</filter>
<filter id="filter9_d" x="27.3398" y="61.7692" width="32.1883" height="32.0425" filterUnits="userSpaceOnUse" color-interpolation-filters="sRGB">
<feFlood flood-opacity="0" result="BackgroundImageFix"/>
<feColorMatrix in="SourceAlpha" type="matrix" values="0 0 0 0 0 0 0 0 0 0 0 0 0 0 0 0 0 0 127 0" result="hardAlpha"/>
<feOffset dx="8" dy="8"/>
<feGaussianBlur stdDeviation="7"/>
<feColorMatrix type="matrix" values="0 0 0 0 0 0 0 0 0 0 0 0 0 0 0 0 0 0 0.25 0"/>
<feBlend mode="normal" in2="BackgroundImageFix" result="effect1_dropShadow"/>
<feBlend mode="normal" in="SourceGraphic" in2="effect1_dropShadow" result="shape"/>
</filter>
<linearGradient id="paint0_linear" x1="9.8484" y1="-18.8345" x2="178.968" y2="-8.22787" gradientUnits="userSpaceOnUse">
<stop offset="0.0756841" stop-color="#B565D8"/>
<stop offset="0.945898" stop-color="#EE609C"/>
</linearGradient>
<linearGradient id="paint1_linear" x1="1.56914" y1="72.1503" x2="23.8341" y2="56.2408" gradientUnits="userSpaceOnUse">
<stop offset="0.0756841" stop-color="#B565D8"/>
<stop offset="0.945898" stop-color="#EE609C"/>
</linearGradient>
<linearGradient id="paint2_linear" x1="27.9387" y1="9.57822" x2="38.8972" y2="4.61109" gradientUnits="userSpaceOnUse">
<stop offset="0.0756841" stop-color="#B565D8"/>
<stop offset="0.945898" stop-color="#EE609C"/>
</linearGradient>
<linearGradient id="paint3_linear" x1="24.4167" y1="108.408" x2="26.5213" y2="104.572" gradientUnits="userSpaceOnUse">
<stop offset="0.0756841" stop-color="#B565D8"/>
<stop offset="0.945898" stop-color="#EE609C"/>
</linearGradient>
<linearGradient id="paint4_linear" x1="36.4375" y1="128.176" x2="47.3697" y2="108.252" gradientUnits="userSpaceOnUse">
<stop offset="0.0756841" stop-color="#B565D8"/>
<stop offset="0.945898" stop-color="#EE609C"/>
</linearGradient>
<linearGradient id="paint5_linear" x1="0.351354" y1="61.7335" x2="6.83564" y2="49.9157" gradientUnits="userSpaceOnUse">
<stop offset="0.0756841" stop-color="#B565D8"/>
<stop offset="0.945898" stop-color="#EE609C"/>
</linearGradient>
<linearGradient id="paint6_linear" x1="38.4708" y1="21.7304" x2="37.8762" y2="24.9291" gradientUnits="userSpaceOnUse">
<stop offset="0.0756841" stop-color="#B565D8"/>
<stop offset="0.945898" stop-color="#EE609C"/>
</linearGradient>
<linearGradient id="paint7_linear" x1="154.369" y1="74.7822" x2="156.474" y2="70.9464" gradientUnits="userSpaceOnUse">
<stop offset="0.0756841" stop-color="#B565D8"/>
<stop offset="0.945898" stop-color="#EE609C"/>
</linearGradient>
<linearGradient id="paint8_linear" x1="149.381" y1="70.9977" x2="166.04" y2="80.1647" gradientUnits="userSpaceOnUse">
<stop offset="0.0756841" stop-color="#B565D8"/>
<stop offset="0.945898" stop-color="#EE609C"/>
</linearGradient>
<linearGradient id="paint9_linear" x1="34.82" y1="66.3484" x2="38.8413" y2="68.5112" gradientUnits="userSpaceOnUse">
<stop offset="0.0756841" stop-color="#B565D8"/>
<stop offset="0.945898" stop-color="#EE609C"/>
</linearGradient>
<linearGradient id="paint10_linear" x1="54.7917" y1="85.7362" x2="59.237" y2="92.176" gradientUnits="userSpaceOnUse">
<stop offset="0.0756841" stop-color="#B565D8"/>
<stop offset="0.945898" stop-color="#EE609C"/>
</linearGradient>
<linearGradient id="paint11_linear" x1="46.6473" y1="82.0242" x2="51.0825" y2="88.472" gradientUnits="userSpaceOnUse">
<stop offset="0.0756841" stop-color="#B565D8"/>
<stop offset="0.945898" stop-color="#EE609C"/>
</linearGradient>
<linearGradient id="paint12_linear" x1="31.3533" y1="82.4727" x2="35.7594" y2="88.9713" gradientUnits="userSpaceOnUse">
<stop offset="0.0756841" stop-color="#B565D8"/>
<stop offset="0.945898" stop-color="#EE609C"/>
</linearGradient>
<linearGradient id="paint13_linear" x1="26.5032" y1="76.8438" x2="30.9241" y2="83.3309" gradientUnits="userSpaceOnUse">
<stop offset="0.0756841" stop-color="#B565D8"/>
<stop offset="0.945898" stop-color="#EE609C"/>
</linearGradient>
<linearGradient id="paint14_linear" x1="50.9218" y1="83.7638" x2="55.3626" y2="90.207" gradientUnits="userSpaceOnUse">
<stop offset="0.0756841" stop-color="#B565D8"/>
<stop offset="0.945898" stop-color="#EE609C"/>
</linearGradient>
<linearGradient id="paint15_linear" x1="41.8434" y1="80.5942" x2="46.2713" y2="87.048" gradientUnits="userSpaceOnUse">
<stop offset="0.0756841" stop-color="#B565D8"/>
<stop offset="0.945898" stop-color="#EE609C"/>
</linearGradient>
<linearGradient id="paint16_linear" x1="28.8399" y1="79.7096" x2="33.2525" y2="86.2032" gradientUnits="userSpaceOnUse">
<stop offset="0.0756841" stop-color="#B565D8"/>
<stop offset="0.945898" stop-color="#EE609C"/>
</linearGradient>
<linearGradient id="paint17_linear" x1="84.5438" y1="110.68" x2="89.0411" y2="117.076" gradientUnits="userSpaceOnUse">
<stop offset="0.0756841" stop-color="#B565D8"/>
<stop offset="0.945898" stop-color="#EE609C"/>
</linearGradient>
<linearGradient id="paint18_linear" x1="79.1479" y1="105.368" x2="83.6432" y2="111.795" gradientUnits="userSpaceOnUse">
<stop offset="0.0756841" stop-color="#B565D8"/>
<stop offset="0.945898" stop-color="#EE609C"/>
</linearGradient>
<linearGradient id="paint19_linear" x1="73.6809" y1="100.098" x2="78.1647" y2="106.535" gradientUnits="userSpaceOnUse">
<stop offset="0.0756841" stop-color="#B565D8"/>
<stop offset="0.945898" stop-color="#EE609C"/>
</linearGradient>
<linearGradient id="paint20_linear" x1="67.9429" y1="94.9862" x2="72.4174" y2="101.43" gradientUnits="userSpaceOnUse">
<stop offset="0.0756841" stop-color="#B565D8"/>
<stop offset="0.945898" stop-color="#EE609C"/>
</linearGradient>
<linearGradient id="paint21_linear" x1="61.7388" y1="90.1458" x2="66.1917" y2="96.5791" gradientUnits="userSpaceOnUse">
<stop offset="0.0756841" stop-color="#B565D8"/>
<stop offset="0.945898" stop-color="#EE609C"/>
</linearGradient>
<linearGradient id="paint22_linear" x1="81.8434" y1="108.025" x2="86.3461" y2="114.446" gradientUnits="userSpaceOnUse">
<stop offset="0.0756841" stop-color="#B565D8"/>
<stop offset="0.945898" stop-color="#EE609C"/>
</linearGradient>
<linearGradient id="paint23_linear" x1="76.4355" y1="102.721" x2="80.9245" y2="109.153" gradientUnits="userSpaceOnUse">
<stop offset="0.0756841" stop-color="#B565D8"/>
<stop offset="0.945898" stop-color="#EE609C"/>
</linearGradient>
<linearGradient id="paint24_linear" x1="70.8593" y1="97.5149" x2="75.3381" y2="103.955" gradientUnits="userSpaceOnUse">
<stop offset="0.0756841" stop-color="#B565D8"/>
<stop offset="0.945898" stop-color="#EE609C"/>
</linearGradient>
<linearGradient id="paint25_linear" x1="64.911" y1="92.5249" x2="69.3815" y2="98.972" gradientUnits="userSpaceOnUse">
<stop offset="0.0756841" stop-color="#B565D8"/>
<stop offset="0.945898" stop-color="#EE609C"/>
</linearGradient>
<linearGradient id="paint26_linear" x1="58.3755" y1="87.8774" x2="62.8247" y2="94.3139" gradientUnits="userSpaceOnUse">
<stop offset="0.0756841" stop-color="#B565D8"/>
<stop offset="0.945898" stop-color="#EE609C"/>
</linearGradient>
<linearGradient id="paint27_linear" x1="109.402" y1="130.02" x2="114.089" y2="136.246" gradientUnits="userSpaceOnUse">
<stop offset="0.0756841" stop-color="#B565D8"/>
<stop offset="0.945898" stop-color="#EE609C"/>
</linearGradient>
<linearGradient id="paint28_linear" x1="102.185" y1="125.769" x2="106.789" y2="132.073" gradientUnits="userSpaceOnUse">
<stop offset="0.0756841" stop-color="#B565D8"/>
<stop offset="0.945898" stop-color="#EE609C"/>
</linearGradient>
<linearGradient id="paint29_linear" x1="95.8517" y1="121.003" x2="100.405" y2="127.352" gradientUnits="userSpaceOnUse">
<stop offset="0.0756841" stop-color="#B565D8"/>
<stop offset="0.945898" stop-color="#EE609C"/>
</linearGradient>
<linearGradient id="paint30_linear" x1="90.0472" y1="115.928" x2="94.5672" y2="122.306" gradientUnits="userSpaceOnUse">
<stop offset="0.0756841" stop-color="#B565D8"/>
<stop offset="0.945898" stop-color="#EE609C"/>
</linearGradient>
<linearGradient id="paint31_linear" x1="113.524" y1="131.847" x2="118.277" y2="138.009" gradientUnits="userSpaceOnUse">
<stop offset="0.0756841" stop-color="#B565D8"/>
<stop offset="0.945898" stop-color="#EE609C"/>
</linearGradient>
<linearGradient id="paint32_linear" x1="105.641" y1="127.983" x2="110.281" y2="134.254" gradientUnits="userSpaceOnUse">
<stop offset="0.0756841" stop-color="#B565D8"/>
<stop offset="0.945898" stop-color="#EE609C"/>
</linearGradient>
<linearGradient id="paint33_linear" x1="98.9336" y1="123.435" x2="103.509" y2="129.764" gradientUnits="userSpaceOnUse">
<stop offset="0.0756841" stop-color="#B565D8"/>
<stop offset="0.945898" stop-color="#EE609C"/>
</linearGradient>
<linearGradient id="paint34_linear" x1="92.8935" y1="118.499" x2="97.4284" y2="124.863" gradientUnits="userSpaceOnUse">
<stop offset="0.0756841" stop-color="#B565D8"/>
<stop offset="0.945898" stop-color="#EE609C"/>
</linearGradient>
<linearGradient id="paint35_linear" x1="87.2685" y1="113.32" x2="91.7904" y2="119.725" gradientUnits="userSpaceOnUse">
<stop offset="0.0756841" stop-color="#B565D8"/>
<stop offset="0.945898" stop-color="#EE609C"/>
</linearGradient>
<linearGradient id="paint36_linear" x1="118.122" y1="133.396" x2="122.988" y2="139.472" gradientUnits="userSpaceOnUse">
<stop offset="0.0756841" stop-color="#B565D8"/>
<stop offset="0.945898" stop-color="#EE609C"/>
</linearGradient>
<linearGradient id="paint37_linear" x1="130.014" y1="134.927" x2="135.373" y2="140.345" gradientUnits="userSpaceOnUse">
<stop offset="0.0756841" stop-color="#B565D8"/>
<stop offset="0.945898" stop-color="#EE609C"/>
</linearGradient>
<linearGradient id="paint38_linear" x1="123.424" y1="134.538" x2="128.434" y2="140.416" gradientUnits="userSpaceOnUse">
<stop offset="0.0756841" stop-color="#B565D8"/>
<stop offset="0.945898" stop-color="#EE609C"/>
</linearGradient>
<linearGradient id="paint39_linear" x1="26.0825" y1="13.7045" x2="31.8387" y2="18.1409" gradientUnits="userSpaceOnUse">
<stop offset="0.0756841" stop-color="#B565D8"/>
<stop offset="0.945898" stop-color="#EE609C"/>
</linearGradient>
<linearGradient id="paint40_linear" x1="19.8134" y1="21.5782" x2="24.896" y2="27.3643" gradientUnits="userSpaceOnUse">
<stop offset="0.0756841" stop-color="#B565D8"/>
<stop offset="0.945898" stop-color="#EE609C"/>
</linearGradient>
<linearGradient id="paint41_linear" x1="18.9743" y1="64.322" x2="23.4476" y2="70.7669" gradientUnits="userSpaceOnUse">
<stop offset="0.0756841" stop-color="#B565D8"/>
<stop offset="0.945898" stop-color="#EE609C"/>
</linearGradient>
<linearGradient id="paint42_linear" x1="16.4209" y1="57.3564" x2="20.9338" y2="63.7683" gradientUnits="userSpaceOnUse">
<stop offset="0.0756841" stop-color="#B565D8"/>
<stop offset="0.945898" stop-color="#EE609C"/>
</linearGradient>
<linearGradient id="paint43_linear" x1="14.8011" y1="49.8494" x2="19.351" y2="56.2012" gradientUnits="userSpaceOnUse">
<stop offset="0.0756841" stop-color="#B565D8"/>
<stop offset="0.945898" stop-color="#EE609C"/>
</linearGradient>
<linearGradient id="paint44_linear" x1="14.3208" y1="41.6774" x2="18.9435" y2="47.9641" gradientUnits="userSpaceOnUse">
<stop offset="0.0756841" stop-color="#B565D8"/>
<stop offset="0.945898" stop-color="#EE609C"/>
</linearGradient>
<linearGradient id="paint45_linear" x1="15.4629" y1="32.5608" x2="20.2127" y2="38.7259" gradientUnits="userSpaceOnUse">
<stop offset="0.0756841" stop-color="#B565D8"/>
<stop offset="0.945898" stop-color="#EE609C"/>
</linearGradient>
<linearGradient id="paint46_linear" x1="17.5868" y1="60.9034" x2="22.0787" y2="67.333" gradientUnits="userSpaceOnUse">
<stop offset="0.0756841" stop-color="#B565D8"/>
<stop offset="0.945898" stop-color="#EE609C"/>
</linearGradient>
<linearGradient id="paint47_linear" x1="15.4868" y1="53.6743" x2="20.0236" y2="60.066" gradientUnits="userSpaceOnUse">
<stop offset="0.0756841" stop-color="#B565D8"/>
<stop offset="0.945898" stop-color="#EE609C"/>
</linearGradient>
<linearGradient id="paint48_linear" x1="14.3988" y1="45.858" x2="18.9811" y2="52.1812" gradientUnits="userSpaceOnUse">
<stop offset="0.0756841" stop-color="#B565D8"/>
<stop offset="0.945898" stop-color="#EE609C"/>
</linearGradient>
<linearGradient id="paint49_linear" x1="14.6332" y1="37.2701" x2="19.3088" y2="43.5076" gradientUnits="userSpaceOnUse">
<stop offset="0.0756841" stop-color="#B565D8"/>
<stop offset="0.945898" stop-color="#EE609C"/>
</linearGradient>
<linearGradient id="paint50_linear" x1="17.007" y1="27.4376" x2="21.8719" y2="33.4825" gradientUnits="userSpaceOnUse">
<stop offset="0.0756841" stop-color="#B565D8"/>
<stop offset="0.945898" stop-color="#EE609C"/>
</linearGradient>
<linearGradient id="paint51_linear" x1="40.4675" y1="94.0727" x2="45.5603" y2="95.0832" gradientUnits="userSpaceOnUse">
<stop offset="0.0756841" stop-color="#B565D8"/>
<stop offset="0.945898" stop-color="#EE609C"/>
</linearGradient>
<linearGradient id="paint52_linear" x1="34.2916" y1="89.2153" x2="39.9208" y2="91.18" gradientUnits="userSpaceOnUse">
<stop offset="0.0756841" stop-color="#B565D8"/>
<stop offset="0.945898" stop-color="#EE609C"/>
</linearGradient>
<linearGradient id="paint53_linear" x1="22.3686" y1="70.7976" x2="26.8116" y2="77.2669" gradientUnits="userSpaceOnUse">
<stop offset="0.0756841" stop-color="#B565D8"/>
<stop offset="0.945898" stop-color="#EE609C"/>
</linearGradient>
<linearGradient id="paint54_linear" x1="37.2896" y1="91.6963" x2="42.7298" y2="93.249" gradientUnits="userSpaceOnUse">
<stop offset="0.0756841" stop-color="#B565D8"/>
<stop offset="0.945898" stop-color="#EE609C"/>
</linearGradient>
<linearGradient id="paint55_linear" x1="31.4696" y1="86.6321" x2="37.201" y2="88.8928" gradientUnits="userSpaceOnUse">
<stop offset="0.0756841" stop-color="#B565D8"/>
<stop offset="0.945898" stop-color="#EE609C"/>
</linearGradient>
<linearGradient id="paint56_linear" x1="24.3458" y1="73.8738" x2="28.7769" y2="80.3529" gradientUnits="userSpaceOnUse">
<stop offset="0.0756841" stop-color="#B565D8"/>
<stop offset="0.945898" stop-color="#EE609C"/>
</linearGradient>
<linearGradient id="paint57_linear" x1="20.567" y1="67.6215" x2="25.0241" y2="74.0795" gradientUnits="userSpaceOnUse">
<stop offset="0.0756841" stop-color="#B565D8"/>
<stop offset="0.945898" stop-color="#EE609C"/>
</linearGradient>
<linearGradient id="paint58_linear" x1="47.3971" y1="98.4912" x2="50.7358" y2="98.2039" gradientUnits="userSpaceOnUse">
<stop offset="0.0756841" stop-color="#B565D8"/>
<stop offset="0.945898" stop-color="#EE609C"/>
</linearGradient>
<linearGradient id="paint59_linear" x1="51.1629" y1="100.524" x2="52.7498" y2="100.01" gradientUnits="userSpaceOnUse">
<stop offset="0.0756841" stop-color="#B565D8"/>
<stop offset="0.945898" stop-color="#EE609C"/>
</linearGradient>
<linearGradient id="paint60_linear" x1="43.8357" y1="96.3385" x2="48.293" y2="96.6919" gradientUnits="userSpaceOnUse">
<stop offset="0.0756841" stop-color="#B565D8"/>
<stop offset="0.945898" stop-color="#EE609C"/>
</linearGradient>
</defs>
</svg>
