<svg width="263" height="327" viewBox="0 0 263 327" fill="none" xmlns="http://www.w3.org/2000/svg">
<path d="M214.936 141.131L97.96 114.59C96.712 114.307 95.428 114.889 94.8187 116.015L0.279861 290.74C0.279861 294.849 3.0945 298.424 7.09045 299.386L117.782 326.059C121.932 327.059 126.222 325.063 128.132 321.246L213.755 149.997C214.211 149.084 214.508 148.103 214.629 147.088C214.892 144.891 215.291 141.131 214.936 141.131Z" fill="#ABBDD3"/>
<path d="M1.40125 288.668C2.49057 291.159 4.69321 293.088 7.46651 293.756L118.158 320.429C122.308 321.429 126.598 319.433 128.508 315.616L214.131 144.368C214.587 143.455 214.884 142.474 215.005 141.459C215.012 141.399 215.02 141.334 215.028 141.271C215.203 141.962 214.864 145.138 214.631 147.088C214.509 148.102 214.213 149.084 213.756 149.998L128.132 321.245C126.222 325.062 121.933 327.058 117.782 326.058L7.0905 299.385C3.09589 298.422 0.279907 294.848 0.279907 290.739L1.40125 288.668Z" fill="#333333"/>
<path d="M209.432 143.695L97.9757 117.614L9.95538 278.629L125.854 308.742L209.432 143.695Z" fill="white" stroke="#333333" stroke-width="5.6292" stroke-miterlimit="10"/>
<path d="M108.188 35C101.006 40.9493 94.8877 48.0478 90.7624 56.4104C88.8717 60.2437 87.1318 64.2956 87.0224 68.5689C86.9784 70.2476 87.2051 71.9769 88.0104 73.4502C89.3051 75.8168 92.013 77.4248 92.509 80.0754C92.9344 82.3461 91.565 84.5274 90.2517 86.4287C87.7224 90.0886 85.1411 93.7739 83.5305 97.9206C81.9198 102.067 81.3572 106.796 82.9412 110.954C84.2585 114.408 86.9038 117.154 89.0544 120.162" stroke="#FF457A" stroke-width="3.2496" stroke-miterlimit="10" stroke-linecap="round" stroke-linejoin="round"/>
<path d="M144.965 75.9118C149.529 84.9636 163.635 81.2397 170.763 88.0903C175.24 92.3942 176.599 99.3475 174.958 105.337C171.169 119.162 154.671 125.379 141.774 127.458C124.608 130.226 88.7162 132.263 84.2802 108.923C83.2562 103.537 84.5189 97.8048 87.5322 93.2449C90.2722 89.0983 96.8948 85.0716 95.3934 79.2984C94.4348 75.6131 90.7335 73.3385 89.5415 69.6465C88.0615 65.0599 89.2788 59.9826 91.2122 55.7227C95.9894 45.1961 101.832 31.2296 114.993 29.9003C123.324 29.059 132.402 32.619 137.816 39.0375C142.641 44.7588 143.137 52.3 143.19 59.4573C143.233 64.7946 142.617 71.2505 144.965 75.9118Z" fill="#FF457A"/>
<path d="M100.103 54.3799C101.292 54.3799 104.417 54.3799 105.607 54.3799C107.333 54.3799 108.733 58.2718 108.733 63.0731C108.733 67.8744 107.333 71.7663 105.607 71.7663C104.417 71.7663 101.292 71.7663 100.103 71.7663C98.3762 71.7663 96.9762 67.8744 96.9762 63.0731C96.9762 58.2718 98.3762 54.3799 100.103 54.3799Z" fill="#21204C"/>
<path d="M61.0744 136.878L44.8133 106.606C44.8133 106.606 34.6108 103.178 33.6481 102.766C32.6855 102.353 28.4202 101.39 28.4202 101.39C28.4202 101.39 20.8536 94.718 21.5416 93.9621C22.2296 93.2061 23.6056 93.8247 23.6056 93.8247L22.7803 92.3807C22.7803 92.3807 23.7429 91.8301 25.1189 92.6554C26.4949 93.4807 28.3522 94.65 28.3522 94.65L27.6642 92.7927C27.6642 92.7927 28.4202 92.3114 29.5215 93.2741C30.6215 94.2367 33.5108 97.6073 33.5108 97.6073C33.5108 97.6073 39.7694 97.3327 40.3894 97.0567C41.008 96.782 35.7121 92.5861 36.3308 91.0728C36.3308 91.0728 37.7067 91.5541 41.5587 93.6861C45.4106 95.818 50.4319 97.7447 51.7386 101.734C53.0452 105.723 72.085 134.626 72.085 134.626L61.0744 136.878Z" fill="#FFA192"/>
<path d="M95.8057 170.559C95.8057 170.559 91.9444 177.229 88.7844 186.708C85.6244 196.187 117.571 207.772 147.06 195.484L150.57 183.899L136.528 168.452L95.8057 170.559Z" fill="#21204C"/>
<path d="M125.397 71.0068C125.397 71.0068 124.877 93.2746 125.541 95.0332C126.205 96.7919 132.523 99.5865 132.523 99.5865C132.523 99.5865 119.076 110.952 102.477 100.04C102.477 100.04 106.678 96.5025 107.284 95.1905C107.889 93.8786 108.422 79.3574 108.422 79.3574L125.397 71.0068Z" fill="#FFA192"/>
<path d="M98.9416 51.6056C97.7309 72.4373 107.296 81.0412 111.825 81.3279C117.669 81.6972 127.779 76.7759 129.96 67.5107C129.96 67.5107 137.149 67.2294 137.577 63.1068C138.366 55.5122 132.764 59.6481 132.764 59.6481C132.764 59.6481 142.218 40.5537 123.62 33.9285C108.675 28.6045 99.9323 34.5618 98.9416 51.6056Z" fill="#FFA192"/>
<path d="M123.472 55.0813C123.292 54.5773 122.46 54.5533 122.088 54.4453C121.314 54.2213 120.546 54.1787 119.74 54.3253C119.116 54.4387 118.5 54.6387 117.889 54.86C117.477 55.0093 116.757 55.4013 116.392 54.9987C116.165 54.7493 116.204 54.2347 116.398 53.9067C116.849 53.148 117.914 52.968 118.566 52.8174C120.47 52.3774 122.598 52.6187 123.472 55.0813Z" fill="#21204C"/>
<path d="M101.381 55.5813C101.561 55.0773 102.393 55.0533 102.765 54.9453C103.538 54.7213 104.306 54.6787 105.113 54.8253C105.737 54.9387 106.353 55.1387 106.964 55.36C107.376 55.5093 108.096 55.9013 108.461 55.4987C108.688 55.2493 108.649 54.7347 108.454 54.4067C108.004 53.648 106.938 53.468 106.286 53.3174C104.381 52.8774 102.253 53.1187 101.381 55.5813Z" fill="#21204C"/>
<path opacity="0.46" d="M117.57 64.8185C117.551 63.9048 118.996 63.1341 120.798 63.097C122.599 63.0598 124.075 63.7704 124.094 64.6841C124.113 65.5977 122.667 66.3685 120.866 66.4056C119.064 66.4427 117.589 65.7321 117.57 64.8185Z" fill="#FF457A"/>
<path opacity="0.46" d="M100.838 64.7028C100.819 63.7891 102.1 63.0217 103.698 62.9888C105.296 62.9559 106.607 63.6698 106.626 64.5835C106.645 65.4971 105.364 66.2645 103.766 66.2974C102.168 66.3304 100.857 65.6164 100.838 64.7028Z" fill="#FF457A"/>
<path d="M112.105 67.5282C110.956 67.4362 110.238 66.2362 110.206 66.1829C110.165 66.1135 110.164 66.0269 110.204 65.9562C112.028 62.6976 111.732 58.9483 111.729 58.9096C111.718 58.7829 111.812 58.6723 111.938 58.663C112.061 58.6563 112.176 58.7443 112.186 58.8709C112.198 59.0283 112.489 62.7096 110.672 66.0562C110.858 66.3242 111.406 67.0122 112.142 67.0708C112.168 67.0735 112.193 67.0735 112.221 67.0748C112.341 67.0842 112.434 67.1868 112.432 67.3095C112.428 67.4362 112.322 67.5362 112.196 67.5335C112.165 67.5322 112.134 67.5308 112.105 67.5282Z" fill="#21204C"/>
<path d="M108.175 71.6761L111.307 69.7321L112.283 70.3534L113.24 69.6841L117.959 71.5907C117.959 71.5907 116.618 76.508 112.672 76.688C109.432 76.8347 108.175 71.6761 108.175 71.6761Z" fill="#FF457A"/>
<path d="M108.173 71.636L117.957 71.5493C117.957 71.5493 115.152 74.5599 112.456 74.6826C109.758 74.8053 108.173 71.636 108.173 71.636Z" fill="white"/>
<path d="M105.544 61.4789C104.801 61.4789 104.199 60.3727 104.199 59.0082C104.199 57.6437 104.801 56.5376 105.544 56.5376C106.287 56.5376 106.89 57.6437 106.89 59.0082C106.89 60.3727 106.287 61.4789 105.544 61.4789Z" fill="#21204C"/>
<path d="M119.399 61.5736C118.656 61.5736 118.053 60.4675 118.053 59.103C118.053 57.7385 118.656 56.6323 119.399 56.6323C120.142 56.6323 120.744 57.7385 120.744 59.103C120.744 60.4675 120.142 61.5736 119.399 61.5736Z" fill="#21204C"/>
<path d="M107.627 91.1128L101.084 96.4061L83.3868 103.07L75.2363 133.056L56.8285 109.899L48.4286 115.017C48.4286 115.017 63.9577 152.771 73.3443 160.375C73.3443 160.375 81.4255 160.513 82.8695 159.897C84.3135 159.281 90.4881 140.606 90.4881 140.606L93.3387 142.888L95.976 166.085L92.3121 174.304C92.3121 174.304 109.995 194.265 144.253 174.537L138.168 167.751C135.824 165.532 135.702 162.199 136.434 159.055L140.959 139.623L149.213 158.177L146.437 195.802C146.437 195.802 153.905 198.543 159.398 195.138C159.725 194.936 164.145 155.567 164.145 155.567C164.145 155.567 156.977 115.271 152.666 105.162L132.504 97.2447L125.853 92.2194C125.853 92.2194 117.645 98.8167 114.098 99.3047C114.096 99.306 108.451 96.0234 107.627 91.1128Z" fill="#BDDEFF"/>
<path d="M111.802 101.629C111.802 101.629 101.666 121.589 105.298 180.544" stroke="#333333" stroke-width="1.3165" stroke-miterlimit="10" stroke-linecap="round" stroke-linejoin="round"/>
<path d="M113.279 31.0299C118.789 30.5833 124.519 31.6953 129.119 34.7579C130.931 35.9645 132.54 37.4485 134.106 38.9618C134.902 39.7325 135.7 40.5258 136.243 41.4911C136.99 42.8191 137.202 44.3711 137.399 45.8818C137.619 47.5631 137.84 49.247 137.894 50.9417C137.96 53.0377 137.618 55.4256 135.903 56.6323C134.722 57.4629 133.159 60.0109 131.952 60.8042C128.615 57.4136 115.177 44.6858 112.487 40.3072C108.297 46.6244 97.4955 55.4056 96.4129 56.8816C93.4262 51.079 98.1715 44.3524 101.117 39.3685C102.867 36.4059 105.114 33.5432 108.262 32.1539C109.838 31.4593 111.563 31.1699 113.279 31.0299Z" fill="#FF457A"/>
<path d="M115.517 102.359C115.517 102.359 103.19 128.363 108.967 180.942" stroke="#333333" stroke-width="1.3165" stroke-miterlimit="10" stroke-linecap="round" stroke-linejoin="round"/>
<path d="M111.907 103.525C111.938 103.017 112.375 102.63 112.883 102.661C113.391 102.692 113.778 103.129 113.747 103.637C113.717 104.145 113.279 104.532 112.771 104.501C112.263 104.47 111.875 104.033 111.907 103.525Z" fill="#333333"/>
<path d="M109.653 110.95C109.684 110.442 110.121 110.056 110.629 110.086C111.137 110.117 111.524 110.554 111.493 111.062C111.463 111.57 111.025 111.957 110.517 111.926C110.009 111.895 109.623 111.458 109.653 110.95Z" fill="#333333"/>
<path d="M108.518 119.342C108.054 119.134 107.846 118.589 108.053 118.125C108.261 117.66 108.806 117.452 109.27 117.66C109.735 117.867 109.943 118.412 109.735 118.877C109.528 119.341 108.983 119.549 108.518 119.342Z" fill="#333333"/>
<path d="M107.656 125.58C107.164 125.449 106.872 124.944 107.003 124.452C107.135 123.96 107.64 123.668 108.131 123.8C108.623 123.931 108.915 124.436 108.784 124.928C108.652 125.419 108.147 125.711 107.656 125.58Z" fill="#333333"/>
<path d="M106.119 131.53C106.15 131.022 106.587 130.635 107.095 130.666C107.603 130.696 107.99 131.134 107.959 131.642C107.929 132.15 107.491 132.536 106.983 132.506C106.475 132.475 106.087 132.038 106.119 131.53Z" fill="#333333"/>
<path d="M105.491 138.966C105.522 138.458 105.959 138.071 106.467 138.102C106.975 138.132 107.362 138.57 107.331 139.078C107.301 139.586 106.863 139.972 106.355 139.942C105.847 139.911 105.461 139.474 105.491 138.966Z" fill="#333333"/>
<path d="M105.121 146.504C105.152 145.996 105.589 145.61 106.097 145.64C106.605 145.671 106.992 146.108 106.961 146.616C106.931 147.124 106.493 147.511 105.985 147.48C105.477 147.45 105.091 147.014 105.121 146.504Z" fill="#333333"/>
<path d="M105.152 154.684C105.183 154.176 105.62 153.789 106.128 153.82C106.636 153.851 107.023 154.288 106.992 154.796C106.962 155.304 106.524 155.691 106.016 155.66C105.508 155.629 105.122 155.192 105.152 154.684Z" fill="#333333"/>
<path d="M105.008 162.852C105.039 162.344 105.476 161.957 105.984 161.988C106.492 162.019 106.879 162.456 106.848 162.964C106.817 163.472 106.38 163.859 105.872 163.828C105.365 163.797 104.977 163.36 105.008 162.852Z" fill="#333333"/>
<path d="M105.678 172.125C105.708 171.617 106.146 171.231 106.654 171.261C107.162 171.292 107.548 171.729 107.518 172.237C107.487 172.745 107.05 173.132 106.542 173.101C106.034 173.071 105.647 172.633 105.678 172.125Z" fill="#333333"/>
<path d="M134.735 36.7163C139.189 38.9923 141.879 43.7776 143.075 48.6348C144.271 53.4921 144.223 58.5547 144.661 63.5373C145.037 67.8066 145.869 72.2585 148.582 75.5758C155.2 83.6677 169.424 81.3411 176.169 89.3263C177.459 90.8543 178.37 92.665 179.161 94.5023C180.134 96.7649 180.949 99.1195 181.231 101.566C181.618 104.915 180.973 108.377 179.403 111.361C177.373 115.223 173.897 118.174 170.077 120.285C166.257 122.397 162.072 123.745 157.917 125.081" stroke="#FF457A" stroke-width="3.2496" stroke-miterlimit="10" stroke-linecap="round" stroke-linejoin="round"/>
<path d="M128.952 53.1118C128.952 53.1118 130.686 37.7787 128.374 31.7388C128.374 31.7388 131.394 33.0388 133.627 34.7414C133.627 34.7414 136.204 44.1399 132.908 53.2865L128.952 53.1118Z" fill="#21204C"/>
<path d="M131.257 67.4692C131.257 67.4692 133.171 77.0411 126.258 77.0411C119.345 77.0411 118.494 75.6585 118.494 75.6585" stroke="#21204C" stroke-width="5.6292" stroke-miterlimit="10"/>
<path d="M119.531 73.4263C118.288 73.4263 117.271 74.4436 117.271 75.6862C117.271 76.9289 118.288 77.9462 119.531 77.9462C120.774 77.9462 121.791 76.9289 121.791 75.6862C121.791 74.4423 120.774 73.4263 119.531 73.4263Z" fill="#21204C"/>
<path d="M129.124 52.5664C130.314 52.5664 133.439 52.5664 134.628 52.5664C136.355 52.5664 137.755 56.4584 137.755 61.2596C137.755 66.0609 136.355 69.9529 134.628 69.9529C133.439 69.9529 130.314 69.9529 129.124 69.9529C127.398 69.9529 125.998 66.0609 125.998 61.2596C125.998 56.4584 127.398 52.5664 129.124 52.5664Z" fill="#21204C"/>
<path d="M134.182 52.5824C132.516 52.9504 131.202 56.7117 131.202 61.2903C131.202 65.7316 132.439 69.4009 134.032 69.9542C133.944 69.9542 133.846 69.9542 133.739 69.9542C132.222 69.0942 131.08 65.5382 131.08 61.2903C131.08 56.925 132.286 53.2944 133.866 52.5664C133.935 52.5664 134.004 52.5664 134.064 52.5664C134.104 52.5664 134.143 52.5784 134.182 52.5824Z" fill="white"/>
<path d="M129.441 69.9542C128.133 67.9142 127.299 64.8236 127.299 61.3703C127.299 57.785 128.203 54.601 129.596 52.5664C129.664 52.5664 129.732 52.5664 129.803 52.5664C128.396 54.5584 127.477 57.757 127.477 61.3703C127.477 64.8516 128.329 67.9502 129.651 69.9542C129.58 69.9542 129.509 69.9542 129.441 69.9542Z" fill="white"/>
<path d="M146.146 195.732C146.146 195.732 154.014 198.664 159.396 195.14" stroke="#21204C" stroke-width="3.2496" stroke-miterlimit="10" stroke-linecap="round" stroke-linejoin="round"/>
<path d="M138.896 232.614L61.8046 218.861C58.9139 218.345 55.99 219.613 54.61 221.978L46.1621 236.462C44.1221 239.959 46.2594 244.255 50.4954 245.171L127.897 261.93C131.072 262.616 134.332 261.118 135.602 258.386L143.74 240.895C145.385 237.36 143.041 233.353 138.896 232.614Z" fill="#FF457A"/>
<path d="M50.4911 243.071L127.893 259.83C131.067 260.516 134.327 259.018 135.598 256.286L143.735 238.795C143.934 238.368 144.071 237.934 144.158 237.5C144.371 238.6 144.254 239.771 143.731 240.895L135.594 258.386C134.323 261.118 131.062 262.616 127.889 261.93L50.4871 245.171C46.9498 244.406 44.8871 241.283 45.4871 238.236C45.9285 240.503 47.7738 242.483 50.4911 243.071Z" fill="#333333"/>
<path d="M260.991 32.0801L262.899 32.0175L254.894 15.1297C254.894 13.3337 255.928 0.109863 254.132 0.109863H200.989C199.194 0.109863 197.738 1.56585 197.738 3.36182V23.3189C197.738 25.1149 199.194 26.5709 200.989 26.5709H250.556L250.484 26.6389L260.991 32.0801Z" fill="#333333"/>
<path d="M262.994 32.0801L259.385 20.2336V3.36182C259.385 1.56585 257.929 0.109863 256.133 0.109863H202.991C201.195 0.109863 199.739 1.56585 199.739 3.36182V23.3189C199.739 25.1149 201.195 26.5709 202.991 26.5709H252.557L252.485 26.6389L262.994 32.0801Z" fill="#FF457A"/>
<path d="M205.875 6.16436H217.236C217.343 6.16436 217.43 6.0777 217.43 5.97103V5.5737C217.43 5.46704 217.343 5.38037 217.236 5.38037H205.875C205.769 5.38037 205.682 5.46704 205.682 5.5737V5.97103C205.682 6.0777 205.769 6.16436 205.875 6.16436Z" fill="#333333"/>
<path d="M222.572 6.16436H253.327C253.501 6.16436 253.643 6.0217 253.643 5.84837V5.69637C253.643 5.5217 253.5 5.38037 253.327 5.38037H222.572C222.398 5.38037 222.256 5.52304 222.256 5.69637V5.84837C222.256 6.0217 222.398 6.16436 222.572 6.16436Z" fill="#333333"/>
<path d="M205.904 16.1432H221.115C221.238 16.1432 221.339 16.0432 221.339 15.9192V15.5819C221.339 15.4592 221.239 15.3579 221.115 15.3579H205.904C205.782 15.3579 205.68 15.4579 205.68 15.5819V15.9192C205.682 16.0419 205.782 16.1432 205.904 16.1432Z" fill="#333333"/>
<path d="M223.725 16.1429H253.643C253.815 16.1429 253.955 16.0029 253.955 15.8309V15.6709C253.955 15.4989 253.815 15.3589 253.643 15.3589H223.725C223.553 15.3589 223.413 15.4989 223.413 15.6709V15.8309C223.411 16.0015 223.553 16.1429 223.725 16.1429Z" fill="#333333"/>
<path d="M206.074 20.2908H253.499C253.715 20.2908 253.891 20.1148 253.891 19.8988C253.891 19.6828 253.715 19.5068 253.499 19.5068H206.074C205.858 19.5068 205.682 19.6828 205.682 19.8988C205.682 20.1148 205.858 20.2908 206.074 20.2908Z" fill="#333333"/>
<path d="M205.655 9.75261H245.742C245.941 9.75261 246.104 9.58995 246.104 9.39128V9.32862C246.104 9.12995 245.941 8.96729 245.742 8.96729H205.655C205.456 8.96729 205.293 9.12995 205.293 9.32862V9.39128C205.293 9.58995 205.456 9.75261 205.655 9.75261Z" fill="#333333"/>
<path d="M161.822 69.6592L159.914 69.5966L167.919 52.7088C167.919 50.9128 166.886 37.689 168.682 37.689H221.825C223.621 37.689 225.077 39.1449 225.077 40.9409V60.898C225.077 62.694 223.621 64.15 221.825 64.15H172.258L172.33 64.218L161.822 69.6592Z" fill="#333333"/>
<path d="M159.82 69.6592L163.429 57.8127V40.9409C163.429 39.1449 164.885 37.689 166.681 37.689H219.824C221.62 37.689 223.076 39.1449 223.076 40.9409V60.898C223.076 62.694 221.62 64.15 219.824 64.15H170.257L170.329 64.218L159.82 69.6592Z" fill="#6FA3EF"/>
<path d="M216.939 43.7435H205.577C205.471 43.7435 205.384 43.6568 205.384 43.5501V43.1528C205.384 43.0461 205.471 42.9595 205.577 42.9595H216.939C217.045 42.9595 217.132 43.0461 217.132 43.1528V43.5501C217.132 43.6568 217.045 43.7435 216.939 43.7435Z" fill="#333333"/>
<path d="M200.242 43.7435H169.487C169.313 43.7435 169.171 43.6008 169.171 43.4275V43.2755C169.171 43.1008 169.314 42.9595 169.487 42.9595H200.242C200.416 42.9595 200.558 43.1021 200.558 43.2755V43.4275C200.558 43.6008 200.416 43.7435 200.242 43.7435Z" fill="#333333"/>
<path d="M216.909 53.7223H201.698C201.576 53.7223 201.474 53.6223 201.474 53.4983V53.161C201.474 53.0383 201.574 52.937 201.698 52.937H216.909C217.031 52.937 217.133 53.037 217.133 53.161V53.4983C217.131 53.621 217.031 53.7223 216.909 53.7223Z" fill="#333333"/>
<path d="M199.088 53.722H169.17C168.998 53.722 168.858 53.582 168.858 53.41V53.25C168.858 53.078 168.998 52.938 169.17 52.938H199.088C199.26 52.938 199.4 53.078 199.4 53.25V53.41C199.402 53.582 199.26 53.722 199.088 53.722Z" fill="#333333"/>
<path d="M216.74 57.8699H169.315C169.099 57.8699 168.923 57.6939 168.923 57.4779C168.923 57.2619 169.099 57.0859 169.315 57.0859H216.74C216.956 57.0859 217.132 57.2619 217.132 57.4779C217.132 57.6939 216.956 57.8699 216.74 57.8699Z" fill="#333333"/>
<path d="M217.158 47.3317H177.071C176.872 47.3317 176.709 47.169 176.709 46.9704V46.9077C176.709 46.709 176.872 46.5464 177.071 46.5464H217.158C217.357 46.5464 217.52 46.709 217.52 46.9077V46.9704C217.52 47.169 217.357 47.3317 217.158 47.3317Z" fill="#333333"/>
</svg>
