<svg width="16" height="18" viewBox="0 0 16 18" fill="none" xmlns="http://www.w3.org/2000/svg">
<path fill-rule="evenodd" clip-rule="evenodd" d="M6.13801 17.7367C6.07399 17.6729 6.02319 17.597 5.98853 17.5135C5.95387 17.43 5.93604 17.3404 5.93604 17.25C5.93604 17.1596 5.95387 17.07 5.98853 16.9865C6.02319 16.903 6.07399 16.8271 6.13801 16.7632L13.9026 8.99999L6.13801 1.23675C6.00892 1.10765 5.93639 0.932562 5.93639 0.749994C5.93639 0.567429 6.00892 0.39234 6.13801 0.263245C6.26711 0.134151 6.4422 0.0616264 6.62476 0.0616264C6.80733 0.0616264 6.98242 0.134151 7.11151 0.263245L15.3615 8.51324C15.4255 8.57711 15.4763 8.65297 15.511 8.7365C15.5457 8.82002 15.5635 8.90956 15.5635 8.99999C15.5635 9.09042 15.5457 9.17996 15.511 9.26349C15.4763 9.34701 15.4255 9.42288 15.3615 9.48674L7.11151 17.7367C7.04765 17.8008 6.97178 17.8516 6.88826 17.8862C6.80474 17.9209 6.71519 17.9387 6.62476 17.9387C6.53433 17.9387 6.44479 17.9209 6.36127 17.8862C6.27774 17.8516 6.20188 17.8008 6.13801 17.7367Z" fill="white"/>
<path fill-rule="evenodd" clip-rule="evenodd" d="M0.638014 17.7367C0.57399 17.6729 0.523193 17.597 0.488534 17.5135C0.453876 17.43 0.436035 17.3404 0.436035 17.25C0.436035 17.1596 0.453876 17.07 0.488534 16.9865C0.523193 16.903 0.57399 16.8271 0.638014 16.7632L8.40264 8.99999L0.638013 1.23675C0.574092 1.17282 0.523388 1.09694 0.488794 1.01342C0.4542 0.929905 0.436395 0.840393 0.436395 0.749994C0.436395 0.659597 0.4542 0.570084 0.488794 0.486568C0.523388 0.403051 0.574092 0.327166 0.638013 0.263245C0.701934 0.199324 0.77782 0.148619 0.861336 0.114025C0.944853 0.0794315 1.03437 0.0616264 1.12476 0.0616264C1.21516 0.0616264 1.30467 0.0794315 1.38819 0.114025C1.47171 0.148619 1.54759 0.199324 1.61151 0.263245L9.86151 8.51324C9.92554 8.57711 9.97634 8.65297 10.011 8.7365C10.0457 8.82002 10.0635 8.90956 10.0635 8.99999C10.0635 9.09042 10.0457 9.17996 10.011 9.26349C9.97634 9.34701 9.92554 9.42288 9.86151 9.48674L1.61151 17.7367C1.54765 17.8008 1.47179 17.8516 1.38826 17.8862C1.30474 17.9209 1.21519 17.9387 1.12476 17.9387C1.03433 17.9387 0.944792 17.9209 0.861268 17.8862C0.777743 17.8516 0.701877 17.8008 0.638014 17.7367Z" fill="white"/>
</svg>
