<svg id="Capa_1" enable-background="new 0 0 512 512" height="512" viewBox="0 0 512 512" width="512" xmlns="http://www.w3.org/2000/svg"><g><path d="m497 106.715h-482l-15 15v375.285c0 8.284 6.716 15 15 15h482c8.284 0 15-6.716 15-15v-375.285z" fill="#edf5ff"/><path d="m256 106.715v405.285h241c8.284 0 15-6.716 15-15v-375.285l-15-15z" fill="#d7e9ff"/><path d="m497 0h-482c-8.284 0-15 6.716-15 15v106.715h512v-106.715c0-8.284-6.716-15-15-15z" fill="#47568c"/><path d="m497 0h-482c-8.284 0-15 6.716-15 15v106.715h512v-106.715c0-8.284-6.716-15-15-15z" fill="#47419b"/><path d="m497 0h-241v121.715h256v-106.715c0-8.284-6.716-15-15-15z" fill="#2c3b73"/><path d="m497 0h-106.715v121.715h121.715v-106.715c0-8.284-6.716-15-15-15z" fill="#615ad3"/><g><path d="m88.887 295.801h104.711c8.284 0 15-6.716 15-15v-72.367c0-8.284-6.716-15-15-15h-104.711c-8.284 0-15 6.716-15 15v72.367c0 8.284 6.716 15 15 15z" fill="#ffd830"/><path d="m423.113 337.914h-104.711c-8.284 0-15 6.716-15 15v72.367c0 8.284 6.716 15 15 15h104.711c8.284 0 15-6.716 15-15v-72.367c0-8.285-6.716-15-15-15z" fill="#ffb44b"/><path d="m423.113 193.434h-152.113c-8.284 0-15 6.716-15 15v72.367c0 8.284 6.716 15 15 15h152.113c8.284 0 15-6.716 15-15v-72.367c0-8.284-6.716-15-15-15z" fill="#ffb44b"/><path d="m241 337.914h-152.113c-8.284 0-15 6.716-15 15v72.367c0 8.284 6.716 15 15 15h152.113c8.284 0 15-6.716 15-15v-72.367c0-8.285-6.716-15-15-15z" fill="#ffd830"/></g></g></svg>