<svg width="35" height="19" viewBox="0 0 35 19" fill="none" xmlns="http://www.w3.org/2000/svg">
<rect y="0.888184" width="34.2916" height="16.5014" rx="8.25072" fill="#DEDEDE"/>
<rect width="18.5447" height="18.2759" rx="9.13794" fill="#0A0935"/>
<path d="M23.4975 9C23.4975 10.3805 24.6205 11.5035 26.001 11.5035C27.3815 11.5035 28.5045 10.3805 28.5045 9C28.5045 7.6195 27.3815 6.4965 26.001 6.4965C24.6205 6.4965 23.4975 7.6195 23.4975 9ZM25.5 12.5H26.5V14H25.5V12.5ZM25.5 4H26.5V5.5H25.5V4ZM21 8.5H22.5V9.5H21V8.5ZM29.5 8.5H31V9.5H29.5V8.5ZM22.8185 12.889L22.1115 12.182L23.172 11.1215L23.879 11.8285L22.8185 12.889ZM28.121 6.172L29.182 5.111L29.889 5.818L28.828 6.879L28.121 6.172ZM23.172 6.8795L22.1115 5.8185L22.819 5.1115L23.879 6.1725L23.172 6.8795ZM29.889 12.182L29.182 12.889L28.121 11.828L28.828 11.121L29.889 12.182Z" fill="#090935"/>
</svg>
