<svg width="92" height="92" viewBox="0 0 92 92" fill="none" xmlns="http://www.w3.org/2000/svg">
<rect width="92" height="92" rx="15" fill="white"/>
<path d="M17.7431 66.5696H13.8383V21.6135H77.6454V66.5696H72.4244" fill="#3F3F3F"/>
<path d="M68.8466 75.3898C68.8466 75.3898 72.2966 57.3246 56.9633 57.3246C52.8846 60.0322 49.3899 61.9041 45.4633 61.8952H45.6217C41.6951 61.9041 38.2004 60.0322 34.1217 57.3246C18.7884 57.3246 21.3439 75.3885 21.3439 75.3885" fill="#3F3F3F"/>
<path d="M56.9624 57.9642L60.2463 69.5153L53.0652 69.2087L53.1802 75.3292L45.6669 73.2848L45.7819 73.2465L45.6669 73.0803L56.9624 57.9642Z" fill="#3F3F3F"/>
<path d="M56.8363 57.7753L56.9641 57.9669L45.6686 73.0831L34.3602 57.9669L34.5647 57.6603C38.5002 60.2797 41.9119 62.0814 45.7069 62.1197H45.8602C49.6041 62.0814 52.9647 60.3308 56.8363 57.7753Z" fill="#D0CFCE"/>
<path d="M45.6667 73.0803L45.5389 73.2465L45.6667 73.2848L38.1406 75.3292L38.2556 69.2087L31.0745 69.5153L34.3584 57.9642L45.6667 73.0803Z" fill="#3F3F3F"/>
<path d="M64.5277 27.2344C63.7738 24.1039 61.1543 20.36 54.9188 16.2456C47.9165 11.1983 37.3749 12.6678 34.4743 16.3606C33.9311 17.1154 33.6445 18.0246 33.6565 18.9545L33.0688 18.9672C24.7632 27.7711 30.3982 39.0411 31.331 36.7411L31.446 36.6261C35.0877 33.0739 35.9949 24.385 35.9949 24.385L36.1227 24.2572C38.7421 27.0172 44.5304 29.56 58.8799 28.2822V28.295C59.3654 29.5089 59.7488 30.7994 60.0171 32.1667C60.2854 33.5339 60.426 34.9778 60.426 36.46V36.7283L60.9754 36.7411C60.9754 36.7411 65.946 33.0483 64.5277 27.2344Z" fill="#3F3F3F"/>
<path d="M60.2706 36.464C60.2706 33.5455 59.7186 30.7893 58.7373 28.3488C49.2178 29.2292 38.4998 28.2926 35.5712 23.6146C35.3667 28.0038 34.2346 31.8857 31.2944 36.464C31.2944 46.4651 37.7804 54.5739 45.7819 54.5739C53.7833 54.5739 60.2719 46.4651 60.2719 36.464H60.2706Z" fill="#DADADA"/>
<path d="M35.2275 20.329C35.5341 21.1084 35.9175 22.0029 36.6203 22.8845H33.5791C33.2469 22.2712 33.0169 21.6962 32.8253 21.2234C32.4036 21.7729 32.0458 22.3351 31.7391 22.8845H15.1152V64.144H17.7475C18.4502 64.144 19.0252 64.7062 19.0252 65.4218C19.0252 66.1245 18.4502 66.6995 17.7475 66.6995H13.8375C13.1347 66.6995 12.5597 66.1245 12.5597 65.4218V21.6068C12.5597 20.904 13.1347 20.329 13.8375 20.329H35.2275Z" fill="black"/>
<path d="M78.9266 21.6068V65.4218C78.9266 66.1245 78.3516 66.6995 77.6488 66.6995H74.3393C73.6366 66.6995 73.0616 66.1245 73.0616 65.4218C73.0616 64.7062 73.6366 64.144 74.3393 64.144H76.371V22.8845H60.7566C60.0538 22.0284 59.2105 21.1851 58.2266 20.329H77.6488C78.3516 20.329 78.9266 20.904 78.9266 21.6068Z" fill="black"/>
<path d="M53.6052 34.7199C53.6051 35.0556 53.5389 35.388 53.4104 35.6981C53.2818 36.0082 53.0935 36.2899 52.856 36.5272C52.6186 36.7645 52.3368 36.9528 52.0266 37.0811C51.7165 37.2095 51.384 37.2756 51.0484 37.2755C50.7127 37.2754 50.3803 37.2092 50.0702 37.0807C49.7601 36.9521 49.4783 36.7638 49.241 36.5263C49.0037 36.2889 48.8155 36.0071 48.6871 35.6969C48.5587 35.3867 48.4927 35.0543 48.4928 34.7186C48.493 34.0407 48.7624 33.3906 49.2419 32.9113C49.7214 32.4321 50.3717 32.1629 51.0496 32.1631C51.7276 32.1633 52.3777 32.4327 52.8569 32.9122C53.3362 33.3917 53.6054 34.042 53.6052 34.7199Z" fill="black"/>
<path d="M43.3838 34.7199C43.3837 35.0556 43.3175 35.388 43.1889 35.6981C43.0604 36.0082 42.872 36.2899 42.6346 36.5272C42.3972 36.7645 42.1153 36.9528 41.8052 37.0811C41.495 37.2095 41.1626 37.2756 40.8269 37.2755C40.4912 37.2754 40.1589 37.2092 39.8488 37.0807C39.5387 36.9521 39.2569 36.7638 39.0196 36.5263C38.7823 36.2889 38.5941 36.0071 38.4657 35.6969C38.3373 35.3867 38.2713 35.0543 38.2714 34.7186C38.2715 34.0407 38.541 33.3906 39.0205 32.9113C39.5 32.4321 40.1503 32.1629 40.8282 32.1631C41.5061 32.1633 42.1563 32.4327 42.6355 32.9122C43.1148 33.3917 43.3839 34.042 43.3838 34.7199Z" fill="black"/>
<path d="M45.9383 47.4982C44.4663 47.4982 42.9943 47.1328 41.5338 46.4019C41.3823 46.3277 41.2471 46.2242 41.1358 46.0975C41.0245 45.9708 40.9395 45.8233 40.8855 45.6635C40.8315 45.5038 40.8097 45.3349 40.8213 45.1667C40.8328 44.9984 40.8776 44.8341 40.953 44.6833C41.0284 44.5324 41.1329 44.398 41.2605 44.2877C41.3881 44.1774 41.5362 44.0935 41.6964 44.0408C41.8566 43.988 42.0256 43.9675 42.1938 43.9804C42.3619 43.9933 42.5258 44.0394 42.6761 44.1159C44.8713 45.2148 47.0052 45.2148 49.2004 44.1159C49.5037 43.9645 49.8548 43.9397 50.1764 44.047C50.3356 44.1002 50.4828 44.1842 50.6096 44.2942C50.7363 44.4043 50.8402 44.5382 50.9152 44.6884C50.9902 44.8386 51.0349 45.0021 51.0467 45.1695C51.0585 45.337 51.0373 45.5051 50.9841 45.6643C50.931 45.8236 50.847 45.9708 50.7369 46.0975C50.6269 46.2243 50.4929 46.3282 50.3428 46.4032C48.8823 47.1328 47.4103 47.4982 45.9383 47.4982Z" fill="black"/>
<path d="M61.5237 33.6068C61.5237 34.3223 60.9487 34.8845 60.2459 34.8845H57.7414V36.469C57.7414 39.1651 55.5565 41.3501 52.8731 41.3501H50.3048C48.3242 41.3501 46.6248 40.1618 45.8581 38.4751C45.4696 39.3295 44.8442 40.0545 44.056 40.5641C43.2678 41.0737 42.35 41.3465 41.4115 41.3501H38.8431C37.5486 41.3501 36.307 40.8358 35.3917 39.9204C34.4763 39.0051 33.962 37.7635 33.962 36.469V34.8845H33.0803C32.8072 34.8847 32.5413 34.7963 32.3225 34.6328C32.1037 34.4693 31.9437 34.2393 31.8665 33.9773C32.1603 33.4918 32.4287 32.9551 32.6587 32.4056C32.7865 32.3545 32.927 32.329 33.0803 32.329H35.2398C35.5787 32.329 35.9037 32.4636 36.1433 32.7032C36.3829 32.9429 36.5176 33.2679 36.5176 33.6068V36.469C36.5176 37.7468 37.5653 38.7945 38.8431 38.7945H41.4115C42.6892 38.7945 43.7242 37.7468 43.7242 36.469V35.0634C43.7242 34.3606 44.2992 33.7856 45.002 33.7856H46.7015C47.417 33.7856 47.9792 34.3606 47.9792 35.0634V36.469C47.9792 37.7468 49.027 38.7945 50.3048 38.7945H52.8731C54.1509 38.7945 55.1859 37.7468 55.1859 36.469V33.6068C55.1859 32.904 55.7609 32.329 56.4637 32.329H60.2459C60.9487 32.329 61.5237 32.904 61.5237 33.6068Z" fill="black"/>
<path d="M31.4454 36.4611V36.6273C31.5221 46.5428 37.9749 54.5673 45.9354 54.5673C53.8577 54.5673 60.3104 46.5939 60.4254 36.7295V36.4611C60.4254 34.9789 60.2849 33.535 60.0166 32.1678C59.7482 30.8006 59.3649 29.51 58.8793 28.2961" stroke="black" stroke-miterlimit="10" stroke-linecap="round" stroke-linejoin="round"/>
<path d="M61.741 37.7713C61.511 37.9374 61.2427 38.0141 60.9744 38.0141C60.591 38.0141 60.1949 37.848 59.9521 37.503C59.5305 36.9408 59.6455 36.1358 60.2077 35.7141C60.361 35.5991 63.5044 33.1841 63.5044 29.3124C63.5044 28.7502 63.4405 28.1497 63.2871 27.5363C62.9294 26.003 62.0732 24.4441 60.7571 22.8852C60.0544 22.0291 59.211 21.1858 58.2271 20.3297C57.0771 19.3202 55.7355 18.3108 54.2149 17.3141C47.7749 12.6758 37.9999 13.9408 35.4827 17.148C35.1249 17.6463 34.9205 18.2852 34.9332 18.9369C34.9332 19.333 35.0099 19.7547 35.1505 20.1124C35.176 20.1891 35.2016 20.253 35.2271 20.3297C35.5338 21.1091 35.9171 22.0036 36.6199 22.8852C36.7477 23.0513 36.8882 23.2047 37.0416 23.3708C40.2744 26.7824 47.596 28.0091 58.7638 27.0124C59.3005 26.9613 59.8371 26.9102 60.3994 26.8591L60.6932 26.8336C61.3705 26.7697 62.0094 27.2808 62.086 27.9836C62.1181 28.3207 62.0149 28.6568 61.7993 28.918C61.5836 29.1791 61.2732 29.344 60.936 29.3763L60.6421 29.4019C60.0799 29.4658 59.5177 29.5169 58.981 29.5552C48.4649 30.5008 41.2327 29.5424 36.9649 26.6163C35.5372 25.6809 34.3718 24.3967 33.5788 22.8852C33.2466 22.2719 33.0166 21.6969 32.8249 21.2241C32.8121 21.1602 32.7866 21.1091 32.761 21.0452C32.6716 20.8152 32.6077 20.5724 32.5566 20.3297C32.4288 19.8697 32.3777 19.4097 32.3777 18.9497C32.3777 18.5791 32.4032 18.2086 32.4799 17.8508C32.6205 17.0586 32.9399 16.2919 33.4382 15.6147C36.7094 11.4491 47.941 9.64744 55.6716 15.2058C58.2144 16.8797 60.2971 18.5919 61.9071 20.3297C62.6994 21.173 63.3766 22.0291 63.9388 22.8852C64.8332 24.2269 65.4466 25.5813 65.766 26.9358C67.3633 33.4908 61.971 37.5924 61.741 37.7713Z" fill="black"/>
<path d="M36.1209 23.1163C35.9543 23.0965 35.7854 23.1104 35.6243 23.1573C35.4631 23.2042 35.3131 23.2831 35.1831 23.3892C35.0532 23.4954 34.9459 23.6266 34.8677 23.7751C34.7895 23.9236 34.7421 24.0863 34.7282 24.2535C34.7282 24.2663 34.7154 24.3685 34.6898 24.5729C34.5493 25.6463 33.987 29.3391 32.6582 32.4057C32.4282 32.9552 32.1598 33.4918 31.8659 33.9774C31.5976 34.4374 31.3037 34.8718 30.9843 35.2552C30.5626 34.4246 30.0387 32.9041 29.9109 30.8979C29.7704 28.7641 30.0387 25.8635 31.7382 22.8863C32.2467 21.9669 32.8598 21.1093 33.5654 20.3307C33.7059 20.1646 33.8465 20.0113 33.9998 19.8452C34.4854 19.3341 34.4598 18.5291 33.9487 18.0435C33.7553 17.8606 33.5091 17.7435 33.2451 17.7091C32.9812 17.6747 32.7131 17.7246 32.4793 17.8518C32.3492 17.9088 32.2318 17.9914 32.1343 18.0946C31.4443 18.8229 30.8437 19.5768 30.3198 20.3307C29.732 21.1741 29.2465 22.0302 28.8632 22.8863C26.4354 28.0868 27.2787 33.2107 28.467 35.8941C29.1698 37.5041 30.0132 38.3218 30.9843 38.3218H31.0098C31.572 38.3218 32.0704 38.0152 32.377 37.5041C32.9776 36.9163 33.5015 36.2135 33.9615 35.4341C34.5493 34.4757 35.022 33.4152 35.4309 32.3418C36.2104 30.2591 36.6832 28.1252 36.9643 26.6174C37.1687 25.4291 37.2582 24.6241 37.2709 24.5218C37.3348 23.8191 36.8237 23.1929 36.1209 23.1163Z" fill="black"/>
<path d="M21.5811 74.1438C21.5811 74.1438 19.0256 57.5327 34.3589 57.5327C34.4228 57.5838 34.4994 57.6222 34.5633 57.6605C38.4989 60.2799 41.9106 62.0816 45.7056 62.1199H45.8589C49.6028 62.0816 52.9633 60.331 56.835 57.7755C56.9628 57.6988 57.0778 57.6222 57.2056 57.5327C62.3039 57.5327 65.4217 59.3727 67.3255 61.826L68.3222 63.436" stroke="black" stroke-width="2" stroke-miterlimit="10" stroke-linecap="round" stroke-linejoin="round"/>
<path d="M45.6668 73.0805L45.7818 73.2466L45.6668 73.2849L38.1407 75.3294L38.2557 69.2088L31.0746 69.5155L34.3585 57.9644L45.6668 73.0805Z" stroke="black" stroke-width="2" stroke-miterlimit="10" stroke-linecap="round" stroke-linejoin="round"/>
<path d="M45.6673 73.0805L45.5396 73.2466L45.6673 73.2849L53.1807 75.3294L53.0657 69.2088L60.2468 69.5155L56.9629 57.9644L45.6673 73.0805Z" stroke="black" stroke-width="2" stroke-miterlimit="10" stroke-linecap="round" stroke-linejoin="round"/>
<path d="M67.7779 75.0731C67.6245 75.073 67.473 75.0401 67.3334 74.9767C67.1938 74.9132 67.0694 74.8207 66.9685 74.7053C66.8676 74.5899 66.7925 74.4542 66.7483 74.3074C66.7041 74.1606 66.6918 74.006 66.7122 73.8541L71.0196 39.9891L69.2141 74.07C69.1758 74.6348 68.3452 75.0731 67.7779 75.0731Z" fill="black"/>
<path d="M67.7783 76.0322C67.4882 76.0325 67.2013 75.9706 66.937 75.8508C66.6728 75.7309 66.4372 75.5558 66.2463 75.3373C66.0554 75.1188 65.9135 74.8619 65.8302 74.5839C65.7469 74.3059 65.724 74.0134 65.7633 73.7258L70.0694 39.8673C70.1333 39.3562 70.5767 38.9856 71.1057 39.0342C71.3529 39.0563 71.5818 39.1735 71.7444 39.3611C71.9069 39.5486 71.9904 39.792 71.9771 40.0398L70.1716 74.1207C70.0873 75.3576 68.7022 76.0322 67.7783 76.0322ZM68.6856 65.9378L67.6633 73.975L67.7783 74.1156C67.956 74.0978 68.1245 74.028 68.2626 73.915L68.6843 65.9378H68.6856Z" fill="black"/>
</svg>
