<svg width="372" height="372" viewBox="0 0 372 372" fill="none" xmlns="http://www.w3.org/2000/svg">
<mask id="path-1-inside-1" fill="white">
<path fill-rule="evenodd" clip-rule="evenodd" d="M202.833 219.667H219.666V236.5H202.833V219.667ZM219.666 236.5H236.5V253.333H219.666V236.5ZM219.666 253.333H236.5V270.167H219.666V253.333ZM253.333 253.333H270.166V270.167H253.333V253.333ZM253.333 270.167H270.166V287H253.333V270.167ZM202.833 253.333H219.666V270.167H202.833V253.333ZM236.5 253.333H253.333V270.167H236.5V253.333ZM236.5 270.167H253.333V287H236.5V270.167ZM287 253.333H303.833V270.167H287V253.333ZM287 236.5H303.833V253.333H287V236.5ZM303.833 219.667H320.666V236.5H303.833V219.667ZM270.166 253.333H287V270.167H270.166V253.333ZM270.166 270.167H287V287H270.166V270.167ZM253.333 287H270.166V303.833H253.333V287ZM236.5 287H253.333V303.833H236.5V287ZM270.166 287H287V303.833H270.166V287ZM287 287H303.833V303.833H287V287ZM253.333 303.833H270.166V320.667H253.333V303.833ZM219.666 303.833H236.5V320.667H219.666V303.833ZM236.5 303.833H253.333V320.667H236.5V303.833ZM202.833 303.833H219.666V320.667H202.833V303.833ZM202.833 320.667H219.666V337.5H202.833V320.667ZM219.666 337.5H236.5V354.333H219.666V337.5ZM236.5 337.5H253.333V354.333H236.5V337.5ZM270.166 337.5H287V354.333H270.166V337.5ZM287 337.5H303.833V354.333H287V337.5ZM270.166 303.833H287V320.667H270.166V303.833ZM287 303.833H303.833V320.667H287V303.833ZM303.833 287H320.666V303.833H303.833V287ZM303.833 270.167H320.666V287H303.833V270.167ZM303.833 320.667H320.666V337.5H303.833V320.667ZM303.833 303.833H320.666V320.667H303.833V303.833ZM320.666 287H337.5V303.833H320.666V287ZM320.666 270.167H337.5V287H320.666V270.167ZM337.5 320.667H354.333V337.5H337.5V320.667ZM337.5 287H354.333V303.833H337.5V287ZM337.5 303.833H354.333V320.667H337.5V303.833ZM303.833 253.333H320.666V270.167H303.833V253.333ZM202.833 270.167H219.666V287H202.833V270.167ZM186 270.167H202.833V287H186V270.167ZM186 287H202.833V303.833H186V287ZM219.666 287H236.5V303.833H219.666V287ZM169.166 287H186V303.833H169.166V287ZM202.833 287H219.666V303.833H202.833V287ZM169.166 303.833H186V320.667H169.166V303.833ZM169.166 320.667H186V337.5H169.166V320.667ZM169.166 0.833344H186V17.6667H169.166V0.833344ZM186 17.6667H202.833V34.5H186V17.6667ZM169.166 51.3333H186V68.1667H169.166V51.3333ZM186 68.1667H202.833V85H186V68.1667ZM169.166 85H186V101.833H169.166V85ZM186 85H202.833V101.833H186V85ZM186 101.833H202.833V118.667H186V101.833ZM186 118.667H202.833V135.5H186V118.667ZM169.166 135.5H186V152.333H169.166V135.5ZM186 135.5H202.833V152.333H186V135.5ZM169.166 152.333H186V169.167H169.166V152.333ZM0.833008 169.167H17.6663V186H0.833008V169.167ZM17.6663 186H34.4997V202.833H17.6663V186ZM51.333 169.167H68.1663V186H51.333V169.167ZM51.333 186H68.1663V202.833H51.333V186ZM68.1663 169.167H84.9997V186H68.1663V169.167ZM84.9997 186H101.833V202.833H84.9997V186ZM101.833 169.167H118.666V186H101.833V169.167ZM118.666 186H135.5V202.833H118.666V186ZM118.666 169.167H135.5V186H118.666V169.167ZM135.5 169.167H152.333V186H135.5V169.167ZM152.333 169.167H169.166V186H152.333V169.167ZM169.166 186H186V202.833H169.166V186ZM202.833 186H219.666V202.833H202.833V186ZM219.666 169.167H236.5V186H219.666V169.167ZM236.5 169.167H253.333V186H236.5V169.167ZM253.333 169.167H270.166V186H253.333V169.167ZM236.5 202.833H253.333V219.667H236.5V202.833ZM202.833 354.333H219.666V371.167H202.833V354.333ZM186 354.333H202.833V371.167H186V354.333ZM186 202.833H202.833V219.667H186V202.833ZM169.166 202.833H186V219.667H169.166V202.833ZM169.166 219.667H186V236.5H169.166V219.667ZM169.166 236.5H186V253.333H169.166V236.5ZM354.333 219.667H371.166V236.5H354.333V219.667ZM337.5 236.5H354.333V253.333H337.5V236.5ZM354.333 270.167H371.166V287H354.333V270.167ZM270.166 202.833H287V219.667H270.166V202.833ZM287 186H303.833V202.833H287V186ZM354.333 186H371.166V202.833H354.333V186ZM354.333 202.833H371.166V219.667H354.333V202.833ZM337.5 202.833H354.333V219.667H337.5V202.833ZM354.333 337.5H371.166V354.333H354.333V337.5ZM337.5 354.333H354.333V371.167H337.5V354.333ZM303.833 354.333H320.666V371.167H303.833V354.333ZM354.333 354.333H371.166V371.167H354.333V354.333Z"/>
</mask>
<path fill-rule="evenodd" clip-rule="evenodd" d="M202.833 219.667H219.666V236.5H202.833V219.667ZM219.666 236.5H236.5V253.333H219.666V236.5ZM219.666 253.333H236.5V270.167H219.666V253.333ZM253.333 253.333H270.166V270.167H253.333V253.333ZM253.333 270.167H270.166V287H253.333V270.167ZM202.833 253.333H219.666V270.167H202.833V253.333ZM236.5 253.333H253.333V270.167H236.5V253.333ZM236.5 270.167H253.333V287H236.5V270.167ZM287 253.333H303.833V270.167H287V253.333ZM287 236.5H303.833V253.333H287V236.5ZM303.833 219.667H320.666V236.5H303.833V219.667ZM270.166 253.333H287V270.167H270.166V253.333ZM270.166 270.167H287V287H270.166V270.167ZM253.333 287H270.166V303.833H253.333V287ZM236.5 287H253.333V303.833H236.5V287ZM270.166 287H287V303.833H270.166V287ZM287 287H303.833V303.833H287V287ZM253.333 303.833H270.166V320.667H253.333V303.833ZM219.666 303.833H236.5V320.667H219.666V303.833ZM236.5 303.833H253.333V320.667H236.5V303.833ZM202.833 303.833H219.666V320.667H202.833V303.833ZM202.833 320.667H219.666V337.5H202.833V320.667ZM219.666 337.5H236.5V354.333H219.666V337.5ZM236.5 337.5H253.333V354.333H236.5V337.5ZM270.166 337.5H287V354.333H270.166V337.5ZM287 337.5H303.833V354.333H287V337.5ZM270.166 303.833H287V320.667H270.166V303.833ZM287 303.833H303.833V320.667H287V303.833ZM303.833 287H320.666V303.833H303.833V287ZM303.833 270.167H320.666V287H303.833V270.167ZM303.833 320.667H320.666V337.5H303.833V320.667ZM303.833 303.833H320.666V320.667H303.833V303.833ZM320.666 287H337.5V303.833H320.666V287ZM320.666 270.167H337.5V287H320.666V270.167ZM337.5 320.667H354.333V337.5H337.5V320.667ZM337.5 287H354.333V303.833H337.5V287ZM337.5 303.833H354.333V320.667H337.5V303.833ZM303.833 253.333H320.666V270.167H303.833V253.333ZM202.833 270.167H219.666V287H202.833V270.167ZM186 270.167H202.833V287H186V270.167ZM186 287H202.833V303.833H186V287ZM219.666 287H236.5V303.833H219.666V287ZM169.166 287H186V303.833H169.166V287ZM202.833 287H219.666V303.833H202.833V287ZM169.166 303.833H186V320.667H169.166V303.833ZM169.166 320.667H186V337.5H169.166V320.667ZM169.166 0.833344H186V17.6667H169.166V0.833344ZM186 17.6667H202.833V34.5H186V17.6667ZM169.166 51.3333H186V68.1667H169.166V51.3333ZM186 68.1667H202.833V85H186V68.1667ZM169.166 85H186V101.833H169.166V85ZM186 85H202.833V101.833H186V85ZM186 101.833H202.833V118.667H186V101.833ZM186 118.667H202.833V135.5H186V118.667ZM169.166 135.5H186V152.333H169.166V135.5ZM186 135.5H202.833V152.333H186V135.5ZM169.166 152.333H186V169.167H169.166V152.333ZM0.833008 169.167H17.6663V186H0.833008V169.167ZM17.6663 186H34.4997V202.833H17.6663V186ZM51.333 169.167H68.1663V186H51.333V169.167ZM51.333 186H68.1663V202.833H51.333V186ZM68.1663 169.167H84.9997V186H68.1663V169.167ZM84.9997 186H101.833V202.833H84.9997V186ZM101.833 169.167H118.666V186H101.833V169.167ZM118.666 186H135.5V202.833H118.666V186ZM118.666 169.167H135.5V186H118.666V169.167ZM135.5 169.167H152.333V186H135.5V169.167ZM152.333 169.167H169.166V186H152.333V169.167ZM169.166 186H186V202.833H169.166V186ZM202.833 186H219.666V202.833H202.833V186ZM219.666 169.167H236.5V186H219.666V169.167ZM236.5 169.167H253.333V186H236.5V169.167ZM253.333 169.167H270.166V186H253.333V169.167ZM236.5 202.833H253.333V219.667H236.5V202.833ZM202.833 354.333H219.666V371.167H202.833V354.333ZM186 354.333H202.833V371.167H186V354.333ZM186 202.833H202.833V219.667H186V202.833ZM169.166 202.833H186V219.667H169.166V202.833ZM169.166 219.667H186V236.5H169.166V219.667ZM169.166 236.5H186V253.333H169.166V236.5ZM354.333 219.667H371.166V236.5H354.333V219.667ZM337.5 236.5H354.333V253.333H337.5V236.5ZM354.333 270.167H371.166V287H354.333V270.167ZM270.166 202.833H287V219.667H270.166V202.833ZM287 186H303.833V202.833H287V186ZM354.333 186H371.166V202.833H354.333V186ZM354.333 202.833H371.166V219.667H354.333V202.833ZM337.5 202.833H354.333V219.667H337.5V202.833ZM354.333 337.5H371.166V354.333H354.333V337.5ZM337.5 354.333H354.333V371.167H337.5V354.333ZM303.833 354.333H320.666V371.167H303.833V354.333ZM354.333 354.333H371.166V371.167H354.333V354.333Z" fill="black" stroke="#252525" stroke-width="2" mask="url(#path-1-inside-1)"/>
<path fill-rule="evenodd" clip-rule="evenodd" d="M236.499 17.6667H354.333V135.5H236.499V17.6667ZM17.666 17.6667H135.499V135.5H17.666V17.6667ZM17.666 236.5H135.499V354.333H17.666V236.5ZM286.999 68.1667H303.833V85H286.999V68.1667ZM68.166 68.1667H84.9994V85H68.166V68.1667ZM68.166 287H84.9994V303.833H68.166V287Z" stroke="#252525" stroke-width="2"/>
</svg>
