<svg width="22" height="22" viewBox="0 0 22 22" fill="none" xmlns="http://www.w3.org/2000/svg">
<path d="M11.9164 16.5V18.3333H15.583V20.1667H6.41638V18.3333H10.083V16.5H2.74238C2.62201 16.4993 2.50296 16.4748 2.39206 16.428C2.28117 16.3812 2.1806 16.3129 2.09612 16.2272C2.01164 16.1414 1.94492 16.0399 1.89978 15.9283C1.85464 15.8167 1.83196 15.6973 1.83305 15.5769V3.67308C1.83305 3.16342 2.25013 2.75 2.74238 2.75H19.257C19.7594 2.75 20.1664 3.16158 20.1664 3.67308V15.5769C20.1664 16.0866 19.7493 16.5 19.257 16.5H11.9164Z" fill="white"/>
<path d="M17.1104 4.43066H4.88813C4.04785 4.43066 3.36799 5.01504 3.36799 5.72928L3.36035 13.5209C3.36035 14.2352 4.04785 14.8196 4.88813 14.8196H17.1104C17.9506 14.8196 18.6381 14.2352 18.6381 13.5209V5.72928C18.6381 5.01504 17.9506 4.43066 17.1104 4.43066ZM4.88813 7.67719H12.909V9.94976H4.88813V7.67719ZM4.88813 11.2484H12.909V13.5209H5.65202C5.23188 13.5209 4.88813 13.2288 4.88813 12.8716V11.2484ZM16.3465 13.5209H14.4367V7.67719H17.1104V12.8716C17.1104 13.2288 16.7666 13.5209 16.3465 13.5209Z" fill="black"/>
<path d="M12.0575 6.2335C12.0685 6.14275 12.0768 6.052 12.0768 5.9585C12.0768 5.865 12.0685 5.77425 12.0575 5.6835H12.5223C12.5443 5.7715 12.558 5.86362 12.558 5.9585C12.558 6.05337 12.5443 6.1455 12.5223 6.2335H12.0575ZM11.8141 6.998C11.8966 6.84537 11.9599 6.68037 12.0039 6.5085H12.4095C12.2763 6.73788 12.0649 6.91165 11.8141 6.998ZM11.7798 6.2335H11.1363C11.1225 6.14275 11.1143 6.052 11.1143 5.9585C11.1143 5.865 11.1225 5.77287 11.1363 5.6835H11.7798C11.7921 5.77287 11.8018 5.865 11.8018 5.9585C11.8018 6.052 11.7921 6.14275 11.7798 6.2335ZM11.458 7.053C11.3439 6.888 11.2518 6.70512 11.1954 6.5085H11.7206C11.6643 6.70512 11.5721 6.888 11.458 7.053ZM10.908 5.4085H10.5065C10.6384 5.17849 10.8495 5.00445 11.1005 4.919C11.018 5.07162 10.9561 5.23662 10.908 5.4085ZM10.5065 6.5085H10.908C10.9561 6.68037 11.018 6.84537 11.1005 6.998C10.8501 6.9116 10.6392 6.73781 10.5065 6.5085ZM10.3938 6.2335C10.3718 6.1455 10.358 6.05337 10.358 5.9585C10.358 5.86362 10.3718 5.7715 10.3938 5.6835H10.8585C10.8475 5.77425 10.8393 5.865 10.8393 5.9585C10.8393 6.052 10.8475 6.14275 10.8585 6.2335H10.3938ZM11.458 4.86262C11.5721 5.02762 11.6643 5.21187 11.7206 5.4085H11.1954C11.2518 5.21187 11.3439 5.02762 11.458 4.86262ZM12.4095 5.4085H12.0039C11.9608 5.2382 11.8971 5.07381 11.8141 4.919C12.0671 5.00562 12.2775 5.18025 12.4095 5.4085ZM11.458 4.5835C10.6976 4.5835 10.083 5.20225 10.083 5.9585C10.083 6.32317 10.2279 6.67291 10.4857 6.93077C10.6134 7.05845 10.765 7.15973 10.9318 7.22883C11.0986 7.29793 11.2774 7.3335 11.458 7.3335C11.8227 7.3335 12.1724 7.18863 12.4303 6.93077C12.6881 6.67291 12.833 6.32317 12.833 5.9585C12.833 5.77793 12.7974 5.59913 12.7283 5.43231C12.6592 5.26548 12.558 5.1139 12.4303 4.98622C12.3026 4.85854 12.151 4.75726 11.9842 4.68816C11.8174 4.61906 11.6386 4.5835 11.458 4.5835Z" fill="white"/>
</svg>
