<svg width="13" height="23" viewBox="0 0 13 23" fill="none" xmlns="http://www.w3.org/2000/svg">
<path d="M6.5625 0.479004C4.93805 0.479004 3.38013 1.12431 2.23147 2.27297C1.08281 3.42164 0.4375 4.97955 0.4375 6.604C0.4375 9.9815 3.88937 10.9239 4.13262 14.9165H8.9915C9.23475 10.9239 12.6875 9.9815 12.6875 6.604C12.6875 4.97955 12.0422 3.42164 10.8935 2.27297C9.74487 1.12431 8.18695 0.479004 6.5625 0.479004ZM6.5625 22.6454C8.21975 22.6454 8.73512 21.7468 8.89612 21.1876H4.22888C4.38988 21.7476 4.90525 22.6454 6.5625 22.6454ZM4.15625 20.3109H8.96875V15.7924H4.15625V20.3109Z" fill="black"/>
</svg>
