<svg width="428" height="428" viewBox="0 0 428 428" fill="none" xmlns="http://www.w3.org/2000/svg">
<path d="M225.61 14.0425C225.61 21.3872 219.657 27.3409 212.312 27.3409C204.967 27.3409 199.014 21.3872 199.014 14.0425C199.014 6.6978 204.967 0.744141 212.312 0.744141C219.657 0.744141 225.61 6.6978 225.61 14.0425Z" fill="url(#paint0_radial)"/>
<path d="M414.002 224.156C406.658 224.156 400.704 218.203 400.704 210.858C400.704 203.513 406.658 197.56 414.002 197.56C421.347 197.56 427.301 203.513 427.301 210.858C427.301 218.203 421.347 224.156 414.002 224.156Z" fill="url(#paint1_radial)"/>
<path d="M404.736 275.512C397.639 273.617 393.423 266.33 395.317 259.233C397.211 252.137 404.499 247.92 411.595 249.815C418.691 251.709 422.908 258.996 421.014 266.093C419.12 273.189 411.832 277.406 404.736 275.512Z" fill="url(#paint2_radial)"/>
<path d="M382.478 322.652C376.113 318.986 373.925 310.856 377.591 304.491C381.256 298.127 389.387 295.939 395.752 299.604C402.116 303.27 404.304 311.4 400.638 317.765C396.973 324.13 388.842 326.317 382.478 322.652Z" fill="url(#paint3_radial)"/>
<path d="M348.554 362.664C343.36 357.471 343.36 349.051 348.554 343.857C353.747 338.664 362.167 338.664 367.36 343.857C372.554 349.051 372.554 357.471 367.36 362.664C362.167 367.858 353.747 367.858 348.554 362.664Z" fill="url(#paint4_radial)"/>
<path d="M305.73 392.4C302.041 386.049 304.199 377.911 310.55 374.222C316.901 370.533 325.04 372.691 328.729 379.042C332.418 385.393 330.26 393.531 323.909 397.22C317.558 400.909 309.419 398.752 305.73 392.4Z" fill="url(#paint5_radial)"/>
<path d="M256.534 410.072C254.613 402.983 258.803 395.68 265.892 393.759C272.981 391.838 280.284 396.027 282.205 403.116C284.126 410.205 279.937 417.508 272.848 419.429C265.759 421.351 258.456 417.161 256.534 410.072Z" fill="url(#paint6_radial)"/>
<path d="M203.547 414.283C203.575 406.938 209.552 401.007 216.896 401.036C224.241 401.064 230.171 407.041 230.143 414.385C230.115 421.73 224.138 427.661 216.794 427.632C209.449 427.604 203.518 421.627 203.547 414.283Z" fill="url(#paint7_radial)"/>
<path d="M152.194 404.805C154.115 397.716 161.419 393.526 168.508 395.448C175.597 397.369 179.786 404.672 177.865 411.761C175.944 418.85 168.64 423.039 161.551 421.118C154.462 419.197 150.273 411.894 152.194 404.805Z" fill="url(#paint8_radial)"/>
<path d="M105.079 382.317C108.768 375.966 116.907 373.808 123.258 377.497C129.609 381.186 131.767 389.325 128.078 395.676C124.389 402.027 116.25 404.184 109.899 400.495C103.548 396.806 101.39 388.668 105.079 382.317Z" fill="url(#paint9_radial)"/>
<path d="M65.3125 348.306C70.5248 343.131 78.9445 343.162 84.1191 348.374C89.2937 353.586 89.2631 362.006 84.0507 367.181C78.8384 372.355 70.4187 372.325 65.2441 367.112C60.0696 361.9 60.1002 353.48 65.3125 348.306Z" fill="url(#paint10_radial)"/>
<path d="M35.7929 305.464C42.1575 301.798 50.288 303.986 53.9536 310.351C57.6192 316.715 55.4313 324.846 49.0667 328.512C42.7021 332.177 34.5716 329.989 30.906 323.625C27.2404 317.26 29.4283 309.13 35.7929 305.464Z" fill="url(#paint11_radial)"/>
<path d="M18.3604 256.502C25.4567 254.608 32.7444 258.825 34.6385 265.921C36.5327 273.017 32.3159 280.305 25.2196 282.199C18.1234 284.093 10.8357 279.877 8.9415 272.78C7.04733 265.684 11.2642 258.396 18.3604 256.502Z" fill="url(#paint12_radial)"/>
<path d="M14.2474 203.082C21.5919 203.139 27.4994 209.138 27.4427 216.483C27.386 223.827 21.3866 229.735 14.0421 229.678C6.69762 229.621 0.790105 223.622 0.846808 216.277C0.903511 208.933 6.90296 203.025 14.2474 203.082Z" fill="url(#paint13_radial)"/>
<path d="M23.8897 151.904C30.9714 153.852 35.1328 161.172 33.1849 168.253C31.2369 175.335 23.9175 179.496 16.8358 177.548C9.75412 175.601 5.59269 168.281 7.54064 161.199C9.48859 154.118 16.8081 149.956 23.8897 151.904Z" fill="url(#paint14_radial)"/>
<path d="M46.3026 105.245C52.6401 108.958 54.7679 117.104 51.0556 123.441C47.3432 129.779 39.1968 131.907 32.8593 128.194C26.5219 124.482 24.394 116.336 28.1064 109.998C31.8188 103.661 39.9652 101.533 46.3026 105.245Z" fill="url(#paint15_radial)"/>
<path d="M80.6527 65.215C85.8083 70.446 85.7471 78.8656 80.516 84.0212C75.2849 89.1768 66.8654 89.1156 61.7098 83.8845C56.5542 78.6534 56.6154 70.2339 61.8464 65.0783C67.0775 59.9227 75.497 59.9839 80.6527 65.215Z" fill="url(#paint16_radial)"/>
<path d="M123.255 36.0195C126.897 42.3975 124.68 50.5199 118.301 54.1621C111.923 57.8042 103.801 55.5864 100.159 49.2083C96.5168 42.8303 98.7345 34.7078 105.113 31.0657C111.491 27.4236 119.613 29.6414 123.255 36.0195Z" fill="url(#paint17_radial)"/>
<path d="M173.309 18.4095C175.149 25.52 170.877 32.7754 163.767 34.6156C156.656 36.4559 149.401 32.1838 147.56 25.0734C145.72 17.963 149.992 10.7075 157.103 8.86728C164.213 7.02705 171.469 11.2991 173.309 18.4095Z" fill="url(#paint18_radial)"/>
<path d="M277.194 24.4148C275.219 31.4891 267.884 35.6227 260.81 33.648C253.736 31.6732 249.602 24.338 251.577 17.2637C253.552 10.1895 260.887 6.05585 267.961 8.03063C275.035 10.0054 279.169 17.3406 277.194 24.4148Z" fill="url(#paint19_radial)"/>
<path d="M323.698 46.9286C319.962 53.2523 311.808 55.3502 305.485 51.6145C299.161 47.8788 297.063 39.7246 300.799 33.4009C304.534 27.0772 312.689 24.9793 319.012 28.715C325.336 32.4507 327.434 40.6049 323.698 46.9286Z" fill="url(#paint20_radial)"/>
<path d="M363.74 81.4945C358.49 86.6311 350.071 86.5393 344.934 81.2895C339.798 76.0397 339.889 67.6205 345.139 62.4839C350.389 57.3473 358.808 57.4391 363.945 62.6889C369.081 67.9387 368.99 76.3579 363.74 81.4945Z" fill="url(#paint21_radial)"/>
<path d="M392.861 124.335C386.47 127.954 378.356 125.706 374.737 119.315C371.119 112.923 373.366 104.809 379.758 101.19C386.149 97.5719 394.263 99.8196 397.882 106.211C401.5 112.603 399.253 120.717 392.861 124.335Z" fill="url(#paint22_radial)"/>
<path d="M410.23 174.364C403.113 176.177 395.874 171.878 394.06 164.76C392.247 157.643 396.547 150.404 403.664 148.591C410.781 146.777 418.021 151.077 419.834 158.194C421.647 165.312 417.347 172.551 410.23 174.364Z" fill="url(#paint23_radial)"/>
<defs>
<radialGradient id="paint0_radial" cx="0" cy="0" r="1" gradientUnits="userSpaceOnUse" gradientTransform="translate(205.241 6.80416) scale(19.7735)">
<stop stop-color="white"/>
<stop offset="0.0544" stop-color="#FAE7FE"/>
<stop offset="0.4974" stop-color="#E7CEF6"/>
<stop offset="0.8253" stop-color="#948B9D"/>
<stop offset="1" stop-color="#6D617B"/>
</radialGradient>
<radialGradient id="paint1_radial" cx="0" cy="0" r="1" gradientUnits="userSpaceOnUse" gradientTransform="translate(421.241 203.787) rotate(90) scale(19.7735)">
<stop stop-color="white"/>
<stop offset="0.0544" stop-color="#FAE7FE"/>
<stop offset="0.4974" stop-color="#E7CEF6"/>
<stop offset="0.8253" stop-color="#948B9D"/>
<stop offset="1" stop-color="#6D617B"/>
</radialGradient>
<radialGradient id="paint2_radial" cx="0" cy="0" r="1" gradientUnits="userSpaceOnUse" gradientTransform="translate(416.982 257.698) rotate(104.945) scale(19.7735)">
<stop stop-color="white"/>
<stop offset="0.0544" stop-color="#FAE7FE"/>
<stop offset="0.4974" stop-color="#E7CEF6"/>
<stop offset="0.8253" stop-color="#948B9D"/>
<stop offset="1" stop-color="#6D617B"/>
</radialGradient>
<radialGradient id="paint3_radial" cx="0" cy="0" r="1" gradientUnits="userSpaceOnUse" gradientTransform="translate(398.916 308.613) rotate(119.939) scale(19.7735)">
<stop stop-color="white"/>
<stop offset="0.0544" stop-color="#FAE7FE"/>
<stop offset="0.4974" stop-color="#E7CEF6"/>
<stop offset="0.8253" stop-color="#948B9D"/>
<stop offset="1" stop-color="#6D617B"/>
</radialGradient>
<radialGradient id="paint4_radial" cx="0" cy="0" r="1" gradientUnits="userSpaceOnUse" gradientTransform="translate(368.075 353.379) rotate(135) scale(19.7735)">
<stop stop-color="white"/>
<stop offset="0.0544" stop-color="#FAE7FE"/>
<stop offset="0.4974" stop-color="#E7CEF6"/>
<stop offset="0.8253" stop-color="#948B9D"/>
<stop offset="1" stop-color="#6D617B"/>
</radialGradient>
<radialGradient id="paint5_radial" cx="0" cy="0" r="1" gradientUnits="userSpaceOnUse" gradientTransform="translate(326.98 388.429) rotate(149.85) scale(19.7735)">
<stop stop-color="white"/>
<stop offset="0.0544" stop-color="#FAE7FE"/>
<stop offset="0.4974" stop-color="#E7CEF6"/>
<stop offset="0.8253" stop-color="#948B9D"/>
<stop offset="1" stop-color="#6D617B"/>
</radialGradient>
<radialGradient id="paint6_radial" cx="0" cy="0" r="1" gradientUnits="userSpaceOnUse" gradientTransform="translate(278.088 411.731) rotate(164.837) scale(19.7735)">
<stop stop-color="white"/>
<stop offset="0.0544" stop-color="#FAE7FE"/>
<stop offset="0.4974" stop-color="#E7CEF6"/>
<stop offset="0.8253" stop-color="#948B9D"/>
<stop offset="1" stop-color="#6D617B"/>
</radialGradient>
<radialGradient id="paint7_radial" cx="0" cy="0" r="1" gradientUnits="userSpaceOnUse" gradientTransform="translate(223.888 421.6) rotate(-179.779) scale(19.7735)">
<stop stop-color="white"/>
<stop offset="0.0544" stop-color="#FAE7FE"/>
<stop offset="0.4974" stop-color="#E7CEF6"/>
<stop offset="0.8253" stop-color="#948B9D"/>
<stop offset="1" stop-color="#6D617B"/>
</radialGradient>
<radialGradient id="paint8_radial" cx="0" cy="0" r="1" gradientUnits="userSpaceOnUse" gradientTransform="translate(169.961 417.119) rotate(-164.837) scale(19.7735)">
<stop stop-color="white"/>
<stop offset="0.0544" stop-color="#FAE7FE"/>
<stop offset="0.4974" stop-color="#E7CEF6"/>
<stop offset="0.8253" stop-color="#948B9D"/>
<stop offset="1" stop-color="#6D617B"/>
</radialGradient>
<radialGradient id="paint9_radial" cx="0" cy="0" r="1" gradientUnits="userSpaceOnUse" gradientTransform="translate(119.058 398.807) rotate(-149.85) scale(19.7735)">
<stop stop-color="white"/>
<stop offset="0.0544" stop-color="#FAE7FE"/>
<stop offset="0.4974" stop-color="#E7CEF6"/>
<stop offset="0.8253" stop-color="#948B9D"/>
<stop offset="1" stop-color="#6D617B"/>
</radialGradient>
<radialGradient id="paint10_radial" cx="0" cy="0" r="1" gradientUnits="userSpaceOnUse" gradientTransform="translate(74.5267 367.861) rotate(-134.792) scale(19.7735)">
<stop stop-color="white"/>
<stop offset="0.0544" stop-color="#FAE7FE"/>
<stop offset="0.4974" stop-color="#E7CEF6"/>
<stop offset="0.8253" stop-color="#948B9D"/>
<stop offset="1" stop-color="#6D617B"/>
</radialGradient>
<radialGradient id="paint11_radial" cx="0" cy="0" r="1" gradientUnits="userSpaceOnUse" gradientTransform="translate(39.6865 326.728) rotate(-119.939) scale(19.7735)">
<stop stop-color="white"/>
<stop offset="0.0544" stop-color="#FAE7FE"/>
<stop offset="0.4974" stop-color="#E7CEF6"/>
<stop offset="0.8253" stop-color="#948B9D"/>
<stop offset="1" stop-color="#6D617B"/>
</radialGradient>
<radialGradient id="paint12_radial" cx="0" cy="0" r="1" gradientUnits="userSpaceOnUse" gradientTransform="translate(16.6202 278.05) rotate(-104.945) scale(19.7735)">
<stop stop-color="white"/>
<stop offset="0.0544" stop-color="#FAE7FE"/>
<stop offset="0.4974" stop-color="#E7CEF6"/>
<stop offset="0.8253" stop-color="#948B9D"/>
<stop offset="1" stop-color="#6D617B"/>
</radialGradient>
<radialGradient id="paint13_radial" cx="0" cy="0" r="1" gradientUnits="userSpaceOnUse" gradientTransform="translate(6.85206 223.395) rotate(-89.5577) scale(19.7735)">
<stop stop-color="white"/>
<stop offset="0.0544" stop-color="#FAE7FE"/>
<stop offset="0.4974" stop-color="#E7CEF6"/>
<stop offset="0.8253" stop-color="#948B9D"/>
<stop offset="1" stop-color="#6D617B"/>
</radialGradient>
<radialGradient id="paint14_radial" cx="0" cy="0" r="1" gradientUnits="userSpaceOnUse" gradientTransform="translate(11.5082 169.625) rotate(-74.6201) scale(19.7735)">
<stop stop-color="white"/>
<stop offset="0.0544" stop-color="#FAE7FE"/>
<stop offset="0.4974" stop-color="#E7CEF6"/>
<stop offset="0.8253" stop-color="#948B9D"/>
<stop offset="1" stop-color="#6D617B"/>
</radialGradient>
<radialGradient id="paint15_radial" cx="0" cy="0" r="1" gradientUnits="userSpaceOnUse" gradientTransform="translate(29.7612 119.163) rotate(-59.6388) scale(19.7735)">
<stop stop-color="white"/>
<stop offset="0.0544" stop-color="#FAE7FE"/>
<stop offset="0.4974" stop-color="#E7CEF6"/>
<stop offset="0.8253" stop-color="#948B9D"/>
<stop offset="1" stop-color="#6D617B"/>
</radialGradient>
<radialGradient id="paint16_radial" cx="0" cy="0" r="1" gradientUnits="userSpaceOnUse" gradientTransform="translate(61.0639 74.3581) rotate(-44.5837) scale(19.7735)">
<stop stop-color="white"/>
<stop offset="0.0544" stop-color="#FAE7FE"/>
<stop offset="0.4974" stop-color="#E7CEF6"/>
<stop offset="0.8253" stop-color="#948B9D"/>
<stop offset="1" stop-color="#6D617B"/>
</radialGradient>
<radialGradient id="paint17_radial" cx="0" cy="0" r="1" gradientUnits="userSpaceOnUse" gradientTransform="translate(101.977 39.8347) rotate(-29.7279) scale(19.7735)">
<stop stop-color="white"/>
<stop offset="0.0544" stop-color="#FAE7FE"/>
<stop offset="0.4974" stop-color="#E7CEF6"/>
<stop offset="0.8253" stop-color="#948B9D"/>
<stop offset="1" stop-color="#6D617B"/>
</radialGradient>
<radialGradient id="paint18_radial" cx="0" cy="0" r="1" gradientUnits="userSpaceOnUse" gradientTransform="translate(151.775 16.5057) rotate(-14.5102) scale(19.7735)">
<stop stop-color="white"/>
<stop offset="0.0544" stop-color="#FAE7FE"/>
<stop offset="0.4974" stop-color="#E7CEF6"/>
<stop offset="0.8253" stop-color="#948B9D"/>
<stop offset="1" stop-color="#6D617B"/>
</radialGradient>
<radialGradient id="paint19_radial" cx="0" cy="0" r="1" gradientUnits="userSpaceOnUse" gradientTransform="translate(259.521 11.9662) rotate(15.5971) scale(19.7735)">
<stop stop-color="white"/>
<stop offset="0.0544" stop-color="#FAE7FE"/>
<stop offset="0.4974" stop-color="#E7CEF6"/>
<stop offset="0.8253" stop-color="#948B9D"/>
<stop offset="1" stop-color="#6D617B"/>
</radialGradient>
<radialGradient id="paint20_radial" cx="0" cy="0" r="1" gradientUnits="userSpaceOnUse" gradientTransform="translate(309.842 30.336) rotate(30.5721) scale(19.7735)">
<stop stop-color="white"/>
<stop offset="0.0544" stop-color="#FAE7FE"/>
<stop offset="0.4974" stop-color="#E7CEF6"/>
<stop offset="0.8253" stop-color="#948B9D"/>
<stop offset="1" stop-color="#6D617B"/>
</radialGradient>
<radialGradient id="paint21_radial" cx="0" cy="0" r="1" gradientUnits="userSpaceOnUse" gradientTransform="translate(354.668 61.8727) rotate(45.6245) scale(19.7735)">
<stop stop-color="white"/>
<stop offset="0.0544" stop-color="#FAE7FE"/>
<stop offset="0.4974" stop-color="#E7CEF6"/>
<stop offset="0.8253" stop-color="#948B9D"/>
<stop offset="1" stop-color="#6D617B"/>
</radialGradient>
<radialGradient id="paint22_radial" cx="0" cy="0" r="1" gradientUnits="userSpaceOnUse" gradientTransform="translate(389.125 103.043) rotate(60.4833) scale(19.7735)">
<stop stop-color="white"/>
<stop offset="0.0544" stop-color="#FAE7FE"/>
<stop offset="0.4974" stop-color="#E7CEF6"/>
<stop offset="0.8253" stop-color="#948B9D"/>
<stop offset="1" stop-color="#6D617B"/>
</radialGradient>
<radialGradient id="paint23_radial" cx="0" cy="0" r="1" gradientUnits="userSpaceOnUse" gradientTransform="translate(412.216 152.838) rotate(75.7074) scale(19.7735)">
<stop stop-color="white"/>
<stop offset="0.0544" stop-color="#FAE7FE"/>
<stop offset="0.4974" stop-color="#E7CEF6"/>
<stop offset="0.8253" stop-color="#948B9D"/>
<stop offset="1" stop-color="#6D617B"/>
</radialGradient>
</defs>
</svg>
