<svg width="308" height="309" viewBox="0 0 308 309" fill="none" xmlns="http://www.w3.org/2000/svg">
<path opacity="0.7" d="M157.939 5.5C157.939 8.53766 155.477 11 152.439 11C149.402 11 146.939 8.53766 146.939 5.5C146.939 2.46234 149.402 0 152.439 0C155.477 0 157.939 2.46234 157.939 5.5Z" fill="url(#paint0_radial)"/>
<path opacity="0.7" d="M302.484 156.546C299.447 156.546 296.984 154.084 296.984 151.046C296.984 148.008 299.447 145.546 302.484 145.546C305.522 145.546 307.984 148.008 307.984 151.046C307.984 154.084 305.522 156.546 302.484 156.546Z" fill="url(#paint1_radial)"/>
<path opacity="0.7" d="M296.92 194.888C293.985 194.105 292.241 191.091 293.024 188.156C293.807 185.221 296.821 183.477 299.756 184.26C302.691 185.044 304.435 188.058 303.652 190.993C302.868 193.928 299.854 195.672 296.92 194.888Z" fill="url(#paint2_radial)"/>
<path opacity="0.7" d="M281.625 230.375C278.993 228.859 278.088 225.496 279.604 222.864C281.12 220.232 284.482 219.327 287.115 220.843C289.747 222.359 290.652 225.722 289.136 228.354C287.62 230.986 284.257 231.891 281.625 230.375Z" fill="url(#paint3_radial)"/>
<path opacity="0.7" d="M257.487 260.896C255.339 258.748 255.339 255.266 257.487 253.118C259.635 250.97 263.117 250.97 265.265 253.118C267.413 255.266 267.413 258.748 265.265 260.896C263.117 263.044 259.635 263.044 257.487 260.896Z" fill="url(#paint4_radial)"/>
<path opacity="0.7" d="M226.403 284.083C224.878 281.456 225.77 278.09 228.397 276.564C231.024 275.038 234.39 275.931 235.915 278.558C237.441 281.184 236.549 284.55 233.922 286.076C231.295 287.602 227.929 286.709 226.403 284.083Z" fill="url(#paint5_radial)"/>
<path opacity="0.7" d="M190.36 298.415C189.566 295.483 191.298 292.463 194.23 291.668C197.162 290.874 200.183 292.606 200.977 295.538C201.772 298.47 200.039 301.491 197.107 302.285C194.176 303.08 191.155 301.347 190.36 298.415Z" fill="url(#paint6_radial)"/>
<path opacity="0.7" d="M151.295 302.855C151.306 299.817 153.778 297.365 156.816 297.376C159.854 297.388 162.306 299.86 162.295 302.898C162.283 305.935 159.811 308.388 156.773 308.376C153.736 308.365 151.283 305.893 151.295 302.855Z" fill="url(#paint7_radial)"/>
<path opacity="0.7" d="M112.939 297.128C113.733 294.196 116.754 292.463 119.686 293.258C122.618 294.052 124.35 297.073 123.556 300.005C122.761 302.937 119.741 304.669 116.809 303.875C113.877 303.08 112.144 300.06 112.939 297.128Z" fill="url(#paint8_radial)"/>
<path opacity="0.7" d="M77.446 281.643C78.9717 279.016 82.3377 278.124 84.9643 279.65C87.591 281.175 88.4835 284.541 86.9578 287.168C85.4321 289.795 82.0661 290.687 79.4394 289.161C76.8127 287.636 75.9202 284.27 77.446 281.643Z" fill="url(#paint9_radial)"/>
<path opacity="0.7" d="M45.9033 255.875C48.0591 253.735 51.5413 253.748 53.6815 255.904C55.8216 258.059 55.8089 261.542 53.6532 263.682C51.4975 265.822 48.0152 265.809 45.8751 263.653C43.7349 261.498 43.7476 258.015 45.9033 255.875Z" fill="url(#paint10_radial)"/>
<path opacity="0.7" d="M24.1219 226.377C26.7542 224.861 30.1169 225.766 31.6329 228.398C33.1489 231.031 32.2441 234.393 29.6118 235.909C26.9795 237.425 23.6168 236.521 22.1008 233.888C20.5847 231.256 21.4896 227.893 24.1219 226.377Z" fill="url(#paint11_radial)"/>
<path opacity="0.7" d="M9.981 190.585C12.9159 189.801 15.93 191.545 16.7134 194.48C17.4968 197.415 15.7528 200.429 12.8179 201.212C9.88295 201.996 6.86888 200.252 6.08548 197.317C5.30208 194.382 7.0461 191.368 9.981 190.585Z" fill="url(#paint12_radial)"/>
<path opacity="0.7" d="M5.58476 151.089C8.62233 151.112 11.0656 153.593 11.0421 156.631C11.0187 159.669 8.5374 162.112 5.49984 162.088C2.46227 162.065 0.01901 159.584 0.0424616 156.546C0.0659131 153.508 2.54719 151.065 5.58476 151.089Z" fill="url(#paint13_radial)"/>
<path opacity="0.7" d="M11.4255 112.89C14.3544 113.695 16.0755 116.723 15.2699 119.651C14.4642 122.58 11.437 124.301 8.50811 123.496C5.57924 122.69 3.85814 119.663 4.66378 116.734C5.46942 113.805 8.49664 112.084 11.4255 112.89Z" fill="url(#paint14_radial)"/>
<path opacity="0.7" d="M26.7959 77.8218C29.4169 79.3571 30.297 82.7264 28.7616 85.3474C27.2262 87.9685 23.857 88.8486 21.2359 87.3132C18.6149 85.7778 17.7348 82.4086 19.2702 79.7875C20.8056 77.1664 24.1748 76.2864 26.7959 77.8218Z" fill="url(#paint15_radial)"/>
<path opacity="0.7" d="M51.2929 47.2065C53.4252 49.37 53.3999 52.8522 51.2364 54.9845C49.0729 57.1168 45.5907 57.0915 43.4584 54.928C41.3261 52.7645 41.3514 49.2823 43.5149 47.15C45.6784 45.0177 49.1606 45.043 51.2929 47.2065Z" fill="url(#paint16_radial)"/>
<path opacity="0.7" d="M82.1039 24.4796C83.6102 27.1175 82.6929 30.4768 80.0551 31.9831C77.4172 33.4895 74.0579 32.5722 72.5516 29.9343C71.0453 27.2965 71.9625 23.9372 74.6004 22.4309C77.2382 20.9245 80.5975 21.8418 82.1039 24.4796Z" fill="url(#paint17_radial)"/>
<path opacity="0.7" d="M118.773 10.1329C119.534 13.0737 117.768 16.0745 114.827 16.8355C111.886 17.5966 108.885 15.8298 108.124 12.889C107.363 9.94826 109.13 6.94751 112.071 6.18641C115.011 5.42532 118.012 7.19218 118.773 10.1329Z" fill="url(#paint18_radial)"/>
<path opacity="0.7" d="M195.97 11.9318C195.153 14.8576 192.119 16.5672 189.193 15.7505C186.268 14.9337 184.558 11.9 185.375 8.97423C186.191 6.04843 189.225 4.33881 192.151 5.15555C195.077 5.97229 196.786 9.00602 195.97 11.9318Z" fill="url(#paint19_radial)"/>
<path opacity="0.7" d="M230.912 27.3625C229.367 29.9779 225.994 30.8456 223.379 29.3005C220.763 27.7555 219.896 24.3831 221.441 21.7677C222.986 19.1523 226.358 18.2846 228.974 19.8297C231.589 21.3747 232.457 24.7471 230.912 27.3625Z" fill="url(#paint20_radial)"/>
<path opacity="0.7" d="M261.576 52.0429C259.405 54.1674 255.923 54.1294 253.798 51.9582C251.674 49.7869 251.712 46.3049 253.883 44.1805C256.054 42.056 259.537 42.094 261.661 44.2652C263.785 46.4365 263.747 49.9185 261.576 52.0429Z" fill="url(#paint21_radial)"/>
<path opacity="0.7" d="M284.272 83.0653C281.629 84.5618 278.273 83.6322 276.776 80.9888C275.279 78.3454 276.209 74.9895 278.853 73.4929C281.496 71.9963 284.852 72.926 286.348 75.5694C287.845 78.2128 286.915 81.5687 284.272 83.0653Z" fill="url(#paint22_radial)"/>
<path opacity="0.7" d="M298.425 119.693C295.481 120.443 292.487 118.665 291.737 115.721C290.987 112.778 292.766 109.784 295.709 109.034C298.653 108.284 301.647 110.062 302.397 113.006C303.147 115.949 301.369 118.943 298.425 119.693Z" fill="url(#paint23_radial)"/>
<defs>
<radialGradient id="paint0_radial" cx="0" cy="0" r="1" gradientUnits="userSpaceOnUse" gradientTransform="translate(149.515 2.50633) scale(8.17804)">
<stop stop-color="white"/>
<stop offset="0.0544" stop-color="#FAE7FE"/>
<stop offset="0.4974" stop-color="#E7CEF6"/>
<stop offset="0.8253" stop-color="#948B9D"/>
<stop offset="1" stop-color="#6D617B"/>
</radialGradient>
<radialGradient id="paint1_radial" cx="0" cy="0" r="1" gradientUnits="userSpaceOnUse" gradientTransform="translate(305.478 148.121) rotate(90) scale(8.17804)">
<stop stop-color="white"/>
<stop offset="0.0544" stop-color="#FAE7FE"/>
<stop offset="0.4974" stop-color="#E7CEF6"/>
<stop offset="0.8253" stop-color="#948B9D"/>
<stop offset="1" stop-color="#6D617B"/>
</radialGradient>
<radialGradient id="paint2_radial" cx="0" cy="0" r="1" gradientUnits="userSpaceOnUse" gradientTransform="translate(301.985 187.521) rotate(104.945) scale(8.17804)">
<stop stop-color="white"/>
<stop offset="0.0544" stop-color="#FAE7FE"/>
<stop offset="0.4974" stop-color="#E7CEF6"/>
<stop offset="0.8253" stop-color="#948B9D"/>
<stop offset="1" stop-color="#6D617B"/>
</radialGradient>
<radialGradient id="paint3_radial" cx="0" cy="0" r="1" gradientUnits="userSpaceOnUse" gradientTransform="translate(288.424 224.569) rotate(119.939) scale(8.17804)">
<stop stop-color="white"/>
<stop offset="0.0544" stop-color="#FAE7FE"/>
<stop offset="0.4974" stop-color="#E7CEF6"/>
<stop offset="0.8253" stop-color="#948B9D"/>
<stop offset="1" stop-color="#6D617B"/>
</radialGradient>
<radialGradient id="paint4_radial" cx="0" cy="0" r="1" gradientUnits="userSpaceOnUse" gradientTransform="translate(265.561 257.056) rotate(135) scale(8.17804)">
<stop stop-color="white"/>
<stop offset="0.0544" stop-color="#FAE7FE"/>
<stop offset="0.4974" stop-color="#E7CEF6"/>
<stop offset="0.8253" stop-color="#948B9D"/>
<stop offset="1" stop-color="#6D617B"/>
</radialGradient>
<radialGradient id="paint5_radial" cx="0" cy="0" r="1" gradientUnits="userSpaceOnUse" gradientTransform="translate(235.192 282.44) rotate(149.85) scale(8.17804)">
<stop stop-color="white"/>
<stop offset="0.0544" stop-color="#FAE7FE"/>
<stop offset="0.4974" stop-color="#E7CEF6"/>
<stop offset="0.8253" stop-color="#948B9D"/>
<stop offset="1" stop-color="#6D617B"/>
</radialGradient>
<radialGradient id="paint6_radial" cx="0" cy="0" r="1" gradientUnits="userSpaceOnUse" gradientTransform="translate(199.275 299.101) rotate(164.837) scale(8.17804)">
<stop stop-color="white"/>
<stop offset="0.0544" stop-color="#FAE7FE"/>
<stop offset="0.4974" stop-color="#E7CEF6"/>
<stop offset="0.8253" stop-color="#948B9D"/>
<stop offset="1" stop-color="#6D617B"/>
</radialGradient>
<radialGradient id="paint7_radial" cx="0" cy="0" r="1" gradientUnits="userSpaceOnUse" gradientTransform="translate(159.708 305.881) rotate(-179.779) scale(8.17804)">
<stop stop-color="white"/>
<stop offset="0.0544" stop-color="#FAE7FE"/>
<stop offset="0.4974" stop-color="#E7CEF6"/>
<stop offset="0.8253" stop-color="#948B9D"/>
<stop offset="1" stop-color="#6D617B"/>
</radialGradient>
<radialGradient id="paint8_radial" cx="0" cy="0" r="1" gradientUnits="userSpaceOnUse" gradientTransform="translate(120.287 302.221) rotate(-164.837) scale(8.17804)">
<stop stop-color="white"/>
<stop offset="0.0544" stop-color="#FAE7FE"/>
<stop offset="0.4974" stop-color="#E7CEF6"/>
<stop offset="0.8253" stop-color="#948B9D"/>
<stop offset="1" stop-color="#6D617B"/>
</radialGradient>
<radialGradient id="paint9_radial" cx="0" cy="0" r="1" gradientUnits="userSpaceOnUse" gradientTransform="translate(83.2272 288.463) rotate(-149.85) scale(8.17804)">
<stop stop-color="white"/>
<stop offset="0.0544" stop-color="#FAE7FE"/>
<stop offset="0.4974" stop-color="#E7CEF6"/>
<stop offset="0.8253" stop-color="#948B9D"/>
<stop offset="1" stop-color="#6D617B"/>
</radialGradient>
<radialGradient id="paint10_radial" cx="0" cy="0" r="1" gradientUnits="userSpaceOnUse" gradientTransform="translate(49.7142 263.963) rotate(-134.792) scale(8.17804)">
<stop stop-color="white"/>
<stop offset="0.0544" stop-color="#FAE7FE"/>
<stop offset="0.4974" stop-color="#E7CEF6"/>
<stop offset="0.8253" stop-color="#948B9D"/>
<stop offset="1" stop-color="#6D617B"/>
</radialGradient>
<radialGradient id="paint11_radial" cx="0" cy="0" r="1" gradientUnits="userSpaceOnUse" gradientTransform="translate(25.7322 235.172) rotate(-119.939) scale(8.17804)">
<stop stop-color="white"/>
<stop offset="0.0544" stop-color="#FAE7FE"/>
<stop offset="0.4974" stop-color="#E7CEF6"/>
<stop offset="0.8253" stop-color="#948B9D"/>
<stop offset="1" stop-color="#6D617B"/>
</radialGradient>
<radialGradient id="paint12_radial" cx="0" cy="0" r="1" gradientUnits="userSpaceOnUse" gradientTransform="translate(9.26126 199.496) rotate(-104.945) scale(8.17804)">
<stop stop-color="white"/>
<stop offset="0.0544" stop-color="#FAE7FE"/>
<stop offset="0.4974" stop-color="#E7CEF6"/>
<stop offset="0.8253" stop-color="#948B9D"/>
<stop offset="1" stop-color="#6D617B"/>
</radialGradient>
<radialGradient id="paint13_radial" cx="0" cy="0" r="1" gradientUnits="userSpaceOnUse" gradientTransform="translate(2.52614 159.49) rotate(-89.5577) scale(8.17804)">
<stop stop-color="white"/>
<stop offset="0.0544" stop-color="#FAE7FE"/>
<stop offset="0.4974" stop-color="#E7CEF6"/>
<stop offset="0.8253" stop-color="#948B9D"/>
<stop offset="1" stop-color="#6D617B"/>
</radialGradient>
<radialGradient id="paint14_radial" cx="0" cy="0" r="1" gradientUnits="userSpaceOnUse" gradientTransform="translate(6.30471 120.219) rotate(-74.6201) scale(8.17804)">
<stop stop-color="white"/>
<stop offset="0.0544" stop-color="#FAE7FE"/>
<stop offset="0.4974" stop-color="#E7CEF6"/>
<stop offset="0.8253" stop-color="#948B9D"/>
<stop offset="1" stop-color="#6D617B"/>
</radialGradient>
<radialGradient id="paint15_radial" cx="0" cy="0" r="1" gradientUnits="userSpaceOnUse" gradientTransform="translate(19.9546 83.5778) rotate(-59.6388) scale(8.17804)">
<stop stop-color="white"/>
<stop offset="0.0544" stop-color="#FAE7FE"/>
<stop offset="0.4974" stop-color="#E7CEF6"/>
<stop offset="0.8253" stop-color="#948B9D"/>
<stop offset="1" stop-color="#6D617B"/>
</radialGradient>
<radialGradient id="paint16_radial" cx="0" cy="0" r="1" gradientUnits="userSpaceOnUse" gradientTransform="translate(43.1913 50.988) rotate(-44.5837) scale(8.17804)">
<stop stop-color="white"/>
<stop offset="0.0544" stop-color="#FAE7FE"/>
<stop offset="0.4974" stop-color="#E7CEF6"/>
<stop offset="0.8253" stop-color="#948B9D"/>
<stop offset="1" stop-color="#6D617B"/>
</radialGradient>
<radialGradient id="paint17_radial" cx="0" cy="0" r="1" gradientUnits="userSpaceOnUse" gradientTransform="translate(73.3035 26.0576) rotate(-29.7279) scale(8.17804)">
<stop stop-color="white"/>
<stop offset="0.0544" stop-color="#FAE7FE"/>
<stop offset="0.4974" stop-color="#E7CEF6"/>
<stop offset="0.8253" stop-color="#948B9D"/>
<stop offset="1" stop-color="#6D617B"/>
</radialGradient>
<radialGradient id="paint18_radial" cx="0" cy="0" r="1" gradientUnits="userSpaceOnUse" gradientTransform="translate(109.867 9.34556) rotate(-14.5102) scale(8.17804)">
<stop stop-color="white"/>
<stop offset="0.0544" stop-color="#FAE7FE"/>
<stop offset="0.4974" stop-color="#E7CEF6"/>
<stop offset="0.8253" stop-color="#948B9D"/>
<stop offset="1" stop-color="#6D617B"/>
</radialGradient>
<radialGradient id="paint19_radial" cx="0" cy="0" r="1" gradientUnits="userSpaceOnUse" gradientTransform="translate(188.66 6.78326) rotate(15.5971) scale(8.17804)">
<stop stop-color="white"/>
<stop offset="0.0544" stop-color="#FAE7FE"/>
<stop offset="0.4974" stop-color="#E7CEF6"/>
<stop offset="0.8253" stop-color="#948B9D"/>
<stop offset="1" stop-color="#6D617B"/>
</radialGradient>
<radialGradient id="paint20_radial" cx="0" cy="0" r="1" gradientUnits="userSpaceOnUse" gradientTransform="translate(225.181 20.5001) rotate(30.5721) scale(8.17804)">
<stop stop-color="white"/>
<stop offset="0.0544" stop-color="#FAE7FE"/>
<stop offset="0.4974" stop-color="#E7CEF6"/>
<stop offset="0.8253" stop-color="#948B9D"/>
<stop offset="1" stop-color="#6D617B"/>
</radialGradient>
<radialGradient id="paint21_radial" cx="0" cy="0" r="1" gradientUnits="userSpaceOnUse" gradientTransform="translate(257.824 43.9277) rotate(45.6245) scale(8.17804)">
<stop stop-color="white"/>
<stop offset="0.0544" stop-color="#FAE7FE"/>
<stop offset="0.4974" stop-color="#E7CEF6"/>
<stop offset="0.8253" stop-color="#948B9D"/>
<stop offset="1" stop-color="#6D617B"/>
</radialGradient>
<radialGradient id="paint22_radial" cx="0" cy="0" r="1" gradientUnits="userSpaceOnUse" gradientTransform="translate(282.726 74.2592) rotate(60.4833) scale(8.17804)">
<stop stop-color="white"/>
<stop offset="0.0544" stop-color="#FAE7FE"/>
<stop offset="0.4974" stop-color="#E7CEF6"/>
<stop offset="0.8253" stop-color="#948B9D"/>
<stop offset="1" stop-color="#6D617B"/>
</radialGradient>
<radialGradient id="paint23_radial" cx="0" cy="0" r="1" gradientUnits="userSpaceOnUse" gradientTransform="translate(299.246 110.79) rotate(75.7074) scale(8.17804)">
<stop stop-color="white"/>
<stop offset="0.0544" stop-color="#FAE7FE"/>
<stop offset="0.4974" stop-color="#E7CEF6"/>
<stop offset="0.8253" stop-color="#948B9D"/>
<stop offset="1" stop-color="#6D617B"/>
</radialGradient>
</defs>
</svg>
