<svg width="26" height="26" viewBox="0 0 26 26" fill="none" xmlns="http://www.w3.org/2000/svg">
<path d="M8.93731 24.4969V18.8906L4.75293 21.9781C5.93105 23.075 7.35293 23.9281 8.93731 24.4969Z" fill="#2A5F9E"/>
<path d="M17.0625 24.497C18.6469 23.9282 20.0688 23.0751 21.2469 21.9782L17.0625 18.8501V24.497Z" fill="#2A5F9E"/>
<path d="M1.50293 17.0625C1.6248 17.4687 1.7873 17.8344 1.99043 18.2406L3.5748 17.0625H1.50293Z" fill="#2A5F9E"/>
<path d="M22.4248 17.0625L24.0092 18.2406C24.1717 17.875 24.3342 17.4687 24.4967 17.0625H22.4248Z" fill="#2A5F9E"/>
<path d="M9.54727 15.4375H1.05664C1.17852 16.0062 1.34102 16.5344 1.50352 17.0625H3.57539L1.99102 18.2406C2.31602 18.9313 2.68164 19.5406 3.12852 20.15L7.31289 17.0625H8.93789V17.875L4.18477 21.3687L4.75352 21.9375L8.93789 18.8906V24.4969C9.46602 24.7 9.99414 24.8219 10.5629 24.9438V15.4375H9.54727Z" fill="white"/>
<path d="M24.9438 15.4375H15.4375V24.9438C16.0062 24.8219 16.5344 24.6594 17.0625 24.4969V18.8906L21.2469 21.9375C21.8156 21.4094 22.3031 20.8406 22.7906 20.2312L18.4438 17.0625H21.2063L23.6844 18.8906C23.8062 18.6875 23.9281 18.4438 24.0094 18.2406L22.425 17.0625H24.4969C24.6594 16.5344 24.8219 16.0062 24.9438 15.4375Z" fill="white"/>
<path d="M3.12793 20.1499C3.45293 20.5968 3.77793 21.003 4.14355 21.4093L8.93731 17.9155V17.103H7.31231L3.12793 20.1499Z" fill="#ED4C5C"/>
<path d="M18.4844 17.0625L22.8313 20.2312C22.9938 20.0281 23.1156 19.825 23.2781 19.6219C23.3187 19.5812 23.3187 19.5406 23.3594 19.5406C23.4812 19.3375 23.6438 19.0937 23.7656 18.8906L21.2063 17.0625H18.4844Z" fill="#ED4C5C"/>
<path d="M17.0625 1.50293V7.10918L21.2469 4.02168C20.0688 2.92481 18.6469 2.07168 17.0625 1.50293Z" fill="#2A5F9E"/>
<path d="M8.93731 1.50293C7.35293 2.07168 5.93105 2.9248 4.75293 4.02168L8.93731 7.14981V1.50293Z" fill="#2A5F9E"/>
<path d="M24.4967 8.9374C24.3748 8.53115 24.2123 8.16553 24.0092 7.75928L22.4248 8.9374H24.4967Z" fill="#2A5F9E"/>
<path d="M3.5748 8.9374L1.99043 7.75928C1.82793 8.16553 1.66543 8.53115 1.50293 8.9374H3.5748Z" fill="#2A5F9E"/>
<path d="M16.4531 10.5624H24.9031C24.7812 9.99365 24.6187 9.46553 24.4562 8.9374H22.3844L23.9687 7.75928C23.6437 7.06865 23.2781 6.45928 22.8312 5.8499L18.6875 8.9374H17.0625V8.1249L21.8156 4.63115L21.2469 4.0624L17.0625 7.10928V1.50303C16.5344 1.2999 16.0062 1.17803 15.4375 1.05615V10.5624H16.4531Z" fill="white"/>
<path d="M1.05664 10.5624H10.5629V1.05615C9.99414 1.17803 9.46602 1.34053 8.93789 1.50303V7.10928L4.75352 4.0624C4.18477 4.59053 3.69727 5.15928 3.20977 5.76865L7.55664 8.9374H4.79414L2.31602 7.10928C2.19414 7.3124 2.07227 7.55615 1.99102 7.75928L3.57539 8.9374H1.50352C1.34102 9.46553 1.17852 9.99365 1.05664 10.5624Z" fill="white"/>
<path d="M22.8719 5.8502C22.5469 5.40332 22.2219 4.99707 21.8562 4.59082L17.0625 8.08457V8.89707H18.6875L22.8719 5.8502Z" fill="#ED4C5C"/>
<path d="M7.51602 8.93731L3.20977 5.76855C3.04727 5.97168 2.92539 6.1748 2.76289 6.37793C2.72227 6.41856 2.72227 6.45918 2.68164 6.45918C2.55977 6.66231 2.39727 6.90606 2.27539 7.10918L4.75352 8.93731H7.51602Z" fill="#ED4C5C"/>
<path d="M24.9438 10.5625H15.4375V1.05625C14.6656 0.89375 13.8531 0.8125 13 0.8125C12.1469 0.8125 11.3344 0.89375 10.5625 1.05625V10.5625H1.05625C0.89375 11.3344 0.8125 12.1469 0.8125 13C0.8125 13.8531 0.89375 14.6656 1.05625 15.4375H10.5625V24.9438C11.3344 25.1063 12.1469 25.1875 13 25.1875C13.8531 25.1875 14.6656 25.1063 15.4375 24.9438V15.4375H24.9438C25.1063 14.6656 25.1875 13.8531 25.1875 13C25.1875 12.1469 25.1063 11.3344 24.9438 10.5625Z" fill="#ED4C5C"/>
</svg>
