<svg width="199" height="205" viewBox="0 0 199 205" fill="none" xmlns="http://www.w3.org/2000/svg">
<g opacity="0.7">
<g opacity="0.7" filter="url(#filter0_d)">
<path d="M173.055 126.122C180.629 101.447 169.485 73.3135 149.361 57.158C129.237 41.0013 99.6099 23.461 74.0339 26.8794C52.0364 29.8196 32.2985 51.7042 18.4581 69.0604C12.0995 77.0358 8.30838 90.1763 16.413 96.3689C26.1525 103.809 40.7595 92.3157 52.1516 96.8342C62.1996 100.82 63.7388 114.485 61.6632 125.098C59.5877 135.711 55.6447 147.144 60.3941 156.858C64.8642 165.998 76.0096 170.277 86.1629 169.671C97.4404 168.999 107.924 163.231 119.129 161.481C124.742 160.604 130.277 160.976 135.9 159.984C142.095 158.891 147.976 156.687 153.159 153.084C162.471 146.61 169.718 136.991 173.055 126.122Z" fill="url(#paint0_linear)"/>
</g>
<g filter="url(#filter1_d)">
<path d="M32.5154 99.3603C35.7853 99.9627 38.6844 102.32 39.9461 105.4C42.6296 111.953 37.9232 119.377 39.1631 126.344C39.5592 128.572 40.5523 130.9 39.7163 132.997C38.7341 135.459 35.503 136.366 32.9654 135.587C30.4275 134.81 28.4697 132.805 26.7427 130.785C23.4359 126.92 20.4678 122.581 19.2981 117.634C17.3304 109.321 22.2602 97.4697 32.5154 99.3603Z" fill="url(#paint1_linear)"/>
</g>
<g filter="url(#filter2_d)">
<path d="M39.3448 48.13C37.713 45.8492 37.8259 42.433 39.718 40.34C41.6105 38.2477 45.1393 37.8177 47.3769 39.5129C48.647 40.475 49.4623 42.1437 49.0722 43.692C48.7437 44.9966 47.7151 45.8686 46.7721 46.7493C45.9449 47.5213 45.4901 48.3826 44.8042 49.2463C43.2465 51.2082 40.5455 49.8081 39.3448 48.13Z" fill="url(#paint2_linear)"/>
</g>
<g filter="url(#filter3_d)">
<path d="M33.7343 140.92C34.2856 140.402 35.1203 140.18 35.8251 140.435C36.6861 140.747 37.2105 141.758 37.0231 142.663C36.8346 143.569 35.9907 144.283 35.0761 144.364C32.91 144.557 32.2545 142.315 33.7343 140.92Z" fill="url(#paint3_linear)"/>
</g>
<g filter="url(#filter4_d)">
<path d="M54.9534 152.961C57.8168 150.266 62.1525 149.115 65.8138 150.44C70.2858 152.058 73.0099 157.313 72.0368 162.014C71.0576 166.719 66.6738 170.429 61.9232 170.849C50.6714 171.849 47.2665 160.207 54.9534 152.961Z" fill="url(#paint4_linear)"/>
</g>
<g filter="url(#filter5_d)">
<path d="M12.9128 87.9294C14.6112 86.3313 17.1828 85.6486 19.3545 86.4344C22.007 87.3943 23.6227 90.5107 23.0455 93.2996C22.4648 96.0897 19.8646 98.2904 17.0468 98.5394C10.373 99.133 8.35342 92.2275 12.9128 87.9294Z" fill="url(#paint5_linear)"/>
</g>
<g filter="url(#filter6_d)">
<path d="M45.4583 53.3758C45.2538 53.7446 43.3575 55.0952 42.9403 55.0795C42.4306 55.0603 42.0533 53.9354 41.9991 53.4233C41.9455 52.9109 42.272 52.3887 42.7435 52.1907C43.8601 51.7209 46.0067 52.3846 45.4583 53.3758Z" fill="url(#paint6_linear)"/>
</g>
<g filter="url(#filter7_d)">
<path d="M169.398 105.817C169.95 105.298 170.784 105.076 171.489 105.331C172.35 105.643 172.875 106.654 172.687 107.56C172.499 108.465 171.655 109.179 170.74 109.26C168.574 109.453 167.919 107.212 169.398 105.817Z" fill="url(#paint7_linear)"/>
</g>
<g filter="url(#filter8_d)">
<path d="M169.652 111.698C167.658 111.995 165.951 113.366 163.948 113.602C161.725 113.865 159.239 112.734 157.343 113.901C155.941 114.764 155.47 116.684 155.943 118.264C156.416 119.844 157.651 121.103 159.027 122.032C161.889 123.963 165.615 124.685 168.897 123.672C171.997 122.714 174.788 119.953 175.559 116.763C176.298 113.706 172.44 111.282 169.652 111.698Z" fill="url(#paint8_linear)"/>
</g>
<g filter="url(#filter9_d)">
<path d="M42.1754 100.877C43.1318 100.244 44.5974 100.634 45.1337 101.648C45.6708 102.662 45.1887 104.073 44.1552 104.569C43.121 105.065 41.7353 104.58 41.213 103.558C40.6907 102.536 41.093 101.151 42.0673 100.545" fill="url(#paint9_linear)"/>
</g>
<path d="M145.277 71.73L133.922 78.3382L133.692 78.4716L100.967 97.5151L100.738 97.648L68.0122 116.692L67.7837 116.825L60.8389 120.866C60.9704 120.938 61.1045 121.004 61.2351 121.077L67.9754 117.154L68.2038 117.021L100.93 97.9774L101.159 97.8444L133.884 78.801L134.113 78.6675L145.593 71.9873C145.488 71.9021 145.384 71.8155 145.277 71.73Z" fill="url(#paint10_linear)"/>
<path d="M130.087 71.7474L129.857 71.8809L97.1321 90.9243L96.9037 91.0573L64.1774 110.101L63.949 110.234L52.2812 117.024C52.4369 117.078 52.5901 117.139 52.7454 117.195L64.1397 110.564L64.3682 110.431L97.0944 91.3872L97.3228 91.2542L130.048 72.2108L130.278 72.0773L138.882 67.0702C138.763 66.9921 138.642 66.9166 138.522 66.8385L130.087 71.7474Z" fill="url(#paint11_linear)"/>
<path d="M126.251 65.1566L126.022 65.2901L93.2968 84.3335L93.0684 84.4665L60.3421 103.51L60.1137 103.643L36.0488 117.647C36.1386 117.742 36.2274 117.838 36.3181 117.933L60.3059 103.974L60.5343 103.841L93.2605 84.7967L93.489 84.6638L126.214 65.6203L126.444 65.4869L131.387 62.6104C131.255 62.5384 131.123 62.4693 130.99 62.3992L126.251 65.1566Z" fill="url(#paint12_linear)"/>
<path d="M122.416 58.5658L122.187 58.6993L89.4612 77.7428L89.2328 77.8757L56.5066 96.9197L56.2781 97.0526L31.083 111.714C31.1599 111.817 31.2377 111.919 31.3146 112.021L56.4703 97.3829L56.6988 97.25L89.425 78.206L89.6534 78.073L122.379 59.0296L122.608 58.8961L123.225 58.5374C123.083 58.4721 122.942 58.4069 122.801 58.3416L122.416 58.5658Z" fill="url(#paint13_linear)"/>
<path d="M132.005 75.0437L131.775 75.1772L99.0501 94.2206L98.8216 94.3536L66.0954 113.398L65.867 113.53L56.7744 118.822C56.9145 118.885 57.0508 118.957 57.1899 119.021L66.0586 113.86L66.2871 113.727L99.0133 94.6829L99.2417 94.55L131.967 75.5065L132.196 75.3731L142.34 69.4701C142.229 69.3878 142.118 69.3049 142.006 69.2241L132.005 75.0437Z" fill="url(#paint14_linear)"/>
<path d="M128.169 68.452L127.94 68.5855L95.2148 87.6289L94.9864 87.7618L62.2602 106.806L62.0317 106.939L47.2236 115.556C47.4008 115.596 47.5752 115.647 47.752 115.689L62.2234 107.268L62.4518 107.135L95.178 88.0912L95.4065 87.9583L128.132 68.9148L128.361 68.7813L135.223 64.788C135.098 64.7137 134.974 64.6383 134.848 64.5655L128.169 68.452Z" fill="url(#paint15_linear)"/>
<path d="M124.334 61.8612L124.104 61.9947L91.3791 81.0382L91.1507 81.1711L58.4244 100.215L58.196 100.348L33.4688 114.737C33.5521 114.836 33.6336 114.936 33.7169 115.035L58.3882 100.678L58.6166 100.545L91.3428 81.5014L91.5713 81.3684L124.297 62.325L124.526 62.1915L127.376 60.5328C127.24 60.4649 127.104 60.3964 126.968 60.3285L124.334 61.8612Z" fill="url(#paint16_linear)"/>
<path d="M168.19 102.511L153.099 111.293L152.869 111.426L120.144 130.47L119.916 130.603L92.1592 146.755C92.2554 146.846 92.3515 146.938 92.4462 147.029L120.107 130.932L120.336 130.799L153.061 111.756L153.29 111.622L168.338 102.866C168.289 102.748 168.24 102.629 168.19 102.511Z" fill="url(#paint17_linear)"/>
<path d="M149.263 104.702L149.034 104.835L116.309 123.879L116.08 124.012L86.4521 141.253C86.5474 141.345 86.6427 141.437 86.7379 141.529L116.272 124.342L116.501 124.209L149.226 105.166L149.456 105.032L165.096 95.9309C165.036 95.8182 164.977 95.7054 164.917 95.5926L149.263 104.702Z" fill="url(#paint18_linear)"/>
<path d="M145.428 98.1113L145.199 98.2448L112.473 117.288L112.245 117.421L80.6875 135.785C80.7855 135.875 80.8826 135.966 80.9806 136.057L112.437 117.751L112.666 117.619L145.391 98.5751L145.62 98.4416L161.215 89.367C161.145 89.2601 161.076 89.1527 161.006 89.0463L145.428 98.1113Z" fill="url(#paint19_linear)"/>
<path d="M141.593 91.5205L141.364 91.654L108.638 110.697L108.41 110.83L75.6835 129.874L75.4551 130.007L74.6523 130.474C74.7559 130.562 74.8594 130.649 74.9629 130.736L75.6473 130.338L75.8757 130.205L108.602 111.161L108.83 111.028L141.556 91.9843L141.785 91.8508L156.695 83.1744C156.614 83.074 156.536 82.9724 156.453 82.873L141.593 91.5205Z" fill="url(#paint20_linear)"/>
<path d="M137.758 84.9298L137.528 85.0633L104.803 104.107L104.575 104.24L71.8484 123.284L71.62 123.417L68.1338 125.445C68.2469 125.526 68.3582 125.609 68.4713 125.69L71.8116 123.746L72.0401 123.613L104.766 104.569L104.995 104.436L137.72 85.3926L137.949 85.2592L151.509 77.3687C151.416 77.2751 151.321 77.1832 151.228 77.0911L137.758 84.9298Z" fill="url(#paint21_linear)"/>
<path d="M151.181 107.998L150.951 108.131L118.226 127.174L117.998 127.307L89.2998 144.007C89.3951 144.099 89.4903 144.191 89.5856 144.283L118.19 127.638L118.418 127.505L151.144 108.461L151.373 108.328L166.798 99.352C166.744 99.236 166.689 99.1206 166.635 99.0046L151.181 107.998Z" fill="url(#paint22_linear)"/>
<path d="M147.346 101.407L147.117 101.54L114.391 120.584L114.163 120.717L83.5908 138.507C83.687 138.598 83.7836 138.688 83.8803 138.781L114.355 121.047L114.584 120.914L147.309 101.87L147.538 101.737L163.235 92.6026C163.17 92.493 163.106 92.3829 163.041 92.2734L147.346 101.407Z" fill="url(#paint23_linear)"/>
<path d="M143.511 94.8159L143.281 94.9494L110.556 113.993L110.327 114.126L77.7178 133.102C77.8185 133.191 77.9206 133.277 78.0219 133.367L110.52 114.456L110.748 114.323L143.473 95.2796L143.703 95.1462L159.036 86.2237C158.961 86.12 158.887 86.0153 158.81 85.9127L143.511 94.8159Z" fill="url(#paint24_linear)"/>
<path d="M139.675 88.2253L139.446 88.3588L106.72 107.402L106.492 107.535L73.7658 126.579L73.5374 126.712L71.4658 127.918C71.5739 128.002 71.6852 128.083 71.7938 128.169L73.7296 127.042L73.958 126.909L106.684 107.865L106.913 107.732L139.638 88.689L139.867 88.5556L154.189 80.2214C154.102 80.1247 154.015 80.0279 153.927 79.9317L139.675 88.2253Z" fill="url(#paint25_linear)"/>
<path d="M135.84 81.6345L135.611 81.7679L102.886 100.811L102.657 100.944L69.9309 119.988L69.7025 120.121L64.6025 123.089C64.7244 123.165 64.8448 123.242 64.9658 123.319L69.8941 120.451L70.1226 120.318L102.849 101.274L103.077 101.141L135.803 82.0973L136.032 81.9638L148.647 74.6227C148.548 74.5329 148.449 74.4445 148.349 74.3552L135.84 81.6345Z" fill="url(#paint26_linear)"/>
<path d="M168.44 137.657L168.211 137.79L135.486 156.834L135.257 156.967L118.749 166.573C118.891 166.638 119.032 166.703 119.174 166.767L135.448 157.296L135.676 157.164L168.402 138.12L168.631 137.987L173.752 135.007C173.765 134.853 173.772 134.7 173.784 134.547L168.44 137.657Z" fill="url(#paint27_linear)"/>
<path d="M164.605 131.066L164.376 131.199L131.651 150.243L131.422 150.376L110.979 162.272C111.098 162.349 111.215 162.431 111.334 162.506L131.614 150.705L131.842 150.572L164.568 131.529L164.797 131.395L173.811 126.15C173.801 126.009 173.789 125.868 173.779 125.728L164.605 131.066Z" fill="url(#paint28_linear)"/>
<path d="M160.77 124.475L160.54 124.609L127.815 143.652L127.587 143.785L104.192 157.399C104.3 157.484 104.406 157.569 104.513 157.653L127.777 144.115L128.006 143.982L160.731 124.939L160.96 124.805L172.773 117.931C172.749 117.798 172.727 117.664 172.703 117.531L160.77 124.475Z" fill="url(#paint29_linear)"/>
<path d="M156.934 117.884L156.705 118.017L123.98 137.06L123.751 137.193L98.0029 152.177C98.1028 152.266 98.2026 152.355 98.3019 152.444L123.943 137.523L124.171 137.39L156.897 118.346L157.126 118.213L170.918 110.187C170.88 110.062 170.84 109.939 170.803 109.813L156.934 117.884Z" fill="url(#paint30_linear)"/>
<path d="M170.358 140.952L170.128 141.086L137.403 160.129L137.175 160.262L123.205 168.391C123.363 168.448 123.523 168.5 123.68 168.555L137.366 160.591L137.595 160.458L170.32 141.415L170.549 141.281L173.134 139.778C173.163 139.614 173.191 139.451 173.218 139.288L170.358 140.952Z" fill="url(#paint31_linear)"/>
<path d="M166.523 134.361L166.294 134.495L133.568 153.538L133.34 153.671L114.695 164.521C114.825 164.592 114.957 164.662 115.087 164.734L133.531 154.001L133.759 153.868L166.485 134.825L166.714 134.691L173.942 130.485C173.943 130.337 173.947 130.189 173.946 130.042L166.523 134.361Z" fill="url(#paint32_linear)"/>
<path d="M162.688 127.771L162.458 127.904L129.733 146.948L129.505 147.081L107.491 159.891C107.605 159.972 107.72 160.051 107.833 160.132L129.696 147.41L129.925 147.277L162.65 128.233L162.879 128.1L173.404 121.976C173.386 121.839 173.37 121.702 173.352 121.565L162.688 127.771Z" fill="url(#paint33_linear)"/>
<path d="M158.852 121.18L158.623 121.313L125.897 140.357L125.669 140.49L101.034 154.825C101.138 154.912 101.243 154.997 101.347 155.084L125.86 140.819L126.089 140.686L158.814 121.643L159.044 121.509L171.942 114.003C171.911 113.874 171.879 113.747 171.847 113.618L158.852 121.18Z" fill="url(#paint34_linear)"/>
<path d="M155.017 114.589L154.788 114.723L122.062 133.766L121.834 133.899L95.0498 149.485C95.1478 149.575 95.2449 149.666 95.3429 149.757L122.027 134.229L122.255 134.096L154.981 115.052L155.21 114.919L169.715 106.478C169.672 106.356 169.627 106.235 169.583 106.113L155.017 114.589Z" fill="url(#paint35_linear)"/>
<path d="M172.093 144.354L172.046 144.381L139.321 163.424L139.092 163.557L128.191 169.901C128.371 169.945 128.552 169.986 128.732 170.028L139.284 163.888L139.513 163.755L171.94 144.885C171.992 144.707 172.043 144.531 172.093 144.354Z" fill="url(#paint36_linear)"/>
<path d="M142.928 170.148L141.171 171.17C141.462 171.152 141.753 171.13 142.044 171.105L143.12 170.478L143.348 170.345L166.007 157.16C166.185 156.911 166.363 156.663 166.536 156.41L143.156 170.015L142.928 170.148Z" fill="url(#paint37_linear)"/>
<path d="M141.01 166.854L133.962 170.955C134.173 170.98 134.383 171.008 134.593 171.029L141.202 167.183L141.431 167.05L169.858 150.508C169.947 150.312 170.029 150.114 170.115 149.917L141.239 166.721L141.01 166.854Z" fill="url(#paint38_linear)"/>
<path d="M47.4357 36.0277L34.5872 43.5045C34.0984 43.9203 33.617 44.3466 33.1467 44.7836L49.1823 35.4522C48.5957 35.6302 48.0133 35.8217 47.4357 36.0277Z" fill="url(#paint39_linear)"/>
<path d="M29.6213 51.2464L29.8497 51.1135L59.3971 33.9194C59.1426 33.9189 58.8875 33.9175 58.6339 33.9226L29.659 50.7836L29.4305 50.9166L26.5388 52.5993C26.3831 52.8361 26.2263 53.071 26.0754 53.3098L29.6213 51.2464Z" fill="url(#paint40_linear)"/>
<path d="M48.7979 84.2011L49.0264 84.0681L81.7526 65.0241L81.981 64.8912L105.771 51.0476C105.623 50.9861 105.476 50.924 105.33 50.862L81.7897 64.5604L81.5613 64.6933L48.8351 83.7373L48.6066 83.8702L23.5675 98.441C23.6159 98.5602 23.6662 98.6783 23.7156 98.7969L48.7979 84.2011Z" fill="url(#paint41_linear)"/>
<path d="M44.9628 77.6103L45.1912 77.4773L77.9174 58.4333L78.1459 58.3004L97.0466 47.3018C96.9036 47.2376 96.7607 47.1734 96.6177 47.1092L77.9546 57.9696L77.7262 58.1025L44.9999 77.1465L44.7715 77.2795L21.1387 91.0318C21.1716 91.16 21.2081 91.2861 21.241 91.4144L44.9628 77.6103Z" fill="url(#paint42_linear)"/>
<path d="M41.1276 71.0196L41.356 70.8867L74.0823 51.8427L74.3107 51.7098L88.6766 43.35C88.5392 43.2826 88.4026 43.2147 88.2657 43.1482L74.12 51.3799L73.8915 51.5128L41.1653 70.5568L40.9369 70.6897L19.7178 83.0374C19.7324 83.1764 19.7436 83.316 19.759 83.4544L41.1276 71.0196Z" fill="url(#paint43_linear)"/>
<path d="M37.2929 64.4287L37.5214 64.2958L70.2476 45.2518L70.4761 45.1189L80.3613 39.3665C80.2192 39.3018 80.0772 39.2371 79.9357 39.1733L70.2844 44.7895L70.056 44.9225L37.3297 63.9664L37.1013 64.0994L19.5318 74.3234C19.5219 74.4753 19.5126 74.6281 19.5042 74.7803L37.2929 64.4287Z" fill="url(#paint44_linear)"/>
<path d="M33.4563 57.8371L33.6847 57.7042L66.4109 38.6602L66.6394 38.5273L71.2485 35.8451C71.0812 35.7939 70.9127 35.7471 70.744 35.6978L66.4477 38.1979L66.2193 38.3309L33.4931 57.3748L33.2646 57.5078L21.1593 64.5521C21.1103 64.7255 21.0657 64.9 21.0188 65.0747L33.4563 57.8371Z" fill="url(#paint45_linear)"/>
<path d="M46.881 80.9057L47.1095 80.7728L79.8357 61.7288L80.0641 61.5958L101.378 49.1931C101.232 49.1305 101.085 49.0685 100.941 49.0054L79.8729 61.265L79.6444 61.398L46.9182 80.442L46.6898 80.5749L22.2405 94.8024C22.2807 94.9263 22.3195 95.0499 22.3611 95.1743L46.881 80.9057Z" fill="url(#paint46_linear)"/>
<path d="M43.0458 74.3149L43.2742 74.182L76.0004 55.138L76.2289 55.005L92.8112 45.3555C92.6719 45.2892 92.5336 45.2223 92.3952 45.1555L76.0376 54.6742L75.8091 54.8072L43.0829 73.8512L42.8545 73.9841L20.2951 87.1118C20.3197 87.2448 20.3438 87.377 20.3689 87.5109L43.0458 74.3149Z" fill="url(#paint47_linear)"/>
<path d="M39.2102 67.7242L39.4386 67.5913L72.1648 48.5473L72.3933 48.4144L84.5583 41.3354C84.4199 41.2685 84.2815 41.2017 84.1437 41.1357L72.2025 48.0845L71.9741 48.2174L39.2478 67.2614L39.0194 67.3943L19.4453 78.7849C19.4488 78.9302 19.4509 79.0751 19.4553 79.2199L39.2102 67.7242Z" fill="url(#paint48_linear)"/>
<path d="M35.3749 61.1334L35.6033 61.0005L68.3295 41.9565L68.558 41.8236L75.9781 37.5057C75.8269 37.4463 75.6769 37.385 75.5268 37.3274L68.3663 41.4942L68.1379 41.6272L35.4116 60.6711L35.1832 60.8041L20.0595 69.6048C20.0337 69.7672 20.0031 69.9299 19.9778 70.0933L35.3749 61.1334Z" fill="url(#paint49_linear)"/>
<path d="M31.5397 54.5427L31.7681 54.4098L64.4943 35.3658L64.7228 35.2329L65.9228 34.5346C65.7279 34.4994 65.5326 34.4656 65.3385 34.4337L64.5311 34.9035L64.3027 35.0365L31.5765 54.0805L31.348 54.2134L23.094 59.0166C23.0116 59.2106 22.9293 59.4047 22.8499 59.5995L31.5397 54.5427Z" fill="url(#paint50_linear)"/>
<path d="M54.2456 125.146L54.0145 124.839L48.2861 128.173C48.4016 128.253 48.5183 128.331 48.6347 128.411L54.2456 125.146Z" fill="url(#paint51_linear)"/>
<path d="M49.6104 119.02L49.3784 118.714L41.7812 123.135C41.8829 123.223 41.9837 123.312 42.0857 123.399L49.6104 119.02Z" fill="url(#paint52_linear)"/>
<path d="M52.6341 90.7918L52.8625 90.6588L85.5888 71.6148L85.8172 71.4819L114.597 54.7346C114.45 54.6726 114.304 54.61 114.158 54.5479L85.6259 71.1511L85.3975 71.284L52.6713 90.328L52.4428 90.461L26.9028 105.323C26.9659 105.434 27.0309 105.543 27.0949 105.653L52.6341 90.7918Z" fill="url(#paint53_linear)"/>
<path d="M51.9281 122.082L51.6961 121.777L44.9365 125.71C45.0455 125.794 45.154 125.877 45.263 125.961L51.9281 122.082Z" fill="url(#paint54_linear)"/>
<path d="M39.1062 120.721L47.2923 115.958L47.0612 115.651L38.8154 120.45C38.9111 120.54 39.01 120.63 39.1062 120.721Z" fill="url(#paint55_linear)"/>
<path d="M54.5515 94.0881L54.7799 93.9551L87.5062 74.9112L87.7346 74.7782L118.954 56.6114C118.81 56.5477 118.665 56.4846 118.52 56.4215L87.5433 74.4474L87.3149 74.5803L54.5887 93.6243L54.3602 93.7573L28.8936 108.577C28.9631 108.684 29.0309 108.792 29.1013 108.898L54.5515 94.0881Z" fill="url(#paint56_linear)"/>
<path d="M25.2928 102.292L50.7173 87.4969L50.9457 87.3639L83.6719 68.3199L83.9004 68.187L110.192 52.8875C110.044 52.826 109.897 52.7645 109.749 52.703L83.7082 67.8567L83.4797 67.9897L50.7535 87.0337L50.5251 87.1666L25.1263 101.947C25.1821 102.061 25.2361 102.177 25.2928 102.292Z" fill="url(#paint57_linear)"/>
<path d="M58.8803 131.271L58.6483 130.965L55.6016 132.738C55.7308 132.81 55.859 132.883 55.9886 132.953L58.8803 131.271Z" fill="url(#paint58_linear)"/>
<path d="M61.1972 134.334L60.9646 134.027L59.583 134.831C59.7195 134.899 59.8552 134.967 59.9917 135.035L61.1972 134.334Z" fill="url(#paint59_linear)"/>
<path d="M51.8389 130.516C51.9607 130.593 52.083 130.668 52.2058 130.743L56.5626 128.208L56.3306 127.902L51.8389 130.516Z" fill="url(#paint60_linear)"/>
</g>
<path d="M71.792 115.571C71.792 115.571 75.8647 116.41 77.2538 116.97C78.6429 117.53 79.2427 117.918 79.148 118.13C79.0533 118.342 73.3706 118.13 72.455 118.13C71.5395 118.13 69.9609 117.026 69.9609 117.026L71.792 115.571Z" fill="#F6CAAD"/>
<path d="M56.5619 80.3832C59.7601 79.4408 62.3852 83.6304 63.0797 89.173C63.7743 94.7157 64.1253 99.9784 64.739 101.546C65.3528 103.114 72.5089 115.253 72.5089 115.253L69.436 117.894C69.436 117.894 61.2486 111.12 56.8287 102.778C52.4088 94.4357 51.812 81.7828 56.5619 80.3832Z" fill="#650202"/>
<path d="M42.3988 113.129C41.1453 113.129 34.6015 121.239 33.0399 123.019C31.4783 124.799 29.3218 127.464 28.8757 130.827C28.4295 134.19 28.95 135.754 26.9423 137.299C24.9345 138.843 23.8935 141.942 24.7858 144.316C25.6781 146.69 29.1484 151.454 29.1484 151.454C29.1484 151.454 32.7425 151.503 34.8246 148.536C36.9067 145.569 35.0848 142.139 37.4644 139.963C39.844 137.787 42.2525 134.755 41.5833 129.217C40.914 123.678 41.0709 121.148 41.294 119.05C41.5171 116.953 42.3988 113.129 42.3988 113.129Z" fill="#72A797"/>
<path d="M28.9372 153.044L28.8125 153.027C28.827 152.945 30.2699 144.771 30.9314 139.144C31.2724 136.242 32.5998 134.118 33.8835 132.064C35.1502 130.037 36.3466 128.122 36.6199 125.554C37.1725 120.363 41.4842 113.611 41.5277 113.543L41.6374 113.599C41.594 113.666 37.2957 120.398 36.7457 125.565C36.4699 128.156 35.2672 130.081 33.9939 132.118C32.7164 134.163 31.3954 136.277 31.057 139.156C30.3952 144.786 28.9518 152.962 28.9372 153.044Z" fill="#1B1C17"/>
<path d="M69.519 67.7863L70.2767 66.9465C70.2767 66.9465 74.8229 66.2466 75.0123 62.4956C75.2017 58.7445 69.2348 58.4646 66.8355 59.9202C64.4361 61.3758 63.3942 59.0244 60.3319 60.0602C57.2695 61.0959 58.2794 64.2031 58.2794 64.2031C58.2794 64.2031 55.8804 64.4551 55.0911 66.2466C54.3019 68.0382 56.5434 70.8375 57.4905 71.5373C58.4376 72.2372 58.5955 73.6648 59.4479 74.0007C60.3003 74.3366 69.519 67.7863 69.519 67.7863Z" fill="#1B1C17"/>
<path d="M67.5128 163.379C67.5128 163.379 67.161 166.466 67.5128 168.097H71.1322C71.1322 168.097 71.5846 166.846 72.4391 167.256C73.2937 167.665 74.2991 168.097 76.6617 168.097H82.895C82.895 168.097 83.711 168.215 83.2779 167.256C82.8447 166.296 77.3152 164.818 73.8969 163.379H67.5128Z" fill="#3B3C3A"/>
<path d="M67.8638 160.668L67.5137 163.379H73.7414L74.1464 160.863L67.8638 160.668Z" fill="#F6CAAD"/>
<path d="M75.3292 161.775H66.6157C66.6157 161.775 65.2265 142.416 64.7391 141.296C64.4284 140.583 61.1274 135.241 58.7697 131.453C57.4248 129.291 56.3867 127.636 56.3867 127.636L63.456 115.814L64.7214 113.699C64.7214 113.699 65.0611 114.37 65.6256 115.499C68.2776 120.811 75.8861 136.241 76.3394 139.393C76.8888 143.214 75.3292 161.775 75.3292 161.775Z" fill="#B4895C"/>
<path d="M43.2824 163.379C43.2824 163.379 42.9305 166.466 43.2824 168.097H46.9017C46.9017 168.097 47.3541 166.846 48.2087 167.256C49.0632 167.665 50.0686 168.097 52.4312 168.097H58.6645C58.6645 168.097 59.4806 168.215 59.0474 167.256C58.6143 166.296 53.0847 164.818 49.6665 163.379H43.2824Z" fill="#3B3C3A"/>
<path d="M43.7898 160.668L43.2832 163.379H49.6673L50.0724 160.863L43.7898 160.668Z" fill="#F6CAAD"/>
<path d="M127.354 163.579L126.6 158.652L121.801 158.988L122.243 164.195L123.506 166.95L127.736 166.714L127.354 163.579Z" fill="#F6CAAD"/>
<path d="M127.567 160.183H121.122L118.739 153.393L114.125 140.246L113.76 139.206L116.033 135.522L119.588 136.15L124.2 136.966L124.434 138.589L127.567 160.183Z" fill="#B4895C"/>
<path d="M124.435 138.589C123.323 138.803 122.14 139.081 121.907 139.337C121.446 139.841 118.739 153.393 118.739 153.393L114.125 140.246L116.244 136.537L119.588 136.15L124.2 136.966L124.435 138.589Z" fill="#96734D"/>
<path d="M127.271 80.8844C126.745 81.9855 127.411 84.1957 129.506 84.4254C131.688 84.6648 136.532 88.1253 136.532 88.1253L142.657 98.2028L150.223 106.544C150.223 106.544 154.812 108.336 158.843 104.753C162.354 101.632 164.314 96.2433 156.422 91.9323C154.407 90.8322 150.532 89.606 148.908 87.808C145.601 84.1478 144.282 80.4033 140.112 78.4957C137.542 77.32 129.464 76.2965 127.271 80.8844Z" fill="#1B1C17"/>
<path d="M143.983 97.2139L137.732 99.1544L136.342 94.9195L135.648 92.81L137.714 89.2515H137.716L138.553 87.8082L143.983 97.2139Z" fill="#F6CAAD"/>
<path d="M134.893 104.165C134.893 104.165 130.515 108.451 129.505 108.6C128.494 108.75 117.213 103.823 116.371 103.524C115.529 103.226 108.478 101.546 107.721 101.546C106.963 101.546 107.026 102.162 107.721 102.386C108.415 102.61 110.499 102.89 110.373 103.562C110.246 104.234 110.436 106.1 111.193 106.212C111.951 106.324 115.045 106.585 115.803 106.865C116.56 107.145 126.411 113.583 130.01 113.695C133.609 113.807 136.64 110.952 136.64 110.952L134.893 104.165Z" fill="#F6CAAD"/>
<path d="M136.008 102.254L132.282 106.256L134.145 107.721C134.145 107.721 136.513 104.121 136.639 103.897" fill="#A40000"/>
<path d="M109.583 163.579L110.901 158.652H105.552L104.079 163.579L102.605 167.46L106.753 166.341L109.583 163.579Z" fill="#F6CAAD"/>
<path opacity="0.68" d="M172.683 139.953H163.591V164.236H172.683V139.953Z" fill="#E2E8E6"/>
<path opacity="0.68" d="M172.683 136.874H163.591V138.273H172.683V136.874Z" fill="#E2E8E6"/>
<path opacity="0.68" d="M159.045 120.074H136.502V164.236H159.045V120.074Z" fill="#E2E8E6"/>
<path d="M151.924 131.654C150.157 135.328 142.29 136.017 120.778 138.157C120.499 138.182 120.234 138.278 120.014 138.431C119.793 138.585 119.626 138.79 119.531 139.024L111.152 160.183H104.248C104.248 160.183 107.952 137.34 109.299 134.589C110.456 132.226 129.489 126.208 134.846 124.553C135.728 124.281 136.239 124.128 136.239 124.128L152.332 129.427C152.356 130.277 152.233 131.012 151.924 131.654Z" fill="#CC9F66"/>
<path d="M107.297 160.211L107.053 160.154C107.07 160.094 108.845 154.043 110.694 148.009C114.448 135.764 114.841 135.522 114.988 135.431C115.8 134.93 139.365 128.682 140.368 128.416L140.44 128.631C131.959 130.878 115.756 135.23 115.133 135.614C114.533 136.091 110.118 150.585 107.297 160.211Z" fill="#96734D"/>
<path d="M151.923 131.654C141.65 130.835 136.265 126.021 134.846 124.553C135.727 124.281 136.239 124.128 136.239 124.128L152.331 129.427C152.355 130.277 152.232 131.012 151.923 131.654Z" fill="#B4895C"/>
<path d="M109.583 163.579C109.583 163.579 110.657 165.514 110.373 168.102H106.079C106.079 168.102 105.732 166.994 104.879 167.218C104.027 167.442 103.948 168.102 100.996 168.102H97.1445C97.1445 168.102 96.0711 167.862 96.3236 167.246C96.5762 166.63 103.037 164.368 103.68 163.579C104.5 162.571 106.71 163.103 105.921 164.195C104.85 165.676 106.679 165.594 107.247 164.754C107.815 163.915 109.583 163.579 109.583 163.579Z" fill="#3B3C3A"/>
<path d="M127.353 163.579C127.353 163.579 128.426 165.514 128.142 168.102H123.849C123.849 168.102 123.501 166.994 122.649 167.218C121.796 167.442 121.717 168.102 118.766 168.102H114.914C114.914 168.102 113.841 167.862 114.093 167.246C114.346 166.63 119.979 164.28 121.449 163.579C123.079 162.801 124.105 163.467 123.691 164.195C122.797 165.765 124.448 165.594 125.017 164.754C125.585 163.915 127.353 163.579 127.353 163.579Z" fill="#3B3C3A"/>
<path d="M152.993 129.895C152.993 129.895 151.414 130.267 145.542 129.035C139.67 127.804 135.13 124.466 135.13 124.466C135.982 123.552 136.072 121.617 135.85 119.552C135.621 117.422 135.06 115.153 134.664 113.731C134.42 112.852 134.239 112.295 134.239 112.295C130.64 109.832 137.397 98.075 137.397 98.075L141.69 95.7796C141.69 95.7796 144.721 94.7158 147.878 97.3472C151.035 99.9785 149.52 111.456 149.583 114.143C149.646 116.83 152.993 129.895 152.993 129.895Z" fill="url(#paint61_linear)"/>
<path d="M146.307 102.079C146.307 102.079 145.416 107.201 142.385 112.295C139.775 116.683 136.662 118.996 135.85 119.552C135.621 117.421 135.061 115.153 134.664 113.731L135.376 112.61L146.307 102.079Z" fill="#9F0606"/>
<path d="M135.313 107.257C135.313 107.257 132.787 111.12 132.156 111.344C131.525 111.568 116.434 115.767 115.36 115.99C114.287 116.214 110.52 115.468 109.467 115.58C108.415 115.692 106.142 117.334 105.889 117.782C105.637 118.23 109.72 117.334 110.099 117.371C110.477 117.409 113.971 118.118 115.571 118.267C117.17 118.417 132.899 116.62 135.2 115.839C137.502 115.057 140.87 109.944 140.87 109.944L135.313 107.257Z" fill="#F6CAAD"/>
<path d="M134.459 107.816C135.241 108.074 135.949 108.482 136.533 109.011C137.459 109.869 141.5 111.773 141.5 111.773C141.5 111.773 144.994 106.074 145.71 104.165C146.425 102.255 147.215 99.7141 143.979 98.9504C140.743 98.1868 134.459 107.816 134.459 107.816Z" fill="#FF4F4F"/>
<path d="M138.969 88.5294C138.969 88.5294 139.563 91.2045 138.426 95.0862C137.29 98.9679 141.803 100.102 144.314 100.722C147.487 101.506 146.529 105.124 150.223 106.544L151.433 102.85L146.551 92.1357L138.969 88.5294Z" fill="#1B1C17"/>
<path d="M122.312 118.13H70.2578V120.136H122.312V118.13Z" fill="#1B1C17"/>
<path d="M115.06 121.249H77.5078V121.95H115.06V121.249Z" fill="#1B1C17"/>
<path d="M77.5079 119.944L72.2051 168.155H72.9626L81.7285 119.944H77.5079Z" fill="#1B1C17"/>
<path d="M115.06 119.944L120.363 168.155H119.606L110.84 119.944H115.06Z" fill="#1B1C17"/>
<path d="M64.7204 113.698C64.6258 114.377 64.4751 115.048 64.2695 115.707C63.2163 119.105 61.0582 121.249 61.0582 121.249L58.7687 131.453L51.9658 161.775H43.126C43.126 161.775 46.0305 130.547 45.9042 123.381C45.8474 120.14 46.4359 117.151 47.0976 114.848C47.1304 114.739 47.162 114.63 47.1935 114.523C47.9576 111.963 48.7822 110.331 48.8074 110.281L48.8087 110.28C48.8087 110.28 48.8984 110.274 49.0651 110.264C50.828 110.165 61.1667 109.685 64.0132 112.059C64.5423 112.5 64.8125 113.04 64.7204 113.698Z" fill="#CC9F66"/>
<path d="M53.7979 115.237L46.6094 161.761L46.8596 161.791L54.0481 115.267L53.7979 115.237Z" fill="#96734D"/>
<path d="M64.7204 113.698C64.6258 114.377 64.4751 115.048 64.2696 115.707C64.0056 115.743 63.7341 115.78 63.455 115.814C60.6137 116.165 57.1649 116.065 54.7441 115.571C52.5796 115.128 49.5981 114.932 47.0977 114.848C47.1305 114.739 47.1621 114.63 47.1936 114.523C47.9576 111.963 48.7823 110.331 48.8075 110.281L48.8088 110.28C48.8088 110.28 48.8984 110.274 49.0651 110.264C53.6378 110.81 60.9635 111.684 64.0132 112.059C64.5423 112.5 64.8126 113.04 64.7204 113.698Z" fill="#96734D"/>
<path d="M67.682 92.7664C67.605 95.2914 67.4282 98.7804 67.2312 102.258C66.8625 108.773 66.4205 115.244 66.4205 115.244C66.4205 115.244 57.27 115.394 53.9324 114.498C50.5947 113.602 45.3994 113.698 45.3994 113.698C45.3994 113.698 45.9891 111.661 47.8405 105.34C49.693 99.019 48.6828 95.2387 49.861 88.9683C51.0405 82.6978 56.8583 77.4542 56.8583 77.4542L63.2735 80.2501C63.2735 80.2501 67.5406 85.5341 67.7098 89.714C67.7363 90.3646 67.7225 91.4306 67.682 92.7664Z" fill="#FF4F4F"/>
<path d="M67.6821 92.7663C67.605 95.2913 67.4282 98.7803 67.2312 102.258C60.0217 99.0827 57.4746 87.8082 57.4746 87.8082L67.6821 92.7663Z" fill="#8E0808"/>
<path d="M61.0592 80.8311C61.0592 80.8311 64.2163 81.9508 68.3205 86.0378C72.4247 90.1248 72.6141 90.7407 73.4349 90.7407C74.2558 90.7407 81.3908 83.0146 81.3908 83.0146L85.3687 85.198C85.3687 85.198 80.5886 97.7872 72.5089 99.0722C64.4291 100.357 56.3867 86.0378 56.3867 86.0378L61.0592 80.8311Z" fill="#FF4F4F"/>
<path d="M65.3105 75.3446L64.3117 77.7498L63.2736 80.2501L56.8584 77.4542L60.3009 71.4256L60.9765 71.9541L65.3105 75.3446Z" fill="#F6CAAD"/>
<path d="M65.3101 75.3445L64.3112 77.7496C60.8662 76.6232 60.8662 72.4881 60.8662 72.4881L60.9761 71.9539L65.3101 75.3445Z" fill="#F0B48D"/>
<path d="M70.2765 66.9466C70.2765 66.9466 70.0303 76.0287 65.3094 76.0443C62.3839 76.054 60.3002 71.4251 60.3002 71.4251C60.3002 71.4251 58.2481 71.1455 58.2797 69.4099C58.3112 67.6744 60.5843 68.7661 60.5843 68.7661C60.5843 68.7661 61.4683 69.8019 62.226 68.5981C62.9837 67.3944 62.8776 65.9668 62.8776 65.9668C62.8776 65.9668 66.2986 67.8983 70.2765 66.9466Z" fill="#F6CAAD"/>
<path d="M81.5381 83.4066C81.5381 83.4066 81.8748 80.9992 82.8641 80.0847C83.8533 79.1703 85.516 76.9122 85.7054 77.0988C85.8948 77.2854 86.1685 77.3228 85.1371 79.6182C85.1371 79.6182 86.5473 78.4238 87.2419 77.8266C87.9364 77.2295 88.8204 75.8671 89.4097 75.6245C89.999 75.3819 90.1253 77.752 89.536 79.0583C88.9467 80.3647 84.9026 84.3096 84.7463 84.8565C84.5899 85.4034 81.5381 83.4066 81.5381 83.4066Z" fill="#F6CAAD"/>
<path d="M99.2969 62.8281H126.277V73.4949H121.826V80.022L116.829 73.4949H99.2969V62.8281Z" fill="url(#paint62_linear)"/>
<path d="M121.952 80.3863L116.761 73.6069H99.1699V62.7163H126.403V73.6069H121.952V80.3863ZM99.4225 73.383H116.895L121.699 79.6578V73.383H126.15V62.9403H99.4225V73.383Z" fill="#1B1C17"/>
<path opacity="0.59" d="M122.196 65.0181H103.477V65.6678H122.196V65.0181Z" fill="#74AEAF"/>
<path opacity="0.59" d="M122.196 67.7354H103.477V68.3851H122.196V67.7354Z" fill="#74AEAF"/>
<path opacity="0.59" d="M122.196 70.3196H103.477V70.9694H122.196V70.3196Z" fill="#74AEAF"/>
<path opacity="0.59" d="M108.856 56.7957H80.0215V67.1313H85.3719V73.2407L91.3791 67.1313H108.856V56.7957Z" fill="#74AEAF"/>
<path d="M0.543758 122.699C0.283776 122.669 2.84895 129.217 4.11309 131.459C5.37723 133.7 5.56313 137.128 7.79397 139.963C10.0248 142.798 13.0364 145.371 16.0109 146.03C18.9853 146.689 20.0264 148.536 22.9265 149.92C25.8266 151.305 29.2472 151.898 29.2472 151.898C29.2472 151.898 27.2394 142.536 25.0829 140.36C22.9265 138.184 22.0713 136.425 19.3943 134.151C17.1803 132.27 14.8955 131.788 12.5159 129.876C10.1363 127.964 7.53371 123.5 0.543758 122.699Z" fill="#74AEAF"/>
<path d="M29.6541 152.777C29.619 152.705 26.0852 145.502 20.5395 143.262C16.2182 141.517 14.6091 138.82 12.746 135.696C12.1554 134.706 11.5447 133.682 10.8076 132.608C7.72525 128.119 0.804876 122.823 0.735352 122.77L0.817613 122.685C0.88732 122.738 7.82284 128.045 10.9154 132.55C11.6545 133.627 12.2661 134.652 12.8576 135.644C14.7863 138.877 16.3097 141.431 20.5918 143.16C26.1823 145.418 29.7349 152.66 29.7701 152.733L29.6541 152.777Z" fill="#1B1C17"/>
<path d="M34.1761 168.102H25.9908L23.9893 150.926H36.1776L34.1761 168.102Z" fill="white"/>
<path opacity="0.68" d="M34.1761 168.102H25.9908L23.9893 150.926H36.1776L34.1761 168.102Z" fill="#E2E8E6"/>
<path d="M102.209 117.304H80.2782C79.884 117.304 79.4668 117.021 79.3463 116.671L74.5934 102.887C74.4729 102.537 74.6947 102.254 75.0888 102.254H97.0193C97.4134 102.254 97.8306 102.537 97.9511 102.887L102.704 116.671C102.825 117.021 102.603 117.304 102.209 117.304Z" fill="#4F8D88"/>
<path d="M101.892 116.613H80.1169L75.4043 102.945H97.1799L101.892 116.613Z" fill="url(#paint63_linear)"/>
<path opacity="0.26" d="M94.3419 115.562H99.9085L96.178 104.743H90.6113L94.3419 115.562Z" fill="#FF4F4F"/>
<path d="M82.5399 109.027C81.362 109.389 79.7533 108.746 78.9466 107.591C78.1399 106.436 78.4409 105.206 79.6187 104.844C79.7927 104.791 79.9739 104.759 80.1575 104.748C80.8564 104.704 81.6306 104.94 82.2782 105.375C82.6494 105.623 82.966 105.93 83.2121 106.28C83.5571 106.774 83.6995 107.282 83.6572 107.729C83.6401 107.929 83.5806 108.124 83.4819 108.305C83.3868 108.475 83.2546 108.626 83.0928 108.75C82.9311 108.874 82.7431 108.968 82.5399 109.027Z" fill="#FF4F4F"/>
<path d="M83.2128 106.28L80.9657 106.97L80.1582 104.748C81.2492 104.68 82.5237 105.293 83.2128 106.28Z" fill="#DAE5E1"/>
<path d="M90.1395 106.936C90.2366 107.204 90.2713 107.488 90.2418 107.769C90.1465 108.566 89.4556 109.127 88.423 109.127C87.0576 109.127 85.613 108.146 85.1957 106.936C84.7783 105.725 85.5461 104.743 86.9115 104.743C87.7657 104.743 88.6518 105.128 89.2969 105.712C89.6837 106.055 89.9725 106.474 90.1395 106.936Z" fill="#FF4F4F"/>
<path d="M90.1402 106.936C90.2372 107.204 90.272 107.488 90.2424 107.769L87.6679 106.936L86.9121 104.743C87.7663 104.743 88.6524 105.128 89.2975 105.712C89.6843 106.055 89.9732 106.474 90.1402 106.936Z" fill="#DAE5E1"/>
<path opacity="0.59" d="M93.1138 115.562H81.5816L79.9551 110.845H91.4873L93.1138 115.562Z" fill="#FF4F4F"/>
<g opacity="0.59">
<path opacity="0.59" d="M91.6831 114.797H82.4855L82.4209 114.609H91.6184L91.6831 114.797Z" fill="#74AEAF"/>
<path opacity="0.59" d="M91.3384 113.797H82.1408L82.0762 113.61H91.2737L91.3384 113.797Z" fill="#74AEAF"/>
<path opacity="0.59" d="M90.9936 112.798H81.7961L81.7314 112.61H90.929L90.9936 112.798Z" fill="#74AEAF"/>
<path opacity="0.59" d="M90.6489 111.798H81.4514L81.3867 111.61H90.5842L90.6489 111.798Z" fill="#74AEAF"/>
</g>
<g opacity="0.51">
<path opacity="0.51" d="M96.8025 108.814H92.8429L92.7783 108.627H96.7379L96.8025 108.814Z" fill="#74AEAF"/>
</g>
<g opacity="0.51">
<path opacity="0.51" d="M96.458 107.815H92.4982L92.4336 107.627H96.3934L96.458 107.815Z" fill="#74AEAF"/>
</g>
<g opacity="0.51">
<path opacity="0.51" d="M96.1132 106.815H92.1535L92.0889 106.628H96.0486L96.1132 106.815Z" fill="#74AEAF"/>
</g>
<g opacity="0.51">
<path opacity="0.51" d="M95.7685 105.815H91.8087L91.7441 105.628H95.7038L95.7685 105.815Z" fill="#74AEAF"/>
</g>
<g opacity="0.51">
<path opacity="0.51" d="M98.1758 112.797H94.216L94.1514 112.61H98.1111L98.1758 112.797Z" fill="#74AEAF"/>
</g>
<g opacity="0.51">
<path opacity="0.51" d="M97.831 111.798H93.8713L93.8066 111.61H97.7663L97.831 111.798Z" fill="#74AEAF"/>
</g>
<g opacity="0.51">
<path opacity="0.51" d="M97.4863 110.798H93.5266L93.4619 110.611H97.4217L97.4863 110.798Z" fill="#74AEAF"/>
</g>
<g opacity="0.51">
<path opacity="0.51" d="M98.8328 114.703H94.8732L94.8086 114.516H98.7682L98.8328 114.703Z" fill="#74AEAF"/>
</g>
<g opacity="0.51">
<path opacity="0.51" d="M98.4882 113.703H94.5285L94.4639 113.516H98.4236L98.4882 113.703Z" fill="#74AEAF"/>
</g>
<g opacity="0.51">
<path opacity="0.51" d="M97.1415 109.798H93.1818L93.1172 109.611H97.0769L97.1415 109.798Z" fill="#74AEAF"/>
</g>
<path d="M112.039 118.061H79.8919C79.7693 118.061 79.6517 118.018 79.5651 117.941C79.4784 117.864 79.4297 117.76 79.4297 117.652C79.4297 117.543 79.4784 117.439 79.5651 117.362C79.6517 117.285 79.7693 117.242 79.8919 117.242H112.039C112.099 117.242 112.16 117.252 112.216 117.273C112.272 117.294 112.323 117.324 112.366 117.362C112.408 117.4 112.443 117.445 112.466 117.495C112.489 117.544 112.501 117.598 112.501 117.652C112.501 117.76 112.452 117.864 112.366 117.941C112.279 118.018 112.161 118.061 112.039 118.061Z" fill="#4F8D88"/>
<path d="M148.543 134.589V134.253C154.172 134.253 158.751 130.192 158.751 125.202H159.13C159.13 130.378 154.38 134.589 148.543 134.589Z" fill="#070C0A"/>
<path d="M152.331 137.587C152.331 138.478 151.931 139.332 151.221 139.961C150.511 140.591 149.548 140.945 148.544 140.946H128.486C127.592 140.945 126.727 140.665 126.044 140.153C125.36 139.642 124.903 138.933 124.752 138.151C124.716 137.965 124.698 137.776 124.698 137.587C124.699 136.697 125.098 135.843 125.809 135.213C126.519 134.584 127.482 134.23 128.486 134.229H148.544C149.548 134.23 150.511 134.584 151.221 135.214C151.931 135.843 152.33 136.697 152.331 137.587Z" fill="#6FACA7"/>
<path d="M162.296 104.165H162.296C163.3 104.165 164.264 104.519 164.974 105.149C165.684 105.778 166.083 106.633 166.083 107.523V125.307C166.083 126.198 165.684 127.052 164.974 127.682C164.264 128.312 163.3 128.666 162.296 128.666C161.291 128.666 160.328 128.312 159.617 127.682C158.907 127.052 158.508 126.198 158.508 125.307V107.523C158.508 107.082 158.606 106.646 158.796 106.238C158.986 105.831 159.265 105.46 159.617 105.149C159.969 104.837 160.386 104.589 160.846 104.421C161.306 104.252 161.798 104.165 162.296 104.165Z" fill="#6FACA7"/>
<path d="M147.461 140.946H146.054V164.455H147.461V140.946Z" fill="#1B1C17"/>
<path d="M147.461 164.455H132.671V165.703H147.461V164.455Z" fill="#1B1C17"/>
<path d="M148.824 140.946H144.691V146.895H148.824V140.946Z" fill="#1B1C17"/>
<path d="M133.589 167.764C134.096 167.315 134.096 166.586 133.589 166.136C133.082 165.686 132.259 165.686 131.752 166.136C131.245 166.586 131.245 167.315 131.752 167.764C132.259 168.214 133.082 168.214 133.589 167.764Z" fill="#1B1C17"/>
<path d="M148.38 167.764C148.887 167.315 148.887 166.586 148.38 166.136C147.873 165.686 147.05 165.686 146.543 166.136C146.036 166.586 146.036 167.315 146.543 167.764C147.05 168.214 147.873 168.214 148.38 167.764Z" fill="#1B1C17"/>
<path d="M152.331 137.588C152.33 138.478 151.931 139.332 151.221 139.961C150.511 140.591 149.548 140.945 148.543 140.946H128.486C127.591 140.946 126.726 140.665 126.043 140.154C125.36 139.642 124.903 138.933 124.752 138.152C125.739 138.497 139.996 143.31 151.528 135.523C152.05 136.111 152.333 136.839 152.331 137.588Z" fill="#4F8D88"/>
<path d="M136.342 94.9195L135.648 92.8099L137.714 89.2515H137.716C138.025 89.116 138.207 89.0364 138.207 89.0364C138.207 89.0364 138.584 93.2198 136.342 94.9195Z" fill="#F0B48D"/>
<path d="M129.505 84.4256C129.505 84.4256 129.068 88.3376 131.615 91.6908C134.162 95.044 137.102 92.7745 138.205 89.0371C138.205 89.0371 140.047 88.1423 140.11 86.5127C140.173 84.883 137.753 84.8155 137.375 86.059C137.375 86.059 136.588 86.5502 136.341 85.9195C136.093 85.2888 136.419 84.3509 134.36 84.6218C132.302 84.8926 129.505 84.4256 129.505 84.4256Z" fill="#F6CAAD"/>
<path d="M2.54718 144.05C1.9794 144.395 6.67242 145.925 9.28228 146.522C11.8921 147.119 11.8921 148.761 16.0174 149.956C20.1426 151.15 20.0584 149.956 22.5841 150.926C25.1097 151.896 28.8088 150.926 28.8088 150.926C28.8088 150.926 23.426 144.954 21.2371 144.432C19.0482 143.909 17.0276 144.563 12.4814 144.05C7.93526 143.536 3.05232 143.742 2.54718 144.05Z" fill="#4F8D88"/>
<path d="M28.7723 150.971C24.3978 148.16 21.2627 147.534 18.2309 146.929C16.5069 146.585 14.8785 146.26 13.1084 145.546C8.32066 143.617 2.82612 144.417 2.77128 144.425L2.75 144.315C2.80537 144.307 8.33692 143.5 13.1606 145.444C14.9189 146.153 16.5411 146.477 18.2586 146.82C21.3029 147.427 24.4509 148.056 28.8464 150.881L28.7723 150.971Z" fill="#1B1C17"/>
<path opacity="0.59" d="M31.04 150.926C31.04 150.926 33.4815 145.505 38.5328 144.857C43.5841 144.208 47.3272 146.872 52.7801 147.257C58.233 147.641 61.3673 152.12 62.41 154.658C62.41 154.658 59.9372 154.285 58.7063 155.032C57.4753 155.778 56.3808 156.151 51.3295 155.629C46.2782 155.106 43.6883 155.321 40.5534 153.389C35.7599 150.436 31.04 150.926 31.04 150.926Z" fill="#74AEAF"/>
<path d="M61.9254 154.32C61.8729 154.264 56.6187 148.637 52.0087 148.966C47.3242 149.301 45.1227 148.693 43.1803 148.156C41.6911 147.745 40.4051 147.39 38.3034 147.603C33.5924 148.079 31.1155 150.931 31.0911 150.959L30.9902 150.892C31.015 150.863 33.5223 147.974 38.2891 147.491C40.4172 147.276 41.715 147.634 43.2179 148.05C45.1493 148.583 47.3385 149.188 51.9985 148.855C56.6759 148.516 61.9702 154.192 62.0232 154.25L61.9254 154.32Z" fill="#1B1C17"/>
<path d="M61.059 121.249L64.7389 141.296L58.7695 131.453L61.059 121.249Z" fill="#96734D"/>
<path d="M57.6634 76.0443L63.2736 80.2499L56.8584 77.454L57.6634 76.0443Z" fill="#BDC7C3"/>
<path d="M154.551 89.8946C149.974 88.4835 148.287 86.4998 146.333 84.2029C145.604 83.3448 144.849 82.4573 143.89 81.5351C140.441 78.2177 136.987 78.4758 136.952 78.4791L136.927 78.2563C136.962 78.2531 140.536 77.9787 144.076 81.3833C145.043 82.3136 145.802 83.2056 146.535 84.0681C148.464 86.3359 150.129 88.2943 154.634 89.6831L154.551 89.8946Z" fill="#1B1C17"/>
<path d="M54.3946 66.2869L54.168 66.1881C54.1819 66.163 55.5906 63.6917 58.5544 64.149L58.5112 64.3696C55.7322 63.9411 54.4076 66.2634 54.3946 66.2869Z" fill="#1B1C17"/>
<path d="M172.809 129.916H172.557V132.629H172.809V129.916Z" fill="#1B1C17"/>
<path d="M174.212 131.16H171.153V131.385H174.212V131.16Z" fill="#1B1C17"/>
<defs>
<filter id="filter0_d" x="5.7998" y="20.4482" width="191.641" height="171.279" filterUnits="userSpaceOnUse" color-interpolation-filters="sRGB">
<feFlood flood-opacity="0" result="BackgroundImageFix"/>
<feColorMatrix in="SourceAlpha" type="matrix" values="0 0 0 0 0 0 0 0 0 0 0 0 0 0 0 0 0 0 127 0" result="hardAlpha"/>
<feOffset dx="8" dy="8"/>
<feGaussianBlur stdDeviation="7"/>
<feColorMatrix type="matrix" values="0 0 0 0 0 0 0 0 0 0 0 0 0 0 0 0 0 0 0.25 0"/>
<feBlend mode="normal" in2="BackgroundImageFix" result="effect1_dropShadow"/>
<feBlend mode="normal" in="SourceGraphic" in2="effect1_dropShadow" result="shape"/>
</filter>
<filter id="filter1_d" x="12.8721" y="93.1592" width="49.9148" height="64.6996" filterUnits="userSpaceOnUse" color-interpolation-filters="sRGB">
<feFlood flood-opacity="0" result="BackgroundImageFix"/>
<feColorMatrix in="SourceAlpha" type="matrix" values="0 0 0 0 0 0 0 0 0 0 0 0 0 0 0 0 0 0 127 0" result="hardAlpha"/>
<feOffset dx="8" dy="8"/>
<feGaussianBlur stdDeviation="7"/>
<feColorMatrix type="matrix" values="0 0 0 0 0 0 0 0 0 0 0 0 0 0 0 0 0 0 0.25 0"/>
<feBlend mode="normal" in2="BackgroundImageFix" result="effect1_dropShadow"/>
<feBlend mode="normal" in="SourceGraphic" in2="effect1_dropShadow" result="shape"/>
</filter>
<filter id="filter2_d" x="32.2041" y="32.4673" width="38.9667" height="39.7358" filterUnits="userSpaceOnUse" color-interpolation-filters="sRGB">
<feFlood flood-opacity="0" result="BackgroundImageFix"/>
<feColorMatrix in="SourceAlpha" type="matrix" values="0 0 0 0 0 0 0 0 0 0 0 0 0 0 0 0 0 0 127 0" result="hardAlpha"/>
<feOffset dx="8" dy="8"/>
<feGaussianBlur stdDeviation="7"/>
<feColorMatrix type="matrix" values="0 0 0 0 0 0 0 0 0 0 0 0 0 0 0 0 0 0 0.25 0"/>
<feBlend mode="normal" in2="BackgroundImageFix" result="effect1_dropShadow"/>
<feBlend mode="normal" in="SourceGraphic" in2="effect1_dropShadow" result="shape"/>
</filter>
<filter id="filter3_d" x="26.3252" y="133.623" width="33.3979" height="33.5214" filterUnits="userSpaceOnUse" color-interpolation-filters="sRGB">
<feFlood flood-opacity="0" result="BackgroundImageFix"/>
<feColorMatrix in="SourceAlpha" type="matrix" values="0 0 0 0 0 0 0 0 0 0 0 0 0 0 0 0 0 0 127 0" result="hardAlpha"/>
<feOffset dx="8" dy="8"/>
<feGaussianBlur stdDeviation="7"/>
<feColorMatrix type="matrix" values="0 0 0 0 0 0 0 0 0 0 0 0 0 0 0 0 0 0 0.25 0"/>
<feBlend mode="normal" in2="BackgroundImageFix" result="effect1_dropShadow"/>
<feBlend mode="normal" in="SourceGraphic" in2="effect1_dropShadow" result="shape"/>
</filter>
<filter id="filter4_d" x="41.6338" y="140.221" width="56.0389" height="56.6805" filterUnits="userSpaceOnUse" color-interpolation-filters="sRGB">
<feFlood flood-opacity="0" result="BackgroundImageFix"/>
<feColorMatrix in="SourceAlpha" type="matrix" values="0 0 0 0 0 0 0 0 0 0 0 0 0 0 0 0 0 0 127 0" result="hardAlpha"/>
<feOffset dx="8" dy="8"/>
<feGaussianBlur stdDeviation="7"/>
<feColorMatrix type="matrix" values="0 0 0 0 0 0 0 0 0 0 0 0 0 0 0 0 0 0 0.25 0"/>
<feBlend mode="normal" in2="BackgroundImageFix" result="effect1_dropShadow"/>
<feBlend mode="normal" in="SourceGraphic" in2="effect1_dropShadow" result="shape"/>
</filter>
<filter id="filter5_d" x="4.45605" y="80.1075" width="40.7061" height="40.4677" filterUnits="userSpaceOnUse" color-interpolation-filters="sRGB">
<feFlood flood-opacity="0" result="BackgroundImageFix"/>
<feColorMatrix in="SourceAlpha" type="matrix" values="0 0 0 0 0 0 0 0 0 0 0 0 0 0 0 0 0 0 127 0" result="hardAlpha"/>
<feOffset dx="8" dy="8"/>
<feGaussianBlur stdDeviation="7"/>
<feColorMatrix type="matrix" values="0 0 0 0 0 0 0 0 0 0 0 0 0 0 0 0 0 0 0.25 0"/>
<feBlend mode="normal" in2="BackgroundImageFix" result="effect1_dropShadow"/>
<feBlend mode="normal" in="SourceGraphic" in2="effect1_dropShadow" result="shape"/>
</filter>
<filter id="filter6_d" x="35.9932" y="46.0366" width="31.5531" height="31.0431" filterUnits="userSpaceOnUse" color-interpolation-filters="sRGB">
<feFlood flood-opacity="0" result="BackgroundImageFix"/>
<feColorMatrix in="SourceAlpha" type="matrix" values="0 0 0 0 0 0 0 0 0 0 0 0 0 0 0 0 0 0 127 0" result="hardAlpha"/>
<feOffset dx="8" dy="8"/>
<feGaussianBlur stdDeviation="7"/>
<feColorMatrix type="matrix" values="0 0 0 0 0 0 0 0 0 0 0 0 0 0 0 0 0 0 0.25 0"/>
<feBlend mode="normal" in2="BackgroundImageFix" result="effect1_dropShadow"/>
<feBlend mode="normal" in="SourceGraphic" in2="effect1_dropShadow" result="shape"/>
</filter>
<filter id="filter7_d" x="161.989" y="98.5192" width="33.3979" height="33.5214" filterUnits="userSpaceOnUse" color-interpolation-filters="sRGB">
<feFlood flood-opacity="0" result="BackgroundImageFix"/>
<feColorMatrix in="SourceAlpha" type="matrix" values="0 0 0 0 0 0 0 0 0 0 0 0 0 0 0 0 0 0 127 0" result="hardAlpha"/>
<feOffset dx="8" dy="8"/>
<feGaussianBlur stdDeviation="7"/>
<feColorMatrix type="matrix" values="0 0 0 0 0 0 0 0 0 0 0 0 0 0 0 0 0 0 0.25 0"/>
<feBlend mode="normal" in2="BackgroundImageFix" result="effect1_dropShadow"/>
<feBlend mode="normal" in="SourceGraphic" in2="effect1_dropShadow" result="shape"/>
</filter>
<filter id="filter8_d" x="148.001" y="100.367" width="50.9533" height="49.2873" filterUnits="userSpaceOnUse" color-interpolation-filters="sRGB">
<feFlood flood-opacity="0" result="BackgroundImageFix"/>
<feColorMatrix in="SourceAlpha" type="matrix" values="0 0 0 0 0 0 0 0 0 0 0 0 0 0 0 0 0 0 127 0" result="hardAlpha"/>
<feOffset dx="8" dy="8"/>
<feGaussianBlur stdDeviation="7"/>
<feColorMatrix type="matrix" values="0 0 0 0 0 0 0 0 0 0 0 0 0 0 0 0 0 0 0.25 0"/>
<feBlend mode="normal" in2="BackgroundImageFix" result="effect1_dropShadow"/>
<feBlend mode="normal" in="SourceGraphic" in2="effect1_dropShadow" result="shape"/>
</filter>
<filter id="filter9_d" x="34.9834" y="94.5449" width="32.3724" height="32.2201" filterUnits="userSpaceOnUse" color-interpolation-filters="sRGB">
<feFlood flood-opacity="0" result="BackgroundImageFix"/>
<feColorMatrix in="SourceAlpha" type="matrix" values="0 0 0 0 0 0 0 0 0 0 0 0 0 0 0 0 0 0 127 0" result="hardAlpha"/>
<feOffset dx="8" dy="8"/>
<feGaussianBlur stdDeviation="7"/>
<feColorMatrix type="matrix" values="0 0 0 0 0 0 0 0 0 0 0 0 0 0 0 0 0 0 0.25 0"/>
<feBlend mode="normal" in2="BackgroundImageFix" result="effect1_dropShadow"/>
<feBlend mode="normal" in="SourceGraphic" in2="effect1_dropShadow" result="shape"/>
</filter>
<linearGradient id="paint0_linear" x1="16.7838" y1="-2.20773" x2="193.445" y2="7.95648" gradientUnits="userSpaceOnUse">
<stop offset="0.0756841" stop-color="#B565D8"/>
<stop offset="0.945898" stop-color="#EE609C"/>
</linearGradient>
<linearGradient id="paint1_linear" x1="7.81549" y1="105.118" x2="31.059" y2="88.5098" gradientUnits="userSpaceOnUse">
<stop offset="0.0756841" stop-color="#B565D8"/>
<stop offset="0.945898" stop-color="#EE609C"/>
</linearGradient>
<linearGradient id="paint2_linear" x1="35.3445" y1="39.7964" x2="46.7846" y2="34.611" gradientUnits="userSpaceOnUse">
<stop offset="0.0756841" stop-color="#B565D8"/>
<stop offset="0.945898" stop-color="#EE609C"/>
</linearGradient>
<linearGradient id="paint3_linear" x1="31.6673" y1="142.97" x2="33.8644" y2="138.965" gradientUnits="userSpaceOnUse">
<stop offset="0.0756841" stop-color="#B565D8"/>
<stop offset="0.945898" stop-color="#EE609C"/>
</linearGradient>
<linearGradient id="paint4_linear" x1="44.2164" y1="163.607" x2="55.6291" y2="142.807" gradientUnits="userSpaceOnUse">
<stop offset="0.0756841" stop-color="#B565D8"/>
<stop offset="0.945898" stop-color="#EE609C"/>
</linearGradient>
<linearGradient id="paint5_linear" x1="6.54434" y1="94.2439" x2="13.3136" y2="81.9067" gradientUnits="userSpaceOnUse">
<stop offset="0.0756841" stop-color="#B565D8"/>
<stop offset="0.945898" stop-color="#EE609C"/>
</linearGradient>
<linearGradient id="paint6_linear" x1="46.3393" y1="52.4827" x2="45.7186" y2="55.822" gradientUnits="userSpaceOnUse">
<stop offset="0.0756841" stop-color="#B565D8"/>
<stop offset="0.945898" stop-color="#EE609C"/>
</linearGradient>
<linearGradient id="paint7_linear" x1="167.331" y1="107.866" x2="169.528" y2="103.862" gradientUnits="userSpaceOnUse">
<stop offset="0.0756841" stop-color="#B565D8"/>
<stop offset="0.945898" stop-color="#EE609C"/>
</linearGradient>
<linearGradient id="paint8_linear" x1="162.124" y1="103.915" x2="179.515" y2="113.485" gradientUnits="userSpaceOnUse">
<stop offset="0.0756841" stop-color="#B565D8"/>
<stop offset="0.945898" stop-color="#EE609C"/>
</linearGradient>
<linearGradient id="paint9_linear" x1="42.5278" y1="99.0617" x2="46.7258" y2="101.32" gradientUnits="userSpaceOnUse">
<stop offset="0.0756841" stop-color="#B565D8"/>
<stop offset="0.945898" stop-color="#EE609C"/>
</linearGradient>
<linearGradient id="paint10_linear" x1="63.376" y1="119.302" x2="68.0167" y2="126.024" gradientUnits="userSpaceOnUse">
<stop offset="0.0756841" stop-color="#B565D8"/>
<stop offset="0.945898" stop-color="#EE609C"/>
</linearGradient>
<linearGradient id="paint11_linear" x1="54.8747" y1="115.427" x2="59.5048" y2="122.158" gradientUnits="userSpaceOnUse">
<stop offset="0.0756841" stop-color="#B565D8"/>
<stop offset="0.945898" stop-color="#EE609C"/>
</linearGradient>
<linearGradient id="paint12_linear" x1="38.9082" y1="115.895" x2="43.508" y2="122.679" gradientUnits="userSpaceOnUse">
<stop offset="0.0756841" stop-color="#B565D8"/>
<stop offset="0.945898" stop-color="#EE609C"/>
</linearGradient>
<linearGradient id="paint13_linear" x1="33.8451" y1="110.018" x2="38.4603" y2="116.791" gradientUnits="userSpaceOnUse">
<stop offset="0.0756841" stop-color="#B565D8"/>
<stop offset="0.945898" stop-color="#EE609C"/>
</linearGradient>
<linearGradient id="paint14_linear" x1="59.3363" y1="117.243" x2="63.9722" y2="123.969" gradientUnits="userSpaceOnUse">
<stop offset="0.0756841" stop-color="#B565D8"/>
<stop offset="0.945898" stop-color="#EE609C"/>
</linearGradient>
<linearGradient id="paint15_linear" x1="49.8597" y1="113.934" x2="54.4822" y2="120.671" gradientUnits="userSpaceOnUse">
<stop offset="0.0756841" stop-color="#B565D8"/>
<stop offset="0.945898" stop-color="#EE609C"/>
</linearGradient>
<linearGradient id="paint16_linear" x1="36.2846" y1="113.01" x2="40.8911" y2="119.789" gradientUnits="userSpaceOnUse">
<stop offset="0.0756841" stop-color="#B565D8"/>
<stop offset="0.945898" stop-color="#EE609C"/>
</linearGradient>
<linearGradient id="paint17_linear" x1="94.4365" y1="145.341" x2="99.1315" y2="152.019" gradientUnits="userSpaceOnUse">
<stop offset="0.0756841" stop-color="#B565D8"/>
<stop offset="0.945898" stop-color="#EE609C"/>
</linearGradient>
<linearGradient id="paint18_linear" x1="88.8035" y1="139.796" x2="93.4964" y2="146.505" gradientUnits="userSpaceOnUse">
<stop offset="0.0756841" stop-color="#B565D8"/>
<stop offset="0.945898" stop-color="#EE609C"/>
</linearGradient>
<linearGradient id="paint19_linear" x1="83.0958" y1="134.295" x2="87.7766" y2="141.015" gradientUnits="userSpaceOnUse">
<stop offset="0.0756841" stop-color="#B565D8"/>
<stop offset="0.945898" stop-color="#EE609C"/>
</linearGradient>
<linearGradient id="paint20_linear" x1="77.1068" y1="128.958" x2="81.7779" y2="135.685" gradientUnits="userSpaceOnUse">
<stop offset="0.0756841" stop-color="#B565D8"/>
<stop offset="0.945898" stop-color="#EE609C"/>
</linearGradient>
<linearGradient id="paint21_linear" x1="70.629" y1="123.905" x2="75.2776" y2="130.621" gradientUnits="userSpaceOnUse">
<stop offset="0.0756841" stop-color="#B565D8"/>
<stop offset="0.945898" stop-color="#EE609C"/>
</linearGradient>
<linearGradient id="paint22_linear" x1="91.6167" y1="142.571" x2="96.3173" y2="149.273" gradientUnits="userSpaceOnUse">
<stop offset="0.0756841" stop-color="#B565D8"/>
<stop offset="0.945898" stop-color="#EE609C"/>
</linearGradient>
<linearGradient id="paint23_linear" x1="85.9723" y1="137.033" x2="90.6586" y2="143.747" gradientUnits="userSpaceOnUse">
<stop offset="0.0756841" stop-color="#B565D8"/>
<stop offset="0.945898" stop-color="#EE609C"/>
</linearGradient>
<linearGradient id="paint24_linear" x1="80.1502" y1="131.598" x2="84.8258" y2="138.321" gradientUnits="userSpaceOnUse">
<stop offset="0.0756841" stop-color="#B565D8"/>
<stop offset="0.945898" stop-color="#EE609C"/>
</linearGradient>
<linearGradient id="paint25_linear" x1="73.941" y1="126.389" x2="78.608" y2="133.119" gradientUnits="userSpaceOnUse">
<stop offset="0.0756841" stop-color="#B565D8"/>
<stop offset="0.945898" stop-color="#EE609C"/>
</linearGradient>
<linearGradient id="paint26_linear" x1="67.1181" y1="121.537" x2="71.7629" y2="128.256" gradientUnits="userSpaceOnUse">
<stop offset="0.0756841" stop-color="#B565D8"/>
<stop offset="0.945898" stop-color="#EE609C"/>
</linearGradient>
<linearGradient id="paint27_linear" x1="120.387" y1="165.532" x2="125.28" y2="172.032" gradientUnits="userSpaceOnUse">
<stop offset="0.0756841" stop-color="#B565D8"/>
<stop offset="0.945898" stop-color="#EE609C"/>
</linearGradient>
<linearGradient id="paint28_linear" x1="112.853" y1="161.094" x2="117.659" y2="167.675" gradientUnits="userSpaceOnUse">
<stop offset="0.0756841" stop-color="#B565D8"/>
<stop offset="0.945898" stop-color="#EE609C"/>
</linearGradient>
<linearGradient id="paint29_linear" x1="106.241" y1="156.119" x2="110.994" y2="162.747" gradientUnits="userSpaceOnUse">
<stop offset="0.0756841" stop-color="#B565D8"/>
<stop offset="0.945898" stop-color="#EE609C"/>
</linearGradient>
<linearGradient id="paint30_linear" x1="100.182" y1="150.821" x2="104.901" y2="157.478" gradientUnits="userSpaceOnUse">
<stop offset="0.0756841" stop-color="#B565D8"/>
<stop offset="0.945898" stop-color="#EE609C"/>
</linearGradient>
<linearGradient id="paint31_linear" x1="124.69" y1="167.439" x2="129.652" y2="173.872" gradientUnits="userSpaceOnUse">
<stop offset="0.0756841" stop-color="#B565D8"/>
<stop offset="0.945898" stop-color="#EE609C"/>
</linearGradient>
<linearGradient id="paint32_linear" x1="116.462" y1="163.405" x2="121.305" y2="169.952" gradientUnits="userSpaceOnUse">
<stop offset="0.0756841" stop-color="#B565D8"/>
<stop offset="0.945898" stop-color="#EE609C"/>
</linearGradient>
<linearGradient id="paint33_linear" x1="109.459" y1="158.657" x2="114.235" y2="165.265" gradientUnits="userSpaceOnUse">
<stop offset="0.0756841" stop-color="#B565D8"/>
<stop offset="0.945898" stop-color="#EE609C"/>
</linearGradient>
<linearGradient id="paint34_linear" x1="103.153" y1="153.504" x2="107.887" y2="160.148" gradientUnits="userSpaceOnUse">
<stop offset="0.0756841" stop-color="#B565D8"/>
<stop offset="0.945898" stop-color="#EE609C"/>
</linearGradient>
<linearGradient id="paint35_linear" x1="97.2814" y1="148.098" x2="102.002" y2="154.784" gradientUnits="userSpaceOnUse">
<stop offset="0.0756841" stop-color="#B565D8"/>
<stop offset="0.945898" stop-color="#EE609C"/>
</linearGradient>
<linearGradient id="paint36_linear" x1="129.49" y1="169.057" x2="134.57" y2="175.399" gradientUnits="userSpaceOnUse">
<stop offset="0.0756841" stop-color="#B565D8"/>
<stop offset="0.945898" stop-color="#EE609C"/>
</linearGradient>
<linearGradient id="paint37_linear" x1="141.905" y1="170.655" x2="147.499" y2="176.31" gradientUnits="userSpaceOnUse">
<stop offset="0.0756841" stop-color="#B565D8"/>
<stop offset="0.945898" stop-color="#EE609C"/>
</linearGradient>
<linearGradient id="paint38_linear" x1="135.025" y1="170.249" x2="140.255" y2="176.384" gradientUnits="userSpaceOnUse">
<stop offset="0.0756841" stop-color="#B565D8"/>
<stop offset="0.945898" stop-color="#EE609C"/>
</linearGradient>
<linearGradient id="paint39_linear" x1="33.4051" y1="44.1041" x2="39.4143" y2="48.7356" gradientUnits="userSpaceOnUse">
<stop offset="0.0756841" stop-color="#B565D8"/>
<stop offset="0.945898" stop-color="#EE609C"/>
</linearGradient>
<linearGradient id="paint40_linear" x1="26.8603" y1="52.324" x2="32.1663" y2="58.3644" gradientUnits="userSpaceOnUse">
<stop offset="0.0756841" stop-color="#B565D8"/>
<stop offset="0.945898" stop-color="#EE609C"/>
</linearGradient>
<linearGradient id="paint41_linear" x1="25.9841" y1="96.9463" x2="30.6541" y2="103.674" gradientUnits="userSpaceOnUse">
<stop offset="0.0756841" stop-color="#B565D8"/>
<stop offset="0.945898" stop-color="#EE609C"/>
</linearGradient>
<linearGradient id="paint42_linear" x1="23.3192" y1="89.6745" x2="28.0304" y2="96.3683" gradientUnits="userSpaceOnUse">
<stop offset="0.0756841" stop-color="#B565D8"/>
<stop offset="0.945898" stop-color="#EE609C"/>
</linearGradient>
<linearGradient id="paint43_linear" x1="21.6281" y1="81.8377" x2="26.378" y2="88.4686" gradientUnits="userSpaceOnUse">
<stop offset="0.0756841" stop-color="#B565D8"/>
<stop offset="0.945898" stop-color="#EE609C"/>
</linearGradient>
<linearGradient id="paint44_linear" x1="21.1277" y1="73.3065" x2="25.9536" y2="79.8696" gradientUnits="userSpaceOnUse">
<stop offset="0.0756841" stop-color="#B565D8"/>
<stop offset="0.945898" stop-color="#EE609C"/>
</linearGradient>
<linearGradient id="paint45_linear" x1="22.3187" y1="63.7892" x2="27.2772" y2="70.2253" gradientUnits="userSpaceOnUse">
<stop offset="0.0756841" stop-color="#B565D8"/>
<stop offset="0.945898" stop-color="#EE609C"/>
</linearGradient>
<linearGradient id="paint46_linear" x1="24.5371" y1="93.3775" x2="29.2264" y2="100.09" gradientUnits="userSpaceOnUse">
<stop offset="0.0756841" stop-color="#B565D8"/>
<stop offset="0.945898" stop-color="#EE609C"/>
</linearGradient>
<linearGradient id="paint47_linear" x1="22.3447" y1="85.8307" x2="27.0809" y2="92.5033" gradientUnits="userSpaceOnUse">
<stop offset="0.0756841" stop-color="#B565D8"/>
<stop offset="0.945898" stop-color="#EE609C"/>
</linearGradient>
<linearGradient id="paint48_linear" x1="21.2082" y1="77.6708" x2="25.9919" y2="84.2719" gradientUnits="userSpaceOnUse">
<stop offset="0.0756841" stop-color="#B565D8"/>
<stop offset="0.945898" stop-color="#EE609C"/>
</linearGradient>
<linearGradient id="paint49_linear" x1="21.4534" y1="68.7055" x2="26.3345" y2="75.2172" gradientUnits="userSpaceOnUse">
<stop offset="0.0756841" stop-color="#B565D8"/>
<stop offset="0.945898" stop-color="#EE609C"/>
</linearGradient>
<linearGradient id="paint50_linear" x1="23.9317" y1="58.4409" x2="29.0104" y2="64.7515" gradientUnits="userSpaceOnUse">
<stop offset="0.0756841" stop-color="#B565D8"/>
<stop offset="0.945898" stop-color="#EE609C"/>
</linearGradient>
<linearGradient id="paint51_linear" x1="48.4235" y1="128.005" x2="53.7402" y2="129.059" gradientUnits="userSpaceOnUse">
<stop offset="0.0756841" stop-color="#B565D8"/>
<stop offset="0.945898" stop-color="#EE609C"/>
</linearGradient>
<linearGradient id="paint52_linear" x1="41.9755" y1="122.934" x2="47.8521" y2="124.985" gradientUnits="userSpaceOnUse">
<stop offset="0.0756841" stop-color="#B565D8"/>
<stop offset="0.945898" stop-color="#EE609C"/>
</linearGradient>
<linearGradient id="paint53_linear" x1="29.5289" y1="103.707" x2="34.1673" y2="110.46" gradientUnits="userSpaceOnUse">
<stop offset="0.0756841" stop-color="#B565D8"/>
<stop offset="0.945898" stop-color="#EE609C"/>
</linearGradient>
<linearGradient id="paint54_linear" x1="45.1053" y1="125.524" x2="50.7846" y2="127.145" gradientUnits="userSpaceOnUse">
<stop offset="0.0756841" stop-color="#B565D8"/>
<stop offset="0.945898" stop-color="#EE609C"/>
</linearGradient>
<linearGradient id="paint55_linear" x1="39.0294" y1="120.237" x2="45.0127" y2="122.597" gradientUnits="userSpaceOnUse">
<stop offset="0.0756841" stop-color="#B565D8"/>
<stop offset="0.945898" stop-color="#EE609C"/>
</linearGradient>
<linearGradient id="paint56_linear" x1="31.5922" y1="106.918" x2="36.218" y2="113.682" gradientUnits="userSpaceOnUse">
<stop offset="0.0756841" stop-color="#B565D8"/>
<stop offset="0.945898" stop-color="#EE609C"/>
</linearGradient>
<linearGradient id="paint57_linear" x1="27.6479" y1="100.391" x2="32.3008" y2="107.133" gradientUnits="userSpaceOnUse">
<stop offset="0.0756841" stop-color="#B565D8"/>
<stop offset="0.945898" stop-color="#EE609C"/>
</linearGradient>
<linearGradient id="paint58_linear" x1="55.6573" y1="132.617" x2="59.1427" y2="132.317" gradientUnits="userSpaceOnUse">
<stop offset="0.0756841" stop-color="#B565D8"/>
<stop offset="0.945898" stop-color="#EE609C"/>
</linearGradient>
<linearGradient id="paint59_linear" x1="59.5879" y1="134.74" x2="61.2446" y2="134.203" gradientUnits="userSpaceOnUse">
<stop offset="0.0756841" stop-color="#B565D8"/>
<stop offset="0.945898" stop-color="#EE609C"/>
</linearGradient>
<linearGradient id="paint60_linear" x1="51.9386" y1="130.37" x2="56.5917" y2="130.739" gradientUnits="userSpaceOnUse">
<stop offset="0.0756841" stop-color="#B565D8"/>
<stop offset="0.945898" stop-color="#EE609C"/>
</linearGradient>
<linearGradient id="paint61_linear" x1="115.113" y1="96.8475" x2="158.805" y2="136.924" gradientUnits="userSpaceOnUse">
<stop stop-color="#FF4F4F"/>
<stop offset="1" stop-color="#750000"/>
</linearGradient>
<linearGradient id="paint62_linear" x1="134.79" y1="76.8473" x2="96.4943" y2="58.0468" gradientUnits="userSpaceOnUse">
<stop stop-color="#FF4F4F"/>
<stop offset="1" stop-color="#C81B1B"/>
</linearGradient>
<linearGradient id="paint63_linear" x1="79430.2" y1="18153.2" x2="89023" y2="14845.9" gradientUnits="userSpaceOnUse">
<stop stop-color="white"/>
<stop offset="1" stop-color="#FE707C"/>
</linearGradient>
</defs>
</svg>
