<svg width="43" height="43" viewBox="0 0 43 43" fill="none" xmlns="http://www.w3.org/2000/svg">
<circle cx="21.4523" cy="21.4523" r="21.4523" fill="white" fill-opacity="0.5"/>
<circle cx="21.4518" cy="21.4538" r="18.5172" fill="#3561B5"/>
<path fill-rule="evenodd" clip-rule="evenodd" d="M16.685 17.6835C16.8524 17.4058 17.775 16.398 18.4325 16.4284C18.6292 16.4453 18.803 16.5637 18.9443 16.7017H18.9449C19.2687 17.019 20.1979 18.2165 20.25 18.4686C20.3788 19.0869 19.6415 19.4433 19.867 20.0665C20.4418 21.4731 21.4324 22.4636 22.8397 23.0379C23.4624 23.2639 23.8189 22.5272 24.4372 22.6554C24.6894 22.7081 25.8875 23.6366 26.2043 23.961V23.961C26.3417 24.1017 26.4613 24.2761 26.4776 24.4728C26.502 25.1655 25.4316 26.1006 25.2229 26.2201C24.7307 26.5727 24.0884 26.5662 23.3054 26.2022C21.1205 25.2932 17.6288 21.8676 16.7029 19.6003C16.3486 18.8217 16.3247 18.1752 16.685 17.6835Z" stroke="white" stroke-width="1.5" stroke-linecap="round" stroke-linejoin="round"/>
<path d="M22.8096 16.5601C24.7682 16.7775 26.3146 18.3224 26.5347 20.2804" stroke="white" stroke-width="1.5" stroke-linecap="round" stroke-linejoin="round"/>
<path d="M22.8096 18.4346C23.746 18.6171 24.4777 19.3488 24.6602 20.2852" stroke="white" stroke-width="1.5" stroke-linecap="round" stroke-linejoin="round"/>
</svg>
