<svg width="80" height="80" viewBox="0 0 80 80" fill="none" xmlns="http://www.w3.org/2000/svg">
<circle cx="39.5477" cy="39.5477" r="39.5477" fill="#9F91F5" fill-opacity="0.38"/>
<circle cx="39.547" cy="39.5509" r="34.1368" fill="url(#paint0_linear)"/>
<path d="M52.8842 33.575C52.183 31.9017 51.1631 30.3807 49.881 29.0969C48.6029 27.8109 47.0845 26.7884 45.4123 26.0875C43.6992 25.3661 41.8586 24.9962 39.9998 25H39.9373C38.0467 25.0094 36.2185 25.3844 34.4967 26.1219C32.8388 26.83 31.3347 27.8542 30.0685 29.1375C28.7989 30.4184 27.7906 31.9341 27.0998 33.6C26.3826 35.3324 26.0193 37.1907 26.031 39.0657C26.0404 41.2344 26.5592 43.3875 27.5279 45.3125V50.0625C27.5279 50.8563 28.1717 51.5 28.9623 51.5H33.706C35.64 52.4759 37.7742 52.9894 39.9404 53H40.006C41.8748 53 43.6842 52.6375 45.3904 51.9282C47.0542 51.2357 48.5669 50.2251 49.8435 48.9532C51.131 47.675 52.1435 46.1813 52.8529 44.5157C53.5873 42.7907 53.9623 40.9563 53.9717 39.0625C53.9779 37.1594 53.6092 35.3125 52.8842 33.575ZM33.7623 40.5C32.9373 40.5 32.2654 39.8282 32.2654 39C32.2654 38.1719 32.9373 37.5 33.7623 37.5C34.5873 37.5 35.2592 38.1719 35.2592 39C35.2592 39.8282 34.5904 40.5 33.7623 40.5ZM39.9998 40.5C39.1748 40.5 38.5029 39.8282 38.5029 39C38.5029 38.1719 39.1748 37.5 39.9998 37.5C40.8248 37.5 41.4967 38.1719 41.4967 39C41.4967 39.8282 40.8248 40.5 39.9998 40.5ZM46.2373 40.5C45.4123 40.5 44.7404 39.8282 44.7404 39C44.7404 38.1719 45.4123 37.5 46.2373 37.5C47.0623 37.5 47.7342 38.1719 47.7342 39C47.7342 39.8282 47.0623 40.5 46.2373 40.5Z" fill="white"/>
<defs>
<linearGradient id="paint0_linear" x1="7.48956" y1="-8.24072" x2="81.2523" y2="-4.52486" gradientUnits="userSpaceOnUse">
<stop offset="0.0756841" stop-color="#B565D8"/>
<stop offset="0.945898" stop-color="#EE609C"/>
</linearGradient>
</defs>
</svg>
