<svg width="20" height="17" viewBox="0 0 20 17" fill="none" xmlns="http://www.w3.org/2000/svg">
<path d="M16.1104 3.43066H3.88813C3.04785 3.43066 2.36799 4.01504 2.36799 4.72928L2.36035 12.5209C2.36035 13.2352 3.04785 13.8196 3.88813 13.8196H16.1104C16.9506 13.8196 17.6381 13.2352 17.6381 12.5209V4.72928C17.6381 4.01504 16.9506 3.43066 16.1104 3.43066ZM3.88813 6.67719H11.909V8.94976H3.88813V6.67719ZM3.88813 10.2484H11.909V12.5209H4.65202C4.23188 12.5209 3.88813 12.2288 3.88813 11.8716V10.2484ZM15.3465 12.5209H13.4367V6.67719H16.1104V11.8716C16.1104 12.2288 15.7666 12.5209 15.3465 12.5209Z" fill="black"/>
<path d="M11.0575 5.2335C11.0685 5.14275 11.0768 5.052 11.0768 4.9585C11.0768 4.865 11.0685 4.77425 11.0575 4.6835H11.5223C11.5443 4.7715 11.558 4.86362 11.558 4.9585C11.558 5.05337 11.5443 5.1455 11.5223 5.2335H11.0575ZM10.8141 5.998C10.8966 5.84537 10.9599 5.68037 11.0039 5.5085H11.4095C11.2763 5.73788 11.0649 5.91165 10.8141 5.998ZM10.7798 5.2335H10.1363C10.1225 5.14275 10.1143 5.052 10.1143 4.9585C10.1143 4.865 10.1225 4.77287 10.1363 4.6835H10.7798C10.7921 4.77287 10.8018 4.865 10.8018 4.9585C10.8018 5.052 10.7921 5.14275 10.7798 5.2335ZM10.458 6.053C10.3439 5.888 10.2518 5.70512 10.1954 5.5085H10.7206C10.6643 5.70512 10.5721 5.888 10.458 6.053ZM9.90801 4.4085H9.50651C9.63835 4.17849 9.84954 4.00445 10.1005 3.919C10.018 4.07162 9.95613 4.23662 9.90801 4.4085ZM9.50651 5.5085H9.90801C9.95613 5.68037 10.018 5.84537 10.1005 5.998C9.85007 5.9116 9.63917 5.73781 9.50651 5.5085ZM9.39376 5.2335C9.37176 5.1455 9.35801 5.05337 9.35801 4.9585C9.35801 4.86362 9.37176 4.7715 9.39376 4.6835H9.85851C9.84751 4.77425 9.83926 4.865 9.83926 4.9585C9.83926 5.052 9.84751 5.14275 9.85851 5.2335H9.39376ZM10.458 3.86262C10.5721 4.02762 10.6643 4.21187 10.7206 4.4085H10.1954C10.2518 4.21187 10.3439 4.02762 10.458 3.86262ZM11.4095 4.4085H11.0039C10.9608 4.2382 10.8971 4.07381 10.8141 3.919C11.0671 4.00562 11.2775 4.18025 11.4095 4.4085ZM10.458 3.5835C9.69763 3.5835 9.08301 4.20225 9.08301 4.9585C9.08301 5.32317 9.22787 5.67291 9.48574 5.93077C9.61342 6.05845 9.765 6.15973 9.93182 6.22883C10.0986 6.29793 10.2774 6.3335 10.458 6.3335C10.8227 6.3335 11.1724 6.18863 11.4303 5.93077C11.6881 5.67291 11.833 5.32317 11.833 4.9585C11.833 4.77793 11.7974 4.59913 11.7283 4.43231C11.6592 4.26548 11.558 4.1139 11.4303 3.98622C11.3026 3.85854 11.151 3.75726 10.9842 3.68816C10.8174 3.61906 10.6386 3.5835 10.458 3.5835Z" fill="white"/>
</svg>
