<svg xmlns="http://www.w3.org/2000/svg"  viewBox="0 0 64 64" width="64px" height="64px"><ellipse cx="32.591" cy="32.817" fill="#acb7d0" rx="24.493" ry="25.817"/><ellipse cx="36.5" cy="28" fill="#7bbeeb" rx="20.526" ry="20"/><path fill="#ace3ff" d="M42.498,10.6c-1.554,1.317-3.528,1.942-5.37,2.804c-2.138,1.001-4.341,1.871-6.273,3.271	c-1.46,1.058-2.84,2.195-3.831,3.724c-1.187,1.83-1.885,3.832-2.005,6.019c-0.108,1.969,0.257,3.86,1.076,5.642	c1.168,2.543,3.064,4.404,5.551,5.684c1.771,0.912,3.65,1.334,5.632,1.288c2.321-0.054,4.459-0.712,6.379-2.036	c1.089-0.751,1.957-1.704,2.776-2.748c0.947-1.207,1.712-2.505,2.368-3.873c0.817-1.701,1.432-3.484,2.109-5.244	c0.519-1.348,1.186-2.728,1.992-3.931L55,19c0,0-1-3-4-6c-2-2-7-4-7-4L42.498,10.6z"/><path fill="#8d6c9f" d="M46.431,35.249c-0.216,0-0.434-0.07-0.616-0.213c-0.435-0.341-0.511-0.97-0.17-1.404	c0.837-1.066,1.573-2.272,2.253-3.688c0.608-1.267,1.117-2.624,1.61-3.936c0.154-0.412,0.309-0.824,0.467-1.235	c0.604-1.565,1.309-2.954,2.095-4.128c0.308-0.459,0.93-0.582,1.388-0.274c0.459,0.307,0.582,0.928,0.274,1.387	c-0.694,1.036-1.348,2.327-1.891,3.734c-0.155,0.405-0.308,0.812-0.461,1.219c-0.508,1.353-1.032,2.752-1.68,4.099	c-0.743,1.548-1.555,2.876-2.481,4.057C47.021,35.117,46.728,35.249,46.431,35.249z"/><path fill="#8d6c9f" d="M41.029,39.352c-0.41,0-0.794-0.254-0.941-0.662c-0.187-0.52,0.083-1.093,0.604-1.279	c0.812-0.292,1.597-0.694,2.333-1.193c0.456-0.31,1.078-0.191,1.389,0.265c0.311,0.457,0.191,1.079-0.266,1.389	c-0.874,0.594-1.81,1.072-2.78,1.421C41.256,39.333,41.142,39.352,41.029,39.352z"/><path fill="#8d6c9f" d="M36.981,40.036c-2.037,0-3.985-0.472-5.794-1.402c-2.36-1.215-4.185-2.91-5.423-5.04	c-0.209-0.357-0.402-0.73-0.579-1.118c-0.229-0.502-0.009-1.096,0.493-1.325c0.504-0.231,1.096-0.008,1.325,0.494	c0.149,0.327,0.313,0.641,0.489,0.943c1.044,1.795,2.595,3.23,4.61,4.268c1.521,0.784,3.163,1.181,4.878,1.181	c0.004,0,0.008,0,0.012,0h0.001c0.552,0,0.999,0.447,1,0.999C37.995,39.593,37.514,40.025,36.981,40.036z"/><path fill="#8d6c9f" d="M25.033,29c-0.519,0-0.957-0.4-0.996-0.925c-0.043-0.566-0.048-1.142-0.017-1.711	c0.126-2.299,0.854-4.488,2.164-6.508c1.106-1.708,2.616-2.927,4.083-3.99c1.632-1.182,3.431-1.998,5.171-2.787	c0.422-0.192,0.845-0.383,1.266-0.581c0.475-0.222,0.958-0.429,1.44-0.636c1.368-0.585,2.66-1.138,3.707-2.025	c0.422-0.359,1.054-0.304,1.409,0.116c0.357,0.421,0.306,1.052-0.116,1.409c-1.276,1.082-2.77,1.721-4.213,2.339	c-0.463,0.198-0.925,0.396-1.38,0.608c-0.427,0.2-0.857,0.396-1.288,0.59c-1.725,0.783-3.354,1.521-4.822,2.585	c-1.31,0.949-2.649,2.025-3.579,3.458c-1.117,1.724-1.738,3.584-1.846,5.529c-0.026,0.483-0.021,0.972,0.015,1.452	c0.041,0.551-0.371,1.031-0.922,1.072C25.084,28.999,25.059,29,25.033,29z"/><path fill="#8d6c9f" d="M36.513,48.974C24.65,48.974,15,39.56,15,27.987S24.65,7,36.513,7s21.514,9.415,21.514,20.987	S48.375,48.974,36.513,48.974z M36.513,9C25.753,9,17,17.518,17,27.987c0,10.469,8.753,18.987,19.513,18.987	s19.514-8.518,19.514-18.987C56.026,17.518,47.272,9,36.513,9z"/><path fill="#e3f2ff" d="M51.805,25.854c-0.601,7.666-2.08,12.916-4.11,17.097c-3.085,7.634-10.863,12.868-19.766,12.095	c-9.355-0.813-16.931-8.473-17.649-17.836c-0.57-7.421,3.033-14.038,8.701-17.776c4.638-3.419,10.75-4.737,16.435-5.873	c4.606-0.921,6.881-2.308,7.875-3.741c0.978-1.41,0.22-3.375-1.382-3.987C38.23,4.43,34.191,3.764,29.95,4.075	C15.275,5.153,3.736,17.812,4.006,32.523C4.3,48.617,18.174,61.393,34.651,59.878c12.533-1.153,22.913-10.816,24.963-23.233	c0.9-5.448,0.173-10.63-1.711-15.218c-0.884-2.148-3.91-2.344-4.958-0.27C52.142,22.748,51.881,24.878,51.805,25.854z"/><path fill="#8d6c9f" d="M31.972,61.001c-7.16,0-13.933-2.575-19.312-7.394c-5.988-5.363-9.507-13.042-9.653-21.067	C2.728,17.404,14.782,4.187,29.877,3.078c4.24-0.314,8.407,0.302,12.388,1.821c1.093,0.417,1.951,1.334,2.297,2.452	c0.324,1.051,0.161,2.159-0.45,3.039c-1.329,1.916-4.109,3.274-8.5,4.151c-6.237,1.247-11.749,2.536-16.037,5.697	c-5.649,3.728-8.812,10.189-8.298,16.894c0.682,8.875,7.877,16.146,16.739,16.917c8.158,0.708,15.693-3.903,18.753-11.474	c2.225-4.589,3.499-9.907,4.039-16.8v0c0.072-0.926,0.339-3.273,1.245-5.07c0.651-1.289,1.943-2.043,3.417-2	c1.502,0.058,2.789,0.955,3.358,2.34c2.042,4.971,2.655,10.421,1.772,15.762c-2.14,12.966-12.773,22.862-25.857,24.065	C33.814,60.959,32.89,61.001,31.972,61.001z M32.012,5c-0.661,0-1.323,0.024-1.988,0.073C15.97,6.104,4.746,18.411,5.006,32.504	c0.137,7.471,3.412,14.62,8.987,19.614c5.65,5.061,12.947,7.465,20.566,6.764c11.985-1.103,22.107-10.523,24.068-22.4	c0.833-5.044,0.278-9.982-1.649-14.675c-0.32-0.779-1.03-1.08-1.587-1.102c-0.668-0.034-1.255,0.311-1.554,0.903	c-0.767,1.52-0.987,3.693-1.036,4.323v0c-0.561,7.15-1.896,12.697-4.207,17.455c-3.363,8.33-11.712,13.442-20.753,12.655	c-9.825-0.853-17.805-8.917-18.56-18.755c-0.57-7.429,2.936-14.589,9.147-18.687c4.577-3.376,10.313-4.724,16.789-6.019	c4.739-0.947,6.559-2.334,7.25-3.331c0.353-0.509,0.266-1.038,0.182-1.309c-0.165-0.536-0.576-0.975-1.099-1.174	C38.471,5.592,35.271,5,32.012,5z"/></svg>