<svg id="Capa_1" enable-background="new 0 0 513 513" height="512" viewBox="0 0 513 513" width="512" xmlns="http://www.w3.org/2000/svg"><g><g><path d="m268.5 150 4-32 131-4 11 36z" fill="#9c6750"/><g fill="#844f3e"><path d="m302.5 133c0 3-5.373 8-12 8s-12-2.582-12-7 6.373-9 13-9 11 3.582 11 8z"/><path d="m309.5 125 85-4 1 7-86 2z"/><path d="m308.5 135 87-3 1 5-88 2z"/></g></g><g><g><path d="m247.5 37-126 2-26 2v-33l149-8z" fill="#f3d544"/><g fill="#d68034"><path d="m105.5 14-1 19 19-1-10-9 9-10z"/><path d="m235.5 7 2 18-18 1 10-10-14-8z"/><path d="m130.5 13-6 9 6 8 78-4 11-8-12-9z"/></g></g><g><path d="m120.5 73 107-6 37-2-4-36-139 10z" fill="#d68034"/><g fill="#b66624"><path d="m145.5 52s14 0 14-7l63-4s-1 6 13 6v5s-15-1-15 7l-56 3s-2-5-19-5z"/><path d="m233.5 39h11v6z"/><path d="m245.5 58-12 1 11-8z"/><path d="m248.5 39 2 18 6-1-3-17z"/><path d="m139.5 45h12l-12 6z"/><path d="m140.5 65 13-2-13-4z"/><path d="m127.5 67 8-1v-22l-7 1z"/></g></g><g><path d="m103.5 129 148-10-3-24-18 1-127 2z" fill="#d68034"/><g fill="#b66624"><path d="m112.5 106v15l7-1-2-14z"/><path d="m122.5 106v13h5l-1-13z"/><path d="m246.5 114h-6v-14h5z"/><path d="m237.5 114-2-14h-7v14z"/><path d="m216.5 108c.135 2.205-24 6-38 6-20.987 0-37.865.205-38-2s20-6 38-6c20.987 0 37.865-.205 38 2z"/></g></g><g><path d="m230.5 96-3-29-149 8 2 29z" fill="#9c6750"/><g fill="#844f3e"><path d="m98.5 81-9 8 15 6 13-7z"/><path d="m123.5 81 95-8 1 6-96 6z"/><path d="m123.5 90 96-7v7l-96 4z"/></g></g><g><path d="m92.5 155 168-3-5-35-158 9z" fill="#f3d544"/><g fill="#d68034"><path d="m106.5 141 14 6 11-8-16-6z"/><path d="m225.5 137 14 6 11-7-11-8z"/><path d="m138.5 136 80-4 2 9-83 1z"/></g></g></g><g><path d="m72.5 146-36 46-36 33 5 9 76-67z" fill="#b66624"/><path d="m426.5 137 39 34 47 32-4 9-90-59z" fill="#b66624"/><path d="m68.5 513h376l-18-376-191 13-163-4 3 263z" fill="#d68034"/><path d="m313.5 490h106l-9-72-95 6z" fill="#b66624"/><g fill="#b66624"><path d="m95.5 493h59l-1-13-57 2z"/><path d="m115.5 472h20l-3-26h9l-17-22-16 24h11z"/></g><g><path d="m153.5 227-6 124 224-9-20-127z" fill="#f4efe3"/><g fill="#d8d1be"><g><path d="m266.5 302v28l9-1v-28z"/><path d="m280.5 301v28l12-1-1-28z"/><path d="m297.5 300v28l8-1-2-27z"/><path d="m308.5 300 1 27 16-1-4-27z"/><path d="m326.5 299 2 27 12-1-5-27z"/><path d="m344.5 324-4-26h4l4 26z"/><path d="m348.5 298 4 26 4-1-5-25z"/></g><g><path d="m171.5 243-2 16 100-4-4-16z"/><path d="m168.5 271 78-2 1 14-79 3z"/></g></g></g><g fill="#b66624"><path d="m172.5 454s10-27 29-27c17 0 27 27 27 27z"/><path d="m196.5 447v27s-1 9-7 9c-3 0-9-8-9-8l-5 5s7 11 14 11c11 0 15-9 15-16s1-28 1-28z"/></g></g></g></svg>