<svg width="20" height="22" viewBox="0 0 20 22" fill="none" xmlns="http://www.w3.org/2000/svg">
<g opacity="0.5">
<path opacity="0.5" d="M19.9663 6.47173C19.9662 6.10277 19.8855 5.77675 19.7223 5.49693C19.562 5.22178 19.3219 4.99116 18.9998 4.80882C16.3416 3.31015 13.6809 1.81606 11.0235 0.315856C10.3071 -0.0885468 9.6125 -0.0738037 8.90141 0.336405C7.84336 0.946523 2.54609 3.914 0.967578 4.80798C0.3175 5.17595 0.00117187 5.73909 0.00101562 6.47104C0 9.48497 0.00101562 12.4988 0 15.5128C0.00015625 15.8737 0.0774219 16.1934 0.233437 16.469C0.393828 16.7525 0.637266 16.9894 0.966719 17.1759C2.54531 18.0699 7.84328 21.0371 8.90109 21.6474C9.6125 22.0578 10.3071 22.0725 11.0237 21.6679C13.6812 20.1677 16.3421 18.6736 19.0007 17.175C19.3302 16.9886 19.5736 16.7515 19.734 16.4682C19.8898 16.1926 19.9672 15.8729 19.9673 15.512C19.9673 15.512 19.9673 9.48573 19.9663 6.47173Z" fill="white"/>
<path opacity="0.5" d="M10.0142 10.9624L0.233398 16.4688C0.393789 16.7523 0.637227 16.9893 0.96668 17.1757C2.54527 18.0697 7.84324 21.037 8.90106 21.6472C9.61246 22.0577 10.3071 22.0723 11.0237 21.6678C13.6811 20.1675 16.3421 18.6735 19.0007 17.1748C19.3301 16.9884 19.5736 16.7513 19.7339 16.4681L10.0142 10.9624Z" fill="#686868"/>
<path opacity="0.5" d="M7.11719 12.5935C7.68633 13.565 8.75625 14.2202 9.98359 14.2202C11.2185 14.2202 12.2945 13.5566 12.8608 12.5747L10.0141 10.9624L7.11719 12.5935Z" fill="#5B5B5B"/>
<path opacity="0.5" d="M19.9668 6.47162C19.9666 6.10267 19.8859 5.77664 19.7227 5.49683L10.0146 10.9625L19.7344 16.4681C19.8902 16.1925 19.9676 15.8728 19.9678 15.5119C19.9678 15.5119 19.9678 9.48563 19.9668 6.47162Z" fill="#686868"/>
<path d="M19.432 11.3561H18.6725V12.0989H17.9128V11.3561H17.1533V10.6135H17.9128V9.87085H18.6725V10.6135H19.432V11.3561Z" fill="white"/>
<path d="M16.6604 11.3561H15.9009V12.0989H15.1414V11.3561H14.3818V10.6135H15.1414V9.87085H15.9009V10.6135H16.6604V11.3561Z" fill="white"/>
<path d="M12.8606 12.5747C12.2943 13.5566 11.2183 14.2202 9.9834 14.2202C8.75605 14.2202 7.68613 13.565 7.11699 12.5935C6.83108 12.106 6.68093 11.5537 6.68152 10.9917C6.68152 9.20874 8.15988 7.76331 9.9834 7.76331C11.2029 7.76331 12.2671 8.4104 12.8391 9.37198L15.7251 7.74704C14.578 5.81088 12.4364 4.5083 9.9834 4.5083C6.32121 4.5083 3.35254 7.41108 3.35254 10.9917C3.35254 12.1664 3.67215 13.268 4.23074 14.2182C5.37496 16.1646 7.5227 17.4752 9.9834 17.4752C12.4486 17.4752 14.5997 16.1594 15.7423 14.2072L12.8606 12.5747Z" fill="white"/>
</g>
</svg>
