<svg width="159" height="160" viewBox="0 0 159 160" fill="none" xmlns="http://www.w3.org/2000/svg">
<g clip-path="url(#clip0)">
<path d="M148.884 47.2535H148.241V48.5335L148.884 49.1735C149.348 55.6468 143.147 59.4201 143.147 59.4201C143.047 55.4001 139.967 54.9401 139.967 54.9401C132.467 53.0001 130.407 61.9868 130.407 61.9868C129.566 69.5201 134.866 69.6735 134.866 69.6735C137.847 70.5068 140.596 67.1135 140.596 67.1135V68.3935L139.96 74.1601C138.463 79.2668 131.679 77.3601 131.679 77.3601C128.737 76.1468 128.499 78.0068 128.499 78.0068C128.83 86.9268 132.958 90.1735 132.958 90.1735C137.814 92.5601 137.416 93.3735 137.416 93.3735C138.456 95.3868 136.138 96.5801 136.138 96.5801C133.991 97.7001 133.594 99.1468 133.594 99.1468C132.746 101.04 136.138 104.907 136.138 104.907C137.41 105.04 138.052 107.473 138.052 107.473C137.741 110.593 134.866 110.673 134.866 110.673C133.978 111.247 132.322 116.44 132.322 116.44C125.743 137.907 103.41 140.96 98.7858 141.367C99.2562 146.52 99.296 153.287 96.6526 155.513C96.6526 155.513 93.8568 159.047 87.106 156.793C87.106 156.793 94.1152 150.953 92.83 135.013C92.83 135.013 90.7961 134.693 89.65 134.373C89.65 134.373 88.1063 159.307 75.0021 160C75.0021 160 69.1323 160.2 67.3568 156.8C67.3568 156.8 81.5078 152.233 85.8273 133.093L83.2833 131.813C83.2833 131.813 74.0878 156.36 58.4396 156.793C58.4396 156.793 52.5632 157.633 48.8863 150.393C48.8863 150.393 67.2376 149.027 80.0901 129.247L77.5461 127.327C77.5461 127.327 58.539 149.433 42.5197 145.9C42.5197 145.9 31.4096 143.46 31.6944 133.733C31.6944 133.733 53.5371 141.053 75.0021 123.487L73.0941 120.287C73.0941 120.287 49.8867 132.22 32.3371 129.253C32.3371 129.253 9.2357 124.807 16.4106 108.113C16.4106 108.113 40.0751 123.847 70.5435 115.8V111.953C70.5435 111.953 11.7598 116.993 10.0439 85.0468C10.0439 85.0468 10.7926 76.5201 14.4959 76.0801C14.4959 76.0801 30.0382 100.06 70.5435 107.473V104.273C70.5435 104.273 13.4757 84.5401 13.2239 49.1735C13.2239 49.1735 13.7142 34.4401 25.3278 36.3601C25.3278 36.3601 26.4077 70.2668 71.8221 99.7868L73.0875 97.2201C73.0875 97.2201 30.3562 70.1135 31.0584 19.0668C31.0584 19.0668 33.5494 -6.89319 52.709 1.76681C52.709 1.76681 40.1413 55.7868 76.2741 92.1001C76.2741 92.1001 81.5145 82.1335 96.6592 82.4868C96.6592 82.4868 120.112 81.5201 122.762 107.473C122.762 107.473 124.802 132.52 97.9246 135.02C97.9246 135.02 98.1697 136.28 98.4281 138.18C121.377 136.533 125.312 113.88 125.312 113.88C128.731 89.0135 106.212 81.2068 106.212 81.2068C88.4906 74.4335 75.6381 87.6068 75.6381 87.6068C58.3998 73.4868 56.5382 45.3335 56.5382 45.3335L60.9968 43.4135C55.3921 39.7068 57.8102 31.8801 57.8102 31.8801C60.7252 34.3135 71.1861 29.9668 71.1861 29.9668C69.6822 24.0001 73.0941 22.9135 73.0941 22.9135C76.1416 22.4935 90.922 22.9135 90.922 22.9135C90.922 16.7201 95.3806 17.1535 95.3806 17.1535C96.858 18.8135 102.39 19.7135 102.39 19.7135C111.44 23.5868 110.671 24.1935 110.671 24.1935C111.135 25.2868 111.943 24.8401 111.943 24.8401C111.844 19.4068 117.674 21.6401 117.674 21.6401C118.257 27.4335 134.23 35.0868 134.23 35.0868C136.568 36.6735 134.23 39.5735 134.23 39.5735L136.774 41.4935H139.324L140.596 42.1335L146.963 42.7735C149.54 43.3935 148.884 47.2601 148.884 47.2601V47.2535ZM101.754 33.1601C101.754 33.1601 98.2161 34.8668 100.475 38.9268C100.475 38.9268 101.469 40.3535 103.662 41.4868C103.662 41.4868 99.1568 33.5001 109.392 35.7201C109.392 35.7201 107.127 31.3201 101.754 33.1601ZM131.686 42.1268H127.227V43.4068L130.407 46.6068L132.958 41.4868L131.686 42.1268Z" fill="url(#paint0_radial)"/>
</g>
<defs>
<radialGradient id="paint0_radial" cx="0" cy="0" r="1" gradientUnits="userSpaceOnUse" gradientTransform="translate(97.0004 110) rotate(-72.646) scale(50.2892 43.6608)">
<stop offset="0.053167" stop-color="#9A0000"/>
<stop offset="0.310815" stop-color="#6F0000"/>
<stop offset="0.527016" stop-color="#680000"/>
<stop offset="0.728432" stop-color="#CADC00"/>
<stop offset="0.941219" stop-color="#929E00"/>
</radialGradient>
<clipPath id="clip0">
<rect width="159" height="160" fill="white"/>
</clipPath>
</defs>
</svg>
