<svg width="18" height="30" viewBox="0 0 18 30" fill="none" xmlns="http://www.w3.org/2000/svg">
<g clip-path="url(#clip0)">
<path d="M5.95482 2.97619H0.00244141V26.7857H5.95482V29.7619L17.8596 26.7857V2.97619L5.95482 0V2.97619ZM1.49054 4.46429H5.95482V25.2976H1.49054V4.46429ZM8.61851 16.0565C8.38042 16.0565 8.16464 15.9325 7.97119 15.6845C7.77774 15.4365 7.68101 15.1438 7.68101 14.8065C7.68101 14.4692 7.77774 14.1741 7.97119 13.9211C8.16464 13.6682 8.38042 13.5417 8.61851 13.5417C8.85661 13.5417 9.0699 13.6657 9.25839 13.9137C9.44689 14.1617 9.54113 14.4593 9.54113 14.8065C9.54113 15.1438 9.44689 15.4365 9.25839 15.6845C9.0699 15.9325 8.85661 16.0565 8.61851 16.0565Z" fill="white"/>
</g>
<defs>
<clipPath id="clip0">
<rect width="18.1" height="30" fill="white"/>
</clipPath>
</defs>
</svg>
