<svg width="24" height="31" viewBox="0 0 24 31" fill="none" xmlns="http://www.w3.org/2000/svg">
<path d="M18.6 11.4399V12.3199C18.6 16.8666 15.7263 20.6066 12.1895 20.6066C8.65262 20.6066 5.77893 16.8666 5.77893 12.3199V11.8066" stroke="black" stroke-miterlimit="10"/>
<path d="M5.77899 3.81335C5.77899 4.03335 15.5053 -1.17331 17.3474 4.84002C17.3474 4.84002 19.9264 6.08668 19.4106 10.34C19.3369 11.0734 19.3369 12.76 18.6 13.4934L16.5369 8.28668C16.5369 8.28668 11.0843 10.34 7.40004 7.84669L5.7053 13.3467C5.7053 13.3467 5.04214 12.3934 4.96846 11.1467C4.96846 11.1467 4.67372 8.21335 5.2632 7.18669C5.41057 7.18669 6.51583 5.28002 5.77899 3.81335V3.81335Z" stroke="black" stroke-width="2" stroke-miterlimit="10" stroke-linejoin="round"/>
<path d="M15.3578 12.98C15.3578 13.5667 14.9157 14.0067 14.3263 14.0067C13.7368 14.0067 13.2947 13.5667 13.2947 12.98C13.2947 12.3934 13.7368 11.9534 14.3263 11.9534C14.9157 11.9534 15.3578 12.3934 15.3578 12.98Z" fill="black"/>
<path d="M11.2316 12.98C11.2316 13.5667 10.7895 14.0067 10.2 14.0067C9.61056 14.0067 9.16846 13.5667 9.16846 12.98C9.16846 12.3934 9.61056 11.9534 10.2 11.9534C10.7895 11.9534 11.2316 12.3934 11.2316 12.98Z" fill="black"/>
<path d="M10.7158 17.16C11.6737 17.6734 12.8527 17.6734 13.8106 17.16" stroke="black" stroke-linecap="round" stroke-linejoin="round"/>
<path d="M1.94739 29.3333V27.6466C1.94739 24.9333 4.6737 22.7333 7.40002 22.7333C10.6421 25.4466 13.8842 25.4466 17.2 22.7333C19.9263 22.7333 22.6526 24.9333 22.6526 27.6466V29.3333" stroke="black" stroke-width="2" stroke-linecap="round" stroke-linejoin="round"/>
</svg>
