<svg width="92" height="92" viewBox="0 0 92 92" fill="none" xmlns="http://www.w3.org/2000/svg">
<rect width="92" height="92" rx="7" fill="white"/>
<path d="M70.1014 75.1382C70.1014 75.1382 72.657 57.2493 57.3237 57.2493C53.245 59.9684 49.7516 61.8467 45.8237 61.839H45.9834C42.0555 61.8467 38.5621 59.9684 34.4834 57.2493C19.1501 57.2493 21.7056 75.1382 21.7056 75.1382" fill="#3F3F3F"/>
<path d="M57.6677 15.5322L45.7716 16.695L34.1821 15.5705L27.231 14.8933L44.9666 11.6605L64.2993 14.8933L57.6677 15.5322Z" fill="#9B9B9A"/>
<path d="M57.6676 15.5331V25.717C57.6676 25.717 49.0809 25.3847 45.9248 29.0903C42.7687 25.3847 34.182 25.717 34.182 25.717V15.5714L45.7714 16.6959L57.6676 15.5331Z" fill="#3F3F3F"/>
<path d="M45.9606 65.6515H45.8213C41.735 65.6119 38.1725 63.7808 33.7744 60.8471C33.6316 60.7554 33.5085 60.6363 33.4122 60.4966C33.3159 60.3568 33.2484 60.1993 33.2137 60.0333C33.1789 59.8672 33.1776 59.6958 33.2098 59.5292C33.2419 59.3626 33.307 59.2041 33.4011 59.0629C33.4952 58.9217 33.6165 58.8007 33.7579 58.7069C33.8992 58.613 34.0579 58.5483 34.2246 58.5165C34.3912 58.4846 34.5626 58.4863 34.7286 58.5214C34.8946 58.5565 35.052 58.6243 35.1915 58.7208C39.2203 61.408 42.4237 63.0781 45.9031 63.0972C49.3812 63.0793 52.5833 61.408 56.6147 58.7208C56.7542 58.6243 56.9116 58.5565 57.0776 58.5214C57.2436 58.4863 57.415 58.4846 57.5816 58.5165C57.7483 58.5483 57.907 58.613 58.0483 58.7069C58.1897 58.8007 58.311 58.9217 58.4051 59.0629C58.4992 59.2041 58.5643 59.3626 58.5964 59.5292C58.6286 59.6958 58.6273 59.8672 58.5925 60.0333C58.5578 60.1993 58.4903 60.3568 58.394 60.4966C58.2977 60.6363 58.1746 60.7554 58.0318 60.8471C53.6324 63.7808 50.0699 65.6119 45.9849 65.6515H45.9593H45.9606Z" fill="white"/>
<path d="M33.9607 25.6812C33.054 27.2841 32.3713 29.0039 31.9316 30.7923L31.8958 30.8804C31.8958 30.8804 36.9814 31.8822 42.0682 26.9462L42.1142 26.8158C38.4483 25.5432 34.022 25.7169 34.022 25.7169" fill="#3F3F3F"/>
<path d="M57.516 25.7157C57.516 25.7157 53.1614 25.4588 49.4341 26.872L49.4699 26.9462C54.5554 31.8822 59.641 30.8804 59.641 30.8804L59.6282 30.883C59.1894 29.0622 58.4992 27.3115 57.5774 25.6812" fill="#3F3F3F"/>
<path d="M59.4687 30.9062C58.5692 31.0263 54.0254 31.3687 49.4689 26.9464L49.4331 26.8723L49.4612 26.862C48.0684 27.3604 46.7906 28.0721 45.9243 29.0892C43.2806 25.9842 36.847 25.7159 34.8242 25.7095C36.2643 25.7235 39.3961 25.8717 42.114 26.816L42.068 26.9464C37.5127 31.3675 32.9676 31.0263 32.0681 30.9062C31.543 32.8182 31.2782 34.7923 31.281 36.775C31.281 46.7762 37.767 54.885 45.7684 54.885C53.7699 54.885 60.2571 46.7762 60.2571 36.775C60.2571 34.7178 59.976 32.7462 59.4687 30.9062Z" fill="#DADADA"/>
<path d="M53.5915 34.4378C53.5913 35.116 53.3218 35.7662 52.8422 36.2456C52.3626 36.725 51.7122 36.9942 51.034 36.994C50.3559 36.9939 49.7057 36.7243 49.2263 36.2447C48.7469 35.7651 48.4777 35.1147 48.4778 34.4366C48.478 33.7585 48.7476 33.1082 49.2272 32.6288C49.7068 32.1494 50.3572 31.8802 51.0353 31.8804C51.7134 31.8805 52.3637 32.1501 52.8431 32.6297C53.3225 33.1093 53.5917 33.7597 53.5915 34.4378Z" fill="black"/>
<path d="M43.3695 34.4378C43.3693 35.116 43.0998 35.7662 42.6201 36.2456C42.1405 36.725 41.4901 36.9942 40.812 36.994C40.1339 36.9939 39.4836 36.7243 39.0042 36.2447C38.5248 35.7651 38.2556 35.1147 38.2558 34.4366C38.2559 34.1008 38.3221 33.7683 38.4507 33.4582C38.5792 33.148 38.7676 32.8662 39.0051 32.6288C39.2426 32.3914 39.5245 32.2032 39.8348 32.0748C40.145 31.9463 40.4775 31.8803 40.8133 31.8804C41.149 31.8805 41.4815 31.9467 41.7917 32.0752C42.1019 32.2038 42.3837 32.3922 42.621 32.6297C42.8584 32.8672 43.0467 33.1491 43.1751 33.4593C43.3035 33.7696 43.3696 34.1021 43.3695 34.4378Z" fill="black"/>
<path d="M45.924 47.22C44.4533 47.22 42.9813 46.8545 41.5195 46.1236C41.3693 46.0485 41.2354 45.9446 41.1254 45.8178C41.0153 45.6909 40.9314 45.5436 40.8783 45.3843C40.8252 45.225 40.804 45.0569 40.8159 44.8894C40.8278 44.7219 40.8726 44.5584 40.9477 44.4082C41.0228 44.258 41.1267 44.1241 41.2535 44.0141C41.3804 43.9041 41.5277 43.8201 41.687 43.767C41.8462 43.7139 42.0144 43.6927 42.1819 43.7046C42.3494 43.7165 42.5129 43.7613 42.6631 43.8364C44.857 44.9353 46.9909 44.9353 49.1861 43.8364C49.4894 43.6847 49.8406 43.6598 50.1623 43.767C50.484 43.8743 50.7499 44.1049 50.9016 44.4082C51.0532 44.7115 51.0782 45.0626 50.9709 45.3843C50.8637 45.706 50.6331 45.972 50.3297 46.1236C48.868 46.8545 47.396 47.22 45.924 47.22Z" fill="black"/>
<path d="M58.9429 25.2637C58.2145 23.9476 57.3584 22.7465 56.3873 21.6987V24.446C56.1062 24.446 55.774 24.4587 55.4162 24.4843C56.004 25.251 56.5279 26.0943 56.9879 26.9887C58.3423 29.6337 59.1345 32.7898 59.1345 36.1759C59.1345 45.4654 53.2056 53.0171 45.9223 53.0171C38.639 53.0171 32.7101 45.4654 32.7101 36.1759C32.7101 32.7771 33.5023 29.621 34.8695 26.976C35.3295 26.0815 35.8534 25.251 36.4284 24.4843C36.0707 24.4587 35.7384 24.446 35.4573 24.446V21.6987C34.499 22.7465 33.6301 23.9476 32.9018 25.2637C31.164 28.3687 30.1545 32.1254 30.1545 36.1759C30.1545 46.8709 37.2334 55.5726 45.9223 55.5726C54.624 55.5726 61.6901 46.8709 61.6901 36.1759C61.6901 32.1254 60.6806 28.3687 58.9429 25.2637Z" fill="black"/>
<path d="M27.2299 14.8943L34.181 15.5715L45.7704 16.696L57.6665 15.5332L64.2982 14.8943" stroke="black" stroke-width="2" stroke-miterlimit="10" stroke-linecap="round" stroke-linejoin="round"/>
<path d="M46.9446 29.8632C46.9191 29.876 46.9063 29.9016 46.8935 29.9143C46.7274 30.1188 46.523 30.2466 46.293 30.3105C46.2418 30.336 46.1907 30.3488 46.1396 30.3488C46.063 30.3743 45.9991 30.3743 45.9224 30.3743C45.8457 30.3743 45.7691 30.3743 45.7052 30.3488C45.6541 30.3488 45.603 30.336 45.5519 30.3105C45.3819 30.2658 45.2246 30.1828 45.0919 30.0677C45.0183 30.0093 44.9537 29.9404 44.9002 29.8632C42.7919 27.4866 37.4252 26.9882 34.8696 26.9755C34.6269 26.9755 34.4096 26.9882 34.2307 26.9882C34.0599 26.9976 33.889 26.9719 33.7286 26.9125C33.5681 26.8532 33.4216 26.7615 33.298 26.6432C33.1729 26.5248 33.0733 26.3822 33.0052 26.224C32.9371 26.0658 32.9019 25.8954 32.9019 25.7232V14.9005C32.9019 14.1849 33.4769 13.6227 34.1796 13.6227C34.8824 13.6227 35.4574 14.1849 35.4574 14.9005V24.4455C35.7385 24.4455 36.0707 24.4582 36.4285 24.4838C39.0352 24.6371 43.2774 25.2121 45.9224 27.346C46.2802 27.6143 46.5996 27.921 46.8935 28.266C47.2896 28.726 47.3024 29.3905 46.9446 29.8632Z" fill="black"/>
<path d="M58.9434 14.9005V25.7232C58.9434 26.0682 58.8029 26.4005 58.5601 26.6432C58.3045 26.8732 57.9979 27.001 57.6145 27.001C57.4356 26.9882 57.2184 26.9882 56.9884 26.9882C54.4201 26.9882 49.0406 27.4738 46.9451 29.8632C46.9195 29.876 46.9068 29.9016 46.894 29.9143C46.7279 30.1188 46.5234 30.2466 46.2934 30.3105C46.2423 30.336 46.1912 30.3488 46.1401 30.3488C46.0634 30.3743 45.9995 30.3743 45.9229 30.3743C45.8462 30.3743 45.7695 30.3743 45.7057 30.3488C45.6545 30.3488 45.6034 30.336 45.5523 30.3105C45.3824 30.2658 45.225 30.1828 45.0923 30.0677C45.0188 30.0093 44.9542 29.9404 44.9006 29.8632C44.725 29.6314 44.6342 29.3463 44.6435 29.0556C44.6528 28.7649 44.7616 28.4861 44.9518 28.266C45.2457 27.921 45.5651 27.6143 45.9229 27.346C48.5679 25.2121 52.8101 24.6371 55.4168 24.4838C55.7745 24.4582 56.1068 24.4455 56.3879 24.4455V14.9005C56.3879 14.1849 56.9629 13.6227 57.6656 13.6227C58.3684 13.6227 58.9434 14.1849 58.9434 14.9005Z" fill="black"/>
<path d="M64.2982 14.8933L44.9654 11.6605L27.2299 14.8933" stroke="black" stroke-width="2" stroke-miterlimit="10" stroke-linecap="round" stroke-linejoin="round"/>
<path d="M27.2322 26.8335C26.8933 26.8335 26.5683 26.6988 26.3287 26.4592C26.089 26.2196 25.9544 25.8946 25.9544 25.5557V15.1801C25.9544 14.8412 26.089 14.5162 26.3287 14.2766C26.5683 14.037 26.8933 13.9023 27.2322 13.9023C27.5711 13.9023 27.8961 14.037 28.1357 14.2766C28.3753 14.5162 28.51 14.8412 28.51 15.1801V25.5557C28.51 25.8946 28.3753 26.2196 28.1357 26.4592C27.8961 26.6988 27.5711 26.8335 27.2322 26.8335Z" fill="black"/>
<path d="M24.6417 30.1295C24.4019 30.1297 24.1668 30.0624 23.9635 29.9352C23.7602 29.8079 23.5968 29.626 23.4921 29.4102C23.3874 29.1944 23.3456 28.9535 23.3716 28.7151C23.3975 28.4766 23.49 28.2503 23.6386 28.0621L26.2274 24.7654C26.4369 24.4989 26.7436 24.3265 27.0801 24.2861C27.4167 24.2457 27.7555 24.3407 28.0221 24.5501C28.2886 24.7595 28.461 25.0663 28.5014 25.4028C28.5418 25.7394 28.4468 26.0782 28.2374 26.3448L25.6473 29.6414C25.5278 29.7938 25.3751 29.917 25.2008 30.0015C25.0266 30.0861 24.8354 30.1299 24.6417 30.1295Z" fill="black"/>
<path d="M27.2322 32.0753C26.8933 32.0753 26.5683 31.9407 26.3287 31.7011C26.089 31.4614 25.9544 31.1364 25.9544 30.7976V25.5587C25.9544 25.2198 26.089 24.8948 26.3287 24.6551C26.5683 24.4155 26.8933 24.2809 27.2322 24.2809C27.5711 24.2809 27.8961 24.4155 28.1357 24.6551C28.3753 24.8948 28.51 25.2198 28.51 25.5587V30.7976C28.51 31.1364 28.3753 31.4614 28.1357 31.7011C27.8961 31.9407 27.5711 32.0753 27.2322 32.0753Z" fill="black"/>
<path d="M58.6417 32.2415C56.6049 32.2415 52.6515 31.6665 48.7351 27.8639C48.6131 27.7474 48.5154 27.608 48.4475 27.4536C48.3797 27.2992 48.3431 27.1329 48.3398 26.9643C48.3365 26.7957 48.3666 26.6282 48.4284 26.4713C48.4902 26.3144 48.5825 26.1712 48.6998 26.0502C48.8172 25.9291 48.9574 25.8324 49.1123 25.7658C49.2672 25.6991 49.4338 25.6638 49.6024 25.6618C49.771 25.6599 49.9384 25.6913 50.0948 25.7543C50.2512 25.8173 50.3936 25.9107 50.5138 26.029C55.0141 30.3977 59.3764 29.6604 59.5579 29.6259C59.8899 29.5656 60.2323 29.6385 60.511 29.8289C60.7896 30.0193 60.982 30.3118 61.0465 30.643C61.1107 30.9737 61.0412 31.3164 60.8531 31.5959C60.6651 31.8754 60.3739 32.069 60.0434 32.1342C59.9757 32.147 59.4646 32.2415 58.6417 32.2415Z" fill="black"/>
<path d="M33.2084 32.242C32.7384 32.2491 32.2688 32.2132 31.8054 32.1347C31.4794 32.0636 31.1941 31.8677 31.0106 31.5891C30.8271 31.3104 30.7599 30.971 30.8233 30.6434C30.8867 30.3159 31.0757 30.0261 31.35 29.836C31.6242 29.646 31.9619 29.5708 32.2909 29.6264C32.4979 29.6647 36.8488 30.3854 41.335 26.0295C41.5789 25.7967 41.905 25.6697 42.2421 25.6763C42.5792 25.6828 42.9001 25.8223 43.1347 26.0644C43.3694 26.3065 43.4989 26.6316 43.4949 26.9687C43.491 27.3059 43.354 27.6278 43.1137 27.8644C39.1973 31.6657 35.2439 32.242 33.2071 32.242H33.2084Z" fill="black"/>
<path d="M69.969 75.1377C69.7849 75.1379 69.6029 75.0984 69.4354 75.0217C69.268 74.945 69.1191 74.8331 68.999 74.6935C68.8788 74.554 68.7903 74.3901 68.7394 74.2131C68.6885 74.0362 68.6764 73.8503 68.704 73.6682C68.7143 73.5954 69.7607 66.3338 65.9824 61.9421C64.0976 59.7507 61.2686 58.6032 57.5682 58.5304C53.3388 61.3236 49.8645 63.0627 45.9072 63.1176H45.6286C41.6675 63.0627 38.1971 61.3236 33.9676 58.5304C30.2659 58.6032 27.4382 59.7507 25.5522 61.9421C21.7751 66.3325 22.8203 73.5954 22.8318 73.6682C22.8723 73.998 22.7827 74.3305 22.5821 74.5954C22.3815 74.8602 22.0856 75.0365 21.7572 75.0869C21.4288 75.1372 21.0937 75.0577 20.823 74.8651C20.5522 74.6726 20.3671 74.3821 20.3069 74.0554C20.2533 73.7104 19.0637 65.5799 23.6036 60.2873C26.0608 57.4238 29.6756 55.9723 34.3471 55.9723C34.5991 55.9725 34.8454 56.0472 35.055 56.187C39.0851 58.8728 42.2873 60.5442 45.7666 60.5621C49.2448 60.5455 52.4481 58.8728 56.4783 56.187C56.6878 56.0464 56.9357 55.9723 57.1874 55.9723C61.859 55.9723 65.4725 57.4226 67.9297 60.2873C72.4709 65.5799 71.28 73.7117 71.2276 74.0554C71.1813 74.3564 71.0288 74.631 70.7978 74.8295C70.5667 75.0279 70.2723 75.1373 69.9678 75.1377H69.969Z" fill="black"/>
</svg>
