<svg width="92" height="92" viewBox="0 0 92 92" fill="none" xmlns="http://www.w3.org/2000/svg">
<rect width="92" height="92" rx="15" fill="white"/>
<path d="M80.9309 48.0144L79.2059 21.9957L67.2746 29.3269C61.3809 28.3207 59.7996 28.3207 55.1996 26.0207C52.4684 24.7269 49.0184 25.5894 47.2934 26.5957C44.7059 23.8644 27.8871 27.8894 26.0184 28.7519C20.9871 27.3144 13.5121 21.4207 13.5121 21.4207L11.0684 50.8894L14.3746 51.7519C14.6621 52.7582 15.5246 55.2019 15.5246 55.2019C12.3621 59.2269 16.0996 63.9707 19.6934 62.3894C18.1121 66.4144 22.2809 70.1519 25.5871 67.5644C25.1559 71.3019 29.0371 74.0332 31.9121 71.4457C30.6184 75.9019 35.6496 79.2082 38.6684 75.6144C40.8246 77.0519 42.8371 78.2019 44.5621 78.7769C47.5809 80.0707 50.8871 77.1957 50.3121 73.6019C53.7621 77.6269 58.9371 73.7457 57.7871 69.2894C61.6684 72.3082 66.4121 67.2769 63.9684 62.8207C68.2809 65.2644 72.0184 58.6519 67.8496 54.3394L80.9309 48.0144Z" fill="#DADADA"/>
<path d="M19.9809 52.1804C22.1371 53.1867 23.5746 56.4929 21.2746 59.3679L20.2684 60.5179C19.1184 61.9554 17.9684 62.3867 16.8184 62.3867C17.6809 62.8179 18.6871 62.8179 19.6934 62.3867C19.8371 61.9554 20.1246 61.3804 20.5559 60.9492L21.5621 59.7992C22.1371 59.0804 22.8559 58.5054 23.4309 58.2179C24.5809 55.1992 22.5684 52.3242 19.9809 52.1804Z" fill="#9C9C9C"/>
<path d="M36.5121 66.4122C38.8121 66.9872 40.5371 70.006 38.8121 73.3122L37.9496 74.606C37.0871 76.1872 35.9371 76.906 34.7871 77.0497C36.3684 77.481 38.0934 76.906 39.2434 74.7497L40.1059 73.456C42.1184 69.431 39.3871 66.1247 36.5121 66.4122Z" fill="#9C9C9C"/>
<path d="M26.3053 65.2636L28.6053 61.6698C28.4616 59.6573 26.7366 57.9323 25.0116 57.7886C27.1678 58.7948 28.6053 62.1011 26.3053 64.9761L25.2991 66.1261C24.1491 67.5636 22.9991 67.9948 21.7053 67.9948C22.8553 68.5698 24.1491 68.4261 25.4428 67.5636C25.5866 66.8448 25.8741 65.9823 26.3053 65.2636Z" fill="#9C9C9C"/>
<path d="M32.4871 58.794C34.7871 59.5127 36.3684 62.6752 34.3559 65.8377L31.6246 70.1502C30.6184 71.7315 29.4684 72.3065 28.3184 72.3065C29.7559 72.7377 31.6246 72.3065 32.9184 70.294L35.6496 65.9815C37.9496 62.244 35.3621 58.6502 32.4871 58.794Z" fill="#9C9C9C"/>
<path d="M51.6064 62.3858C51.7502 62.3858 53.4751 62.0983 54.0501 62.0983C51.8939 59.9421 48.4439 61.6671 46.4314 60.5171C47.8689 62.9608 50.8876 62.3858 51.1751 62.3858L54.6251 66.8421C57.5001 70.4358 55.2001 74.6046 52.1814 75.0358C55.3439 76.0421 58.5064 72.7358 57.5001 69.1421C57.3564 68.9983 51.6064 62.3858 51.6064 62.3858Z" fill="#9C9C9C"/>
<path d="M55.0564 54.0511C55.0564 54.0511 57.2126 53.6198 59.0814 53.6198C56.9251 51.8948 53.6189 53.4761 51.4626 52.0386C52.3251 53.9073 54.1939 53.9073 54.7689 53.9073L61.3814 61.5261C64.4001 64.9761 62.2439 69.1448 59.2251 69.8636C62.6751 70.8698 65.9814 66.4136 63.8251 62.5323C62.3876 62.1011 55.0564 54.0511 55.0564 54.0511Z" fill="#9C9C9C"/>
<path d="M50.4553 70.5823C48.2991 68.8573 45.2803 70.1511 43.9866 69.2886C44.7053 71.3011 47.4366 70.8698 47.5803 70.8698C50.0241 74.6073 47.4366 78.4886 44.4178 78.7761C47.4366 80.0698 50.7428 77.1948 50.1678 73.6011C50.0241 73.4573 48.0116 70.8698 48.0116 70.8698C48.2991 70.7261 49.8803 70.5823 50.4553 70.5823Z" fill="#9C9C9C"/>
<path d="M79.35 45.5679C79.35 45.5679 76.9062 50.5992 67.4187 53.3304C66.125 51.7492 63.3937 48.5867 60.2313 45.8554C62.2437 45.4242 63.25 43.8429 64.8312 43.5554C64.2562 42.9804 62.2437 43.2679 60.6625 43.8429C57.7875 44.8492 51.175 40.2492 51.175 40.2492L45.7125 40.9679C41.8312 44.7054 33.4937 46.7179 33.0625 40.9679C32.775 36.9429 41.5437 34.2117 44.275 31.6242C47.725 28.3179 50.7437 24.1492 56.35 27.0242C60.95 29.3242 62.8187 29.1804 69.1437 30.3304C71.3 30.7617 72.7375 31.7679 74.3187 33.9242C73.025 30.9054 71.1562 29.6117 68.8562 29.1804L78.9187 24.4367L79.0625 21.9929L67.1312 28.7492C61.6687 27.8867 59.6562 27.8867 55.2 25.7304C52.325 24.2929 50.025 24.7242 48.1562 25.8742C44.7062 23.8617 42.6937 24.2929 41.4 24.5804C37.375 25.8742 30.9062 26.0179 25.1562 28.3179C26.1625 28.6054 27.1687 28.8929 27.8875 28.8929C33.4937 27.1679 39.3875 27.3117 42.1187 26.3054C42.9812 26.0179 44.7063 26.0179 46.575 27.0242C45.425 28.0304 44.4187 29.1804 43.2687 30.3304C40.5375 32.9179 32.2 36.6554 32.775 41.3992C33.0625 43.6992 36.225 49.7367 46.7187 42.9804L51.175 42.4054C51.175 42.4054 59.3687 46.2867 66.9875 55.1992C70.0062 58.6492 68.1375 62.3867 65.1187 63.2492C69 63.9679 72.3062 58.5054 68.5687 54.7679L77.625 49.8804L79.35 45.5679Z" fill="#9C9C9C"/>
<path d="M76.7619 23.4304L81.5057 48.0117L77.6244 49.7367C75.6119 44.4179 72.5932 31.6242 73.3119 25.4429L76.7619 23.4304Z" fill="#9B9B9A"/>
<path d="M15.9568 54.625C15.238 52.9 14.8068 50.6 14.8068 50.6L11.213 48.1562L10.9255 50.8875L14.088 51.75C14.5193 53.1875 14.9505 54.3375 15.5255 55.2L15.9568 54.625Z" fill="#9C9C9C"/>
<path d="M8.76929 50.4582L16.5318 23.5769L20.1255 26.0207C20.7005 30.0457 14.088 48.4457 11.6443 51.1769L8.76929 50.4582Z" fill="#9B9B9A"/>
<path d="M76.6193 23.2883C75.4693 24.0071 79.6381 48.8758 81.3631 48.1571C86.8256 45.7133 89.2693 44.9946 89.2693 44.9946V15.3821C89.1256 15.3821 85.8193 17.8258 76.6193 23.2883Z" fill="black"/>
<path d="M2.875 12.9375V49.5938C2.875 49.5938 5.4625 50.025 8.76875 50.7438C10.6375 51.175 17.3938 24.15 16.9625 23.7188C12.075 20.4125 2.875 12.9375 2.875 12.9375Z" fill="black"/>
</svg>
