<svg width="92" height="92" viewBox="0 0 92 92" fill="none" xmlns="http://www.w3.org/2000/svg">
<rect width="92" height="92" rx="15" fill="white"/>
<path d="M80.8333 41.6667H73.1667V18.6667H77V11H15.6667V18.6667H19.5V41.6667H11.8333C10.8167 41.6667 9.84165 42.0705 9.12276 42.7894C8.40387 43.5083 8 44.4833 8 45.5V80H84.6667V45.5C84.6667 44.4833 84.2628 43.5083 83.5439 42.7894C82.825 42.0705 81.85 41.6667 80.8333 41.6667ZM54 72.3333V57H38.6667V72.3333H27.1667V18.6667H65.5V72.3333H54Z" fill="black"/>
<path d="M34.833 26.332H42.4997V33.9987H34.833V26.332ZM50.1663 26.332H57.833V33.9987H50.1663V26.332ZM34.833 41.6654H42.4997V49.332H34.833V41.6654ZM50.1663 41.6654H57.833V49.332H50.1663V41.6654Z" fill="#585858"/>
</svg>
