<svg width="22" height="29" viewBox="0 0 22 29" fill="none" xmlns="http://www.w3.org/2000/svg">
<path d="M14.1358 11.2241C14.1357 11.5042 14.0244 11.7728 13.8263 11.9708C13.6282 12.1688 13.3595 12.28 13.0794 12.2799C12.7993 12.2798 12.5308 12.1685 12.3328 11.9704C12.1348 11.7723 12.0236 11.5036 12.0236 11.2235C12.0237 10.9435 12.135 10.6749 12.3331 10.4769C12.5312 10.2789 12.7999 10.1677 13.08 10.1677C13.3601 10.1678 13.6286 10.2791 13.8267 10.4772C14.0247 10.6753 14.1359 10.944 14.1358 11.2241Z" fill="black"/>
<path d="M9.91362 11.2241C9.91355 11.5042 9.80222 11.7728 9.60412 11.9708C9.40601 12.1688 9.13736 12.28 8.85727 12.2799C8.57718 12.2798 8.30859 12.1685 8.11059 11.9704C7.91258 11.7723 7.80138 11.5036 7.80145 11.2235C7.80149 11.0849 7.82884 10.9475 7.88194 10.8194C7.93505 10.6913 8.01287 10.5749 8.11096 10.4769C8.20905 10.3788 8.32549 10.3011 8.45363 10.248C8.58178 10.195 8.71911 10.1677 8.8578 10.1677C8.99649 10.1678 9.13381 10.1951 9.26193 10.2482C9.39004 10.3013 9.50645 10.3791 9.60449 10.4772C9.70253 10.5753 9.78029 10.6918 9.83333 10.8199C9.88637 10.9481 9.91366 11.0854 9.91362 11.2241Z" fill="black"/>
<path d="M10.9686 16.5035C10.3611 16.5035 9.75313 16.3525 9.14936 16.0507C9.08733 16.0196 9.03201 15.9767 8.98657 15.9243C8.94113 15.8719 8.90645 15.8111 8.88452 15.7453C8.86259 15.6795 8.85383 15.61 8.85875 15.5409C8.86367 15.4717 8.88216 15.4041 8.91318 15.3421C8.94419 15.2801 8.98712 15.2248 9.03951 15.1793C9.09191 15.1339 9.15274 15.0992 9.21853 15.0773C9.28433 15.0553 9.3538 15.0466 9.42298 15.0515C9.49215 15.0564 9.55969 15.0749 9.62172 15.1059C10.5279 15.5598 11.4093 15.5598 12.316 15.1059C12.4413 15.0433 12.5863 15.033 12.7192 15.0773C12.8521 15.1216 12.9619 15.2168 13.0246 15.3421C13.0872 15.4674 13.0975 15.6124 13.0532 15.7453C13.0089 15.8782 12.9137 15.988 12.7884 16.0507C12.1846 16.3525 11.5766 16.5035 10.9686 16.5035Z" fill="black"/>
<path d="M16.3462 7.43405C16.0453 6.89044 15.6917 6.39433 15.2906 5.96155V7.09627C15.1745 7.09627 15.0373 7.10155 14.8895 7.1121C15.1323 7.42877 15.3487 7.7771 15.5387 8.14655C16.0981 9.23905 16.4253 10.5427 16.4253 11.9413C16.4253 15.7782 13.9764 18.8974 10.9681 18.8974C7.95977 18.8974 5.51088 15.7782 5.51088 11.9413C5.51088 10.5374 5.8381 9.23377 6.40282 8.14127C6.59282 7.77183 6.80921 7.42877 7.04671 7.1121C6.89893 7.10155 6.76171 7.09627 6.6456 7.09627V5.96155C6.24977 6.39433 5.89088 6.89044 5.59004 7.43405C4.87227 8.71655 4.45532 10.2682 4.45532 11.9413C4.45532 16.3588 7.37921 19.9529 10.9681 19.9529C14.5623 19.9529 17.4809 16.3588 17.4809 11.9413C17.4809 10.2682 17.0639 8.71655 16.3462 7.43405Z" fill="black"/>
<path d="M3.24731 3.15125L6.11842 3.43097L10.9054 3.89541L15.819 3.41513L18.5581 3.15125" stroke="black" stroke-width="2" stroke-miterlimit="10" stroke-linecap="round" stroke-linejoin="round"/>
<path d="M11.3904 9.33415C11.3799 9.33943 11.3746 9.34999 11.3693 9.35526C11.3007 9.43971 11.2163 9.49249 11.1213 9.51888C11.1001 9.52943 11.079 9.53471 11.0579 9.53471C11.0263 9.54526 10.9999 9.54527 10.9682 9.54527C10.9365 9.54527 10.9049 9.54526 10.8785 9.53471C10.8574 9.53471 10.8363 9.52943 10.8151 9.51888C10.745 9.50045 10.68 9.46614 10.6251 9.4186C10.5948 9.39447 10.5681 9.36602 10.546 9.33415C9.67515 8.35249 7.45848 8.14665 6.40293 8.14138C6.30265 8.14138 6.21293 8.14665 6.13904 8.14665C6.06848 8.15054 5.99789 8.13989 5.93161 8.11538C5.86534 8.09087 5.80481 8.05301 5.75376 8.00415C5.7021 7.95525 5.66096 7.89633 5.63283 7.831C5.6047 7.76567 5.59018 7.69529 5.59015 7.62415V3.15388C5.59015 2.85832 5.82765 2.6261 6.11793 2.6261C6.4082 2.6261 6.6457 2.85832 6.6457 3.15388V7.09638C6.76182 7.09638 6.89904 7.10165 7.04682 7.11221C8.12348 7.17554 9.8757 7.41304 10.9682 8.29443C11.116 8.40526 11.2479 8.53193 11.3693 8.67443C11.5329 8.86443 11.5382 9.13888 11.3904 9.33415Z" fill="black"/>
<path d="M16.3463 3.15388V7.62415C16.3463 7.76665 16.2882 7.90388 16.1879 8.00415C16.0824 8.09915 15.9557 8.15193 15.7974 8.15193C15.7235 8.14665 15.6338 8.14665 15.5388 8.14665C14.4779 8.14665 12.256 8.34721 11.3904 9.33415C11.3799 9.33943 11.3746 9.34999 11.3693 9.35526C11.3007 9.43971 11.2163 9.49249 11.1213 9.51888C11.1001 9.52943 11.079 9.53471 11.0579 9.53471C11.0263 9.54526 10.9999 9.54527 10.9682 9.54527C10.9365 9.54527 10.9049 9.54526 10.8785 9.53471C10.8574 9.53471 10.8363 9.52943 10.8152 9.51888C10.745 9.50045 10.68 9.46614 10.6252 9.4186C10.5948 9.39447 10.5681 9.36602 10.546 9.33415C10.4734 9.2384 10.4359 9.12064 10.4398 9.00056C10.4436 8.88048 10.4886 8.76536 10.5671 8.67443C10.6885 8.53193 10.8204 8.40526 10.9682 8.29443C12.0607 7.41304 13.8129 7.17554 14.8896 7.11221C15.0374 7.10165 15.1746 7.09638 15.2907 7.09638V3.15388C15.2907 2.85832 15.5282 2.6261 15.8185 2.6261C16.1088 2.6261 16.3463 2.85832 16.3463 3.15388Z" fill="black"/>
<path d="M18.5581 3.1512L10.5729 1.81592L3.24731 3.1512" stroke="black" stroke-width="2" stroke-miterlimit="10" stroke-linecap="round" stroke-linejoin="round"/>
<path d="M3.24824 8.0833C3.10826 8.0833 2.97402 8.02769 2.87504 7.92872C2.77606 7.82974 2.72046 7.6955 2.72046 7.55552V3.26997C2.72046 3.12999 2.77606 2.99575 2.87504 2.89677C2.97402 2.79779 3.10826 2.74219 3.24824 2.74219C3.38821 2.74219 3.52246 2.79779 3.62143 2.89677C3.72041 2.99575 3.77602 3.12999 3.77602 3.26997V7.55552C3.77602 7.6955 3.72041 7.82974 3.62143 7.92872C3.52246 8.02769 3.38821 8.0833 3.24824 8.0833Z" fill="black"/>
<path d="M2.17811 9.44495C2.07904 9.44503 1.98195 9.41721 1.89797 9.36466C1.81399 9.31212 1.74652 9.23697 1.70327 9.14784C1.66003 9.05872 1.64277 8.95921 1.65348 8.86072C1.66418 8.76224 1.70242 8.66876 1.7638 8.591L2.83308 7.22933C2.91958 7.11924 3.04628 7.04803 3.18529 7.03135C3.32431 7.01467 3.46425 7.0539 3.57434 7.1404C3.68443 7.22691 3.75565 7.3536 3.77233 7.49262C3.78901 7.63163 3.74978 7.77158 3.66327 7.88167L2.59347 9.24334C2.54409 9.30628 2.48102 9.35715 2.40905 9.39208C2.33709 9.42701 2.2581 9.44509 2.17811 9.44495Z" fill="black"/>
<path d="M3.24824 10.2478C3.10826 10.2478 2.97402 10.1922 2.87504 10.0932C2.77606 9.9942 2.72046 9.85996 2.72046 9.71999V7.5561C2.72046 7.41612 2.77606 7.28188 2.87504 7.1829C2.97402 7.08393 3.10826 7.02832 3.24824 7.02832C3.38821 7.02832 3.52246 7.08393 3.62143 7.1829C3.72041 7.28188 3.77602 7.41612 3.77602 7.5561V9.71999C3.77602 9.85996 3.72041 9.9942 3.62143 10.0932C3.52246 10.1922 3.38821 10.2478 3.24824 10.2478Z" fill="black"/>
<path d="M16.2217 10.3169C15.3804 10.3169 13.7474 10.0794 12.1298 8.50869C12.0794 8.4606 12.0391 8.40301 12.011 8.33924C11.983 8.27548 11.9679 8.20679 11.9665 8.13715C11.9652 8.06751 11.9776 7.99829 12.0031 7.93349C12.0287 7.86868 12.0668 7.80957 12.1153 7.75955C12.1637 7.70954 12.2216 7.66962 12.2856 7.64209C12.3496 7.61456 12.4184 7.59997 12.488 7.59916C12.5577 7.59834 12.6268 7.61132 12.6914 7.63735C12.756 7.66338 12.8148 7.70193 12.8645 7.7508C14.7233 9.55527 16.5251 9.25074 16.6001 9.23649C16.7372 9.21157 16.8787 9.2417 16.9938 9.32033C17.1088 9.39897 17.1883 9.51979 17.215 9.65661C17.2415 9.7932 17.2128 9.93473 17.1351 10.0502C17.0574 10.1656 16.9372 10.2456 16.8006 10.2725C16.7727 10.2778 16.5616 10.3169 16.2217 10.3169Z" fill="black"/>
<path d="M5.71675 10.3169C5.52263 10.3198 5.32866 10.305 5.13725 10.2726C5.0026 10.2432 4.88479 10.1623 4.80899 10.0472C4.73319 9.93211 4.70541 9.79192 4.73161 9.65662C4.7578 9.52131 4.83588 9.40162 4.94915 9.32312C5.06243 9.24463 5.20192 9.21355 5.3378 9.23654C5.4233 9.25237 7.22039 9.55004 9.07341 7.75085C9.17416 7.65469 9.30883 7.60225 9.44807 7.60496C9.58731 7.60766 9.71984 7.6653 9.81677 7.76529C9.9137 7.86529 9.96718 7.99955 9.96555 8.1388C9.96393 8.27806 9.90732 8.41103 9.80808 8.50873C8.19044 10.0789 6.5575 10.3169 5.71622 10.3169H5.71675Z" fill="black"/>
<path d="M20.9004 28.0348C20.8243 28.0349 20.7492 28.0185 20.68 27.9869C20.6108 27.9552 20.5494 27.909 20.4997 27.8513C20.4501 27.7937 20.4135 27.726 20.3925 27.6529C20.3715 27.5798 20.3665 27.503 20.3779 27.4278C20.3821 27.3978 20.8144 24.3984 19.2537 22.5844C18.4753 21.6793 17.3068 21.2053 15.7783 21.1753C14.0314 22.329 12.5964 23.0473 10.9618 23.07H10.8468C9.21066 23.0473 7.77721 22.329 6.03027 21.1753C4.5013 21.2053 3.33332 21.6793 2.55432 22.5844C0.994212 24.3979 1.42593 27.3978 1.43068 27.4278C1.4474 27.5641 1.4104 27.7014 1.32754 27.8108C1.24468 27.9202 1.12247 27.993 0.98683 28.0138C0.851187 28.0346 0.712776 28.0017 0.600947 27.9222C0.489118 27.8427 0.412663 27.7227 0.387796 27.5878C0.365629 27.4453 -0.125732 24.087 1.74946 21.901C2.76438 20.7182 4.25746 20.1187 6.18702 20.1187C6.29109 20.1187 6.39282 20.1496 6.47941 20.2073C8.14402 21.3167 9.46663 22.007 10.9038 22.0144C12.3404 22.0076 13.6635 21.3167 15.3281 20.2073C15.4147 20.1493 15.5171 20.1187 15.621 20.1187C17.5506 20.1187 19.0432 20.7177 20.0581 21.901C21.9338 24.087 21.4419 27.4458 21.4203 27.5878C21.4011 27.7121 21.3382 27.8255 21.2427 27.9075C21.1473 27.9895 21.0257 28.0346 20.8999 28.0348H20.9004Z" fill="black"/>
</svg>
